<?xml version="1.0" encoding="UTF-8"?>
<svg version="1.1" xmlns="http://www.w3.org/2000/svg" width="512" height="512">
<path d="M0 0 C6.39376122 1.73996887 11.51158705 6.22246453 16.74462891 10.14404297 C20.6217947 13.01897106 24.59909701 15.74981622 28.5625 18.50390625 C30.26610296 19.69723462 31.96921793 20.89125991 33.671875 22.0859375 C42.12405711 28.00841722 50.60218092 33.89367572 59.07666016 39.78417969 C63.88530162 43.1270168 68.69258892 46.47180006 73.5 49.81640625 C75.41666003 51.14974912 77.3333267 52.48308245 79.25 53.81640625 C142.5 97.81640625 142.5 97.81640625 205.75 141.81640625 C206.70003906 142.47721191 207.65007812 143.13801758 208.62890625 143.81884766 C210.53289764 145.14354643 212.43654728 146.46873655 214.33984375 147.79443359 C219.3226569 151.26411881 224.31227982 154.72340675 229.3125 158.16796875 C230.86614258 159.24111328 230.86614258 159.24111328 232.45117188 160.3359375 C234.42423431 161.6985008 236.39936371 163.05807791 238.37695312 164.4140625 C252.01467634 173.84575893 252.01467634 173.84575893 254 177.81640625 C254.55512815 182.44854118 254.6364242 185.79812752 252.125 189.81640625 C248.3988469 193.32337387 245.25062114 192.93737772 240.375 192.87890625 C239.66859375 192.87439453 238.9621875 192.86988281 238.234375 192.86523438 C236.48954725 192.853445 234.744763 192.83550949 233 192.81640625 C233.02618408 193.87553223 233.05236816 194.9346582 233.0793457 196.02587891 C233.17016552 199.9729278 233.22736342 203.91988525 233.2746582 207.86767578 C233.29973045 209.57291214 233.33379764 211.27804179 233.37719727 212.98291016 C233.43817566 215.44069799 233.46628112 217.89705986 233.48828125 220.35546875 C233.51408768 221.11195709 233.5398941 221.86844543 233.56648254 222.64785767 C233.5685966 226.67995447 233.17245372 229.09787313 230.59448242 232.28271484 C226.57114407 236.21178282 224.42193076 235.92933289 218.875 235.87890625 C217.59367187 235.86988281 216.31234375 235.86085937 214.9921875 235.8515625 C213.51105469 235.83416016 213.51105469 235.83416016 212 235.81640625 C211.80500613 244.57145093 211.68783017 253.32328701 211.66578102 262.08048439 C211.65318183 266.14869113 211.61534208 270.2131733 211.51660156 274.28027344 C210.12178822 294.42374236 210.12178822 294.42374236 217.89120483 311.96859741 C220.254817 314.07841702 222.70236241 315.90300467 225.35577393 317.63049316 C241.39614694 329.19975883 250.53721393 358.79504223 253.58984375 377.4140625 C256.60144816 404.0759022 252.79603656 429.20310168 240 452.81640625 C240.86625 453.45578125 241.7325 454.09515625 242.625 454.75390625 C248.32911661 459.51184238 252.00254582 465.7148081 254 472.81640625 C254.20695665 475.46840784 254.32747463 478.01355612 254.3359375 480.6640625 C254.3425943 481.39837997 254.3492511 482.13269745 254.35610962 482.88926697 C254.36618354 484.43306999 254.37092828 485.9769161 254.37060547 487.52075195 C254.37499438 489.8758901 254.41140824 492.22917513 254.44921875 494.58398438 C254.45508507 496.08983739 254.4590557 497.59569923 254.4609375 499.1015625 C254.47530853 499.80064224 254.48967957 500.49972198 254.50448608 501.21998596 C254.45975874 506.02444218 253.39856765 508.44356733 250 511.81640625 C246.83583453 513.39848899 243.43369003 512.95710743 239.9591856 512.95062733 C239.11418905 512.95297956 238.2691925 512.95533179 237.39859 512.9577553 C234.53611503 512.96447017 231.6736852 512.96398633 228.811203 512.96357727 C226.75063946 512.96687434 224.69007657 512.97059957 222.62951452 512.97471875 C216.94289841 512.98476457 211.25629286 512.98845968 205.56966913 512.99110806 C199.44616582 512.99500343 193.32267093 513.00458222 187.19917297 513.01332092 C173.09939613 513.0321708 158.99962122 513.0423442 144.89983532 513.0507816 C137.93555266 513.05498561 130.97127086 513.06020791 124.00698893 513.06546613 C100.17768926 513.083357 76.34838936 513.09835431 52.51908398 513.10578632 C51.02264198 513.10626108 49.52619999 513.10673697 48.029758 513.10721399 C47.28764193 513.10745036 46.54552587 513.10768674 45.78092145 513.10793028 C42.02085843 513.1091315 38.26079543 513.11034694 34.50073242 513.11157227 C33.38142975 513.11193249 33.38142975 513.11193249 32.23951491 513.11229999 C8.03690174 513.12019582 -16.16566247 513.14363314 -40.36825425 513.17612821 C-65.94364481 513.2104039 -91.5190067 513.23013533 -117.09442061 513.23343056 C-119.90044289 513.23384812 -122.70646515 513.23432769 -125.51248741 513.23485374 C-126.20343254 513.23497694 -126.89437766 513.23510013 -127.60626052 513.23522705 C-138.7390107 513.23756183 -149.87170415 513.25323714 -161.00443409 513.27369559 C-172.18844316 513.29392268 -183.37238489 513.29911149 -194.55641512 513.28992496 C-200.61874105 513.28536325 -206.68088224 513.28737474 -212.74318314 513.3066864 C-218.28795489 513.32419756 -223.83240547 513.323419 -229.37718006 513.30778911 C-231.38796696 513.30539462 -233.39877541 513.30983086 -235.40952919 513.32161776 C-238.13396942 513.33660479 -240.85725206 513.32715622 -243.58166218 513.31139088 C-244.37012814 513.32161308 -245.15859409 513.33183529 -245.97095296 513.34236726 C-249.69416318 513.29504664 -251.80044872 512.94473874 -254.96364611 510.91046971 C-258.44853949 507.32681564 -258.18835542 504.26589196 -258.23828125 499.5 C-258.246353 498.76950943 -258.25442474 498.03901886 -258.26274109 497.28639221 C-258.27658559 495.73546725 -258.28730612 494.18451176 -258.29516602 492.63354492 C-258.30663138 491.05955985 -258.32699612 489.48561197 -258.35668945 487.91186523 C-258.66940971 471.33769181 -258.66940971 471.33769181 -254 463.81640625 C-253.13375 462.23859375 -253.13375 462.23859375 -252.25 460.62890625 C-248.02803934 455.35145542 -243.67291016 452.01372013 -237 450.81640625 C-237.03927612 449.13683838 -237.03927612 449.13683838 -237.0793457 447.42333984 C-237.17012872 443.25264621 -237.22735061 439.08203916 -237.2746582 434.91064453 C-237.29973866 433.10841159 -237.33381188 431.30627974 -237.37719727 429.50439453 C-237.4381375 426.90762348 -237.46627346 424.3122016 -237.48828125 421.71484375 C-237.51408768 420.91460785 -237.5398941 420.11437195 -237.56648254 419.28988647 C-237.56853707 415.15349433 -237.24317292 412.59593537 -234.59448242 409.32275391 C-228.37157284 403.31123704 -227.86539011 405.81640625 -216 405.81640625 C-216 349.71640625 -216 293.61640625 -216 235.81640625 C-220.62 235.81640625 -225.24 235.81640625 -230 235.81640625 C-233.42362401 233.68365686 -235.21705814 232.38228997 -237 228.81640625 C-237.08675538 226.11747444 -237.11557897 223.44471394 -237.09765625 220.74609375 C-237.0962413 219.94986603 -237.09482635 219.15363831 -237.09336853 218.33328247 C-237.08776345 215.78595245 -237.07521014 213.23870978 -237.0625 210.69140625 C-237.05748565 208.9661471 -237.05292263 207.24088658 -237.04882812 205.515625 C-237.03779237 201.28251834 -237.02052436 197.04947711 -237 192.81640625 C-238.02480469 192.8628125 -239.04960937 192.90921875 -240.10546875 192.95703125 C-241.46611656 192.99456636 -242.82679605 193.03096466 -244.1875 193.06640625 C-244.86103516 193.09992188 -245.53457031 193.1334375 -246.22851562 193.16796875 C-249.89041975 193.23942054 -251.82150622 192.93174803 -254.92578125 190.92578125 C-257.66312776 188.14203903 -258.22092738 186.44189693 -258.4375 182.62890625 C-258.34254818 178.05661084 -257.24050618 175.76501851 -254.0546875 172.53515625 C-250.78634751 169.80118363 -247.28419588 167.51613387 -243.69921875 165.21875 C-239.27324924 162.37827522 -234.98677281 159.34384413 -230.6875 156.31640625 C-228.94808804 155.09480804 -227.20850005 153.87346042 -225.46875 152.65234375 C-224.57414062 152.02424805 -223.67953125 151.39615234 -222.7578125 150.74902344 C-218.07590318 147.46803953 -213.38178971 144.20464136 -208.6875 140.94140625 C-207.72803467 140.27431641 -206.76856934 139.60722656 -205.7800293 138.91992188 C-203.82785866 137.56274039 -201.87562869 136.20564425 -199.92333984 134.84863281 C-195.11469838 131.5057957 -190.30741108 128.16101244 -185.5 124.81640625 C-183.58333997 123.48306338 -181.6666733 122.14973005 -179.75 120.81640625 C-178.80125 120.15640625 -177.8525 119.49640625 -176.875 118.81640625 C-135.66666667 90.14973958 -94.45833333 61.48307292 -53.25 32.81640625 C-52.29988037 32.15543945 -51.34976074 31.49447266 -50.37084961 30.81347656 C-48.46807073 29.48983244 -46.56523932 28.16626383 -44.66235352 26.84277344 C-39.65775419 23.36183569 -34.65426921 19.87931034 -29.65234375 16.39453125 C-28.61207031 15.67007812 -27.57179687 14.945625 -26.5 14.19921875 C-24.51138066 12.81428742 -22.52308075 11.42889727 -20.53515625 10.04296875 C-18.77993774 8.82085386 -17.02291477 7.60132438 -15.26367188 6.38500977 C-13.89419896 5.4360383 -12.52943352 4.48015253 -11.17382812 3.51147461 C-7.30938465 0.79968039 -4.69785469 -0.21671651 0 0 Z M-10.625 30.44140625 C-11.96908924 31.47430816 -13.31555349 32.50412503 -14.6640625 33.53125 C-15.37208008 34.07378418 -16.08009766 34.61631836 -16.80957031 35.17529297 C-20.45617167 37.90739889 -24.22624558 40.45181683 -28 43.00390625 C-35.1127632 47.83730932 -42.19389151 52.71312682 -49.25 57.62890625 C-50.21357422 58.30010498 -51.17714844 58.97130371 -52.16992188 59.6628418 C-54.13359927 61.03105522 -56.0971404 62.39946424 -58.06054688 63.76806641 C-62.87155772 67.12058974 -67.68592423 70.46828626 -72.5 73.81640625 C-74.41668326 75.14971573 -76.33334991 76.48304908 -78.25 77.81640625 C-118.5 105.81640625 -118.5 105.81640625 -158.75 133.81640625 C-159.69963623 134.47705078 -160.64927246 135.13769531 -161.62768555 135.81835938 C-163.53529414 137.14533504 -165.44300819 138.47215914 -167.35083008 139.79882812 C-172.28198177 143.22816825 -177.21101147 146.66049974 -182.13671875 150.09765625 C-184.15352413 151.50408079 -186.17044901 152.91033398 -188.1875 154.31640625 C-189.14793213 154.98615479 -190.10836426 155.65590332 -191.09790039 156.34594727 C-197.06870373 160.5002985 -203.0767605 164.57874768 -209.18359375 168.53125 C-210.08271484 169.16740234 -210.08271484 169.16740234 -211 169.81640625 C-211 170.14640625 -211 170.47640625 -211 170.81640625 C-73.06 170.81640625 64.88 170.81640625 207 170.81640625 C202.85683986 167.49512254 202.85683986 167.49512254 198.6015625 164.36328125 C197.96976074 163.91758789 197.33795898 163.47189453 196.68701172 163.01269531 C196.00654785 162.53541992 195.32608398 162.05814453 194.625 161.56640625 C193.89168457 161.05045898 193.15836914 160.53451172 192.40283203 160.00292969 C183.282669 153.5951882 174.12633125 147.23917013 164.97167969 140.88085938 C160.14609102 137.52847868 155.32315423 134.172288 150.5 130.81640625 C148.58334661 129.48305383 146.66667993 128.14972052 144.75 126.81640625 C41.25 54.81640625 41.25 54.81640625 38.37060547 52.81274414 C36.46934438 51.49052846 34.56733551 50.16938733 32.66455078 48.84936523 C27.63026332 45.35474869 22.61339103 41.83795912 17.6171875 38.2890625 C16.57240234 37.55107422 15.52761719 36.81308594 14.45117188 36.05273438 C12.44503876 34.63506697 10.44349208 33.21088022 8.44726562 31.77929688 C7.54427734 31.14314453 6.64128906 30.50699219 5.7109375 29.8515625 C4.91993652 29.28832275 4.12893555 28.72508301 3.31396484 28.14477539 C-2.71856233 24.68170509 -5.55458385 26.36317588 -10.625 30.44140625 Z M-215 192.81640625 C-215 199.74640625 -215 206.67640625 -215 213.81640625 C-186.95 213.81640625 -158.9 213.81640625 -130 213.81640625 C-130 206.88640625 -130 199.95640625 -130 192.81640625 C-158.05 192.81640625 -186.1 192.81640625 -215 192.81640625 Z M-108 192.81640625 C-108.20971342 203.73533383 -108.20971342 203.73533383 -108.38793945 214.65478516 C-108.42025606 216.03420664 -108.45363354 217.41360385 -108.48828125 218.79296875 C-108.49452515 219.49639404 -108.50076904 220.19981934 -108.50720215 220.92456055 C-108.6419877 225.58568985 -109.43705682 228.90260955 -112 232.81640625 C-116 234.81640625 -116 234.81640625 -130 235.81640625 C-130 291.91640625 -130 348.01640625 -130 405.81640625 C-125.38 406.14640625 -120.76 406.47640625 -116 406.81640625 C-110.13908779 410.33295357 -110.13908779 410.33295357 -109 414.81640625 C-108.76910427 417.48761877 -108.62879598 420.06900356 -108.5859375 422.7421875 C-108.56829346 423.40553101 -108.55064941 424.06887451 -108.5324707 424.75231934 C-108.46979301 427.21094305 -108.42333818 429.66995882 -108.375 432.12890625 C-108.25125 437.63578125 -108.1275 443.14265625 -108 448.81640625 C-94.14 448.81640625 -80.28 448.81640625 -66 448.81640625 C-65.82961581 436.82006059 -65.82961581 436.82006059 -65.70214844 424.82324219 C-65.67277505 423.31572419 -65.64194859 421.8082335 -65.609375 420.30078125 C-65.60824707 419.52234863 -65.60711914 418.74391602 -65.60595703 417.94189453 C-65.51067343 414.33273763 -65.33186439 412.24449267 -63.08691406 409.34863281 C-56.89037456 404.79909117 -55.65508273 406.57748359 -45 405.81640625 C-45 349.71640625 -45 293.61640625 -45 235.81640625 C-51.93 235.32140625 -51.93 235.32140625 -59 234.81640625 C-63 232.81640625 -63 232.81640625 -65 229.81640625 C-65.24090449 226.99288017 -65.37307355 224.25690747 -65.4140625 221.4296875 C-65.43170654 220.70535522 -65.44935059 219.98102295 -65.4675293 219.23474121 C-65.53052095 216.53302065 -65.57675977 213.83093046 -65.625 211.12890625 C-65.74875 205.08578125 -65.8725 199.04265625 -66 192.81640625 C-79.86 192.81640625 -93.72 192.81640625 -108 192.81640625 Z M-44 192.81640625 C-44 199.74640625 -44 206.67640625 -44 213.81640625 C-16.28 213.81640625 11.44 213.81640625 40 213.81640625 C40 206.88640625 40 199.95640625 40 192.81640625 C12.28 192.81640625 -15.44 192.81640625 -44 192.81640625 Z M62 192.81640625 C61.82961581 204.81275191 61.82961581 204.81275191 61.70214844 216.80957031 C61.67277505 218.31708831 61.64194859 219.824579 61.609375 221.33203125 C61.60824707 222.11046387 61.60711914 222.88889648 61.60595703 223.69091797 C61.51067343 227.30007487 61.33186439 229.38831983 59.08691406 232.28417969 C52.89037456 236.83372133 51.65508273 235.05532891 41 235.81640625 C41 265.51640625 41 295.21640625 41 325.81640625 C44.50213986 322.31426639 47.74915873 318.84061373 51 315.12890625 C69.26341753 294.91193131 95.77387506 282.66706411 122.55078125 279.2109375 C124.94033838 279.07128558 124.94033838 279.07128558 126 277.81640625 C126.08874135 274.71389424 126.11518455 271.63372505 126.09765625 268.53125 C126.0962413 267.60043106 126.09482635 266.66961212 126.09336853 265.71058655 C126.08775172 262.72499434 126.0751964 259.73947596 126.0625 256.75390625 C126.05748716 254.73502712 126.05292388 252.71614682 126.04882812 250.69726562 C126.03777683 245.73695053 126.02050095 240.77669093 126 235.81640625 C125.04738281 235.77902344 124.09476562 235.74164063 123.11328125 235.703125 C121.85902344 235.63738281 120.60476563 235.57164062 119.3125 235.50390625 C118.07113281 235.44589844 116.82976562 235.38789063 115.55078125 235.328125 C111.83906643 234.7932134 109.89172116 234.17667595 107 231.81640625 C104.6146579 227.75227216 104.65968355 223.49033895 104.5859375 218.890625 C104.56829346 218.22728149 104.55064941 217.56393799 104.5324707 216.88049316 C104.46979301 214.42186945 104.42333818 211.96285368 104.375 209.50390625 C104.25125 203.99703125 104.1275 198.49015625 104 192.81640625 C90.14 192.81640625 76.28 192.81640625 62 192.81640625 Z M126 192.81640625 C126 199.74640625 126 206.67640625 126 213.81640625 C154.05 213.81640625 182.1 213.81640625 211 213.81640625 C211 206.88640625 211 199.95640625 211 192.81640625 C182.95 192.81640625 154.9 192.81640625 126 192.81640625 Z M-194 235.81640625 C-194 291.91640625 -194 348.01640625 -194 405.81640625 C-180.14 405.81640625 -166.28 405.81640625 -152 405.81640625 C-152 349.71640625 -152 293.61640625 -152 235.81640625 C-165.86 235.81640625 -179.72 235.81640625 -194 235.81640625 Z M-23 235.81640625 C-23 291.91640625 -23 348.01640625 -23 405.81640625 C-9.14 405.81640625 4.72 405.81640625 19 405.81640625 C19 349.71640625 19 293.61640625 19 235.81640625 C5.14 235.81640625 -8.72 235.81640625 -23 235.81640625 Z M148 235.81640625 C147.979375 242.72578125 147.95875 249.63515625 147.9375 256.75390625 C147.928396 258.93749756 147.91929199 261.12108887 147.90991211 263.37084961 C147.90699302 265.09098245 147.90444445 266.81111597 147.90234375 268.53125 C147.89722778 269.4329895 147.89211182 270.334729 147.88684082 271.26379395 C147.88653118 273.4483237 147.9375413 275.63276955 148 277.81640625 C149.49273036 279.30913661 150.98571008 279.22169705 153.05859375 279.54296875 C164.18625866 281.38864548 174.21259243 284.02801161 184.60546875 288.42578125 C187.69706428 289.94276922 187.69706428 289.94276922 190 289.81640625 C190 271.99640625 190 254.17640625 190 235.81640625 C176.14 235.81640625 162.28 235.81640625 148 235.81640625 Z M71 325.81640625 C70.35546875 326.39003906 69.7109375 326.96367187 69.046875 327.5546875 C51.39466679 344.21296507 42.15627154 368.22493219 40.81640625 392.0859375 C40.26850417 418.73976238 50.01681778 442.97759834 68.14794922 462.4152832 C84.30950554 479.11377718 107.37385376 490.25476178 130.75 491.01953125 C158.5895798 491.43473159 184.16191228 483.00639571 204.39794922 463.44628906 C217.39856384 450.21981798 225.3347063 434.62762877 230 416.81640625 C230.36931641 415.47255859 230.36931641 415.47255859 230.74609375 414.1015625 C236.12194428 390.63319431 230.33301624 364.76594782 217.8359375 344.546875 C202.70601338 322.04513679 181.54228535 306.69065441 154.84375 301.3046875 C150.88482324 300.62492672 147.01320581 300.03750106 143 299.81640625 C142.07316406 299.76355469 141.14632812 299.71070313 140.19140625 299.65625 C114.17222935 298.90913256 90.27083304 308.52933543 71 325.81640625 Z M-215 427.81640625 C-215 434.74640625 -215 441.67640625 -215 448.81640625 C-186.95 448.81640625 -158.9 448.81640625 -130 448.81640625 C-130 441.88640625 -130 434.95640625 -130 427.81640625 C-158.05 427.81640625 -186.1 427.81640625 -215 427.81640625 Z M-44 427.81640625 C-44 434.74640625 -44 441.67640625 -44 448.81640625 C-19.25 448.81640625 5.5 448.81640625 31 448.81640625 C29.5529281 441.58104673 26.59081624 434.72524955 24 427.81640625 C1.56 427.81640625 -20.88 427.81640625 -44 427.81640625 Z M-235 475.81640625 C-237.24103151 480.29846927 -236 485.80530746 -236 490.81640625 C-136.01 490.81640625 -36.02 490.81640625 67 490.81640625 C63.46413811 487.28054436 59.99487016 484.03293665 56.19975889 480.82228249 C54 478.81640625 54 478.81640625 52.24050009 476.74130327 C48.74802549 472.66219045 46.19472138 470.33599735 40.73760033 469.81805706 C38.70488201 469.77822268 36.6710138 469.78194172 34.63827515 469.82072449 C33.51269624 469.81036126 32.38711734 469.79999803 31.22742999 469.78932077 C27.46498199 469.76448335 23.7052312 469.79669891 19.94287109 469.82885742 C17.24202855 469.82292697 14.54136218 469.81386064 11.84056091 469.80097961 C5.27270491 469.7770046 -1.29436168 469.7957585 -7.86214878 469.8293558 C-15.51288638 469.8670447 -23.16344184 469.8636295 -30.81425063 469.85891656 C-44.4651973 469.8520416 -58.11577143 469.88449452 -71.76660156 469.93823242 C-85.0092175 469.99034595 -98.25142586 470.01157363 -111.49414062 469.99975586 C-125.92174848 469.98693208 -140.34918247 469.98957472 -154.77676904 470.02060109 C-155.92125139 470.02305842 -155.92125139 470.02305842 -157.0888546 470.02556539 C-158.62120595 470.02885615 -160.15355723 470.03217791 -161.68590844 470.03553107 C-167.01771 470.04630137 -172.34945367 470.04658262 -177.68126297 470.04323387 C-184.17825465 470.03967097 -190.67490478 470.05460134 -197.1717899 470.09279379 C-200.48609844 470.11188819 -203.79982484 470.12043289 -207.11419487 470.11271286 C-210.70742683 470.10579088 -214.29917424 470.12955678 -217.89224243 470.16130066 C-218.93931921 470.15219341 -219.98639598 470.14308616 -221.06520236 470.13370293 C-227.48788414 470.23280298 -230.60621267 471.02226736 -235 475.81640625 Z M226 471.81640625 C225.14277344 472.69683594 224.28554688 473.57726562 223.40234375 474.484375 C222.247671 475.65782291 221.09270748 476.83098475 219.9375 478.00390625 C219.37611328 478.58205078 218.81472656 479.16019531 218.23632812 479.75585938 C214.41731771 483.61851562 210.45373965 486.71297238 206 489.81640625 C206 490.14640625 206 490.47640625 206 490.81640625 C214.58 490.81640625 223.16 490.81640625 232 490.81640625 C233.1147408 478.70248227 233.1147408 478.70248227 229 472.81640625 C228.01 472.48640625 227.02 472.15640625 226 471.81640625 Z " fill="#FFFFFF" transform="translate(258,-0.81640625)"/>
<path d="M0 0 C2.64398662 1.26575751 5.04867577 2.63675287 7.44140625 4.328125 C8.0974585 4.79081787 8.75351074 5.25351074 9.42944336 5.73022461 C10.13335205 6.23175049 10.83726074 6.73327637 11.5625 7.25 C12.30701416 7.77795166 13.05152832 8.30590332 13.81860352 8.84985352 C20.21079712 13.40030756 26.53053348 18.04661499 32.83789062 22.71362305 C38.22232216 26.69672457 43.62981601 30.64547327 49.0625 34.5625 C49.80177734 35.09552734 50.54105469 35.62855469 51.30273438 36.17773438 C53.53463937 37.78587553 55.76718791 39.39311858 58 41 C67.99823224 48.19539885 77.96380417 55.43013957 87.87011719 62.75170898 C94.16827206 67.40130558 100.50457456 71.99610381 106.86328125 76.5625 C108.23322828 77.54763045 109.60098125 78.53582062 110.96630859 79.52734375 C112.37883673 80.55019725 113.79903994 81.56250167 115.22509766 82.56640625 C115.94101074 83.08074219 116.65692383 83.59507813 117.39453125 84.125 C118.0388208 84.58132812 118.68311035 85.03765625 119.34692383 85.5078125 C122.28265881 88.15782169 122.9429292 90.4863628 123.375 94.375 C122.92573223 98.7179218 121.8337428 100.70673134 119 104 C114.4291121 106.54791144 109.86639284 106.27461395 104.78092957 106.24050903 C103.84969106 106.24221788 102.91845255 106.24392673 101.95899469 106.24568737 C98.83741241 106.2489826 95.71604491 106.2379779 92.59448242 106.22705078 C90.3573202 106.22648668 88.12015761 106.22680321 85.88299561 106.22793579 C79.80700683 106.22851033 73.73109679 106.21673963 67.65512633 106.20278788 C61.30632789 106.19029737 54.95752771 106.18911134 48.60871887 106.18673706 C37.95177688 106.1812243 27.29486604 106.16872628 16.63793945 106.15087891 C5.66202946 106.13251646 -5.31387267 106.11836174 -16.28979492 106.10986328 C-16.9665293 106.10933783 -17.64326368 106.10881239 -18.34050516 106.10827102 C-21.73553611 106.10566091 -25.13056712 106.1031335 -28.52559817 106.10064721 C-56.68375291 106.0799191 -84.84187313 106.04414637 -113 106 C-113 98.74 -113 91.48 -113 84 C-50.96 83.67 11.08 83.34 75 83 C62.62685384 73.68922069 62.62685384 73.68922069 50.125 64.5625 C48.60546331 63.46875756 47.08593222 62.37500733 45.56640625 61.28125 C44.04428558 60.18747948 42.52215023 59.09372938 41 58 C38.01952476 55.85597862 35.04040925 53.71008391 32.0625 51.5625 C31.32346436 51.02963379 30.58442871 50.49676758 29.82299805 49.94775391 C24.33324123 45.98170655 18.88141494 41.96615215 13.4375 37.9375 C4.72018045 31.48787373 -4.11290686 25.21299981 -13 19 C-11.68779266 16.22561876 -10.22517631 13.79209828 -8.3984375 11.328125 C-7.90859375 10.66425781 -7.41875 10.00039063 -6.9140625 9.31640625 C-6.15222656 8.29353516 -6.15222656 8.29353516 -5.375 7.25 C-4.859375 6.55261719 -4.34375 5.85523438 -3.8125 5.13671875 C-2.54440881 3.42244733 -1.2725711 1.71094844 0 0 Z " fill="#FFFFFF" transform="translate(262,44)"/>
<path d="M0 0 C7.26 0 14.52 0 22 0 C22 6.93 22 13.86 22 21 C25.4959375 20.9071875 25.4959375 20.9071875 29.0625 20.8125 C37.01388686 20.74618176 42.543193 21.84153466 48.64453125 27.38671875 C55.15026936 35.12985949 54.34561893 44.49547934 54 54 C46.74 54 39.48 54 32 54 C32 50.37 32 46.74 32 43 C18.14 43 4.28 43 -10 43 C-10 49.93 -10 56.86 -10 64 C-6.6278125 63.95359375 -3.255625 63.9071875 0.21875 63.859375 C3.50193783 63.82813763 6.7851088 63.80387357 10.06835938 63.78027344 C12.34187284 63.76021683 14.6153351 63.73296462 16.88867188 63.69824219 C20.16549349 63.64946288 23.44163025 63.62697103 26.71875 63.609375 C28.23172668 63.57840729 28.23172668 63.57840729 29.77526855 63.54681396 C37.0760072 63.54451727 42.3554805 64.98166242 48.0234375 69.67578125 C48.69246094 70.48595703 48.69246094 70.48595703 49.375 71.3125 C50.06722656 72.11107422 50.06722656 72.11107422 50.7734375 72.92578125 C54.97599476 80.03265355 54.33328831 87.93400027 54.3125 95.9375 C54.32861328 97.17435547 54.34472656 98.41121094 54.36132812 99.68554688 C54.36576844 107.99336974 53.9346918 115.24955526 48.25 121.8125 C47.80140625 122.35519531 47.3528125 122.89789063 46.890625 123.45703125 C41.48953869 127.8649426 36.24966351 128.42420757 29.5625 128.1875 C27.066875 128.125625 24.57125 128.06375 22 128 C22 135.26 22 142.52 22 150 C14.74 150 7.48 150 0 150 C0 142.74 0 135.48 0 128 C-2.64 128.0825 -5.28 128.165 -8 128.25 C-20.12586569 128.35535269 -20.12586569 128.35535269 -25 124 C-29.17098263 119.41376467 -32.14556993 115.36080119 -32.09765625 108.98828125 C-32.09515869 108.30548096 -32.09266113 107.62268066 -32.09008789 106.91918945 C-32.07643188 105.62887817 -32.07643188 105.62887817 -32.0625 104.3125 C-32.041875 101.569375 -32.02125 98.82625 -32 96 C-24.74 96 -17.48 96 -10 96 C-10 99.3 -10 102.6 -10 106 C3.86 106 17.72 106 32 106 C32 99.4 32 92.8 32 86 C28.7721875 86.03480469 25.544375 86.06960938 22.21875 86.10546875 C19.07455326 86.12889985 15.93036644 86.14709622 12.78613281 86.16479492 C10.60965585 86.17983299 8.43320895 86.20026873 6.25683594 86.22631836 C3.11906492 86.2629209 -0.0183036 86.27977661 -3.15625 86.29296875 C-4.12115356 86.30845261 -5.08605713 86.32393646 -6.0802002 86.33988953 C-13.42376223 86.34169753 -20.05481137 85.23719502 -25.8125 80.25 C-26.62654297 79.57710937 -26.62654297 79.57710937 -27.45703125 78.890625 C-31.55466458 73.86972745 -32.46687739 68.51136046 -32.46875 62.1953125 C-32.47636353 61.47189667 -32.48397705 60.74848083 -32.49182129 60.00314331 C-32.50256064 58.48211086 -32.50550065 56.96100504 -32.50097656 55.43994141 C-32.50000509 53.13706999 -32.54167021 50.83754719 -32.5859375 48.53515625 C-32.65159698 40.57645141 -32.58293587 33.26490558 -27 27 C-20.79254131 22.12291649 -15.65727071 20.84911042 -7.8125 20.9375 C-5.234375 20.958125 -2.65625 20.97875 0 21 C0 14.07 0 7.14 0 0 Z " fill="#FFFFFF" transform="translate(384,320)"/>
</svg>
