<?xml version="1.0" encoding="UTF-8"?>
<svg version="1.1" xmlns="http://www.w3.org/2000/svg" width="512" height="512">
<path d="M0 0 C1.03090004 -0.00058631 2.06180008 -0.00117262 3.12393951 -0.0017767 C4.31005325 -0.01443066 5.49616699 -0.02708462 6.71822357 -0.04012203 C8.01601242 -0.02842983 9.31380127 -0.01673763 10.65091705 -0.00469112 C12.03417122 -0.00983029 13.41741885 -0.01711155 14.80065155 -0.02637386 C18.55494215 -0.04489718 22.30852309 -0.03194418 26.06278419 -0.01228356 C29.99138089 0.00409696 33.91993243 -0.00470911 37.84854889 -0.00980282 C44.44603568 -0.01432447 51.04323903 0.00155026 57.64066315 0.02948856 C65.26842928 0.06154101 72.89568418 0.06152511 80.52348661 0.04427379 C87.86089457 0.02841044 95.19811508 0.03514096 102.53551483 0.05221081 C105.65827676 0.05908378 108.78088855 0.0580464 111.90364838 0.05066586 C115.58101659 0.04300501 119.25780296 0.05512159 122.93507195 0.08251476 C124.92857169 0.09268764 126.92214128 0.08321397 128.91564178 0.07318974 C130.69481239 0.09227642 130.69481239 0.09227642 132.50992584 0.1117487 C134.0562759 0.11595908 134.0562759 0.11595908 135.63386536 0.12025452 C139.01486605 0.7580768 140.17753325 1.99196503 142.31693268 4.62641239 C143.51081586 7.01417876 143.45622149 8.51483522 143.47806549 11.18036747 C143.48767303 12.12507404 143.49728058 13.06978062 143.50717926 14.04311466 C143.51355408 15.57901501 143.51355408 15.57901501 143.52005768 17.14594364 C143.52575775 18.19666553 143.53145782 19.24738743 143.53733063 20.32994938 C143.5467892 22.55677118 143.553318 24.78360703 143.55716705 27.01044559 C143.56686338 30.41458491 143.59787538 33.81811824 143.62943268 37.22211552 C143.63596354 39.3842213 143.64121368 41.54633141 143.64505768 43.70844364 C143.65740448 44.72630451 143.66975128 45.74416538 143.68247223 46.79287052 C143.65459717 55.6554082 143.65459717 55.6554082 140.31693268 59.62641239 C137.01701274 61.93635635 135.6658363 61.62641239 131.31693268 61.62641239 C131.31693268 119.04641239 131.31693268 176.46641239 131.31693268 235.62641239 C135.93693268 235.62641239 140.55693268 235.62641239 145.31693268 235.62641239 C145.293367 233.84811039 145.293367 233.84811039 145.26932526 232.03388309 C145.21493703 227.62640039 145.18055022 223.21894725 145.15213776 218.81122684 C145.1370714 216.90525158 145.11661443 214.99931087 145.09061432 213.09345341 C145.05413626 210.35044663 145.03718476 207.60789911 145.02396393 204.86469364 C145.00848007 204.0155489 144.99299622 203.16640415 144.97704315 202.29152775 C144.9757092 197.57927354 145.22760426 194.44335956 148.31693268 190.62641239 C151.70737583 188.93119081 155.56767467 189.47846873 159.29776764 189.47924137 C160.23980498 189.47556468 161.18184232 189.471888 162.15242624 189.46809989 C165.32901193 189.45703144 168.50556494 189.45321382 171.68216705 189.44941044 C173.95192316 189.44314803 176.22167824 189.43650143 178.49143219 189.42949772 C184.67360265 189.41206387 190.85576536 189.40152882 197.03795433 189.39329219 C200.89981344 189.38814563 204.76167012 189.38206965 208.62352753 189.37578106 C219.31908425 189.35890552 230.01463756 189.34427228 240.71020508 189.33703232 C243.48666637 189.33512245 246.26312766 189.33320212 249.03958893 189.33124638 C249.72965745 189.33076264 250.41972597 189.3302789 251.13070565 189.3297805 C262.29803199 189.32148832 273.46525091 189.29616721 284.63253039 189.2636657 C296.10227698 189.23055674 307.57194354 189.21291242 319.0417428 189.20938808 C325.47966966 189.2070376 331.91742695 189.19807757 338.35530853 189.1729269 C344.41605755 189.14963351 350.47652555 189.14541829 356.53730774 189.15568829 C358.75844762 189.15618349 360.97960139 189.14986766 363.20069885 189.13613224 C366.24087679 189.1183882 369.28004904 189.12553242 372.32022858 189.1386652 C373.6285396 189.12221133 373.6285396 189.12221133 374.96328115 189.10542506 C384.6092565 189.20553221 392.37631006 192.75066796 399.33646393 199.34125614 C405.31513496 206.23972272 407.67737744 214.16513794 407.52787018 223.16547489 C406.6752265 233.11298445 402.12587968 240.26341826 394.94193268 246.93891239 C389.22546499 251.55993363 383.57128106 253.07980917 376.31693268 252.62641239 C376.34915924 253.74531864 376.3813858 254.86422489 376.41458893 256.01703739 C376.36383099 289.0532037 358.2289112 320.5420262 336.13724518 343.82953739 C326.4027896 353.48309722 306.71683436 372.62641239 292.31693268 372.62641239 C293.20584446 374.17208031 294.10346874 375.71273846 295.00443268 377.25141239 C295.50329987 378.10992802 296.00216705 378.96844364 296.51615143 379.85297489 C300.30920657 385.69477348 304.00040311 389.4114364 310.19193268 392.56391239 C322.44639888 399.25683403 328.11611459 407.68129992 332.15579987 421.11615849 C334.46790661 429.7855059 334.70059479 438.43703197 334.75443268 447.37641239 C334.76458405 448.60295536 334.77473541 449.82949833 334.7851944 451.09320927 C334.77375397 452.25401005 334.76231354 453.41481083 334.75052643 454.61078739 C334.74077789 455.6494495 334.73102936 456.68811161 334.72098541 457.75824833 C334.25744033 461.04871817 333.26737024 462.95748668 331.31693268 465.62641239 C327.9026289 467.33356428 323.99296168 466.77823535 320.23566437 466.78031254 C319.2827875 466.78469479 318.32991064 466.78907705 317.34815872 466.7935921 C314.13478586 466.80701448 310.92144045 466.81316678 307.70804596 466.81928349 C305.4119784 466.82718203 303.11591209 466.83545082 300.81984711 466.84406376 C293.25899192 466.87032244 285.6981311 466.88559974 278.13724518 466.89984989 C275.53538637 466.90520885 272.93352759 466.91058635 270.33166885 466.91598225 C259.50572731 466.93762063 248.67978809 466.9565071 237.85383034 466.96760464 C235.04335399 466.97053426 232.23287768 466.97349592 229.42240143 466.97651005 C228.72388569 466.9772561 228.02536994 466.97800215 227.30568705 466.97877081 C216.00712222 466.99140612 204.70871541 467.02460265 193.41022433 467.06631188 C181.80261171 467.10880956 170.19508813 467.13190193 158.58739841 467.1375252 C152.07335319 467.14117568 145.55957544 467.15316457 139.04560471 467.18562794 C132.91093882 467.21576059 126.77670146 467.22200147 120.64197731 467.21024418 C118.39586984 467.21002385 116.14974219 467.21829476 113.90370369 467.23589802 C97.99142408 467.35377216 86.38954397 466.58056483 74.43802643 454.93500614 C63.49431379 443.02389349 62.73034479 428.43089049 62.77787018 413.05219364 C62.7679317 411.27542268 62.75597871 409.49866197 62.74213409 407.72191715 C62.70999124 403.07152739 62.69940269 398.42137246 62.69528961 393.77088261 C62.68649246 386.34944814 62.65032729 378.92820476 62.60311508 371.50692654 C62.59077863 368.94937216 62.59126634 366.39207376 62.59339142 363.8344965 C62.55805116 349.49622135 61.63297738 335.1452292 58.12943268 321.18891239 C57.80579742 319.88180302 57.80579742 319.88180302 57.47562408 318.54828739 C51.65934093 295.92167705 41.58057379 275.12924754 27.31693268 256.62641239 C26.12784003 255.06512408 24.94007087 253.50282562 23.75443268 251.93891239 C23.07187408 251.06686161 23.07187408 251.06686161 22.37552643 250.17719364 C19.96851258 246.65105158 19.99678972 242.81810209 19.66518402 238.68253422 C19.57814778 237.61628195 19.57814778 237.61628195 19.48935324 236.52848923 C19.2953844 234.14067057 19.10683051 231.75245525 18.91825104 229.36420536 C18.78048843 227.65422417 18.64240384 225.94426889 18.50402069 224.23433781 C18.12865417 219.58351172 17.75807656 214.93231533 17.38853145 210.2810235 C17.00110761 205.41233786 16.60997179 200.54395021 16.21941376 195.67551517 C15.56358735 187.49269525 14.91092351 179.3096275 14.26004791 171.12641239 C13.50840602 161.67687073 12.75150336 152.22776152 11.99181265 142.77886379 C11.26078453 133.68461725 10.53380149 124.59005148 9.80854225 115.49534321 C9.50010302 111.62864207 9.19020505 107.76206198 8.87911034 103.89557362 C8.51224417 99.33388829 8.14891701 94.77193426 7.78825951 90.20975399 C7.65565886 88.53959822 7.52185552 86.86953741 7.38673019 85.19958401 C6.75093596 77.33345617 6.13449486 69.52615576 6.31693268 61.62641239 C5.66498932 61.59765018 5.01304596 61.56888798 4.34134674 61.53925419 C-1.95370379 61.26153137 -1.95370379 61.26153137 -4.79732513 58.78534794 C-7.60691065 54.07881933 -7.25576391 49.76240724 -7.21431732 44.37641239 C-7.21814423 43.28554325 -7.22197113 42.19467411 -7.225914 41.07074833 C-7.22863222 38.76767903 -7.22127747 36.46457881 -7.2045517 34.16156864 C-7.18314219 30.63873227 -7.20435794 27.11793542 -7.22994232 23.59516239 C-7.22729903 21.35557456 -7.22217403 19.115988 -7.21431732 16.87641239 C-7.22241425 15.82421513 -7.23051117 14.77201786 -7.23885345 13.68793583 C-7.22624481 12.70341434 -7.21363617 11.71889286 -7.20064545 10.70453739 C-7.19746307 9.84247684 -7.1942807 8.9804163 -7.19100189 8.0922327 C-6.32081838 3.86783788 -4.27802465 0.9987851 0 0 Z M10.31693268 16.62641239 C10.31693268 25.86641239 10.31693268 35.10641239 10.31693268 44.62641239 C48.59693268 44.62641239 86.87693268 44.62641239 126.31693268 44.62641239 C126.31693268 35.38641239 126.31693268 26.14641239 126.31693268 16.62641239 C88.03693268 16.62641239 49.75693268 16.62641239 10.31693268 16.62641239 Z M23.31693268 61.62641239 C23.90608214 73.99855119 24.50962111 86.29278944 25.51615143 98.62470341 C25.63318207 100.08925011 25.74992232 101.55382003 25.86640167 103.01841068 C26.17729238 106.91633017 26.49238216 110.81389856 26.80854416 114.71139359 C27.14114876 118.81855418 27.47033245 122.92598935 27.80008698 127.03337955 C28.35239808 133.90598041 28.90755378 140.77834701 29.46439362 147.65058231 C30.10757474 155.58893196 30.74579163 163.52766956 31.38152218 171.46661907 C31.93023895 178.31735538 32.48157572 185.16787712 33.03511906 192.01822513 C33.36460455 196.09576375 33.6931941 200.17336908 34.01941681 204.25117016 C34.32500071 208.06914012 34.63387269 211.88683004 34.94530106 215.70432758 C35.05893479 217.1038827 35.17142203 218.50353145 35.28268051 219.9032774 C35.43461968 221.81246525 35.5911128 223.72128907 35.74784088 225.63008976 C35.8341124 226.69790463 35.92038391 227.76571951 36.00926971 228.86589241 C36.28077054 231.86025494 36.28077054 231.86025494 37.31693268 235.62641239 C62.72693268 235.62641239 88.13693268 235.62641239 114.31693268 235.62641239 C114.31693268 178.20641239 114.31693268 120.78641239 114.31693268 61.62641239 C84.28693268 61.62641239 54.25693268 61.62641239 23.31693268 61.62641239 Z M162.31693268 206.62641239 C162.31693268 216.19641239 162.31693268 225.76641239 162.31693268 235.62641239 C190.61966407 235.74213253 218.92233853 235.83137278 247.22525883 235.88547325 C260.36665714 235.91126017 273.5079058 235.94642035 286.64920807 236.00360966 C298.10251605 236.05342929 309.55571566 236.08569985 321.00912899 236.09685487 C327.07425948 236.10337597 333.13907993 236.11871319 339.2041111 236.15506268 C344.91274431 236.18899899 350.62093973 236.19946992 356.32966423 236.1919508 C358.4246852 236.19332638 360.5197208 236.20327265 362.61465454 236.22243977 C365.47664944 236.24734059 368.33699445 236.24132816 371.19902802 236.22768497 C372.02686485 236.24224918 372.85470169 236.25681339 373.7076245 236.27181894 C379.44933851 236.19790344 383.20371764 234.71062649 387.31693268 230.62641239 C390.03649446 226.12213819 390.81410326 222.63614666 389.88724518 217.54828739 C388.59323861 213.18766253 386.54497738 210.40823124 382.73238182 207.98099136 C378.4406236 206.27886517 374.92645865 206.21735985 370.3572464 206.26564884 C369.46598899 206.26308557 368.57473158 206.26052229 367.65646636 206.25788134 C364.67607851 206.25294791 361.69619949 206.26942925 358.71585846 206.28583622 C356.57706972 206.28668259 354.43828011 206.28620716 352.29949188 206.28450871 C346.49623689 206.28364771 340.69316778 206.30129062 334.889956 206.32223058 C328.82411039 206.34097979 322.75826056 206.34274644 316.69239044 206.3463068 C305.20715095 206.35563241 293.72199709 206.38025325 282.23679531 206.41035527 C269.16073803 206.44388317 256.08467668 206.46038125 243.00858712 206.47544158 C216.11131988 206.50680229 189.21413469 206.56017694 162.31693268 206.62641239 Z M47.31693268 252.62641239 C49.0297877 256.90854994 51.01716023 260.50927425 53.44193268 264.37641239 C72.22757244 295.20432386 79.62138778 329.52459448 79.59132767 365.3305006 C79.59033747 367.93509874 79.60358304 370.53931134 79.62030792 373.14385319 C79.66588957 380.53213649 79.69121244 387.92036549 79.69779205 395.30878544 C79.70282653 399.86962294 79.72714436 404.43003608 79.76311874 408.99072933 C79.77284274 410.71012091 79.77528963 412.42957127 79.76994705 414.14898205 C79.73718217 425.18932955 79.84130208 435.01053754 87.69193268 443.56391239 C95.04915426 450.23090423 102.68296438 450.78054022 112.16272736 450.74666691 C113.04173411 450.74752133 113.92074086 450.74837576 114.82638419 450.74925607 C117.7651491 450.75090024 120.70385664 450.74540691 123.64261627 450.73993778 C125.75184884 450.73965566 127.86108151 450.73981414 129.97031403 450.74038029 C135.69292532 450.74066726 141.41551566 450.73478656 147.13812208 450.72780633 C153.11989454 450.72155627 159.10166747 450.72096768 165.08344269 450.71978092 C176.40927385 450.71667249 187.73509536 450.70846565 199.06092227 450.69843143 C211.95561527 450.68725517 224.85030873 450.68175603 237.74500537 450.676736 C264.26898649 450.66628265 290.79295904 450.64869262 317.31693268 450.62641239 C317.34756449 448.10288089 317.3697489 445.57972942 317.38724518 443.05609989 C317.39667145 442.35057987 317.40609772 441.64505985 317.41580963 440.91816044 C317.46919826 430.61415562 315.59659665 419.3869349 308.31693268 411.62641239 C305.45288624 409.74829224 302.58767077 408.10632276 299.56497955 406.51044559 C289.86214409 401.370253 284.8675787 393.82696747 279.29740143 384.70063114 C278.64384674 383.68613895 277.99029205 382.67164677 277.31693268 381.62641239 C276.69818268 380.62094364 276.69818268 380.62094364 276.06693268 379.59516239 C272.91795523 377.85197845 269.43760441 379.57230113 266.12943268 380.43891239 C243.27078019 385.56670916 214.79771043 385.3308477 192.31693268 378.62641239 C191.58120026 378.41210575 190.84546783 378.19779911 190.08744049 377.97699833 C170.99769921 372.23754439 153.49522088 362.50567085 138.31693268 349.62641239 C136.98855377 348.51846317 136.98855377 348.51846317 135.63333893 347.38813114 C107.13433946 322.68899827 95.62892048 288.82662555 90.31693268 252.62641239 C76.12693268 252.62641239 61.93693268 252.62641239 47.31693268 252.62641239 Z M107.31693268 252.62641239 C108.1464985 264.01293584 108.1464985 264.01293584 110.44193268 274.93891239 C110.66075104 275.74232059 110.8795694 276.5457288 111.10501862 277.3734827 C116.65252765 296.87824746 126.69119224 313.72574888 140.31693268 328.62641239 C141.03365143 329.42563114 141.75037018 330.22484989 142.48880768 331.04828739 C155.48160565 344.82260705 172.5481032 354.90627626 190.37943268 361.00141239 C191.03790192 361.22804569 191.69637115 361.45467899 192.37479401 361.68817997 C205.77101864 365.95156253 219.09579943 367.17925676 233.06693268 367.06391239 C233.85241486 367.06087101 234.63789703 367.05782963 235.4471817 367.05469608 C247.74488073 366.98444314 259.49230157 366.28317052 271.31693268 362.62641239 C272.01576569 362.41210575 272.71459869 362.19779911 273.43460846 361.97699833 C292.58510506 355.87336058 308.73968825 345.373462 323.31693268 331.62641239 C323.99369049 331.0141077 324.6704483 330.40180302 325.36771393 329.77094364 C344.75726278 311.54709913 355.95932126 284.66262724 359.31693268 258.62641239 C359.31693268 256.64641239 359.31693268 254.66641239 359.31693268 252.62641239 C276.15693268 252.62641239 192.99693268 252.62641239 107.31693268 252.62641239 Z " fill="#666" transform="translate(55.683067321777344,22.373587608337402)"/>
<path d="M0 0 C2.4375 2 2.4375 2 4 5 C4.96436455 19.70655943 -8.10209305 36.22448904 -17.19140625 46.75390625 C-27.68866146 58.5486085 -45.93495937 77.60017422 -62.5 79.375 C-66 79 -66 79 -68.375 77.375 C-70.38506043 74.43721938 -70.92733979 72.5603504 -71 69 C-68.76548467 63.69850284 -64.7209378 61.59751727 -60 58.75 C-39.89718014 46.15872906 -24.22343471 30.50827194 -14.6496582 8.64794922 C-13.13067227 5.2034146 -11.88395162 2.44712433 -9 0 C-5.39297148 -1.20234284 -3.64185324 -1.0405295 0 0 Z " fill="#666" transform="translate(393,285)"/>
</svg>
