<?xml version="1.0" encoding="UTF-8"?>
<!DOCTYPE svg PUBLIC "-//W3C//DTD SVG 1.1//EN" "http://www.w3.org/Graphics/SVG/1.1/DTD/svg11.dtd">
<!-- Creator: CorelDRAW 2020 (64 Bit) -->
<svg xmlns="http://www.w3.org/2000/svg" xml:space="preserve" width="50.8mm" height="50.7998mm" version="1.1" style="shape-rendering:geometricPrecision; text-rendering:geometricPrecision; image-rendering:optimizeQuality; fill-rule:evenodd; clip-rule:evenodd"
viewBox="0 0 5080 5079.98"
 xmlns:xlink="http://www.w3.org/1999/xlink"
 xmlns:xodm="http://www.corel.com/coreldraw/odm/2003">
 <defs>
  <style type="text/css">
   <![CDATA[
    .fil0 {fill:#FFFFFF}
   ]]>
  </style>
 </defs>
 <g id="Camada_x0020_1">
  <metadata id="CorelCorpID_0Corel-Layer"/>
  <g id="_2303015734864">
   <path class="fil0" d="M1624.19 2477.16c0,-410.22 252.13,-769.76 584.02,-917.58 283.84,-126.43 556.66,-123.03 840.49,-1.49 58.62,25.1 107.87,58.02 158.58,91.69 238.36,158.24 428.86,473.04 428.86,827.38 0,546.87 -448.28,1001.07 -1020.7,1001.07 -156.17,0 -292.65,-44.22 -403.8,-91.81 -44.87,-19.22 -119.14,-63.37 -158.47,-91.82 -238.68,-172.67 -428.98,-455.6 -428.98,-817.44zm-264.99 -4.91c0,48.71 6.04,100.92 9.94,147.09 11.32,133.76 53.22,254.05 102.22,373.78 50.81,124.2 166.09,285 259.51,378.43 15.84,15.83 26.83,22.14 41.86,36.66 58.12,56.13 111.49,93.67 177.32,136.74 79.73,52.15 178.77,99.22 268.53,128.95 77.91,25.81 174.44,51.14 259.9,59.07 263.99,24.49 430.72,-2.95 672.55,-101.91 88.08,-36.04 219.49,-119.52 292.64,-183.36 16.86,-14.71 25.15,-20.77 41.49,-37.03 15.5,-15.43 27.83,-22.66 44.3,-39.12 167.3,-167.31 283.77,-383.63 338.35,-613.65 70.36,-296.5 24.4,-648.12 -131.43,-910.95 -48.81,-82.33 -100.33,-161.89 -167.8,-229.69 -15.43,-15.5 -22.66,-27.83 -39.12,-44.3 -42.44,-42.43 -146.76,-126.43 -194.83,-158.49 -204.48,-136.34 -457.45,-213.18 -704.46,-213.18 -208.97,0 -449.08,60.26 -625.31,164.75 -70.35,41.71 -126.1,76.65 -188.2,130.77 -16.89,14.72 -25.14,20.76 -41.49,37.03 -15.5,15.43 -27.83,22.66 -44.3,39.12 -234.06,234.07 -371.67,566.48 -371.67,899.29z"/>
   <path class="fil0" d="M893.01 857.78c0,75.91 70.8,127.23 111.64,168.07l279.71 279.71c81.83,81.84 94.91,121.46 197.52,121.46 54.79,0 112.87,-58.07 112.87,-112.87 0,-73.84 -5.59,-81.69 -65.03,-141.08 -72.02,-71.97 -396.6,-406.08 -438.68,-429.9 -90.64,-51.31 -198.03,21.08 -198.03,114.61z"/>
   <path class="fil0" d="M3675.4 1279.8l0 34.35c0,54.8 58.07,112.87 112.87,112.87 102,0 113.98,-37.92 195.06,-119l279.71 -279.71c38.21,-38.21 114.09,-97.27 114.09,-165.62 0,-97.82 -101.73,-169.43 -194.84,-121.23 -40.15,20.77 -141.47,131.21 -179.33,169.08l-260.09 260.08c-25.33,25.32 -67.47,62.21 -67.47,109.18z"/>
   <path class="fil0" d="M3675.4 3620.54c0,102.01 37.92,113.98 119,195.07l279.71 279.71c61.85,61.85 116.75,143.66 222.67,102.44 21.78,-8.48 25.35,-14.12 39.96,-28.74 23.78,-23.78 40.39,-54.81 40.39,-92.1 0,-74.36 -71.5,-127.94 -111.64,-168.08l-282.16 -282.16c-61.72,-61.72 -93.99,-119.01 -185.25,-119.01 -69.24,0 -122.68,58.06 -122.68,112.87z"/>
   <path class="fil0" d="M893.01 4076.92c0,71.42 65.28,132.49 127.59,132.49 82.68,0 127.05,-65.71 170.52,-109.19 48.64,-48.63 93.68,-93.67 142.32,-142.31 47.81,-47.81 92.03,-92.03 139.85,-139.85 81.83,-81.83 121.46,-94.91 121.46,-197.52 0,-93.43 -137.16,-163.97 -234.42,-67.57l-213.37 213.56c-47.82,47.82 -92.04,92.04 -139.86,139.86 -40.56,40.56 -114.09,95.61 -114.09,170.53z"/>
   <path class="fil0" d="M2497.67 200.21l0 613.41c0,179.61 264.99,179.61 264.99,0l0 -613.41c0,-67.43 -52.86,-132.49 -117.77,-132.49l-29.45 0c-66.09,0 -117.77,64.49 -117.77,132.49z"/>
   <path class="fil0" d="M4288.8 2604.75l613.41 0c67.43,0 132.49,-52.86 132.49,-117.77l0 -29.45c0,-66.09 -64.49,-117.77 -132.49,-117.77l-613.41 0c-179.61,0 -179.61,264.99 0,264.99z"/>
   <path class="fil0" d="M225.63 2447.72l0 39.26c0,64.91 65.06,117.77 132.5,117.77l613.4 0c179.61,0 179.61,-264.99 0,-264.99l-613.4 0c-72.43,0 -132.5,61.77 -132.5,107.96z"/>
   <path class="fil0" d="M2497.67 4130.89l0 613.4c0,68.01 51.68,132.5 117.77,132.5l29.45 0c64.91,0 117.77,-65.06 117.77,-132.5l0 -613.4c0,-76.57 -59,-136.1 -132.49,-136.1 -74.09,0 -132.5,59.22 -132.5,136.1z"/>
  </g>
 </g>
</svg>
