<?xml version="1.0" encoding="UTF-8"?>
<!DOCTYPE svg PUBLIC "-//W3C//DTD SVG 1.1//EN" "http://www.w3.org/Graphics/SVG/1.1/DTD/svg11.dtd">
<!-- Creator: CorelDRAW 2020 (64 Bit) -->
<svg xmlns="http://www.w3.org/2000/svg" xml:space="preserve" width="50.8mm" height="50.8mm" version="1.1" style="shape-rendering:geometricPrecision; text-rendering:geometricPrecision; image-rendering:optimizeQuality; fill-rule:evenodd; clip-rule:evenodd"
viewBox="0 0 5080 5080"
 xmlns:xlink="http://www.w3.org/1999/xlink"
 xmlns:xodm="http://www.corel.com/coreldraw/odm/2003">
 <defs>
  <style type="text/css">
   <![CDATA[
    .fil0 {fill:#666}
   ]]>
  </style>
 </defs>
 <g id="Camada_x0020_1">
  <metadata id="CorelCorpID_0Corel-Layer"/>
  <g id="_2303606480176">
   <path class="fil0" d="M244.11 282.56l152.94 0 0 4340.4c0,58.52 21.02,95.63 81.29,95.63l4354.74 0 0 152.92 -4588.95 0.01 -0.01 -3279.21 -0.01 -1309.75zm2157.16 3556.54c16,27.99 21.59,57.27 13.74,89.7 -3.25,13.41 -9.02,29.1 -15.49,38.57 -6.33,9.27 -15.76,13.46 -19.38,24.51 33.65,17.92 -52.04,261.01 77.41,267.63 58.35,2.99 81.25,-39.15 81.19,-95.34 -0.06,-57.35 -0.54,-114.85 0.02,-172.16l152.74 0c0.62,57.34 -0.05,114.81 0.08,172.16 0.27,130.98 153.29,129.8 153.08,0 -0.1,-57.39 -0.76,-114.68 -0.05,-172.22l152.73 0.05c0.84,82.72 0.15,165.78 0.15,248.55 0,78.03 -12.45,172.67 76.49,172.04 89.01,-0.63 76.51,-93.57 76.51,-172.04 0,-82.78 -0.66,-165.83 0.13,-248.55l152.68 0.17c0.77,57.29 0.61,114.81 0.11,172 -0.49,55.55 22.08,95.53 76.51,95.49 53.53,-0.05 78.01,-39.87 76.2,-95.49 -1.84,-56.49 -0.29,-115.08 0.29,-172.03l153.84 -1.38c-3.26,54.92 -0.89,117.49 -1,173.41 -0.26,129.71 153.34,129.85 153.22,0 -0.05,-57.34 -0.56,-114.83 0.06,-172.14l152.65 0.19c1.14,82.65 0.07,165.53 0.07,248.33 0,55.07 -20.13,172.76 76.53,172.06 90.09,-0.65 75.62,-93.58 76.2,-172.06 0.61,-82.76 -0.35,-165.74 0.29,-248.53l152.82 -0.05c0.55,57.43 0.14,114.79 0.03,172.2 -0.26,129.82 153.25,129.65 153.31,0 0.02,-57.24 -0.78,-114.79 0.07,-172.12l152.5 0.13c0.73,57.21 -0.1,114.74 -0.05,171.99 0.1,129.67 153.46,129.79 153.33,0 -0.07,-57.35 -0.55,-114.85 0.01,-172.15l152.85 -0.05 -0.2 573.57 -4282.81 -0.13 -0.09 -4282.87 573.54 0.13 0.09 152.72c-82.87,0.52 -165.68,0.1 -248.58,0.1 -77.9,0 -172.11,-12.84 -172,76.5 0.11,89.33 93.55,76.56 172,76.56 82.64,0 165.76,-0.9 248.02,0.11l0.93 152.48c-86.91,7.08 -230.57,-31.15 -229.78,76.8 0.75,102.96 140.87,76.04 229.33,76.58l0.08 152.74c-87.39,0.54 -229.32,-27.32 -229.38,76.6 -0.06,104.18 142.08,75.68 229.43,76.63l-0.17 152.59c-82.6,1.13 -165.79,0.21 -248.46,0.21 -78.12,0 -172.06,-12.56 -172.03,76.49 0.03,89.27 94.23,76.51 172.03,76.51 82.88,0 165.78,-0.49 248.53,0.06l-0.03 152.87c-57.28,0.66 -114.81,-0.06 -172.12,-0.05 -130.69,0.03 -129.24,154.63 0,153.08 57.18,-0.69 114.71,-0.66 171.94,-0.01l1.36 152.8c-57.76,0.4 -115.54,0.11 -173.3,-0.01 -129.99,-0.26 -129.54,153.52 0,153.25 57.34,-0.12 114.94,-0.64 172.1,0.05l-0.13 152.72c-84.15,1.01 -168.92,0.03 -253.13,-0.04 -84.6,-0.07 -167.67,-12.31 -167.27,83.56 15.07,-18.74 13.58,-21.7 32.24,-37.08 107.57,-88.68 287.08,-41.15 303.43,106.61l84.82 0.01 0.14 152.81 -177.09 -0.11c-53.09,0 -93.63,25.72 -90.4,81.28 3.24,55.73 43.59,72.31 100.12,72.11 55.59,-0.18 111.62,-0.66 167.25,0.1l-0.3 152.35c-56.86,1.24 -114.79,0.27 -171.77,0.16 -130.4,-0.24 -129.84,154.16 -0.01,153.27 57.33,-0.4 114.78,-0.38 172.12,-0.03l0.08 152.74c-40,0.24 -345.39,-3.72 -369.08,3.9 -68.58,22.06 -68.14,123.07 -0.13,145.44 25.8,8.49 325.92,3.34 369.24,3.87l-0.22 152.63c-57.24,0.7 -114.75,0.01 -172.01,0 -129.67,-0.03 -131,153.08 0,152.89 57.52,-0.09 114.74,0.1 172.11,0.36l0.05 344.26 344.1 -0.07c0.59,87.06 -27.31,229.15 76.6,229.29 104.04,0.14 75.53,-142.09 76.72,-229.31l152.56 0.13c1.1,87.24 -27.44,229.33 76.64,229.19 102.51,-0.13 75.77,-138.72 76.64,-229.35l152.67 -0.05c0.78,81.16 0.13,162.61 0.13,243.79 0,78.25 -14.77,162.3 63.44,175.65 40.28,6.88 67.34,-15.43 79.74,-37.49 19.16,-34.06 10.82,-297.83 9.65,-344.62 -21.9,-7.27 -37.47,-11.83 -54.68,-25.21 -12.49,-9.71 -25.56,-24.75 -33.17,-39.23 -24.25,-46.18 -30.5,-71.43 -20.16,-126.09l-847.86 0.24 0 -3456.08c0,-108.29 6.84,-171.78 -62.95,-223.92 -59.94,-44.77 -177.46,-29.48 -262.12,-29.46 -192.86,0.07 -385.5,0.01 -578.41,0 -101.17,0 -180.25,-14.89 -239.2,47.64 -57.68,61.18 -42.88,146.25 -42.88,243.97l0 4326.09c0,105.49 -14.37,175.7 50.07,236.82 58.89,55.86 151.92,40.74 246.35,40.47 1249.41,-3.56 2502.63,0.27 3752.46,-0.02 191.02,-0.04 382.69,1.58 573.63,-0.11 107.83,-0.96 173.37,15.96 234.21,-52.54 54.16,-60.97 38.37,-158.77 38.32,-253.3 -0.09,-192.9 0,-385.54 0,-578.41 0,-94.58 15.79,-186.95 -38.33,-248.5 -59.66,-67.84 -131.68,-52.67 -238.98,-52.67 -768.49,0 -1539.57,-5.94 -2307.55,0.11z"/>
   <path class="fil0" d="M1429.58 2424.03l1262.09 -0.18 0 1262.14 152.93 0.03 -0.12 -1061.18c-1.48,-155.27 41.93,-354.18 -176.79,-353.77l-1237.85 0.01 -0.26 152.95z"/>
   <path class="fil0" d="M2232.52 4029.3l-0.98 -38.31 148.6 0.89c3.62,-11.05 13.05,-15.24 19.38,-24.51 6.47,-9.47 12.24,-25.16 15.49,-38.57 7.85,-32.43 2.26,-61.71 -13.74,-89.7l-276.76 -0.33c-10.34,54.66 -4.09,79.91 20.16,126.09 7.61,14.48 20.68,29.52 33.17,39.23 17.21,13.38 32.78,17.94 54.68,25.21z"/>
   <path class="fil0" d="M703.04 2354.57c6.39,30.71 20.2,48.99 41.32,61.98 19.3,11.88 66.53,7.29 92.49,8.27 65.84,2.49 137,-5.13 201.86,-0.72 -16.35,-147.76 -195.86,-195.29 -303.43,-106.61 -18.66,15.38 -17.17,18.34 -32.24,37.08z"/>
  </g>
 </g>
</svg>
