<?xml version="1.0" encoding="UTF-8"?>
<svg version="1.1" xmlns="http://www.w3.org/2000/svg" width="512" height="512">
<path d="M0 0 C1.11117691 -0.0071553 2.22235382 -0.01431061 3.36720276 -0.02168274 C4.5719223 -0.02437164 5.77664185 -0.02706055 7.01786804 -0.02983093 C8.29841568 -0.03640213 9.57896332 -0.04297333 10.89831543 -0.04974365 C15.13436143 -0.07069999 19.37040741 -0.08114439 23.60649109 -0.09111023 C25.07279668 -0.0951622 26.5391021 -0.09927925 28.00540733 -0.10346031 C34.90333721 -0.12250067 41.80125653 -0.13672901 48.6992076 -0.14507228 C56.61894524 -0.1548132 64.53840105 -0.18105466 72.45803958 -0.22157317 C78.60529903 -0.25192574 84.75247863 -0.26655947 90.89981145 -0.26985329 C94.55848085 -0.27218383 98.21684889 -0.28087785 101.87543678 -0.30631447 C131.93399022 -0.50445296 157.34738652 4.07398862 180.30570984 25.14717102 C209.04559826 53.54993465 209.81889537 90.41632551 213.30570984 128.14717102 C214.32326355 128.1947052 215.34081726 128.24223938 216.38920593 128.29121399 C217.74421223 128.36512342 219.0991914 128.43953142 220.45414734 128.51435852 C221.12244568 128.54424866 221.79074402 128.57413879 222.47929382 128.60493469 C228.47080471 128.95306529 233.60567578 130.33587068 238.30570984 134.14717102 C243.04085272 139.76486117 244.45978513 144.55632961 245.69633484 151.72138977 C245.89575684 152.79281723 246.09517883 153.86424469 246.30064392 154.96813965 C246.86339905 158.01829968 247.40885695 161.07100321 247.94715881 164.12555695 C248.45166871 166.97012923 248.97006518 169.81212255 249.48770905 172.6543293 C251.08472797 181.42733816 252.64093898 190.20722819 254.18217468 198.9901886 C254.91492304 203.16505452 255.65537972 207.33851468 256.39767075 211.511693 C256.97793244 214.78068262 257.55322411 218.05053291 258.12715912 221.32063866 C258.39811329 222.86008193 258.67075695 224.399229 258.94525909 225.93804359 C262.10189049 243.66009178 264.34219832 258.46357843 254.25102234 274.48701477 C247.66683573 283.49069164 238.60571942 288.60884587 227.68070984 290.45967102 C225.89122991 290.7053301 224.10012181 290.94059782 222.30570984 291.14717102 C222.33713074 291.99928162 222.33713074 291.99928162 222.3691864 292.86860657 C222.85749069 308.15593045 222.73296725 321.86991633 212.30570984 334.14717102 C205.52484487 341.22346786 196.89448694 346.57615327 186.95341492 347.43769836 C183.70630444 347.47833914 180.46005636 347.51853762 177.21269226 347.51777649 C175.14063157 347.52212398 173.07075044 347.55842251 170.99906921 347.59638977 C158.21836058 347.70610488 148.7549128 344.89506595 139.30570984 336.14717102 C132.73194197 329.66144469 129.82985398 322.98167553 127.30570984 314.14717102 C127.30570984 306.55717102 127.30570984 298.96717102 127.30570984 291.14717102 C83.74570984 291.14717102 40.18570984 291.14717102 -4.69429016 291.14717102 C-4.69429016 299.06717102 -4.69429016 306.98717102 -4.69429016 315.14717102 C-9.05089354 327.1278303 -14.57175893 337.55946328 -26.38960266 343.50263977 C-28.80541023 344.47811892 -31.21327204 345.35449917 -33.69429016 346.14717102 C-34.68429016 346.47717102 -35.67429016 346.80717102 -36.69429016 347.14717102 C-40.99862016 347.39881518 -45.30521698 347.41808902 -49.61592102 347.44233704 C-51.03073682 347.45379238 -52.44551164 347.47414097 -53.86006165 347.50386047 C-62.54003255 347.68602893 -69.90336296 347.31765988 -77.69429016 343.14717102 C-78.58503235 342.67795227 -79.47577454 342.20873352 -80.39350891 341.72529602 C-90.59424358 334.91144575 -96.52946739 326.50565953 -99.32319641 314.42842102 C-99.83896787 309.86791546 -99.79930481 305.35721226 -99.75679016 300.77217102 C-99.75227844 299.84533508 -99.74776672 298.91849915 -99.74311829 297.96357727 C-99.7314059 295.69137393 -99.71500388 293.41930714 -99.69429016 291.14717102 C-100.58724792 291.07043152 -100.58724792 291.07043152 -101.49824524 290.99214172 C-110.16165326 290.15687054 -116.64280039 287.31826352 -123.69429016 282.14717102 C-124.66366516 281.48717102 -125.63304016 280.82717102 -126.63179016 280.14717102 C-133.92677626 273.94932004 -138.23235597 263.65820128 -139.01539612 254.31626892 C-139.04115843 252.91587156 -139.04939404 251.51507553 -139.04292297 250.11445618 C-139.03973682 249.33956156 -139.03655067 248.56466694 -139.03326797 247.76629066 C-138.82977475 237.58456808 -136.93158231 227.66471089 -135.11616516 217.67060852 C-134.74361603 215.56333046 -134.37207389 213.45587415 -134.0014801 211.34825134 C-133.22777431 206.96804128 -132.44339625 202.58992516 -131.65083313 198.21308899 C-130.63862943 192.61942324 -129.65171292 187.02164472 -128.67238998 181.42214012 C-127.9112924 177.08465408 -127.13798417 172.74941485 -126.36089325 168.41476822 C-125.99221242 166.35102735 -125.6270393 164.28665648 -125.26554108 162.22164536 C-124.75889369 159.33948272 -124.2360841 156.46070409 -123.7089386 153.58222961 C-123.56435715 152.74159973 -123.4197757 151.90096985 -123.27081299 151.03486633 C-122.08437234 144.70291959 -120.31277831 138.53875379 -115.44038391 134.08857727 C-114.67854797 133.63353821 -113.91671204 133.17849915 -113.13179016 132.70967102 C-112.3673761 132.23658508 -111.60296204 131.76349915 -110.81538391 131.27607727 C-106.39354786 128.92265072 -102.38200127 129.02931928 -97.50679016 129.08467102 C-96.75720032 129.08918274 -96.00761047 129.09369446 -95.23530579 129.0983429 C-93.38826633 129.11010748 -91.54126803 129.12804237 -89.69429016 129.14717102 C-89.7145929 128.5757135 -89.73489563 128.00425598 -89.7558136 127.41548157 C-89.9177213 118.72285509 -89.08954671 110.1691692 -88.20503235 101.53364563 C-87.94668897 98.98335137 -87.70683126 96.43175323 -87.46772766 93.8795929 C-85.99727683 78.93041646 -83.20860686 64.81919371 -76.69429016 51.14717102 C-76.33850891 50.39435852 -75.98272766 49.64154602 -75.61616516 48.86592102 C-64.52876272 27.31575853 -44.79107491 11.23613028 -21.84663391 3.86592102 C-14.57707011 1.72556575 -7.60791602 0.03384752 0 0 Z M-24.69429016 45.14717102 C-25.4148761 45.59963196 -26.13546204 46.0520929 -26.87788391 46.51826477 C-38.57381226 54.56634022 -45.78026373 67.77892922 -49.69429016 81.14717102 C-50.50421015 85.64961135 -50.96593978 90.15572667 -51.38179016 94.70967102 C-51.49845032 95.86402649 -51.61511047 97.01838196 -51.73530579 98.2077179 C-51.96290391 100.47469807 -52.18299272 102.74244676 -52.39497375 105.01094055 C-52.58012765 106.95097887 -52.77834736 108.8898793 -52.99751282 110.82637024 C-53.69980992 117.05602842 -53.69429016 122.76658137 -53.69429016 129.14717102 C22.53570984 129.14717102 98.76570984 129.14717102 177.30570984 129.14717102 C175.56202573 89.57309853 175.56202573 89.57309853 159.30570984 56.14717102 C158.56320984 55.13654602 157.82070984 54.12592102 157.05570984 53.08467102 C149.33961707 44.04160689 136.10500847 37.36413904 124.30570984 36.14717102 C119.2982908 36.00151891 114.31455701 36.02838413 109.30570984 36.14717102 C109.27992859 37.35373352 109.25414734 38.56029602 109.22758484 39.80342102 C109.17126098 41.4180384 109.11391464 43.03262035 109.05570984 44.64717102 C109.04153015 45.4386554 109.02735046 46.23013977 109.01274109 47.04560852 C108.7431169 53.62443868 107.19714733 59.16062045 102.52445984 63.98701477 C101.95727234 64.34924133 101.39008484 64.7114679 100.80570984 65.08467102 C100.23852234 65.46494446 99.67133484 65.8452179 99.08695984 66.23701477 C95.20025784 68.22298311 91.45035386 68.28949749 87.13529968 68.34004211 C85.26217606 68.36413651 85.26217606 68.36413651 83.35121155 68.38871765 C81.98969714 68.40020919 80.62817503 68.41081704 79.26664734 68.42060852 C78.57671314 68.4259322 77.88677895 68.43125587 77.17593765 68.43674088 C73.52047591 68.4634295 69.86504773 68.4828137 66.20951843 68.49726868 C63.2007433 68.51057394 60.19265185 68.53836763 57.18412781 68.57929993 C53.53544615 68.62892723 49.88738128 68.65342615 46.23837662 68.66049576 C44.85661195 68.66716017 43.47485843 68.68225511 42.09328842 68.70638657 C33.47030761 68.84835051 26.47853112 68.2920587 19.30570984 63.14717102 C15.53931609 58.64587117 14.29377529 54.77926238 13.98930359 49.03779602 C13.94740906 48.28369446 13.90551453 47.5295929 13.86235046 46.75263977 C13.82303406 45.97533508 13.78371765 45.1980304 13.74320984 44.39717102 C13.70002625 43.60439758 13.65684265 42.81162415 13.61235046 41.99482727 C13.50667992 40.04579287 13.40573018 38.09650354 13.30570984 36.14717102 C-1.05007828 35.61765425 -12.29086475 37.34470712 -24.69429016 45.14717102 Z M-88.95991516 196.77217102 C-94.95603405 204.70947947 -98.35103261 212.52166147 -97.48335266 222.59638977 C-95.83949436 232.47504767 -91.84879709 240.0560092 -84.10444641 246.45576477 C-75.95625748 252.17402377 -67.5318363 254.04265636 -57.69429016 253.14717102 C-48.95097644 251.15623813 -41.25490959 246.9685248 -35.87397766 239.68232727 C-30.26295335 230.66945006 -28.63379963 222.74079453 -29.69429016 212.14717102 C-32.08268713 202.4660474 -37.46369332 195.25795954 -45.77241516 189.77607727 C-60.23017461 182.00645457 -78.00355993 184.07791117 -88.95991516 196.77217102 Z M159.55570984 197.89717102 C153.35427861 205.41835764 151.55726818 212.92594096 151.85258484 222.60810852 C153.02575195 231.77094817 157.03796215 239.98030029 164.30570984 245.72920227 C172.69326291 251.71407087 180.96483466 254.41660259 191.30570984 253.14717102 C201.38585828 250.71308334 209.1162827 245.71922428 215.05570984 237.21357727 C220.10137219 228.8724667 221.23604166 220.00599126 219.02836609 210.56123352 C215.99921825 200.44224235 210.04499721 193.52374049 200.89164734 188.36982727 C185.59244763 181.13621774 170.67578899 186.2352236 159.55570984 197.89717102 Z " fill="#666" transform="translate(194.6942901611328,164.8528289794922)"/>
<path d="M0 0 C3.71122601 2.42507904 7.38506688 4.90414135 11.05566406 7.39013672 C16.34030216 10.96777126 21.68196651 14.45463652 27.03222656 17.93310547 C28.99450639 19.21038739 30.95674519 20.48773235 32.91894531 21.76513672 C33.91845215 22.41562988 34.91795898 23.06612305 35.94775391 23.73632812 C41.25113427 27.19103925 46.54783611 30.65595523 51.84472656 34.12060547 C52.9260083 34.82773682 54.00729004 35.53486816 55.12133789 36.26342773 C59.52893803 39.14596098 63.93633721 42.02880141 68.34375 44.91162109 C80.67385097 52.97627207 93.00691952 61.03628408 105.34936523 69.08203125 C113.68496389 74.51676416 122.01316603 79.96277249 130.34082031 85.40966797 C137.40114054 90.02699986 144.46512872 94.63865483 151.53222656 99.24560547 C159.36721185 104.35406794 167.20114239 109.46414194 175.03125 114.58007812 C176.65502711 115.6408394 178.27916624 116.70104646 179.90332031 117.76123047 C182.94908543 119.75180031 185.99167497 121.74708185 189.03222656 123.74560547 C190.10811035 124.45217285 191.18399414 125.15874023 192.29248047 125.88671875 C193.34741699 126.58394043 194.40235352 127.28116211 195.48925781 127.99951172 C196.43389893 128.622854 197.37854004 129.24619629 198.35180664 129.88842773 C205.70623492 134.98407724 211.09291222 140.75423898 213.03222656 149.74560547 C213.87677314 159.53329708 212.13562922 166.94681319 206.03222656 174.74560547 C199.97113013 181.21816014 193.40495027 183.79789117 184.59472656 184.18310547 C174.8329864 184.4122543 166.28555047 178.29269421 158.53222656 173.05810547 C156.50111789 171.71023623 154.4698622 170.3625885 152.43847656 169.01513672 C151.38917969 168.31469238 150.33988281 167.61424805 149.25878906 166.89257812 C143.87276292 163.30868633 138.45056094 159.78037358 133.03222656 156.24560547 C130.83416642 154.80832486 128.63624907 153.37082586 126.43847656 151.93310547 C120.47283703 148.03249501 114.50324723 144.137972 108.53222656 140.24560547 C94.91910891 131.37111953 81.32025524 122.47484393 67.72070312 113.57958984 C56.32871461 106.12852261 44.93544126 98.67948398 33.53222656 91.24560547 C22.15828243 83.83080876 10.79432463 76.40078702 -0.56835938 68.96875 C-4.14119405 66.63202623 -7.71461674 64.29620248 -11.28808594 61.96044922 C-13.08084562 60.78856084 -14.87359906 59.61666292 -16.66635132 58.44476318 C-17.81673428 57.6928079 -18.96714482 56.9408948 -20.11758423 56.18902588 C-21.71225938 55.1468115 -23.30681598 54.10441572 -24.90136719 53.06201172 C-25.80943115 52.468479 -26.71749512 51.87494629 -27.65307617 51.26342773 C-29.42967233 50.09845586 -31.20009176 48.92405992 -32.96777344 47.74560547 C-36.5750734 48.07775205 -39.03652813 49.16735872 -42.02246094 51.15966797 C-42.78985596 51.66546387 -43.55725098 52.17125977 -44.34790039 52.69238281 C-45.1712085 53.24619629 -45.9945166 53.80000977 -46.84277344 54.37060547 C-48.64604766 55.56348192 -50.44943758 56.75618347 -52.25292969 57.94873047 C-53.19152832 58.57328125 -54.13012695 59.19783203 -55.09716797 59.84130859 C-59.80523268 62.96453574 -64.54445777 66.03969652 -69.28027344 69.12060547 C-71.2244782 70.38853669 -73.16848726 71.65676803 -75.11230469 72.92529297 C-80.89694678 76.69951906 -86.6822957 80.4726605 -92.46777344 84.24560547 C-94.38444334 85.4956005 -96.30111001 86.74560051 -98.21777344 87.99560547 C-125.05110677 105.49560547 -151.8844401 122.99560547 -178.71777344 140.49560547 C-179.66676514 141.1145166 -180.61575684 141.73342773 -181.59350586 142.37109375 C-183.50771816 143.61948601 -185.4219434 144.86785845 -187.33618164 146.11621094 C-193.14073239 149.90163722 -198.94498488 153.68751935 -204.74829102 157.47485352 C-206.67313258 158.73011469 -208.59874114 159.98420058 -210.52514648 161.23706055 C-215.20206342 164.27984977 -219.86644725 167.33874865 -224.50683594 170.43701172 C-225.39540283 171.02595215 -226.28396973 171.61489258 -227.19946289 172.22167969 C-228.85393839 173.31882029 -230.50395944 174.4227258 -232.14819336 175.53515625 C-241.30689751 181.58333857 -249.85025882 185.20487329 -260.96777344 183.74560547 C-268.34164916 181.78310941 -275.19991644 177.09738063 -279.31933594 170.62060547 C-283.21074191 163.00576788 -284.4088007 155.36091279 -282.24902344 146.94482422 C-279.24014633 138.94946127 -274.77225281 133.83569616 -267.59277344 129.30810547 C-266.63697388 128.68802612 -266.63697388 128.68802612 -265.66186523 128.05541992 C-264.23067917 127.12765939 -262.79684616 126.20397344 -261.36083984 125.28369141 C-258.75623807 123.60964619 -256.16393954 121.91764814 -253.57324219 120.22216797 C-243.57081629 113.67712831 -233.54482839 107.16819625 -223.52099609 100.65600586 C-214.30339702 94.66666096 -205.09740591 88.65953553 -195.89111328 82.65283203 C-191.08375363 79.51644539 -186.27573356 76.38107151 -181.46777344 73.24560547 C-179.55110353 71.99561043 -177.63443687 70.74561043 -175.71777344 69.49560547 C-156.55110677 56.99560547 -137.3844401 44.49560547 -118.21777344 31.99560547 C-117.26854004 31.3765332 -116.31930664 30.75746094 -115.34130859 30.11962891 C-113.42955066 28.87284438 -111.51776691 27.62609942 -109.60595703 26.37939453 C-103.74815679 22.5593939 -97.89121366 18.73808501 -92.03540039 14.91503906 C-90.08951553 13.64576612 -88.14275187 12.37783932 -86.19506836 11.11132812 C-81.83586361 8.27632346 -77.48589231 5.43077605 -73.16699219 2.53466797 C-48.47742407 -13.92863206 -25.60634976 -16.32325373 0 0 Z " fill="#666" transform="translate(290.9677734375,11.25439453125)"/>
</svg>
