<?xml version="1.0" encoding="UTF-8"?>
<!DOCTYPE svg PUBLIC "-//W3C//DTD SVG 1.1//EN" "http://www.w3.org/Graphics/SVG/1.1/DTD/svg11.dtd">
<svg xmlns="http://www.w3.org/2000/svg" version="1.1" width="512px" height="512px" style="shape-rendering:geometricPrecision; text-rendering:geometricPrecision; image-rendering:optimizeQuality; fill-rule:evenodd; clip-rule:evenodd" xmlns:xlink="http://www.w3.org/1999/xlink">
<g><path style="opacity:0.966" fill="#666" d="M 74.5,-0.5 C 75.5,-0.5 76.5,-0.5 77.5,-0.5C 80.1523,-0.00904729 81.6523,1.65762 82,4.5C 82.4998,13.8274 82.6665,23.1607 82.5,32.5C 181.167,32.5 279.833,32.5 378.5,32.5C 378.334,22.4944 378.5,12.4944 379,2.5C 380.145,1.36362 381.312,0.363622 382.5,-0.5C 383.5,-0.5 384.5,-0.5 385.5,-0.5C 402.69,15.5233 419.024,32.3566 434.5,50C 433.809,51.0674 433.309,52.2341 433,53.5C 417.805,69.0291 402.305,84.1958 386.5,99C 383.166,100.212 380.666,99.3788 379,96.5C 378.5,86.8391 378.334,77.1724 378.5,67.5C 279.833,67.5 181.167,67.5 82.5,67.5C 82.6665,76.8393 82.4998,86.1726 82,95.5C 80.3088,99.2127 77.4755,100.379 73.5,99C 58,83.5 42.5,68 27,52.5C 26.2937,50.0288 26.627,47.6954 28,45.5C 43.395,29.9377 58.895,14.6043 74.5,-0.5 Z"/></g>
<g><path style="opacity:0.967" fill="#666" d="M 511.5,123.5 C 511.5,125.5 511.5,127.5 511.5,129.5C 510.711,129.783 510.044,130.283 509.5,131C 499.506,131.5 489.506,131.666 479.5,131.5C 479.5,230.5 479.5,329.5 479.5,428.5C 489.506,428.334 499.506,428.5 509.5,429C 510.044,429.717 510.711,430.217 511.5,430.5C 511.5,432.5 511.5,434.5 511.5,436.5C 496.729,451.772 481.729,466.938 466.5,482C 463.5,484 460.5,484 457.5,482C 442.667,467.167 427.833,452.333 413,437.5C 411.071,434.754 411.238,432.087 413.5,429.5C 423.812,428.501 434.145,428.168 444.5,428.5C 444.5,329.5 444.5,230.5 444.5,131.5C 434.494,131.666 424.494,131.5 414.5,131C 411.455,128.552 410.955,125.719 413,122.5C 428.167,107.333 443.333,92.1667 458.5,77C 461.303,76.245 463.97,76.5783 466.5,78C 481.729,93.0617 496.729,108.228 511.5,123.5 Z"/></g>
<g><path style="opacity:0.983" fill="#666" d="M 367.5,511.5 C 252.167,511.5 136.833,511.5 21.5,511.5C 10.5286,509.352 3.19529,503.019 -0.5,492.5C -0.5,374.5 -0.5,256.5 -0.5,138.5C 3.80985,127.705 11.8098,121.538 23.5,120C 137.5,119.333 251.5,119.333 365.5,120C 378.995,121.165 387.162,128.332 390,141.5C 390.667,257.5 390.667,373.5 390,489.5C 387.202,501.799 379.702,509.133 367.5,511.5 Z M 50.5,171.5 C 146.5,171.5 242.5,171.5 338.5,171.5C 338.5,267.5 338.5,363.5 338.5,459.5C 242.5,459.5 146.5,459.5 50.5,459.5C 50.5,363.5 50.5,267.5 50.5,171.5 Z"/></g>
</svg>
