<?xml version="1.0" encoding="UTF-8"?>
<svg version="1.1" xmlns="http://www.w3.org/2000/svg" width="512" height="512">
<path d="M0 0 C0.71859509 -0.00382555 1.43719017 -0.00765109 2.17756087 -0.01159257 C4.58577922 -0.02191249 6.99375871 -0.01793238 9.4019928 -0.01396179 C11.12844056 -0.01830882 12.85488639 -0.02349194 14.58132935 -0.02944946 C19.27138297 -0.04285152 23.96135608 -0.0434168 28.65142512 -0.04088616 C32.56555315 -0.0398173 36.47966482 -0.04469764 40.39378935 -0.04949158 C49.62700499 -0.06059088 58.86017996 -0.06102176 68.09339905 -0.05497742 C77.62169715 -0.04893587 87.14984764 -0.06125227 96.67812055 -0.08254749 C104.85656519 -0.10015445 113.0349628 -0.10616629 121.2134257 -0.10290974 C126.0990297 -0.10109534 130.98452841 -0.10374872 135.87011528 -0.11762428 C140.46414418 -0.13018334 145.05794271 -0.12827678 149.651968 -0.11521339 C151.33821947 -0.11284389 153.02448706 -0.11559568 154.71072006 -0.12383652 C157.01241191 -0.13427426 159.3133265 -0.12622786 161.61499023 -0.11352539 C162.90307052 -0.11369313 164.1911508 -0.11386087 165.51826382 -0.1140337 C169.14513114 0.2913372 170.99383385 1.05581405 173.87098694 3.26069641 C176.33849933 6.961965 176.1781985 8.88293173 175.87098694 13.26069641 C175.30848694 15.51069641 175.30848694 15.51069641 173.87098694 17.26069641 C168.9987972 19.71102354 165.4462489 20.63440897 159.91702271 20.62145996 C159.2535898 20.62402324 158.5901569 20.62658651 157.90661997 20.62922746 C155.70316313 20.63413419 153.50040508 20.61772517 151.29701233 20.60127258 C149.70979326 20.60042563 148.12257301 20.60090278 146.53535461 20.6026001 C142.24034781 20.60345882 137.94559371 20.58585299 133.65064549 20.56487823 C129.1570027 20.54609095 124.66335375 20.54435937 120.16967773 20.540802 C111.6664814 20.53148756 103.16340114 20.50688191 94.66025585 20.47675353 C83.16557676 20.43691191 71.67086581 20.42074979 60.17613506 20.40324688 C42.07433212 20.37506039 23.9727741 20.31528686 5.87098694 20.26069641 C5.87098694 64.15069641 5.87098694 108.04069641 5.87098694 153.26069641 C10.82098694 151.28069641 15.77098694 149.30069641 20.87098694 147.26069641 C23.93805347 146.4933265 26.72412489 145.83478452 29.80848694 145.38569641 C30.50393616 145.26968079 31.19938538 145.15366516 31.91590881 145.03413391 C33.5651626 144.76115397 35.2177416 144.50835734 36.87098694 144.26069641 C36.89080627 143.31041565 36.91062561 142.36013489 36.93104553 141.38105774 C37.61722646 109.54094682 37.61722646 109.54094682 38.74598694 97.19819641 C38.84532532 96.02704285 38.84532532 96.02704285 38.94667053 94.83222961 C39.93313118 85.21897083 42.35986459 76.09986233 49.80848694 69.51069641 C58.37657707 63.21577305 67.6760008 65.19244147 77.62098694 66.69819641 C103.88720605 70.63060314 129.60938901 69.73694396 155.87098694 66.26069641 C173.51492499 63.96856712 173.51492499 63.96856712 180.83192444 68.59663391 C191.24988561 77.0986482 192.09208156 91.01874029 193.46083069 103.50434875 C194.22360425 111.42978702 194.08176665 119.37076944 193.99598694 127.32319641 C193.9859166 128.98009192 193.97679806 130.63699349 193.96864319 132.29389954 C193.948727 136.28311303 193.90953038 140.27144972 193.87098694 144.26069641 C200.47098694 144.26069641 207.07098694 144.26069641 213.87098694 144.26069641 C213.54098694 141.62069641 213.21098694 138.98069641 212.87098694 136.26069641 C212.10603369 124.32047158 212.8475755 112.37923279 214.18348694 100.51069641 C214.30111389 99.44093567 214.41874084 98.37117493 214.53993225 97.26899719 C215.8576691 86.50972633 217.76470402 76.18259885 226.48817444 68.91304016 C234.87212477 63.09432836 244.62805233 65.33207798 254.12098694 66.69819641 C282.7953059 70.77502135 311.31117243 70.03937116 339.87098694 65.26069641 C346.68123126 64.6095602 352.30496954 64.99940137 357.87098694 69.26069641 C366.68418112 78.29372083 367.74848133 89.30320542 368.87098694 101.26069641 C368.98442444 102.46339172 369.09786194 103.66608704 369.21473694 104.90522766 C370.2187235 117.99888574 369.96459462 131.13834006 369.87098694 144.26069641 C370.93575256 144.40764954 372.00051819 144.55460266 373.09754944 144.70600891 C374.56384613 144.93159302 376.02998369 145.15821315 377.49598694 145.38569641 C378.18950256 145.47850891 378.88301819 145.57132141 379.59754944 145.66694641 C387.62768716 146.95750426 392.81368226 149.80756583 400.87098694 153.26069641 C401.20098694 109.37069641 401.53098694 65.48069641 401.87098694 20.26069641 C390.24622131 20.2955011 378.62145569 20.33030579 366.64442444 20.36616516 C359.2889537 20.38149001 351.9334945 20.39605567 344.57801819 20.40718079 C332.89780226 20.42498879 321.21765121 20.44593536 309.53749084 20.48701477 C301.03127895 20.51691706 292.52511964 20.53627141 284.01885664 20.5429619 C279.51487381 20.54687274 275.0110414 20.55606383 270.50710678 20.57788658 C266.26690417 20.59826483 262.0269138 20.60452751 257.78666687 20.60001945 C256.23144502 20.60084406 254.676216 20.60680181 253.12103653 20.61831284 C250.99465181 20.63327836 248.86906438 20.62963585 246.74266052 20.62145996 C244.9589911 20.62560803 244.9589911 20.62560803 243.13928795 20.6298399 C239.43026652 20.21091854 237.04377722 19.20205421 233.87098694 17.26069641 C231.26304053 13.6747701 230.76185586 12.05189674 231.37098694 7.63569641 C233.08823618 3.77188563 234.33073233 2.51409739 237.87098694 0.26069641 C241.23374081 -0.24546146 241.23374081 -0.24546146 245.15148926 -0.25396729 C245.87431675 -0.26091281 246.59714425 -0.26785834 247.34187561 -0.27501434 C249.75871491 -0.29327916 252.17457201 -0.28302211 254.59144592 -0.27275085 C256.32627598 -0.27980964 258.06109988 -0.28855449 259.7959137 -0.29885864 C264.50464885 -0.32136736 269.21304811 -0.31840941 273.92181659 -0.30953717 C277.85331444 -0.30442824 281.78474912 -0.3117191 285.71624047 -0.31900924 C294.99126742 -0.33601306 304.26612988 -0.33243765 313.54115295 -0.3157196 C323.10875767 -0.29879715 332.67590619 -0.31463343 342.24346107 -0.34694248 C350.45933325 -0.37363558 358.67506339 -0.38091516 366.89097458 -0.3724274 C371.79733756 -0.36749744 376.70342602 -0.36971758 381.60975456 -0.39021492 C386.22365101 -0.40856764 390.83689111 -0.40261848 395.45075226 -0.37801552 C397.14303065 -0.37300632 398.83535901 -0.37650028 400.52759743 -0.38916397 C402.84031909 -0.40510044 405.15088093 -0.39014163 407.46350098 -0.36749268 C408.75673499 -0.36690637 410.04996901 -0.36632006 411.38239193 -0.36571598 C416.11416054 0.48392076 417.66127686 1.67484801 420.87098694 5.26069641 C421.6053381 8.41483784 421.6053381 8.41483784 421.58337402 12.03421021 C421.58764516 12.70254039 421.5919163 13.37087057 421.59631687 14.05945319 C421.60350356 16.29266648 421.56805501 18.52314108 421.53285217 20.75605774 C421.52956139 22.35955485 421.52901008 23.96305957 421.5309906 25.56655884 C421.52984691 29.01700321 421.51025349 32.46667708 421.47660637 35.91695595 C421.42441331 41.37627344 421.41893592 46.83502549 421.42080688 52.29455566 C421.4180386 65.85612974 421.35034107 79.41730462 421.27650452 92.97865295 C421.22005198 103.51583791 421.18012475 114.0525787 421.18735653 124.58993548 C421.189209 130.01333145 421.15792064 135.43520374 421.10124385 140.85828936 C421.07299366 144.23813763 421.07387078 147.61752936 421.08259201 150.99746513 C421.08071096 152.5599658 421.06687046 154.12250691 421.03992271 155.68477631 C420.7247345 165.57298834 420.7247345 165.57298834 425.27932739 174.04174805 C426.46933212 175.12272731 427.66591288 176.19654231 428.87098694 177.26069641 C440.02016144 192.4808411 444.16690749 209.8962162 444.17738342 228.45552063 C444.18570694 229.7268132 444.19403046 230.99810577 444.2026062 232.30792236 C444.22433538 235.75998516 444.23331839 239.21195959 444.23843265 242.664083 C444.24209626 244.82456453 444.24834591 246.98502353 444.25543404 249.14549637 C444.27983495 256.69204461 444.29296402 264.23852481 444.29652405 271.78511047 C444.30017166 278.80807362 444.33017784 285.83060315 444.37192863 292.85343349 C444.40661238 298.90040765 444.422072 304.94723753 444.42277008 310.9943105 C444.42356232 314.59892249 444.43227912 318.20308945 444.46076775 321.80759811 C444.49177857 325.81945943 444.48289842 329.83027791 444.47035217 333.84223938 C444.49260361 335.62677269 444.49260361 335.62677269 444.51530457 337.44735718 C444.44377957 345.4559799 444.44377957 345.4559799 441.58352661 349.47434998 C437.49783041 352.16499038 434.57589255 352.38499654 429.75453186 352.42182922 C428.73634872 352.43143677 427.71816559 352.44104431 426.66912842 352.45094299 C425.02688042 352.45731781 425.02688042 352.45731781 423.35145569 352.46382141 C422.21952286 352.46952148 421.08759003 352.47522156 419.9213562 352.48109436 C417.52656487 352.49053773 415.13176058 352.49707571 412.73695374 352.50093079 C409.08283187 352.51063178 405.42927361 352.54166039 401.77528381 352.57319641 C399.44651111 352.57972724 397.11773438 352.5849774 394.78895569 352.58882141 C393.15581673 352.60734161 393.15581673 352.60734161 391.48968506 352.62623596 C385.50482384 352.60875789 381.13302028 352.20359927 375.87098694 349.26069641 C373.38136479 346.06997377 373.24898068 342.05663167 372.62098694 338.13569641 C370.94258266 328.94787988 367.33011375 321.34437288 359.85536194 315.50679016 C350.64017451 309.72008782 341.17675764 309.11109951 330.60877991 309.13471985 C329.60141785 309.13285172 328.59405579 309.13098358 327.5561676 309.12905884 C325.37855662 309.12506917 323.20094148 309.12298132 321.02332687 309.12259674 C316.39338848 309.11916812 311.7635889 309.09779687 307.13369942 309.07736588 C298.52153188 309.03938397 289.90951748 309.00808828 281.29725647 309.01020813 C275.29786513 309.01099398 269.29898905 308.98769339 263.29973221 308.94832611 C261.01519714 308.93785279 258.73060271 308.9363518 256.44605637 308.94397736 C253.25493485 308.9535721 250.06538439 308.93246988 246.87440491 308.9042511 C245.93090179 308.91444778 244.98739868 308.92464447 244.01530457 308.93515015 C239.45760636 308.86278609 237.50297045 308.75423536 233.80827332 305.86891174 C231.71514929 303.05088844 230.87098694 301.76095883 230.87098694 298.26069641 C233.06076796 291.8008424 233.06076796 291.8008424 236.87098694 289.26069641 C238.97696018 289.00622082 238.97696018 289.00622082 241.45437622 289 C242.39484802 288.99291519 243.33531982 288.98583038 244.30429077 288.97853088 C245.33442795 288.9810083 246.36456512 288.98348572 247.42591858 288.98603821 C248.5124472 288.98092728 249.59897583 288.97581635 250.71842957 288.97055054 C254.322723 288.95661308 257.92682595 288.95761527 261.53114319 288.95991516 C264.03638785 288.95602885 266.54163185 288.95169432 269.046875 288.94692993 C274.30686566 288.93945758 279.56680696 288.93962701 284.82679749 288.94502258 C290.88714134 288.9510443 296.94725196 288.9387991 303.00755602 288.91745251 C308.85254578 288.89762841 314.6974451 288.89467341 320.5424633 288.89818764 C323.02106204 288.89767552 325.49966459 288.89245833 327.97824287 288.88237572 C331.45577256 288.86997251 334.93277171 288.87682815 338.41029358 288.88838196 C339.42626114 288.88073822 340.4422287 288.87309448 341.48898315 288.86521912 C355.52537505 288.96775459 367.42565326 294.2487371 377.55067444 303.88179016 C385.36735195 311.89585852 390.14057851 320.33906268 392.87098694 331.26069641 C408.71098694 331.75569641 408.71098694 331.75569641 424.87098694 332.26069641 C424.87098694 302.23069641 424.87098694 272.20069641 424.87098694 241.26069641 C279.01098694 241.26069641 133.15098694 241.26069641 -17.12901306 241.26069641 C-17.12901306 271.29069641 -17.12901306 301.32069641 -17.12901306 332.26069641 C-6.56901306 332.26069641 3.99098694 332.26069641 14.87098694 332.26069641 C15.53098694 328.96069641 16.19098694 325.66069641 16.87098694 322.26069641 C21.99938743 308.97190188 32.28016257 299.12481927 44.95200825 293.07222843 C52.72920092 289.78327014 59.90536532 288.81933278 68.29994202 288.85664368 C69.94331543 288.8463488 69.94331543 288.8463488 71.61988831 288.83584595 C75.21023319 288.81767073 78.80013757 288.82140011 82.39051819 288.82710266 C84.89773703 288.82253856 87.40495462 288.8172323 89.91217041 288.81121826 C95.82040154 288.80116903 101.72847703 288.80722639 107.63670129 288.81847185 C113.0163404 288.82669804 118.39566048 288.80903354 123.77524072 288.78525501 C129.6133435 288.76042125 135.45127431 288.75791928 141.28941917 288.76437187 C143.76657028 288.7645253 146.24372983 288.75846306 148.72084999 288.7460804 C152.17723872 288.73122695 155.6326468 288.7418046 159.08900452 288.75898743 C160.11195114 288.74931946 161.13489777 288.73965149 162.18884277 288.72969055 C166.6073599 288.77575854 169.15137623 288.81978676 172.98236084 291.16705322 C175.40897006 293.85707952 175.82493112 294.861546 176.24598694 298.51069641 C175.86511547 302.31941108 175.12379009 304.15955309 172.58730125 307.00734711 C169.09591782 309.55695178 164.98633361 309.06936093 160.82337952 309.00190735 C159.8145874 309.00932449 158.80579529 309.01674164 157.76643372 309.02438354 C154.43223706 309.04228474 151.09965925 309.01842247 147.76551819 308.99507141 C145.44248527 309.00124627 143.11945845 309.01034232 140.79644775 309.02223206 C134.67629836 309.04699231 128.55669414 309.0377189 122.4365387 309.01966858 C112.65905921 308.99629422 102.88161702 309.02354794 93.10417747 309.05239105 C89.69754951 309.05748611 86.29121796 309.04768215 82.88461304 309.03553772 C80.77826431 309.03572646 78.67191558 309.03621931 76.56556702 309.0370636 C75.62754745 309.02979752 74.68952789 309.02253143 73.7230835 309.01504517 C62.34218177 309.04691813 52.95793728 311.14212454 44.12098694 318.57319641 C39.26003866 324.37932907 35.59089915 330.29477136 34.48817444 337.90132141 C33.34897253 345.64789437 33.34897253 345.64789437 30.43348694 349.38569641 C26.80138394 352.04333275 24.14004666 352.38921039 19.76039124 352.42182922 C18.71888412 352.43143677 17.67737701 352.44104431 16.60430908 352.45094299 C14.9168029 352.45731781 14.9168029 352.45731781 13.19520569 352.46382141 C12.03729019 352.46952148 10.87937469 352.47522156 9.68637085 352.48109436 C7.23432835 352.49054637 4.78227314 352.49707913 2.33021545 352.50093079 C-1.41618592 352.51063084 -5.16203747 352.54165093 -8.90830994 352.57319641 C-11.29046814 352.57972707 -13.67263026 352.58497729 -16.05479431 352.58882141 C-17.17372574 352.60116821 -18.29265717 352.61351501 -19.44549561 352.62623596 C-26.18225348 352.60699869 -31.13639777 352.2533117 -36.12901306 347.26069641 C-37.16337318 344.22630871 -37.25668832 341.39331874 -37.26272583 338.20433044 C-37.26699081 337.18412308 -37.2712558 336.16391571 -37.27565002 335.11279297 C-37.27519684 333.99902786 -37.27474365 332.88526276 -37.27427673 331.73774719 C-37.27763535 330.55996201 -37.28099396 329.38217682 -37.28445435 328.16870117 C-37.29232865 324.93875215 -37.29563227 321.7088417 -37.29627013 318.47888422 C-37.29698208 316.45523334 -37.29911933 314.43158913 -37.30176735 312.40793991 C-37.31102303 305.33085963 -37.31510264 298.25379817 -37.3143158 291.17671204 C-37.31371746 284.61036217 -37.32422056 278.04409511 -37.34005946 271.47776616 C-37.35321212 265.82060939 -37.35849636 260.16347939 -37.35786039 254.50630748 C-37.35760732 251.1367444 -37.36129291 247.76731262 -37.37103844 244.39775467 C-37.50348895 193.83973472 -37.50348895 193.83973472 -21.20383167 177.30811787 C-14.17259338 169.91317585 -14.01352606 163.00129433 -14.17662048 153.33369446 C-14.17392134 151.74428355 -14.16765795 150.15487534 -14.15812683 148.56549072 C-14.14532588 145.16132326 -14.15751556 141.75851972 -14.18967247 138.35448265 C-14.24046352 132.97107094 -14.23528765 127.58857092 -14.2230835 122.20498657 C-14.21045006 113.69350001 -14.23578666 105.18261459 -14.27710372 96.67123491 C-14.35013183 81.41682855 -14.36296959 66.16233468 -14.35494882 50.90777427 C-14.35370381 45.55672674 -14.37061676 40.20612913 -14.40259683 34.85518014 C-14.42005274 31.53022859 -14.42560243 28.20532777 -14.4283905 24.88033485 C-14.43237081 23.33918622 -14.44155682 21.79804089 -14.45633888 20.25695801 C-14.47593419 18.15268811 -14.47710925 16.0491649 -14.47390747 13.94482422 C-14.47968905 12.76777766 -14.48547064 11.59073111 -14.49142742 10.37801647 C-14.08279176 6.86312224 -13.30263496 5.03643534 -11.12901306 2.26069641 C-7.69253308 -0.29645027 -4.17152418 0.00665029 0 0 Z M61.87098694 85.26069641 C54.401138 100.20039428 57.87098694 131.51022028 57.87098694 144.26069641 C96.15098694 144.26069641 134.43098694 144.26069641 173.87098694 144.26069641 C174.77149498 130.7797278 174.77149498 130.7797278 174.62098694 117.38569641 C174.57578918 116.46877014 174.53059143 115.55184387 174.48402405 114.60713196 C174.12275631 108.37297523 173.44056413 102.23554969 172.43348694 96.07319641 C172.31134827 95.32505676 172.18920959 94.57691711 172.06336975 93.80610657 C171.4441383 90.3665573 170.83686638 88.20951558 168.87098694 85.26069641 C163.83928713 85.6818519 158.81471421 86.13951223 153.80067444 86.73725891 C145.85177364 87.68175334 137.92893726 88.4628601 129.93348694 88.88569641 C128.81780334 88.94563782 128.81780334 88.94563782 127.67958069 89.00679016 C116.92002878 89.520055 106.30028346 89.14128735 95.55848694 88.38569641 C94.34225647 88.3070636 93.126026 88.22843079 91.87294006 88.14741516 C84.48556894 87.63740016 77.21997279 86.81617786 69.90541077 85.65864563 C67.17974045 85.30118786 64.61463683 85.18479397 61.87098694 85.26069641 Z M237.87098694 85.26069641 C231.73734856 101.90330187 229.26360934 127.10615208 233.87098694 144.26069641 C248.84785 144.28402619 263.82471166 144.30167597 278.80158901 144.31250858 C285.75514774 144.31767137 292.70869521 144.32471375 299.6622467 144.33613586 C306.36655903 144.34714335 313.07085719 144.35297262 319.77517891 144.35557365 C322.33936307 144.35742843 324.90354656 144.36105005 327.46772575 144.36642647 C331.04543852 144.373633 334.62310212 144.37468752 338.20082092 144.3742218 C339.8084304 144.37961472 339.8084304 144.37961472 341.44851685 144.38511658 C342.41751923 144.38374191 343.38652161 144.38236725 344.3848877 144.38095093 C345.65557932 144.38233362 345.65557932 144.38233362 346.95194149 144.38374424 C348.87958006 144.47224043 348.87958006 144.47224043 349.87098694 143.26069641 C350.70577634 129.40740132 350.18322563 115.14531378 349.05848694 101.32319641 C348.98847473 100.39039856 348.91846252 99.45760071 348.84632874 98.49653625 C348.37865308 93.45794894 347.5317527 89.68558632 344.87098694 85.26069641 C343.82426819 85.38186829 342.77754944 85.50304016 341.69911194 85.62788391 C336.42783055 86.22146981 331.15089681 86.75009132 325.87098694 87.26069641 C324.31251038 87.41272522 324.31251038 87.41272522 322.72254944 87.56782532 C296.68620732 90.01458588 271.01312891 89.46660124 245.14979553 85.5202179 C242.70566221 85.24186845 240.32881724 85.21751464 237.87098694 85.26069641 Z M-0.12901306 183.26069641 C-0.767099 183.87557922 -1.40518494 184.49046204 -2.06260681 185.12397766 C-11.32047552 194.75298588 -17.12901306 208.91755974 -17.12901306 222.26069641 C128.40098694 222.26069641 273.93098694 222.26069641 423.87098694 222.26069641 C423.87098694 206.27632974 417.10901244 193.00768176 406.26161194 181.51460266 C395.01598622 170.91210913 380.49326856 164.15408853 364.94278049 164.12647533 C363.18833051 164.11978857 363.18833051 164.11978857 361.39843708 164.11296672 C360.12267825 164.11315108 358.84691941 164.11333544 357.53250122 164.11352539 C356.15620411 164.11022347 354.77990796 164.10649721 353.40361303 164.10238391 C349.62659962 164.09239304 345.8496021 164.08865182 342.07257736 164.0859946 C337.99668639 164.08208285 333.9208079 164.0725051 329.84492493 164.06378174 C320.00374031 164.04404134 310.16255471 164.03395395 300.32135525 164.02505395 C295.6825125 164.02066686 291.04367088 164.01530112 286.40482903 164.01006508 C270.97643934 163.99305481 255.54805036 163.97856195 240.11965275 163.97131634 C236.11806296 163.96940656 232.11647319 163.96748621 228.11488342 163.9655304 C227.12035514 163.96504666 226.12582686 163.96456292 225.10116135 163.96406452 C209.00028999 163.95576904 192.89949304 163.93043936 176.79865415 163.89794972 C160.25387872 163.86483751 143.70914106 163.8468638 127.16433233 163.8436721 C117.88090139 163.8415108 108.59757894 163.83281795 99.31418037 163.80721092 C91.4059336 163.78544696 83.49782168 163.7774814 75.58954836 163.7871777 C71.5592876 163.79170604 67.52930476 163.78992242 63.49908257 163.77041626 C59.79938418 163.7526656 56.100164 163.75387721 52.4004597 163.76931355 C50.4493604 163.77277697 48.49825537 163.75675265 46.54722744 163.73970908 C27.99010852 163.87317336 13.03116448 170.14566527 -0.12901306 183.26069641 Z " fill="#666" transform="translate(52.12901306152344,75.73930358886719)"/>
<path d="M0 0 C3.61914281 2.32171426 5.5876676 3.86002219 7.0625 7.9375 C6.98327608 11.81947224 6.20307512 13.80198773 4 17 C1.25 19 1.25 19 -2 20 C-6.20462191 19.28735222 -9.37851105 18.4953186 -12 15 C-13.55024464 11.89951072 -13.28992015 9.42105782 -13 6 C-9.6162951 0.63274396 -6.27574982 -0.73832351 0 0 Z " fill="#666" transform="translate(259,76)"/>
<path d="M0 0 C3.0002525 2.23423058 4.5516288 3.9351184 6 7.375 C6 11.13887306 4.74270569 13.70130708 3 17 C-0.68497796 19.45665197 -3.71971786 19.70086491 -8 19 C-10.8100346 17.20636089 -12.50940468 15.98119065 -14 13 C-14.39447548 8.81855989 -14.45035186 6.69053952 -12.125 3.125 C-8.54515912 -0.45484088 -4.91119293 -0.83734899 0 0 Z " fill="#666" transform="translate(260,365)"/>
</svg>
