<?xml version="1.0" encoding="UTF-8"?>
<!DOCTYPE svg PUBLIC "-//W3C//DTD SVG 1.1//EN" "http://www.w3.org/Graphics/SVG/1.1/DTD/svg11.dtd">
<svg xmlns="http://www.w3.org/2000/svg" version="1.1" width="512px" height="512px" style="shape-rendering:geometricPrecision; text-rendering:geometricPrecision; image-rendering:optimizeQuality; fill-rule:evenodd; clip-rule:evenodd" xmlns:xlink="http://www.w3.org/1999/xlink">
<g><path style="opacity:0.935" fill="#666" d="M 242.5,-0.5 C 251.167,-0.5 259.833,-0.5 268.5,-0.5C 316.613,11.13 340.78,41.7966 341,91.5C 335.492,132.673 312.659,158.507 272.5,169C 233.881,174.806 203.714,161.639 182,129.5C 162.195,90.8098 166.695,55.3098 195.5,23C 209.074,10.8794 224.741,3.04611 242.5,-0.5 Z M 245.5,17.5 C 281.977,15.1352 306.811,30.8019 320,64.5C 328.257,98.4789 317.757,124.979 288.5,144C 255.348,159.282 226.515,153.448 202,126.5C 180.878,94.0326 183.378,63.5326 209.5,35C 220.126,26.186 232.126,20.3527 245.5,17.5 Z"/></g>
<g><path style="opacity:0.943" fill="#666" d="M 220.5,41.5 C 226.5,41.5 232.5,41.5 238.5,41.5C 238.5,52.8333 238.5,64.1667 238.5,75.5C 249.833,75.5 261.167,75.5 272.5,75.5C 272.5,64.1667 272.5,52.8333 272.5,41.5C 278.5,41.5 284.5,41.5 290.5,41.5C 290.5,70.1667 290.5,98.8333 290.5,127.5C 284.5,127.5 278.5,127.5 272.5,127.5C 272.5,116.167 272.5,104.833 272.5,93.5C 261.167,93.5 249.833,93.5 238.5,93.5C 238.5,104.833 238.5,116.167 238.5,127.5C 232.5,127.5 226.5,127.5 220.5,127.5C 220.5,98.8333 220.5,70.1667 220.5,41.5 Z"/></g>
<g><path style="opacity:0.951" fill="#666" d="M 511.5,276.5 C 511.5,348.5 511.5,420.5 511.5,492.5C 508.167,501.833 501.833,508.167 492.5,511.5C 334.5,511.5 176.5,511.5 18.5,511.5C 9.16667,508.167 2.83333,501.833 -0.5,492.5C -0.5,386.5 -0.5,280.5 -0.5,174.5C 1.13988,172.045 3.47322,170.545 6.5,170C 19.5,169.333 32.5,169.333 45.5,170C 58.3333,172.167 65.8333,179.667 68,192.5C 68.5,213.497 68.6666,234.497 68.5,255.5C 96.8353,255.333 125.169,255.5 153.5,256C 170.152,259.985 180.985,270.152 186,286.5C 187.418,298.772 187.918,311.105 187.5,323.5C 218.833,323.5 250.167,323.5 281.5,323.5C 279.203,314.356 280.87,306.023 286.5,298.5C 278.003,285.814 278.67,273.647 288.5,262C 291.718,259.223 295.385,257.223 299.5,256C 335.5,255.333 371.5,255.333 407.5,256C 421.91,261.092 428.076,271.259 426,286.5C 425.102,290.795 423.269,294.628 420.5,298C 426.245,305.653 427.912,314.153 425.5,323.5C 437.396,321.893 448.396,324.226 458.5,330.5C 459.332,319.181 459.832,307.848 460,296.5C 461.411,284.424 467.911,276.591 479.5,273C 488.833,272.333 498.167,272.333 507.5,273C 508.705,274.376 510.038,275.542 511.5,276.5 Z M 17.5,187.5 C 26.1731,187.334 34.8397,187.5 43.5,188C 47.4064,188.973 49.573,191.473 50,195.5C 50.4997,203.827 50.6664,212.16 50.5,220.5C 39.5,220.5 28.5,220.5 17.5,220.5C 17.5,209.5 17.5,198.5 17.5,187.5 Z M 17.5,238.5 C 28.5,238.5 39.5,238.5 50.5,238.5C 50.5,255.5 50.5,272.5 50.5,289.5C 39.5,289.5 28.5,289.5 17.5,289.5C 17.5,272.5 17.5,255.5 17.5,238.5 Z M 68.5,273.5 C 96.897,273.025 125.23,273.525 153.5,275C 161.493,278.326 166.659,284.159 169,292.5C 169.5,302.828 169.666,313.161 169.5,323.5C 135.833,323.5 102.167,323.5 68.5,323.5C 68.5,306.833 68.5,290.167 68.5,273.5 Z M 303.5,273.5 C 336.835,273.333 370.168,273.5 403.5,274C 409.729,278.171 410.062,282.837 404.5,288C 397.574,289.339 390.574,289.839 383.5,289.5C 383.5,295.5 383.5,301.5 383.5,307.5C 390.947,307.071 398.281,307.571 405.5,309C 409.646,313.625 409.313,317.959 404.5,322C 387.564,323.146 370.564,323.646 353.5,323.5C 337.5,323.333 321.5,323.167 305.5,323C 297.375,318.966 296.708,313.966 303.5,308C 324.497,307.5 345.497,307.333 366.5,307.5C 366.5,301.5 366.5,295.5 366.5,289.5C 346.497,289.667 326.497,289.5 306.5,289C 297.407,285.249 296.407,280.083 303.5,273.5 Z M 482.5,290.5 C 486.167,290.5 489.833,290.5 493.5,290.5C 493.667,356.834 493.5,423.168 493,489.5C 491.833,490.667 490.667,491.833 489.5,493C 485.514,493.499 481.514,493.666 477.5,493.5C 477.333,428.166 477.5,362.832 478,297.5C 478.904,294.767 480.404,292.433 482.5,290.5 Z M 17.5,307.5 C 28.5,307.5 39.5,307.5 50.5,307.5C 50.5,312.833 50.5,318.167 50.5,323.5C 39.5,323.5 28.5,323.5 17.5,323.5C 17.5,318.167 17.5,312.833 17.5,307.5 Z M 17.5,341.5 C 28.5,341.5 39.5,341.5 50.5,341.5C 50.5,392.167 50.5,442.833 50.5,493.5C 40.8276,493.666 31.1609,493.5 21.5,493C 20.3333,491.833 19.1667,490.667 18,489.5C 17.5,440.168 17.3333,390.834 17.5,341.5 Z M 68.5,341.5 C 192.5,341.333 316.5,341.5 440.5,342C 455.416,347.648 461.749,358.482 459.5,374.5C 329.167,374.5 198.833,374.5 68.5,374.5C 68.5,363.5 68.5,352.5 68.5,341.5 Z M 68.5,392.5 C 198.833,392.5 329.167,392.5 459.5,392.5C 459.5,397.833 459.5,403.167 459.5,408.5C 329.167,408.5 198.833,408.5 68.5,408.5C 68.5,403.167 68.5,397.833 68.5,392.5 Z M 68.5,426.5 C 127.833,426.5 187.167,426.5 246.5,426.5C 246.5,448.833 246.5,471.167 246.5,493.5C 187.167,493.5 127.833,493.5 68.5,493.5C 68.5,471.167 68.5,448.833 68.5,426.5 Z M 264.5,426.5 C 329.5,426.5 394.5,426.5 459.5,426.5C 459.5,448.833 459.5,471.167 459.5,493.5C 394.5,493.5 329.5,493.5 264.5,493.5C 264.5,471.167 264.5,448.833 264.5,426.5 Z"/></g>
<g><path style="opacity:0.899" fill="#666" d="M 92.5,289.5 C 98.5,289.5 104.5,289.5 110.5,289.5C 110.5,295.5 110.5,301.5 110.5,307.5C 104.5,307.5 98.5,307.5 92.5,307.5C 92.5,301.5 92.5,295.5 92.5,289.5 Z"/></g>
<g><path style="opacity:0.899" fill="#666" d="M 127.5,289.5 C 133.5,289.5 139.5,289.5 145.5,289.5C 145.5,295.5 145.5,301.5 145.5,307.5C 139.5,307.5 133.5,307.5 127.5,307.5C 127.5,301.5 127.5,295.5 127.5,289.5 Z"/></g>
<g><path style="opacity:0.925" fill="#666" d="M 135.5,451.5 C 147.167,451.5 158.833,451.5 170.5,451.5C 170.5,457.5 170.5,463.5 170.5,469.5C 158.833,469.5 147.167,469.5 135.5,469.5C 135.5,463.5 135.5,457.5 135.5,451.5 Z"/></g>
<g><path style="opacity:0.924" fill="#666" d="M 348.5,451.5 C 360.167,451.5 371.833,451.5 383.5,451.5C 383.5,457.5 383.5,463.5 383.5,469.5C 371.833,469.5 360.167,469.5 348.5,469.5C 348.5,463.5 348.5,457.5 348.5,451.5 Z"/></g>
</svg>
