<?xml version="1.0" encoding="UTF-8"?>
<svg version="1.1" xmlns="http://www.w3.org/2000/svg" width="206" height="204">
<path d="M0 0 C2.55309123 2.58590731 4.19372945 5.86191706 6 9 C6.35094727 9.59844727 6.70189453 10.19689453 7.06347656 10.81347656 C8.20895547 12.78124922 9.32707477 14.76225871 10.4375 16.75 C10.80399658 17.38760254 11.17049316 18.02520508 11.5480957 18.68212891 C13.13218157 21.60535863 14.03459155 23.53458648 13.78515625 26.890625 C13 29 13 29 12 30 C9.75 30.5625 9.75 30.5625 7 30 C5.35 27.36 3.7 24.72 2 22 C1.67 66.88 1.34 111.76 1 158 C47.2 157.67 93.4 157.34 141 157 C138.36 155.35 135.72 153.7 133 152 C132.4375 148.75 132.4375 148.75 133 146 C134 145 134 145 136.63671875 144.7109375 C140.68810503 145.05914027 143.42620541 146.53917765 146.8125 148.625 C147.41980957 148.98964355 148.02711914 149.35428711 148.65283203 149.72998047 C149.87112484 150.46611978 151.08574139 151.20838158 152.29638672 151.95703125 C153.81600364 152.88735562 155.36160559 153.77492721 156.91015625 154.65625 C157.72355469 155.1409375 158.53695312 155.625625 159.375 156.125 C160.08398438 156.54007813 160.79296875 156.95515625 161.5234375 157.3828125 C163 159 163 159 163.58984375 161.9296875 C163 165 163 165 160.54296875 167.125 C159.43566406 167.74375 158.32835937 168.3625 157.1875 169 C156.60162109 169.33249756 156.01574219 169.66499512 155.41210938 170.00756836 C154.20504531 170.68890709 152.99254439 171.36070005 151.77490234 172.02294922 C150.11580534 172.93625131 148.48797051 173.90571131 146.86328125 174.87890625 C139.72644446 179.07532734 139.72644446 179.07532734 136.25 178.71484375 C134 178 134 178 133 177 C132.625 174.6875 132.625 174.6875 133 172 C135.22360897 169.89342308 137.26522868 168.36738566 140 167 C138.87409801 166.99503478 138.87409801 166.99503478 137.72545052 166.98996925 C119.48207141 166.90883454 101.23877761 166.81677367 82.99551582 166.71247292 C74.17329781 166.66229929 65.35108931 166.61585703 56.52880859 166.578125 C48.84148417 166.54523768 41.15423258 166.50542473 33.46698844 166.45720994 C29.39468363 166.43191237 25.32242734 166.41014085 21.25006485 166.39665604 C17.42023282 166.38386506 13.59056691 166.36184317 9.76082611 166.33261681 C8.35230932 166.32351772 6.94376577 166.31784539 5.5352211 166.31578636 C3.61785446 166.31248038 1.70052433 166.29585705 -0.21676636 166.2784729 C-1.29157698 166.27294214 -2.3663876 166.26741138 -3.47376823 166.26171303 C-6 166 -6 166 -8 164 C-8.26171303 161.55185509 -8.26171303 161.55185509 -8.2784729 158.40658569 C-8.29521812 156.62286812 -8.29521812 156.62286812 -8.31230164 154.80311584 C-8.31446182 153.49185226 -8.31662201 152.18058868 -8.31884766 150.82958984 C-8.32814197 149.44014398 -8.33830989 148.05070372 -8.34928894 146.66127014 C-8.37665926 142.88259539 -8.39175905 139.10395806 -8.40471697 135.32521009 C-8.42031687 131.378679 -8.44711703 127.43222469 -8.4727478 123.48574829 C-8.51959138 116.009533 -8.55630841 108.53330335 -8.58942068 101.05701602 C-8.62760274 92.5468061 -8.67702309 84.03667319 -8.72740483 75.52652812 C-8.83080763 58.01774106 -8.92004078 40.50890949 -9 23 C-9.639375 23.969375 -10.27875 24.93875 -10.9375 25.9375 C-13 29 -13 29 -14 30 C-16.5 30.125 -16.5 30.125 -19 30 C-20 29 -20 29 -20.328125 26.46875 C-19.88602824 21.79515572 -18.02044647 18.54979324 -15.75 14.5 C-15.35425781 13.76652344 -14.95851563 13.03304688 -14.55078125 12.27734375 C-6.71814882 -2.07820224 -6.71814882 -2.07820224 0 0 Z " fill="#FFFFFF" transform="translate(28,12)"/>
<path d="M0 0 C2.12573242 0.96484375 2.12573242 0.96484375 3.12573242 1.96484375 C3.60620117 4.58203125 3.60620117 4.58203125 3.12573242 7.96484375 C1.20648985 10.66588763 -1.14048671 12.84030208 -3.56176758 15.08984375 C-4.50052734 16.00056641 -4.50052734 16.00056641 -5.45825195 16.9296875 C-8.10050231 19.46956795 -10.76285116 21.87586865 -13.62817383 24.1640625 C-15.75040075 25.86553486 -17.39175246 27.56545054 -19.12426758 29.65234375 C-24.15817575 35.52888438 -29.53260266 41.09079811 -35.49926758 46.02734375 C-38.71190763 48.70823649 -41.35007836 51.7128642 -44.06176758 54.890625 C-48.33784821 59.78415693 -52.99169035 64.25484557 -57.93676758 68.46484375 C-60.51199228 70.67854652 -62.76561028 72.91863179 -64.93676758 75.52734375 C-68.98979141 80.32919415 -73.62879556 84.48094571 -78.28076172 88.68969727 C-81.50370154 91.63395079 -84.51110774 94.62290753 -87.35083008 97.94140625 C-90.87958422 102.06126142 -94.74220524 105.69192541 -98.74926758 109.33984375 C-104.14029 114.3091596 -109.23408347 119.31786493 -113.97973633 124.9140625 C-116.12067763 127.23157628 -118.29658261 129.14432788 -120.87426758 130.96484375 C-125.1669505 130.67216082 -125.1669505 130.67216082 -126.87426758 128.96484375 C-126.91507541 126.96526011 -126.91681114 124.96439121 -126.87426758 122.96484375 C-125.38926758 122.46984375 -125.38926758 122.46984375 -123.87426758 121.96484375 C-123.87426758 121.30484375 -123.87426758 120.64484375 -123.87426758 119.96484375 C-122.40551758 118.5546875 -122.40551758 118.5546875 -120.37426758 116.90234375 C-116.4260604 113.55510262 -113.06090093 109.91863526 -109.66723633 106.01953125 C-105.21240686 100.91443256 -100.16247607 96.51490398 -95.08129883 92.05078125 C-92.7182889 89.97320316 -92.7182889 89.97320316 -90.87426758 86.96484375 C-90.21426758 86.96484375 -89.55426758 86.96484375 -88.87426758 86.96484375 C-88.87426758 86.30484375 -88.87426758 85.64484375 -88.87426758 84.96484375 C-87.54614258 83.66015625 -87.54614258 83.66015625 -85.62426758 82.08984375 C-81.74152298 78.79159834 -78.1007834 75.3130993 -74.49926758 71.71484375 C-73.71374512 70.93584717 -73.71374512 70.93584717 -72.91235352 70.14111328 C-70.62086548 67.84141471 -68.68165317 65.67592214 -66.87426758 62.96484375 C-66.21426758 62.96484375 -65.55426758 62.96484375 -64.87426758 62.96484375 C-64.87426758 62.30484375 -64.87426758 61.64484375 -64.87426758 60.96484375 C-64.21426758 60.96484375 -63.55426758 60.96484375 -62.87426758 60.96484375 C-62.87426758 60.30484375 -62.87426758 59.64484375 -62.87426758 58.96484375 C-61.40551758 57.51953125 -61.40551758 57.51953125 -59.37426758 55.83984375 C-53.96516401 51.23492549 -48.87144174 46.4113821 -44.37426758 40.90234375 C-42.36857029 38.54564944 -40.51743101 36.73027306 -38.1796875 34.75 C-34.06083937 31.18372796 -30.26419878 27.38732532 -26.48754883 23.46484375 C-25.12436323 22.06958259 -23.76040902 20.67507201 -22.39575195 19.28125 C-20.27519728 17.11102379 -18.15970634 14.93670006 -16.05664062 12.74951172 C-14.00555259 10.62001854 -11.93611243 8.50992657 -9.86254883 6.40234375 C-9.23536453 5.74105469 -8.60818024 5.07976563 -7.96199036 4.3984375 C-3.54749721 -0.04339078 -3.54749721 -0.04339078 0 0 Z " fill="#FFFFFF" transform="translate(165.874267578125,29.03515625)"/>
<path d="M0 0 C2.75 0.25 2.75 0.25 5 1 C5.77734375 4.1875 5.77734375 4.1875 6 8 C4.19140625 10.625 4.19140625 10.625 1.5625 13 C0.63695312 13.8559375 -0.28859375 14.711875 -1.2421875 15.59375 C-4.15915889 18.13886952 -7.08913693 20.66762007 -10.03125 23.18359375 C-12.20737892 25.19133174 -14.11725103 27.33054456 -16.0625 29.5625 C-20.00264442 34.05083842 -24.23148098 38.09193083 -28.625 42.125 C-33.08210703 46.21679713 -37.27447536 50.28983111 -41.140625 54.953125 C-44.22805246 58.35188969 -47.68808683 61.34936236 -51.09106445 64.42700195 C-55.34149588 68.30500763 -59.16899396 72.43249674 -62.95703125 76.765625 C-65.44592765 79.48770672 -68.14111536 81.83588359 -70.953125 84.21484375 C-75.81515346 88.45520063 -80.41974791 93.01455506 -84.4375 98.0625 C-84.953125 98.701875 -85.46875 99.34125 -86 100 C-86.66 100 -87.32 100 -88 100 C-88 100.66 -88 101.32 -88 102 C-89.6875 103.6875 -89.6875 103.6875 -92 105 C-96.41025641 104.58974359 -96.41025641 104.58974359 -98 103 C-98.31640625 100.1796875 -98.31640625 100.1796875 -98 97 C-96.27734375 94.9453125 -96.27734375 94.9453125 -93.9375 93.125 C-90.80547697 90.55576236 -88.03587014 88.04712352 -85.4375 84.9375 C-82.50341125 81.46560844 -79.31732237 78.53959209 -75.859375 75.59765625 C-72.44195135 72.66125652 -69.4994104 69.74911561 -67 66 C-66.34 66 -65.68 66 -65 66 C-64.75507812 65.42894531 -64.51015625 64.85789062 -64.2578125 64.26953125 C-62.78145478 61.60566841 -61.04854253 59.81938928 -58.875 57.6875 C-58.06546875 56.8934375 -57.2559375 56.099375 -56.421875 55.28125 C-54.36851707 53.34711931 -52.28079026 51.50477774 -50.125 49.6875 C-46.14583263 46.28468029 -42.70758876 42.45091404 -39.22290039 38.55908203 C-35.46779884 34.40702564 -31.4489256 30.67544051 -27.19140625 27.03515625 C-24.84501768 24.85606811 -22.98710941 22.50781631 -21 20 C-17.45712584 16.31704515 -13.72081734 12.8686595 -9.9375 9.4375 C-5.76099411 5.65315939 -5.76099411 5.65315939 -1.80078125 1.64453125 C-1.20652344 1.10183594 -0.61226563 0.55914063 0 0 Z " fill="#FFFFFF" transform="translate(137,29)"/>
<path d="M0 0 C1 1 1 1 1.26408386 3.32543945 C0.93815573 6.62633987 0.11462984 7.49460273 -2.2253418 9.79296875 C-2.92995041 10.49719971 -3.63455902 11.20143066 -4.36051941 11.92700195 C-5.13229019 12.67296631 -5.90406097 13.41893066 -6.69921875 14.1875 C-7.486418 14.96762451 -8.27361725 15.74774902 -9.08467102 16.55151367 C-11.6074639 19.04630966 -14.14703777 21.52321151 -16.6875 24 C-18.38069749 25.66811428 -20.07276881 27.33737249 -21.76367188 29.0078125 C-24.87807606 32.08138357 -27.99878122 35.14822386 -31.12768555 38.20703125 C-34.10491406 41.11865657 -37.06263526 44.04806981 -40 47 C-44.0625 51.0625 -48.125 55.125 -52.1875 59.1875 C-52.85128662 59.85136719 -53.51507324 60.51523438 -54.19897461 61.19921875 C-55.63335747 62.63340718 -57.06850138 64.06683445 -58.50390625 65.5 C-60.60000226 67.59937628 -62.68961353 69.70481843 -64.77734375 71.8125 C-66.16401057 73.20838493 -67.55073047 74.60421711 -68.9375 76 C-69.62779297 76.69867188 -70.31808594 77.39734375 -71.02929688 78.1171875 C-74.02302419 81.1251031 -76.99733416 84.07147278 -80.2890625 86.75390625 C-82.64085735 88.70243944 -84.51007832 90.58710299 -86.4375 92.9375 C-93.04209176 100.60640788 -93.04209176 100.60640788 -97 103 C-99.66636347 102.94203558 -101.09283191 102.90716809 -103 101 C-103.28592219 98.21542944 -103.38894313 96.58692926 -101.81880188 94.2175293 C-101.26540634 93.67523682 -100.7120108 93.13294434 -100.1418457 92.57421875 C-99.5173201 91.9500708 -98.89279449 91.32592285 -98.24934387 90.68286133 C-97.56506821 90.02439209 -96.88079254 89.36592285 -96.17578125 88.6875 C-95.47736618 87.99615967 -94.77895111 87.30481934 -94.05937195 86.5925293 C-91.82187454 84.38301249 -89.56766868 82.19146335 -87.3125 80 C-85.81201033 78.52459671 -84.31264752 77.04804647 -82.81445312 75.5703125 C-79.49203842 72.29697113 -76.15899824 69.03490324 -72.81611633 65.7824707 C-68.52357501 61.56945361 -64.29474776 57.29145306 -60.0480957 53.03222656 C-54.2392279 47.20707412 -48.42785867 41.38442401 -42.61503315 35.56322098 C-39.10328208 32.04622809 -35.59248191 28.52829622 -32.08374023 25.00830078 C-28.68260421 21.5963297 -25.27905772 18.18678064 -21.87380028 14.77892303 C-20.5767134 13.47998576 -19.28050828 12.18016738 -17.98519325 10.8794632 C-16.1803396 9.06738919 -14.37242014 7.25842953 -12.5637207 5.45019531 C-12.02707291 4.90995224 -11.49042511 4.36970917 -10.93751526 3.81309509 C-6.92699405 -0.18621965 -5.57599625 -1.42974263 0 0 Z " fill="#FFFFFF" transform="translate(168,57)"/>
<path d="M0 0 C1.9375 0.5625 1.9375 0.5625 4 2 C5.0703125 5.15234375 5.0703125 5.15234375 5 9 C3.05151186 11.79505405 0.54901284 13.83541582 -2.0625 16 C-3.41088965 17.16280763 -4.75597508 18.3294583 -6.09765625 19.5 C-6.75717285 20.07242432 -7.41668945 20.64484863 -8.09619141 21.23461914 C-10.52801589 23.48962336 -12.61678228 25.94781805 -14.72827148 28.49951172 C-16.18559549 30.21898059 -17.7488284 31.64586826 -19.5 33.0625 C-25.49209512 38.1505653 -30.9179775 43.84038164 -36.44116211 49.42504883 C-38.61889416 51.6252915 -40.80938364 53.8125863 -43 56 C-44.50138924 57.50121492 -46.00268049 59.00252785 -47.50390625 60.50390625 C-52.3359375 65.3359375 -57.16796875 70.16796875 -62 75 C-62.70761475 75.73210693 -63.41522949 76.46421387 -64.14428711 77.21850586 C-66.1612418 79.15479298 -67.22023993 79.82066064 -70 80 C-70.99 79.34 -71.98 78.68 -73 78 C-73.48388672 75.21240234 -73.48388672 75.21240234 -73 72 C-71.01220703 69.29931641 -71.01220703 69.29931641 -68.2578125 66.6015625 C-67.77424286 66.1217392 -67.29067322 65.64191589 -66.79244995 65.14755249 C-65.77207827 64.14058107 -64.74455724 63.14080893 -63.71044922 62.14794922 C-62.12309211 60.62316732 -60.558337 59.0778076 -58.99609375 57.52734375 C-51.32744937 50 -51.32744937 50 -49 50 C-48.61847778 49.13060791 -48.61847778 49.13060791 -48.22924805 48.24365234 C-46.86614539 45.75568543 -45.34240389 44.09936569 -43.33203125 42.1015625 C-42.60306641 41.37453125 -41.87410156 40.6475 -41.12304688 39.8984375 C-40.36056641 39.14820313 -39.59808594 38.39796875 -38.8125 37.625 C-38.06935547 36.8825 -37.32621094 36.14 -36.56054688 35.375 C-32.65708313 31.50232606 -28.67654057 27.81473581 -24.4675293 24.27832031 C-22.62880294 22.67666149 -21.05483493 20.9386146 -19.5 19.0625 C-14.31041039 12.98293623 -8.65577657 7.59551419 -2.6015625 2.3828125 C-1.71147181 1.61429517 -0.83152881 0.83152881 0 0 Z " fill="#FFFFFF" transform="translate(112,28)"/>
<path d="M0 0 C2.30078125 0.76171875 2.30078125 0.76171875 3.30078125 1.76171875 C3.76567078 3.88040161 3.76567078 3.88040161 3.30078125 6.76171875 C1.43919953 9.40264445 -0.84258472 11.59783498 -3.13745117 13.86279297 C-3.82192322 14.5576329 -4.50639526 15.25247284 -5.21160889 15.96836853 C-7.48004863 18.26393594 -9.76643982 20.54059505 -12.0546875 22.81640625 C-13.63520925 24.40283365 -15.21506005 25.98992977 -16.79426575 27.57766724 C-20.10761634 30.90290844 -23.43011324 34.21866827 -26.7590332 37.52832031 C-31.03076869 41.77715514 -35.27715383 46.05034411 -39.51681042 50.33115959 C-42.77379635 53.61367842 -46.04469007 56.88204962 -49.31991005 60.14636612 C-50.8917842 61.71674996 -52.45905476 63.29175545 -54.02165794 64.87136459 C-56.20502529 67.07461957 -58.40656189 69.25792433 -60.61401367 71.43701172 C-61.25993973 72.09665421 -61.90586578 72.75629669 -62.57136536 73.43592834 C-64.22530176 75.04751231 -65.761664 76.50578284 -67.69921875 77.76171875 C-70.38952041 77.72229738 -71.77815823 77.68277927 -73.69921875 75.76171875 C-73.43914036 69.99627957 -72.08679123 67.40276767 -68.02758789 63.37719727 C-67.54297592 62.88849655 -67.05836395 62.39979584 -66.55906677 61.89628601 C-64.96494119 60.29617824 -63.35047377 58.71851153 -61.734375 57.140625 C-60.61841814 56.03078749 -59.50364259 54.91976101 -58.38999939 53.80760193 C-56.05943632 51.48622247 -53.71942718 49.17498592 -51.37133789 46.87133789 C-48.3567687 43.91352987 -45.36001105 40.93845603 -42.36924076 37.95660496 C-40.07032144 35.66598141 -37.76579495 33.38107595 -35.45913506 31.09824944 C-34.35177914 30.00230884 -33.24536847 28.9054123 -32.13990974 27.80755806 C-30.5985099 26.27985003 -29.05055427 24.75913689 -27.50024414 23.24047852 C-26.61945694 22.37334732 -25.73866974 21.50621613 -24.83119202 20.61280823 C-22.69921875 18.76171875 -22.69921875 18.76171875 -20.69921875 18.76171875 C-20.45171875 18.18421875 -20.20421875 17.60671875 -19.94921875 17.01171875 C-18.51621887 14.43231896 -16.91497199 12.70050283 -14.69921875 10.76171875 C-14.03921875 10.76171875 -13.37921875 10.76171875 -12.69921875 10.76171875 C-12.32216797 9.88966797 -12.32216797 9.88966797 -11.9375 9 C-10.54141152 6.47647098 -9.01835657 4.88521868 -6.88671875 2.94921875 C-5.88705078 2.01142578 -5.88705078 2.01142578 -4.8671875 1.0546875 C-2.69921875 -0.23828125 -2.69921875 -0.23828125 0 0 Z " fill="#FFFFFF" transform="translate(165.69921875,82.23828125)"/>
<path d="M0 0 C2 0.6875 2 0.6875 4 2.6875 C3.7549519 7.00893221 2.18135194 8.98560328 -0.859375 11.9375 C-1.64570312 12.7109375 -2.43203125 13.484375 -3.2421875 14.28125 C-4.06976563 15.0753125 -4.89734375 15.869375 -5.75 16.6875 C-6.96816406 17.87859375 -6.96816406 17.87859375 -8.2109375 19.09375 C-9.73471732 20.58278565 -11.26258296 22.06766042 -12.79589844 23.546875 C-16.91681456 27.54911166 -20.94558674 31.6419111 -24.9765625 35.734375 C-26.37892847 37.15052828 -27.78130961 38.5666669 -29.18457031 39.98193359 C-30.15021055 40.95772123 -31.1140613 41.93528278 -32.07617188 42.91455078 C-33.47573573 44.3383269 -34.88230267 45.75520841 -36.2890625 47.171875 C-37.12131348 48.01459961 -37.95356445 48.85732422 -38.81103516 49.72558594 C-41 51.6875 -41 51.6875 -44 52.6875 C-44.99 52.3575 -45.98 52.0275 -47 51.6875 C-47.81103516 48.54736328 -47.81103516 48.54736328 -48 44.6875 C-46.38545653 42.34352955 -45.0711544 40.8130515 -43.0234375 38.9296875 C-42.50117584 38.41874542 -41.97891418 37.90780334 -41.44082642 37.38137817 C-39.77009758 35.75529247 -38.07382713 34.15915653 -36.375 32.5625 C-35.25469112 31.48235252 -34.13617982 30.40033731 -33.01953125 29.31640625 C-30.95280891 27.31482097 -28.87607617 25.32499969 -26.78662109 23.34716797 C-24.1506266 20.83126434 -21.56582044 18.2747265 -19 15.6875 C-18.36876221 15.05102539 -17.73752441 14.41455078 -17.0871582 13.75878906 C-16.49765381 13.16291992 -15.90814941 12.56705078 -15.30078125 11.953125 C-13.97139924 10.61453857 -12.64197129 9.27599776 -11.3125 7.9375 C-10.63638672 7.25300781 -9.96027344 6.56851563 -9.26367188 5.86328125 C-8.61591797 5.21230469 -7.96816406 4.56132813 -7.30078125 3.890625 C-6.71466064 3.29926758 -6.12854004 2.70791016 -5.5246582 2.09863281 C-3.57175585 0.29114273 -2.68139578 -0.41896809 0 0 Z " fill="#FFFFFF" transform="translate(87,29.3125)"/>
<path d="M0 0 C2.25 0.8125 2.25 0.8125 3.25 1.8125 C3.57421875 4.09765625 3.57421875 4.09765625 3.25 6.8125 C1.45703125 9.05859375 1.45703125 9.05859375 -0.9375 11.25 C-4.82978761 14.9061663 -4.82978761 14.9061663 -8.3125 18.9375 C-10.23237131 21.20196359 -11.92522827 22.86720678 -14.171875 24.7421875 C-17.76179769 27.84511307 -21.09619825 31.1482111 -24.38671875 34.5625 C-24.87846085 35.06925262 -25.37020294 35.57600525 -25.87684631 36.09811401 C-27.92181869 38.20589051 -29.96530501 40.31431604 -31.9855957 42.44580078 C-33.48069295 44.01936278 -34.9940165 45.57327167 -36.51171875 47.125 C-37.39819092 48.04925781 -38.28466309 48.97351563 -39.19799805 49.92578125 C-41.75 51.8125 -41.75 51.8125 -44.51489258 51.66796875 C-46.75 50.8125 -46.75 50.8125 -47.75 49.8125 C-48.1875 47.0625 -48.1875 47.0625 -47.75 43.8125 C-45.0625 41.3125 -45.0625 41.3125 -43.41015625 40.11328125 C-41.64128409 38.72731789 -40.38429944 37.26446526 -39 35.5 C-38.2575 34.613125 -37.515 33.72625 -36.75 32.8125 C-36.09 32.8125 -35.43 32.8125 -34.75 32.8125 C-34.75 32.1525 -34.75 31.4925 -34.75 30.8125 C-34.09 30.8125 -33.43 30.8125 -32.75 30.8125 C-32.75 30.1525 -32.75 29.4925 -32.75 28.8125 C-32.09 28.8125 -31.43 28.8125 -30.75 28.8125 C-30.75 28.1525 -30.75 27.4925 -30.75 26.8125 C-30.09 26.8125 -29.43 26.8125 -28.75 26.8125 C-28.42 25.8225 -28.09 24.8325 -27.75 23.8125 C-27.09 23.8125 -26.43 23.8125 -25.75 23.8125 C-25.75 23.1525 -25.75 22.4925 -25.75 21.8125 C-22.26415315 17.99985501 -18.35884529 14.70082561 -14.421875 11.36328125 C-12.64673637 9.89899533 -12.64673637 9.89899533 -11.75 7.8125 C-11.09 7.8125 -10.43 7.8125 -9.75 7.8125 C-9.75 7.1525 -9.75 6.4925 -9.75 5.8125 C-9.09 5.8125 -8.43 5.8125 -7.75 5.8125 C-7.75 5.1525 -7.75 4.4925 -7.75 3.8125 C-3.68617021 -0.25132979 -3.68617021 -0.25132979 0 0 Z " fill="#FFFFFF" transform="translate(165.75,108.1875)"/>
<path d="M0 0 C2.9375 0.1875 2.9375 0.1875 3.9375 1.1875 C4.5 3.75 4.5 3.75 3.9375 7.1875 C1.54691167 10.15832821 -1.23417027 12.63988465 -4.0625 15.1875 C-4.908125 16.05375 -5.75375 16.92 -6.625 17.8125 C-7.429375 18.59625 -8.23375 19.38 -9.0625 20.1875 C-9.89587891 21.01507813 -9.89587891 21.01507813 -10.74609375 21.859375 C-12.46276194 23.46898216 -14.07782946 24.92165091 -16.0625 26.1875 C-19 26.0625 -19 26.0625 -21.0625 25.1875 C-21.7578125 22.9375 -21.7578125 22.9375 -22.0625 20.1875 C-20.8046875 18.125 -20.8046875 18.125 -18.9375 16.1875 C-17.96296875 15.15689453 -17.96296875 15.15689453 -16.96875 14.10546875 C-16.3396875 13.47253906 -15.710625 12.83960938 -15.0625 12.1875 C-14.19625 11.300625 -13.33 10.41375 -12.4375 9.5 C-11.65375 8.736875 -10.87 7.97375 -10.0625 7.1875 C-9.175625 6.300625 -8.28875 5.41375 -7.375 4.5 C-3.0625 0.1875 -3.0625 0.1875 0 0 Z " fill="#FFFFFF" transform="translate(165.0625,133.8125)"/>
<path d="M0 0 C0.9375 2.5 0.9375 2.5 1 6 C-0.94003527 9.04147466 -3.44539206 11.46904583 -6 14 C-6.69609375 14.72058594 -7.3921875 15.44117187 -8.109375 16.18359375 C-14.48752895 22.71760484 -14.48752895 22.71760484 -18 25 C-22.41025641 24.58974359 -22.41025641 24.58974359 -24 23 C-24.42591845 19.79638225 -24.3187846 18.43356242 -22.37939453 15.79589844 C-21.63802246 15.0743457 -20.89665039 14.35279297 -20.1328125 13.609375 C-19.32972656 12.81789063 -18.52664062 12.02640625 -17.69921875 11.2109375 C-16.84972656 10.39882813 -16.00023437 9.58671875 -15.125 8.75 C-14.28324219 7.92242187 -13.44148438 7.09484375 -12.57421875 6.2421875 C-4.72590125 -1.41777038 -4.72590125 -1.41777038 0 0 Z " fill="#FFFFFF" transform="translate(63,30)"/>
<path d="M0 0 C2.375 0.75 2.375 0.75 3.375 1.75 C3.62466567 4.8882345 3.56021791 8.04049613 3.5625 11.1875 C3.57474609 12.07244141 3.58699219 12.95738281 3.59960938 13.86914062 C3.60250977 15.13854492 3.60250977 15.13854492 3.60546875 16.43359375 C3.60957764 17.21275146 3.61368652 17.99190918 3.61791992 18.79467773 C3.375 20.75 3.375 20.75 1.375 22.75 C-1.125 23.0625 -1.125 23.0625 -3.625 22.75 C-6.18712287 18.90681569 -5.95608539 15.70306045 -5.9375 11.25 C-5.95361328 10.47785156 -5.96972656 9.70570312 -5.98632812 8.91015625 C-5.99125513 3.2243876 -5.99125513 3.2243876 -4.26635742 0.99023438 C-2.625 -0.25 -2.625 -0.25 0 0 Z " fill="#FFFFFF" transform="translate(184.625,86.25)"/>
<path d="M0 0 C2.375 0.8125 2.375 0.8125 3.375 2.8125 C3.61042471 5.80694406 3.56017593 8.80979849 3.5625 11.8125 C3.57474609 12.64523438 3.58699219 13.47796875 3.59960938 14.3359375 C3.60250977 15.53089844 3.60250977 15.53089844 3.60546875 16.75 C3.60957764 17.48089844 3.61368652 18.21179688 3.61791992 18.96484375 C3.375 20.8125 3.375 20.8125 1.375 22.8125 C-1.125 23.125 -1.125 23.125 -3.625 22.8125 C-6.18712287 18.96931569 -5.95608539 15.76556045 -5.9375 11.3125 C-5.95361328 10.54035156 -5.96972656 9.76820312 -5.98632812 8.97265625 C-5.99125605 3.28583576 -5.99125605 3.28583576 -4.26635742 1.05664062 C-2.625 -0.1875 -2.625 -0.1875 0 0 Z " fill="#FFFFFF" transform="translate(184.625,113.1875)"/>
<path d="M0 0 C1.15822266 -0.00483398 1.15822266 -0.00483398 2.33984375 -0.00976562 C6.22431666 0.02726141 8.20317851 0.11461901 11.5 2.3125 C11.875 4.8125 11.875 4.8125 11.5 7.3125 C8.39914429 9.37973714 7.77068319 9.55747423 4.26953125 9.5078125 C3.06586914 9.49814453 3.06586914 9.49814453 1.83789062 9.48828125 C1.00451172 9.47152344 0.17113281 9.45476563 -0.6875 9.4375 C-1.53248047 9.42847656 -2.37746094 9.41945313 -3.24804688 9.41015625 C-5.33215243 9.38660703 -7.41611217 9.35073647 -9.5 9.3125 C-10.16 7.3325 -10.82 5.3525 -11.5 3.3125 C-8.21278993 -0.55431728 -4.77769566 -0.0997015 0 0 Z " fill="#FFFFFF" transform="translate(125.5,10.6875)"/>
<path d="M0 0 C2.375 0.75 2.375 0.75 3.375 1.75 C3.52857265 4.72104013 3.60668121 7.65277553 3.625 10.625 C3.645625 11.45386719 3.66625 12.28273438 3.6875 13.13671875 C3.69265625 13.93464844 3.6978125 14.73257813 3.703125 15.5546875 C3.71714355 16.65272705 3.71714355 16.65272705 3.73144531 17.77294922 C3.27270313 20.31739729 2.42749182 21.21886305 0.375 22.75 C-2.25 22.5625 -2.25 22.5625 -4.625 21.75 C-6.26010979 18.47978041 -5.85128299 14.90266249 -5.875 11.3125 C-5.895625 10.53583984 -5.91625 9.75917969 -5.9375 8.95898438 C-5.97713191 3.20740388 -5.97713191 3.20740388 -4.26855469 0.98803711 C-2.625 -0.25 -2.625 -0.25 0 0 Z " fill="#FFFFFF" transform="translate(184.625,59.25)"/>
<path d="M0 0 C0.71994141 0.00128906 1.43988281 0.00257812 2.18164062 0.00390625 C5.94009522 0.06672165 7.74551488 0.24700992 10.9375 2.375 C11.25 4.875 11.25 4.875 10.9375 7.375 C8.9375 9.375 8.9375 9.375 6.96630859 9.60205078 C6.18078613 9.59157715 5.39526367 9.58110352 4.5859375 9.5703125 C3.73515625 9.56386719 2.884375 9.55742187 2.0078125 9.55078125 C0.67363281 9.52564453 0.67363281 9.52564453 -0.6875 9.5 C-2.03328125 9.48646484 -2.03328125 9.48646484 -3.40625 9.47265625 C-5.62526586 9.4490497 -7.84375077 9.4161231 -10.0625 9.375 C-10.7225 7.725 -11.3825 6.075 -12.0625 4.375 C-8.64454797 -0.14062331 -5.30939754 -0.18159956 0 0 Z " fill="#FFFFFF" transform="translate(153.0625,10.625)"/>
<path d="M0 0 C1.53149722 0.00796272 3.06300195 0.03738289 4.59375 0.0859375 C5.75197266 0.08787109 5.75197266 0.08787109 6.93359375 0.08984375 C10.80602902 0.15024569 12.81008068 0.27182462 16.09375 2.4609375 C16.40625 4.9609375 16.40625 4.9609375 16.09375 7.4609375 C12.95095379 10.60373371 9.43440334 9.86847378 5.15625 9.8984375 C3.9197168 9.94774414 3.9197168 9.94774414 2.65820312 9.99804688 C0.35808116 10.01860036 -1.66526645 9.98481125 -3.90625 9.4609375 C-5.97265625 6.93359375 -5.97265625 6.93359375 -6.90625 4.4609375 C-5.09752917 0.77056354 -4.17358316 0.49248281 0 0 Z " fill="#FFFFFF" transform="translate(65.90625,10.5390625)"/>
<path d="M0 0 C0.78052734 -0.00773438 1.56105469 -0.01546875 2.36523438 -0.0234375 C8.18414502 -0.00335498 8.18414502 -0.00335498 10.4375 2.25 C10.6875 4.75 10.6875 4.75 10.4375 7.25 C8.07181778 9.61568222 7.58517774 9.50571704 4.375 9.515625 C3.18003906 9.51949219 3.18003906 9.51949219 1.9609375 9.5234375 C1.12820312 9.51570313 0.29546875 9.50796875 -0.5625 9.5 C-1.39523438 9.50773437 -2.22796875 9.51546875 -3.0859375 9.5234375 C-3.88257812 9.52085938 -4.67921875 9.51828125 -5.5 9.515625 C-6.23089844 9.51336914 -6.96179688 9.51111328 -7.71484375 9.50878906 C-9.5625 9.25 -9.5625 9.25 -11.5625 7.25 C-11.875 4.75 -11.875 4.75 -11.5625 2.25 C-7.69957629 -0.32528248 -4.47303122 -0.04454471 0 0 Z " fill="#FFFFFF" transform="translate(98.5625,10.75)"/>
<path d="M0 0 C2.375 0.75 2.375 0.75 3.375 1.75 C3.50167764 4.74018161 3.56020838 7.69694108 3.5625 10.6875 C3.57474609 11.52474609 3.58699219 12.36199219 3.59960938 13.22460938 C3.60250977 14.42633789 3.60250977 14.42633789 3.60546875 15.65234375 C3.60957764 16.38960693 3.61368652 17.12687012 3.61791992 17.88647461 C3.375 19.75 3.375 19.75 1.375 21.75 C-1.125 22 -1.125 22 -3.625 21.75 C-6.23542212 19.13957788 -5.91346788 17.23878815 -5.94726562 13.67773438 C-5.94404297 12.89720703 -5.94082031 12.11667969 -5.9375 11.3125 C-5.95361328 10.53583984 -5.96972656 9.75917969 -5.98632812 8.95898438 C-5.99126696 3.22499527 -5.99126696 3.22499527 -4.26635742 0.98803711 C-2.625 -0.25 -2.625 -0.25 0 0 Z " fill="#FFFFFF" transform="translate(184.625,32.25)"/>
<path d="M0 0 C0.87785156 0.00515625 1.75570312 0.0103125 2.66015625 0.015625 C3.53542969 0.01046875 4.41070312 0.0053125 5.3125 0 C7.72265625 0.265625 7.72265625 0.265625 10.72265625 2.265625 C11.12109375 4.76171875 11.12109375 4.76171875 11.09765625 7.703125 C11.10539063 8.67121094 11.113125 9.63929687 11.12109375 10.63671875 C10.72265625 13.265625 10.72265625 13.265625 9.3671875 15.1328125 C7.72265625 16.265625 7.72265625 16.265625 5.03515625 15.953125 C4.27203125 15.72625 3.50890625 15.499375 2.72265625 15.265625 C2.39265625 13.285625 2.06265625 11.305625 1.72265625 9.265625 C-1.24734375 8.770625 -1.24734375 8.770625 -4.27734375 8.265625 C-4.40234375 5.390625 -4.40234375 5.390625 -4.27734375 2.265625 C-2.27734375 0.265625 -2.27734375 0.265625 0 0 Z " fill="#FFFFFF" transform="translate(177.27734375,10.734375)"/>
<path d="M0 0 C2.375 0.8125 2.375 0.8125 3.375 2.8125 C3.49645993 4.64287287 3.55043185 6.47814133 3.5625 8.3125 C3.57667969 9.2921875 3.59085938 10.271875 3.60546875 11.28125 C3.375 13.8125 3.375 13.8125 1.375 15.8125 C-1.6875 15.5625 -1.6875 15.5625 -4.625 14.8125 C-5.85191067 12.35867866 -5.82675931 10.61265897 -5.875 7.875 C-5.90078125 6.99972656 -5.9265625 6.12445313 -5.953125 5.22265625 C-5.625 2.8125 -5.625 2.8125 -4.2734375 0.984375 C-2.625 -0.1875 -2.625 -0.1875 0 0 Z " fill="#FFFFFF" transform="translate(184.625,144.1875)"/>
<path d="M0 0 C2.5625 1.5 2.5625 1.5 4 3 C3.625 5.4375 3.625 5.4375 3 8 C0.39820337 9.30089831 -1.5969188 9.16840078 -4.5 9.1875 C-5.4796875 9.20167969 -6.459375 9.21585938 -7.46875 9.23046875 C-10 9 -10 9 -12 7 C-12.3125 4.5 -12.3125 4.5 -12 2 C-7.98677954 -0.67548031 -4.71626345 -0.58740465 0 0 Z " fill="#FFFFFF" transform="translate(51,11)"/>
<path d="" fill="#FFFFFF" transform="translate(0,0)"/>
<path d="" fill="#FFFFFF" transform="translate(0,0)"/>
<path d="" fill="#FFFFFF" transform="translate(0,0)"/>
<path d="" fill="#FFFFFF" transform="translate(0,0)"/>
</svg>
