<?xml version="1.0" encoding="UTF-8"?>
<!DOCTYPE svg PUBLIC "-//W3C//DTD SVG 1.1//EN" "http://www.w3.org/Graphics/SVG/1.1/DTD/svg11.dtd">
<!-- Creator: CorelDRAW 2020 (64 Bit) -->
<svg xmlns="http://www.w3.org/2000/svg" xml:space="preserve" width="50.8mm" height="50.7998mm" version="1.1" style="shape-rendering:geometricPrecision; text-rendering:geometricPrecision; image-rendering:optimizeQuality; fill-rule:evenodd; clip-rule:evenodd"
viewBox="0 0 5080 5079.98"
 xmlns:xlink="http://www.w3.org/1999/xlink"
 xmlns:xodm="http://www.corel.com/coreldraw/odm/2003">
 <defs>
  <style type="text/css">
   <![CDATA[
    .fil0 {fill:#666}
   ]]>
  </style>
 </defs>
 <g id="Camada_x0020_1">
  <metadata id="CorelCorpID_0Corel-Layer"/>
  <g id="_2303614216688">
   <path class="fil0" d="M265.75 274.97l4403.95 4399.29 -4403.95 2.33 0 -697.93c166.99,0 279.17,27.5 279.17,-83.75 0,-79.47 -188.94,-55.84 -279.17,-55.84l0 -455.99c122.26,0 279.17,26.32 279.17,-65.13 0,-101.19 -140.53,-74.45 -279.17,-74.45l0 -455.98c140.61,0 279.17,27.98 279.17,-65.14 0,-92.78 -112.35,-65.14 -279.17,-65.14l0 -465.29c198.8,0 279.17,27.82 279.17,-74.45 0,-81.48 -171.76,-55.83 -279.17,-55.83l0 -455.98c166.99,0 279.17,27.5 279.17,-83.75 0,-79.48 -188.94,-55.83 -279.17,-55.83l0 -455.99c122.26,0 279.17,26.3 279.17,-65.15 0,-101.19 -140.53,-74.44 -279.17,-74.44l0 -595.56zm-130.28 -167.51l0 4634.27c0,43.44 21.7,65.14 65.14,65.14l4634.27 0c43.44,0 65.14,-21.7 65.14,-65.14 0,-56.38 -227.57,-260.14 -276.84,-309.41l-4331.81 -4331.86c-24.99,-25.28 -45.26,-58.14 -90.76,-58.14 -43.44,0 -65.14,21.7 -65.14,65.14z"/>
   <path class="fil0" d="M1010.21 2070.98l1863.47 1858.82 -1863.47 2.33 0 -1861.15zm-130.28 -167.51l0 2093.8c0,43.44 21.7,65.14 65.14,65.14l2103.11 0c20.47,0 55.83,-20.73 55.83,-65.14 0,-55.96 -205.86,-238.43 -253.59,-286.16 -92.22,-92.22 -177.63,-177.63 -269.86,-269.86 -182.19,-182.19 -357.55,-357.55 -539.74,-539.73 -182.18,-182.19 -357.54,-357.55 -539.73,-539.74 -92.23,-92.23 -177.64,-177.64 -269.86,-269.86 -47.25,-47.25 -87.69,-87.69 -134.94,-134.94 -33.07,-33.07 -98.16,-118.65 -151.22,-118.65 -43.44,0 -65.14,21.7 -65.14,65.14z"/>
  </g>
 </g>
</svg>
