<?xml version="1.0" encoding="UTF-8"?>
<svg version="1.1" xmlns="http://www.w3.org/2000/svg" width="512" height="512">
<path d="M0 0 C0.91297852 0.16628906 1.82595703 0.33257812 2.76660156 0.50390625 C44.3986228 8.16363077 83.16052206 26.40624883 116 53 C116.54446777 53.44005371 117.08893555 53.88010742 117.64990234 54.33349609 C131.72173929 65.81174863 144.93680647 78.57719064 156 93 C156.75925781 93.93070312 157.51851563 94.86140625 158.30078125 95.8203125 C184.1596216 128.07168914 200.62794761 167.52514646 208 208 C208.16371094 208.83563477 208.32742188 209.67126953 208.49609375 210.53222656 C213.78656862 238.24163521 213.41678597 270.35093304 208 298 C207.83371094 298.91297852 207.66742188 299.82595703 207.49609375 300.76660156 C199.83636923 342.3986228 181.59375117 381.16052206 155 414 C154.55994629 414.54446777 154.11989258 415.08893555 153.66650391 415.64990234 C142.18825137 429.72173929 129.42280936 442.93680647 115 454 C114.06929688 454.75925781 113.13859375 455.51851563 112.1796875 456.30078125 C79.92831086 482.1596216 40.47485354 498.62794761 0 506 C-0.83563477 506.16371094 -1.67126953 506.32742188 -2.53222656 506.49609375 C-30.24163521 511.78656862 -62.35093304 511.41678597 -90 506 C-90.91297852 505.83371094 -91.82595703 505.66742188 -92.76660156 505.49609375 C-134.3986228 497.83636923 -173.16052206 479.59375117 -206 453 C-206.54446777 452.55994629 -207.08893555 452.11989258 -207.64990234 451.66650391 C-221.72173929 440.18825137 -234.93680647 427.42280936 -246 413 C-246.75925781 412.06929688 -247.51851562 411.13859375 -248.30078125 410.1796875 C-274.1596216 377.92831086 -290.62794761 338.47485354 -298 298 C-298.16371094 297.16436523 -298.32742188 296.32873047 -298.49609375 295.46777344 C-303.78656862 267.75836479 -303.41678597 235.64906696 -298 208 C-297.83371094 207.08702148 -297.66742188 206.17404297 -297.49609375 205.23339844 C-289.83636923 163.6013772 -271.59375117 124.83947794 -245 92 C-244.55994629 91.45553223 -244.11989258 90.91106445 -243.66650391 90.35009766 C-232.18825137 76.27826071 -219.42280936 63.06319353 -205 52 C-204.06929688 51.24074219 -203.13859375 50.48148438 -202.1796875 49.69921875 C-169.92831086 23.8403784 -130.47485354 7.37205239 -90 0 C-89.16436523 -0.16371094 -88.32873047 -0.32742188 -87.46777344 -0.49609375 C-59.75836479 -5.78656862 -27.64906696 -5.41678597 0 0 Z M-193.39868164 99.49243164 C-195.2784311 101.3160063 -197.1437525 103.15252786 -199 105 C-199.50724609 105.50321777 -200.01449219 106.00643555 -200.53710938 106.52490234 C-239.7144558 145.93190908 -258.81121525 201.76623943 -259.00927734 256.56689453 C-258.33062199 313.97653635 -233.06950131 366.74017136 -193 407 C-192.49678223 407.50724609 -191.99356445 408.01449219 -191.47509766 408.53710938 C-152.06809092 447.7144558 -96.23376057 466.81121525 -41.43310547 467.00927734 C15.97653635 466.33062199 68.74017136 441.06950131 109 401 C109.76086914 400.24517334 109.76086914 400.24517334 110.53710938 399.47509766 C149.7144558 360.06809092 168.81121525 304.23376057 169.00927734 249.43310547 C168.33062199 192.02346365 143.06950131 139.25982864 103 99 C102.49678223 98.49275391 101.99356445 97.98550781 101.47509766 97.46289062 C35.12684641 31.50131071 -75.08971198 21.08686028 -193.39868164 99.49243164 Z " fill="#FFFFFF" transform="translate(301,3)"/>
<path d="M0 0 C5.38602653 2.96900531 8.3830736 6.01096373 11.0625 11.625 C12.80535833 19.86396666 12.11172583 25.68294567 7.75 32.875 C5.60724438 35.55039368 3.23044357 37.94002075 0.79302979 40.34663391 C0.09288561 41.05372362 -0.60725857 41.76081333 -1.32861924 42.48932999 C-3.66507725 44.84400894 -6.01549269 47.18422196 -8.36621094 49.5246582 C-10.04920335 51.21471141 -11.73135174 52.90560548 -13.41271973 54.59727478 C-17.50049667 58.70520208 -21.59758126 62.80366309 -25.69951841 66.89744792 C-29.03415542 70.22577359 -32.36503717 73.55781409 -35.69330597 76.89250755 C-36.16781636 77.3679196 -36.64232675 77.84333164 -37.13121624 78.33315011 C-38.09529388 79.29907903 -39.05936588 80.26501359 -40.02343228 81.23095372 C-49.05391249 90.27799367 -58.09697624 99.31237192 -67.14416388 108.34269973 C-75.41490548 116.59874054 -83.67088541 124.86936128 -91.91984984 133.14715586 C-100.39910794 141.65582702 -108.88755666 150.15522373 -117.38630509 158.64442891 C-118.34802772 159.60512902 -119.30973639 160.56584309 -120.27143097 161.52657127 C-120.74455229 161.9992162 -121.21767361 162.47186113 -121.70513193 162.95882863 C-125.03246122 166.28399661 -128.35377705 169.6150984 -131.67272186 172.94863319 C-136.14308936 177.43734597 -140.6254275 181.91374996 -145.11726379 186.38097572 C-146.76307799 188.02177899 -148.40464964 189.66685053 -150.04161835 191.31647873 C-152.27806571 193.5688479 -154.5293859 195.80522962 -156.78509521 198.0382843 C-157.42830711 198.69333193 -158.07151901 199.34837955 -158.73422217 200.0232771 C-163.76781948 204.95480624 -169.32872347 208.25964385 -176.625 208.375 C-186.49546633 207.81111722 -193.57701193 201.28312571 -200.20043945 194.5715332 C-201.03267532 193.74805893 -201.86491119 192.92458466 -202.72236633 192.07615662 C-205.44865095 189.37173841 -208.15639833 186.64960832 -210.86328125 183.92578125 C-212.76442694 182.02800729 -214.66629918 180.13098421 -216.56889343 178.23466492 C-220.54592306 174.26669931 -224.51236918 170.28838356 -228.47290039 166.30395508 C-233.03408814 161.71556233 -237.61300795 157.14545899 -242.20155174 152.58443576 C-246.16012456 148.64864606 -250.1087542 144.70307971 -254.04942673 140.74936742 C-256.39457013 138.39647981 -258.74381228 136.04800619 -261.10015297 133.70632362 C-263.72793735 131.09130926 -266.33904441 128.46067139 -268.9465332 125.82543945 C-269.71700989 125.06508392 -270.48748657 124.30472839 -271.28131104 123.52133179 C-277.35685395 117.32615877 -282.27362847 110.65628531 -282.8125 101.75 C-282.45016038 95.33860172 -279.95485225 90.89390398 -275.875 86.0625 C-270.15374354 81.29478629 -265.73465309 80.52469306 -258.4453125 80.37890625 C-250.59353156 81.59794803 -245.31232194 86.2345654 -239.91601562 91.75488281 C-239.23209747 92.43821686 -238.54817932 93.1215509 -237.84353638 93.82559204 C-235.60481713 96.06707867 -233.38056987 98.32235645 -231.15625 100.578125 C-229.59914353 102.14269859 -228.0411465 103.70638633 -226.4822998 105.26922607 C-222.39638762 109.37035722 -218.32263473 113.48336052 -214.25134277 117.59899902 C-210.08893629 121.80243845 -205.91507963 125.99447443 -201.7421875 130.1875 C-193.56691258 138.4055799 -185.40444467 146.63625438 -177.25 154.875 C-172.58113297 150.97632801 -168.1633066 146.92447922 -163.88809204 142.59970093 C-162.98822242 141.6958212 -162.98822242 141.6958212 -162.07017362 140.77368128 C-160.07904075 138.77256191 -158.09155599 136.767859 -156.10400391 134.76318359 C-154.66957257 133.32027671 -153.2348783 131.87763117 -151.79994202 130.43522644 C-148.71912054 127.33773352 -145.63968232 124.23887419 -142.5611763 121.13908005 C-137.68991104 116.23511016 -132.81261472 111.33716915 -127.93392944 106.44058228 C-126.69697167 105.19899481 -126.69697167 105.19899481 -125.43502486 103.93232477 C-123.74935135 102.24034391 -122.06366903 100.54837184 -120.37797809 98.85640836 C-109.02735612 87.46282647 -97.68125696 76.06479932 -86.34960938 64.65234375 C-78.69571835 56.94396533 -71.03296322 49.24452052 -63.35994852 41.55517638 C-59.30367805 37.48953942 -55.25211517 33.41944561 -51.21141434 29.33832932 C-47.41197007 25.5009888 -43.60098635 21.67549864 -39.78092766 17.85868263 C-38.38381121 16.45860078 -36.99096633 15.0542409 -35.60282707 13.64525795 C-33.70195171 11.71712256 -31.78608558 9.8051853 -29.86587524 7.89633179 C-29.32489626 7.34010647 -28.78391727 6.78388116 -28.22654498 6.21080053 C-20.17639891 -1.69633219 -10.4909728 -4.80253422 0 0 Z " fill="#FFFFFF" transform="translate(391.25,153.125)"/>
</svg>
