<?xml version="1.0" encoding="UTF-8"?>
<svg version="1.1" xmlns="http://www.w3.org/2000/svg" width="512" height="512">
<path d="M0 0 C1.10374903 -0.00453111 2.20749805 -0.00906223 3.34469402 -0.01373065 C7.0268667 -0.02634606 10.70889092 -0.02475609 14.39108276 -0.02310181 C17.03799483 -0.0290889 19.68489547 -0.0358388 22.33180237 -0.04345703 C28.76656982 -0.06002538 35.20130061 -0.06556472 41.63608761 -0.06668179 C46.87125683 -0.0676344 52.10641403 -0.0717553 57.34157944 -0.07808304 C72.20889746 -0.09568534 87.07618668 -0.10492368 101.9435152 -0.10342209 C103.14418468 -0.10330222 103.14418468 -0.10330222 104.36911011 -0.10317993 C105.17054254 -0.10309817 105.97197497 -0.10301641 106.79769324 -0.10293217 C119.77505592 -0.10211992 132.75230236 -0.12124487 145.72963144 -0.14945666 C159.07883354 -0.17824607 172.42797907 -0.19199358 185.77721298 -0.19026911 C193.26201851 -0.18960722 200.74670222 -0.1950108 208.23147964 -0.21662521 C214.60622369 -0.23491712 220.98079072 -0.23911928 227.35554977 -0.22560637 C230.60208966 -0.21911624 233.84822358 -0.22102658 237.09474373 -0.23631287 C250.23897322 -0.29416573 262.26572061 -0.24378672 274.73043823 4.26742554 C275.79947451 4.63522943 276.86851078 5.00303333 277.96994209 5.3819828 C298.02795891 12.56140365 312.07975287 28.9123069 321.15621948 47.59555054 C325.17225799 56.96298527 327.83365496 66.90878103 327.87760925 77.13616943 C327.88834221 78.86030815 327.88834221 78.86030815 327.89929199 80.61927795 C327.9019809 81.86618912 327.9046698 83.11310028 327.90744019 84.39779663 C327.91371244 85.73543979 327.92035991 87.07308124 327.92735291 88.41072083 C327.94829744 92.78742277 327.95874327 97.16412471 327.96871948 101.54086304 C327.97277002 103.05194745 327.97688703 104.5630317 327.98106956 106.07411575 C328.00009667 113.17225315 328.01433533 120.27038029 328.02268153 127.36853826 C328.03245814 135.54645331 328.05879892 143.72409801 328.09918243 151.90191782 C328.12937796 158.2350224 328.14415348 164.56804958 328.14746255 170.90122473 C328.1498082 174.67865064 328.15870584 178.45578689 328.18392372 182.23313522 C328.20727151 185.78733974 328.2114112 189.34106516 328.20116234 192.89532661 C328.2004342 194.81176494 328.21947581 196.72817931 328.23922729 198.64451599 C328.19435554 206.10868348 327.69067092 212.1259688 322.28305531 217.7810421 C316.28468446 223.04060214 311.75375459 223.72011094 303.92965698 223.57992554 C298.16241529 223.01658081 294.76375562 220.61906482 290.91793823 216.32992554 C287.67835994 211.79451593 286.48168853 208.297506 286.47215271 202.735672 C286.46532471 201.63547226 286.4584967 200.53527252 286.45146179 199.4017334 C286.45401474 198.20426483 286.45656769 197.00679626 286.459198 195.77304077 C286.45117431 193.8250865 286.44314824 191.87713224 286.43503273 189.92917836 C286.42818558 187.83934006 286.42617805 185.7495455 286.42547798 183.65969658 C286.4235313 179.29148808 286.40544262 174.92343697 286.38471985 170.55528259 C286.33560141 159.70028003 286.30472475 148.84523458 286.28341675 137.99014282 C286.26684295 129.56184885 286.2438708 121.13368981 286.200396 112.70548588 C286.17875939 108.37426535 286.17054876 104.04330201 286.17278874 99.71203125 C286.17071161 96.36380667 286.14931158 93.01574636 286.131073 89.66757202 C286.13565018 88.48427307 286.14022736 87.30097412 286.14494324 86.08181763 C286.05201003 75.29395046 284.60576275 65.88446352 278.03512573 57.10726929 C276.73043823 55.26742554 276.73043823 55.26742554 275.73043823 52.26742554 C273.87763022 51.17925596 273.87763022 51.17925596 271.73043823 50.26742554 C270.47276794 49.4668497 269.2228778 48.65394021 267.98043823 47.82992554 C257.96263376 41.5525952 248.00005075 41.11420983 236.42774963 41.13371277 C235.42805627 41.13144721 234.42836291 41.12918166 233.39837581 41.12684745 C230.06854027 41.12054754 226.73874585 41.12133422 223.40890503 41.12216187 C221.01328479 41.11916789 218.61766503 41.11576481 216.2220459 41.11198425 C210.40190688 41.10407979 204.58178022 41.10093068 198.7616361 41.10037187 C194.02749382 41.09989544 189.29335487 41.09783436 184.55921364 41.09467125 C171.11547878 41.08587261 157.67175189 41.08125069 144.22801413 41.08200172 C143.14265522 41.08206166 143.14265522 41.08206166 142.03536987 41.0821228 C140.9486748 41.08218412 140.9486748 41.08218412 139.8400263 41.08224668 C128.10224616 41.08265304 116.36449811 41.07308414 104.62672725 41.05898444 C92.5533296 41.04459682 80.47994759 41.03771555 68.40654117 41.03857821 C61.63671786 41.03890933 54.86692821 41.03619945 48.09711266 41.02540016 C41.72853351 41.01569764 35.36002532 41.01565481 28.99144363 41.02291679 C26.6598799 41.02395992 24.32831169 41.02161597 21.9967556 41.01555634 C1.9937075 40.42392325 1.9937075 40.42392325 -16.83206177 46.20492554 C-17.80272583 46.70894897 -18.77338989 47.21297241 -19.77346802 47.73226929 C-21.98102663 49.08996965 -23.4748885 50.44002266 -25.26956177 52.26742554 C-25.92956177 52.26742554 -26.58956177 52.26742554 -27.26956177 52.26742554 C-27.54928833 52.85523804 -27.82901489 53.44305054 -28.11721802 54.04867554 C-29.18419341 56.10305528 -30.37721769 57.87830125 -31.70706177 59.76742554 C-37.65980973 69.36616252 -37.7066953 80.3317481 -37.6505127 91.29672241 C-37.65397624 92.78345838 -37.65874545 94.27019176 -37.66469443 95.75691986 C-37.6771385 99.81127791 -37.67106436 103.86542224 -37.66173577 107.91978073 C-37.65491839 112.30431262 -37.66543978 116.68880902 -37.67367554 121.07333374 C-37.68698648 129.6503568 -37.68414692 138.22730091 -37.67543761 146.80432701 C-37.66865107 153.77762879 -37.66774854 160.75090851 -37.67100906 167.72421265 C-37.67146876 168.71825214 -37.67192846 169.71229163 -37.67240209 170.73645353 C-37.67336131 172.75608636 -37.67433395 174.77571917 -37.67531987 176.79535198 C-37.68386603 195.71508481 -37.67405177 214.63477396 -37.65791877 233.55449963 C-37.64451629 249.77393429 -37.6468446 265.99330453 -37.66067505 282.21273804 C-37.67674453 301.06668406 -37.68304213 319.92059185 -37.67383826 338.77454376 C-37.67288265 340.78657531 -37.67193954 342.79860687 -37.67100906 344.81063843 C-37.67054624 345.80048973 -37.67008341 346.79034102 -37.66960656 347.81018782 C-37.66702078 354.77177317 -37.67137878 361.73333419 -37.67844772 368.69491577 C-37.68687813 377.18353881 -37.68455024 385.67207866 -37.66860549 394.16069221 C-37.66074349 398.48827821 -37.6575957 402.81572571 -37.66755295 407.14331055 C-37.67654346 411.11086298 -37.67149592 415.07814956 -37.65562029 419.04567814 C-37.65229083 420.47486136 -37.65392485 421.9040674 -37.66124766 423.33323574 C-37.71736861 435.20406768 -36.85653713 445.69974949 -29.57424927 455.42758179 C-28.26956177 457.26742554 -28.26956177 457.26742554 -27.26956177 460.26742554 C-25.41675375 461.35559511 -25.41675375 461.35559511 -23.26956177 462.26742554 C-22.01189147 463.06800138 -20.76200133 463.88091087 -19.51956177 464.70492554 C-8.41005194 471.66633742 3.23799145 471.40225079 15.95678902 471.40552521 C19.99795598 471.40988633 24.03897019 471.44097424 28.08004761 471.46664429 C33.1975293 471.49700201 38.31476213 471.51973927 43.43234253 471.51791382 C47.59273162 471.51712442 51.75238404 471.54057211 55.91258049 471.57979584 C57.48848085 471.59020905 59.06446667 471.59181454 60.64038277 471.58414459 C76.58362485 471.51423531 76.58362485 471.51423531 82.73043823 477.26742554 C87.81206141 482.61650257 89.21568151 487.44970795 89.04293823 494.70492554 C88.36464086 500.26696402 85.93316595 504.48370572 81.73043823 508.14242554 C76.51951049 511.83349935 73.0000267 512.56550012 66.61984253 512.55795288 C65.80454575 512.5646701 64.98924896 512.57138733 64.14924622 512.57830811 C61.45098777 512.59731573 58.75297826 512.60121529 56.05465698 512.60336304 C54.16816609 512.60979474 52.2816762 512.61652338 50.39518738 512.62353516 C46.43326512 512.63551887 42.47143007 512.63921543 38.50949097 512.63803101 C33.47081946 512.63782906 28.4327199 512.66499661 23.39418316 512.69957542 C19.49126201 512.72200296 15.58847432 512.72586355 11.68549538 512.72481155 C9.83063623 512.72714892 7.97577233 512.73586539 6.1209774 512.75147629 C-18.17891438 512.93665328 -38.7312868 505.89852735 -56.70315552 488.92367554 C-70.45889236 474.68638322 -79.37870687 454.70579393 -79.40098953 434.78981781 C-79.40483068 433.49764894 -79.40867182 432.20548007 -79.41262937 430.87415457 C-79.41184921 429.44726144 -79.41097044 428.02036836 -79.41000366 426.59347534 C-79.4125887 425.07209781 -79.41560225 423.55072095 -79.41900706 422.02934504 C-79.42706421 417.851344 -79.42886592 413.67336015 -79.42960453 409.49535227 C-79.43145736 404.98798571 -79.43900593 400.48062802 -79.44573975 395.9732666 C-79.4593152 386.11762552 -79.46534677 376.26198852 -79.4697504 366.40633965 C-79.47251457 360.24954518 -79.47675228 354.09275227 -79.48125458 347.93595886 C-79.49344699 330.88196664 -79.50374586 313.82797567 -79.50712967 296.77397919 C-79.50734924 295.68269562 -79.5075688 294.59141205 -79.50779502 293.46705928 C-79.5080133 292.37319356 -79.50823158 291.27932783 -79.50845647 290.15231466 C-79.50889993 287.93580214 -79.50934649 285.71928962 -79.50979614 283.5027771 C-79.51001757 282.40331499 -79.510239 281.30385288 -79.51046714 280.17107373 C-79.51441308 262.36561378 -79.53186102 244.5601948 -79.55515566 226.75475067 C-79.57889142 208.46411077 -79.59133256 190.17349141 -79.59249759 171.88283587 C-79.59341318 161.61744995 -79.59913616 151.3521174 -79.6173172 141.08674622 C-79.63274831 132.3433255 -79.63782097 123.59997464 -79.6295791 114.85654289 C-79.62568304 110.39912762 -79.62655088 105.94185291 -79.64063644 101.48445511 C-79.65343841 97.3956791 -79.65212311 93.30714838 -79.64004573 89.2183724 C-79.63809955 87.74724677 -79.64111667 86.27610339 -79.64989009 84.80500263 C-79.78834946 59.99743883 -71.51108271 38.75346286 -54.07815552 21.04086304 C-39.07208575 7.13541735 -20.34135585 -0.06188738 0 0 Z " fill="#FFFFFF" transform="translate(105.26956176757813,-0.267425537109375)"/>
<path d="M0 0 C12.40803048 10.06643718 19.41502141 24.80835624 21.7578125 40.37890625 C23.22371677 55.82453177 19.50478283 72.74930647 9.48331451 84.92771721 C7.99805717 86.58741537 6.48026358 88.20907782 4.94433594 89.82202148 C4.34490047 90.45743331 3.74546501 91.09284513 3.12786484 91.74751186 C-6.52318228 101.90994209 -16.45783917 111.8014036 -26.3515625 121.7265625 C-27.45155825 122.83061946 -28.55152593 123.93470439 -29.65146637 125.03881645 C-34.81100397 130.2172786 -39.97286399 135.39341164 -45.1376636 140.56662565 C-51.05816106 146.49693695 -56.97023283 152.43548926 -62.87550139 158.38096434 C-67.47605371 163.01174514 -72.08432145 167.63475755 -76.69835877 172.25210184 C-79.43986093 174.99594057 -82.17803965 177.74290242 -84.90801239 180.49821663 C-87.4701135 183.08373199 -90.04173312 185.65939809 -92.62067223 188.22811508 C-94.00180616 189.60852487 -95.37307998 190.99877856 -96.74391174 192.38941956 C-103.79372165 199.38118364 -111.05441899 204.94421202 -120.78320312 207.54125977 C-122.55685242 208.02690147 -122.55685242 208.02690147 -124.36633301 208.52235413 C-125.61442749 208.84755539 -126.86252197 209.17275665 -128.1484375 209.5078125 C-129.48144581 209.86704512 -130.81408055 210.22766645 -132.1463623 210.58958435 C-135.63422757 211.53324036 -139.1266588 212.45869569 -142.6204834 213.38000488 C-146.11963288 214.3058773 -149.61436126 215.24811225 -153.109375 216.18945312 C-157.16130879 217.27991525 -161.21373688 218.36829889 -165.26931763 219.44512939 C-170.847452 220.92708085 -176.42157825 222.41467463 -181.97216797 223.99707031 C-183.21359558 224.35054787 -183.21359558 224.35054787 -184.48010254 224.71116638 C-185.92849441 225.12690312 -187.37540411 225.54786866 -188.82019043 225.97596741 C-195.66948426 227.94387716 -202.81603988 229.0152833 -209.640625 226.4921875 C-215.29039028 223.33125934 -219.18937702 218.53733769 -221.2421875 212.37890625 C-221.81087274 204.51999221 -220.03145172 198.05009488 -217.7421875 190.56640625 C-217.35178764 189.26639569 -216.96208455 187.96617573 -216.57299805 186.66577148 C-215.67534915 183.67616143 -214.768135 180.6896069 -213.85693359 177.70410156 C-212.32211588 172.66286664 -210.82599647 167.61051093 -209.33096313 162.55735779 C-207.93673688 157.85784423 -206.52662525 153.16318622 -205.11328125 148.46939087 C-204.41067778 146.12781815 -203.71319972 143.78470107 -203.02099609 141.44003296 C-202.03372606 138.10346432 -201.02522343 134.77399206 -200.01171875 131.4453125 C-199.57597282 129.94851456 -199.57597282 129.94851456 -199.13142395 128.42147827 C-198.84031235 127.4800296 -198.54920074 126.53858093 -198.24926758 125.56860352 C-198.00549881 124.75609634 -197.76173004 123.94358917 -197.51057434 123.10646057 C-193.51225796 114.50843292 -186.19993691 108.03325113 -179.59375 101.42407227 C-178.52161068 100.34429729 -177.44986982 99.26412655 -176.37849426 98.18359375 C-173.48417603 95.26745927 -170.58343122 92.35780394 -167.68073654 89.45000958 C-165.8614377 87.62705113 -164.04343994 85.80280503 -162.2258606 83.97813225 C-155.86737421 77.59519373 -149.50322427 71.21795921 -143.13427734 64.84545898 C-137.22625879 58.93381099 -131.33148788 53.0091759 -125.44264984 47.0784269 C-120.36340553 41.9643236 -115.27441836 36.86004885 -110.17806244 31.76299804 C-107.14463587 28.72878382 -104.11519883 25.69084587 -101.09576416 22.6427021 C-98.25043359 19.77092272 -95.39301396 16.91171354 -92.52649498 14.06108856 C-91.48628649 13.02267359 -90.45019785 11.98010935 -89.41898537 10.93276024 C-64.42981339 -14.42290446 -30.1499774 -21.79832861 0 0 Z M-55.2421875 36.37890625 C-53.63845602 40.38408021 -50.82104764 43.05601605 -47.796875 46.01953125 C-47.26699982 46.54657654 -46.73712463 47.07362183 -46.19119263 47.61663818 C-44.50450925 49.292163 -42.81099186 50.96058347 -41.1171875 52.62890625 C-39.96959362 53.76646476 -38.82245289 54.90448061 -37.67578125 56.04296875 C-34.86980613 58.8269409 -32.05768286 61.60456385 -29.2421875 64.37890625 C-28.11063627 63.45561483 -26.9855831 62.52435634 -25.86328125 61.58984375 C-25.23607178 61.07212402 -24.6088623 60.5544043 -23.96264648 60.02099609 C-20.20991017 56.43920179 -19.36041579 52.4429609 -18.8046875 47.44140625 C-19.05933998 41.95576745 -21.18643174 37.53277762 -24.9609375 33.578125 C-30.32649228 28.81505837 -34.40433115 28.07969254 -41.51953125 28.1640625 C-47.72765267 28.65394296 -51.17144299 31.9489784 -55.2421875 36.37890625 Z M-95.2421875 75.37890625 C-95.77732342 75.87068863 -96.31245934 76.36247101 -96.86381149 76.86915588 C-104.84924873 84.2230937 -112.7244173 91.68741788 -120.52725887 99.23472977 C-124.19023216 102.77429925 -127.87300567 106.28535665 -131.61791992 109.73828125 C-153.3297087 129.79939704 -165.09390232 146.97796551 -170.2421875 176.37890625 C-159.97380477 179.80170049 -143.23940608 173.13390362 -133.81222534 168.77522278 C-118.61510314 160.51853777 -106.56735962 145.34091825 -94.93023682 132.85223389 C-90.81487892 128.46633074 -86.62073645 124.15706538 -82.43359375 119.83984375 C-74.2930829 111.42411515 -66.24011307 102.93010676 -58.2421875 94.37890625 C-60.05952988 90.45375761 -62.60059235 87.74716279 -65.65234375 84.73828125 C-66.17984726 84.21123596 -66.70735077 83.68419067 -67.25083923 83.14117432 C-68.36220672 82.032819 -69.47599476 80.92688614 -70.59204102 79.82324219 C-72.30742534 78.12619768 -74.01458921 76.42120297 -75.72070312 74.71484375 C-76.80161101 73.63884822 -77.88297533 72.56331098 -78.96484375 71.48828125 C-79.73514671 70.71964752 -79.73514671 70.71964752 -80.52101135 69.93548584 C-86.82330392 63.71802552 -89.67011179 70.2546074 -95.2421875 75.37890625 Z " fill="#FFFFFF" transform="translate(464.2421875,284.62109375)"/>
<path d="M0 0 C0.89121671 -0.00438225 1.78243343 -0.00876451 2.70065671 -0.01327956 C5.69914699 -0.02667749 8.69760787 -0.03284866 11.69612122 -0.03897095 C13.84119297 -0.04687113 15.98626338 -0.05514003 18.1313324 -0.06375122 C25.18652577 -0.08998101 32.2417251 -0.10527981 39.29695129 -0.11953735 C41.72462277 -0.12489664 44.1522942 -0.13027414 46.57996559 -0.13566971 C56.67765253 -0.15729982 66.77533786 -0.17603692 76.87304211 -0.1872921 C91.34960988 -0.20353358 105.82590935 -0.23671502 120.30237597 -0.29369295 C130.47827351 -0.33238023 140.65409925 -0.35192338 150.83006841 -0.35721266 C156.90914442 -0.36086774 162.98793431 -0.37290614 169.06693077 -0.4053154 C174.7871147 -0.43537432 180.50683907 -0.44171534 186.22708511 -0.42993164 C188.32490692 -0.42971073 190.42274991 -0.43803041 192.52049828 -0.45558548 C195.38856689 -0.47827772 198.25496913 -0.46998158 201.12304688 -0.45410156 C202.36319975 -0.47492469 202.36319975 -0.47492469 203.62840623 -0.49616849 C209.68117913 -0.41380769 213.65064524 1.39608644 218.37898254 5.15390015 C223.46060572 10.50297718 224.86422582 15.33618256 224.69148254 22.59140015 C224.01318517 28.15343863 221.58171026 32.37018033 217.37898254 36.02890015 C211.96848195 39.86133807 208.25609619 40.4458794 201.63098145 40.42132568 C200.73820474 40.4258568 199.84542803 40.43038791 198.92559749 40.43505633 C195.92782913 40.44773756 192.93024159 40.44607755 189.93244934 40.44442749 C187.78560654 40.45041044 185.6387659 40.45721544 183.4919281 40.46478271 C177.65509277 40.4824743 171.81831606 40.48713945 165.98145652 40.48841429 C161.11066594 40.49031202 156.23988905 40.49766815 151.36910373 40.50475848 C139.87767934 40.52105226 128.3862863 40.52592655 116.89485168 40.52450562 C105.03762231 40.52330411 93.18057493 40.54440554 81.32339162 40.57599294 C71.14663164 40.60213846 60.96993116 40.61287362 50.79313785 40.6115948 C44.71360653 40.61108463 38.63423689 40.61679802 32.554739 40.6379509 C26.83621721 40.65730394 21.1180118 40.65747764 15.39947891 40.64291763 C13.30124894 40.64082476 11.20299933 40.6455588 9.10480309 40.65763855 C6.23880777 40.67306919 3.37390625 40.66379703 0.50793457 40.64837646 C-0.32106474 40.65866359 -1.15006405 40.66895072 -2.00418454 40.67954957 C-8.33934245 40.60430016 -12.52163408 38.92703264 -17.32804871 34.6265564 C-22.28057646 28.30902099 -23.57857395 23.09313434 -22.62101746 15.15390015 C-20.7957739 8.95681574 -16.93141077 4.71469752 -11.62101746 1.15390015 C-7.73536275 -0.14131809 -4.05025896 0.00240601 0 0 Z " fill="#FFFFFF" transform="translate(128.6210174560547,199.84609985351563)"/>
<path d="M0 0 C0.89121671 -0.00438225 1.78243343 -0.00876451 2.70065671 -0.01327956 C5.69914699 -0.02667749 8.69760787 -0.03284866 11.69612122 -0.03897095 C13.84119297 -0.04687113 15.98626338 -0.05514003 18.1313324 -0.06375122 C25.18652577 -0.08998101 32.2417251 -0.10527981 39.29695129 -0.11953735 C41.72462277 -0.12489664 44.1522942 -0.13027414 46.57996559 -0.13566971 C56.67765253 -0.15729982 66.77533786 -0.17603692 76.87304211 -0.1872921 C91.34960988 -0.20353358 105.82590935 -0.23671502 120.30237597 -0.29369295 C130.47827351 -0.33238023 140.65409925 -0.35192338 150.83006841 -0.35721266 C156.90914442 -0.36086774 162.98793431 -0.37290614 169.06693077 -0.4053154 C174.7871147 -0.43537432 180.50683907 -0.44171534 186.22708511 -0.42993164 C188.32490692 -0.42971073 190.42274991 -0.43803041 192.52049828 -0.45558548 C195.38856689 -0.47827772 198.25496913 -0.46998158 201.12304688 -0.45410156 C202.36319975 -0.47492469 202.36319975 -0.47492469 203.62840623 -0.49616849 C209.68117913 -0.41380769 213.65064524 1.39608644 218.37898254 5.15390015 C223.46060572 10.50297718 224.86422582 15.33618256 224.69148254 22.59140015 C224.01318517 28.15343863 221.58171026 32.37018033 217.37898254 36.02890015 C211.96848195 39.86133807 208.25609619 40.4458794 201.63098145 40.42132568 C200.73820474 40.4258568 199.84542803 40.43038791 198.92559749 40.43505633 C195.92782913 40.44773756 192.93024159 40.44607755 189.93244934 40.44442749 C187.78560654 40.45041044 185.6387659 40.45721544 183.4919281 40.46478271 C177.65509277 40.4824743 171.81831606 40.48713945 165.98145652 40.48841429 C161.11066594 40.49031202 156.23988905 40.49766815 151.36910373 40.50475848 C139.87767934 40.52105226 128.3862863 40.52592655 116.89485168 40.52450562 C105.03762231 40.52330411 93.18057493 40.54440554 81.32339162 40.57599294 C71.14663164 40.60213846 60.96993116 40.61287362 50.79313785 40.6115948 C44.71360653 40.61108463 38.63423689 40.61679802 32.554739 40.6379509 C26.83621721 40.65730394 21.1180118 40.65747764 15.39947891 40.64291763 C13.30124894 40.64082476 11.20299933 40.6455588 9.10480309 40.65763855 C6.23880777 40.67306919 3.37390625 40.66379703 0.50793457 40.64837646 C-0.32106474 40.65866359 -1.15006405 40.66895072 -2.00418454 40.67954957 C-8.33934245 40.60430016 -12.52163408 38.92703264 -17.32804871 34.6265564 C-22.28057646 28.30902099 -23.57857395 23.09313434 -22.62101746 15.15390015 C-20.7957739 8.95681574 -16.93141077 4.71469752 -11.62101746 1.15390015 C-7.73536275 -0.14131809 -4.05025896 0.00240601 0 0 Z " fill="#FFFFFF" transform="translate(128.6210174560547,119.84609985351563)"/>
<path d="M0 0 C1.15516113 -0.0071553 2.31032227 -0.01431061 3.50048828 -0.02168274 C4.76910706 -0.02437164 6.03772583 -0.02706055 7.3447876 -0.02983093 C8.69346288 -0.03609703 10.04213643 -0.04274396 11.39080811 -0.04974365 C15.82109376 -0.07077 20.2513797 -0.08114505 24.68170166 -0.09111023 C26.20796985 -0.09515839 27.73423786 -0.09927533 29.26050568 -0.10346031 C36.43180056 -0.12250926 43.60308516 -0.13674062 50.77440047 -0.14507228 C59.04687528 -0.15484245 67.31908236 -0.18115724 75.59146285 -0.22157317 C81.98903432 -0.25175461 88.38652912 -0.26654309 94.78417039 -0.26985329 C98.60352603 -0.27220159 102.42259555 -0.28113281 106.24187469 -0.30631447 C109.8370736 -0.32963586 113.43179882 -0.33381245 117.02705383 -0.32355309 C118.9687608 -0.32282355 120.91044393 -0.34188645 122.85205078 -0.36161804 C130.59335659 -0.31553407 135.27102 0.41047558 141.15435791 5.67451477 C146.10688566 11.99205017 147.40488315 17.20793682 146.44732666 25.14717102 C144.6220831 31.34425543 140.75771998 35.58637365 135.44732666 39.14717102 C132.33320985 40.18520996 130.16139842 40.2804622 126.89465332 40.29434204 C125.73949219 40.30149734 124.58433105 40.30865265 123.39416504 40.31602478 C122.12554626 40.31871368 120.85692749 40.32140259 119.54986572 40.32417297 C118.20119044 40.33043907 116.85251689 40.337086 115.50384521 40.34408569 C111.07355956 40.36511204 106.64327362 40.37548709 102.21295166 40.38545227 C100.68668347 40.38950043 99.16041546 40.39361737 97.63414764 40.39780235 C90.46285277 40.4168513 83.29156816 40.43108266 76.12025285 40.43941432 C67.84777804 40.44918449 59.57557096 40.47549928 51.30319047 40.51591522 C44.905619 40.54609665 38.5081242 40.56088513 32.11048293 40.56419533 C28.29112729 40.56654363 24.47205777 40.57547485 20.65277863 40.60065651 C17.05757972 40.6239779 13.4628545 40.62815449 9.86759949 40.61789513 C7.92589252 40.61716559 5.98420939 40.6362285 4.04260254 40.65596008 C-3.69870327 40.60987611 -8.37636668 39.88386646 -14.25970459 34.61982727 C-19.21223234 28.30229187 -20.51022983 23.08640522 -19.55267334 15.14717102 C-17.72742978 8.95008661 -13.86306666 4.7079684 -8.55267334 1.14717102 C-5.43855653 0.10913208 -3.2667451 0.01387984 0 0 Z " fill="#FFFFFF" transform="translate(125.55267333984375,279.8528289794922)"/>
</svg>
