<?xml version="1.0" encoding="UTF-8"?>
<svg version="1.1" xmlns="http://www.w3.org/2000/svg" width="512" height="512">
<path d="M0 0 C1.48442312 1.26468944 2.9643713 2.53467246 4.4375 3.8125 C5.448125 4.575625 6.45875 5.33875 7.5 6.125 C26.00615678 23.05616472 36.12873773 47.19601691 37.43359375 71.98828125 C37.47076548 108.37940488 16.62883223 140.64807219 0.99145508 172.36401367 C-4.62137019 183.75062894 -10.1877861 195.15571381 -15.64900208 206.6158905 C-19.62341171 214.95457667 -23.65896314 223.26242119 -27.71432495 231.5619812 C-29.74655345 235.7212823 -31.77579278 239.88204063 -33.8046875 244.04296875 C-34.20773605 244.86952469 -34.61078461 245.69608063 -35.02604675 246.54768372 C-39.44355421 255.61217444 -43.82623391 264.69339368 -48.19848633 273.77978516 C-50.94333302 279.48000026 -53.71390821 285.16336496 -56.5625 290.8125 C-57.2225 290.8125 -57.8825 290.8125 -58.5625 290.8125 C-65.15437691 277.73142339 -71.69606989 264.63471246 -77.98046875 251.40258789 C-82.54900677 241.80010817 -87.21165999 232.24417391 -91.875 222.6875 C-98.06238505 210.00502067 -104.23151261 197.31443222 -110.35473633 184.60083008 C-113.45840071 178.16001793 -116.57560148 171.72622298 -119.7109375 165.30078125 C-123.66510622 157.1968561 -127.6013265 149.0844059 -131.5223999 140.9644165 C-132.55153754 138.8351808 -133.58348293 136.70732307 -134.61572266 134.57958984 C-136.24712894 131.21260445 -137.8636158 127.83880724 -139.46972656 124.45968628 C-140.33722634 122.64166246 -141.21716615 120.82959037 -142.09765625 119.01782227 C-153.08398386 95.75020701 -155.7773427 68.03274567 -147.0859375 43.5546875 C-143.6896026 34.51674607 -139.39725514 26.54491382 -133.5625 18.8125 C-132.51255859 17.39517578 -132.51255859 17.39517578 -131.44140625 15.94921875 C-116.1568986 -3.74899699 -92.98501197 -15.49266859 -68.4921875 -18.78515625 C-44.11374491 -21.28115982 -19.33888221 -15.3207886 0 0 Z M-96.5625 41.8125 C-107.40253802 54.83300544 -109.83169782 68.34751144 -108.5625 84.8125 C-106.1142295 97.58547694 -98.49316613 109.7115489 -87.93359375 117.296875 C-74.7517793 125.72281241 -61.41708775 129.09272671 -45.98828125 126.125 C-31.1881304 121.92140686 -19.52607029 113.28788839 -11.92578125 99.9375 C-5.1442205 86.53858094 -4.01229123 72.94474377 -8.5703125 58.65234375 C-13.64387644 45.3636382 -23.25574646 34.56185234 -36.125 28.375 C-58.19915464 19.06568945 -80.13530555 24.46022463 -96.5625 41.8125 Z " fill="#FFFFFF" transform="translate(203.5625,221.1875)"/>
<path d="M0 0 C2.79872437 2.52788007 4.45773019 4.20411134 5 8 C-5.34743556 16.52938146 -5.34743556 16.52938146 -10.4375 20.375 C-28.07085545 34.04085047 -46.67500577 51.8625409 -49.9375 75 C-50.38400827 85.78196332 -47.404875 95.6503733 -43.5473938 105.60168457 C-42.53560125 108.2152614 -41.55498354 110.84020137 -40.57249451 113.46490479 C-40.07844734 114.78451093 -39.58314771 116.10364887 -39.08656311 117.42230225 C-22.35102119 161.89689311 -17.10810156 209.37417284 -37 254 C-55.55898333 294.85310796 -93.47863553 321.78971343 -134.3828125 337.296875 C-135.92103134 337.86686529 -137.46003671 338.43473971 -139 339 C-140.23492187 339.45890625 -141.46984375 339.9178125 -142.7421875 340.390625 C-170.8360585 350.27666424 -203.11057643 357 -233 357 C-231.58845226 352.43361254 -229.7585071 348.19497144 -227.6484375 343.91796875 C-227.15176071 342.89966728 -227.15176071 342.89966728 -226.64505005 341.86079407 C-225.55839634 339.63470146 -224.46664753 337.41114732 -223.375 335.1875 C-222.61221495 333.62650493 -221.84985136 332.06530385 -221.08789062 330.50390625 C-219.51159433 327.27449056 -217.93365787 324.04588459 -216.35449219 320.81787109 C-213.75424792 315.50018581 -211.16110812 310.17904603 -208.58354187 304.85032654 C-206.88619724 301.34231446 -205.17593737 297.84223436 -203.43188477 294.35717773 C-200.58379873 288.63128988 -197.87683309 283.03567021 -196.01953125 276.890625 C-192.92609642 267.15801209 -192.92609642 267.15801209 -189 264 C-180.88622296 260.77180723 -172.07342267 260.21907206 -163.45361328 259.39941406 C-158.94884568 258.87843288 -154.75215827 257.86736784 -150.4375 256.5 C-149.77258545 256.29044678 -149.1076709 256.08089355 -148.42260742 255.86499023 C-127.05610974 248.87177341 -106.93906658 237.72125801 -96.03515625 217.18261719 C-80.91246634 187.01315448 -85.07632139 154.89358742 -93.91503906 123.57568359 C-99.9993125 101.95884887 -98.80127344 82.09647365 -88.4375 61.96484375 C-83.93813153 54.44786998 -78.04609475 48.27237076 -72 42 C-71.42765625 41.36449219 -70.8553125 40.72898438 -70.265625 40.07421875 C-52.43116807 20.81484387 -24.26862718 8.67047901 0 0 Z " fill="#FFFFFF" transform="translate(399,153)"/>
<path d="M0 0 C10.7396349 7.12765007 19.46627045 16.58919336 22.828125 29.33203125 C23.46479104 33.49403816 23.66303582 37.5901591 23.73828125 41.796875 C23.77187744 42.94627563 23.77187744 42.94627563 23.80615234 44.11889648 C23.75080463 57.99806405 16.06934139 70.50193496 10.05078125 82.609375 C9.15583218 84.42382848 8.26171844 86.23869419 7.3684082 88.05395508 C5.55704447 91.73391566 3.74258414 95.4123246 1.92626953 99.08984375 C-2.25640683 107.57043015 -6.36260789 116.08805632 -10.4744873 124.6031189 C-14.81107092 133.57942788 -19.21945542 142.51623894 -23.69921875 151.421875 C-26.13983173 149.20457459 -27.55522334 147.07427808 -29.01171875 144.125 C-29.44097656 143.26205322 -29.87023437 142.39910645 -30.3125 141.51000977 C-30.99892578 140.10513306 -30.99892578 140.10513306 -31.69921875 138.671875 C-32.18777344 137.6830835 -32.67632812 136.69429199 -33.1796875 135.67553711 C-36.84571762 128.23097498 -40.43803431 120.75140362 -43.99438477 113.25390625 C-47.10668194 106.7060553 -50.27797053 100.1896504 -53.4765625 93.68359375 C-54.33404894 91.93614822 -55.19147028 90.18867074 -56.04882812 88.44116211 C-57.33128701 85.8274735 -58.61551938 83.21474624 -59.90600586 80.60501099 C-68.86604806 62.48254776 -76.54222842 46.15682507 -69.8125 25.73046875 C-67.97540522 20.8581739 -65.83888251 16.60809335 -62.69921875 12.421875 C-61.64734375 10.9678125 -61.64734375 10.9678125 -60.57421875 9.484375 C-45.91126286 -7.48910728 -19.11049172 -11.17313843 0 0 Z M-44.69921875 25.421875 C-49.83389165 32.57929783 -51.00565222 39.76542558 -49.69921875 48.421875 C-47.03502927 56.95432324 -42.05306162 61.80956928 -34.57421875 66.296875 C-28.6495746 68.53031873 -21.25907917 68.53255145 -15.2578125 66.66015625 C-13.27724936 65.70933562 -11.51009473 64.66226022 -9.69921875 63.421875 C-8.81234375 62.865 -7.92546875 62.308125 -7.01171875 61.734375 C-1.79633733 56.51899358 1.40023765 49.72486741 1.67578125 42.359375 C1.60599661 34.83260271 -1.34323323 29.45099923 -5.88671875 23.609375 C-12.5241525 18.44692653 -18.57841842 15.61435329 -27.09765625 16.0703125 C-34.29225582 17.04255568 -39.89786693 19.92129719 -44.69921875 25.421875 Z " fill="#FFFFFF" transform="translate(436.69921875,5.578125)"/>
</svg>
