<?xml version="1.0" encoding="UTF-8"?>
<svg version="1.1" xmlns="http://www.w3.org/2000/svg" width="512" height="512">
<path d="M0 0 C0.91297852 0.16628906 1.82595703 0.33257812 2.76660156 0.50390625 C44.3986228 8.16363077 83.16052206 26.40624883 116 53 C116.54446777 53.44005371 117.08893555 53.88010742 117.64990234 54.33349609 C131.72173929 65.81174863 144.93680647 78.57719064 156 93 C156.75925781 93.93070312 157.51851563 94.86140625 158.30078125 95.8203125 C184.1596216 128.07168914 200.62794761 167.52514646 208 208 C208.16371094 208.83563477 208.32742188 209.67126953 208.49609375 210.53222656 C213.78656862 238.24163521 213.41678597 270.35093304 208 298 C207.83371094 298.91297852 207.66742188 299.82595703 207.49609375 300.76660156 C199.83636923 342.3986228 181.59375117 381.16052206 155 414 C154.55994629 414.54446777 154.11989258 415.08893555 153.66650391 415.64990234 C142.18825137 429.72173929 129.42280936 442.93680647 115 454 C114.06929688 454.75925781 113.13859375 455.51851563 112.1796875 456.30078125 C79.92831086 482.1596216 40.47485354 498.62794761 0 506 C-0.83563477 506.16371094 -1.67126953 506.32742188 -2.53222656 506.49609375 C-30.24163521 511.78656862 -62.35093304 511.41678597 -90 506 C-90.91297852 505.83371094 -91.82595703 505.66742188 -92.76660156 505.49609375 C-134.3986228 497.83636923 -173.16052206 479.59375117 -206 453 C-206.54446777 452.55994629 -207.08893555 452.11989258 -207.64990234 451.66650391 C-221.72173929 440.18825137 -234.93680647 427.42280936 -246 413 C-246.75925781 412.06929688 -247.51851562 411.13859375 -248.30078125 410.1796875 C-274.1596216 377.92831086 -290.62794761 338.47485354 -298 298 C-298.16371094 297.16436523 -298.32742188 296.32873047 -298.49609375 295.46777344 C-303.78656862 267.75836479 -303.41678597 235.64906696 -298 208 C-297.83371094 207.08702148 -297.66742188 206.17404297 -297.49609375 205.23339844 C-289.83636923 163.6013772 -271.59375117 124.83947794 -245 92 C-244.55994629 91.45553223 -244.11989258 90.91106445 -243.66650391 90.35009766 C-232.18825137 76.27826071 -219.42280936 63.06319353 -205 52 C-204.06929688 51.24074219 -203.13859375 50.48148438 -202.1796875 49.69921875 C-169.92831086 23.8403784 -130.47485354 7.37205239 -90 0 C-89.16436523 -0.16371094 -88.32873047 -0.32742188 -87.46777344 -0.49609375 C-59.75836479 -5.78656862 -27.64906696 -5.41678597 0 0 Z M-198 84 C-198.845625 84.721875 -199.69125 85.44375 -200.5625 86.1875 C-204.79244696 89.84583251 -208.60821534 93.6290456 -212.2109375 97.90625 C-213.43041215 99.3334081 -214.68792852 100.72871479 -215.9765625 102.09375 C-246.06687873 134.04419487 -264.24734729 177.07349154 -271 220 C-271.19480957 221.23508301 -271.19480957 221.23508301 -271.39355469 222.49511719 C-274.51792796 243.473052 -273.67836953 265.02741 -271 286 C-261.68296865 283.04847328 -254.09942412 279.55351393 -246 274 C-240.57261781 270.51096859 -236.30870439 268.49096856 -229.75 269.5 C-226.55929119 270.5335122 -224.19019614 272.20548463 -221.5 274.1875 C-203.21121929 287.48843143 -180.38043904 292.18638287 -158.125 289.5390625 C-143.34333397 286.87710993 -130.33874142 281.62769367 -118.2421875 272.703125 C-114.53542287 270.02493904 -111.57417112 269.16336325 -107 269 C-102.4211014 270.22187941 -98.89182408 272.17044093 -94.9375 274.75 C-82.45034478 282.64494238 -67.99774115 289.38575804 -53 290 C-51.27910156 290.07734375 -51.27910156 290.07734375 -49.5234375 290.15625 C-28.65926783 290.78064648 -7.84388894 285.03735619 8.875 272.125 C12.46486755 269.68389006 14.67956179 269.07855342 19 269 C24.1805459 270.31534428 28.00539605 272.82016405 32.375 275.75 C52.37750622 288.64308381 75.89791314 293.0782269 99.25048828 288.4128418 C111.81832099 285.62155208 123.27092444 280.086577 133.75 272.6875 C137.57322895 270.12289156 140.26684022 268.83392422 145 269 C150.57824844 270.45601739 155.0928778 272.94048174 159.6875 276.375 C164.82063311 280.17155053 174.33923548 286 181 286 C188.7798613 225.0809075 174.09379516 163.75206922 136.42041016 114.80664062 C132.43516424 109.73774758 128.23779562 104.85796083 124 100 C123.278125 99.154375 122.55625 98.30875 121.8125 97.4375 C118.15416749 93.20755304 114.3709544 89.39178466 110.09375 85.7890625 C108.6665919 84.56958785 107.27128521 83.31207148 105.90625 82.0234375 C73.950982 51.92857894 30.92927298 33.7637038 -12 27 C-12.81807129 26.87012695 -13.63614258 26.74025391 -14.47900391 26.60644531 C-81.33375494 16.56768774 -147.85091658 40.25292723 -198 84 Z M-239.67260742 302.05908203 C-242.21211627 303.5753732 -244.6582711 305.21459918 -247.11083984 306.86669922 C-251.18957071 309.31351605 -255.83996249 310.4397203 -260.3671875 311.796875 C-263.11790527 312.68832244 -263.11790527 312.68832244 -263.73168945 314.82226562 C-264.03510723 317.28494678 -263.71864824 318.7066876 -262.92578125 321.046875 C-262.66990234 321.81 -262.41402344 322.573125 -262.15039062 323.359375 C-261.87388672 324.14828125 -261.59738281 324.9371875 -261.3125 325.75 C-261.05533203 326.5234375 -260.79816406 327.296875 -260.53320312 328.09375 C-258.75239678 333.30928112 -256.55751553 338.11898997 -254 343 C-250.13773814 341.13847207 -246.51578852 339.38409783 -243.0625 336.8125 C-239.00129465 334.40892948 -235.71595477 333.55883004 -231 334 C-225.75589447 335.79750787 -221.3057 338.7509529 -216.8125 341.9375 C-198.88760734 354.22523561 -175.03039679 357.31600814 -153.98388672 353.40966797 C-140.24910009 350.57346664 -128.30393759 344.77001546 -116.8125 336.78515625 C-112.86052038 334.27674697 -109.64104881 333.68900188 -105 334 C-100.98308011 335.18193322 -97.65457656 337.57416359 -94.171875 339.83984375 C-74.33880837 352.56524734 -51.46208578 357.93502235 -28.08740234 353.46142578 C-14.39392457 350.43444648 -2.35871124 344.84481312 9.1171875 336.8203125 C13.10882552 334.2998473 16.3176755 333.68623599 21 334 C25.04639745 335.19060666 28.40705265 337.621019 31.93359375 339.875 C52.41146347 352.85497024 76.08251713 358.31499619 100 353 C111.7960957 349.99290181 122.15530361 345.43954883 132.19140625 338.48046875 C136.95608035 335.24496599 141.13568997 333.47437643 147 334 C149.93587471 334.94902566 152.39720578 336.35988309 155 338 C155.75152344 338.45632813 156.50304687 338.91265625 157.27734375 339.3828125 C159.20070008 340.56589636 161.10587856 341.77083609 163 343 C165.47606721 340.7930516 166.64585048 338.89842347 167.7890625 335.796875 C168.09070313 334.98089844 168.39234375 334.16492188 168.703125 333.32421875 C169.00734375 332.47472656 169.3115625 331.62523437 169.625 330.75 C170.09292969 329.49896484 170.09292969 329.49896484 170.5703125 328.22265625 C172.3052536 323.45904642 173.49532754 319.04672461 174 314 C173.319375 313.731875 172.63875 313.46375 171.9375 313.1875 C164.88927979 310.33821949 158.11116701 307.14138144 151.34570312 303.6796875 C148.58572957 302.27103631 145.94501631 300.9816721 143 300 C140.51587223 301.24100403 140.51587223 301.24100403 137.8125 303.0625 C113.64885644 317.70093461 81.1052135 321.43211358 53.7265625 315.109375 C42.75205625 311.84233121 31.99066222 308.23196626 22.32421875 301.96875 C19.09254441 300.62176641 17.35533261 301.05501178 14 302 C11.59422909 303.17621705 9.27576181 304.39251322 6.9375 305.6875 C-16.81665057 318.22622316 -49.17024174 321.82541651 -75 314 C-75.70479492 313.79600586 -76.40958984 313.59201172 -77.13574219 313.38183594 C-86.51203446 310.63959976 -94.88164643 307.40706949 -103.203125 302.22265625 C-106.75706457 300.66904859 -108.30073687 300.89581189 -112 302 C-114.51466128 303.19320957 -116.93418187 304.42441452 -119.375 305.75 C-135.75264913 314.26683524 -152.39930718 317.39418083 -170.8125 317.3125 C-171.80570251 317.30926727 -171.80570251 317.30926727 -172.81896973 317.30596924 C-182.60583962 317.25485747 -191.58812459 316.84719975 -201 314 C-201.69416016 313.80132324 -202.38832031 313.60264648 -203.10351562 313.39794922 C-210.91460218 311.14084953 -218.00869896 308.78906217 -224.83618164 304.31396484 C-230.03826294 300.97305282 -233.62883708 298.99951555 -239.67260742 302.05908203 Z M-241 369 C-233.53887751 382.53078162 -224.26427164 394.49014087 -214 406 C-213.41863281 406.65226562 -212.83726562 407.30453125 -212.23828125 407.9765625 C-201.41211182 418.61184229 -182.82252978 419.4085785 -168.5402832 419.36645508 C-148.44376541 418.93836558 -130.98675284 412.06877402 -115 400 C-111.23774025 398.11887013 -107.09532841 398.46147058 -103 399 C-99.7356147 400.33876091 -96.96003924 402.19002164 -94.0625 404.1875 C-92.48294906 405.20697823 -90.90092842 406.2226406 -89.31640625 407.234375 C-88.56762207 407.71841797 -87.81883789 408.20246094 -87.04736328 408.70117188 C-69.00158636 420.14924404 -45.16950749 421.78840575 -24.625 417.5 C-13.71362097 414.91785346 -4.06192405 409.73825899 5.2277832 403.58129883 C10.28784203 400.25967432 14.3799804 397.72040686 20.5625 398.28515625 C24.49624554 399.43880278 27.55007788 401.60023046 30.89453125 403.92578125 C50.2391063 416.84649742 73.03263345 421.84589708 96.09765625 418.50390625 C99.47198952 417.83056128 102.70878149 417.00114652 106 416 C107.69382812 415.50693359 107.69382812 415.50693359 109.421875 415.00390625 C117.58793373 412.28502264 122.54310655 408.58065162 128 402 C128.42490723 401.49291504 128.84981445 400.98583008 129.28759766 400.46337891 C137.25274321 390.88743385 145.77016828 380.36428298 151 369 C148.31180732 366.7628112 148.31180732 366.7628112 145 365 C141.27429591 366.08038871 137.85134707 368.04484568 134.37988281 369.76708984 C104.67490472 384.34718111 71.93640862 385.97135719 40.61694336 375.56201172 C34.67865936 373.45192197 29.21095974 370.68559766 23.85693359 367.36450195 C20.42824458 365.31540132 20.42824458 365.31540132 16.56640625 365.54296875 C15.71949219 366.02378906 14.87257813 366.50460937 14 367 C12.80012135 367.59641986 11.5966447 368.18562896 10.390625 368.76953125 C9.72708008 369.09872559 9.06353516 369.42791992 8.37988281 369.76708984 C-21.32509528 384.34718111 -54.06359138 385.97135719 -85.38305664 375.56201172 C-91.32134064 373.45192197 -96.78904026 370.68559766 -102.14306641 367.36450195 C-105.57175542 365.31540132 -105.57175542 365.31540132 -109.43359375 365.54296875 C-110.28050781 366.02378906 -111.12742188 366.50460937 -112 367 C-113.19987865 367.59641986 -114.4033553 368.18562896 -115.609375 368.76953125 C-116.27291992 369.09872559 -116.93646484 369.42791992 -117.62011719 369.76708984 C-147.27630119 384.32323151 -180.10957927 386.04094078 -211.37646484 375.55761719 C-217.99429215 373.19047685 -224.06709837 370.02379747 -230.15625 366.5390625 C-235.09618571 363.86552587 -236.62328467 365.95532847 -241 369 Z M-114.0625 432.5625 C-128.45284499 441.53255256 -146.22984789 445.8794138 -163 447 C-144.92798656 466.88648722 -103.51824525 475.18111493 -78 479 C-77.31534668 479.10296387 -76.63069336 479.20592773 -75.92529297 479.31201172 C-27.10472625 486.33711259 21.25765879 475.7737258 64.5625 453.125 C65.29533203 452.7436792 66.02816406 452.3623584 66.78320312 451.96948242 C70.52754208 450.1630502 70.52754208 450.1630502 73 447 C72.09121094 446.90203125 71.18242187 446.8040625 70.24609375 446.703125 C54.25259295 444.80030849 36.94891726 441.23062423 23.375 432.0625 C20.3526058 429.78194602 20.3526058 429.78194602 17.8515625 430.1015625 C13.68741145 431.4135553 9.90257414 433.37125518 6 435.3125 C-22.67765914 449.14582875 -54.33623591 450.7576038 -84.48095703 440.55761719 C-90.3614776 438.42898105 -95.83509667 435.69335751 -101.23144531 432.5402832 C-106.32820194 429.5897187 -109.2146516 429.19276145 -114.0625 432.5625 Z " fill="#FFFFFF" transform="translate(301,3)"/>
<path d="M0 0 C12.65552425 10.26447748 22.6055206 24.23116562 24.43701172 40.81494141 C25.78149707 59.61705188 21.56090188 75.51578159 9.12451172 90.12744141 C-2.26806701 102.15615398 -16.81746178 108.65872018 -33.22314453 109.77587891 C-44.14318893 109.90359872 -53.84457692 107.73582953 -63.56298828 102.81494141 C-64.42537109 102.38310547 -65.28775391 101.95126953 -66.17626953 101.50634766 C-80.03074273 93.90039269 -89.59204025 80.82374112 -94.09033203 65.77978516 C-94.24630859 65.13138672 -94.40228516 64.48298828 -94.56298828 63.81494141 C-94.74474609 63.09564453 -94.92650391 62.37634766 -95.11376953 61.63525391 C-97.79292512 44.8148162 -94.8568602 29.11458604 -85.56298828 14.81494141 C-82.7738524 11.24228502 -79.78634684 7.99764499 -76.56298828 4.81494141 C-76.02287109 4.25291016 -75.48275391 3.69087891 -74.92626953 3.11181641 C-55.47950411 -15.50221599 -21.11808988 -16.01174762 0 0 Z M-51.56298828 21.81494141 C-52.18818359 22.16556641 -52.81337891 22.51619141 -53.45751953 22.87744141 C-60.50805275 27.30130539 -65.22807119 35.02360935 -67.08251953 43.06884766 C-68.17035163 51.64096462 -66.90491721 60.03666859 -61.81298828 67.18994141 C-60.76298804 68.42735001 -59.67976172 69.63744506 -58.56298828 70.81494141 C-58.04865234 71.36923828 -57.53431641 71.92353516 -57.00439453 72.49462891 C-51.19303944 78.09694245 -43.58795628 80.93219254 -35.56298828 81.31494141 C-25.97608382 80.81435937 -18.54306113 77.01736147 -11.73486328 70.35009766 C-5.21777452 62.74292031 -3.76813416 55.225034 -4.14892578 45.33447266 C-5.15450935 36.78701229 -9.32158664 30.61324151 -15.56298828 24.81494141 C-26.3310041 16.60875527 -39.69276725 14.72545772 -51.56298828 21.81494141 Z " fill="#FFFFFF" transform="translate(356.56298828125,97.18505859375)"/>
</svg>
