<?xml version="1.0" encoding="UTF-8"?>
<svg version="1.1" xmlns="http://www.w3.org/2000/svg" width="512" height="512">
<path d="M0 0 C9.62596135 7.40604888 9.62596135 7.40604888 19.4375 14.5625 C20.01838379 14.99135498 20.59926758 15.42020996 21.19775391 15.86206055 C30.13697733 22.09648674 40.26036183 23.87677138 50.9375 24.4375 C52.59676514 24.54795654 52.59676514 24.54795654 54.28955078 24.66064453 C59.02828135 24.97451629 63.76899079 25.24891747 68.51025391 25.52148438 C70.92314626 25.66282806 73.3356822 25.81040076 75.74780273 25.96435547 C78.01073426 26.10853946 80.27461842 26.23875754 82.53930664 26.35205078 C96.85580837 27.2667376 110.41455974 32.52534215 120.26171875 43.2890625 C130.40595426 56.01234094 133.0250822 71.23442924 136.59375 86.76171875 C136.89023437 88.03474854 137.18671875 89.30777832 137.4921875 90.61938477 C138.06500816 93.09680243 138.62319931 95.57766559 139.1640625 98.06225586 C144.28756334 120.39829458 159.31682851 133.08294913 175.70703125 147.74609375 C186.32984144 157.30620399 196.89462859 168.34485999 198.03613281 183.44384766 C198.33593255 199.7411009 195.62589167 210.36504996 188.16699219 224.80615234 C185.60600303 229.77423902 183.08224869 234.76090523 180.5625 239.75 C180.04695557 240.75627441 179.53141113 241.76254883 179.00024414 242.79931641 C171.67657669 257.2977035 169.94519779 269.34414722 172.00390625 285.359375 C172.2367446 287.27599112 172.46915295 289.19265951 172.70117188 291.109375 C173.06696867 294.08272792 173.43660627 297.05546599 173.81420898 300.02734375 C176.07749254 317.95504938 178.12277382 335.83150049 166.5 351.25 C165.31574029 352.62526934 164.10810603 353.98085202 162.875 355.3125 C162.32972656 355.93640625 161.78445313 356.5603125 161.22265625 357.203125 C152.44599337 366.70257188 140.04442839 371.01131853 128.375 375.875 C123.15366572 378.06316919 117.93742228 380.26212379 112.74023438 382.50714111 C111.13139448 383.20179564 109.51913468 383.88851976 107.90625 384.57373047 C95.99202892 390.01192083 89.02042237 399.24306181 82.25 410.125 C80.8416494 412.34016399 79.43279739 414.55500927 78.0234375 416.76953125 C76.99730347 418.39375 76.99730347 418.39375 75.95043945 420.05078125 C65.74466376 436.08997231 55.4383045 450.94752659 36.1328125 456.03515625 C19.90875163 459.28427189 5.67167007 454.57805502 -9.6875 449.8125 C-12.67951607 448.89896251 -15.67275778 447.98956578 -18.66648865 447.08166504 C-20.51532187 446.51939814 -22.36293761 445.95310726 -24.2091217 445.38220215 C-41.75491974 439.98482932 -55.52622657 443.68386033 -72.5848999 449.00758362 C-74.54914969 449.62008083 -76.51493909 450.22743342 -78.48095703 450.83422852 C-81.05797258 451.62972415 -83.62457288 452.44663475 -86.19091797 453.27709961 C-102.06141157 458.22436357 -116.99978313 459.11407042 -132.04370117 451.32080078 C-140.1887732 446.80971879 -146.06463654 441.12407904 -151.29296875 433.46484375 C-151.67602173 432.90505325 -152.05907471 432.34526276 -152.45373535 431.76850891 C-155.37987835 427.46980245 -158.22648684 423.12019905 -161.0625 418.76171875 C-162.32635153 416.82566968 -163.5903548 414.88971985 -164.85449219 412.95385742 C-165.70559267 411.64498787 -166.55256678 410.33342636 -167.39550781 409.01928711 C-180.4331182 388.7276868 -197.61083318 381.69422293 -219.26147461 372.86474609 C-228.06744798 369.26285128 -236.04690941 365.8693939 -243.125 359.3125 C-244.1140332 358.41591675 -244.1140332 358.41591675 -245.12304688 357.5012207 C-254.9628717 348.36757059 -259.23171644 336.62175735 -260.11572266 323.37768555 C-260.31362674 314.58816304 -258.79262969 305.76029322 -257.6875 297.0625 C-257.3196796 294.10445985 -256.95561112 291.14604771 -256.59739685 288.18682861 C-256.37540948 286.35953266 -256.1476683 284.53292241 -255.91297913 282.70721436 C-254.08746789 267.89780891 -256.63195228 256.38179606 -263.3125 243 C-263.7979126 242.00452148 -264.2833252 241.00904297 -264.78344727 239.98339844 C-267.58690987 234.2739582 -270.5132914 228.64387748 -273.5625 223.0625 C-281.45687312 208.5517363 -284.43326551 194.11920202 -281.4765625 177.71484375 C-277.17881 163.77469784 -267.89055464 154.34539852 -257.125 145.09375 C-254.33537363 142.60923902 -251.74630168 139.94474437 -249.12890625 137.28125 C-247.17443548 135.36106819 -245.15186061 133.58382691 -243.0625 131.8125 C-228.0155294 118.70897374 -224.4621489 103.08422256 -220.125 84.3125 C-215.20230994 63.00648209 -210.9074285 45.39366996 -191.38671875 32.8828125 C-182.05562582 28.39047794 -173.2231164 26.67940811 -162.9375 26.1875 C-160.47262853 26.03560546 -158.0077853 25.88325196 -155.54296875 25.73046875 C-151.90336785 25.52285805 -148.26353401 25.32013087 -144.62353516 25.11962891 C-121.49135833 23.79502568 -108.39311601 18.59548645 -90.125 4.3125 C-58.60353899 -20.21342954 -33.071346 -25.88381937 0 0 Z M-113.125 72.3125 C-113.75599609 72.61913574 -114.38699219 72.92577148 -115.03710938 73.24169922 C-152.90331548 91.85635558 -183.11304394 126.11059074 -196.81640625 166.08203125 C-210.95849072 210.22183566 -207.12771229 255.33217206 -186.03515625 296.42578125 C-166.75693833 332.8235501 -132.69182942 362.1821976 -93.28564453 374.67285156 C-48.63402869 387.891748 -4.13283128 383.9433036 37.00537109 362.15429688 C73.04099297 342.42953543 102.14305827 307.86078601 113.875 268.3125 C126.4597182 223.56683529 121.96824755 179.00689456 99.625 138.1875 C78.16674596 100.3921372 41.65690831 72.79958006 -0.10742188 61.26245117 C-37.87452602 51.45964583 -78.07988474 55.07197731 -113.125 72.3125 Z " fill="#FFFFFF" transform="translate(298.125,36.6875)"/>
<path d="M0 0 C3.30503384 2.94495986 6.48604041 6.00450268 9.62890625 9.12109375 C11.03269531 10.50554687 11.03269531 10.50554687 12.46484375 11.91796875 C40.46622113 40.96237738 52.14906554 79.5477215 51.77734375 119.140625 C51.05058746 157.10470542 34.14950889 192.45556978 7.62890625 219.12109375 C7.14695801 219.60707031 6.66500977 220.09304688 6.16845703 220.59375 C-21.72392652 248.32556107 -60.05657509 261.40935242 -98.86645508 261.36767578 C-139.30190794 260.9216179 -174.76503849 243.96325442 -203.55859375 216.24609375 C-231.27511026 187.76714879 -244.99695969 149.19592278 -244.72265625 109.8190918 C-243.89417737 70.61880836 -228.07578495 34.76152622 -200.37109375 7.12109375 C-199.45070312 6.18910156 -198.5303125 5.25710937 -197.58203125 4.296875 C-144.53485146 -46.92361127 -55.34688381 -47.99725413 0 0 Z M-49.37109375 59.12109375 C-50.30566406 60.02988281 -51.24023438 60.93867188 -52.203125 61.875 C-56.06350843 65.66096955 -59.83703242 69.47621839 -63.34326172 73.59545898 C-68.15921243 79.11325156 -73.36558303 84.2401979 -78.5546875 89.40234375 C-79.6210746 90.46686147 -80.68723794 91.53160337 -81.75318909 92.59655762 C-84.53414782 95.37373208 -87.31809819 98.147888 -90.10272217 100.92138672 C-92.95378855 103.76215013 -95.80196044 106.60581247 -98.65039062 109.44921875 C-104.22115893 115.00932205 -109.79509694 120.56623393 -115.37109375 126.12109375 C-120.2211391 122.1003953 -124.70998361 117.8639838 -129.08203125 113.33203125 C-130.33923458 112.04758055 -131.59706639 110.76374476 -132.85546875 109.48046875 C-134.80541262 107.48732371 -136.7512238 105.49077265 -138.68652344 103.48339844 C-140.5775129 101.52531863 -142.48445675 99.58397562 -144.39453125 97.64453125 C-144.9604599 97.04965912 -145.52638855 96.45478699 -146.10946655 95.84188843 C-151.15354903 90.76517587 -157.17673125 87.00801314 -164.49609375 86.68359375 C-171.93003376 87.52290956 -177.31878449 90.75465127 -182.37109375 96.12109375 C-185.80831323 101.50607094 -187.02245456 106.90768371 -185.68359375 113.18359375 C-184.1658336 119.42620725 -179.64962441 124.09456 -175.23876953 128.52807617 C-174.74063751 129.03131912 -174.24250549 129.53456207 -173.72927856 130.05305481 C-172.09674718 131.69937914 -170.45700286 133.338278 -168.81640625 134.9765625 C-167.67042534 136.12643503 -166.52466678 137.27652921 -165.37911987 138.42683411 C-162.98351276 140.82988056 -160.58409652 143.22904428 -158.18212891 145.62573242 C-155.11157157 148.6904878 -152.05254941 151.76647719 -148.99650764 154.84569836 C-146.63565017 157.22131553 -144.2678722 159.58993996 -141.89806747 161.9566288 C-140.76746283 163.08774518 -139.6392052 164.22121276 -138.51340103 165.35710716 C-136.93676957 166.94613365 -135.3508122 168.52525084 -133.76220703 170.10229492 C-132.86382111 171.00131027 -131.96543518 171.90032562 -131.03982544 172.82658386 C-125.72011151 177.4003431 -120.30705398 179.28651699 -113.37109375 179.12109375 C-103.29410483 177.33722 -96.04415634 167.94378041 -89.15429688 161.04956055 C-87.98676125 159.88706284 -87.98676125 159.88706284 -86.79563904 158.70108032 C-84.24524146 156.16011521 -81.69856837 153.61545874 -79.15234375 151.0703125 C-77.36697489 149.28816109 -75.5815326 147.50608323 -73.79602051 145.72407532 C-70.0622673 141.99629377 -66.33054741 138.2664872 -62.60009766 134.53540039 C-58.3103061 130.24500844 -54.01496923 125.96022475 -49.71698999 121.67803639 C-45.55534604 117.53112898 -41.39932986 113.37861839 -37.24534607 109.22403908 C-35.48962506 107.46949212 -33.73229618 105.71655248 -31.97328186 103.96530724 C-29.50666853 101.50857247 -27.04656791 99.04548433 -24.58789062 96.58081055 C-23.87181137 95.8703508 -23.15573212 95.15989105 -22.41795349 94.42790222 C-11.23141879 83.66813522 -11.23141879 83.66813522 -7.05859375 69.43359375 C-7.13370682 63.77279964 -7.79902018 59.60369587 -11.37109375 55.12109375 C-24.80690444 42.06416709 -37.69353522 47.51335619 -49.37109375 59.12109375 Z " fill="#FFFFFF" transform="translate(352.37109375,142.87890625)"/>
</svg>
