<?xml version="1.0" encoding="UTF-8"?>
<svg version="1.1" xmlns="http://www.w3.org/2000/svg" width="512" height="512">
<path d="M0 0 C0.66579401 -0.00465992 1.33158801 -0.00931984 2.01755759 -0.01412097 C4.26458544 -0.02614017 6.51101631 -0.01664942 8.75804996 -0.00736332 C10.37883867 -0.01153323 11.99962445 -0.01700885 13.62040478 -0.02368313 C18.0867805 -0.0382016 22.55297271 -0.03387316 27.01935875 -0.02651632 C31.8313063 -0.0218027 36.64321309 -0.03427843 41.45514774 -0.04453373 C50.88697125 -0.06176264 60.31872827 -0.06255328 69.75056344 -0.05732083 C77.41398566 -0.0532855 85.07738817 -0.05471508 92.74080944 -0.06006908 C93.82996505 -0.06081751 94.91912065 -0.06156593 96.04128097 -0.06233703 C98.25363445 -0.06386845 100.46598793 -0.06540679 102.6783414 -0.066952 C123.44288697 -0.08069184 144.20739491 -0.07522893 164.97193963 -0.06376678 C183.98390512 -0.05383275 202.99577332 -0.0667754 222.0077238 -0.09070098 C241.51186227 -0.11506172 261.01595537 -0.12470731 280.52010876 -0.11804825 C291.47716161 -0.1145493 302.4341396 -0.11683251 313.39118099 -0.13429928 C322.7187191 -0.1489835 332.04612964 -0.14970638 341.37366515 -0.13222837 C346.13566306 -0.12368472 350.89743273 -0.12165041 355.65941906 -0.13687992 C360.01493766 -0.15063742 364.37003055 -0.14608017 368.72552396 -0.12664068 C370.30490152 -0.1228527 371.88431247 -0.12588239 373.46366053 -0.13625234 C375.60394862 -0.14931094 377.74274291 -0.13794142 379.88296509 -0.12025452 C381.07366071 -0.12014718 382.26435633 -0.12003984 383.49113363 -0.11992925 C386.50440311 0.38031673 386.50440311 0.38031673 388.88678271 1.90395516 C391.14753101 5.36485995 391.05620187 8.50297489 391.00776768 12.50267315 C391.01358144 13.33219486 391.0193952 14.16171657 391.02538514 15.0163753 C391.04006012 17.81447323 391.02606509 20.61170422 391.01233768 23.40979671 C391.01694366 25.42870416 391.02329453 27.44760825 391.03124666 29.46650529 C391.04800529 35.02888477 391.0396639 40.59099112 391.02730179 46.15337181 C391.01828006 52.14671307 391.03220685 58.14000617 391.04322147 64.13333797 C391.06001235 75.20151145 391.0585116 86.26960946 391.0475756 97.33778348 C391.03752061 107.56436533 391.03488316 117.79091511 391.03966618 128.01750088 C391.03997172 128.69537484 391.04027726 129.37324881 391.04059206 130.07166441 C391.04183738 132.82329343 391.04311098 135.57492244 391.04443111 138.32655143 C391.05667413 164.15313019 391.04556317 189.97965326 391.02404352 215.80622343 C391.00506891 238.75282606 391.00675159 261.69933989 391.02588749 284.64594173 C391.04730828 310.41868905 391.05579733 336.1913871 391.04343843 361.96414208 C391.04215555 364.71205122 391.04090419 367.45996037 391.03966618 370.20786953 C391.03934987 370.88448788 391.03903356 371.56110623 391.03870766 372.25822817 C391.03415785 382.475744 391.03947891 392.69322423 391.04958439 402.91073513 C391.06102055 414.53170676 391.05777938 426.1525939 391.03646141 437.7735562 C391.02594038 443.70461601 391.02184718 449.63549554 391.03505802 455.56655407 C391.04696615 460.99484667 391.04044504 466.42279166 391.01914781 471.85105267 C391.014675 473.81606568 391.0169632 475.78110797 391.02665097 477.74610218 C391.03880554 480.41601821 391.02634931 483.08474199 391.00776768 485.75459576 C391.01713234 486.51856552 391.02649701 487.28253529 391.03614545 488.06965566 C390.93775926 495.13690211 388.27222125 501.20949752 383.19190311 506.19281673 C382.3933289 507.0068597 382.3933289 507.0068597 381.57862186 507.83734798 C376.48803056 511.62413436 371.7725911 512.7552776 365.51051998 512.75784016 C364.50388534 512.76438064 364.50388534 512.76438064 363.47691464 512.77105325 C361.23585897 512.7819718 358.99542343 512.77160383 356.7543726 512.76126766 C355.12829688 512.76472561 353.5022235 512.7694911 351.87615502 512.7754494 C347.41338288 512.78797094 342.95080325 512.78178366 338.48803043 512.77249074 C333.67257732 512.76570501 328.85715738 512.77617934 324.04171085 512.7844305 C314.6087477 512.79777691 305.17585613 512.79488551 295.74289016 512.78619258 C288.0734443 512.77941762 280.4040185 512.77849852 272.7345705 512.78176403 C271.09722171 512.78245358 271.09722171 512.78245358 269.42679516 512.78315706 C267.2092254 512.78411624 264.99165564 512.78508888 262.77408589 512.78607483 C241.97300352 512.79463201 221.17196078 512.7847907 200.37088491 512.76867373 C182.53483723 512.75528155 164.69884816 512.75758894 146.86280155 512.77143002 C126.14548405 512.78749951 105.42820136 512.79379612 84.71087849 512.78459322 C82.49962911 512.7836376 80.28837971 512.78269449 78.07713032 512.78176403 C76.44523624 512.78106979 76.44523624 512.78106979 74.78037461 512.78036153 C67.12601674 512.7777749 59.47168099 512.78213581 51.81732655 512.78920269 C42.48027665 512.79763359 33.14330238 512.79530463 23.80626111 512.77936046 C19.04518318 512.7714974 14.28423114 512.76835237 9.52315426 512.77830791 C5.15813465 512.78729686 0.79335673 512.78225326 -3.57164119 512.76637526 C-5.14432876 512.763045 -6.71703707 512.76468161 -8.28971113 512.77200262 C-20.82983756 512.82586518 -32.55968113 511.593914 -43.74559689 505.56781673 C-44.42324093 505.21308285 -45.10088497 504.85834896 -45.79906368 504.49286556 C-47.71119964 503.47753765 -49.60619704 502.43723459 -51.49559689 501.38031673 C-52.79690548 500.65328548 -52.79690548 500.65328548 -54.12450314 499.91156673 C-70.75237668 489.67902917 -81.4008601 472.18804676 -86.10497189 453.54047298 C-87.71702643 446.33358067 -87.98666086 439.29065786 -87.94164181 431.94745541 C-87.93297758 429.78808329 -87.96227459 427.63123639 -87.99364376 425.47211361 C-87.99525264 424.08604668 -87.99468425 422.69997511 -87.99169064 421.31391048 C-87.99354366 420.07697445 -87.99539669 418.84003841 -87.99730587 417.56561947 C-87.40618115 413.81262472 -86.45061613 412.6793541 -83.49559689 410.38031673 C-62.02727397 399.64615528 -35.49791159 409.38031673 -11.49559689 409.38031673 C-11.49559689 358.89031673 -11.49559689 308.40031673 -11.49559689 256.38031673 C-5.55559689 256.38031673 0.38440311 256.38031673 6.50440311 256.38031673 C6.50440311 306.87031673 6.50440311 357.36031673 6.50440311 409.38031673 C38.0355164 409.3281097 38.0355164 409.3281097 70.20362186 409.27484798 C83.48812781 409.25952683 96.77262835 409.24494331 110.05713749 409.23383236 C117.0332933 409.22795857 124.00944891 409.22189708 130.98560429 409.21552181 C132.29715969 409.21433494 132.29715969 409.21433494 133.63521117 409.2131241 C147.75876629 409.20006945 161.88228485 409.17641429 176.00581827 409.14885835 C190.49598914 409.12082245 204.98614085 409.10414432 219.47633773 409.09805125 C228.42050003 409.09393103 237.36455901 409.08090885 246.30868951 409.05656733 C252.43862962 409.04073255 258.56851617 409.03591124 264.69847526 409.0398126 C268.23730625 409.04173768 271.77595645 409.03874758 275.31475544 409.02270031 C279.14913144 409.00543939 282.98327063 409.01133985 286.81768131 409.01955318 C287.93927401 409.01081466 289.0608667 409.00207614 290.21644706 408.99307281 C291.75710718 409.00203253 291.75710718 409.00203253 293.32889175 409.01117325 C294.21401984 409.01003409 295.09914793 409.00889493 296.01109809 409.00772125 C299.11528116 409.47160537 300.97217253 410.54904977 303.50440311 412.38031673 C305.74978278 415.74838624 305.7638952 416.95700728 305.81299686 420.90375423 C305.8469556 422.54948421 305.8469556 422.54948421 305.88160038 424.22846127 C305.90150028 425.39232357 305.92140018 426.55618587 305.94190311 427.75531673 C306.48536392 445.64940193 309.68217218 463.40321043 322.74268436 476.78656673 C335.02253009 487.89560677 349.22551764 493.65955554 365.75440311 493.77875423 C368.43438709 493.58110285 368.43438709 493.58110285 370.15223056 492.33919829 C372.23970099 489.31509659 371.91886883 486.18621488 371.88916397 482.63977432 C371.89431388 481.83940041 371.89946378 481.0390265 371.90476975 480.21439883 C371.91847755 477.50964833 371.91067924 474.8053767 371.90313053 472.10060787 C371.90856526 470.15110895 371.91531482 468.20161332 371.92327243 466.25212306 C371.94137917 460.8773202 371.94073075 455.50265493 371.93714297 450.12782872 C371.93652135 444.33843835 371.9531182 438.54909506 371.96765995 432.75972652 C371.99049573 422.72336451 372.00233963 412.68703732 372.00678921 402.65065098 C372.01323839 388.13959908 372.03615401 373.62861026 372.0631325 359.11758371 C372.10671693 335.5763461 372.13641427 312.03510935 372.15796757 288.49384212 C372.17894051 265.6211075 372.20624019 242.74839462 372.24195194 219.87567806 C372.244188 218.43784227 372.24642387 217.00000648 372.24865955 215.56217068 C372.26600062 204.43035857 372.28374503 193.29854709 372.30158675 182.16673577 C372.38899673 127.57127627 372.44444213 72.97582661 372.50440311 18.38031673 C251.72440311 18.38031673 130.94440311 18.38031673 6.50440311 18.38031673 C6.50440311 57.65031673 6.50440311 96.92031673 6.50440311 137.38031673 C0.56440311 137.38031673 -5.37559689 137.38031673 -11.49559689 137.38031673 C-11.54189893 120.64716628 -11.57758825 103.91404226 -11.59922123 87.18084335 C-11.60953287 79.41129341 -11.62359105 71.64178401 -11.64647579 63.87226009 C-11.66641311 57.10017659 -11.67931414 50.32812246 -11.68377388 43.55601043 C-11.68638068 39.97038366 -11.69250545 36.3848409 -11.707057 32.79924107 C-11.72317148 28.79603636 -11.72357635 24.7929776 -11.72264767 20.78974056 C-11.72983822 19.60147167 -11.73702877 18.41320278 -11.74443722 17.18892574 C-11.74168789 16.09662655 -11.73893856 15.00432735 -11.73610592 13.87892818 C-11.7379495 12.93224679 -11.73979309 11.9855654 -11.74169254 11.01019669 C-11.40536709 7.41608384 -10.43896739 4.69173654 -8.32829243 1.75759673 C-5.59236503 -0.29846658 -3.39406804 0.00293393 0 0 Z M-69.49559689 427.38031673 C-69.49559689 447.92888993 -67.15849357 462.18783407 -52.81200314 477.16547298 C-39.2984057 490.08656867 -24.97698468 494.86838271 -6.4549017 494.74108028 C-5.06359817 494.74239105 -3.67229538 494.74502246 -2.2809965 494.74884778 C1.51377446 494.75551146 5.30828827 494.74361745 9.10302651 494.7285136 C13.20580214 494.71549754 17.30856453 494.71994662 21.41135502 494.72222042 C28.51029395 494.72378965 35.60914984 494.7144172 42.70806789 494.6975069 C52.9717617 494.6730738 63.23541556 494.66530723 73.49913529 494.66154293 C90.1533391 494.6549852 106.80749869 494.63504247 123.4616785 494.60663509 C139.63485335 494.57907695 155.80801616 494.55785196 171.98120975 494.54511166 C173.4778401 494.5439294 173.4778401 494.5439294 175.00470539 494.54272326 C180.01039221 494.53880801 185.01607911 494.53501692 190.02176607 494.53128755 C231.51600916 494.50021277 273.0102036 494.44739548 314.50440311 494.38031673 C313.71976688 493.59962826 312.93513065 492.81893978 312.12671757 492.01459408 C293.41128962 473.21378712 289.90574234 453.79504823 287.50440311 427.38031673 C169.69440311 427.38031673 51.88440311 427.38031673 -69.49559689 427.38031673 Z " fill="#FFFFFF" transform="translate(121.49559688568115,-0.38031673431396484)"/>
<path d="M0 0 C2.65593905 2.83281052 3.37549836 4.73565944 3.38311005 8.58559322 C3.39669501 9.96711383 3.39669501 9.96711383 3.41055441 11.37654394 C3.40256252 12.8889301 3.40256252 12.8889301 3.39440918 14.43186951 C3.40050028 15.50573365 3.40659139 16.57959779 3.41286707 17.68600327 C3.4295612 21.2965533 3.42471201 24.90675314 3.41992188 28.51733398 C3.42725843 31.10091521 3.43584345 33.68449314 3.44558716 36.26806641 C3.46665232 42.5644869 3.47118141 48.86081534 3.46939927 55.15726691 C3.46809225 60.27441738 3.47189274 65.3915391 3.47932434 70.50868416 C3.48142351 71.98201261 3.48352111 73.45534106 3.48561716 74.92866951 C3.48718245 76.02860168 3.48718245 76.02860168 3.48877937 77.1507547 C3.50768595 91.02232579 3.5066302 104.89384401 3.49981004 118.76542265 C3.49423363 131.4588982 3.51506334 144.15217197 3.54817051 156.84560036 C3.58189295 169.87594154 3.5970777 182.90618602 3.59245348 195.93657166 C3.59020739 203.25348338 3.59547216 210.57020858 3.62034607 217.88708305 C3.64353255 224.76621395 3.64079412 231.64491743 3.62041855 238.52405548 C3.61699601 241.05206438 3.62215065 243.58010124 3.63640213 246.10807228 C3.65448593 249.55292723 3.6419247 252.99633696 3.62145996 256.44114685 C3.63397781 257.44717357 3.64649566 258.45320028 3.65939283 259.48971266 C3.60394467 263.8278444 3.39038315 266.35079694 1.12345982 270.1206665 C-3.44203837 272.86765036 -7.35730989 272.68959348 -12.59681702 272.62818909 C-14.21607854 272.63883067 -14.21607854 272.63883067 -15.86805242 272.64968723 C-19.4919036 272.66731492 -23.11468904 272.64913689 -26.73852539 272.63110352 C-29.33372996 272.63624043 -31.92893104 272.64351998 -34.52412415 272.65278625 C-40.8448898 272.67116829 -47.16534638 272.66264727 -53.48610241 272.64469803 C-58.62231779 272.63067526 -63.75844924 272.62677852 -68.89468193 272.6301403 C-69.99097647 272.63085647 -69.99097647 272.63085647 -71.10941837 272.6315871 C-72.5941158 272.63261342 -74.0788132 272.63366878 -75.56351059 272.63475286 C-88.69254875 272.6433209 -101.82143762 272.62664096 -114.95043945 272.59692383 C-127.69366729 272.56808023 -140.43668011 272.5610055 -153.17993164 272.57641602 C-167.05408675 272.59317114 -180.92813977 272.59721991 -194.80229753 272.57970566 C-196.28124295 272.57786125 -197.76018839 272.57602652 -199.23913383 272.57420158 C-199.96682116 272.57328949 -200.69450848 272.5723774 -201.44424694 272.57143768 C-206.57557627 272.56582843 -211.70685581 272.569143 -216.83818245 272.57574654 C-223.7419289 272.58427825 -230.64535939 272.5713433 -237.5490551 272.54389763 C-240.08714754 272.5369936 -242.62526891 272.53693726 -245.1633606 272.54411316 C-248.61931299 272.55276035 -252.07429561 272.53693087 -255.53016663 272.5146637 C-257.0483892 272.52702485 -257.0483892 272.52702485 -258.59728295 272.53963572 C-265.35703026 272.45885712 -265.35703026 272.45885712 -268.59577084 270.14752102 C-270.45526508 267.3037523 -270.93191286 265.40435703 -271 262 C-269.16180615 257.64540301 -266.97376562 254.59833628 -263.6467762 251.26925278 C-262.30481782 249.91555954 -262.30481782 249.91555954 -260.93574917 248.53451896 C-259.94201352 247.54726873 -258.94813607 246.56016121 -257.95413208 245.57318115 C-256.89852155 244.51411279 -255.84356571 243.45439154 -254.78920829 242.39407563 C-251.89356606 239.48591139 -248.98864287 236.58717613 -246.082093 233.68991899 C-242.94779891 230.56240999 -239.82214668 227.42628465 -236.69537354 224.29125977 C-230.57030832 218.15284977 -224.43715404 212.02258389 -218.3010682 205.89519235 C-213.31521735 200.91611408 -208.33229924 195.9341185 -203.35146713 190.95001984 C-202.64282474 190.24091774 -201.93418235 189.53181565 -201.20406594 188.80122562 C-199.76454048 187.360741 -198.32502176 185.92024964 -196.88550971 184.47975162 C-183.38499973 170.97068571 -169.87530722 157.47083287 -156.3624631 143.9741061 C-144.76360603 132.38865528 -133.17264128 120.79535721 -121.58740234 109.19628906 C-108.13771687 95.73055635 -94.68318744 82.26969436 -81.22086799 68.8165915 C-79.7859605 67.38263967 -78.35105928 65.94868156 -76.9161644 64.5147171 C-76.21014069 63.80915622 -75.50411699 63.10359535 -74.77669863 62.37665384 C-69.79739642 57.39994387 -64.82158798 52.4197571 -59.84711075 47.43822479 C-53.78707306 41.36978156 -47.72173628 35.3066957 -41.64950074 29.25045702 C-38.55046482 26.15931606 -35.45389579 23.06580541 -32.36375809 19.96576691 C-29.53641741 17.12950449 -26.70227657 14.30022981 -23.86248945 11.47643092 C-22.83498171 10.45228163 -21.81000956 9.42558099 -20.78781475 8.39612886 C-19.40042475 6.99964476 -18.00291437 5.6132368 -16.60490608 4.22738266 C-15.83076367 3.4537273 -15.05662125 2.68007194 -14.25901997 1.88297248 C-9.28438143 -2.26356344 -5.98272405 -2.43740609 0 0 Z M-19.60572147 33.47988033 C-20.38450974 34.25606085 -21.163298 35.03224136 -21.9656859 35.8319425 C-22.83045453 36.69894185 -23.69522316 37.5659412 -24.5861969 38.45921326 C-25.4976835 39.36913987 -26.4091701 40.27906648 -27.34827751 41.21656662 C-29.89083624 43.75492602 -32.43023629 46.29642548 -34.96915233 48.83842766 C-37.70288658 51.57441335 -40.43948272 54.30753383 -43.17572021 57.04101562 C-48.5405273 62.40136326 -53.90261168 67.76442663 -59.26374263 73.12845068 C-63.61876966 77.48573106 -67.97476563 81.84204053 -72.33146477 86.197649 C-72.95023483 86.81626584 -73.5690049 87.43488267 -74.20652558 88.07224547 C-75.4633328 89.32873298 -76.72014227 90.58521824 -77.97695398 91.84170128 C-89.77720955 103.63910155 -101.57439137 115.4395717 -113.37053531 127.24108297 C-123.50432159 137.37933734 -133.640727 147.51496684 -143.77905273 157.64868164 C-155.53675056 169.40103459 -167.29283292 181.15499961 -179.04632133 192.9115625 C-180.29832911 194.16388885 -181.550339 195.4162131 -182.802351 196.66853523 C-183.7265034 197.59291905 -183.7265034 197.59291905 -184.66932555 198.53597729 C-189.02258505 202.8901022 -193.37700802 207.24306151 -197.73187447 211.59557915 C-203.03498864 216.89589609 -208.33633256 222.19797588 -213.63537664 227.50236207 C-216.34190641 230.21152989 -219.04924788 232.91987364 -221.75874138 235.62607765 C-224.68879378 238.55262642 -227.61499473 241.48299507 -230.54078674 244.4138031 C-231.40778609 245.27857173 -232.27478544 246.14334036 -233.1680575 247.0343141 C-233.94423802 247.81310236 -234.72041853 248.59189062 -235.52011967 249.39427853 C-236.19699866 250.07131988 -236.87387766 250.74836122 -237.57126814 251.44591898 C-239.11279902 252.77085726 -239.11279902 252.77085726 -239 254 C-232.73 254 -226.46 254 -220 254 C-220 248.39 -220 242.78 -220 237 C-214.06 237 -208.12 237 -202 237 C-202 242.61 -202 248.22 -202 254 C-196.39 254 -190.78 254 -185 254 C-185 248.39 -185 242.78 -185 237 C-179.06 237 -173.12 237 -167 237 C-167 242.61 -167 248.22 -167 254 C-161.72 254 -156.44 254 -151 254 C-151 248.39 -151 242.78 -151 237 C-145.06 237 -139.12 237 -133 237 C-133 242.61 -133 248.22 -133 254 C-127.72 254 -122.44 254 -117 254 C-117 248.39 -117 242.78 -117 237 C-111.06 237 -105.12 237 -99 237 C-99 242.61 -99 248.22 -99 254 C-93.72 254 -88.44 254 -83 254 C-83 248.39 -83 242.78 -83 237 C-77.06 237 -71.12 237 -65 237 C-65 242.61 -65 248.22 -65 254 C-59.72 254 -54.44 254 -49 254 C-49 248.39 -49 242.78 -49 237 C-43.39 237 -37.78 237 -32 237 C-32 231.39 -32 225.78 -32 220 C-26.39 220 -20.78 220 -15 220 C-15 214.72 -15 209.44 -15 204 C-20.61 204 -26.22 204 -32 204 C-32 198.06 -32 192.12 -32 186 C-26.39 186 -20.78 186 -15 186 C-15 180.72 -15 175.44 -15 170 C-20.61 170 -26.22 170 -32 170 C-32 164.06 -32 158.12 -32 152 C-26.39 152 -20.78 152 -15 152 C-15 146.72 -15 141.44 -15 136 C-20.61 136 -26.22 136 -32 136 C-32 130.06 -32 124.12 -32 118 C-26.39 118 -20.78 118 -15 118 C-15 112.72 -15 107.44 -15 102 C-20.61 102 -26.22 102 -32 102 C-32 96.06 -32 90.12 -32 84 C-26.39 84 -20.78 84 -15 84 C-15 78.72 -15 73.44 -15 68 C-20.61 68 -26.22 68 -32 68 C-32 62.06 -32 56.12 -32 50 C-26.39 50 -20.78 50 -15 50 C-15 43.4 -15 36.8 -15 30 C-16.93294111 30 -18.33296828 32.20743235 -19.60572147 33.47988033 Z M-31 238 C-31 243.28 -31 248.56 -31 254 C-25.72 254 -20.44 254 -15 254 C-15 248.72 -15 243.44 -15 238 C-20.28 238 -25.56 238 -31 238 Z " fill="#FFFFFF" transform="translate(458,95)"/>
<path d="M0 0 C1.00544703 -0.00367669 2.01089407 -0.00735338 3.0468092 -0.01114148 C6.41377969 -0.02214925 9.7807193 -0.02601715 13.14770508 -0.02983093 C15.56247047 -0.03609751 17.97723491 -0.04274448 20.39199829 -0.04974365 C27.63318655 -0.06894076 34.87437222 -0.07956429 42.11557817 -0.08847144 C45.52776715 -0.09286011 48.93995458 -0.09822514 52.35214233 -0.10346031 C63.6963926 -0.12046187 75.04064192 -0.13495804 86.38490295 -0.14220905 C89.32504274 -0.14411883 92.26518251 -0.14603919 95.20532227 -0.147995 C95.93604663 -0.14847874 96.66677099 -0.14896248 97.41963851 -0.14946087 C109.2683949 -0.15776906 121.1170506 -0.18312401 132.96576297 -0.21557567 C145.13621748 -0.2486366 157.30662075 -0.26665664 169.4771204 -0.26985329 C176.30832743 -0.27201852 183.1393873 -0.28076964 189.97055054 -0.30631447 C196.39245045 -0.3302743 202.81415717 -0.33385335 209.23609543 -0.32355309 C211.59437312 -0.32305619 213.95266362 -0.3294216 216.31090164 -0.34310913 C219.52741262 -0.3607359 222.74296192 -0.35376685 225.95947266 -0.34057617 C227.36287793 -0.35703004 227.36287793 -0.35703004 228.79463482 -0.37381631 C236.24208275 -0.29995061 240.3985555 2.33408204 245.65844727 7.55122375 C246.31222351 8.19546799 246.96599976 8.83971222 247.6395874 9.503479 C248.3241803 10.18898331 249.00877319 10.87448761 249.71411133 11.58076477 C250.43334778 12.29571609 251.15258423 13.01066742 251.89361572 13.74728394 C253.40549375 15.25344153 254.91478849 16.76219619 256.42163086 18.27339172 C258.72749676 20.58242837 261.04639942 22.87779336 263.36645508 25.17256165 C264.83731731 26.64115174 266.3073967 28.11052638 267.77661133 29.58076477 C268.46930115 30.26424484 269.16199097 30.94772491 269.87567139 31.6519165 C273.9519809 35.7678264 276.90778079 38.90917172 277.04223633 44.95967102 C275.2988649 50.1897853 271.59352521 54.06661005 267.30400467 57.48104382 C263.10867544 60.87390076 260.12136271 64.25292103 257.17059326 68.77810669 C250.74773187 77.81228906 243.70338853 85.26325923 232.45698547 87.45127487 C217.5163719 89.57233911 202.21980743 88.99211991 187.17481555 88.65559317 C180.23309181 88.50452424 173.29260929 88.48438755 166.34948131 88.46928106 C153.95887967 88.43861986 141.5717805 88.30298721 129.18286133 88.102005 C117.19259394 87.90766748 105.20386799 87.77335398 93.2121582 87.71235657 C92.47169739 87.70857554 91.73123658 87.70479451 90.96833757 87.70089891 C87.99091205 87.68586074 85.01348559 87.67103607 82.03605737 87.65654324 C69.17073872 87.59263061 56.30573167 87.48386969 43.44081438 87.36528733 C41.36847235 87.34637253 39.29612456 87.32823096 37.22377491 87.3101728 C29.35417642 87.24012211 21.48527076 87.14646293 13.61633682 87.0203495 C11.23766754 86.98480962 8.8588923 86.95567528 6.48006058 86.93353271 C3.22434157 86.9017059 -0.03008537 86.84552029 -3.28533936 86.78295898 C-4.21812832 86.7789216 -5.15091728 86.77488421 -6.11197257 86.77072448 C-18.75126235 86.45460037 -29.60006751 81.03501653 -38.27026367 71.95967102 C-47.8474328 60.70028456 -49.07385601 48.29972362 -48.02026367 34.14717102 C-46.19762188 24.30258353 -39.99692909 15.06618389 -32.27026367 8.77217102 C-22.19160571 1.90035878 -11.91085538 -0.00234706 0 0 Z M-23.22338867 25.29951477 C-28.25865305 30.4770801 -30.30533977 36.17949616 -30.52026367 43.33467102 C-30.12667619 51.23669666 -27.36150477 56.62341496 -22.01635742 62.34638977 C-14.37727307 69.2380099 -7.66846009 68.14717102 2.97973633 68.14717102 C2.97973633 51.64717102 2.97973633 35.14717102 2.97973633 18.14717102 C-7.72134056 18.14717102 -15.01207975 18.61550931 -23.22338867 25.29951477 Z M20.97973633 18.14717102 C20.97973633 34.64717102 20.97973633 51.14717102 20.97973633 68.14717102 C84.33973633 68.14717102 147.69973633 68.14717102 212.97973633 68.14717102 C211.5112274 57.99423492 211.5112274 57.99423492 208.97973633 52.14717102 C152.21973633 52.14717102 95.45973633 52.14717102 36.97973633 52.14717102 C36.97973633 46.20717102 36.97973633 40.26717102 36.97973633 34.14717102 C94.06973633 34.14717102 151.15973633 34.14717102 209.97973633 34.14717102 C213.14142674 23.56196217 213.14142674 23.56196217 212.97973633 18.14717102 C149.61973633 18.14717102 86.25973633 18.14717102 20.97973633 18.14717102 Z M230.97973633 21.14717102 C230.09934609 24.2862488 229.25546267 27.43409614 228.41723633 30.58467102 C228.04695313 31.90241516 228.04695313 31.90241516 227.66918945 33.2467804 C225.27979839 42.3668505 226.66575608 49.7495847 229.04223633 58.70967102 C229.32164062 59.79345032 229.32164062 59.79345032 229.60668945 60.89912415 C230.05887698 62.64990149 230.51849808 64.39875627 230.97973633 66.14717102 C234.64725638 64.60799092 236.96554205 62.3923165 239.74536133 59.57685852 C240.63481445 58.68096008 241.52426758 57.78506165 242.44067383 56.86201477 C243.82125977 55.45629211 243.82125977 55.45629211 245.22973633 54.02217102 C246.17458489 53.06728465 247.11989266 52.11285243 248.06567383 51.15888977 C250.37491971 48.82608015 252.67936835 46.48873016 254.97973633 44.14717102 C250.46521674 38.74536378 245.70437792 33.68886814 240.72973633 28.70967102 C240.01043945 27.97812805 239.29114258 27.24658508 238.55004883 26.49287415 C237.86168945 25.80258118 237.17333008 25.11228821 236.46411133 24.40107727 C235.84246094 23.77531799 235.22081055 23.14955872 234.58032227 22.50483704 C233.07534152 20.93154945 233.07534152 20.93154945 230.97973633 21.14717102 Z " fill="#FFFFFF" transform="translate(48.020263671875,152.8528289794922)"/>
<path d="M0 0 C2.45235786 0.81745262 3.6039684 1.43701754 5.09022522 3.54981995 C6.42237076 7.13751714 6.30326027 10.67517071 6.30639648 14.45288086 C6.31472 15.30374771 6.32304352 16.15461456 6.33161926 17.03126526 C6.35570484 19.84250468 6.36448888 22.65351211 6.37109375 25.46484375 C6.38006 27.42013112 6.38918185 29.37541778 6.39845276 31.33070374 C6.41494055 35.42873807 6.4226427 39.52669072 6.42553711 43.62475586 C6.43092578 48.87525411 6.46862679 54.12498478 6.51428127 59.37526608 C6.54402344 63.41332302 6.55126002 67.45119431 6.55226326 71.48935127 C6.55646993 73.42505986 6.56892208 75.36076878 6.58978081 77.29636955 C6.61664117 80.00406289 6.61188657 82.70996603 6.59936523 85.41772461 C6.61419952 86.21632904 6.62903381 87.01493347 6.64431763 87.83773804 C6.59420607 91.64365749 6.12814825 93.8076831 4.00367737 96.99595642 C0.10865179 99.59470457 -3.12746615 99.70383921 -7.65820312 99.64697266 C-8.51896957 99.65573425 -9.37973602 99.66449585 -10.2665863 99.67352295 C-13.10532382 99.69548812 -15.94249729 99.68097474 -18.78125 99.6640625 C-20.7575307 99.66743147 -22.73380939 99.67228476 -24.71008301 99.67855835 C-28.8494034 99.68592577 -32.98818384 99.67522826 -37.12744141 99.65185547 C-42.43070707 99.6233679 -47.73270757 99.63977256 -53.03592682 99.66971779 C-57.11608394 99.68779421 -61.1959416 99.68203112 -65.27610779 99.66907883 C-67.23131968 99.66574577 -69.18655885 99.66982835 -71.14173889 99.68147659 C-73.87582301 99.69419097 -76.60786473 99.67480089 -79.34179688 99.64697266 C-80.148181 99.65709381 -80.95456512 99.66721497 -81.78538513 99.67764282 C-85.83093192 99.60143961 -87.76531275 99.18288986 -90.9942627 96.66659546 C-93 94 -93 94 -93.75 90.6875 C-92.97642891 86.88410882 -92.4431171 86.01978912 -89.94831848 83.27281189 C-89.31206354 82.57170225 -88.6758086 81.87059261 -88.02027321 81.14823723 C-84.76511067 77.68689283 -81.44147994 74.30237042 -78.0769043 70.94750977 C-76.93902214 69.80699913 -76.93902214 69.80699913 -75.77815247 68.64344788 C-73.29599968 66.15693025 -70.81025082 63.67404489 -68.32421875 61.19140625 C-66.59008924 59.45660258 -64.85610816 57.72165054 -63.12226868 55.98655701 C-59.50199884 52.36481784 -55.8799386 48.74488146 -52.2565918 45.1262207 C-47.60472925 40.48008063 -42.95740474 35.82943123 -38.31138897 31.17744541 C-34.73854219 27.60099416 -31.16332837 24.02691682 -27.58738136 20.4535656 C-25.87176859 18.73862109 -24.15690159 17.02293018 -22.44278526 15.30648994 C-20.05630318 12.91748048 -17.66666034 10.53167921 -15.27612305 8.14672852 C-14.56495331 7.43353455 -13.85378357 6.72034058 -13.12106323 5.98553467 C-12.47212601 5.33941727 -11.82318878 4.69329987 -11.15458679 4.02760315 C-10.30819153 3.18177343 -10.30819153 3.18177343 -9.44469738 2.31885624 C-6.45000437 -0.41498243 -3.93849428 -0.23630966 0 0 Z M-17.51977539 36.39038086 C-17.9880928 36.85694595 -18.45641022 37.32351105 -18.93891907 37.80421448 C-20.49436618 39.35524144 -22.04610492 40.90992037 -23.59765625 42.46484375 C-24.67225224 43.53876675 -25.74699669 44.61254122 -26.82188416 45.68617249 C-29.07730579 47.94011693 -31.33090121 50.19586782 -33.58325195 52.45288086 C-36.47757979 55.35290599 -39.37637255 58.24841987 -42.27654362 61.14260006 C-44.49758875 63.36004016 -46.71625696 65.57984611 -48.93420219 67.80038643 C-50.0024405 68.86929417 -51.07142859 69.93745312 -52.14116096 71.00486565 C-53.63307358 72.49425268 -55.12176619 73.9867836 -56.60961914 75.48022461 C-57.45931778 76.33071884 -58.30901642 77.18121307 -59.1844635 78.05747986 C-61.11380403 79.67861981 -61.11380403 79.67861981 -61 81 C-44.83 81 -28.66 81 -12 81 C-12 64.83 -12 48.66 -12 32 C-14.10822977 32 -16.18217921 35.05403593 -17.51977539 36.39038086 Z " fill="#FFFFFF" transform="translate(404,217)"/>
<path d="M0 0 C73.59 0 147.18 0 223 0 C223 5.94 223 11.88 223 18 C149.41 18 75.82 18 0 18 C0 12.06 0 6.12 0 0 Z " fill="#FFFFFF" transform="translate(196,85)"/>
<path d="M0 0 C56.76 0 113.52 0 172 0 C172 5.94 172 11.88 172 18 C115.24 18 58.48 18 0 18 C0 12.06 0 6.12 0 0 Z " fill="#FFFFFF" transform="translate(221,51)"/>
<path d="M0 0 C17.16 0 34.32 0 52 0 C52 5.94 52 11.88 52 18 C34.84 18 17.68 18 0 18 C0 12.06 0 6.12 0 0 Z " fill="#FFFFFF" transform="translate(145,264)"/>
<path d="M0 0 C11.55 0 23.1 0 35 0 C35 5.94 35 11.88 35 18 C23.45 18 11.9 18 0 18 C0 12.06 0 6.12 0 0 Z " fill="#FFFFFF" transform="translate(145,298)"/>
</svg>
