<?xml version="1.0" encoding="UTF-8"?>
<svg version="1.1" xmlns="http://www.w3.org/2000/svg" width="512" height="512">
<path d="M0 0 C14.35546434 11.70990834 26.06794902 27.89121936 28.30664062 46.72021484 C29.76601625 68.44058871 26.97909464 88.67535502 12.32739258 105.62890625 C1.23642288 117.77717497 -10.87661704 125.32582353 -26.69335938 129.72021484 C-25.74828522 129.72568329 -25.74828522 129.72568329 -24.78411865 129.73126221 C-18.23021473 129.77305196 -11.67701343 129.84237283 -5.12353516 129.92773438 C-2.67731755 129.9559712 -0.23100825 129.97717215 2.21533203 129.99121094 C5.73062176 130.01260215 9.24480574 130.05923522 12.75976562 130.11083984 C13.85468323 130.11206848 14.94960083 130.11329712 16.07769775 130.11456299 C17.09845398 130.13428162 18.11921021 130.15400024 19.17089844 130.17431641 C20.06802551 130.18319885 20.96515259 130.1920813 21.88946533 130.20123291 C25.08582798 130.88751101 26.3000535 132.18770018 28.30664062 134.72021484 C28.76074219 137.74462891 28.76074219 137.74462891 28.69726562 141.23583984 C28.67792969 143.11142578 28.67792969 143.11142578 28.65820312 145.02490234 C28.60792969 146.97783203 28.60792969 146.97783203 28.55664062 148.97021484 C28.53859375 150.28763672 28.52054687 151.60505859 28.50195312 152.96240234 C28.45480333 156.21573792 28.38900106 159.46761109 28.30664062 162.72021484 C29.12648438 162.67380859 29.94632812 162.62740234 30.79101562 162.57958984 C31.86867188 162.54349609 32.94632812 162.50740234 34.05664062 162.47021484 C35.12398438 162.42380859 36.19132812 162.37740234 37.29101562 162.32958984 C40.30664062 162.72021484 40.30664062 162.72021484 42.6640625 164.17333984 C45.10061333 167.95129737 44.88030851 171.31044339 44.83789062 175.72021484 C44.84171753 176.59291016 44.84554443 177.46560547 44.8494873 178.36474609 C44.85220553 180.20720577 44.84485057 182.04970408 44.828125 183.89208984 C44.8067131 186.71067418 44.82792864 189.52670969 44.85351562 192.34521484 C44.85087233 194.13688713 44.84574732 195.92855783 44.83789062 197.72021484 C44.84598755 198.56197266 44.85408447 199.40373047 44.86242676 200.27099609 C44.80103034 204.10621245 44.76423773 206.09062518 42.46191406 209.25830078 C38.23331312 212.12654528 33.22485137 210.93405009 28.30664062 210.72021484 C28.30664062 216.00021484 28.30664062 221.28021484 28.30664062 226.72021484 C29.70398438 226.67380859 31.10132813 226.62740234 32.54101562 226.57958984 C34.37953592 226.54206902 36.21807932 226.50566919 38.05664062 226.47021484 C38.97703125 226.43669922 39.89742188 226.40318359 40.84570312 226.36865234 C41.73515625 226.35576172 42.62460937 226.34287109 43.54101562 226.32958984 C44.35795898 226.30864258 45.17490234 226.28769531 46.01660156 226.26611328 C49.31318107 226.91980602 50.28634742 228.03252995 52.30664062 230.72021484 C52.6993638 233.72738022 52.84705353 236.36772484 52.8145752 239.37451172 C52.82393514 240.69847584 52.82393514 240.69847584 52.83348417 242.04918671 C52.84946459 245.01271621 52.83679015 247.97542895 52.82421875 250.93896484 C52.82963762 253.06112143 52.83675895 255.18327425 52.84545898 257.30541992 C52.86372313 263.07395619 52.85661195 268.84220691 52.84394264 274.61074829 C52.83383103 280.64138572 52.8432032 286.67199835 52.8494873 292.70263672 C52.85676906 302.83093669 52.84716209 312.95912007 52.828125 323.08740234 C52.80635533 334.80497328 52.81340633 346.52226583 52.83543062 358.23983002 C52.85356951 368.29171892 52.85615032 378.34352391 52.84567595 388.39542389 C52.83943273 394.40274113 52.8386282 400.40992744 52.8518219 406.41723633 C52.86335772 412.06437237 52.85539594 417.71114875 52.83224487 423.35824585 C52.82694567 425.4335368 52.82849214 427.50885791 52.83729553 429.58413696 C52.8481867 432.41180904 52.83456528 435.23832035 52.8145752 438.06591797 C52.82349808 438.89198296 52.83242097 439.71804794 52.84161425 440.5691452 C52.79591298 443.88977779 52.69129758 446.17556265 50.74636328 448.92947811 C47.47254422 451.33243487 44.67623499 451.27611291 40.76771355 451.22637272 C40.00126086 451.23248608 39.23480816 451.23859944 38.44512963 451.24489805 C35.86153917 451.26057238 33.27887753 451.24760229 30.69528198 451.23487854 C28.83041652 451.24020058 26.96555535 451.24726429 25.1007024 451.2559256 C19.9640415 451.27462608 14.82766744 451.26822245 9.69099426 451.25777256 C4.15569005 451.25080125 -1.37955399 451.26676299 -6.9148407 451.2797699 C-17.7649548 451.30145209 -28.61496419 451.30127183 -39.46509285 451.29314435 C-48.28404962 451.28685195 -57.10297578 451.28797442 -65.92193222 451.29441643 C-67.8026464 451.29576891 -67.8026464 451.29576891 -69.7213548 451.29714872 C-72.26829237 451.29899988 -74.81522992 451.30086244 -77.36216746 451.30273627 C-94.47323555 451.31461395 -111.58429187 451.31900594 -128.69536018 451.30780125 C-129.36477963 451.30736328 -130.03419908 451.30692531 -130.72390397 451.30647406 C-136.16023651 451.30286715 -141.59656889 451.29903242 -147.03290126 451.29518313 C-168.22738561 451.28034364 -189.42174105 451.28910021 -210.61621094 451.31713867 C-234.42523225 451.34857567 -258.23417772 451.36346506 -282.04322708 451.35333866 C-284.58278202 451.35231609 -287.12233697 451.35132149 -289.66189194 451.35035515 C-290.91144682 451.34987876 -292.16100169 451.34940237 -293.44842187 451.34891154 C-302.25382796 451.34674683 -311.05917403 451.35655493 -319.8645668 451.37112617 C-330.60020981 451.38864327 -341.33567771 451.38854142 -352.07131381 451.36577452 C-357.54900849 451.3546251 -363.02639459 451.35148579 -368.504076 451.37007523 C-373.52052441 451.38688012 -378.53639514 451.38052835 -383.55280612 451.35585844 C-385.36577054 451.35097469 -387.17878155 451.35449207 -388.99170698 451.36734588 C-400.12156196 451.44055055 -408.60365188 450.72730768 -417.50585938 443.40771484 C-425.97625422 433.00122975 -428.14955155 423.14904353 -428.08103943 409.8608551 C-428.08642497 408.5982544 -428.0918105 407.33565369 -428.09735924 406.03479236 C-428.11173619 402.55546108 -428.10759366 399.07636823 -428.10019243 395.59702432 C-428.09544375 391.83483277 -428.10798553 388.07269154 -428.11820984 384.31051636 C-428.13536964 376.95009846 -428.13624377 369.58976605 -428.13099694 362.22933335 C-428.12694896 356.24472212 -428.12840623 350.26013608 -428.13374519 344.27552605 C-428.13449362 343.42247027 -428.13524204 342.5694145 -428.13601314 341.69050856 C-428.13754468 339.95731393 -428.13908302 338.22411932 -428.14062811 336.49092471 C-428.15434279 320.25280088 -428.14892258 304.01472528 -428.13744289 287.77660256 C-428.12751024 272.93424356 -428.14045356 258.09200922 -428.16437709 243.24966944 C-428.18878237 227.99298935 -428.19837253 212.73636729 -428.19172436 197.47966808 C-428.18823549 188.92078617 -428.19044231 180.36200012 -428.20797539 171.80313301 C-428.2227152 164.51774401 -428.22330955 157.23251839 -428.20590448 149.94713254 C-428.19740694 146.23328429 -428.1952141 142.51972769 -428.21055603 138.80589485 C-428.22701107 134.77254755 -428.21222248 130.7399004 -428.19456482 126.70655823 C-428.20416983 125.54311766 -428.21377483 124.37967709 -428.2236709 123.18098074 C-428.11885144 111.51699658 -424.7992508 102.21133676 -416.69335938 93.72021484 C-404.7419085 82.3109848 -391.95704496 82.13317023 -376.34179688 82.20263672 C-374.28907781 82.19720951 -372.23636264 82.1900835 -370.18365479 82.18139648 C-364.6340598 82.16323159 -359.08476378 82.17020245 -353.53516388 82.18291283 C-347.7133761 82.19307595 -341.89161305 82.18363797 -336.06982422 82.17736816 C-326.2952009 82.1701014 -316.52069867 82.17965401 -306.74609375 82.19873047 C-295.46306084 82.22049725 -284.1803171 82.2134452 -272.89729118 82.19142485 C-263.19079561 82.17324321 -253.48438683 82.17072605 -243.77787971 82.18117952 C-237.98897694 82.18739924 -232.20020985 82.188292 -226.41131592 82.17503357 C-220.9676136 82.16343548 -215.52428227 82.17157314 -210.08061981 82.1946106 C-208.08889124 82.19987655 -206.09713117 82.19842035 -204.10541534 82.18955994 C-189.46248906 82.13045002 -177.79845781 83.1189394 -166.69335938 93.72021484 C-157.94214373 102.88732985 -155.0629638 112.87386936 -155.23925781 125.34204102 C-155.23867371 126.44580078 -155.2380896 127.54956055 -155.23748779 128.68676758 C-155.24025049 132.295905 -155.27125732 135.90419238 -155.30273438 139.51318359 C-155.31020319 142.03094532 -155.31589309 144.5487129 -155.31988525 147.06648254 C-155.33354097 152.99134251 -155.36499095 158.91593466 -155.40528321 164.84065753 C-155.45460969 172.25683659 -155.47591251 179.67305404 -155.49804688 187.08935547 C-155.54082838 200.29982346 -155.61113705 213.5099334 -155.69335938 226.72021484 C-142.49335938 226.72021484 -129.29335938 226.72021484 -115.69335938 226.72021484 C-115.85136231 217.68506207 -115.85136231 217.68506207 -116.05371094 208.65087891 C-116.06370117 207.52391602 -116.07369141 206.39695313 -116.08398438 205.23583984 C-116.10493164 204.08374023 -116.12587891 202.93164062 -116.14746094 201.74462891 C-115.59626426 198.07354053 -114.63429538 196.91795402 -111.69335938 194.72021484 C-107.6274045 194.19353675 -103.81194055 194.5411461 -99.69335938 194.72021484 C-99.69335938 189.44021484 -99.69335938 184.16021484 -99.69335938 178.72021484 C-101.59085937 178.80271484 -103.48835938 178.88521484 -105.44335938 178.97021484 C-110.97050332 179.21052545 -110.97050332 179.21052545 -113.84863281 177.25830078 C-116.56686858 173.51838826 -116.26805412 170.23673879 -116.22460938 165.72021484 C-116.22843628 164.84751953 -116.23226318 163.97482422 -116.23620605 163.07568359 C-116.23892428 161.23322392 -116.23156932 159.3907256 -116.21484375 157.54833984 C-116.19343185 154.72975551 -116.21464739 151.91372 -116.24023438 149.09521484 C-116.23759108 147.30354256 -116.23246607 145.51187185 -116.22460938 143.72021484 C-116.2327063 142.87845703 -116.24080322 142.03669922 -116.24914551 141.16943359 C-116.23023254 139.98800781 -116.23023254 139.98800781 -116.2109375 138.78271484 C-116.20775513 138.09306641 -116.20457275 137.40341797 -116.20129395 136.69287109 C-115.44694287 133.76321156 -114.0549768 132.55719634 -111.69335938 130.72021484 C-109.27618408 130.20123291 -109.27618408 130.20123291 -106.55761719 130.17431641 C-105.53686096 130.15459778 -104.51610474 130.13487915 -103.4644165 130.11456299 C-101.8220401 130.11272003 -101.8220401 130.11272003 -100.14648438 130.11083984 C-99.02014587 130.09430359 -97.89380737 130.07776733 -96.7333374 130.06072998 C-93.13662312 130.01215354 -89.54033196 129.99085675 -85.94335938 129.97021484 C-83.50453589 129.94206337 -81.0657322 129.91213712 -78.62695312 129.88037109 C-72.6491656 129.80639191 -66.67149755 129.75480591 -60.69335938 129.72021484 C-61.48419922 129.46699463 -62.27503906 129.21377441 -63.08984375 128.95288086 C-81.79112005 122.86239953 -98.18100195 112.00874482 -107.63085938 94.18115234 C-116.72607638 76.08638378 -119.35103176 54.72377447 -113.07226562 35.16552734 C-105.39680414 15.98774539 -92.52562117 0.57475871 -73.3425293 -7.97265625 C-49.67027596 -18.01543039 -20.79092472 -15.71309507 0 0 Z M-82.69335938 18.72021484 C-94.43291957 30.77599214 -99.12793221 44.59822428 -99.05688477 61.06762695 C-98.80277101 73.37463862 -94.94922894 82.84417016 -87.69335938 92.72021484 C-87.19320313 93.42791016 -86.69304687 94.13560547 -86.17773438 94.86474609 C-78.54810568 104.63298283 -65.84051735 111.77305895 -53.69335938 113.72021484 C-37.00519443 115.27038505 -23.43272953 112.73665889 -9.69335938 102.72021484 C-9.05914062 102.28193359 -8.42492187 101.84365234 -7.77148438 101.39208984 C2.44374187 93.61352307 8.57059502 80.97815021 11.30664062 68.72021484 C12.72194438 52.05867343 10.35909609 38.40272367 0.30664062 24.72021484 C-0.19351563 24.01251953 -0.69367188 23.30482422 -1.20898438 22.57568359 C-10.20472483 11.05840983 -24.44575027 4.94263204 -38.56835938 2.84521484 C-55.60372578 1.73902222 -70.08658149 7.54196703 -82.69335938 18.72021484 Z M-405.94335938 108.15771484 C-412.26037137 115.90966168 -411.84060989 124.72126424 -411.82707214 134.28112793 C-411.8293377 135.45243964 -411.83160326 136.62375134 -411.83393747 137.83055735 C-411.83916682 141.07363657 -411.83992333 144.31668086 -411.83874309 147.55976295 C-411.83853876 151.0609845 -411.8440611 154.56219783 -411.84880066 158.06341553 C-411.85710199 164.92137023 -411.85985531 171.77931633 -411.86041304 178.63727564 C-411.86088864 184.21577065 -411.86294561 189.79426284 -411.86611366 195.37275696 C-411.87492044 211.20359841 -411.87953324 227.03443308 -411.87878319 242.86527699 C-411.87874323 243.71846117 -411.87870328 244.57164535 -411.87866211 245.45068359 C-411.87862123 246.30491529 -411.87858035 247.15914699 -411.87853823 248.0392645 C-411.87813221 261.86780348 -411.88769042 275.69631517 -411.90180048 289.52484626 C-411.91618836 303.73840172 -411.92306927 317.95194391 -411.9222067 332.16550684 C-411.92187546 340.13933622 -411.9245901 348.11313703 -411.93538475 356.08695984 C-411.94452174 362.87971077 -411.94663903 369.67242018 -411.93987533 376.46517462 C-411.9366256 379.92613517 -411.93649683 383.38701622 -411.94522858 386.84796906 C-413.57686533 410.08782819 -413.57686533 410.08782819 -405.69335938 430.72021484 C-400.77782958 435.31861369 -394.92487919 434.86695092 -388.52191162 434.85392761 C-387.70319556 434.85619317 -386.88447951 434.85845873 -386.04095387 434.86079293 C-383.29974914 434.86711896 -380.55859403 434.86630446 -377.81738281 434.86547852 C-375.85097693 434.86847091 -373.88457164 434.87187363 -371.91816711 434.87565613 C-366.57711701 434.88449298 -361.23608292 434.88683413 -355.89502621 434.88747191 C-352.55696127 434.88818269 -349.21890041 434.89031756 -345.88083649 434.89296913 C-334.2319157 434.90222209 -322.58300637 434.90630415 -310.93408203 434.90551758 C-300.08178469 434.90491706 -289.2295371 434.91546391 -278.37725234 434.93126124 C-269.0556419 434.94434605 -259.73404769 434.94970107 -250.41242814 434.94906217 C-244.84709567 434.94880742 -239.28180739 434.95164567 -233.71648407 434.96224022 C-228.47981222 434.97193677 -223.24322667 434.97198966 -218.00655174 434.96472359 C-216.08815828 434.96367963 -214.16975939 434.96602941 -212.2513752 434.97208405 C-209.6250634 434.97983384 -206.99904741 434.97513947 -204.3727417 434.967453 C-203.24406005 434.97516835 -203.24406005 434.97516835 -202.09257674 434.98303956 C-193.26366944 434.92625294 -185.50169004 433.56313782 -179.06445312 427.07958984 C-171.50565108 418.70115866 -171.54434877 409.96212203 -171.55964661 399.12565613 C-171.55624827 397.36339682 -171.55624827 397.36339682 -171.55278128 395.56553632 C-171.54755196 392.31280406 -171.5467954 389.06010662 -171.54797566 385.8073715 C-171.54817998 382.29602055 -171.54265789 378.7846778 -171.53791809 375.27333069 C-171.52961784 368.39700096 -171.52686353 361.5206798 -171.52630571 354.64434548 C-171.52583026 349.05388912 -171.52377402 343.46343559 -171.52060509 337.87298012 C-171.51180022 322.01681036 -171.50718545 306.16064737 -171.50793556 290.30447515 C-171.50797552 289.44997736 -171.50801547 288.59547956 -171.50805664 287.71508789 C-171.50811796 286.43177301 -171.50811796 286.43177301 -171.50818052 285.12253258 C-171.50858694 271.2582832 -171.49901792 257.39406098 -171.48491827 243.52981945 C-171.47054917 229.28803782 -171.46364838 215.04626944 -171.46451205 200.80448037 C-171.46484384 192.81124843 -171.46210485 184.81804497 -171.451334 176.82481956 C-171.44222197 170.01911646 -171.44005952 163.21345475 -171.44684342 156.40774819 C-171.45010508 152.93728089 -171.45017815 149.46689297 -171.44149017 145.99643326 C-171.43377766 142.22945944 -171.43841042 138.46269379 -171.44612122 134.69572449 C-171.43840587 133.06029726 -171.43840587 133.06029726 -171.43053466 131.3918311 C-171.47432408 121.70386459 -172.13414461 113.23972093 -179.33398438 106.09130859 C-186.66948751 99.47340903 -193.9482938 98.56574884 -203.64338684 98.58650208 C-204.81761461 98.58310374 -204.81761461 98.58310374 -206.01556414 98.57963675 C-208.62928774 98.57332476 -211.2429591 98.57412431 -213.85668945 98.57495117 C-215.73457404 98.57195793 -217.61245802 98.56855502 -219.49034119 98.56477356 C-224.5854723 98.55594606 -229.68058662 98.55359597 -234.77572465 98.55295777 C-237.96085869 98.55224655 -241.14598847 98.55011085 -244.33112144 98.54746056 C-255.44837083 98.53821119 -266.56560823 98.53412515 -277.68286133 98.53491211 C-288.03701188 98.53551276 -298.3911103 98.52496238 -308.74524766 98.50916845 C-317.64225344 98.496082 -326.53924221 98.49072868 -335.43625754 98.49136752 C-340.74671142 98.49162219 -346.05711897 98.48878824 -351.36756325 98.47818947 C-356.36376236 98.46848996 -361.35987103 98.46844204 -366.35607338 98.4757061 C-368.1857771 98.47674964 -370.01548652 98.47440277 -371.84518051 98.46834564 C-374.3510193 98.46058997 -376.85654851 98.46529398 -379.36238098 98.47297668 C-380.07913476 98.46783312 -380.79588854 98.46268956 -381.53436214 98.45739013 C-391.43502183 98.5240505 -399.1364566 100.61271418 -405.94335938 108.15771484 Z M-99.69335938 146.72021484 C-99.69335938 152.00021484 -99.69335938 157.28021484 -99.69335938 162.72021484 C-94.41335938 162.72021484 -89.13335937 162.72021484 -83.69335938 162.72021484 C-83.69335938 157.44021484 -83.69335938 152.16021484 -83.69335938 146.72021484 C-88.97335937 146.72021484 -94.25335938 146.72021484 -99.69335938 146.72021484 Z M-67.69335938 146.72021484 C-67.69335938 152.00021484 -67.69335938 157.28021484 -67.69335938 162.72021484 C-62.41335938 162.72021484 -57.13335937 162.72021484 -51.69335938 162.72021484 C-51.69335938 157.44021484 -51.69335938 152.16021484 -51.69335938 146.72021484 C-56.97335937 146.72021484 -62.25335938 146.72021484 -67.69335938 146.72021484 Z M-35.69335938 146.72021484 C-35.69335938 152.00021484 -35.69335938 157.28021484 -35.69335938 162.72021484 C-30.41335938 162.72021484 -25.13335937 162.72021484 -19.69335938 162.72021484 C-19.69335938 157.44021484 -19.69335938 152.16021484 -19.69335938 146.72021484 C-24.97335937 146.72021484 -30.25335938 146.72021484 -35.69335938 146.72021484 Z M-3.69335938 146.72021484 C-3.69335938 152.00021484 -3.69335938 157.28021484 -3.69335938 162.72021484 C1.58664062 162.72021484 6.86664063 162.72021484 12.30664062 162.72021484 C12.30664062 157.44021484 12.30664062 152.16021484 12.30664062 146.72021484 C7.02664063 146.72021484 1.74664062 146.72021484 -3.69335938 146.72021484 Z M-83.69335938 178.72021484 C-83.69335938 184.00021484 -83.69335938 189.28021484 -83.69335938 194.72021484 C-78.41335938 194.72021484 -73.13335937 194.72021484 -67.69335938 194.72021484 C-67.69335938 189.44021484 -67.69335938 184.16021484 -67.69335938 178.72021484 C-72.97335937 178.72021484 -78.25335938 178.72021484 -83.69335938 178.72021484 Z M-51.69335938 178.72021484 C-51.69335938 184.00021484 -51.69335938 189.28021484 -51.69335938 194.72021484 C-46.41335938 194.72021484 -41.13335937 194.72021484 -35.69335938 194.72021484 C-35.69335938 189.44021484 -35.69335938 184.16021484 -35.69335938 178.72021484 C-40.97335937 178.72021484 -46.25335938 178.72021484 -51.69335938 178.72021484 Z M-19.69335938 178.72021484 C-19.69335938 184.00021484 -19.69335938 189.28021484 -19.69335938 194.72021484 C-14.41335938 194.72021484 -9.13335937 194.72021484 -3.69335938 194.72021484 C-3.69335938 189.44021484 -3.69335938 184.16021484 -3.69335938 178.72021484 C-8.97335937 178.72021484 -14.25335938 178.72021484 -19.69335938 178.72021484 Z M12.30664062 178.72021484 C12.30664062 184.00021484 12.30664062 189.28021484 12.30664062 194.72021484 C17.58664062 194.72021484 22.86664063 194.72021484 28.30664062 194.72021484 C28.30664062 189.44021484 28.30664062 184.16021484 28.30664062 178.72021484 C23.02664063 178.72021484 17.74664062 178.72021484 12.30664062 178.72021484 Z M-99.69335938 210.72021484 C-99.69335938 216.00021484 -99.69335938 221.28021484 -99.69335938 226.72021484 C-94.41335938 226.72021484 -89.13335937 226.72021484 -83.69335938 226.72021484 C-83.69335938 221.44021484 -83.69335938 216.16021484 -83.69335938 210.72021484 C-88.97335937 210.72021484 -94.25335938 210.72021484 -99.69335938 210.72021484 Z M-67.69335938 210.72021484 C-67.69335938 216.00021484 -67.69335938 221.28021484 -67.69335938 226.72021484 C-62.41335938 226.72021484 -57.13335937 226.72021484 -51.69335938 226.72021484 C-51.69335938 221.44021484 -51.69335938 216.16021484 -51.69335938 210.72021484 C-56.97335937 210.72021484 -62.25335938 210.72021484 -67.69335938 210.72021484 Z M-35.69335938 210.72021484 C-35.69335938 216.00021484 -35.69335938 221.28021484 -35.69335938 226.72021484 C-30.41335938 226.72021484 -25.13335937 226.72021484 -19.69335938 226.72021484 C-19.69335938 221.44021484 -19.69335938 216.16021484 -19.69335938 210.72021484 C-24.97335937 210.72021484 -30.25335938 210.72021484 -35.69335938 210.72021484 Z M-3.69335938 210.72021484 C-3.69335938 216.00021484 -3.69335938 221.28021484 -3.69335938 226.72021484 C1.58664062 226.72021484 6.86664063 226.72021484 12.30664062 226.72021484 C12.30664062 221.44021484 12.30664062 216.16021484 12.30664062 210.72021484 C7.02664063 210.72021484 1.74664062 210.72021484 -3.69335938 210.72021484 Z M-155.69335938 242.72021484 C-155.69335938 248.00021484 -155.69335938 253.28021484 -155.69335938 258.72021484 C-153.94609055 258.72608109 -152.19882172 258.73194733 -150.39860535 258.73799133 C-133.96151084 258.7951138 -117.52455307 258.86764157 -101.08759594 258.95592976 C-92.63645358 259.00092615 -84.18535372 259.04033185 -75.73413086 259.06665039 C-68.36941998 259.08959945 -61.00484319 259.12296258 -53.64023858 259.1689164 C-49.73946494 259.19289059 -45.83882443 259.21159176 -41.93797874 259.21782875 C-38.26812507 259.22386079 -34.59861221 259.24379165 -30.92888451 259.27449036 C-28.93636407 259.28750944 -26.94376414 259.28569551 -24.95120239 259.28349304 C-23.17804405 259.30230026 -23.17804405 259.30230026 -21.36906433 259.32148743 C-20.33942157 259.32609639 -19.3097788 259.33070536 -18.24893475 259.33545399 C-15.69335938 259.72021484 -15.69335938 259.72021484 -13.88916492 261.06227398 C-12.0979887 263.54567461 -11.81117765 266.04227419 -11.25585938 269.03271484 C-9.42886333 277.4837427 -5.79259053 282.82012183 1.30664062 287.72021484 C5.94260702 289.86347569 10.79803042 290.82559987 15.75976562 291.93896484 C16.60023438 292.19677734 17.44070313 292.45458984 18.30664062 292.72021484 C19.91469482 295.93632324 19.46290271 299.44427108 19.46777344 302.9777832 C19.47273834 303.83157059 19.47770325 304.68535797 19.4828186 305.5650177 C19.49745503 308.39670611 19.50424414 311.22833853 19.50976562 314.06005859 C19.51551517 316.02299502 19.52127293 317.98593142 19.52703857 319.9488678 C19.53755231 324.06723289 19.54339276 328.18557844 19.546875 332.30395508 C19.55236526 337.58812239 19.57640306 342.87203274 19.60484695 348.15611935 C19.62344357 352.21123517 19.62867731 356.26628868 19.63021088 360.32144356 C19.63324389 362.26994802 19.64129414 364.21845122 19.65439606 366.16691399 C19.67139701 368.88922741 19.66959117 371.61090741 19.66308594 374.33325195 C19.67230072 375.14218903 19.6815155 375.9511261 19.69100952 376.78457642 C19.65024148 382.21391441 19.65024148 382.21391441 17.96722412 384.69386292 C15.44059983 386.25548612 12.90052039 386.61800649 9.99414062 387.15771484 C1.54311277 388.98471089 -3.79326636 392.62098369 -8.69335938 399.72021484 C-10.83662022 404.35618124 -11.7987444 409.21160464 -12.91210938 414.17333984 C-13.16992188 415.01380859 -13.42773438 415.85427734 -13.69335938 416.72021484 C-16.32581856 418.03644444 -18.29957201 417.85996752 -21.24880981 417.87843323 C-23.01990616 417.89311646 -23.01990616 417.89311646 -24.82678223 417.90809631 C-26.12869507 417.91385178 -27.43060791 417.91960724 -28.77197266 417.92553711 C-30.15156347 417.9351134 -31.53115133 417.94512333 -32.91073608 417.95553589 C-36.66254528 417.98261805 -40.41436709 418.00360965 -44.16622019 418.02353787 C-48.08470375 418.04537704 -52.00314826 418.07277583 -55.92160034 418.09959412 C-63.34469914 418.14954904 -70.76781957 418.19447746 -78.19096076 418.23761648 C-86.64069074 418.28696495 -95.09038153 418.34189193 -103.54007363 418.39729607 C-120.92446602 418.51115909 -138.30889475 418.6179887 -155.69335938 418.72021484 C-156.48647304 420.4487183 -157.27778527 422.17804838 -158.06835938 423.90771484 C-158.50921875 424.87064453 -158.95007813 425.83357422 -159.40429688 426.82568359 C-160.56405682 429.42987184 -161.63461324 432.0733495 -162.69335938 434.72021484 C-97.02335937 434.72021484 -31.35335937 434.72021484 36.30664062 434.72021484 C36.30664062 371.36021484 36.30664062 308.00021484 36.30664062 242.72021484 C-27.05335938 242.72021484 -90.41335938 242.72021484 -155.69335938 242.72021484 Z M-155.69335938 274.72021484 C-155.69335938 280.00021484 -155.69335938 285.28021484 -155.69335938 290.72021484 C-154.53320312 290.74599609 -153.37304688 290.77177734 -152.17773438 290.79833984 C-135.71368742 291.32476538 -123.05326847 294.68396054 -111.38085938 307.03271484 C-100.99643432 319.34717445 -99.44522325 333.19672136 -100.69335938 348.72021484 C-102.94479091 361.21768213 -110.57227497 371.30689201 -120.69335938 378.72021484 C-129.16027106 383.81592127 -137.32423198 385.96590935 -147.13085938 386.34521484 C-147.95779297 386.38388672 -148.78472656 386.42255859 -149.63671875 386.46240234 C-151.6552701 386.55574576 -153.67428269 386.63902446 -155.69335938 386.72021484 C-155.69335938 392.00021484 -155.69335938 397.28021484 -155.69335938 402.72021484 C-113.45335937 402.72021484 -71.21335937 402.72021484 -27.69335938 402.72021484 C-26.04335938 398.76021484 -24.39335937 394.80021484 -22.69335938 390.72021484 C-15.51013172 379.87494957 -7.77031174 375.55099579 4.30664062 370.72021484 C4.30664062 349.60021484 4.30664062 328.48021484 4.30664062 306.72021484 C0.34664062 305.07021484 -3.61335937 303.42021484 -7.69335938 301.72021484 C-18.53862465 294.53698719 -22.86257843 286.79716721 -27.69335938 274.72021484 C-69.93335938 274.72021484 -112.17335938 274.72021484 -155.69335938 274.72021484 Z M-155.69335938 308.72021484 C-155.79246498 310.58657272 -155.82135199 312.45669679 -155.82275391 314.32568359 C-155.82590607 315.52362549 -155.82905823 316.72156738 -155.83230591 317.95581055 C-155.83028168 319.25993896 -155.82825745 320.56406738 -155.82617188 321.90771484 C-155.82684498 323.249105 -155.82781505 324.59049503 -155.82907104 325.93188477 C-155.83054773 328.74643106 -155.82839441 331.56094566 -155.82373047 334.37548828 C-155.81803318 337.99062115 -155.82131234 341.60567979 -155.82730293 345.22080994 C-155.83090934 347.99166426 -155.82976959 350.76250087 -155.82717514 353.53335571 C-155.82617971 355.51711068 -155.82922678 357.50086632 -155.83230591 359.48461914 C-155.82915375 360.68256104 -155.82600159 361.88050293 -155.82275391 363.11474609 C-155.82195831 364.17540283 -155.82116272 365.23605957 -155.82034302 366.32885742 C-155.96308217 368.67336427 -155.96308217 368.67336427 -154.69335938 369.72021484 C-143.72124954 370.65108925 -135.07646452 369.49567613 -126.38085938 362.53271484 C-120.6135526 357.11564937 -117.06125248 350.50885624 -116.45507812 342.61865234 C-116.22294852 331.59860495 -118.02981988 323.63705431 -125.69335938 315.47802734 C-132.48951729 309.50484168 -138.99543669 307.57679946 -147.88085938 307.59521484 C-149.13253906 307.59263672 -150.38421875 307.59005859 -151.67382812 307.58740234 C-154.57263474 307.37437284 -154.57263474 307.37437284 -155.69335938 308.72021484 Z " fill="#FFFFFF" transform="translate(443.693359375,45.27978515625)"/>
<path d="M0 0 C0.768601 -0.00623996 1.537202 -0.01247993 2.32909393 -0.01890898 C4.89484172 -0.03481581 7.45963642 -0.02224428 10.02539062 -0.00964355 C11.86873935 -0.01506571 13.71208373 -0.0221889 15.55541992 -0.03088379 C20.55541624 -0.04910888 25.55508218 -0.04205293 30.55508423 -0.02936745 C35.789336 -0.0192356 41.02355961 -0.02863364 46.2578125 -0.03491211 C55.04757767 -0.04218796 63.83720837 -0.0326024 72.62695312 -0.0135498 C82.78698248 0.00821878 92.94669076 0.00116737 103.10671234 -0.02085543 C111.8321482 -0.03901115 120.55748745 -0.04156689 129.2829361 -0.03110075 C134.49328372 -0.02486679 139.70348045 -0.02402758 144.91381836 -0.0372467 C149.81245951 -0.04880703 154.71068696 -0.04077601 159.60928345 -0.01766968 C161.40637526 -0.01238358 163.20350192 -0.01389467 165.00057983 -0.02272034 C167.45528259 -0.03366361 169.90866261 -0.01992806 172.36328125 0 C173.07320976 -0.00892289 173.78313828 -0.01784577 174.51457977 -0.02703905 C179.51352044 0.0515946 182.31485199 1.40556353 186.18164062 4.50793457 C190.72446139 9.60013733 190.77055978 14.00767365 190.71289062 20.50793457 C190.71671753 21.46184082 190.72054443 22.41574707 190.7244873 23.39855957 C190.72720099 25.40898702 190.719878 27.4194501 190.703125 29.42980957 C190.68170771 32.49832244 190.70294529 35.56449409 190.72851562 38.63293457 C190.72587225 40.59127305 190.72074708 42.54961007 190.71289062 44.50793457 C190.72098755 45.42059082 190.72908447 46.33324707 190.73742676 47.27355957 C190.65608463 52.8287333 190.02363536 56.20131161 186.18164062 60.50793457 C181.60716627 64.17809038 178.09278459 65.08788162 172.36328125 65.01586914 C171.59468025 65.0221091 170.82607925 65.02834907 170.03418732 65.03477812 C167.46843953 65.05068495 164.90364483 65.03811342 162.33789062 65.0255127 C160.4945419 65.03093485 158.65119752 65.03805804 156.80786133 65.04675293 C151.80786501 65.06497802 146.80819907 65.05792207 141.80819702 65.04523659 C136.57394525 65.03510474 131.33972164 65.04450278 126.10546875 65.05078125 C117.31570358 65.0580571 108.52607288 65.04847154 99.73632812 65.02941895 C89.57629877 65.00765036 79.41659049 65.01470177 69.25656891 65.03672457 C60.53113305 65.05488029 51.8057938 65.05743603 43.08034515 65.04696989 C37.86999753 65.04073593 32.6598008 65.03989672 27.44946289 65.05311584 C22.55082174 65.06467617 17.65259429 65.05664515 12.7539978 65.03353882 C10.95690599 65.02825272 9.15977933 65.02976381 7.36270142 65.03858948 C4.90799866 65.04953275 2.45461864 65.0357972 0 65.01586914 C-0.70992851 65.02479203 -1.41985703 65.03371491 -2.15129852 65.04290819 C-7.15023919 64.96427454 -9.95157074 63.61030561 -13.81835938 60.50793457 C-18.36118014 55.41573181 -18.40727853 51.00819549 -18.34960938 44.50793457 C-18.35343628 43.55402832 -18.35726318 42.60012207 -18.36120605 41.61730957 C-18.36391974 39.60688212 -18.35659675 37.59641904 -18.33984375 35.58605957 C-18.31842646 32.5175467 -18.33966404 29.45137505 -18.36523438 26.38293457 C-18.362591 24.4245961 -18.35746583 22.46625907 -18.34960938 20.50793457 C-18.3577063 19.59527832 -18.36580322 18.68262207 -18.37414551 17.74230957 C-18.29280338 12.18713585 -17.66035411 8.81455753 -13.81835938 4.50793457 C-9.24388502 0.83777877 -5.72950334 -0.07201248 0 0 Z M-1.81835938 16.50793457 C-1.81835938 27.06793457 -1.81835938 37.62793457 -1.81835938 48.50793457 C56.26164063 48.50793457 114.34164063 48.50793457 174.18164062 48.50793457 C174.18164062 37.94793457 174.18164062 27.38793457 174.18164062 16.50793457 C116.10164062 16.50793457 58.02164062 16.50793457 -1.81835938 16.50793457 Z " fill="#FFFFFF" transform="translate(65.818359375,159.4920654296875)"/>
<path d="M0 0 C0.85247314 -0.00700928 1.70494629 -0.01401855 2.58325195 -0.02124023 C5.3995832 -0.03883756 8.21490864 -0.02719147 11.03125 -0.01367188 C12.98893425 -0.01636629 14.9466172 -0.02024829 16.90429688 -0.02526855 C21.00664007 -0.03116595 25.10863482 -0.02259281 29.2109375 -0.00390625 C34.47045628 0.01888337 39.72915864 0.00576159 44.98864746 -0.01819611 C49.0309871 -0.03264751 53.07313305 -0.0280511 57.11547852 -0.01768494 C59.05476986 -0.01501583 60.99407877 -0.01829385 62.93334961 -0.02760315 C65.6435405 -0.03775789 68.35240775 -0.02228315 71.0625 0 C71.86469971 -0.00809692 72.66689941 -0.01619385 73.4934082 -0.02453613 C76.77604666 0.02548775 79.15024807 0.30223893 82.02819824 1.92883301 C84.38165778 5.98225756 84.08802585 9.84729758 84.04882812 14.45507812 C84.0558374 15.4636084 84.06284668 16.47213867 84.07006836 17.51123047 C84.08768218 20.84695927 84.0760131 24.1818406 84.0625 27.51757812 C84.06519393 29.83398603 84.06907551 32.15039284 84.07409668 34.46679688 C84.07999634 39.32237511 84.07141338 44.17765908 84.05273438 49.03320312 C84.02994496 55.26122458 84.04306548 61.48855658 84.06702423 67.71655273 C84.08146932 72.50005297 84.07688205 77.2833894 84.06651306 82.06689453 C84.06384223 84.36344484 84.067128 86.66000995 84.07643127 88.95654297 C84.08657527 92.16478953 84.07112483 95.37191519 84.04882812 98.58007812 C84.05692505 99.53188965 84.06502197 100.48370117 84.07336426 101.46435547 C84.0243277 105.26749078 83.95859974 107.78154256 82.02819824 111.10632324 C78.43826878 113.13532224 75.07694984 113.0756757 71.0625 113.03515625 C70.21002686 113.04216553 69.35755371 113.0491748 68.47924805 113.05639648 C65.6629168 113.07399381 62.84759136 113.06234772 60.03125 113.04882812 C58.07356575 113.05152254 56.1158828 113.05540454 54.15820312 113.0604248 C50.05585993 113.0663222 45.95386518 113.05774906 41.8515625 113.0390625 C36.59204372 113.01627288 31.33334136 113.02939466 26.07385254 113.05335236 C22.0315129 113.06780376 17.98936695 113.06320735 13.94702148 113.05284119 C12.00773014 113.05017208 10.06842123 113.0534501 8.12915039 113.0627594 C5.4189595 113.07291414 2.71009225 113.0574394 0 113.03515625 C-1.20329956 113.04730164 -1.20329956 113.04730164 -2.4309082 113.05969238 C-5.71354666 113.0096685 -8.08774807 112.73291732 -10.96569824 111.10632324 C-13.31915778 107.05289869 -13.02552585 103.18785867 -12.98632812 98.58007812 C-12.9933374 97.57154785 -13.00034668 96.56301758 -13.00756836 95.52392578 C-13.02518218 92.18819698 -13.0135131 88.85331565 -13 85.51757812 C-13.00269393 83.20117022 -13.00657551 80.88476341 -13.01159668 78.56835938 C-13.01749634 73.71278114 -13.00891338 68.85749717 -12.99023438 64.00195312 C-12.96744496 57.77393167 -12.98056548 51.54659967 -13.00452423 45.31860352 C-13.01896932 40.53510328 -13.01438205 35.75176685 -13.00401306 30.96826172 C-13.00134223 28.67171141 -13.004628 26.3751463 -13.01393127 24.07861328 C-13.02407527 20.87036672 -13.00862483 17.66324106 -12.98632812 14.45507812 C-12.99442505 13.5032666 -13.00252197 12.55145508 -13.01086426 11.57080078 C-12.9618277 7.76766547 -12.89609974 5.25361369 -10.96569824 1.92883301 C-7.37576878 -0.10016599 -4.01444984 -0.04051945 0 0 Z M3.53125 16.51757812 C3.53125 42.91757812 3.53125 69.31757813 3.53125 96.51757812 C24.65125 96.51757812 45.77125 96.51757812 67.53125 96.51757812 C67.53125 70.11757813 67.53125 43.71757812 67.53125 16.51757812 C46.41125 16.51757812 25.29125 16.51757812 3.53125 16.51757812 Z " fill="#FFFFFF" transform="translate(172.46875,351.482421875)"/>
<path d="M0 0 C0.85247314 -0.00700928 1.70494629 -0.01401855 2.58325195 -0.02124023 C5.3995832 -0.03883756 8.21490864 -0.02719147 11.03125 -0.01367188 C12.98893425 -0.01636629 14.9466172 -0.02024829 16.90429688 -0.02526855 C21.00664007 -0.03116595 25.10863482 -0.02259281 29.2109375 -0.00390625 C34.47045628 0.01888337 39.72915864 0.00576159 44.98864746 -0.01819611 C49.0309871 -0.03264751 53.07313305 -0.0280511 57.11547852 -0.01768494 C59.05476986 -0.01501583 60.99407877 -0.01829385 62.93334961 -0.02760315 C65.6435405 -0.03775789 68.35240775 -0.02228315 71.0625 0 C71.86469971 -0.00809692 72.66689941 -0.01619385 73.4934082 -0.02453613 C76.77604666 0.02548775 79.15024807 0.30223893 82.02819824 1.92883301 C84.38165778 5.98225756 84.08802585 9.84729758 84.04882812 14.45507812 C84.0558374 15.4636084 84.06284668 16.47213867 84.07006836 17.51123047 C84.08768218 20.84695927 84.0760131 24.1818406 84.0625 27.51757812 C84.06519393 29.83398603 84.06907551 32.15039284 84.07409668 34.46679688 C84.07999634 39.32237511 84.07141338 44.17765908 84.05273438 49.03320312 C84.02994496 55.26122458 84.04306548 61.48855658 84.06702423 67.71655273 C84.08146932 72.50005297 84.07688205 77.2833894 84.06651306 82.06689453 C84.06384223 84.36344484 84.067128 86.66000995 84.07643127 88.95654297 C84.08657527 92.16478953 84.07112483 95.37191519 84.04882812 98.58007812 C84.05692505 99.53188965 84.06502197 100.48370117 84.07336426 101.46435547 C84.0243277 105.26749078 83.95859974 107.78154256 82.02819824 111.10632324 C78.43826878 113.13532224 75.07694984 113.0756757 71.0625 113.03515625 C70.21002686 113.04216553 69.35755371 113.0491748 68.47924805 113.05639648 C65.6629168 113.07399381 62.84759136 113.06234772 60.03125 113.04882812 C58.07356575 113.05152254 56.1158828 113.05540454 54.15820312 113.0604248 C50.05585993 113.0663222 45.95386518 113.05774906 41.8515625 113.0390625 C36.59204372 113.01627288 31.33334136 113.02939466 26.07385254 113.05335236 C22.0315129 113.06780376 17.98936695 113.06320735 13.94702148 113.05284119 C12.00773014 113.05017208 10.06842123 113.0534501 8.12915039 113.0627594 C5.4189595 113.07291414 2.71009225 113.0574394 0 113.03515625 C-1.20329956 113.04730164 -1.20329956 113.04730164 -2.4309082 113.05969238 C-5.71354666 113.0096685 -8.08774807 112.73291732 -10.96569824 111.10632324 C-13.31915778 107.05289869 -13.02552585 103.18785867 -12.98632812 98.58007812 C-12.9933374 97.57154785 -13.00034668 96.56301758 -13.00756836 95.52392578 C-13.02518218 92.18819698 -13.0135131 88.85331565 -13 85.51757812 C-13.00269393 83.20117022 -13.00657551 80.88476341 -13.01159668 78.56835938 C-13.01749634 73.71278114 -13.00891338 68.85749717 -12.99023438 64.00195312 C-12.96744496 57.77393167 -12.98056548 51.54659967 -13.00452423 45.31860352 C-13.01896932 40.53510328 -13.01438205 35.75176685 -13.00401306 30.96826172 C-13.00134223 28.67171141 -13.004628 26.3751463 -13.01393127 24.07861328 C-13.02407527 20.87036672 -13.00862483 17.66324106 -12.98632812 14.45507812 C-12.99442505 13.5032666 -13.00252197 12.55145508 -13.01086426 11.57080078 C-12.9618277 7.76766547 -12.89609974 5.25361369 -10.96569824 1.92883301 C-7.37576878 -0.10016599 -4.01444984 -0.04051945 0 0 Z M3.53125 16.51757812 C3.53125 42.91757812 3.53125 69.31757813 3.53125 96.51757812 C24.65125 96.51757812 45.77125 96.51757812 67.53125 96.51757812 C67.53125 70.11757813 67.53125 43.71757812 67.53125 16.51757812 C46.41125 16.51757812 25.29125 16.51757812 3.53125 16.51757812 Z " fill="#FFFFFF" transform="translate(60.46875,351.482421875)"/>
<path d="M0 0 C0.85247314 -0.00700928 1.70494629 -0.01401855 2.58325195 -0.02124023 C5.3995832 -0.03883756 8.21490864 -0.02719147 11.03125 -0.01367188 C12.98893425 -0.01636629 14.9466172 -0.02024829 16.90429688 -0.02526855 C21.00664007 -0.03116595 25.10863482 -0.02259281 29.2109375 -0.00390625 C34.47045628 0.01888337 39.72915864 0.00576159 44.98864746 -0.01819611 C49.0309871 -0.03264751 53.07313305 -0.0280511 57.11547852 -0.01768494 C59.05476986 -0.01501583 60.99407877 -0.01829385 62.93334961 -0.02760315 C65.6435405 -0.03775789 68.35240775 -0.02228315 71.0625 0 C71.86469971 -0.00809692 72.66689941 -0.01619385 73.4934082 -0.02453613 C76.83059518 0.02631901 79.14515119 0.28516382 82.02819824 2.02062988 C84.17992939 5.59519827 84.08972046 8.93493567 84.04882812 12.98632812 C84.0558374 13.83880127 84.06284668 14.69127441 84.07006836 15.56958008 C84.08766568 18.38591132 84.0760196 21.20123676 84.0625 24.01757812 C84.06519442 25.97526238 84.06907642 27.93294533 84.07409668 29.890625 C84.07999408 33.99296819 84.07142093 38.09496294 84.05273438 42.19726562 C84.02994475 47.45678441 84.04306653 52.71548676 84.06702423 57.97497559 C84.08147563 62.01731523 84.07687923 66.05946118 84.06651306 70.10180664 C84.06384396 72.04109799 84.06712197 73.9804069 84.07643127 75.91967773 C84.08658602 78.62986863 84.07111128 81.33873587 84.04882812 84.04882812 C84.05692505 84.85102783 84.06502197 85.65322754 84.07336426 86.47973633 C84.02250912 89.81692331 83.76366431 92.13147931 82.02819824 95.01452637 C78.45362985 97.16625751 75.11389246 97.07604858 71.0625 97.03515625 C70.21002686 97.04216553 69.35755371 97.0491748 68.47924805 97.05639648 C65.6629168 97.07399381 62.84759136 97.06234772 60.03125 97.04882812 C58.07356575 97.05152254 56.1158828 97.05540454 54.15820312 97.0604248 C50.05585993 97.0663222 45.95386518 97.05774906 41.8515625 97.0390625 C36.59204372 97.01627288 31.33334136 97.02939466 26.07385254 97.05335236 C22.0315129 97.06780376 17.98936695 97.06320735 13.94702148 97.05284119 C12.00773014 97.05017208 10.06842123 97.0534501 8.12915039 97.0627594 C5.4189595 97.07291414 2.71009225 97.0574394 0 97.03515625 C-1.20329956 97.04730164 -1.20329956 97.04730164 -2.4309082 97.05969238 C-5.76809518 97.00883724 -8.08265119 96.74999243 -10.96569824 95.01452637 C-13.11742939 91.43995798 -13.02722046 88.10022058 -12.98632812 84.04882812 C-12.9933374 83.19635498 -13.00034668 82.34388184 -13.00756836 81.46557617 C-13.02516568 78.64924493 -13.0135196 75.83391949 -13 73.01757812 C-13.00269442 71.05989387 -13.00657642 69.10221092 -13.01159668 67.14453125 C-13.01749408 63.04218806 -13.00892093 58.94019331 -12.99023438 54.83789062 C-12.96744475 49.57837184 -12.98056653 44.31966949 -13.00452423 39.06018066 C-13.01897563 35.01784102 -13.01437923 30.97569507 -13.00401306 26.93334961 C-13.00134396 24.99405826 -13.00462197 23.05474935 -13.01393127 21.11547852 C-13.02408602 18.40528762 -13.00861128 15.69642038 -12.98632812 12.98632812 C-12.99442505 12.18412842 -13.00252197 11.38192871 -13.01086426 10.55541992 C-12.96000912 7.21823294 -12.70116431 4.90367694 -10.96569824 2.02062988 C-7.39112985 -0.13110126 -4.05139246 -0.04089233 0 0 Z M3.53125 16.51757812 C3.53125 37.63757813 3.53125 58.75757813 3.53125 80.51757812 C24.65125 80.51757812 45.77125 80.51757812 67.53125 80.51757812 C67.53125 59.39757812 67.53125 38.27757812 67.53125 16.51757812 C46.41125 16.51757812 25.29125 16.51757812 3.53125 16.51757812 Z " fill="#FFFFFF" transform="translate(172.46875,239.482421875)"/>
<path d="M0 0 C0.85247314 -0.00700928 1.70494629 -0.01401855 2.58325195 -0.02124023 C5.3995832 -0.03883756 8.21490864 -0.02719147 11.03125 -0.01367188 C12.98893425 -0.01636629 14.9466172 -0.02024829 16.90429688 -0.02526855 C21.00664007 -0.03116595 25.10863482 -0.02259281 29.2109375 -0.00390625 C34.47045628 0.01888337 39.72915864 0.00576159 44.98864746 -0.01819611 C49.0309871 -0.03264751 53.07313305 -0.0280511 57.11547852 -0.01768494 C59.05476986 -0.01501583 60.99407877 -0.01829385 62.93334961 -0.02760315 C65.6435405 -0.03775789 68.35240775 -0.02228315 71.0625 0 C71.86469971 -0.00809692 72.66689941 -0.01619385 73.4934082 -0.02453613 C76.83059518 0.02631901 79.14515119 0.28516382 82.02819824 2.02062988 C84.17992939 5.59519827 84.08972046 8.93493567 84.04882812 12.98632812 C84.0558374 13.83880127 84.06284668 14.69127441 84.07006836 15.56958008 C84.08766568 18.38591132 84.0760196 21.20123676 84.0625 24.01757812 C84.06519442 25.97526238 84.06907642 27.93294533 84.07409668 29.890625 C84.07999408 33.99296819 84.07142093 38.09496294 84.05273438 42.19726562 C84.02994475 47.45678441 84.04306653 52.71548676 84.06702423 57.97497559 C84.08147563 62.01731523 84.07687923 66.05946118 84.06651306 70.10180664 C84.06384396 72.04109799 84.06712197 73.9804069 84.07643127 75.91967773 C84.08658602 78.62986863 84.07111128 81.33873587 84.04882812 84.04882812 C84.05692505 84.85102783 84.06502197 85.65322754 84.07336426 86.47973633 C84.02250912 89.81692331 83.76366431 92.13147931 82.02819824 95.01452637 C78.45362985 97.16625751 75.11389246 97.07604858 71.0625 97.03515625 C70.21002686 97.04216553 69.35755371 97.0491748 68.47924805 97.05639648 C65.6629168 97.07399381 62.84759136 97.06234772 60.03125 97.04882812 C58.07356575 97.05152254 56.1158828 97.05540454 54.15820312 97.0604248 C50.05585993 97.0663222 45.95386518 97.05774906 41.8515625 97.0390625 C36.59204372 97.01627288 31.33334136 97.02939466 26.07385254 97.05335236 C22.0315129 97.06780376 17.98936695 97.06320735 13.94702148 97.05284119 C12.00773014 97.05017208 10.06842123 97.0534501 8.12915039 97.0627594 C5.4189595 97.07291414 2.71009225 97.0574394 0 97.03515625 C-1.20329956 97.04730164 -1.20329956 97.04730164 -2.4309082 97.05969238 C-5.76809518 97.00883724 -8.08265119 96.74999243 -10.96569824 95.01452637 C-13.11742939 91.43995798 -13.02722046 88.10022058 -12.98632812 84.04882812 C-12.9933374 83.19635498 -13.00034668 82.34388184 -13.00756836 81.46557617 C-13.02516568 78.64924493 -13.0135196 75.83391949 -13 73.01757812 C-13.00269442 71.05989387 -13.00657642 69.10221092 -13.01159668 67.14453125 C-13.01749408 63.04218806 -13.00892093 58.94019331 -12.99023438 54.83789062 C-12.96744475 49.57837184 -12.98056653 44.31966949 -13.00452423 39.06018066 C-13.01897563 35.01784102 -13.01437923 30.97569507 -13.00401306 26.93334961 C-13.00134396 24.99405826 -13.00462197 23.05474935 -13.01393127 21.11547852 C-13.02408602 18.40528762 -13.00861128 15.69642038 -12.98632812 12.98632812 C-12.99442505 12.18412842 -13.00252197 11.38192871 -13.01086426 10.55541992 C-12.96000912 7.21823294 -12.70116431 4.90367694 -10.96569824 2.02062988 C-7.39112985 -0.13110126 -4.05139246 -0.04089233 0 0 Z M3.53125 16.51757812 C3.53125 37.63757813 3.53125 58.75757813 3.53125 80.51757812 C24.65125 80.51757812 45.77125 80.51757812 67.53125 80.51757812 C67.53125 59.39757812 67.53125 38.27757812 67.53125 16.51757812 C46.41125 16.51757812 25.29125 16.51757812 3.53125 16.51757812 Z " fill="#FFFFFF" transform="translate(60.46875,239.482421875)"/>
<path d="M0 0 C5.28 0 10.56 0 16 0 C16 2.97 16 5.94 16 9 C16.680625 9.20625 17.36125 9.4125 18.0625 9.625 C24.28637196 12.53830177 28.28024436 16.68617194 31.37109375 22.77734375 C32 25 32 25 32 32 C26.39 32 20.78 32 15 32 C14.34 30.35 13.68 28.7 13 27 C10.20129973 25.60064987 8.09501208 25.74734595 5 26 C3 27 3 27 2 29 C1.47520392 33.03378207 1.47520392 33.03378207 3.12890625 36.59765625 C5.72655804 38.54453933 8.13437031 38.84732828 11.3125 39.4375 C19.76352785 41.26449604 25.09990698 44.90076885 30 52 C33.22307561 58.44615122 33.12671819 66.535914 31.3828125 73.4453125 C29.02324135 78.77000846 24.78686321 82.77447694 20 86 C18.02 86.495 18.02 86.495 16 87 C16 89.97 16 92.94 16 96 C10.72 96 5.44 96 0 96 C0 93.03 0 90.06 0 87 C-1.0209375 86.690625 -1.0209375 86.690625 -2.0625 86.375 C-8.28637196 83.46169823 -12.28024436 79.31382806 -15.37109375 73.22265625 C-16 71 -16 71 -16 64 C-10.39 64 -4.78 64 1 64 C1.66 65.65 2.32 67.3 3 69 C5.79870027 70.39935013 7.90498792 70.25265405 11 70 C13 69 13 69 14 67 C14.52479608 62.96621793 14.52479608 62.96621793 12.87109375 59.40234375 C10.27344196 57.45546067 7.86562969 57.15267172 4.6875 56.5625 C-3.76352785 54.73550396 -9.09990698 51.09923115 -14 44 C-17.22307561 37.55384878 -17.12671819 29.464086 -15.3828125 22.5546875 C-13.02324135 17.22999154 -8.78686321 13.22552306 -4 10 C-2.68 9.67 -1.36 9.34 0 9 C0 6.03 0 3.06 0 0 Z " fill="#FFFFFF" transform="translate(392,56)"/>
<path d="M0 0 C3.58806317 3.38872633 6.45684799 6.76141332 9 11 C9 11.66 9 12.32 9 13 C9.66 13 10.32 13 11 13 C11.309375 12.01 11.309375 12.01 11.625 11 C13.51152871 6.88393737 16.20567979 3.5412297 19 0 C24.00099548 2.65848126 28.7045025 5.25876024 33 9 C31.28939138 14.06566973 28.23912537 18.00262997 25.01367188 22.18359375 C23.24089475 24.61010028 22.02244173 26.36857119 21.9140625 29.41796875 C23.50746359 33.20659509 25.72133352 36.44727445 28.0625 39.8125 C28.77116211 40.85180664 28.77116211 40.85180664 29.49414062 41.91210938 C30.6554826 43.6130648 31.8267678 45.30722395 33 47 C31.49392117 51.10088936 29.03811122 52.53509554 25.375 54.75 C24.37210938 55.36359375 23.36921875 55.9771875 22.3359375 56.609375 C21.17964844 57.29773438 21.17964844 57.29773438 20 58 C16.41193683 54.61127367 13.54315201 51.23858668 11 47 C11 46.34 11 45.68 11 45 C10.34 45 9.68 45 9 45 C8.79375 45.66 8.5875 46.32 8.375 47 C6.48847129 51.11606263 3.79432021 54.4587703 1 58 C-4.00099548 55.34151874 -8.7045025 52.74123976 -13 49 C-11.28939138 43.93433027 -8.23912537 39.99737003 -5.01367188 35.81640625 C-3.24089475 33.38989972 -2.02244173 31.63142881 -1.9140625 28.58203125 C-3.50746359 24.79340491 -5.72133352 21.55272555 -8.0625 18.1875 C-8.77116211 17.14819336 -8.77116211 17.14819336 -9.49414062 16.08789062 C-10.6554826 14.3869352 -11.8267678 12.69277605 -13 11 C-11.49392117 6.89911064 -9.03811122 5.46490446 -5.375 3.25 C-4.37210938 2.63640625 -3.36921875 2.0228125 -2.3359375 1.390625 C-1.17964844 0.70226562 -1.17964844 0.70226562 0 0 Z " fill="#FFFFFF" transform="translate(86,379)"/>
<path d="M0 0 C5.28 0 10.56 0 16 0 C16 5.28 16 10.56 16 16 C21.28 16 26.56 16 32 16 C32 21.28 32 26.56 32 32 C26.72 32 21.44 32 16 32 C16 37.28 16 42.56 16 48 C10.72 48 5.44 48 0 48 C0 42.72 0 37.44 0 32 C-5.28 32 -10.56 32 -16 32 C-16 26.72 -16 21.44 -16 16 C-10.72 16 -5.44 16 0 16 C0 10.72 0 5.44 0 0 Z " fill="#FFFFFF" transform="translate(88,264)"/>
<path d="M0 0 C15.84 0 31.68 0 48 0 C48 5.28 48 10.56 48 16 C32.16 16 16.32 16 0 16 C0 10.72 0 5.44 0 0 Z " fill="#FFFFFF" transform="translate(184,400)"/>
<path d="M0 0 C15.84 0 31.68 0 48 0 C48 5.28 48 10.56 48 16 C32.16 16 16.32 16 0 16 C0 10.72 0 5.44 0 0 Z " fill="#FFFFFF" transform="translate(184,280)"/>
<path d="M0 0 C5.28 0 10.56 0 16 0 C16 5.28 16 10.56 16 16 C10.72 16 5.44 16 0 16 C0 10.72 0 5.44 0 0 Z " fill="#FFFFFF" transform="translate(200,424)"/>
<path d="M0 0 C5.28 0 10.56 0 16 0 C16 5.28 16 10.56 16 16 C10.72 16 5.44 16 0 16 C0 10.72 0 5.44 0 0 Z " fill="#FFFFFF" transform="translate(200,376)"/>
<path d="M0 0 C5.28 0 10.56 0 16 0 C16 5.28 16 10.56 16 16 C10.72 16 5.44 16 0 16 C0 10.72 0 5.44 0 0 Z " fill="#FFFFFF" transform="translate(248,96)"/>
<path d="M0 0 C5.28 0 10.56 0 16 0 C16 5.28 16 10.56 16 16 C10.72 16 5.44 16 0 16 C0 10.72 0 5.44 0 0 Z " fill="#FFFFFF" transform="translate(264,80)"/>
<path d="M0 0 C5.28 0 10.56 0 16 0 C16 5.28 16 10.56 16 16 C10.72 16 5.44 16 0 16 C0 10.72 0 5.44 0 0 Z " fill="#FFFFFF" transform="translate(232,80)"/>
<path d="M0 0 C5.28 0 10.56 0 16 0 C16 5.28 16 10.56 16 16 C10.72 16 5.44 16 0 16 C0 10.72 0 5.44 0 0 Z " fill="#FFFFFF" transform="translate(248,64)"/>
<path d="M0 0 C5.28 0 10.56 0 16 0 C16 5.28 16 10.56 16 16 C10.72 16 5.44 16 0 16 C0 10.72 0 5.44 0 0 Z " fill="#FFFFFF" transform="translate(296,48)"/>
<path d="M0 0 C5.28 0 10.56 0 16 0 C16 5.28 16 10.56 16 16 C10.72 16 5.44 16 0 16 C0 10.72 0 5.44 0 0 Z " fill="#FFFFFF" transform="translate(200,48)"/>
<path d="M0 0 C5.28 0 10.56 0 16 0 C16 5.28 16 10.56 16 16 C10.72 16 5.44 16 0 16 C0 10.72 0 5.44 0 0 Z " fill="#FFFFFF" transform="translate(312,32)"/>
<path d="M0 0 C5.28 0 10.56 0 16 0 C16 5.28 16 10.56 16 16 C10.72 16 5.44 16 0 16 C0 10.72 0 5.44 0 0 Z " fill="#FFFFFF" transform="translate(280,32)"/>
<path d="M0 0 C5.28 0 10.56 0 16 0 C16 5.28 16 10.56 16 16 C10.72 16 5.44 16 0 16 C0 10.72 0 5.44 0 0 Z " fill="#FFFFFF" transform="translate(216,32)"/>
<path d="M0 0 C5.28 0 10.56 0 16 0 C16 5.28 16 10.56 16 16 C10.72 16 5.44 16 0 16 C0 10.72 0 5.44 0 0 Z " fill="#FFFFFF" transform="translate(184,32)"/>
<path d="M0 0 C5.28 0 10.56 0 16 0 C16 5.28 16 10.56 16 16 C10.72 16 5.44 16 0 16 C0 10.72 0 5.44 0 0 Z " fill="#FFFFFF" transform="translate(296,16)"/>
<path d="M0 0 C5.28 0 10.56 0 16 0 C16 5.28 16 10.56 16 16 C10.72 16 5.44 16 0 16 C0 10.72 0 5.44 0 0 Z " fill="#FFFFFF" transform="translate(200,16)"/>
</svg>
