<?xml version="1.0" encoding="UTF-8"?>
<!DOCTYPE svg PUBLIC "-//W3C//DTD SVG 1.1//EN" "http://www.w3.org/Graphics/SVG/1.1/DTD/svg11.dtd">
<!-- Creator: CorelDRAW 2018 (64 Bit Versão de avaliação) -->
<svg xmlns="http://www.w3.org/2000/svg" xml:space="preserve" width="42.1874mm" height="18.1956mm" version="1.1" style="shape-rendering:geometricPrecision; text-rendering:geometricPrecision; image-rendering:optimizeQuality; fill-rule:evenodd; clip-rule:evenodd"
viewBox="0 0 7503.21 3236.17"
 xmlns:xlink="http://www.w3.org/1999/xlink">
 <defs>
  <style type="text/css">
   <![CDATA[
    .fil0 {fill:#0085F6;fill-rule:nonzero}
    .fil1 {fill:#262624;fill-rule:nonzero}
    .fil2 {fill:#FF6633;fill-rule:nonzero}
   ]]>
  </style>
 </defs>
 <g id="Camada_x0020_1">
  <metadata id="CorelCorpID_0Corel-Layer"/>
  <path class="fil0" d="M7365.71 789.76l0 222.71 120.11 0 0 224.81 -120.11 0 0 756.49c0,92.79 5.14,144.86 14.94,155.36 9.8,10.62 50.55,15.99 122.56,15.99l0 227.03 -174.26 0c-98.28,0 -168.43,-3.97 -210.69,-12.38 -41.8,-7.93 -78.91,-26.96 -111,-56.38 -31.98,-29.52 -52.06,-62.91 -59.99,-101.2 -7.7,-37.81 -11.67,-126.99 -11.67,-267.42l0 -717.5 -91.63 0 0 -224.81 91.63 0 0 -222.71 430.12 0 -0.02 0.02z"/>
  <path class="fil0" d="M6766.11 1429.4l-379.83 0 0 -76.8c0,-65.49 -3.61,-106.57 -11.33,-124.07 -7.24,-17.5 -26.14,-26.14 -56.02,-26.14 -24.05,0 -42.26,8.06 -54.16,24.05 -12.02,15.99 -18.21,40.04 -18.21,72.01 0,43.31 2.92,75.29 9.11,95.37 5.83,20.31 24.05,42.6 54.16,66.54 29.88,24.4 91.63,59.65 185.24,105.88 124.78,61.16 206.36,118.59 245.24,172.87 38.86,53.8 58.6,132.48 58.6,235.43 0,115.32 -14.94,202.27 -44.71,260.88 -29.88,58.6 -79.71,104.12 -149.52,135.76 -70.27,31.64 -154.31,47.27 -253.28,47.27 -109.13,0 -202.99,-17.16 -280.49,-50.88 -77.85,-34.2 -131.31,-80.43 -160.5,-138.67 -29.06,-58.25 -43.66,-146.25 -43.66,-264.15l0 -68.05 382.03 0 0 89.18c0,75.64 4.78,124.78 14.12,147.78 9.8,22.53 28.71,33.85 56.74,33.85 30.57,0 51.7,-7.59 63.62,-22.87 12.02,-15.3 18.21,-47.63 18.21,-96.41 0,-67.69 -7.59,-109.84 -23.23,-126.99 -16.34,-17.04 -99.69,-67.69 -250.03,-151.75 -126.29,-70.96 -203.45,-135.4 -231,-193.52 -27.66,-57.89 -41.44,-126.65 -41.44,-206.36 0,-113.22 14.94,-196.44 44.82,-249.9 29.88,-53.8 80.43,-95.37 151.75,-124.43 71.32,-29.06 154.31,-43.66 248.5,-43.66 93.85,0 173.57,12.02 239.05,35.71 65.82,24.05 116.03,55.33 151.39,94.55 34.9,38.99 56.38,75.29 63.62,108.79 7.7,33.51 11.33,85.9 11.33,156.76l0 82.17 -0.11 -0.16z"/>
  <path class="fil0" d="M5316.17 1479.59l0 -103.3c0,-73.54 -3.97,-120.46 -12.02,-141.93 -7.93,-21.48 -24.4,-31.98 -49.14,-31.98 -30.57,0 -49.5,9.11 -56.74,27.32 -7.24,18.21 -10.97,67 -10.97,146.61l0 103.3 128.86 0 0.02 -0.02zm430 229.25l-558.87 0 0 306.75c0,64.08 4.78,105.52 13.89,124.07 9.46,18.55 27.32,27.66 53.8,27.66 33.15,0 55.33,-12.38 66.18,-36.76 11.33,-24.74 16.68,-72.37 16.68,-142.99l0 -187 408.18 0 0 104.81c0,87.66 -5.48,155.02 -16.34,201.94 -11.33,46.92 -37.12,97.11 -77.51,150.57 -40.39,53.46 -92.09,93.5 -154.31,120.46 -62.21,26.5 -140.06,40.04 -233.91,40.04 -90.92,0 -171.34,-13.07 -241.26,-39.68 -69.45,-26.14 -123.73,-62.21 -162.59,-108.08 -38.99,-45.87 -65.49,-96.41 -80.43,-151.75 -14.94,-54.97 -22.53,-134.94 -22.53,-240.46l0 -412.96c0,-123.73 16.68,-221.2 50.19,-292.85 33.51,-71.32 88,-126.29 164.11,-164.11 76.46,-38.17 163.77,-57.07 262.74,-57.07 120.82,0 220.49,22.87 299.04,68.76 78.56,45.87 133.89,106.57 165.51,182.32 31.64,75.29 47.27,181.98 47.27,319.12l0 187.33 0.16 -0.11z"/>
  <path class="fil0" d="M4027.78 1612.77l0 484.64c61.86,-2.22 101.55,-12.02 118.59,-29.88 17.04,-17.86 25.45,-61.86 25.45,-131.67l0 -161.55c0,-74.24 -7.59,-118.95 -22.87,-134.94 -15.3,-15.63 -55.67,-24.4 -121.15,-26.61l-0.02 0zm0 -652.71l0 384.25c18.91,-0.69 33.51,-1.05 44,-1.05 42.95,0 70.63,-10.97 82.17,-32.33 12.02,-21.82 17.86,-84.04 17.86,-186.28 0,-54.16 -4.78,-92.09 -14.58,-113.92 -9.8,-21.48 -22.53,-35.25 -38.17,-41.08 -15.63,-5.48 -46.22,-8.75 -91.27,-9.46l0 -0.12zm-449.72 -294.74l446.81 0c141.23,0 248.16,10.97 320.87,33.15 72.72,21.82 131.31,66.54 176.13,133.53 44.71,67.35 67,175.44 67,324.6 0,100.74 -15.63,171.01 -47.27,210.69 -31.64,40.04 -94.19,70.27 -187.33,91.74 104.12,23.69 174.62,62.57 211.74,116.83 37.12,54.51 55.67,137.85 55.67,250.72l0 160.14c0,116.83 -13.43,202.99 -40.04,259.47 -26.5,56.02 -68.76,94.55 -126.99,115.32 -58.25,20.77 -177.53,30.93 -357.99,30.93l-518.46 0 0 -1726.81 -0.12 -0.32z"/>
  <path class="fil0" d="M3351.84 789.76l0 222.71 120.11 0 0 224.81 -120.11 0 0 756.49c0,92.79 5.14,144.86 14.94,155.36 9.8,10.62 50.55,15.99 122.68,15.99l0 227.03 -174.26 0c-98.28,0 -168.43,-3.97 -210.69,-12.38 -41.9,-7.93 -78.91,-26.96 -111,-56.38 -31.98,-29.52 -52.06,-62.91 -59.99,-101.2 -7.7,-37.81 -11.67,-126.99 -11.67,-267.42l0 -717.5 -91.63 0 0 -224.81 91.63 0 0 -222.71 430.12 0 -0.14 0.02z"/>
  <path class="fil0" d="M2819.12 665.32l0 218.28c-89.87,0 -142.99,3.97 -158.98,12.38 -16.34,8.41 -24.4,31.98 -24.4,70.96l0 45.53 183.37 0 0 224.81 -104.81 0 0 1154.86 -430.12 0 0 -1154.86 -87.31 0 0 -224.81 87.31 0c0,-93.5 3.27,-156.07 9.46,-187.33 6.55,-31.64 22.53,-59.65 47.63,-84.04 25.45,-24.74 60.81,-43.66 106.57,-56.38 45.41,-12.72 116.37,-19.26 212.78,-19.26l158.27 0 0.23 -0.14z"/>
  <path class="fil0" d="M1696.59 1367.54c0,-72.37 -3.97,-118.24 -11.67,-136.81 -8.06,-18.91 -24.74,-28.37 -50.55,-28.37 -25.79,0 -42.95,9.46 -51.7,28.37 -8.41,18.55 -12.72,64.44 -12.72,136.81l0 638.6c0,67 4.32,110.66 12.72,130.62 8.75,20.44 25.45,30.57 50.55,30.57 25.79,0 42.6,-9.11 50.88,-27.66 8.41,-18.55 12.38,-58.25 12.38,-119.41l0 -652.73 0.11 0zm430.12 106.57l0 346.78c0,127.34 -6.55,220.49 -19.26,280.14 -12.72,59.3 -40.04,114.63 -81.83,166.33 -41.9,51.7 -95.72,89.53 -161.55,114.27 -65.82,24.4 -141.23,36.76 -226.32,36.76 -95.37,0 -176.13,-10.51 -241.97,-31.28 -66.18,-21.13 -117.54,-52.75 -153.95,-95.01 -36.76,-42.6 -62.91,-93.85 -78.56,-153.95 -15.63,-59.99 -23.23,-150.22 -23.23,-270.34l0 -362.77c0,-131.67 14.12,-234.38 42.6,-308.51 28.37,-73.88 79.71,-133.18 153.49,-177.89 73.88,-44.71 168.43,-67.35 283.41,-67.35 96.41,0 179.4,14.58 248.85,43.31 69.1,28.71 122.56,66.18 160.5,112.4 37.47,46.22 63.26,93.85 77.15,142.99 13.77,49.14 20.77,123.73 20.77,224.11l-0.11 0z"/>
  <path class="fil1" d="M780.42 1428.93c80.3,59.07 135.52,110.77 165.64,155.12 52.06,75.98 77.85,198.66 77.85,367.45 0,123.02 -14.58,213.6 -43.31,272.21 -28.71,58.25 -84.04,107.03 -166.69,146.25 -82.17,39.68 -177.89,59.3 -287.48,59.3 -120.11,0 -222.35,-22.87 -307.46,-68.4 -84.75,-45.53 -140.06,-103.3 -166.69,-173.57 -26.14,-70.63 -39.34,-170.65 -39.34,-299.86l0 -113.1 416.94 0 0 209.99c0,64.77 5.83,106.21 17.5,124.78 11.67,18.55 32.33,27.66 62.21,27.66 29.88,0 52.06,-11.67 66.54,-35.25 14.58,-23.23 21.82,-58.25 21.82,-104.01 0,-101.55 -13.77,-168.09 -41.44,-199.02 -15.06,-16.34 -41.44,-38.63 -79.15,-66.64l302.78 -302.78 0.27 -0.12z"/>
  <path class="fil0" d="M986.79 1189.29l-416.94 0 0 -127.7c0,-59.65 -5.48,-97.93 -15.99,-114.27 -10.62,-16.34 -28.01,-24.4 -52.75,-24.4 -26.96,0 -47.27,10.85 -61.16,33.15 -13.89,21.82 -20.77,54.97 -20.77,99.69 0,57.43 8.06,100.74 23.69,129.9 15.3,28.71 57.43,64.08 126.99,105.52 33.38,19.96 64.77,39.34 94.08,58.12l-301.96 301.96 -15.17 -10.03c-111.35,-73.88 -184.77,-127.7 -221.2,-161.19 -36.07,-33.51 -66.18,-79.71 -89.87,-138.67 -23.69,-58.94 -35.71,-134.23 -35.71,-225.98 0,-132.13 16.68,-228.9 50.55,-289.94 33.85,-61.16 88,-108.79 163.41,-143.33 75.29,-34.56 165.87,-51.7 272.54,-51.7 116.37,0 215.36,18.91 297.64,56.38 81.83,37.81 136.09,85.09 162.59,142.64 26.5,57.07 40.04,154.31 40.04,291.47l0 68.4 0 -0.02z"/>
  <path class="fil2" d="M462.58 3088.05l-51.36 0 0 -295.77c0,-23.35 1.41,-51.93 4.32,-85.8l-1.28 0c-4.91,19.96 -9.34,34.08 -13.2,42.72l-150.57 338.85 -25.33 0 -150.34 -336.39c-4.32,-9.92 -8.75,-24.86 -13.2,-45.17l-1.28 0c1.64,17.63 2.45,46.46 2.45,86.38l0 295.2 -49.73 0 0 -440.87 68.28 0 135.28 307.33c10.51,23.58 17.16,41.21 20.31,52.88l1.74 0c8.87,-24.17 15.99,-42.13 21.24,-54.05l138.09 -306.28 64.54 0 0 440.87 0.04 0.11zm507.17 0l-50.55 0 0 -49.27 -1.17 0c-21.95,37.81 -54.28,56.61 -96.88,56.61 -31.39,0 -55.92,-8.29 -73.65,-24.86 -17.75,-16.58 -26.5,-38.63 -26.5,-66.18 0,-58.71 34.66,-93.14 103.88,-102.6l94.32 -13.2c0,-53.57 -21.59,-80.3 -64.9,-80.3 -37.94,0 -72.14,12.95 -102.6,38.75l0 -51.6c30.93,-19.72 66.54,-29.52 106.93,-29.52 74.01,0 111,39.11 111,117.42l0 204.73 0.12 0.02zm-50.55 -159.34l-75.87 10.51c-23.46,3.27 -41.08,8.98 -52.88,17.39 -11.9,8.29 -17.86,23 -17.86,44.13 0,15.3 5.48,27.91 16.45,37.71 10.97,9.8 25.56,14.58 43.77,14.58 24.97,0 45.64,-8.87 61.98,-26.27 16.34,-17.5 24.4,-39.8 24.4,-66.64l0 -31.39 0 -0.02zm482.31 -104.58c-8.87,-6.65 -21.48,-10.03 -38.04,-10.03 -21.59,0 -39.57,10.03 -54.05,30.47 -14.35,20.31 -21.59,47.97 -21.59,82.99l0 160.5 -50.42 0 0 -314.8 50.42 0 0 64.9 1.28 0c7.11,-22.18 18.09,-39.34 32.8,-51.83 14.82,-12.38 31.28,-18.55 49.5,-18.55 13.07,0 23.1,1.41 30.11,4.32l0 52.29 0 -0.25zm488.6 263.79l-70.73 0 -138.9 -151.27 -1.28 0 0 151.27 -50.42 0 0 -466.09 50.42 0 0 295.43 1.28 0 132.13 -144.15 66.18 0 -146.02 151.85 157.45 162.95 -0.11 0zm464.56 -144.84l-222.25 0c0.82,35.02 10.28,62.09 28.37,81.24 18.09,19.03 42.85,28.6 74.47,28.6 35.48,0 68.05,-11.67 97.82,-35.02l0 47.4c-27.66,20.08 -64.31,30.11 -109.72,30.11 -44.46,0 -79.48,-14.25 -104.81,-42.85 -25.56,-28.6 -38.17,-68.87 -38.17,-120.69 0,-49.02 14.01,-88.94 41.67,-119.77 27.78,-30.82 62.34,-46.33 103.53,-46.33 41.21,0 73.06,13.3 95.6,40.04 22.53,26.5 33.85,63.62 33.85,110.89l0 26.5 -0.36 -0.12zm-51.58 -42.72c-0.23,-29.06 -7.24,-51.7 -21,-68.05 -13.89,-16.11 -33.03,-24.28 -57.66,-24.28 -23.69,0 -44,8.52 -60.58,25.56 -16.58,17.04 -26.84,39.22 -30.7,66.77l170.06 0 -0.12 0zm446.57 184.52c-11.9,6.55 -27.55,9.8 -47.04,9.8 -55.21,0 -82.76,-30.7 -82.76,-92.22l0 -186.28 -54.16 0 0 -43.08 54.16 0 0 -76.8 50.42 -16.34 0 93.14 79.38 0 0 43.08 -79.38 0 0 177.43c0,21.13 3.5,36.07 10.85,45.17 7.11,8.98 19.03,13.53 35.71,13.53 12.72,0 23.58,-3.5 32.8,-10.51l0 43.18 0.02 -0.11zm265.66 -391.72c-8.87,0 -16.68,-3.04 -23,-9.21 -6.42,-6.06 -9.57,-13.89 -9.57,-23.35 0,-9.46 3.15,-17.27 9.57,-23.46 6.3,-6.3 14.12,-9.46 23,-9.46 9.21,0 17.16,3.15 23.58,9.46 6.42,6.19 9.69,14.12 9.69,23.46 0,8.98 -3.27,16.68 -9.69,23 -6.55,6.42 -14.35,9.57 -23.58,9.57zm24.63 394.89l-50.42 0 0 -314.8 50.42 0 0 314.8zm536 0l-50.55 0 0 -179.53c0,-66.89 -24.4,-100.27 -73.19,-100.27 -25.22,0 -46.1,9.46 -62.57,28.47 -16.58,19.03 -24.74,42.95 -24.74,71.78l0 179.53 -50.42 0 0 -314.8 50.42 0 0 52.29 1.28 0c23.69,-39.8 58.12,-59.65 103.3,-59.65 34.43,0 60.81,11.08 79.02,33.38 18.21,22.18 27.43,54.39 27.43,96.29l0 192.47 0.02 0.04zm536.32 -25.22c0,115.55 -55.33,173.34 -165.97,173.34 -38.99,0 -72.96,-7.35 -102.14,-22.18l0 -50.42c35.48,19.62 69.22,29.52 101.43,29.52 77.51,0 116.14,-41.21 116.14,-123.61l0 -34.43 -1.17 0c-24.05,40.16 -60.11,60.22 -108.31,60.22 -39.11,0 -70.63,-14.01 -94.42,-42.03 -23.92,-27.91 -35.84,-65.49 -35.84,-112.64 0,-53.46 12.95,-96.06 38.63,-127.57 25.68,-31.64 60.93,-47.4 105.52,-47.4 42.49,0 73.88,17.04 94.42,51.01l1.17 0 0 -43.66 50.42 0 0 289.71 0.12 0.14zm-50.42 -117.19l0 -46.46c0,-24.97 -8.41,-46.33 -25.33,-64.21 -16.93,-17.86 -37.94,-26.73 -63.16,-26.73 -31.16,0 -55.56,11.33 -73.29,33.97 -17.63,22.64 -26.5,54.39 -26.5,95.13 0,35.02 8.52,63.03 25.45,84.16 16.93,21 39.34,31.52 67.23,31.52 28.37,0 51.36,-10.03 69.1,-30.11 17.75,-20.19 26.5,-45.87 26.5,-77.15l0 -0.12zm711.44 142.28l0 -440.87 121.74 0c155.36,0 233.1,71.55 233.1,214.88 0,68.05 -21.59,122.68 -64.77,164 -43.18,41.21 -100.84,61.86 -173.21,61.86l-116.83 0 -0.02 0.12zm51.6 -394.18l0 347.49 65.82 0c57.89,0 102.71,-15.53 134.94,-46.46 32.21,-30.93 48.32,-74.82 48.32,-131.67 0,-112.87 -59.99,-169.37 -180.22,-169.37l-68.87 0zm581.39 -0.59c-8.87,0 -16.68,-3.04 -23,-9.21 -6.42,-6.06 -9.57,-13.89 -9.57,-23.35 0,-9.46 3.15,-17.27 9.57,-23.46 6.3,-6.3 14.12,-9.46 23,-9.46 9.21,0 17.16,3.15 23.58,9.46 6.42,6.19 9.69,14.12 9.69,23.46 0,8.98 -3.27,16.68 -9.69,23 -6.55,6.42 -14.35,9.57 -23.58,9.57zm24.63 394.89l-50.42 0 0 -314.8 50.42 0 0 314.8zm543.34 -25.22c0,115.55 -55.33,173.34 -165.97,173.34 -38.99,0 -72.96,-7.35 -102.14,-22.18l0 -50.42c35.48,19.62 69.22,29.52 101.43,29.52 77.51,0 116.14,-41.21 116.14,-123.61l0 -34.43 -1.17 0c-24.05,40.16 -60.11,60.22 -108.31,60.22 -39.11,0 -70.63,-14.01 -94.42,-42.03 -23.92,-27.91 -35.84,-65.49 -35.84,-112.64 0,-53.46 12.95,-96.06 38.63,-127.57 25.68,-31.64 60.93,-47.4 105.52,-47.4 42.49,0 73.88,17.04 94.42,51.01l1.17 0 0 -43.66 50.42 0 0 289.71 0.12 0.14zm-50.42 -117.19l0 -46.46c0,-24.97 -8.41,-46.33 -25.33,-64.21 -16.93,-17.86 -37.94,-26.73 -63.16,-26.73 -31.16,0 -55.56,11.33 -73.29,33.97 -17.63,22.64 -26.5,54.39 -26.5,95.13 0,35.02 8.52,63.03 25.45,84.16 16.93,21 39.34,31.52 67.23,31.52 28.37,0 51.36,-10.03 69.1,-30.11 17.75,-20.19 26.5,-45.87 26.5,-77.15l0 -0.12zm350.87 -252.48c-8.87,0 -16.68,-3.04 -23,-9.21 -6.42,-6.06 -9.57,-13.89 -9.57,-23.35 0,-9.46 3.15,-17.27 9.57,-23.46 6.3,-6.3 14.12,-9.46 23,-9.46 9.21,0 17.16,3.15 23.58,9.46 6.42,6.19 9.69,14.12 9.69,23.46 0,8.98 -3.27,16.68 -9.69,23 -6.55,6.42 -14.35,9.57 -23.58,9.57zm24.63 394.89l-50.42 0 0 -314.8 50.42 0 0 314.8zm420.68 -3.04c-11.9,6.55 -27.55,9.8 -47.04,9.8 -55.21,0 -82.76,-30.7 -82.76,-92.22l0 -186.28 -54.16 0 0 -43.08 54.16 0 0 -76.8 50.42 -16.34 0 93.14 79.38 0 0 43.08 -79.38 0 0 177.43c0,21.13 3.5,36.07 10.85,45.17 7.11,8.98 19.03,13.53 35.71,13.53 12.72,0 23.58,-3.5 32.8,-10.51l0 43.18 0.02 -0.11zm465.25 3.04l-50.55 0 0 -49.27 -1.17 0c-21.95,37.81 -54.28,56.61 -96.88,56.61 -31.39,0 -55.92,-8.29 -73.65,-24.86 -17.75,-16.58 -26.5,-38.63 -26.5,-66.18 0,-58.71 34.66,-93.14 103.88,-102.6l94.32 -13.2c0,-53.57 -21.59,-80.3 -64.9,-80.3 -37.94,0 -72.14,12.95 -102.6,38.75l0 -51.6c30.93,-19.72 66.54,-29.52 106.93,-29.52 74.01,0 111,39.11 111,117.42l0 204.73 0.12 0.02zm-50.55 -159.34l-75.87 10.51c-23.46,3.27 -41.08,8.98 -52.88,17.39 -11.9,8.29 -17.86,23 -17.86,44.13 0,15.3 5.48,27.91 16.45,37.71 10.97,9.8 25.56,14.58 43.77,14.58 24.97,0 45.64,-8.87 61.98,-26.27 16.34,-17.5 24.4,-39.8 24.4,-66.64l0 -31.39 0 -0.02zm368.5 159.34l-50.42 0 0 -466.09 50.42 0 0 466.09z"/>
  <path class="fil1" d="M-0 375.97l0 -360.44 74.82 0c53.93,0 93.04,4.32 117.42,12.95 35.02,12.25 62.34,33.51 81.94,63.73 19.72,30.24 29.52,66.18 29.52,107.98 0,36.18 -7.83,67.82 -23.46,95.24 -15.53,27.43 -35.84,47.74 -60.7,60.81 -24.97,13.07 -59.88,19.62 -104.81,19.62l-114.73 0 0 0.12zm34.68 -34.08l41.55 0c49.73,0 84.04,-3.15 103.3,-9.34 27.09,-8.87 48.32,-24.63 63.85,-47.63 15.53,-23 23.23,-51.01 23.23,-84.16 0,-34.66 -8.41,-64.54 -25.22,-89.05 -16.68,-24.63 -40.16,-41.55 -70.15,-50.65 -22.53,-6.88 -59.53,-10.28 -111.12,-10.28l-25.45 0 0 291.11 0.02 0zm558.39 -54.16l28.95 15.17c-9.57,18.44 -20.54,33.51 -32.92,44.82 -12.49,11.33 -26.38,19.96 -42.03,25.91 -15.63,5.96 -33.26,8.87 -52.88,8.87 -43.66,0 -77.74,-14.25 -102.37,-42.72 -24.63,-28.47 -36.89,-60.58 -36.89,-96.41 0,-33.74 10.51,-63.85 31.28,-90.23 26.38,-33.51 61.75,-50.42 105.98,-50.42 45.64,0 82.06,17.27 109.26,51.6 19.26,24.28 29.19,54.51 29.52,90.92l-240.92 0c0.69,30.93 10.62,56.15 29.77,75.75 19.26,19.72 42.95,29.65 71.2,29.65 13.66,0 26.96,-2.33 39.8,-7.01 12.84,-4.68 23.81,-10.85 32.92,-18.67 8.98,-7.83 18.8,-20.19 29.29,-37.58l0.02 0.36zm0.36 -71.8c-4.55,-18.32 -11.33,-32.92 -20.08,-43.89 -8.87,-10.97 -20.54,-19.72 -35.02,-26.38 -14.48,-6.65 -29.65,-10.03 -45.64,-10.03 -26.38,0 -48.91,8.41 -67.82,25.22 -13.89,12.25 -24.28,30.57 -31.39,55.1l199.84 0 0.11 -0.02zm235.32 -77.49l-22.05 22.77c-18.32,-17.75 -36.3,-26.61 -53.8,-26.61 -11.08,0 -20.67,3.73 -28.6,11.08 -7.93,7.24 -11.9,15.88 -11.9,25.68 0,8.64 3.27,16.93 9.8,24.63 6.55,8.06 20.31,17.39 41.21,28.24 25.45,13.07 42.72,25.91 51.93,38.17 8.98,12.38 13.43,26.38 13.43,41.8 0,21.95 -7.7,40.39 -23.1,55.56 -15.4,15.17 -34.66,22.77 -57.66,22.77 -15.4,0 -30,-3.38 -44.13,-10.03 -14.01,-6.65 -25.56,-15.88 -34.66,-27.66l21.59 -24.51c17.5,19.72 36.18,29.65 55.79,29.65 13.66,0 25.45,-4.43 35.13,-13.2 9.57,-8.75 14.48,-19.14 14.48,-31.05 0,-9.8 -3.15,-18.44 -9.57,-26.14 -6.42,-7.47 -20.77,-17.04 -43.31,-28.37 -24.05,-12.38 -40.5,-24.63 -49.14,-36.66 -8.75,-12.02 -13.07,-25.79 -13.07,-41.21 0,-20.19 7.01,-36.89 20.77,-50.31 13.89,-13.3 31.39,-19.96 52.52,-19.96 24.63,0 49.37,11.79 74.24,35.48l0.11 -0.12zm285.39 149.29l28.95 15.17c-9.57,18.44 -20.54,33.51 -32.92,44.82 -12.49,11.33 -26.38,19.96 -42.03,25.91 -15.63,5.96 -33.26,8.87 -52.88,8.87 -43.66,0 -77.74,-14.25 -102.37,-42.72 -24.63,-28.47 -36.89,-60.58 -36.89,-96.41 0,-33.74 10.51,-63.85 31.28,-90.23 26.38,-33.51 61.75,-50.42 105.98,-50.42 45.64,0 82.06,17.27 109.26,51.6 19.26,24.28 29.19,54.51 29.52,90.92l-240.92 0c0.69,30.93 10.62,56.15 29.77,75.75 19.26,19.72 42.95,29.65 71.2,29.65 13.66,0 26.96,-2.33 39.8,-7.01 12.84,-4.68 23.81,-10.85 32.92,-18.67 8.98,-7.83 18.8,-20.19 29.29,-37.58l0.02 0.36zm0.36 -71.8c-4.55,-18.32 -11.33,-32.92 -20.08,-43.89 -8.87,-10.97 -20.54,-19.72 -35.02,-26.38 -14.48,-6.65 -29.65,-10.03 -45.64,-10.03 -26.38,0 -48.91,8.41 -67.82,25.22 -13.89,12.25 -24.28,30.57 -31.39,55.1l199.84 0 0.11 -0.02zm100.84 -106.45l34.08 0 0 47.74c13.77,-18.21 29.06,-31.87 45.64,-40.85 16.68,-8.98 34.9,-13.43 54.51,-13.43 19.96,0 37.71,5.02 53.23,15.17 15.53,10.16 26.96,23.69 34.31,40.85 7.35,17.04 11.08,43.77 11.08,79.96l0 137.04 -34.08 0 0 -126.99c0,-30.57 -1.28,-51.13 -3.97,-61.4 -4.2,-17.5 -11.9,-30.82 -23.23,-39.68 -11.33,-8.87 -26.04,-13.3 -44.13,-13.3 -20.77,0 -39.45,6.88 -55.92,20.54 -16.45,13.66 -27.32,30.57 -32.57,50.88 -3.27,13.2 -4.91,37.35 -4.91,72.37l0 97.59 -34.08 0 0 -266.48 0.02 -0.02zm280.96 0l35.84 0 89.76 194.57 89.05 -194.57 36.76 0 -121.97 266.48 -6.55 0 -123.02 -266.48 0.12 0zm429.66 -6.53c41.08,0 75.16,14.82 102.25,44.46 24.63,26.96 36.89,59.07 36.89,96.06 0,37.12 -12.95,69.56 -38.99,97.34 -25.91,27.78 -59.42,41.67 -100.15,41.67 -40.98,0 -74.59,-13.89 -100.51,-41.67 -26.04,-27.78 -38.99,-60.22 -38.99,-97.34 0,-36.76 12.25,-68.76 36.89,-95.83 27.09,-29.88 61.29,-44.82 102.6,-44.82l0 0.12zm-0.12 33.61c-28.47,0 -53,10.51 -73.42,31.52 -20.54,21 -30.7,46.46 -30.7,76.23 0,19.14 4.68,36.99 14.01,53.69 9.34,16.58 21.95,29.42 37.94,38.4 15.76,8.98 33.26,13.53 52.29,13.53 19.03,0 36.53,-4.55 52.29,-13.53 15.88,-8.98 28.47,-21.82 37.94,-38.4 9.34,-16.68 14.01,-34.56 14.01,-53.69 0,-29.77 -10.28,-55.21 -30.93,-76.23 -20.54,-21 -44.94,-31.52 -73.29,-31.52l-0.14 0zm197.38 -130.03l34.08 0 0 369.44 -34.08 0 0 -369.44zm80.43 102.84l35.84 0 89.76 194.57 89.05 -194.57 36.76 0 -121.97 266.48 -6.55 0 -123.02 -266.48 0.12 0zm315.26 -109.38c7.83,0 14.35,2.81 19.96,8.41 5.48,5.48 8.29,12.25 8.29,20.08 0,7.7 -2.81,14.35 -8.29,19.96 -5.48,5.6 -12.15,8.41 -19.96,8.41 -7.7,0 -14.25,-2.81 -19.72,-8.41 -5.48,-5.48 -8.29,-12.25 -8.29,-19.96 0,-7.83 2.81,-14.58 8.29,-20.08 5.48,-5.6 12.02,-8.41 19.72,-8.41zm-16.91 109.38l34.08 0 0 266.48 -34.08 0 0 -266.48zm371.52 -102.84l0 369.44 -34.2 0 0 -45.87c-14.35,17.5 -30.47,30.57 -48.32,39.34 -17.86,8.75 -37.35,13.07 -58.6,13.07 -37.58,0 -69.81,-13.66 -96.54,-40.85 -26.73,-27.32 -40.04,-60.47 -40.04,-99.69 0,-38.29 13.43,-71.09 40.39,-98.16 26.84,-27.19 59.17,-40.85 97.11,-40.85 21.82,0 41.55,4.68 59.3,14.01 17.63,9.34 33.26,23.23 46.58,41.9l0 -152.21 34.2 0 0.12 -0.14zm-137.37 129.44c-19.03,0 -36.76,4.68 -52.75,14.01 -16.11,9.34 -28.95,22.41 -38.52,39.34 -9.57,16.93 -14.35,34.79 -14.35,53.69 0,18.67 4.78,36.53 14.35,53.57 9.57,17.04 22.53,30.34 38.75,39.8 16.22,9.57 33.61,14.35 52.18,14.35 18.67,0 36.53,-4.68 53.23,-14.12 16.81,-9.46 29.65,-22.18 38.75,-38.29 8.98,-16.11 13.53,-34.2 13.53,-54.39 0,-30.7 -10.16,-56.38 -30.47,-77.05 -20.19,-20.67 -45.17,-30.93 -74.82,-30.93l0.11 0zm341.53 -33.15c41.08,0 75.16,14.82 102.25,44.46 24.63,26.96 36.89,59.07 36.89,96.06 0,37.12 -12.95,69.56 -38.99,97.34 -25.91,27.78 -59.42,41.67 -100.15,41.67 -40.98,0 -74.59,-13.89 -100.51,-41.67 -26.04,-27.78 -38.99,-60.22 -38.99,-97.34 0,-36.76 12.25,-68.76 36.89,-95.83 27.09,-29.88 61.29,-44.82 102.6,-44.82l0 0.12zm-0.12 33.61c-28.47,0 -53,10.51 -73.42,31.52 -20.54,21 -30.7,46.46 -30.7,76.23 0,19.14 4.68,36.99 14.01,53.69 9.34,16.58 21.95,29.42 37.94,38.4 15.76,8.98 33.26,13.53 52.29,13.53 19.03,0 36.53,-4.55 52.29,-13.53 15.88,-8.98 28.47,-21.82 37.94,-38.4 9.34,-16.68 14.01,-34.56 14.01,-53.69 0,-29.77 -10.28,-55.21 -30.93,-76.23 -20.54,-21 -44.94,-31.52 -73.29,-31.52l-0.14 0zm341.89 -27.07l34.08 0 0 49.02c13.53,-18.67 29.06,-32.57 46.81,-41.8 17.63,-9.21 37.35,-13.77 59.07,-13.77 37.94,0 70.27,13.66 97.23,40.85 26.96,27.19 40.39,59.99 40.39,98.16 0,39.11 -13.43,72.24 -40.04,99.69 -26.73,27.32 -58.94,40.85 -96.65,40.85 -21.13,0 -40.62,-4.43 -58.48,-13.2 -17.86,-8.87 -33.85,-21.95 -48.32,-39.45l0 143.56 -34.08 0 0 -363.94 -0.02 0.02zm137.5 26.61c-29.65,0 -54.62,10.28 -74.82,30.93 -20.31,20.67 -30.47,46.33 -30.47,77.05 0,20.19 4.55,38.29 13.53,54.39 8.98,16.11 21.95,28.83 38.86,38.29 16.93,9.46 34.66,14.12 53.34,14.12 18.44,0 35.71,-4.78 51.93,-14.35 16.22,-9.46 29.06,-22.77 38.75,-39.8 9.57,-17.04 14.35,-35.02 14.35,-53.57 0,-18.91 -4.78,-36.76 -14.35,-53.69 -9.57,-16.93 -22.3,-30 -38.52,-39.34 -16.11,-9.34 -33.74,-14.01 -52.75,-14.01l0.14 0zm330.9 -33.15c41.08,0 75.16,14.82 102.25,44.46 24.63,26.96 36.89,59.07 36.89,96.06 0,37.12 -12.95,69.56 -38.99,97.34 -25.91,27.78 -59.42,41.67 -100.15,41.67 -40.98,0 -74.59,-13.89 -100.51,-41.67 -26.04,-27.78 -38.99,-60.22 -38.99,-97.34 0,-36.76 12.25,-68.76 36.89,-95.83 27.09,-29.88 61.29,-44.82 102.6,-44.82l0 0.12zm-0.12 33.61c-28.47,0 -53,10.51 -73.42,31.52 -20.54,21 -30.7,46.46 -30.7,76.23 0,19.14 4.68,36.99 14.01,53.69 9.34,16.58 21.95,29.42 37.94,38.4 15.76,8.98 33.26,13.53 52.29,13.53 19.03,0 36.53,-4.55 52.29,-13.53 15.88,-8.98 28.47,-21.82 37.94,-38.4 9.34,-16.68 14.01,-34.56 14.01,-53.69 0,-29.77 -10.28,-55.21 -30.93,-76.23 -20.54,-21 -44.94,-31.52 -73.29,-31.52l-0.14 0zm189.45 -27.07l35.13 0 0 38.99c10.51,-15.4 21.48,-26.73 33.15,-34.31 11.67,-7.47 23.81,-11.2 36.3,-11.2 9.57,0 19.62,3.04 30.47,8.98l-17.86 28.83c-7.24,-3.15 -13.2,-4.68 -18.09,-4.68 -11.44,0 -22.53,4.68 -33.15,14.01 -10.62,9.34 -18.8,24.05 -24.4,43.77 -4.32,15.17 -6.3,45.87 -6.3,91.99l0 90.12 -35.13 0 0 -266.48 -0.12 -0.02z"/>
 </g>
</svg>
