<?xml version="1.0" encoding="UTF-8"?>
<svg version="1.1" xmlns="http://www.w3.org/2000/svg" width="512" height="512">
<path d="M0 0 C8.30764369 5.26389493 15.5514888 12.33426162 22.94921875 18.78515625 C26.57492195 21.9461886 30.22042022 25.08336655 33.875 28.2109375 C34.73605347 28.94824097 34.73605347 28.94824097 35.61450195 29.70043945 C37.34685581 31.1834707 39.07960709 32.66603617 40.8125 34.1484375 C48.63180603 40.83745424 56.43315546 47.54592506 64.20458984 54.29052734 C70.71604268 59.93850858 77.26250398 65.54525062 83.8125 71.1484375 C91.63180603 77.83745424 99.43315546 84.54592506 107.20458984 91.29052734 C113.71604268 96.93850858 120.26250398 102.54525062 126.8125 108.1484375 C134.63180603 114.83745424 142.43315546 121.54592506 150.20458984 128.29052734 C156.14138478 133.44005499 162.10703455 138.55543984 168.07861328 143.66455078 C171.57602798 146.65769166 175.07016391 149.6546598 178.56494141 152.65087891 C181.46802183 155.13958041 184.3718367 157.62741302 187.27734375 160.11328125 C193.93340478 165.80991006 200.57242321 171.52531326 207.18261719 177.27514648 C210.34756801 180.02524555 213.52511019 182.75798874 216.73046875 185.4609375 C217.36339844 185.99654297 217.99632812 186.53214844 218.6484375 187.08398438 C219.84433335 188.09444068 221.04334555 189.10122545 222.24609375 190.10351562 C228.40547815 195.31699456 232.25941069 200.1935898 233.8125 208.1484375 C234.19903252 215.28272337 232.36326959 220.67043335 227.8125 226.1484375 C223.83644355 230.24972408 219.70537622 232.80528253 213.98046875 233.484375 C202.67438711 233.63255431 197.560424 230.1637232 189.44921875 222.57421875 C186.81517145 220.15089524 184.09965577 217.89310033 181.3125 215.6484375 C176.84829543 212.03694616 172.58247886 208.26183056 168.33984375 204.39453125 C165.74287607 202.08656152 163.07845987 199.89287887 160.375 197.7109375 C155.60253797 193.85135147 151.08140891 189.77643759 146.56640625 185.62109375 C142.98042716 182.40134231 139.24548508 179.38938574 135.49609375 176.36328125 C132.86541443 174.19210923 130.33307576 171.94602393 127.8125 169.6484375 C124.39510628 166.53385082 120.9072765 163.5565713 117.3125 160.6484375 C112.84829543 157.03694616 108.58247886 153.26183056 104.33984375 149.39453125 C101.74287607 147.08656152 99.07845987 144.89287887 96.375 142.7109375 C91.60253797 138.85135147 87.08140891 134.77643759 82.56640625 130.62109375 C78.98042716 127.40134231 75.24548508 124.38938574 71.49609375 121.36328125 C68.00699084 118.48362863 64.68253079 115.44149874 61.33984375 112.39453125 C58.74287607 110.08656152 56.07845987 107.89287887 53.375 105.7109375 C48.60253797 101.85135147 44.08140891 97.77643759 39.56640625 93.62109375 C35.98042716 90.40134231 32.24548508 87.38938574 28.49609375 84.36328125 C25.86541443 82.19210923 23.33307576 79.94602393 20.8125 77.6484375 C16.52144841 73.73760567 12.07239544 70.07133168 7.55859375 66.421875 C3.93659222 63.42329052 0.46507546 60.27551675 -2.99609375 57.09375 C-4.99067928 55.32315536 -7.02878295 53.71215509 -9.1875 52.1484375 C-17.76252594 55.95734437 -24.79645783 63.64647502 -31.65625 69.8984375 C-35.16549486 73.01776626 -38.81912123 75.94592883 -42.46875 78.8984375 C-45.96658151 81.79319461 -49.30535404 84.84433289 -52.66015625 87.90234375 C-55.25712393 90.21031348 -57.92154013 92.40399613 -60.625 94.5859375 C-64.42837503 97.66180338 -68.08832652 100.83596916 -71.6875 104.1484375 C-76.1573512 108.26222659 -80.77794893 112.11931047 -85.50390625 115.93359375 C-88.13458557 118.10476577 -90.66692424 120.35085107 -93.1875 122.6484375 C-96.58348682 125.74398946 -100.04921531 128.69994957 -103.625 131.5859375 C-107.42837503 134.66180338 -111.08832652 137.83596916 -114.6875 141.1484375 C-119.1573512 145.26222659 -123.77794893 149.11931047 -128.50390625 152.93359375 C-131.13458557 155.10476577 -133.66692424 157.35085107 -136.1875 159.6484375 C-140.48741791 163.56735002 -144.94669547 167.24014619 -149.46875 170.8984375 C-152.96658151 173.79319461 -156.30535404 176.84433289 -159.66015625 179.90234375 C-162.25712393 182.21031348 -164.92154013 184.40399613 -167.625 186.5859375 C-171.42837503 189.66180338 -175.08832652 192.83596916 -178.6875 196.1484375 C-183.1573512 200.26222659 -187.77794893 204.11931047 -192.50390625 207.93359375 C-195.13458557 210.10476577 -197.66692424 212.35085107 -200.1875 214.6484375 C-221.03036579 233.59951452 -221.03036579 233.59951452 -234.37109375 233.421875 C-240.33913487 232.84245353 -244.45809709 230.22763253 -248.5 225.8984375 C-252.738552 220.43232673 -254.5046109 215.60565852 -254.1875 208.6484375 C-252.25860659 194.46425162 -238.26021495 185.72131114 -227.8359375 177.328125 C-225.21474881 175.17086351 -222.69595719 172.9353275 -220.1875 170.6484375 C-216.79151318 167.55288554 -213.32578469 164.59692543 -209.75 161.7109375 C-205.94662497 158.63507162 -202.28667348 155.46090584 -198.6875 152.1484375 C-194.2176488 148.03464841 -189.59705107 144.17756453 -184.87109375 140.36328125 C-182.24041443 138.19210923 -179.70807576 135.94602393 -177.1875 133.6484375 C-173.79151318 130.55288554 -170.32578469 127.59692543 -166.75 124.7109375 C-162.94662497 121.63507162 -159.28667348 118.46090584 -155.6875 115.1484375 C-151.2176488 111.03464841 -146.59705107 107.17756453 -141.87109375 103.36328125 C-139.24041443 101.19210923 -136.70807576 98.94602393 -134.1875 96.6484375 C-130.79151318 93.55288554 -127.32578469 90.59692543 -123.75 87.7109375 C-119.94662497 84.63507162 -116.28667348 81.46090584 -112.6875 78.1484375 C-108.2176488 74.03464841 -103.59705107 70.17756453 -98.87109375 66.36328125 C-96.24041443 64.19210923 -93.70807576 61.94602393 -91.1875 59.6484375 C-87.79151318 56.55288554 -84.32578469 53.59692543 -80.75 50.7109375 C-76.94662497 47.63507162 -73.28667348 44.46090584 -69.6875 41.1484375 C-65.2176488 37.03464841 -60.59705107 33.17756453 -55.87109375 29.36328125 C-53.24041443 27.19210923 -50.70807576 24.94602393 -48.1875 22.6484375 C-43.906479 18.75291128 -39.49845735 15.05760497 -34.9921875 11.42578125 C-33.0614597 9.8580733 -31.15092407 8.26527481 -29.2578125 6.65234375 C-27.83082031 5.44384766 -27.83082031 5.44384766 -26.375 4.2109375 C-25.52292969 3.48003906 -24.67085937 2.74914063 -23.79296875 1.99609375 C-17.04751717 -2.78741239 -7.5033148 -3.78639497 0 0 Z " fill="#FFFFFF" transform="translate(266.1875,30.8515625)"/>
<path d="M0 0 C3.75363743 2.2369571 6.82268362 5.01660434 10 8 C11.64466822 9.48046204 13.2905046 10.95962735 14.9375 12.4375 C15.7625 13.1903125 16.5875 13.943125 17.4375 14.71875 C20.04525525 17.04028821 22.72041144 19.24530355 25.4375 21.4375 C30.211403 25.29825137 34.73388428 29.37437075 39.25 33.53125 C41.93737634 35.94378104 44.68965444 38.2325621 47.5 40.5 C51.28460334 43.55348679 54.92207537 46.70668301 58.5 50 C62.9698512 54.11378909 67.59044893 57.97087297 72.31640625 61.78515625 C75.80550916 64.66480887 79.12996921 67.70693876 82.47265625 70.75390625 C85.06962393 73.06187598 87.73404013 75.25555863 90.4375 77.4375 C95.211403 81.29825137 99.73388428 85.37437075 104.25 89.53125 C106.93737634 91.94378104 109.68965444 94.2325621 112.5 96.5 C117.25595419 100.33719031 121.75504801 104.39385101 126.25 108.53125 C128.93737634 110.94378104 131.68965444 113.2325621 134.5 115.5 C138.28460334 118.55348679 141.92207537 121.70668301 145.5 125 C149.12044823 128.33163755 152.80280446 131.52678579 156.625 134.625 C160.14370633 137.47732292 163.63755186 140.34786489 167.0625 143.3125 C167.77535156 143.92738281 168.48820312 144.54226562 169.22265625 145.17578125 C173.43012028 149.49421136 173.28929051 153.80829851 173.26742554 159.60287476 C173.27195665 160.48002282 173.27648776 161.35717088 173.28115618 162.26089919 C173.29383589 165.20572433 173.29217751 168.15036538 173.29052734 171.09521484 C173.29651035 173.20427184 173.30331536 175.31332664 173.31088257 177.42237854 C173.32857257 183.15584444 173.3332392 188.88925067 173.33451414 194.62274122 C173.33641181 199.40663969 173.34376779 204.19052422 173.35085833 208.97441733 C173.36715115 220.25964476 173.37202645 231.54484028 173.37060547 242.83007812 C173.36940366 254.47715496 173.39051137 266.1240466 173.4220928 277.77107656 C173.4482304 287.7660816 173.45897383 297.76102605 173.45769465 307.75606501 C173.45718429 313.72769529 173.46290819 319.69916101 173.48405075 325.67075729 C173.50339076 331.28668089 173.5035865 336.90228224 173.48901749 342.51821709 C173.48692306 344.57977836 173.49166785 346.64135958 173.5037384 348.70288658 C173.51914701 351.51669093 173.50991169 354.32937811 173.49447632 357.14315796 C173.50476344 357.95950631 173.51505057 358.77585467 173.52564943 359.61694086 C173.46228003 364.8422173 172.53488582 367.90383831 169 372 C165.7234183 374.1104457 163.06926366 374.25198661 159.21466255 374.25726891 C158.02604406 374.2637178 156.83742556 374.27016669 155.61278832 374.276811 C154.30560998 374.2737138 152.99843165 374.2706166 151.65164185 374.26742554 C150.25003116 374.27116127 148.84842256 374.27576248 147.44681728 374.28115618 C143.59087943 374.29341111 139.73502818 374.2931228 135.87907529 374.29076743 C131.72219579 374.2903599 127.56534429 374.30139233 123.40847778 374.31088257 C115.26286112 374.327507 107.1172734 374.33299276 98.9716412 374.33410732 C92.35183655 374.33505708 85.73204146 374.33916373 79.11223984 374.34550858 C60.3515019 374.36312462 41.59078686 374.37234683 22.83004059 374.37084763 C21.81830005 374.37076772 20.8065595 374.3706878 19.76416016 374.37060547 C18.751187 374.37052371 17.73821385 374.37044195 16.69454454 374.37035771 C0.27383563 374.36954462 -16.14678159 374.38868713 -32.56746398 374.4168822 C-49.42063108 374.44559197 -66.27375343 374.45942356 -83.12694561 374.45769465 C-92.59175876 374.45703011 -102.05647579 374.46255055 -111.52126694 374.48405075 C-119.57914517 374.50223745 -127.6368837 374.50663058 -135.69477354 374.4930319 C-139.80693356 374.48648961 -143.91882537 374.48643026 -148.03096008 374.5037384 C-151.79503933 374.51941881 -155.5586366 374.5166576 -159.32270373 374.49917014 C-161.33025059 374.49462884 -163.3378121 374.50979695 -165.34530151 374.52564943 C-176.44832393 374.440109 -176.44832393 374.440109 -181 370 C-183.87572981 366.37471714 -183.28410742 361.81809727 -183.26742554 357.39712524 C-183.27195665 356.51997718 -183.27648776 355.64282912 -183.28115618 354.73910081 C-183.29383589 351.79427567 -183.29217751 348.84963462 -183.29052734 345.90478516 C-183.29651035 343.79572816 -183.30331536 341.68667336 -183.31088257 339.57762146 C-183.32857257 333.84415556 -183.3332392 328.11074933 -183.33451414 322.37725878 C-183.33641181 317.59336031 -183.34376779 312.80947578 -183.35085833 308.02558267 C-183.36715115 296.74035524 -183.37202645 285.45515972 -183.37060547 274.16992188 C-183.36940366 262.52284504 -183.39051137 250.8759534 -183.4220928 239.22892344 C-183.4482304 229.2339184 -183.45897383 219.23897395 -183.45769465 209.24393499 C-183.45718429 203.27230471 -183.46290819 197.30083899 -183.48405075 191.32924271 C-183.50339076 185.71331911 -183.5035865 180.09771776 -183.48901749 174.48178291 C-183.48692306 172.42022164 -183.49166785 170.35864042 -183.5037384 168.29711342 C-183.51914701 165.48330907 -183.50991169 162.67062189 -183.49447632 159.85684204 C-183.50476344 159.04049369 -183.51505057 158.22414533 -183.52564943 157.38305914 C-183.45207526 151.31632434 -181.64575613 147.7694121 -177.39111328 143.31591797 C-176.87274902 142.87908691 -176.35438477 142.44225586 -175.8203125 141.9921875 C-175.22863281 141.486875 -174.63695312 140.9815625 -174.02734375 140.4609375 C-173.39957031 139.93757812 -172.77179688 139.41421875 -172.125 138.875 C-171.46371094 138.31296875 -170.80242187 137.7509375 -170.12109375 137.171875 C-168.75154882 136.00841397 -167.37946337 134.847937 -166.00488281 133.69042969 C-162.98698694 131.1458716 -159.99463522 128.57184305 -157 126 C-155.84377036 125.01039288 -154.68752021 124.02080972 -153.53125 123.03125 C-149.84156423 119.8686622 -146.16984133 116.68557361 -142.5 113.5 C-137.10745021 108.8190444 -131.69553564 104.16164336 -126.26953125 99.51953125 C-121.99861157 95.8628562 -117.74593331 92.18564521 -113.5 88.5 C-108.10745021 83.8190444 -102.69553564 79.16164336 -97.26953125 74.51953125 C-92.99861157 70.8628562 -88.74593331 67.18564521 -84.5 63.5 C-79.10745021 58.8190444 -73.69553564 54.16164336 -68.26953125 49.51953125 C-63.99861157 45.8628562 -59.74593331 42.18564521 -55.5 38.5 C-50.11135767 33.82243624 -44.70507196 29.16638196 -39.28051758 24.53051758 C-35.54796459 21.33743308 -31.83818893 18.11958174 -28.1394043 14.88745117 C-25.64694581 12.71672091 -23.13839829 10.56505568 -20.62890625 8.4140625 C-19.20080706 7.17432172 -17.80101174 5.90213123 -16.40625 4.625 C-11.27510426 0.14428118 -6.81079767 -1.99391611 0 0 Z M-12.1875 32.1875 C-13.11864624 32.99682983 -13.11864624 32.99682983 -14.06860352 33.82250977 C-15.38537084 34.96756073 -16.70034755 36.11467357 -18.01367188 37.26367188 C-20.52920881 39.46260239 -23.0563064 41.64798084 -25.58349609 43.83349609 C-28.72559352 46.55190274 -31.8624914 49.27629985 -35 52 C-42.89068588 58.84997718 -50.79085299 65.68775898 -58.73071289 72.48071289 C-63.00158809 76.13726358 -67.2541534 79.81443006 -71.5 83.5 C-76.89254979 88.1809556 -82.30446436 92.83835664 -87.73046875 97.48046875 C-92.00138843 101.1371438 -96.25406669 104.81435479 -100.5 108.5 C-105.89254979 113.1809556 -111.30446436 117.83835664 -116.73046875 122.48046875 C-121.63227708 126.6772979 -126.50881004 130.90279626 -131.38134766 135.13354492 C-136.23246284 139.34276781 -141.10437268 143.52714067 -145.99414062 147.69140625 C-147.04257773 148.58675867 -148.07899775 149.49640748 -149.101861 150.42086792 C-151 152 -151 152 -153.2662344 153.38967896 C-157.55375581 156.34373613 -159.69724493 158.59977522 -160.8168354 163.77781677 C-161.22946725 168.66291038 -161.11389567 173.54493631 -161.02172852 178.44140625 C-161.01896939 180.35472957 -161.02017654 182.26806204 -161.02501583 184.18138123 C-161.02704295 189.29299097 -160.97498931 194.40269416 -160.91152191 199.51385498 C-160.86016119 204.31463445 -160.8578485 209.11495671 -160.85144043 213.91601562 C-160.80426595 227.94426173 -160.67861471 241.97215514 -160.5625 256 C-160.376875 287.35 -160.19125 318.7 -160 351 C-57.7 351 44.6 351 150 351 C150.37125 304.0678125 150.37125 304.0678125 150.75 256.1875 C150.85924805 246.31610107 150.96849609 236.44470215 151.08105469 226.27416992 C151.12119321 217.40881568 151.12119321 217.40881568 151.14532471 208.54341125 C151.15648555 204.60056684 151.20136442 200.65967 151.26690674 196.71736145 C151.34953295 191.68035827 151.37384163 186.64616579 151.35686731 181.60854781 C151.36041355 179.76506971 151.38403736 177.92148841 151.43058157 176.07859457 C151.89239413 165.62142521 151.89239413 165.62142521 147.43247223 156.55797768 C144.53977726 153.68736568 141.33343637 151.34118163 138 149 C136.13666968 147.49040794 134.28094881 145.9713072 132.4375 144.4375 C131.53902344 143.71433594 130.64054687 142.99117188 129.71484375 142.24609375 C126.89326505 139.9116941 124.19409288 137.48009402 121.5 135 C117.92207537 131.70668301 114.28460334 128.55348679 110.5 125.5 C105.74404581 121.66280969 101.24495199 117.60614899 96.75 113.46875 C94.06262366 111.05621896 91.31034556 108.7674379 88.5 106.5 C83.74404581 102.66280969 79.24495199 98.60614899 74.75 94.46875 C72.06262366 92.05621896 69.31034556 89.7674379 66.5 87.5 C61.74404581 83.66280969 57.24495199 79.60614899 52.75 75.46875 C50.06262366 73.05621896 47.31034556 70.7674379 44.5 68.5 C40.71539666 65.44651321 37.07792463 62.29331699 33.5 59 C29.0301488 54.88621091 24.40955107 51.02912703 19.68359375 47.21484375 C17.05291443 45.04367173 14.52057576 42.79758643 12 40.5 C0.61311395 27.91038301 0.61311395 27.91038301 -12.1875 32.1875 Z " fill="#FFFFFF" transform="translate(261,109)"/>
<path d="M0 0 C3.44807045 1.94624713 6.84090083 3.96887842 10.20898438 6.05029297 C12.56279358 7.49510893 14.94299658 8.87656152 17.34228516 10.24414062 C18.76936217 11.07916966 20.19521319 11.91629867 21.61962891 12.75585938 C22.26335449 13.12243652 22.90708008 13.48901367 23.5703125 13.86669922 C28.87345216 17.11719354 32.49323043 21.60442312 34.29882812 27.62451172 C35.89743376 35.73158056 33.02424909 43.06252234 30.72705078 50.73828125 C30.453125 51.68638672 30.17919922 52.63449219 29.89697266 53.61132812 C29.64036865 54.46750732 29.38376465 55.32368652 29.11938477 56.20581055 C28.62881031 58.8564465 28.52016065 60.12961008 29.68212891 62.56835938 C31.97634121 64.32328981 31.97634121 64.32328981 34.89697266 65.81054688 C35.9765625 66.40222656 37.05615234 66.99390625 38.16845703 67.60351562 C39.87678711 68.51423828 39.87678711 68.51423828 41.61962891 69.44335938 C43.83785754 70.64765163 46.05531506 71.85336536 48.27197266 73.06054688 C49.35454346 73.64352539 50.43711426 74.22650391 51.55249023 74.82714844 C54.47890978 76.45529605 57.29833201 78.19226892 60.12744141 79.98242188 C63.75452856 82.18747395 66.28675187 83.21755457 70.61962891 83.06835938 C75.08807496 83.19369245 77.95206371 83.93420551 81.80712891 86.18164062 C82.76031006 86.7270752 83.71349121 87.27250977 84.69555664 87.83447266 C85.68112549 88.40665527 86.66669434 88.97883789 87.68212891 89.56835938 C89.6501584 90.65925581 91.62023669 91.74646381 93.59228516 92.83007812 C103.46059609 98.31247309 113.31262851 103.82408748 122.99462891 109.63085938 C124.08626343 110.27317505 124.08626343 110.27317505 125.19995117 110.9284668 C130.15628211 113.9455968 133.78287625 116.87060141 135.68212891 122.56835938 C136.4163763 129.45343329 135.82274107 133.97293753 131.68212891 139.56835938 C127.10106642 143.81422217 123.01026293 145.25289617 116.83837891 145.14648438 C109.51247947 143.80461171 103.03861364 139.28170786 96.68212891 135.56835938 C94.69028377 134.42323242 92.69807813 133.27873235 90.70556641 132.13476562 C85.57143982 129.17388009 80.46073013 126.17536908 75.36181641 123.15429688 C73.04628893 121.78388266 70.72467946 120.4246632 68.40087891 119.06835938 C67.24398752 118.38193922 66.0876679 117.69455376 64.93212891 117.00585938 C63.98853516 116.44769531 63.04494141 115.88953125 62.07275391 115.31445312 C58.57276139 112.75808604 55.9542738 110.24010661 55.24462891 105.88085938 C55.05900391 105.11773437 54.87337891 104.35460937 54.68212891 103.56835938 C53.03138525 102.86318733 51.35916863 102.20848434 49.68212891 101.56835938 C46.84978075 100.12107902 44.08117638 98.5614276 41.30712891 97.00585938 C40.52289551 96.56838379 39.73866211 96.1309082 38.93066406 95.68017578 C31.41943722 91.46619114 24.03209888 87.05639414 16.68212891 82.56835938 C13.11938587 85.4682665 9.76027192 88.45179661 6.56884766 91.75585938 C6.01221436 92.32925049 5.45558105 92.9026416 4.88208008 93.4934082 C3.76776816 94.64868864 2.66208034 95.81236398 1.56616211 96.98510742 C-3.25871948 101.97461559 -8.22256744 104.94380045 -15.38037109 105.19335938 C-22.98001608 104.91607503 -28.90285921 101.2619367 -35.31787109 97.56835938 C-36.20667969 97.06981445 -37.09548828 96.57126953 -38.01123047 96.05761719 C-40.97806966 94.3913783 -43.93113965 92.70305176 -46.88037109 91.00585938 C-47.83274658 90.46421143 -48.78512207 89.92256348 -49.76635742 89.36450195 C-56.84703815 85.20180536 -62.24982276 80.96317312 -64.81201172 72.86035156 C-67.87380009 58.98773126 -59.36096726 37.59677896 -52.31787109 25.88085938 C-46.8059512 18.22969785 -39.90344926 11.70503421 -33.06591797 5.24755859 C-31.54637548 3.78786401 -30.08983981 2.26312729 -28.64599609 0.72851562 C-20.42840981 -6.89619111 -9.04442315 -4.76520917 0 0 Z " fill="#FFFFFF" transform="translate(266.31787109375,240.431640625)"/>
<path d="M0 0 C0.85218109 -0.0071553 1.70436218 -0.01431061 2.58236694 -0.02168274 C3.97260574 -0.02571609 3.97260574 -0.02571609 5.39093018 -0.02983093 C6.37352814 -0.03640213 7.3561261 -0.04297333 8.36849976 -0.04974365 C11.61979247 -0.06945172 14.87103904 -0.08113355 18.12237549 -0.09111023 C19.23404335 -0.09518576 20.34571121 -0.09926128 21.49106598 -0.10346031 C27.37467767 -0.12431009 33.25826611 -0.13861675 39.14190674 -0.147995 C45.21252067 -0.15905905 51.28276804 -0.19346244 57.35325241 -0.23316669 C62.02706577 -0.2593346 66.70079177 -0.267687 71.37467194 -0.27127647 C73.6121188 -0.27614168 75.84956178 -0.28775372 78.08693695 -0.30631447 C81.22241638 -0.33070962 84.35694703 -0.32973991 87.49249268 -0.32279968 C88.41122162 -0.33560974 89.32995056 -0.3484198 90.27651978 -0.36161804 C96.8176044 -0.30901563 102.35829723 0.97724191 107.22654343 5.59455395 C110.38662634 9.23173323 112.70050049 12.29365798 112.70050049 17.14717102 C113.56675049 17.37404602 114.43300049 17.60092102 115.32550049 17.83467102 C122.26787779 20.53448441 125.52186514 24.67217309 128.70050049 31.14717102 C129.70050049 35.14717102 129.70050049 35.14717102 129.70050049 48.14717102 C74.59050049 48.14717102 19.48050049 48.14717102 -37.29949951 48.14717102 C-37.29949951 37.24534712 -36.98597507 30.18303183 -29.29949951 22.14717102 C-23.57134417 17.14717102 -23.57134417 17.14717102 -19.29949951 17.14717102 C-19.20668701 15.87873352 -19.20668701 15.87873352 -19.11199951 14.58467102 C-17.84417468 9.22079672 -15.17606823 5.52027008 -10.73699951 2.27217102 C-7.11734964 0.60156339 -3.97304264 0.02300312 0 0 Z " fill="#FFFFFF" transform="translate(163.29949951171875,393.8528289794922)"/>
<path d="M0 0 C1.66240723 0.96317139 1.66240723 0.96317139 3.35839844 1.94580078 C4.54508932 2.64848031 5.73160876 3.35144945 6.91796875 4.0546875 C8.15205455 4.77563011 9.38676524 5.49550403 10.62207031 6.21435547 C13.17561561 7.70176995 15.72571379 9.19487571 18.27392578 10.69140625 C21.98079585 12.8634381 25.70969193 14.99508854 29.4453125 17.1171875 C30.61946895 17.78614783 31.79354263 18.45525347 32.9675293 19.12451172 C35.16925797 20.37887987 37.3724667 21.63065497 39.57739258 22.87939453 C55.00401476 31.72677951 55.00401476 31.72677951 57.10546875 35.9296875 C57.54627464 40.244499 57.576029 43.87652884 55.79296875 47.8671875 C53.84376732 50.2495448 52.13722046 51.70349386 49.08203125 52.37329102 C40.74300171 52.80876982 35.01655739 49.10483022 28.10546875 44.8671875 C26.88570808 44.140608 25.66465475 43.41619463 24.44238281 42.69384766 C21.91882969 41.19981728 19.40189168 39.69542271 16.88867188 38.18408203 C13.21413639 35.98307263 9.50304479 33.8512443 5.77734375 31.73828125 C5.1906189 31.40467087 4.60389404 31.07106049 3.99938965 30.7273407 C1.21195107 29.14244817 -1.57681899 27.55995369 -4.3671875 25.98022461 C-20.54787717 16.69683952 -20.54787717 16.69683952 -22.89453125 10.9296875 C-23.230021 6.12100106 -22.53554861 2.76127759 -19.58203125 -1.0703125 C-13.10801392 -5.88818586 -6.65461892 -3.90408727 0 0 Z " fill="#FFFFFF" transform="translate(266.89453125,209.0703125)"/>
<path d="M0 0 C4.53865896 2.08052962 8.78759014 4.61953088 13.0625 7.1875 C14.29317603 7.91144154 15.5247166 8.63391523 16.75708008 9.35498047 C19.27610301 10.83175283 21.78986045 12.31693438 24.29980469 13.80908203 C27.80179689 15.88809662 31.32335934 17.93060609 34.8515625 19.96484375 C36.96368203 21.18465282 39.07566792 22.40469334 41.1875 23.625 C42.1472876 24.17953857 43.1070752 24.73407715 44.09594727 25.30541992 C48.45853109 27.8485558 52.79033068 30.43716451 57.05078125 33.1484375 C57.76532471 33.60138184 58.47986816 34.05432617 59.21606445 34.52099609 C61.25605068 36.21228343 62.06436517 37.53394447 63 40 C63.45522199 45.00744188 63.1111205 47.99998792 60 52 C57.48025939 54.81047991 55.96154899 55.00516331 52.16015625 55.515625 C45.21623524 55.40234847 39.82208948 51.44334568 34.0625 47.9375 C32.83804035 47.21115136 31.61243353 46.48673343 30.38574219 45.76416016 C27.85187759 44.26921835 25.32393377 42.76489422 22.79931641 41.25439453 C19.1154662 39.05819182 15.3981842 36.92485243 11.66796875 34.80859375 C10.49274224 34.14008157 9.3175304 33.47154359 8.14233398 32.80297852 C5.93841215 31.55041495 3.73354864 30.29950633 1.52758789 29.05053711 C-13.30631238 20.54053142 -13.30631238 20.54053142 -17 15 C-17.42740092 9.70022855 -17.52351458 6.25251759 -14 2 C-9.6629909 -1.82677274 -5.32225576 -1.38374817 0 0 Z " fill="#FFFFFF" transform="translate(195,321)"/>
</svg>
