<?xml version="1.0" encoding="UTF-8"?>
<svg version="1.1" xmlns="http://www.w3.org/2000/svg" width="512" height="512">
<path d="M0 0 C0.82491631 -0.00382555 1.64983261 -0.00765109 2.49974638 -0.01159257 C5.26182317 -0.02190516 8.0236914 -0.01793373 10.78578186 -0.01396179 C12.76690869 -0.01830921 14.74803385 -0.02349246 16.72915649 -0.02944946 C22.10927591 -0.04284708 27.48932511 -0.0434173 32.86945796 -0.04088616 C37.36013721 -0.03981703 41.85080221 -0.04469833 46.34147841 -0.04949158 C56.93490288 -0.06058929 67.52829189 -0.06102261 78.12171936 -0.05497742 C89.05249496 -0.04893567 99.9831419 -0.06125318 110.91389555 -0.08254749 C120.29746031 -0.10015596 129.68098409 -0.10616605 139.06456476 -0.10290974 C144.66950227 -0.10109563 150.27434799 -0.10374594 155.87927055 -0.11762428 C161.14962509 -0.13018579 166.41977884 -0.12827435 171.69013023 -0.11521339 C173.62429624 -0.11284446 175.5584763 -0.11559363 177.49262619 -0.12383652 C180.13325734 -0.13427874 182.77321163 -0.12622369 185.41381836 -0.11352539 C186.17890227 -0.12089968 186.94398618 -0.12827396 187.73225445 -0.13587171 C193.32336907 -0.07932137 197.44953736 1.12331985 201.598526 4.94429016 C202.06774475 5.52307922 202.5369635 6.10186829 203.020401 6.69819641 C203.49993225 7.27440735 203.9794635 7.85061829 204.473526 8.44429016 C208.34138229 13.86161899 208.7978017 18.72707009 207.770401 25.26069641 C204.95909163 32.69309557 200.69838541 39.45327344 196.598526 46.23335266 C195.80272253 47.55461666 195.00724109 48.87607465 194.21205139 50.19770813 C193.60552231 51.20568451 193.60552231 51.20568451 192.98674011 52.23402405 C191.03246159 55.49025599 189.09403996 58.7558368 187.15711975 62.02241516 C186.77556229 62.66576813 186.39400482 63.30912109 186.00088501 63.9719696 C185.22026564 65.28845076 184.43974378 66.60498974 183.65931702 67.92158508 C178.05152532 77.38110121 172.44023154 86.83818696 166.770401 96.26069641 C161.14895551 105.60291232 155.58790437 114.98070096 150.02622986 124.35856628 C144.5196346 133.64294043 138.99808922 142.91775278 133.42274475 152.16108704 C132.77692444 153.23326477 132.77692444 153.23326477 132.11805725 154.32710266 C131.75720032 154.9246637 131.39634338 155.52222473 131.02455139 156.13789368 C129.23927494 159.15969216 127.50731946 162.21084974 125.770401 165.26069641 C126.63768829 165.25625519 127.50497559 165.25181396 128.39854431 165.24723816 C136.60702553 165.20701795 144.81547324 165.17663943 153.02403069 165.15707207 C157.24324147 165.14667384 161.46237022 165.13258776 165.68153381 165.1098175 C169.75993267 165.08794688 173.83825307 165.07609806 177.91670609 165.07094193 C179.46587991 165.06727152 181.01504987 165.06010478 182.56418991 165.0492363 C200.52665065 164.92832735 214.57801364 167.57338068 227.9344635 180.32710266 C237.52250185 190.36401921 241.18019944 202.40850002 241.13905334 216.05317688 C240.79659775 228.06139609 236.33092004 239.08156764 228.19618225 247.98335266 C223.16143805 252.5159439 217.66305099 253.75762927 211.07118225 253.56929016 C204.52490546 252.69126662 199.950023 249.14839299 195.957901 244.04975891 C192.82830653 239.33477777 192.29138947 234.81723021 192.770401 229.26069641 C193.80319771 225.49028102 195.01632975 222.21026761 197.457901 219.13569641 C199.38427654 216.38373135 199.24804466 214.53596724 198.770401 211.26069641 C197.46226049 208.89596035 197.46226049 208.89596035 194.770401 207.26069641 C191.26919514 206.662541 187.79793268 206.7386099 184.25379944 206.77827454 C182.64822929 206.77240578 182.64822929 206.77240578 181.01022339 206.76641846 C178.68524006 206.76043902 176.36021937 206.76362141 174.03525543 206.77484131 C170.3527361 206.79207294 166.67100399 206.78461024 162.98847961 206.77058411 C153.83959337 206.74090012 144.69085613 206.75411267 135.54194641 206.76576233 C127.81645623 206.77397119 120.09130907 206.76599841 112.36586761 206.7366333 C108.742987 206.72954562 105.1207119 206.74621277 101.49787903 206.76374817 C99.26677629 206.75803857 97.03567602 206.75122044 94.80458069 206.74311829 C93.8016951 206.75443283 92.79880951 206.76574738 91.76553345 206.77740479 C84.98489798 206.71869311 79.30438751 205.61951379 74.2475853 200.81336212 C69.94653948 195.87462235 68.20611623 191.79642486 67.770401 185.26069641 C68.91184833 179.38254786 70.79829946 174.82598931 73.832901 169.69819641 C74.35013733 168.79617493 74.35013733 168.79617493 74.87782288 167.87593079 C77.90531443 162.63216695 81.04852591 157.45591711 84.16743469 152.26622009 C88.09689162 145.72540757 91.99068498 139.16366411 95.88148499 132.59980774 C101.93905583 122.38158064 108.00773355 112.17064357 114.13514709 101.99409485 C117.19919424 96.8982337 120.2385049 91.78818557 123.26649475 86.67085266 C123.67106903 85.98759918 124.07564331 85.3043457 124.49247742 84.60038757 C126.49190842 81.22364618 128.48949498 77.84584575 130.48329163 74.46577454 C137.09540122 63.29475961 143.93275731 52.30612084 150.770401 41.26069641 C104.570401 41.26069641 58.370401 41.26069641 10.770401 41.26069641 C4.830401 53.14069641 -1.109599 65.02069641 -7.229599 77.26069641 C-12.542099 87.38569641 -12.542099 87.38569641 -14.823349 91.67085266 C-20.15704366 101.76387874 -25.14944764 112.03862 -30.229599 122.26069641 C-36.50660575 134.89103715 -42.78182328 147.51119745 -49.40113831 159.96621704 C-55.34160607 171.18793436 -60.94358922 182.58388286 -66.604599 193.94819641 C-67.77758605 196.29920269 -68.95076212 198.65011467 -70.12413025 201.00093079 C-72.72992901 206.22235792 -75.3338133 211.4447349 -77.93623352 216.66784668 C-79.12504149 219.05108675 -80.31746598 221.43247947 -81.510849 223.81343079 C-85.39468196 231.60316393 -86.69605273 238.37821723 -84.542099 247.01850891 C-81.19498899 256.1393837 -76.41274519 261.15594104 -67.69444275 265.31538391 C-63.66716449 266.85991852 -59.83400037 267.3848272 -55.53736877 267.39872742 C-54.16651878 267.40690742 -54.16651878 267.40690742 -52.76797485 267.41525269 C-51.77771805 267.41629501 -50.78746124 267.41733734 -49.76719666 267.41841125 C-48.71457138 267.42349197 -47.66194611 267.42857269 -46.5774231 267.43380737 C-44.2944738 267.44449618 -42.01151413 267.45312218 -39.72854996 267.45992661 C-36.11364039 267.47173195 -32.4988494 267.49118858 -28.88398743 267.51304626 C-18.60697882 267.57461193 -8.32998323 267.62872083 1.94715881 267.6620636 C8.23592469 267.68301501 14.52447278 267.71832002 20.81311417 267.7628212 C23.20763714 267.77697474 25.60219862 267.78570217 27.99676132 267.78887558 C31.34780918 267.79378736 34.69827926 267.81695255 38.04920959 267.8441925 C39.52852211 267.8396833 39.52852211 267.8396833 41.03771973 267.83508301 C49.7039811 267.93962959 55.40689934 270.04181979 61.770401 276.26069641 C65.77990961 281.74035818 65.5276097 287.7617962 64.770401 294.26069641 C61.79349087 303.41872784 57.00497223 312.00862467 52.645401 320.57319641 C47.6451286 330.41965994 42.80247406 340.33068739 38.05284119 350.3006897 C33.49962094 359.85087994 28.85688834 369.35593799 24.19633484 378.85411072 C22.21068814 382.90160026 20.22833042 386.9506981 18.24569702 390.99966431 C14.85114456 397.93189889 11.45530797 404.86350391 8.05799866 411.79438782 C-1.60515865 431.51291805 -11.17509372 451.25347252 -20.229599 471.26069641 C-16.49099668 469.53997636 -14.70492862 467.65878509 -12.167099 464.38569641 C-8.82880227 460.18678788 -5.3902753 456.18020196 -1.729599 452.26069641 C2.5608734 447.65155839 6.57457588 442.88278217 10.52430725 437.97554016 C13.65207279 434.19502355 16.98313983 430.61588766 20.30555725 427.00679016 C22.69747397 424.34194475 24.96294984 421.61237816 27.207901 418.82319641 C30.86611115 414.28753198 34.71783065 410.00368471 38.68421936 405.7414093 C41.674671 402.50875666 44.50819107 399.19372875 47.270401 395.76069641 C50.9053949 391.24291828 54.7375039 386.98251125 58.6844635 382.74116516 C61.67481458 379.50857894 64.50826429 376.19363775 67.270401 372.76069641 C70.9053949 368.24291828 74.7375039 363.98251125 78.6844635 359.74116516 C81.67481458 356.50857894 84.50826429 353.19363775 87.270401 349.76069641 C90.9053949 345.24291828 94.7375039 340.98251125 98.6844635 336.74116516 C101.67481458 333.50857894 104.50826429 330.19363775 107.270401 326.76069641 C110.90304366 322.24584054 114.73101512 317.9864067 118.6778717 313.74995422 C121.74333711 310.43901524 124.63217089 307.03191603 127.457901 303.51069641 C139.94081901 288.11287242 139.94081901 288.11287242 148.96180725 286.98725891 C155.72734175 286.68962118 160.44984793 288.65415967 166.020401 292.51069641 C170.72908198 297.21937739 171.93007153 301.21849616 172.207901 307.69819641 C171.82543968 317.75146541 166.26493314 323.19843724 159.63368225 330.18647766 C157.03642937 332.93727123 154.63614984 335.80670732 152.270401 338.76069641 C148.63540711 343.27847454 144.8032981 347.53888157 140.8563385 351.78022766 C137.86598743 355.01281388 135.03253771 358.32775508 132.270401 361.76069641 C128.63540711 366.27847454 124.8032981 370.53888157 120.8563385 374.78022766 C117.86598743 378.01281388 115.03253771 381.32775508 112.270401 384.76069641 C108.63540711 389.27847454 104.8032981 393.53888157 100.8563385 397.78022766 C97.86598743 401.01281388 95.03253771 404.32775508 92.270401 407.76069641 C89.07108378 411.73699067 85.74455155 415.52737939 82.270401 419.26069641 C77.9808234 423.8707128 73.96629203 428.63852877 70.01649475 433.54585266 C66.88872921 437.32636927 63.55766217 440.90550516 60.23524475 444.51460266 C57.84332803 447.17944808 55.57785216 449.90901466 53.332901 452.69819641 C49.67469086 457.23386084 45.82297135 461.51770811 41.85658264 465.77998352 C38.866131 469.01263616 36.03261093 472.32766407 33.270401 475.76069641 C29.58681606 480.33547126 25.72038437 484.68016659 21.7223053 488.97798157 C19.09472988 491.80326178 16.55757031 494.67623994 14.082901 497.63569641 C6.88214245 505.83844731 -2.53691862 511.85691851 -13.61631775 512.70991516 C-26.43756349 513.22778182 -37.16322438 510.5755956 -47.229599 502.26069641 C-55.35928674 494.46371831 -60.63312448 485.85993669 -61.53038025 474.42866516 C-61.53424744 473.11511047 -61.53811462 471.80155579 -61.542099 470.44819641 C-61.55885681 469.1423761 -61.57561462 467.83655579 -61.59288025 466.49116516 C-60.92204014 454.64703347 -54.46154413 444.09881283 -49.292099 433.69819641 C-48.39422958 431.87714638 -47.49719107 430.05568647 -46.60093689 428.23384094 C-44.7398095 424.45229843 -42.87513657 420.67253618 -41.00791931 416.89399719 C-37.11070721 409.00077855 -33.25677431 401.08652361 -29.40260315 393.17222595 C-27.33756483 388.93263623 -25.26974349 384.69440428 -23.20225525 380.45600891 C-22.37689628 378.76362654 -21.55153821 377.07124372 -20.72618103 375.37886047 C-18.61241367 371.04503012 -16.49746345 366.71177799 -14.38226318 362.37864685 C-12.69242196 358.91639278 -11.00341976 355.45372982 -9.31459045 351.99098206 C-8.52968178 350.38204696 -7.74444367 348.77327251 -6.95881653 347.16468811 C-0.96957169 334.90092587 4.92060347 322.59155963 10.770401 310.26069641 C9.87663254 310.25483017 8.98286407 310.24896393 8.06201172 310.24291992 C-0.42470005 310.18464441 -8.91115832 310.11237323 -17.39762211 310.0249815 C-21.75899414 309.98054655 -26.12027851 309.94123402 -30.48179626 309.91426086 C-34.70304056 309.88795616 -38.92394245 309.84737 -43.14497185 309.79751015 C-44.74298734 309.78102269 -46.34106179 309.7693971 -47.93914986 309.7630825 C-69.85412208 309.66786024 -89.15354371 304.87021038 -106.229599 290.26069641 C-121.90243649 273.19774638 -128.28945211 254.72347936 -127.40000916 231.71626282 C-126.75415517 222.40967342 -123.83185589 213.98545211 -119.56504822 205.75801086 C-118.84656921 204.34719195 -118.1282925 202.93627 -117.41020203 201.5252533 C-117.04631126 200.81492069 -116.6824205 200.10458809 -116.30750275 199.37273026 C-114.63451486 196.09469449 -112.99740568 192.79902968 -111.35899353 189.50361633 C-110.70481116 188.19152726 -110.05044037 186.87953212 -109.39588928 185.56762695 C-109.06485325 184.90393286 -108.73381721 184.24023876 -108.39274979 183.55643272 C-106.19342758 179.14798856 -103.9924538 174.74036866 -101.79152107 170.33272839 C-99.88358245 166.51164168 -97.97639986 162.69018146 -96.07090759 158.86787415 C-81.38273437 129.40660629 -81.38273437 129.40660629 -74.82044983 117.08764648 C-69.07109613 106.25809275 -63.68594154 95.2397296 -58.229599 84.26069641 C-51.8151077 71.35371479 -45.3957959 58.46104736 -38.63124084 45.73326111 C-36.15513362 41.06174904 -33.76970515 36.35822845 -31.4717865 31.59663391 C-30.90846619 30.4351886 -30.34514587 29.27374329 -29.76475525 28.07710266 C-28.64121468 25.74806916 -27.52687919 23.41457636 -26.42100525 21.07710266 C-18.58419713 5.02515775 -18.58419713 5.02515775 -11.11916256 1.17112446 C-7.39135991 -0.00341142 -3.86714859 -0.01904721 0 0 Z " fill="#001243" transform="translate(199.22959899902344,-0.2606964111328125)"/>
</svg>
