<?xml version="1.0" encoding="UTF-8"?>
<svg version="1.1" xmlns="http://www.w3.org/2000/svg" width="512" height="512">
<path d="M0 0 C2.86106379 2.70492941 5.64097709 5.47136997 8.40161133 8.27856445 C9.33811523 9.19959961 10.27461914 10.12063477 11.23950195 11.06958008 C24.28434048 24.18785893 31.51344221 38.04657132 31.65161133 56.59106445 C31.41131116 73.45069608 25.71230419 86.82507122 14.1734314 98.99568176 C13.57002753 99.63662051 12.96662366 100.27755926 12.34493482 100.93792039 C3.7778397 109.97806758 -5.04762106 118.76779704 -13.84890676 127.57878435 C-16.49950209 130.23334866 -19.14729203 132.89070923 -21.79553223 135.54762268 C-28.15501605 141.92666125 -34.51915914 148.30104112 -40.8839578 154.67477605 C-43.28634217 157.08068157 -45.68841458 159.4868984 -48.09047221 161.89313012 C-58.69716467 172.51824791 -69.30519195 183.14203094 -79.91724205 193.7617979 C-82.50058313 196.34704833 -85.08391866 198.93230431 -87.66723633 201.51757812 C-88.30917484 202.16000038 -88.95111336 202.80242264 -89.61250456 203.46431223 C-100.0435871 213.9037204 -110.46610516 224.35163623 -120.88514237 234.80306485 C-131.60873659 245.55972351 -142.3398405 256.30884349 -153.07838118 267.05058128 C-159.09735124 273.07171412 -165.1130019 279.09608278 -171.1202507 285.12891197 C-176.22636411 290.25672164 -181.33924096 295.37766386 -186.4610769 300.48977139 C-189.07176448 303.09591481 -191.6791257 305.70516986 -194.27782059 308.32327652 C-197.09674199 311.16307301 -199.93097651 313.98708004 -202.76693726 316.80986023 C-203.58231158 317.6362038 -204.3976859 318.46254736 -205.23776853 319.31393164 C-212.34842221 326.3450004 -219.21181767 329.5490741 -228.74755859 332.13574219 C-230.01544472 332.49033005 -230.01544472 332.49033005 -231.3089447 332.8520813 C-234.08425076 333.62599074 -236.86265833 334.38802975 -239.64135742 335.1496582 C-241.59760723 335.69185742 -243.55368442 336.23467976 -245.50959778 336.77809143 C-249.60933731 337.91527004 -253.7105437 339.04693623 -257.81298828 340.17431641 C-263.0099531 341.60263166 -268.20397162 343.04131104 -273.39699841 344.48387051 C-277.44165387 345.60671906 -281.48743951 346.725449 -285.53359413 347.84288216 C-287.44511919 348.37097585 -289.35641281 348.89990816 -291.26744652 349.42977715 C-296.58312714 350.90164822 -301.90499088 352.34597621 -307.23797226 353.75391769 C-309.07840056 354.24426413 -310.91639065 354.7438242 -312.75226212 355.25096512 C-315.57986152 356.02948238 -318.41429631 356.77618762 -321.25195312 357.51708984 C-322.52974656 357.87898108 -322.52974656 357.87898108 -323.833354 358.24818325 C-329.90317611 359.78382719 -333.29808573 359.31543712 -338.91088867 356.46606445 C-341.91392481 352.92402183 -343.35580445 350.04174244 -343.91088867 345.46606445 C-343.46856689 342.70237732 -343.46856689 342.70237732 -342.65405273 339.63574219 C-342.34812195 338.46487564 -342.04219116 337.29400909 -341.72698975 336.08766174 C-341.37719851 334.79572769 -341.0270267 333.50389662 -340.67651367 332.2121582 C-340.31311367 330.84307835 -339.95044198 329.47380501 -339.58843994 328.10435486 C-338.38010297 323.55347447 -337.14626156 319.00966617 -335.91088867 314.46606445 C-335.47275251 312.84915946 -335.03468364 311.23223623 -334.59667969 309.61529541 C-331.80902363 299.33849127 -328.97919863 289.07370519 -326.12768555 278.81445312 C-324.88752465 274.35103311 -323.65784613 269.88479001 -322.43024826 265.41790104 C-321.4680581 261.92382839 -320.49849182 258.43183373 -319.52689362 254.94036674 C-319.06969698 253.29262895 -318.61519547 251.6441406 -318.16359711 249.9948597 C-317.53605808 247.70574881 -316.89807754 245.4197878 -316.25756836 243.13427734 C-315.98941818 242.14241173 -315.98941818 242.14241173 -315.71585083 241.13050842 C-312.87122133 231.10686543 -308.17595267 225.14890166 -300.89282227 217.9467926 C-299.50994632 216.55561506 -299.50994632 216.55561506 -298.09913349 215.13633293 C-295.55210309 212.57459731 -292.99282365 210.02542053 -290.43127608 207.47821224 C-287.66586631 204.72393715 -284.91203321 201.95812797 -282.1566925 199.19378662 C-276.76068769 193.78386188 -271.35401357 188.38472346 -265.94352168 182.98929138 C-259.63582623 176.69848287 -253.3382091 170.39762498 -247.04082334 164.09649896 C-235.79678253 152.84658128 -224.5427512 141.60671011 -213.28344727 130.37207031 C-202.37419116 119.48670868 -191.47335996 108.59299703 -180.58129883 97.69042969 C-168.7093419 85.80704181 -156.83262655 73.92844699 -144.94775009 62.05797905 C-143.67815637 60.78991108 -142.40856535 59.52184041 -141.13897705 58.25376701 C-140.51439252 57.62994029 -139.88980798 57.00611357 -139.24629664 56.36338301 C-134.86055841 51.98237282 -130.47810512 47.59809322 -126.09686279 43.21258736 C-120.74861986 37.85939752 -115.39489196 32.51176321 -110.0343098 27.17092866 C-107.30304589 24.44948131 -104.57413266 21.7257903 -101.85173988 18.99546623 C-98.89090387 16.02618167 -95.9184446 13.06880143 -92.94482422 10.11231995 C-92.09926153 9.26074721 -91.25369884 8.40917448 -90.38251305 7.53179651 C-64.20899841 -18.36972265 -29.51217779 -25.69042131 0 0 Z M-71.91088867 27.46606445 C-72.69463867 28.24852539 -73.47838867 29.03098633 -74.28588867 29.8371582 C-74.82213867 30.37469727 -75.35838867 30.91223633 -75.91088867 31.46606445 C-74.31021307 35.4413267 -71.53945311 38.10626749 -68.54321289 41.06079102 C-67.72347488 41.8809671 -67.72347488 41.8809671 -66.88717651 42.7177124 C-65.08467774 44.51882094 -63.27520472 46.31274693 -61.46557617 48.10668945 C-60.21246501 49.35606941 -58.95979548 50.60589247 -57.70755005 51.85614014 C-54.41412912 55.14193317 -51.11474576 58.42167515 -47.81408691 61.70019531 C-44.44559873 65.04820698 -41.08278107 68.40190352 -37.71948242 71.75512695 C-31.12215691 78.33101742 -24.51851884 84.90052961 -17.91088867 91.46606445 C-7.99277106 86.80248344 0.10473943 76.16608511 3.96411133 66.02856445 C6.23296709 58.18946399 5.69327343 50.8827197 2.66723633 43.31762695 C-0.19626225 38.14348348 -4.24670981 34.10044819 -8.40991211 29.96557617 C-9.89724763 28.47969218 -11.34795713 26.96500345 -12.79370117 25.4387207 C-21.17897967 16.67328249 -28.59099647 10.70948265 -41.09838867 10.02856445 C-54.61527033 10.41581481 -62.93703042 18.40496035 -71.91088867 27.46606445 Z M-97.22131258 52.65228987 C-97.78291895 53.21427596 -98.34452532 53.77626204 -98.92315006 54.35527802 C-99.56956929 54.9997062 -100.21598852 55.64413438 -100.88199621 56.30809069 C-101.59890881 57.02791612 -102.3158214 57.74774156 -103.05445862 58.48937988 C-103.81077023 59.24483707 -104.56708184 60.00029426 -105.34631199 60.77864408 C-107.90220819 63.33288167 -110.45449329 65.89069817 -113.00683594 68.44848633 C-114.8294057 70.2713379 -116.65219518 72.09396982 -118.47518921 73.91639709 C-122.41105174 77.85173412 -126.3450726 81.78890456 -130.27786446 85.72731018 C-135.96409262 91.42164974 -141.65306525 97.11324083 -147.34272134 102.80415505 C-156.57272207 112.03634688 -165.80048534 121.27077176 -175.02685547 130.5065918 C-183.99183283 139.48074181 -192.95785515 148.45384568 -201.92529297 157.42553711 C-202.47762443 157.97813129 -203.02995589 158.53072547 -203.59902466 159.10006493 C-206.36979002 161.87213529 -209.14057603 164.64418502 -211.9113723 167.41622448 C-234.91441278 190.42963933 -257.91382781 213.44667422 -280.91088867 236.46606445 C-279.96890135 237.57417959 -279.02559151 238.68117055 -278.08173943 239.78769779 C-277.5565786 240.40427598 -277.03141777 241.02085417 -276.49034297 241.65611655 C-274.22144995 244.25611464 -271.80703594 246.68928596 -269.36450195 249.12597656 C-268.84668655 249.64393799 -268.32887115 250.16189941 -267.79536438 250.69555664 C-266.10967333 252.38055967 -264.42048536 254.06200816 -262.73120117 255.7434082 C-261.5512842 256.92145703 -260.37159009 258.09972911 -259.19210815 259.2782135 C-256.10699176 262.35953588 -253.01888278 265.43784161 -249.93011475 268.51550293 C-246.77083134 271.66450479 -243.61442351 274.81638616 -240.45776367 277.96801758 C-234.2782634 284.13683556 -228.09559478 290.30246574 -221.91088867 296.46606445 C-216.78586349 292.176061 -211.9878956 287.68363691 -207.27357483 282.94900513 C-206.53663798 282.21292271 -205.79970114 281.47684028 -205.04043287 280.71845233 C-202.58609961 278.26575853 -200.1353438 275.80952189 -197.68457031 273.35327148 C-195.9202283 271.58864724 -194.15566574 269.82424348 -192.39089966 268.06004333 C-188.59934694 264.26871791 -184.80932605 260.47587132 -181.02070808 256.68161392 C-175.54308884 251.19584648 -170.06269028 245.7128625 -164.58162277 240.23054062 C-155.68771012 231.33444266 -146.79603009 222.43611669 -137.90576172 213.53637695 C-129.27282309 204.89425072 -120.63882839 196.25318179 -112.00341797 187.61352539 C-111.47058482 187.08042952 -110.93775168 186.54733366 -110.38877208 185.99808337 C-107.715535 183.32354119 -105.04227721 180.64901972 -102.36900914 177.97450852 C-80.21309157 155.80823457 -58.06083806 133.63830227 -35.91088867 111.46606445 C-36.85304121 110.35797046 -37.79648508 109.25097434 -38.74045849 108.14443111 C-39.26569739 107.52785293 -39.79093628 106.91127474 -40.33209151 106.27601236 C-42.5977015 103.67869577 -45.00577294 101.24388009 -47.44140625 98.80615234 C-47.95761536 98.28819092 -48.47382446 97.77022949 -49.00567627 97.23657227 C-50.68644406 95.55145716 -52.37077794 93.86996201 -54.05541992 92.1887207 C-55.23286798 91.01059818 -56.41016762 89.83232732 -57.58732605 88.65391541 C-60.04080954 86.19896515 -62.49607408 83.74581427 -64.95263672 81.29394531 C-68.10809601 78.14422061 -71.25899383 74.98997665 -74.40860462 71.83440495 C-76.83191493 69.40749352 -79.2575864 66.9829534 -81.6839962 64.55914116 C-82.84780046 63.39600547 -84.01085825 62.23212239 -85.17316628 61.06749153 C-86.7888263 59.44930831 -88.40762816 57.83433723 -90.02734375 56.22021484 C-91.40917595 54.83957603 -91.40917595 54.83957603 -92.81892395 53.43104553 C-95.06822125 50.98408519 -95.06822125 50.98408519 -97.22131258 52.65228987 Z M-293.91088867 262.46606445 C-296.13040768 270.51449714 -298.34719231 278.56367571 -300.56046295 286.61382866 C-301.5881924 290.35156886 -302.61687175 294.08904225 -303.64770508 297.82592773 C-304.64196086 301.43035063 -305.63374343 305.03544555 -306.62379456 308.64102554 C-307.00248191 310.01841728 -307.38206888 311.39556201 -307.76255798 312.77245712 C-308.29418036 314.69685652 -308.82234595 316.62220986 -309.3503418 318.54760742 C-309.65234497 319.64458954 -309.95434814 320.74157166 -310.26550293 321.87179565 C-310.99136047 324.34398154 -310.99136047 324.34398154 -310.91088867 326.46606445 C-297.0741491 323.39463046 -283.47282116 319.61179895 -269.84838867 315.71606445 C-267.70981682 315.10763987 -265.57114552 314.4995647 -263.43237305 313.8918457 C-258.25739451 312.42060131 -253.08364905 310.94508767 -247.91088867 309.46606445 C-249.40527508 305.98315789 -251.39671033 303.73228801 -254.06933594 301.06469727 C-254.92684952 300.20410706 -255.7843631 299.34351685 -256.66786194 298.45684814 C-257.59497482 297.53692078 -258.52208771 296.61699341 -259.47729492 295.66918945 C-260.43647615 294.71120079 -261.39528751 293.75284167 -262.35374451 292.79412842 C-264.35889008 290.79054412 -266.36734287 288.79035681 -268.37841797 286.79272461 C-270.96176179 284.22642751 -273.53841615 281.65353895 -276.11287022 279.07832718 C-278.08990769 277.10156089 -280.06953473 275.12740579 -282.05006218 273.15413666 C-283.46534053 271.74360376 -284.87910795 270.33155537 -286.29286194 268.91949463 C-287.14722336 268.07151306 -288.00158478 267.22353149 -288.88183594 266.34985352 C-290.01529198 265.22211517 -290.01529198 265.22211517 -291.17164612 264.07159424 C-292.63885322 262.35301491 -292.63885322 262.35301491 -293.91088867 262.46606445 Z " fill="#001243" transform="translate(480.910888671875,17.533935546875)"/>
<path d="M0 0 C1.20009705 -0.00686325 2.40019409 -0.0137265 3.63665771 -0.02079773 C6.88430384 -0.03581424 10.13158371 -0.03760312 13.3792491 -0.03185534 C16.10318063 -0.02873703 18.82706165 -0.03488394 21.55098593 -0.04089409 C27.97641739 -0.05486398 34.40171562 -0.05343725 40.82714844 -0.04199219 C47.4376821 -0.03047717 54.04781164 -0.04466006 60.65829217 -0.07138866 C66.35970694 -0.09357113 72.06099503 -0.10017855 77.76244986 -0.09431225 C81.15686043 -0.09095248 84.5510111 -0.09329379 87.94538498 -0.11056328 C91.72431389 -0.12544259 95.50234905 -0.11481969 99.28125 -0.09765625 C100.39515106 -0.10732422 101.50905212 -0.11699219 102.65670776 -0.12695312 C109.08065293 -0.06586772 113.02765023 0.57513479 118.25244141 4.40405273 C121.50248897 8.07346127 121.71816581 11.52944 121.53759766 16.25561523 C121.13388076 19.29731789 120.23973436 21.07412306 118.25244141 23.40405273 C113.6589639 26.70193402 109.79046334 27.52888831 104.22058105 27.52862549 C103.20589752 27.53118851 102.19121399 27.53375153 101.14578247 27.53639221 C100.03822601 27.53429245 98.93066956 27.53219269 97.78955078 27.5300293 C96.61830658 27.53189743 95.44706238 27.53376556 94.24032593 27.53569031 C91.69435344 27.53969573 89.14837735 27.54176928 86.60240173 27.5421524 C82.56615143 27.54329617 78.52999191 27.55616169 74.49377441 27.57171631 C73.81127609 27.57428916 73.12877776 27.57686202 72.42559767 27.57951283 C71.02991733 27.5847795 69.63423706 27.59006498 68.23855686 27.59536886 C58.84636127 27.63039741 49.45427813 27.65703869 40.06201172 27.65454102 C33.72148554 27.65294556 27.38126948 27.66914979 21.04084253 27.70524764 C17.6912255 27.72360248 14.34256568 27.73037546 10.99284363 27.72077179 C7.24491526 27.71110189 3.49829852 27.7324276 -0.24951172 27.76049805 C-1.34087433 27.75030136 -2.43223694 27.74010468 -3.55667114 27.729599 C-13.84735074 27.86693129 -21.76232317 30.99061376 -29.74755859 37.40405273 C-30.40755859 37.40405273 -31.06755859 37.40405273 -31.74755859 37.40405273 C-32.02728516 37.99057617 -32.30701172 38.57709961 -32.59521484 39.18139648 C-33.6660144 41.2467692 -34.86175526 43.05786287 -36.18505859 44.96655273 C-41.89019614 54.15965527 -42.18455367 64.03364942 -42.13523865 74.58505249 C-42.1394193 75.99184232 -42.14490081 77.39862878 -42.15155846 78.80540907 C-42.16593594 82.6434631 -42.16179265 86.48130098 -42.15439165 90.31936646 C-42.14964308 94.46944663 -42.1621847 98.61948117 -42.17240906 102.76954651 C-42.18956946 110.88916394 -42.1904428 119.00870389 -42.18519615 127.12833475 C-42.18114804 133.73075312 -42.18260562 140.33314866 -42.18794441 146.93556595 C-42.18906705 148.34729754 -42.18906705 148.34729754 -42.19021236 149.78754897 C-42.1917439 151.69975459 -42.19328225 153.61196021 -42.19482733 155.52416582 C-42.20854241 173.44006272 -42.20312167 191.35591591 -42.19164211 209.2718118 C-42.18171098 225.64531839 -42.19465011 242.01871195 -42.2185763 258.39220111 C-42.24298623 275.22415859 -42.25257051 292.05606346 -42.24592358 308.88803828 C-42.24243554 318.33004902 -42.24463594 327.77197287 -42.26217461 337.21397018 C-42.27692028 345.25172337 -42.27750117 353.28932845 -42.2601037 361.3270788 C-42.25161073 365.42394758 -42.24940218 369.52055208 -42.26475525 373.61740685 C-42.27866356 377.37541269 -42.27376134 381.13292937 -42.25451601 384.89090736 C-42.24901607 386.87802809 -42.26297609 388.86517412 -42.27787012 390.85224664 C-42.19339699 401.2405486 -40.60301571 412.17750419 -33.74755859 420.40405273 C-33.04373047 421.26063477 -33.04373047 421.26063477 -32.32568359 422.13452148 C-26.96292099 428.12293973 -20.26404726 430.89855651 -12.74755859 433.40405273 C-10.69287045 433.49929201 -8.63516865 433.53320565 -6.57827568 433.5354805 C-5.27854627 433.53932164 -3.97881687 433.54316279 -2.63970172 433.54712033 C-1.188746 433.54634003 0.26220967 433.54546124 1.71316528 433.54449463 C3.24789151 433.54707745 4.78261707 433.55009037 6.31734169 433.55349803 C10.54597851 433.56158128 14.77459838 433.56335834 19.00324202 433.5640955 C23.55964585 433.56594379 28.11604084 433.57349006 32.67243958 433.58023071 C42.64155534 433.59382467 52.6106671 433.5998406 62.57979059 433.60424137 C68.80336626 433.60700239 75.02694037 433.61123952 81.25051498 433.61574554 C98.47767858 433.62794034 115.70484092 433.63823876 132.93200874 433.64162064 C134.58658311 433.64194999 134.58658311 433.64194999 136.27458321 433.64228599 C137.93315146 433.6426134 137.93315146 433.6426134 139.62522614 433.64294744 C141.86587342 433.6433909 144.10652069 433.64383747 146.34716797 433.64428711 C148.01433099 433.64461925 148.01433099 433.64461925 149.71517406 433.64495811 C167.7214314 433.64890545 185.72764825 433.66635661 203.73388995 433.68964663 C222.21538281 433.71335859 240.69685536 433.72582244 259.17836368 433.72698855 C269.55709402 433.72790548 279.93577164 433.73366212 290.31448746 433.75180817 C299.15327793 433.76720714 307.99199939 433.77233086 316.83080073 433.76407006 C321.34023192 433.76016265 325.84952412 433.76109759 330.35893822 433.77512741 C334.48951469 433.78786096 338.61984766 433.78667363 342.75042377 433.7745367 C344.24241131 433.77257874 345.73441606 433.77566275 347.22637941 433.78438106 C360.91659284 433.85929611 369.86889257 431.62850775 380.25244141 422.40405273 C388.08200167 413.43102729 389.70148727 403.7744977 389.63720703 392.18652344 C389.6425798 390.99515778 389.64795258 389.80379211 389.65348816 388.57632446 C389.66576472 385.33472584 389.66521285 382.09342511 389.65975761 378.85181832 C389.6579624 375.44731935 389.6754251 372.0429268 389.69152832 368.63847351 C389.73245141 359.26325115 389.74392574 349.88803767 389.75505829 340.51274109 C389.76557889 331.90628935 389.7823892 323.29997269 389.82315397 314.69360417 C389.83846954 311.30982043 389.84742892 307.92626292 389.8417511 304.54244423 C389.83723536 300.77259952 389.85059954 297.00319808 389.86767578 293.23339844 C389.85845345 291.56175377 389.85845345 291.56175377 389.8490448 289.8563385 C389.89321058 284.3095066 390.02687628 280.14586571 393.25244141 275.40405273 C396.66111702 272.32793084 398.90474632 270.5336388 403.50244141 270.09155273 C409.02221466 270.55153384 411.77909182 272.74544546 415.39686584 276.81811523 C418.37926345 281.48579247 417.80092817 286.79997052 417.75415039 292.15405273 C417.76225487 293.92116859 417.76225487 293.92116859 417.77052307 295.72398376 C417.78086843 298.94577822 417.77332415 302.16690233 417.75681186 305.3886528 C417.74290081 308.7760326 417.74942928 312.16338314 417.75294495 315.55078125 C417.75564527 321.24691321 417.74219712 326.94283428 417.71899414 332.63891602 C417.6924876 339.19061061 417.69060526 345.74195048 417.7023825 352.29368019 C417.71323605 358.62617071 417.70690777 364.95853502 417.69282722 371.29101562 C417.68712218 373.97012366 417.68795617 376.64898587 417.69189262 379.328125 C417.70893017 401.14302281 416.64573434 419.28168472 403.25244141 437.40405273 C402.81416016 438.00862305 402.37587891 438.61319336 401.92431641 439.23608398 C391.74085224 452.19951682 376.03997342 458.61753755 360.25244141 461.40405273 C354.92958404 461.9071486 349.64122865 461.94348624 344.30001831 461.90525818 C342.76175618 461.9091626 341.22349769 461.91481211 339.68524754 461.92202908 C335.50690853 461.93663769 331.328952 461.92669067 327.15062594 461.91229236 C322.62569854 461.90110257 318.10082133 461.91315136 313.57589722 461.9221344 C304.7313546 461.93601407 295.88695547 461.92855014 287.04241978 461.91345882 C276.72911457 461.89653593 266.41584447 461.89981682 256.10252966 461.9035529 C237.69462632 461.90942167 219.28679153 461.89529777 200.87890625 461.87060547 C183.0409895 461.84668063 165.2031643 461.83960521 147.36523438 461.85009766 C127.90988009 461.86152109 108.45456808 461.86341986 88.99921429 461.84899956 C86.92261386 461.84747382 84.84601343 461.84595346 82.76941299 461.84443855 C81.23707412 461.84330183 81.23707412 461.84330183 79.67377891 461.84214215 C72.49467996 461.83741088 65.31559997 461.83924247 58.13650131 461.84350395 C49.38232792 461.84844348 40.62824088 461.84238882 31.8740872 461.82260966 C27.41256314 461.8127757 22.95117022 461.80759022 18.48963928 461.81550217 C14.39754391 461.82261023 10.30571197 461.81563597 6.21365108 461.79789854 C4.74148583 461.79388705 3.26929617 461.79479769 1.79714034 461.8014174 C-10.60957018 461.8523868 -22.87952155 460.67558573 -33.99755859 454.77905273 C-34.6652124 454.43422852 -35.33286621 454.0894043 -36.02075195 453.73413086 C-42.08608859 450.46722163 -46.98894628 446.38379015 -51.74755859 441.40405273 C-52.37919922 440.79174805 -53.01083984 440.17944336 -53.66162109 439.54858398 C-65.78338445 427.02632184 -69.21397002 410.50682363 -69.13523865 393.69828796 C-69.13941876 392.23446378 -69.14489997 390.77064285 -69.15155846 389.30682784 C-69.1659432 385.31108514 -69.16179031 381.31554993 -69.15439165 377.3197962 C-69.14964487 372.99996193 -69.16218319 368.68017158 -69.17240906 364.36035156 C-69.18957336 355.90752143 -69.19044193 347.45476572 -69.18519615 339.00192269 C-69.18114851 332.12825079 -69.18260507 325.25460081 -69.18794441 318.38092995 C-69.18869283 317.40120922 -69.18944126 316.42148849 -69.19021236 315.41207925 C-69.1917439 313.42152136 -69.19328225 311.43096347 -69.19482733 309.44040558 C-69.208544 290.78815618 -69.20312071 272.13594875 -69.19164211 253.48370031 C-69.18171242 236.43835224 -69.19464734 219.39311276 -69.2185763 202.34778144 C-69.24298873 184.82538202 -69.25256979 167.30303314 -69.24592358 149.78061706 C-69.24243589 139.95124867 -69.24463355 130.12196375 -69.26217461 120.29260826 C-69.27692348 111.92440751 -69.27749708 103.55634901 -69.2601037 95.18815096 C-69.25161307 90.92306483 -69.24939642 86.65823252 -69.26475525 82.39315987 C-69.27867068 78.48028987 -69.27375221 74.5678895 -69.25451601 70.6550462 C-69.25077653 69.24800331 -69.25361805 67.84092217 -69.26412766 66.43391355 C-69.3943268 47.65078554 -63.62689832 32.53997599 -50.53271484 19.13061523 C-36.36675057 5.26267264 -19.62660656 -0.08019207 0 0 Z " fill="#001243" transform="translate(68.74755859375,50.595947265625)"/>
</svg>
