<?xml version="1.0" encoding="UTF-8"?>
<svg version="1.1" xmlns="http://www.w3.org/2000/svg" width="512" height="512">
<path d="M0 0 C5.8538224 3.54527272 10.79175042 7.67713248 15.78125 12.33984375 C24.5199325 20.0810239 30.62920892 22.17749688 42.2109375 21.4921875 C45.18519017 21.07527439 48.13310628 20.53880961 51.0859375 19.9921875 C63.83003218 17.67654978 75.62883431 16.85785177 87.3359375 23.1796875 C98.5262006 32.1805513 103.14196359 44.58915954 107.67578125 57.81762695 C110.27769953 65.24958726 113.05776102 70.59482901 120.2109375 74.4921875 C125.10486485 76.50000028 130.10088125 78.2177913 135.09375 79.9609375 C145.54883483 83.72687486 156.72580196 88.67054869 162.4921875 98.7265625 C168.52639654 111.57080745 165.94098381 124.47814076 163.54492188 137.94726562 C161.69502604 148.89417759 161.69502604 148.89417759 164.671875 159.3203125 C165.61933594 160.51914062 165.61933594 160.51914062 166.5859375 161.7421875 C167.30265625 162.66644531 168.019375 163.59070313 168.7578125 164.54296875 C170.47533354 166.60782286 172.20545116 168.64278429 173.9765625 170.66015625 C183.59780009 181.64127445 190.07692878 192.1415748 189.66796875 207.15625 C188.85282667 218.56823917 181.14225295 227.27596611 173.87109375 235.4453125 C165.57871909 244.68151548 165.57871909 244.68151548 162.12890625 256.19140625 C162.72101952 262.75614033 163.63278838 269.19266644 164.7734375 275.6796875 C167.03920646 288.66667548 167.31561415 299.73917755 159.96875 311.203125 C152.75845947 320.59252556 140.13772701 324.70496252 129.3984375 328.6171875 C121.50875963 331.43101269 121.50875963 331.43101269 114.2109375 335.4921875 C114.77443439 343.25213603 117.19586576 350.31871876 119.59375 357.6796875 C120.04580181 359.0852638 120.49718179 360.49105632 120.94793701 361.89704895 C121.90640707 364.88270623 122.86901376 367.86698401 123.8348999 370.85025024 C125.34403939 375.51288907 126.84144456 380.17924078 128.33642578 384.84643555 C130.34087824 391.10205717 132.34764204 397.35692767 134.35742188 403.61083984 C135.30863825 406.57127477 136.25980156 409.53172674 137.2109375 412.4921875 C137.42746979 413.16610786 137.64400208 413.84002823 137.86709595 414.53437042 C140.29803789 422.10174329 142.71865202 429.67220474 145.1161499 437.25024414 C145.758108 439.27215558 146.40441034 441.2926933 147.05523682 443.31176758 C147.94846412 446.08351139 148.82749018 448.85937603 149.703125 451.63671875 C150.09053864 452.82114311 150.09053864 452.82114311 150.48577881 454.02949524 C152.11961583 459.28533802 153.76467937 465.36691283 151.1875 470.55078125 C146.43259662 475.4018821 146.43259662 475.4018821 143.35739517 475.62920189 C142.60009991 475.63477419 141.84280464 475.64034649 141.06256104 475.64608765 C140.19341064 475.65468811 139.32426025 475.66328857 138.42877197 475.67214966 C136.99498199 475.67853958 136.99498199 475.67853958 135.53222656 475.68505859 C134.52720093 475.69323608 133.52217529 475.70141357 132.48669434 475.70983887 C129.14998984 475.73471688 125.81332796 475.75121529 122.4765625 475.765625 C121.33849907 475.77094868 120.20043564 475.77627235 119.02788544 475.78175735 C113.0039487 475.80849969 106.98003276 475.82787095 100.95605469 475.84228516 C94.73040997 475.85893344 88.50529456 475.90371027 82.27985001 475.9546566 C77.49631128 475.98829623 72.71289867 475.99985907 67.92925262 476.00551224 C65.63431504 476.012234 63.33938602 476.02747988 61.04456329 476.05140305 C57.83167785 476.08298503 54.62022618 476.08310126 51.40722656 476.07568359 C50.4594635 476.09208893 49.51170044 476.10849426 48.53521729 476.12539673 C44.15670031 476.0840276 41.15287794 475.91932181 37.66072083 473.12165833 C35.09251962 470.36508386 34.02278754 468.48406986 32.89453125 464.91796875 C32.34611572 463.2330835 32.34611572 463.2330835 31.78662109 461.51416016 C31.22322021 459.67797119 31.22322021 459.67797119 30.6484375 457.8046875 C30.23675963 456.51300742 29.82346554 455.22184151 29.40869141 453.93115234 C28.2455717 450.28928514 27.11109656 446.6390314 25.98272705 442.98626709 C25.15554059 440.31316938 24.32226535 437.64202331 23.48779297 434.97119141 C19.6932129 422.82240402 15.93701068 410.66215091 12.2109375 398.4921875 C9.06517817 400.01333177 6.44052795 401.76047016 3.6484375 403.8671875 C-5.20568999 410.07674397 -13.9510813 412.85939669 -24.7890625 411.4921875 C-32.52697931 409.77503536 -38.28952783 406.04632876 -44.4765625 401.19921875 C-46.75862693 399.3306668 -46.75862693 399.3306668 -49.7890625 398.4921875 C-50.03074158 399.27399887 -50.27242065 400.05581024 -50.52142334 400.86131287 C-52.81039222 408.2624488 -55.10468707 415.66190309 -57.40484238 423.05956936 C-58.58692395 426.86198239 -59.76700339 430.66499181 -60.94238281 434.46948242 C-62.07873508 438.14738015 -63.22050871 441.8235557 -64.36591339 445.49864388 C-64.79994727 446.89452312 -65.23209036 448.29099186 -65.66222382 449.68807793 C-72.44206817 471.6958116 -72.44206817 471.6958116 -78.7890625 475.4921875 C-82.12932599 476.07867838 -85.42378542 476.04900569 -88.80834961 476.02563477 C-89.81381332 476.03425034 -90.81927704 476.04286591 -91.85520935 476.05174255 C-95.17587087 476.0744283 -98.49569022 476.06765835 -101.81640625 476.05859375 C-104.12659455 476.06382832 -106.43678071 476.07010418 -108.7469635 476.07737732 C-113.58816588 476.08778651 -118.42907441 476.08321259 -123.27026367 476.06860352 C-129.47238133 476.05141919 -135.67357228 476.07490492 -141.87558651 476.11009312 C-146.6463077 476.13206059 -151.41680697 476.13062705 -156.18756294 476.1223278 C-158.47409646 476.12150786 -160.7606462 476.12837941 -163.04713249 476.14309883 C-166.24546014 476.16053092 -169.44212011 476.14601159 -172.64038086 476.12329102 C-173.58343079 476.13498322 -174.52648071 476.14667542 -175.49810791 476.15872192 C-179.89493701 476.09521585 -182.86561877 475.89776481 -186.3608551 473.07774353 C-189.60673629 469.62152818 -190.12406815 467.71723811 -190.05267334 462.97506714 C-189.50068353 457.77602346 -187.67414966 452.87868459 -186.046875 447.93359375 C-185.43995076 446.04075427 -184.83302773 444.14791441 -184.22615242 442.25505924 C-183.5774596 440.23945696 -182.92307417 438.22578594 -182.26696777 436.21258545 C-180.90174997 432.0227413 -179.55346991 427.82757084 -178.20800781 423.63134766 C-176.34560021 417.82717788 -174.47730167 412.02494251 -172.60449219 406.22412109 C-168.81992582 394.49807607 -165.06357915 382.76308694 -161.33590889 371.0188303 C-159.9579049 366.67848842 -158.56826471 362.34197498 -157.17626953 358.00610352 C-156.45820909 355.74900371 -155.74057413 353.49176849 -155.0234375 351.234375 C-154.52802963 349.70276482 -154.52802963 349.70276482 -154.02261353 348.14021301 C-153.57781143 346.7305854 -153.57781143 346.7305854 -153.12402344 345.29248047 C-152.86457947 344.48100555 -152.6051355 343.66953064 -152.33782959 342.83346558 C-151.74717556 340.31347969 -151.69124318 338.07144742 -151.7890625 335.4921875 C-158.23774372 331.96744248 -164.68578556 329.10445979 -171.58911133 326.61499023 C-195.3518969 318.03182588 -195.3518969 318.03182588 -200.7890625 306.4921875 C-205.75566767 293.53847033 -203.47981512 281.19439405 -201.12304688 267.90039062 C-199.42081157 257.90155899 -199.42081157 257.90155899 -201.8125 248.19921875 C-202.25851563 247.57402344 -202.70453125 246.94882812 -203.1640625 246.3046875 C-203.7003125 245.551875 -204.2365625 244.7990625 -204.7890625 244.0234375 C-206.7055832 241.59784099 -208.70510912 239.26303748 -210.73925781 236.93579102 C-221.14881719 225.01902162 -227.89057785 213.75633383 -227.00683594 197.53857422 C-225.97766535 187.8676013 -219.95779018 180.54673593 -213.7890625 173.4921875 C-212.45531241 171.9226837 -211.12946686 170.34691191 -209.80737305 168.76757812 C-208.54141358 167.25706623 -207.26511457 165.75523773 -205.98828125 164.25390625 C-200.82790171 157.77364278 -199.25457342 152.76243854 -200.09326172 144.49267578 C-200.58246341 141.16822465 -201.13804225 137.86297124 -201.7265625 134.5546875 C-204.0025501 121.55226329 -206.28600166 108.02979963 -198.38671875 96.46875 C-191.05014511 87.39220657 -182.32871761 83.52787196 -171.62890625 79.5859375 C-170.70110352 79.24111328 -169.77330078 78.89628906 -168.81738281 78.54101562 C-166.95827252 77.85463389 -165.09442455 77.18091838 -163.22558594 76.52148438 C-156.62238649 74.10657213 -151.69151709 71.86111751 -148.1015625 65.50390625 C-147.6684375 64.40691406 -147.2353125 63.30992188 -146.7890625 62.1796875 C-146.54542969 61.57938721 -146.30179687 60.97908691 -146.05078125 60.3605957 C-144.72167197 57.04591644 -143.49527119 53.69698776 -142.2890625 50.3359375 C-137.71664702 37.61657977 -132.61954151 27.68658692 -120.6015625 20.6171875 C-110.55220831 16.59744582 -99.04855284 18.08386524 -88.6640625 19.9921875 C-75.44878655 22.79028141 -75.44878655 22.79028141 -62.7890625 19.6796875 C-58.60231253 16.58589963 -54.72745832 13.05421597 -50.78173828 9.65869141 C-34.96566179 -3.83860677 -19.26491856 -10.41492796 0 0 Z M-39.2890625 30.0546875 C-50.96368067 40.06513822 -61.6427125 45.41095313 -77.42407227 44.21484375 C-83.52514813 43.63537554 -89.56542884 42.64191408 -95.58642578 41.50927734 C-103.56747525 40.02187706 -103.56747525 40.02187706 -111.4140625 41.4921875 C-119.11384297 47.97621316 -121.65450652 58.69885277 -124.86328125 67.84960938 C-129.17785478 79.62223145 -135.41748847 88.46495302 -146.8828125 93.98046875 C-151.81487529 96.12991504 -156.80414041 98.11079986 -161.81640625 100.0625 C-162.81208618 100.45308594 -162.81208618 100.45308594 -163.82788086 100.8515625 C-165.68631199 101.57707477 -167.55005225 102.28894437 -169.4140625 103 C-173.73500764 104.91041787 -177.44106355 107.14418855 -180.7890625 110.4921875 C-181.68034342 118.27063915 -180.69847812 125.79644292 -179.2890625 133.4296875 C-176.70768337 147.67412442 -176.42453369 160.18394141 -184.3515625 172.8671875 C-187.09139871 176.76430821 -190.18029643 180.3278392 -193.2890625 183.9296875 C-201.01424763 192.82780295 -201.01424763 192.82780295 -205.5390625 203.5546875 C-203.62360901 211.05688032 -197.84168982 216.62839836 -192.8515625 222.3046875 C-182.67749386 233.920997 -177.33695903 244.01358417 -177.51953125 259.515625 C-177.81820161 263.92209492 -178.49649741 268.15308911 -179.2890625 272.4921875 C-181.47750565 283.96356934 -181.47750565 283.96356934 -180.7890625 295.4921875 C-177.56127792 299.57560054 -174.25123963 301.49400758 -169.4765625 303.4296875 C-168.87553711 303.67855713 -168.27451172 303.92742676 -167.65527344 304.18383789 C-164.35626424 305.53216176 -161.02868837 306.77545376 -157.66796875 307.9609375 C-145.06953165 312.41802289 -135.04501646 317.54939562 -128.5625 329.8125 C-125.44676189 336.38570234 -122.9063258 343.21882145 -120.37524414 350.03466797 C-117.44754667 358.41466763 -117.44754667 358.41466763 -111.796875 364.91015625 C-105.04751555 366.86668263 -98.09447931 365.24251527 -91.3515625 363.9921875 C-76.2977079 361.29992445 -61.83907191 360.11242988 -48.58984375 368.9609375 C-46.24832074 370.72681807 -44.02537861 372.5943963 -41.7890625 374.4921875 C-39.90345005 376.0435275 -38.0098679 377.58430682 -36.1105957 379.11889648 C-34.79926952 380.17844294 -33.49285829 381.24410969 -32.19213867 382.31665039 C-25.80711792 387.60538485 -25.80711792 387.60538485 -17.9765625 389.5546875 C-10.70015901 387.12921967 -5.17248518 382.01187545 0.5234375 377.0546875 C10.48170195 368.41395554 20.51831901 362.09145782 33.9609375 362.1796875 C34.787146 362.18097656 35.61335449 362.18226563 36.46459961 362.18359375 C43.13459296 362.2849518 49.49428166 363.19681565 56.04052734 364.41357422 C65.17676689 366.12595878 65.17676689 366.12595878 74.26171875 364.84765625 C77.09721699 362.87587691 78.02230002 360.5876118 79.5234375 357.4921875 C79.82048584 356.8827832 80.11753418 356.27337891 80.42358398 355.64550781 C82.81778299 350.61397356 84.81062762 345.45384246 86.7734375 340.2421875 C92.09191679 326.19892914 97.81820478 317.68095952 111.55078125 311.06640625 C116.76667503 308.82307093 122.08362785 306.88510991 127.44824219 305.02758789 C136.51047186 301.94732485 136.51047186 301.94732485 143.2109375 295.4921875 C144.07379981 287.68160269 143.11870885 280.15780854 141.7109375 272.4921875 C138.8971655 257.00742825 139.29747849 244.54987602 148.1875 231.21484375 C150.89154842 227.57638478 153.89979895 224.29777242 156.9921875 220.98828125 C163.85848372 213.321773 163.85848372 213.321773 167.6484375 203.9921875 C166.57735169 195.42350103 160.11228864 189.0839819 154.453125 182.99609375 C144.02065653 171.34589812 139.50048596 160.21405456 140.05273438 144.69091797 C140.32626286 140.88937853 141.01887063 137.17388521 141.7109375 133.4296875 C143.08801119 125.80977119 144.45594993 118.23291696 143.2109375 110.4921875 C141.04528874 107.43480102 140.43770337 106.94851546 137.2109375 105.4921875 C136.22480469 105.02941406 135.23867188 104.56664063 134.22265625 104.08984375 C129.30055257 101.89914528 124.31378115 99.90704313 119.28125 97.98828125 C103.9434156 92.10948157 95.12338106 85.54925818 88.2109375 70.4921875 C86.40547459 66.03811779 84.78650533 61.51866941 83.16210938 56.99609375 C80.96652239 51.03974887 78.95558977 45.64328082 73.80859375 41.609375 C70.73880474 40.28913491 68.96215286 40.27301999 65.6484375 40.6171875 C63.95460938 40.78927734 63.95460938 40.78927734 62.2265625 40.96484375 C56.58933716 41.67021816 50.97099649 42.54442165 45.36694336 43.47509766 C32.43265152 45.5599055 21.18360687 44.22047178 10.13671875 36.72265625 C6.01030669 33.57688684 2.11542873 30.19037696 -1.79492188 26.7824707 C-9.35234461 20.13113516 -9.35234461 20.13113516 -18.6640625 16.7421875 C-26.83102052 17.36065617 -33.37095344 24.96338579 -39.2890625 30.0546875 Z M-136.7890625 369.4921875 C-140.20892854 377.53896566 -142.86774411 385.77068182 -145.44921875 394.1171875 C-145.88438447 395.51393917 -146.31989228 396.9105843 -146.75572205 398.30712891 C-147.89409788 401.95828373 -149.02759127 405.61093632 -150.16009521 409.26391602 C-151.08003253 412.22843816 -152.00336051 415.19189877 -152.92688847 418.15530396 C-154.84679522 424.31598087 -156.76395009 430.4775129 -158.67602539 436.640625 C-159.01259659 437.72520996 -159.34916779 438.80979492 -159.69593811 439.92724609 C-161.08053292 444.44274259 -162.43191593 448.9683656 -163.7890625 453.4921875 C-139.6990625 453.4921875 -115.6090625 453.4921875 -90.7890625 453.4921875 C-87.9015625 444.5409375 -85.0140625 435.5896875 -82.0390625 426.3671875 C-81.13575195 423.5710498 -80.23244141 420.77491211 -79.30175781 417.89404297 C-78.57338524 415.63254574 -77.84518413 413.37099328 -77.1171875 411.109375 C-76.74899902 409.97185791 -76.38081055 408.83434082 -76.00146484 407.66235352 C-73.42550107 399.64957083 -71.05640472 391.59674417 -68.7890625 383.4921875 C-73.90303091 383.21324377 -78.4565227 383.55348668 -83.48828125 384.56689453 C-98.65694448 387.61955296 -113.92915249 389.15622319 -127.5390625 380.8046875 C-130.3539743 377.9115837 -132.41763681 374.73518732 -134.5546875 371.3203125 C-134.96203125 370.71703125 -135.369375 370.11375 -135.7890625 369.4921875 C-136.1190625 369.4921875 -136.4490625 369.4921875 -136.7890625 369.4921875 Z M98.2109375 369.4921875 C97.82164062 370.14445312 97.43234375 370.79671875 97.03125 371.46875 C92.56917924 378.4394504 87.4786973 383.65211868 79.32568359 386.0456543 C68.71571658 388.28597174 56.51743142 386.83784749 46.0324707 384.55957031 C42.45214738 383.79569543 39.11338586 383.41604117 35.4675293 383.45117188 C34.66735886 383.45709351 33.86718842 383.46301514 33.04277039 383.46911621 C32.43826553 383.47672974 31.83376068 383.48434326 31.2109375 383.4921875 C32.89537211 388.96160891 34.58214604 394.43030248 36.27075195 399.8984375 C36.84034789 401.74396001 37.40939118 403.58965322 37.9777832 405.43554688 C42.92475043 421.49884814 48.06690766 437.4885391 53.2109375 453.4921875 C77.3009375 453.4921875 101.3909375 453.4921875 126.2109375 453.4921875 C122.20261875 440.49818717 118.18761332 427.5065718 114.15185547 414.52111816 C113.21733678 411.51278756 112.284399 408.50396977 111.3515625 405.49511719 C109.86808178 400.71381956 108.37593708 395.9353018 106.87753296 391.15866089 C106.30796607 389.33880239 105.74109226 387.51809885 105.1769104 385.69656372 C104.3894446 383.15607087 103.59246878 380.61875816 102.79296875 378.08203125 C102.56017212 377.32360931 102.32737549 376.56518738 102.08752441 375.78378296 C101.519791 374.00047549 100.87289042 372.24270888 100.2109375 370.4921875 C99.2209375 369.9971875 99.2209375 369.9971875 98.2109375 369.4921875 Z " fill="#001243" transform="translate(274.7890625,15.5078125)"/>
<path d="M0 0 C0.69319336 0.16097168 1.38638672 0.32194336 2.10058594 0.48779297 C36.82002014 8.85034063 65.69613702 31.75488849 84.37109375 61.7734375 C102.62049189 92.0708709 107.50292324 128.91707753 99.47998047 163.22363281 C94.08652219 183.92024571 84.05325465 202.92804579 70 219 C69.39285156 219.72832031 68.78570312 220.45664062 68.16015625 221.20703125 C47.52486318 245.67927224 16.35628591 260.03593585 -15 264 C-32.54049208 264.90919116 -50.01229998 264.83603062 -67 260 C-67.66692871 259.81808105 -68.33385742 259.63616211 -69.02099609 259.44873047 C-87.59620141 254.26915042 -104.31602908 244.33453557 -119 232 C-119.7115625 231.4121875 -120.423125 230.824375 -121.15625 230.21875 C-125.92582335 226.18295716 -130.0672212 221.85126218 -134 217 C-134.69996094 216.13761719 -135.39992187 215.27523437 -136.12109375 214.38671875 C-157.99782329 186.36782251 -168.22236201 151.43819834 -164.53515625 116.05078125 C-162.28795863 97.80124642 -156.9186565 81.0499709 -148 65 C-147.50757813 64.09121094 -147.01515625 63.18242187 -146.5078125 62.24609375 C-129.60917091 32.50639401 -100.78884415 10.90841976 -68.08837891 1.56542969 C-46.00281809 -4.41424752 -22.32526177 -5.30475191 0 0 Z M-110 52 C-110.59167969 52.515625 -111.18335938 53.03125 -111.79296875 53.5625 C-129.16804063 69.41054656 -140.66302817 96.15313592 -142.22314453 119.3125 C-142.70919696 134.2770232 -142.58745956 148.6646283 -138 163 C-137.79101074 163.67772461 -137.58202148 164.35544922 -137.36669922 165.05371094 C-132.72112601 179.75947303 -124.98039419 192.2973254 -115 204 C-114.34257812 204.83917969 -114.34257812 204.83917969 -113.671875 205.6953125 C-97.67041891 226.07049992 -71.43991641 237.12230217 -46.65234375 241.60546875 C-14.02266891 245.13017159 15.3896885 236.5915761 41 216 C41.72960937 215.42507813 42.45921875 214.85015625 43.2109375 214.2578125 C48.94991543 209.51691769 53.47628922 203.88410206 58 198 C58.91265625 196.82824219 58.91265625 196.82824219 59.84375 195.6328125 C77.60335102 171.65735112 82.82721114 142.44620419 79.6953125 113.14990234 C75.36936308 84.74982368 58.73798096 58.31287115 35.98364258 41.01318359 C-9.96992028 7.53004964 -69.31540148 13.77474681 -110 52 Z " fill="#001243" transform="translate(287,88)"/>
<path d="M0 0 C1.12535156 0.04833984 1.12535156 0.04833984 2.2734375 0.09765625 C7.59621092 1.99864676 10.32748491 7.89894339 12.63093567 12.74981689 C12.95510971 13.45628357 13.27928375 14.16275024 13.61328125 14.890625 C14.13537422 16.00277374 14.13537422 16.00277374 14.66801453 17.13739014 C15.39561266 18.69183647 16.11893392 20.24829131 16.83813477 21.80664062 C17.94270526 24.19877286 19.0610215 26.58409992 20.18164062 28.96875 C20.88882687 30.48399907 21.59523531 31.99961146 22.30078125 33.515625 C22.80222404 34.5874704 22.80222404 34.5874704 23.313797 35.68096924 C25.625 40.70454845 25.625 40.70454845 25.625 42.9375 C27.403302 43.18657104 27.403302 43.18657104 29.2175293 43.44067383 C33.6267325 44.06124722 38.03371536 44.69651442 42.44018555 45.33618164 C44.34553817 45.61068846 46.25146542 45.88123764 48.15795898 46.14770508 C50.90249699 46.53201196 53.64463527 46.9306303 56.38671875 47.33203125 C57.23586349 47.44779007 58.08500824 47.56354889 58.95988464 47.68281555 C64.43576641 48.50303523 68.29384784 49.76711695 72.4375 53.625 C74.16435066 56.98781444 74.44781538 60.29637999 73.625 63.9375 C70.86477382 68.7096262 67.63490127 71.71995133 63.265625 74.9453125 C50.39944792 84.52841789 50.39944792 84.52841789 43.24053955 98.18395996 C42.99177361 107.78899139 46.40728228 117.20163746 49.63090515 126.12483215 C51.85292188 132.27577323 53.97453926 138.59916604 51.4375 144.875 C48.2537888 148.49784378 46.87519939 149.75946528 41.921875 150.46484375 C34.47122399 150.35930409 27.93355653 146.0782636 21.5 142.6875 C20.15578341 141.99706885 18.81073565 141.30825342 17.46484375 140.62109375 C7.39153023 135.4503809 7.39153023 135.4503809 4.84820557 133.74865723 C1.7419409 131.7159883 0.23654668 130.82246275 -3.48339844 131.5222168 C-4.91474121 132.22278198 -4.91474121 132.22278198 -6.375 132.9375 C-7.67872559 133.55588745 -7.67872559 133.55588745 -9.00878906 134.18676758 C-9.87729492 134.64720459 -10.74580078 135.1076416 -11.640625 135.58203125 C-12.61386719 136.09443359 -13.58710938 136.60683594 -14.58984375 137.13476562 C-15.59144531 137.66779297 -16.59304687 138.20082031 -17.625 138.75 C-21.53820909 140.81914128 -25.45534139 142.88060643 -29.375 144.9375 C-30.29112061 145.42573242 -31.20724121 145.91396484 -32.15112305 146.41699219 C-33.01777588 146.86848633 -33.88442871 147.31998047 -34.77734375 147.78515625 C-35.53781006 148.18613525 -36.29827637 148.58711426 -37.08178711 149.00024414 C-41.15288411 150.66413655 -45.0951178 150.85570168 -49.375 149.9375 C-52.48207903 147.97179694 -53.95944972 146.61786075 -54.8561554 142.99185181 C-55.586742 137.11339322 -54.8883638 132.44183877 -53.29296875 126.7734375 C-52.85101791 125.05759918 -52.41029863 123.34144326 -51.97070312 121.625 C-51.26942791 118.95685348 -50.55710383 116.29296624 -49.82250977 113.63378906 C-49.11355124 111.04181572 -48.45064327 108.44132167 -47.79296875 105.8359375 C-47.56199997 105.0472226 -47.33103119 104.25850769 -47.09306335 103.44589233 C-46.29681264 100.19263629 -45.77019303 98.02774482 -47.4402771 95.01719666 C-48.98428694 93.17926098 -50.60893704 91.56171713 -52.375 89.9375 C-53.25575195 89.0297583 -54.13650391 88.1220166 -55.04394531 87.18676758 C-55.92147461 86.32720459 -56.79900391 85.4676416 -57.703125 84.58203125 C-58.67721098 83.62057201 -59.65116562 82.6589797 -60.625 81.69726562 C-62.13288982 80.21429349 -63.64237153 78.73300841 -65.15429688 77.25415039 C-66.63331683 75.80534851 -68.10603676 74.35037096 -69.578125 72.89453125 C-70.45114258 72.03835205 -71.32416016 71.18217285 -72.22363281 70.30004883 C-75.78258611 66.39174299 -76.96022591 63.36786716 -76.71875 57.96484375 C-76.25203701 55.2122978 -75.34970376 53.16658314 -73.375 51.17578125 C-68.34421136 48.06101563 -62.12845541 47.75720718 -56.375 46.9375 C-54.6739209 46.68589111 -54.6739209 46.68589111 -52.93847656 46.42919922 C-44.7568671 45.21942178 -36.56897616 44.06027973 -28.375 42.9375 C-28.11380371 42.10105957 -27.85260742 41.26461914 -27.58349609 40.40283203 C-26.27738038 36.65757821 -24.70931514 33.08425843 -23.0390625 29.4921875 C-22.55812637 28.45374191 -22.55812637 28.45374191 -22.06747437 27.39431763 C-21.39185031 25.93960555 -20.71437985 24.48574973 -20.03515625 23.03271484 C-19.00168184 20.81610722 -17.98121288 18.59380147 -16.9609375 16.37109375 C-16.30027169 14.95275557 -15.63883914 13.53477424 -14.9765625 12.1171875 C-14.52478134 11.1264473 -14.52478134 11.1264473 -14.06387329 10.11569214 C-12.30756176 6.4003181 -10.56317411 3.55927542 -7.375 0.9375 C-4.50068428 -0.02060524 -2.95730739 -0.19681739 0 0 Z M-2.375 38.9375 C-2.65698242 39.55794189 -2.93896484 40.17838379 -3.22949219 40.81762695 C-4.51690415 43.63364293 -5.82071677 46.44176097 -7.125 49.25 C-7.79015625 50.71469727 -7.79015625 50.71469727 -8.46875 52.20898438 C-8.90703125 53.14677734 -9.3453125 54.08457031 -9.796875 55.05078125 C-10.19487305 55.91485596 -10.59287109 56.77893066 -11.00292969 57.66918945 C-12.52886689 60.19187318 -13.86404862 61.41612565 -16.375 62.9375 C-18.96439879 63.57423741 -21.4400568 64.08415021 -24.0625 64.5 C-25.49368397 64.74626884 -26.92467545 64.99365897 -28.35546875 65.2421875 C-29.04431152 65.35916992 -29.7331543 65.47615234 -30.44287109 65.59667969 C-34.11752004 66.24487402 -37.74126888 67.09395528 -41.375 67.9375 C-37.30934378 72.83713699 -33.02665535 77.32434445 -28.42578125 81.7265625 C-25.05747352 85.35791902 -23.48535213 87.63643477 -23.05859375 92.66796875 C-23.24142851 97.33080252 -24.30517747 101.73939506 -25.4375 106.25 C-25.83158262 107.82760584 -26.21862551 109.40699159 -26.59765625 110.98828125 C-26.77047119 111.67575439 -26.94328613 112.36322754 -27.12133789 113.0715332 C-27.54524405 115.16199392 -27.54524405 115.16199392 -26.375 117.9375 C-25.71491943 117.59904053 -25.05483887 117.26058105 -24.37475586 116.91186523 C-21.36311717 115.38083229 -18.33830238 113.87783349 -15.3125 112.375 C-14.27416016 111.84197266 -13.23582031 111.30894531 -12.16601562 110.75976562 C-2.32549803 105.91760617 -2.32549803 105.91760617 3.625 107.9375 C7.18669858 109.47891496 10.62485626 111.2007437 14.0625 113 C14.98482422 113.47244141 15.90714844 113.94488281 16.85742188 114.43164062 C19.11811545 115.59127101 21.37357555 116.76000342 23.625 117.9375 C24.98072193 113.87033421 23.74642007 110.81721355 22.6875 106.8125 C19.07871605 92.08204383 19.07871605 92.08204383 21.5546875 87.046875 C26.19954379 80.28572324 32.75879902 74.63284076 38.625 68.9375 C35.72967356 67.00728237 34.67230317 66.61695203 31.38671875 66.19140625 C30.15598633 66.01834961 30.15598633 66.01834961 28.90039062 65.84179688 C27.18715355 65.61552028 25.47361298 65.39152876 23.75976562 65.16992188 C18.89915539 64.48206382 14.70772473 63.84343937 10.625 60.9375 C8.89015205 58.47538273 7.66398824 55.86904975 6.4375 53.125 C6.10814453 52.42568359 5.77878906 51.72636719 5.43945312 51.00585938 C4.79455448 49.63528949 4.15645611 48.261495 3.52587891 46.88427734 C2.28592918 44.20477623 0.96014128 41.57058048 -0.375 38.9375 C-1.035 38.9375 -1.695 38.9375 -2.375 38.9375 Z " fill="#001243" transform="translate(257.375,138.0625)"/>
</svg>
