<?xml version="1.0" encoding="UTF-8"?>
<svg version="1.1" xmlns="http://www.w3.org/2000/svg" width="512" height="512">
<path d="M0 0 C1.88623899 -0.00679503 3.77247133 -0.01570862 5.65869141 -0.02655029 C10.72908148 -0.04912623 15.79895647 -0.04059804 20.86935425 -0.02465487 C26.2078375 -0.01188223 31.5462804 -0.02376722 36.88476562 -0.03158569 C45.84513156 -0.04064945 54.80529057 -0.02878068 63.765625 -0.00488281 C74.0842065 0.02232202 84.4022938 0.01350554 94.72086334 -0.01401484 C103.62420085 -0.03679862 112.5273907 -0.0398609 121.43074799 -0.02682149 C126.72906071 -0.01907771 132.02714214 -0.01784416 137.32543945 -0.03450394 C142.30970066 -0.04908519 147.2933327 -0.03868095 152.27752686 -0.01003265 C154.09257977 -0.00349406 155.90768685 -0.00519334 157.72271729 -0.01634598 C178.19742888 -0.13043128 195.91641065 4.63007613 210.99658203 19.17724609 C212.76016232 20.86619827 214.54868329 22.52636426 216.33984375 24.18603516 C224.65160577 31.91131304 232.78127222 39.792787 240.73461914 47.88720703 C244.83413954 52.03948508 249.04882976 55.90968201 253.53125 59.64697266 C253.6432373 59.01766846 253.75522461 58.38836426 253.87060547 57.73999023 C254.82634182 52.57776385 255.97539602 48.67070216 259.53125 44.64697266 C265.17727662 40.80506135 270.38371788 39.99678704 277.09375 40.14697266 C278.39940918 40.1651001 278.39940918 40.1651001 279.73144531 40.18359375 C290.84834478 40.51991359 302.4461361 42.31180369 310.53125 50.64697266 C313.68797131 54.39464416 314.64373993 57.76664012 314.53125 62.64697266 C313.38334752 70.26364325 309.1585228 75.6005182 303.53125 80.64697266 C299.05675031 83.83797878 294.26854917 86.28444631 289.36328125 88.73364258 C288.64503174 89.09237961 287.92678223 89.45111664 287.18676758 89.82072449 C286.64044678 90.09338638 286.09412598 90.36604828 285.53125 90.64697266 C286.30202881 91.39156738 287.07280762 92.13616211 287.86694336 92.90332031 C290.78215692 95.72655727 293.67957723 98.56752572 296.57250977 101.41357422 C297.81592989 102.63218037 299.06383886 103.84622672 300.31665039 105.05517578 C319.75736198 123.83304723 333.5273923 148.07791876 334.16235352 175.67578125 C334.20638969 179.21650837 334.18859589 182.75462238 334.16015625 186.29541016 C334.16098822 188.21009455 334.16345988 190.12477884 334.16746521 192.03945923 C334.17029492 196.01448557 334.15589444 199.98893958 334.12817383 203.96386719 C334.09395548 209.02368884 334.1001831 214.08249882 334.1188364 219.14237022 C334.12946556 223.08212535 334.12041746 227.02165006 334.10545158 230.96138382 C334.10032206 232.82624246 334.10068687 234.69112566 334.10699654 236.55598068 C334.13918922 251.76787102 332.06414994 264.61673251 323.53125 277.64697266 C322.6546875 278.42685547 321.778125 279.20673828 320.875 280.01025391 C316.61670939 285.00446653 317.90306452 292.6821157 317.96875 298.89697266 C318.05347026 309.36053898 317.89371536 318.34140045 311.7421875 327.23291016 C311.13632812 327.82330078 310.53046875 328.41369141 309.90625 329.02197266 C309.31585938 329.62783203 308.72546875 330.23369141 308.1171875 330.85791016 C300.85794984 335.88016219 293.51895732 337.25430768 284.84375 337.17822266 C283.36902222 337.18396301 283.36902222 337.18396301 281.86450195 337.18981934 C279.80060798 337.1925227 277.7366788 337.18527292 275.67285156 337.16845703 C272.53892614 337.14702515 269.40729281 337.16831327 266.2734375 337.19384766 C264.25520334 337.1912041 262.2369706 337.18607855 260.21875 337.17822266 C259.29553955 337.18631958 258.3723291 337.1944165 257.42114258 337.20275879 C249.26248131 337.08690447 241.02332802 335.04277325 235.15625 329.02197266 C227.99992591 321.18478372 227.53125 314.43605526 227.53125 303.64697266 C128.53125 303.64697266 29.53125 303.64697266 -72.46875 303.64697266 C-72.46875 307.27697266 -72.46875 310.90697266 -72.46875 314.64697266 C-74.66911349 322.25656307 -77.84529379 328.0645815 -84.46875 332.64697266 C-91.4110145 336.11435888 -97.45111372 337.24579977 -105.15625 337.17822266 C-106.63097778 337.18396301 -106.63097778 337.18396301 -108.13549805 337.18981934 C-110.19939202 337.1925227 -112.2633212 337.18527292 -114.32714844 337.16845703 C-117.46107386 337.14702515 -120.59270719 337.16831327 -123.7265625 337.19384766 C-125.74479666 337.1912041 -127.7630294 337.18607855 -129.78125 337.17822266 C-130.70446045 337.18631958 -131.6276709 337.1944165 -132.57885742 337.20275879 C-140.73751869 337.08690447 -148.97667198 335.04277325 -154.84375 329.02197266 C-155.44960937 328.43158203 -156.05546875 327.84119141 -156.6796875 327.23291016 C-163.2043217 317.80210701 -162.99030747 308.05271992 -162.7331543 297.02124023 C-162.54423928 287.27994769 -163.73843425 281.8710145 -170.46875 274.64697266 C-172.39453125 271.20556641 -172.39453125 271.20556641 -173.78125 268.08447266 C-174.48701172 266.53566406 -174.48701172 266.53566406 -175.20703125 264.95556641 C-177.78623619 258.19214044 -178.76890928 252.13381335 -178.77514648 244.9621582 C-178.78347 244.13319534 -178.79179352 243.30423248 -178.80036926 242.45014954 C-178.8243236 239.72794788 -178.83322756 237.00598709 -178.83984375 234.28369141 C-178.84882765 232.36765988 -178.85794976 230.451629 -178.86720276 228.53559875 C-178.88366057 224.52021592 -178.89138587 220.50491608 -178.89428711 216.48950195 C-178.89963901 211.39742337 -178.9372001 206.30615012 -178.98303127 201.21429729 C-179.01310715 197.2528872 -179.02001736 193.29166291 -179.02101326 189.3301487 C-179.02516257 187.45624961 -179.03737783 185.58234714 -179.05853081 183.70856285 C-179.22993011 167.19918242 -176.67774717 151.61360269 -169.21875 136.70947266 C-168.88746094 135.98953125 -168.55617187 135.26958984 -168.21484375 134.52783203 C-162.07852449 121.84238657 -152.34696728 112.11101934 -142.40625 102.39697266 C-141.24213023 101.24795025 -140.07871463 100.09821397 -138.91601562 98.94775391 C-136.10827536 96.1725653 -133.29130505 93.40708888 -130.46875 90.64697266 C-132.00269409 89.85141968 -132.00269409 89.85141968 -133.56762695 89.03979492 C-134.92673884 88.32709706 -136.28569893 87.61410965 -137.64453125 86.90087891 C-138.31649536 86.55335571 -138.98845947 86.20583252 -139.68078613 85.84777832 C-147.82140685 81.55761903 -154.77312477 76.2700982 -158.46875 67.64697266 C-159.78930043 62.59143258 -159.74687137 58.41031734 -157.46875 53.64697266 C-152.25316443 45.97699388 -145.01533169 43.23521409 -136.15625 41.18994141 C-131.49642812 40.50380238 -126.92450365 40.28027482 -122.21875 40.20947266 C-121.37924805 40.18723633 -120.53974609 40.165 -119.67480469 40.14208984 C-113.82942655 40.16287546 -109.33222085 41.31773345 -104.46875 44.64697266 C-101.46119199 48.05026199 -100.27931936 50.99559995 -99.3671875 55.35400391 C-99.11074463 56.56213745 -99.11074463 56.56213745 -98.84912109 57.79467773 C-98.72359863 58.40593506 -98.59807617 59.01719238 -98.46875 59.64697266 C-89.25730073 51.12979144 -80.19919212 42.49852608 -71.40649414 33.54760742 C-67.49548149 29.5869493 -63.48900361 25.83314195 -59.24267578 22.23266602 C-57.47474862 20.65233476 -55.91448179 18.98366987 -54.34375 17.20947266 C-39.89141414 2.72458649 -19.44493431 -0.11948139 0 0 Z M-57.59375 58.77197266 C-69.23978556 70.57043373 -69.23978556 70.57043373 -75.53857422 75.94824219 C-79.34719131 79.30017208 -82.89192472 82.92655037 -86.46875 86.52197266 C-87.24347656 87.29283203 -88.01820312 88.06369141 -88.81640625 88.85791016 C-89.54730469 89.59009766 -90.27820313 90.32228516 -91.03125 91.07666016 C-91.69253906 91.73907715 -92.35382813 92.40149414 -93.03515625 93.08398438 C-94.58140726 94.41631856 -94.58140726 94.41631856 -94.46875 95.64697266 C19.05125 95.64697266 132.57125 95.64697266 249.53125 95.64697266 C244.5374121 89.8068986 244.5374121 89.8068986 239.2890625 84.27197266 C238.53238281 83.51400391 237.77570313 82.75603516 236.99609375 81.97509766 C235.83787109 80.82267578 235.83787109 80.82267578 234.65625 79.64697266 C233.89183594 78.87869141 233.12742187 78.11041016 232.33984375 77.31884766 C228.88725338 73.87211907 225.42107168 70.50300791 221.70703125 67.33837891 C218.2446789 64.35924529 215.01674232 61.17965724 211.81640625 57.92431641 C211.31143616 57.41148102 210.80646606 56.89864563 210.28619385 56.37026978 C208.19382598 54.24152257 206.10433303 52.11014994 204.0246582 49.96899414 C194.28999198 39.96345554 182.91369333 29.09664155 168.13371944 28.51275158 C166.75151989 28.50335969 165.3692767 28.4994439 163.98704529 28.49980164 C163.22368097 28.49612495 162.46031665 28.49244826 161.67382008 28.48866016 C159.11383873 28.47764022 156.55389799 28.47378231 153.99389648 28.4699707 C152.15895967 28.46370467 150.32402413 28.45705774 148.48908997 28.45005798 C142.46018353 28.429028 136.43127688 28.41865507 130.40234375 28.40869141 C128.32484486 28.40464314 126.24734611 28.4005262 124.16984749 28.39634132 C114.40682165 28.37729025 104.64380337 28.36306028 94.88076252 28.35472935 C83.62279289 28.34496355 72.36502023 28.31866074 61.10711998 28.27822846 C52.39865754 28.24802937 43.69025144 28.23325679 34.98173767 28.22994834 C29.78402055 28.22760177 24.58651387 28.21869263 19.38885307 28.19348717 C14.49437731 28.17013576 9.60024947 28.1660016 4.70573235 28.17624855 C2.91556132 28.17674234 1.12537276 28.17046848 -0.66474533 28.1566925 C-26.71272736 27.96755853 -40.0817024 41.02914188 -57.59375 58.77197266 Z M-152.65625 150.58447266 C-156.94121168 157.30532987 -158.30374135 165.47749234 -156.96875 173.33447266 C-154.51789373 181.71979223 -150.21844409 187.87542417 -142.8125 192.49072266 C-136.44176851 195.63361686 -130.88967892 195.95429889 -123.91015625 195.94775391 C-122.3781382 195.95418159 -122.3781382 195.95418159 -120.81517029 195.96073914 C-118.65421283 195.96647172 -116.49323608 195.96699061 -114.33227539 195.96264648 C-111.0733817 195.95951316 -107.81542046 195.98286664 -104.55664062 196.00830078 C-83.93840075 196.50277722 -83.93840075 196.50277722 -65.46875 188.64697266 C-63.25134019 186.8019631 -63.25134019 186.8019631 -62.96875 184.08447266 C-64.46879047 173.77169441 -74.27216355 166.29754027 -82.16162109 160.37646484 C-101.7841584 146.20372314 -133.44347976 125.27534262 -152.65625 150.58447266 Z M233.53125 163.64697266 C232.61472656 164.39978516 231.69820313 165.15259766 230.75390625 165.92822266 C224.7950059 171.03835159 219.5436359 175.95318349 217.84375 183.83447266 C218.63654896 187.07774114 219.87570469 188.57679041 222.55859375 190.54931641 C231.63972056 195.60237905 242.24835811 195.80920029 252.36328125 195.88525391 C253.39507004 195.89332565 254.42685883 195.9013974 255.48991394 195.90971375 C257.66586658 195.92349503 259.8418403 195.93424359 262.01782227 195.94213867 C264.22980135 195.95366701 266.44175244 195.97413213 268.65356445 196.00366211 C271.86949337 196.04653477 275.08460132 196.06253298 278.30078125 196.07275391 C279.76533501 196.09901604 279.76533501 196.09901604 281.25947571 196.12580872 C289.1898819 196.10106493 295.47030929 194.04661944 302.28125 190.02197266 C308.93549225 182.99805028 312.10882441 175.29875727 312.53125 165.64697266 C312.25501161 157.55198666 308.8034074 151.65552451 303.53125 145.64697266 C297.45953711 140.03523801 290.90248651 138.01953371 282.76171875 138.21728516 C265.00929992 140.57855005 247.03176056 152.48497848 233.53125 163.64697266 Z M-39.46875 175.64697266 C-38.2319189 191.72577692 -35.33853951 206.04901038 -23.46875 217.64697266 C-17.26166042 222.43160421 -11.82988852 223.89426945 -4.05021667 223.91439819 C-3.3245679 223.91892931 -2.59891912 223.92346042 -1.85128099 223.92812884 C0.56901954 223.94074226 2.98909416 223.93915447 5.40942383 223.9375 C7.14938139 223.94348718 8.88933629 223.95029316 10.62928772 223.95785522 C15.34840872 223.97550344 20.06745717 223.98021012 24.78660798 223.9814868 C27.73723429 223.98290965 30.68784223 223.98718181 33.63846397 223.99248123 C43.93875675 224.0109778 54.23899781 224.01915233 64.53930664 224.01757812 C74.1300874 224.01637691 83.72064305 224.03747623 93.31136686 224.06906545 C101.55445849 224.09524527 109.79747667 224.1059447 118.04060954 224.10466731 C122.95988583 224.10415816 127.87896203 224.10981494 132.79819679 224.13102341 C137.42678472 224.15043445 142.05498225 224.1505107 146.68358421 224.13599014 C148.3778376 224.13390448 150.0721156 224.13858844 151.7663269 224.15071106 C163.0709779 224.22633056 172.23408476 223.45691887 180.90625 215.46728516 C190.69168602 204.505715 194.53125 190.02330483 194.53125 175.64697266 C117.31125 175.64697266 40.09125 175.64697266 -39.46875 175.64697266 Z M-139.46875 232.64697266 C-140.12761263 234.082564 -140.78153328 235.52042417 -141.43334961 236.95922852 C-141.79802841 237.75969101 -142.16270721 238.5601535 -142.53843689 239.38487244 C-144.60387935 244.40709322 -144.54689051 249.81002227 -142.62109375 254.87744141 C-136.98121092 264.76157504 -127.20577832 270.59120238 -116.46875 273.64697266 C-111.09999423 274.37943697 -105.843581 274.35539093 -100.4453125 274.23291016 C-98.963183 274.22168223 -97.48103083 274.21315912 -95.99887085 274.20718384 C-92.14818908 274.18456675 -88.29892378 274.12589082 -84.4487915 274.05895996 C-80.49990997 273.99694047 -76.55079347 273.97004326 -72.6015625 273.93994141 C-64.8899879 273.87611019 -57.17956939 273.77407566 -49.46875 273.64697266 C-50.40173739 272.38406772 -51.33740907 271.12314562 -52.27416992 269.86303711 C-52.79492599 269.16064407 -53.31568207 268.45825104 -53.85221863 267.73457336 C-56.29816631 264.57585823 -59.0196189 261.71599368 -61.78125 258.83447266 C-66.50793693 253.82760593 -70.98952784 248.7361957 -75.2734375 243.34228516 C-76.36011719 242.00810547 -76.36011719 242.00810547 -77.46875 240.64697266 C-77.89729782 239.99167572 -78.32584564 239.33637878 -78.76737976 238.66122437 C-81.21513493 235.27809148 -83.08215325 233.0019477 -87.22088623 231.94241333 C-90.56875996 231.72187234 -93.83050806 231.74707801 -97.18359375 231.86572266 C-98.39447159 231.87704224 -99.60534943 231.88836182 -100.85292053 231.90002441 C-104.70566607 231.94466924 -108.55463686 232.04502597 -112.40625 232.14697266 C-115.02403465 232.18711429 -117.64187786 232.22361383 -120.25976562 232.25634766 C-126.66403983 232.34436646 -133.06612525 232.47809076 -139.46875 232.64697266 Z M229.66967773 243.05981445 C229.32316666 243.66363449 228.97665558 244.26745453 228.61964417 244.88957214 C226.86789667 247.71807128 224.64950888 249.94223066 222.34375 252.33447266 C216.07346619 259.17019269 210.32283638 266.40711253 204.53125 273.64697266 C213.02504853 273.78698207 221.5183522 273.89309753 230.01302528 273.95784569 C233.95897265 273.98894708 237.90412145 274.03102085 241.84960938 274.09960938 C245.66874218 274.16557368 249.48711493 274.20083727 253.30677414 274.21623611 C254.75227171 274.22718653 256.19773525 274.24856374 257.64290237 274.281353 C272.10895755 274.59603652 282.86315391 270.96260612 293.54296875 260.89306641 C297.27607684 256.67590108 298.96122607 253.58506387 298.96875 247.89697266 C298.99775391 246.45064453 298.99775391 246.45064453 299.02734375 244.97509766 C298.56081532 241.84531637 297.80510293 239.78328195 296.50024414 236.93896484 C296.13347061 236.13368347 295.76669708 235.3284021 295.3888092 234.49871826 C295.10581467 233.88764221 294.82282013 233.27656616 294.53125 232.64697266 C286.9195731 232.28973048 279.31007804 232.04594256 271.69189453 231.87792969 C269.10546119 231.80785152 266.51957606 231.71254889 263.93505859 231.59082031 C243.70010687 230.31718885 243.70010687 230.31718885 229.66967773 243.05981445 Z M-29.46875 244.64697266 C-28.32571646 256.07730807 -26.00549834 261.15861104 -17.51953125 268.17431641 C-11.16462363 272.73774531 -4.46889664 273.76799465 3.21537781 273.78741455 C3.87412976 273.79038567 4.5328817 273.7933568 5.21159583 273.79641795 C7.41150334 273.80506594 9.61135617 273.80660989 11.8112793 273.80810547 C13.39183162 273.81273646 14.97238282 273.8177615 16.55293274 273.82315063 C20.84242708 273.83625077 25.13190578 273.84271509 29.421417 273.84716129 C32.10419216 273.85009626 34.78696308 273.8542019 37.4697361 273.85866547 C45.87175593 273.87233497 54.27376603 273.88200394 62.67579621 273.88586736 C72.35916435 273.89034497 82.04239112 273.90788139 91.72571629 273.93686795 C99.22060644 273.95852096 106.71545692 273.96857359 114.21037799 273.96990848 C118.68198609 273.97095404 123.1534612 273.97680857 127.62503624 273.99472809 C131.83496326 274.01127117 136.0446582 274.01333419 140.25460625 274.00458908 C141.79363377 274.003822 143.33267409 274.00811776 144.87166977 274.01804733 C156.70242389 274.08985877 167.4218296 273.52656265 176.34375 264.89306641 C182.3815842 258.46528874 184.53125 253.47705097 184.53125 244.64697266 C113.91125 244.64697266 43.29125 244.64697266 -29.46875 244.64697266 Z " fill="#FFFFFF" transform="translate(178.46875,87.35302734375)"/>
</svg>
