<?xml version="1.0" encoding="UTF-8"?>
<svg version="1.1" xmlns="http://www.w3.org/2000/svg" width="512" height="512">
<path d="M0 0 C0.85829029 -0.00779995 1.71658058 -0.01559991 2.60087967 -0.02363622 C5.47621869 -0.04357639 8.35023715 -0.02778388 11.22558594 -0.01205444 C13.28715793 -0.01882966 15.34872387 -0.02773225 17.41027832 -0.03860474 C23.00946363 -0.06141585 28.60818875 -0.05255404 34.2073822 -0.03670931 C40.06404877 -0.02405983 45.92067565 -0.03578778 51.77734375 -0.04364014 C61.61302777 -0.05273945 71.44852415 -0.04074129 81.28417969 -0.01693726 C92.65928307 0.01027441 104.03393839 0.00146046 115.40903091 -0.02606928 C125.17137617 -0.04875121 134.93358646 -0.05196487 144.69594955 -0.03887594 C150.52837215 -0.03107645 156.36058406 -0.03005369 162.19299316 -0.04655838 C167.67607115 -0.0609904 173.15857086 -0.05100412 178.6415863 -0.0220871 C180.6551772 -0.01546957 182.66881667 -0.01738529 184.68238831 -0.02840042 C187.4288922 -0.04204103 190.17353686 -0.02495854 192.91992188 0 C193.71904621 -0.01115361 194.51817055 -0.02230722 195.34151077 -0.03379881 C199.07649643 0.03215527 201.14768247 0.40100495 204.16406602 2.66043741 C207.06311272 6.41634048 207.15309918 9.30002642 207.07520008 13.85581684 C207.0809693 14.68382405 207.08673852 15.51183125 207.09268257 16.36492959 C207.10596488 19.15198594 207.08344995 21.93761096 207.06123352 24.72459412 C207.06341307 26.73769062 207.06778943 28.75078574 207.07417935 30.76387328 C207.08538514 36.30532378 207.06532443 41.84629315 207.04028904 47.38768232 C207.01873995 53.3597021 207.02600054 59.33169374 207.02980042 65.30374146 C207.03242491 75.65388428 207.016883 86.00388096 206.98861122 96.35398293 C206.95903353 107.20997678 206.93978301 118.0659079 206.93434715 128.92194176 C206.93400345 129.59674894 206.93365976 130.27155612 206.93330564 130.96681201 C206.93161399 134.39376903 206.93010707 137.82072611 206.92867126 141.24768325 C206.91816714 165.52548593 206.88447463 189.80320664 206.8371582 214.08096313 C206.79124188 237.66754724 206.75582097 261.25410892 206.73461914 284.84072876 C206.73396151 285.56767636 206.73330388 286.29462396 206.73262632 287.04360027 C206.72603376 294.34385777 206.71965469 301.64411544 206.71343202 308.94437326 C206.70075071 323.81605086 206.68664444 338.687727 206.67167664 353.55940247 C206.67099019 354.24318912 206.67030374 354.92697578 206.66959648 355.63148324 C206.62358743 401.29932959 206.54425682 446.96712819 206.45996094 492.63491821 C207.28850586 492.61316528 208.11705078 492.59141235 208.97070312 492.56900024 C210.05512695 492.5520813 211.13955078 492.53516235 212.25683594 492.51773071 C213.33288086 492.49597778 214.40892578 492.47422485 215.51757812 492.45181274 C218.45996094 492.63491821 218.45996094 492.63491821 221.70996094 494.50991821 C224.10711706 498.79055415 224.73126594 502.84882878 223.45996094 507.63491821 C220.77894479 511.02341074 219.30487239 512.48196698 214.9977808 513.26166403 C213.64030007 513.28795207 212.28212003 513.28689832 210.92457581 513.26412392 C210.17066665 513.27139112 209.4167575 513.27865832 208.64000261 513.28614575 C206.10495605 513.304444 203.57141334 513.28701915 201.03637695 513.26983643 C199.20420589 513.27559573 197.3720406 513.28353557 195.53988743 513.29347265 C190.49838193 513.31439539 185.45734809 513.30400612 180.41584063 513.28854156 C174.98152967 513.27725417 169.54730128 513.29467777 164.11300659 513.30844116 C153.46454162 513.33070603 142.81625258 513.32585789 132.16778064 513.31137796 C123.5156578 513.3000985 114.86358437 513.29854921 106.2114563 513.30399704 C104.98131697 513.3047632 103.75117765 513.30552937 102.48376137 513.30631875 C99.98496968 513.30791734 97.48617801 513.3095384 94.98738635 513.31118171 C72.20994941 513.3250418 49.43260236 513.31065408 26.65518071 513.28446872 C5.85665755 513.26074019 -14.94171255 513.2628633 -35.74023438 513.28677368 C-59.1009521 513.31353976 -82.46158519 513.32407535 -105.82231617 513.30871236 C-108.31205557 513.30711957 -110.80179499 513.30554772 -113.29153442 513.30399704 C-114.51662088 513.30322566 -115.74170734 513.30245428 -117.00391763 513.30165953 C-125.6483744 513.29733748 -134.29277697 513.30463997 -142.93722534 513.31639481 C-153.468048 513.3303996 -163.99868424 513.32666236 -174.52948546 513.29999109 C-179.90530139 513.28682577 -185.28080621 513.28174681 -190.65662003 513.29823685 C-195.57409107 513.31309311 -200.49096152 513.30501976 -205.40837777 513.27834909 C-207.19093737 513.27274573 -208.97354732 513.27564588 -210.75607479 513.28772803 C-213.17299677 513.30285845 -215.58784176 513.28742045 -218.00465393 513.26412392 C-218.702419 513.27582975 -219.40018407 513.28753558 -220.11909354 513.29959613 C-223.93898163 513.22562282 -225.46442343 512.69643054 -228.46949673 510.25184286 C-231.31768928 506.6520588 -231.27926497 504.45709343 -231.00097656 500.01773071 C-230.54003906 497.63491821 -230.54003906 497.63491821 -228.79003906 494.50991821 C-225.12944183 492.39803519 -223.48340558 492.43390676 -219.33691406 492.51773071 C-217.71027832 492.54310913 -217.71027832 492.54310913 -216.05078125 492.56900024 C-215.22223633 492.59075317 -214.39369141 492.6125061 -213.54003906 492.63491821 C-213.54193766 491.88564759 -213.54383627 491.13637696 -213.5457924 490.36440116 C-213.65762131 445.98147951 -213.74344072 401.59857315 -213.79536571 357.21553891 C-213.80161943 351.88943008 -213.80809103 346.56332154 -213.81469727 341.23721313 C-213.81600882 340.17685644 -213.81732037 339.11649975 -213.81867167 338.02401104 C-213.84044324 320.84255049 -213.87987441 303.66117337 -213.92580304 286.47976235 C-213.97251894 268.85720003 -214.00032415 251.23468148 -214.01048154 233.61205977 C-214.0173508 222.73314341 -214.03906624 211.85446284 -214.0796214 200.97561904 C-214.1059997 193.52110275 -214.11405122 186.06670882 -214.10754595 178.61214922 C-214.10433538 174.30767653 -214.10934381 170.0036166 -214.13606644 165.69921684 C-214.16034138 161.76041841 -214.16166475 157.82231152 -214.14453354 153.8834817 C-214.14241531 152.45673958 -214.14880731 151.02995486 -214.16445497 149.60329697 C-214.27564886 138.84172487 -214.27564886 138.84172487 -211.50272369 134.29259491 C-207.77433408 132.20649215 -204.70131187 131.9521224 -200.53581238 132.03364563 C-199.73524754 132.02937351 -198.93468271 132.02510138 -198.10985833 132.0206998 C-195.43000834 132.01247045 -192.75172701 132.03995267 -190.07202148 132.06729126 C-188.15012652 132.06870175 -186.22822885 132.06790974 -184.30633545 132.06507874 C-179.08961994 132.06364321 -173.87347839 132.09305541 -168.65689635 132.12794852 C-163.20499434 132.15918906 -157.7530794 132.16214095 -152.30110168 132.16807556 C-141.97738673 132.18362074 -131.65393627 132.22465849 -121.33033782 132.27482301 C-109.57715758 132.33069537 -97.82396476 132.3581977 -86.07068479 132.38330019 C-61.8936562 132.43557361 -37.71686244 132.52352917 -13.54003906 132.63491821 C-13.54695251 131.66004566 -13.54695251 131.66004566 -13.55400562 130.66547871 C-13.66444046 114.8496203 -13.74717377 99.03389605 -13.79909992 83.21774769 C-13.82487871 75.56914738 -13.86002257 67.92080447 -13.91723633 60.27236938 C-13.9670818 53.60575984 -13.99933246 46.93933671 -14.01048154 40.27254599 C-14.01699854 36.7426128 -14.03230721 33.21321291 -14.06868935 29.6834507 C-14.10898052 25.74244843 -14.10998773 21.80196728 -14.10766602 17.86074829 C-14.13463058 16.10639717 -14.13463058 16.10639717 -14.16213989 14.31660461 C-14.15526657 13.24113373 -14.14839325 12.16566284 -14.14131165 11.05760193 C-14.14822509 9.65970287 -14.14822509 9.65970287 -14.15527821 8.23356342 C-12.38132981 0.74076563 -6.74543535 -0.09414798 0 0 Z M6.45996094 20.63491821 C6.45996094 163.19491821 6.45996094 305.75491821 6.45996094 452.63491821 C15.03996094 452.96491821 23.61996094 453.29491821 32.45996094 453.63491821 C33.44996094 453.96491821 34.43996094 454.29491821 35.45996094 454.63491821 C36.44271681 457.58318584 36.59410818 459.56144325 36.58496094 462.63491821 C36.58882813 463.93429321 36.58882813 463.93429321 36.59277344 465.25991821 C36.45996094 467.63491821 36.45996094 467.63491821 35.45996094 470.63491821 C32.28486112 471.69328482 29.81713711 471.8373561 26.47949219 471.95132446 C25.31611328 471.99321899 24.15273438 472.03511353 22.95410156 472.07827759 C21.73916016 472.11759399 20.52421875 472.1569104 19.27246094 472.19741821 C18.04591797 472.24060181 16.819375 472.2837854 15.55566406 472.32827759 C12.52389901 472.43444835 9.49194494 472.53519586 6.45996094 472.63491821 C6.45996094 479.23491821 6.45996094 485.83491821 6.45996094 492.63491821 C32.85996094 492.63491821 59.25996094 492.63491821 86.45996094 492.63491821 C86.74918495 474.66954464 86.74918495 474.66954464 87.02807617 456.70401001 C87.06619361 454.4557126 87.10466227 452.2074211 87.14355469 449.95913696 C87.16003052 448.78693604 87.17650635 447.61473511 87.19348145 446.40701294 C87.21366333 445.2907251 87.23384521 444.17443726 87.25463867 443.02432251 C87.27018295 442.05391525 87.28572723 441.083508 87.30174255 440.08369446 C87.45996094 437.63491821 87.45996094 437.63491821 88.45996094 434.63491821 C91.89882979 433.48862859 94.55100529 433.50787431 98.17871094 433.50552368 C99.19626465 433.5028952 99.19626465 433.5028952 100.234375 433.50021362 C102.47626302 433.49581317 104.71807212 433.49872674 106.95996094 433.50210571 C108.5179038 433.50143215 110.07584656 433.50046169 111.63378906 433.49920654 C114.8987732 433.49773202 118.16372998 433.49987626 121.42871094 433.50454712 C125.61529722 433.51024426 129.80181939 433.50696395 133.98840332 433.50097466 C137.20540857 433.49736244 140.42239859 433.49851068 143.6394043 433.50110245 C145.18318693 433.50176988 146.72697093 433.50094968 148.27075195 433.49862289 C150.42760889 433.49608556 152.58436176 433.49995225 154.74121094 433.50552368 C155.96904297 433.50631927 157.196875 433.50711487 158.46191406 433.50793457 C161.45996094 433.63491821 161.45996094 433.63491821 164.45996094 434.63491821 C165.4754186 437.6812912 165.61415864 439.83268919 165.6652832 443.02432251 C165.68522842 444.12523727 165.70517365 445.22615204 165.72572327 446.36042786 C165.74243576 447.54800186 165.75914825 448.73557587 165.77636719 449.95913696 C165.80753883 451.78394341 165.80753883 451.78394341 165.83934021 453.64561462 C165.90480811 457.53782417 165.96370809 461.43010206 166.02246094 465.32241821 C166.06564876 467.95849303 166.10926314 470.5945609 166.15332031 473.23062134 C166.26048676 479.69864998 166.3617622 486.16674746 166.45996094 492.63491821 C173.05996094 492.63491821 179.65996094 492.63491821 186.45996094 492.63491821 C186.45996094 336.87491821 186.45996094 181.11491821 186.45996094 20.63491821 C127.05996094 20.63491821 67.65996094 20.63491821 6.45996094 20.63491821 Z M-193.54003906 152.63491821 C-193.54003906 251.63491821 -193.54003906 350.63491821 -193.54003906 452.63491821 C-184.96003906 452.96491821 -176.38003906 453.29491821 -167.54003906 453.63491821 C-166.55003906 453.96491821 -165.56003906 454.29491821 -164.54003906 454.63491821 C-163.55728319 457.58318584 -163.40589182 459.56144325 -163.41503906 462.63491821 C-163.41117188 463.93429321 -163.41117188 463.93429321 -163.40722656 465.25991821 C-163.54003906 467.63491821 -163.54003906 467.63491821 -164.54003906 470.63491821 C-167.71513888 471.69328482 -170.18286289 471.8373561 -173.52050781 471.95132446 C-174.68388672 471.99321899 -175.84726563 472.03511353 -177.04589844 472.07827759 C-178.26083984 472.11759399 -179.47578125 472.1569104 -180.72753906 472.19741821 C-181.95408203 472.24060181 -183.180625 472.2837854 -184.44433594 472.32827759 C-187.47610099 472.43444835 -190.50805506 472.53519586 -193.54003906 472.63491821 C-193.54003906 479.23491821 -193.54003906 485.83491821 -193.54003906 492.63491821 C-167.14003906 492.63491821 -140.74003906 492.63491821 -113.54003906 492.63491821 C-113.25081505 474.66954464 -113.25081505 474.66954464 -112.97192383 456.70401001 C-112.93380639 454.4557126 -112.89533773 452.2074211 -112.85644531 449.95913696 C-112.83996948 448.78693604 -112.82349365 447.61473511 -112.80651855 446.40701294 C-112.78633667 445.2907251 -112.76615479 444.17443726 -112.74536133 443.02432251 C-112.72981705 442.05391525 -112.71427277 441.083508 -112.69825745 440.08369446 C-112.54003906 437.63491821 -112.54003906 437.63491821 -111.54003906 434.63491821 C-108.10117021 433.48862859 -105.44899471 433.50787431 -101.82128906 433.50552368 C-100.80373535 433.5028952 -100.80373535 433.5028952 -99.765625 433.50021362 C-97.52373698 433.49581317 -95.28192788 433.49872674 -93.04003906 433.50210571 C-91.4820962 433.50143215 -89.92415344 433.50046169 -88.36621094 433.49920654 C-85.1012268 433.49773202 -81.83627002 433.49987626 -78.57128906 433.50454712 C-74.38470278 433.51024426 -70.19818061 433.50696395 -66.01159668 433.50097466 C-62.79459143 433.49736244 -59.57760141 433.49851068 -56.3605957 433.50110245 C-54.81681307 433.50176988 -53.27302907 433.50094968 -51.72924805 433.49862289 C-49.57239111 433.49608556 -47.41563824 433.49995225 -45.25878906 433.50552368 C-44.03095703 433.50631927 -42.803125 433.50711487 -41.53808594 433.50793457 C-38.54003906 433.63491821 -38.54003906 433.63491821 -35.54003906 434.63491821 C-34.5245814 437.6812912 -34.38584136 439.83268919 -34.3347168 443.02432251 C-34.31477158 444.12523727 -34.29482635 445.22615204 -34.27427673 446.36042786 C-34.25756424 447.54800186 -34.24085175 448.73557587 -34.22363281 449.95913696 C-34.19246117 451.78394341 -34.19246117 451.78394341 -34.16065979 453.64561462 C-34.09519189 457.53782417 -34.03629191 461.43010206 -33.97753906 465.32241821 C-33.93435124 467.95849303 -33.89073686 470.5945609 -33.84667969 473.23062134 C-33.73951324 479.69864998 -33.6382378 486.16674746 -33.54003906 492.63491821 C-26.94003906 492.63491821 -20.34003906 492.63491821 -13.54003906 492.63491821 C-13.54003906 380.43491821 -13.54003906 268.23491821 -13.54003906 152.63491821 C-72.94003906 152.63491821 -132.34003906 152.63491821 -193.54003906 152.63491821 Z M-93.54003906 452.63491821 C-93.54003906 465.83491821 -93.54003906 479.03491821 -93.54003906 492.63491821 C-80.34003906 492.63491821 -67.14003906 492.63491821 -53.54003906 492.63491821 C-53.54003906 479.43491821 -53.54003906 466.23491821 -53.54003906 452.63491821 C-66.74003906 452.63491821 -79.94003906 452.63491821 -93.54003906 452.63491821 Z M106.45996094 452.63491821 C106.45996094 465.83491821 106.45996094 479.03491821 106.45996094 492.63491821 C119.65996094 492.63491821 132.85996094 492.63491821 146.45996094 492.63491821 C146.45996094 479.43491821 146.45996094 466.23491821 146.45996094 452.63491821 C133.25996094 452.63491821 120.05996094 452.63491821 106.45996094 452.63491821 Z M43.95996094 52.00991821 C45.08789062 51.99058228 46.21582031 51.97124634 47.37792969 51.95132446 C52.11812922 51.97937298 55.49753348 52.1131202 59.70214844 54.39273071 C62.47569968 59.50839189 62.1830841 64.41106685 62.08496094 70.13491821 C62.10429687 71.2628479 62.12363281 72.39077759 62.14355469 73.55288696 C62.11550617 78.29308649 61.98175895 81.67249076 59.70214844 85.87710571 C54.58648726 88.65065695 49.6838123 88.35804138 43.95996094 88.25991821 C42.26806641 88.28892212 42.26806641 88.28892212 40.54199219 88.31851196 C35.80179266 88.29046344 32.42238839 88.15671623 28.21777344 85.87710571 C25.4442222 80.76144453 25.73683777 75.85876957 25.83496094 70.13491821 C25.815625 69.00698853 25.79628906 67.87905884 25.77636719 66.71694946 C25.80441571 61.97674993 25.93816292 58.59734567 28.21777344 54.39273071 C33.33343462 51.61917947 38.23610958 51.91179505 43.95996094 52.00991821 Z M96.27246094 52.25991821 C97.91311523 52.20384399 97.91311523 52.20384399 99.58691406 52.14663696 C107.69009506 52.05775381 107.69009506 52.05775381 111.65917969 55.03335571 C115.08353329 59.98046959 114.713002 63.99451907 114.77246094 69.88491821 C114.80146484 70.8272229 114.83046875 71.76952759 114.86035156 72.74038696 C114.91468831 78.70071006 114.44759808 82.10721148 110.45996094 86.63491821 C106.36185995 88.68396871 101.15188908 87.95213546 96.64746094 88.00991821 C95.00680664 88.06599243 95.00680664 88.06599243 93.33300781 88.12319946 C85.22982681 88.21208262 85.22982681 88.21208262 81.26074219 85.23648071 C77.83638859 80.28936683 78.20691988 76.27531736 78.14746094 70.38491821 C78.11845703 69.44261353 78.08945312 68.50030884 78.05957031 67.52944946 C78.00523357 61.56912637 78.4723238 58.16262495 82.45996094 53.63491821 C86.55806193 51.58586772 91.76803279 52.31770096 96.27246094 52.25991821 Z M148.95996094 52.00991821 C150.08789062 51.99058228 151.21582031 51.97124634 152.37792969 51.95132446 C157.11812922 51.97937298 160.49753348 52.1131202 164.70214844 54.39273071 C167.47569968 59.50839189 167.1830841 64.41106685 167.08496094 70.13491821 C167.10429687 71.2628479 167.12363281 72.39077759 167.14355469 73.55288696 C167.11550617 78.29308649 166.98175895 81.67249076 164.70214844 85.87710571 C159.58648726 88.65065695 154.6838123 88.35804138 148.95996094 88.25991821 C147.26806641 88.28892212 147.26806641 88.28892212 145.54199219 88.31851196 C140.80179266 88.29046344 137.42238839 88.15671623 133.21777344 85.87710571 C130.4442222 80.76144453 130.73683777 75.85876957 130.83496094 70.13491821 C130.815625 69.00698853 130.79628906 67.87905884 130.77636719 66.71694946 C130.80441571 61.97674993 130.93816292 58.59734567 133.21777344 54.39273071 C138.33343462 51.61917947 143.23610958 51.91179505 148.95996094 52.00991821 Z M43.95996094 112.00991821 C45.08789062 111.99058228 46.21582031 111.97124634 47.37792969 111.95132446 C52.11812922 111.97937298 55.49753348 112.1131202 59.70214844 114.39273071 C62.47569968 119.50839189 62.1830841 124.41106685 62.08496094 130.13491821 C62.10429687 131.2628479 62.12363281 132.39077759 62.14355469 133.55288696 C62.11550617 138.29308649 61.98175895 141.67249076 59.70214844 145.87710571 C54.58648726 148.65065695 49.6838123 148.35804138 43.95996094 148.25991821 C42.26806641 148.28892212 42.26806641 148.28892212 40.54199219 148.31851196 C35.80179266 148.29046344 32.42238839 148.15671623 28.21777344 145.87710571 C25.4442222 140.76144453 25.73683777 135.85876957 25.83496094 130.13491821 C25.815625 129.00698853 25.79628906 127.87905884 25.77636719 126.71694946 C25.80441571 121.97674993 25.93816292 118.59734567 28.21777344 114.39273071 C33.33343462 111.61917947 38.23610958 111.91179505 43.95996094 112.00991821 Z M96.27246094 112.25991821 C97.91311523 112.20384399 97.91311523 112.20384399 99.58691406 112.14663696 C107.69009506 112.05775381 107.69009506 112.05775381 111.65917969 115.03335571 C115.08353329 119.98046959 114.713002 123.99451907 114.77246094 129.88491821 C114.80146484 130.8272229 114.83046875 131.76952759 114.86035156 132.74038696 C114.91468831 138.70071006 114.44759808 142.10721148 110.45996094 146.63491821 C106.36185995 148.68396871 101.15188908 147.95213546 96.64746094 148.00991821 C95.00680664 148.06599243 95.00680664 148.06599243 93.33300781 148.12319946 C85.22982681 148.21208262 85.22982681 148.21208262 81.26074219 145.23648071 C77.83638859 140.28936683 78.20691988 136.27531736 78.14746094 130.38491821 C78.11845703 129.44261353 78.08945312 128.50030884 78.05957031 127.52944946 C78.00523357 121.56912637 78.4723238 118.16262495 82.45996094 113.63491821 C86.55806193 111.58586772 91.76803279 112.31770096 96.27246094 112.25991821 Z M148.95996094 112.00991821 C150.08789062 111.99058228 151.21582031 111.97124634 152.37792969 111.95132446 C157.11812922 111.97937298 160.49753348 112.1131202 164.70214844 114.39273071 C167.47569968 119.50839189 167.1830841 124.41106685 167.08496094 130.13491821 C167.10429687 131.2628479 167.12363281 132.39077759 167.14355469 133.55288696 C167.11550617 138.29308649 166.98175895 141.67249076 164.70214844 145.87710571 C159.58648726 148.65065695 154.6838123 148.35804138 148.95996094 148.25991821 C147.26806641 148.28892212 147.26806641 148.28892212 145.54199219 148.31851196 C140.80179266 148.29046344 137.42238839 148.15671623 133.21777344 145.87710571 C130.4442222 140.76144453 130.73683777 135.85876957 130.83496094 130.13491821 C130.815625 129.00698853 130.79628906 127.87905884 130.77636719 126.71694946 C130.80441571 121.97674993 130.93816292 118.59734567 133.21777344 114.39273071 C138.33343462 111.61917947 143.23610958 111.91179505 148.95996094 112.00991821 Z M-156.04003906 172.00991821 C-154.91210938 171.99058228 -153.78417969 171.97124634 -152.62207031 171.95132446 C-147.88187078 171.97937298 -144.50246652 172.1131202 -140.29785156 174.39273071 C-137.52430032 179.50839189 -137.8169159 184.41106685 -137.91503906 190.13491821 C-137.89570313 191.2628479 -137.87636719 192.39077759 -137.85644531 193.55288696 C-137.88449383 198.29308649 -138.01824105 201.67249076 -140.29785156 205.87710571 C-145.41351274 208.65065695 -150.3161877 208.35804138 -156.04003906 208.25991821 C-157.73193359 208.28892212 -157.73193359 208.28892212 -159.45800781 208.31851196 C-164.19820734 208.29046344 -167.57761161 208.15671623 -171.78222656 205.87710571 C-174.5557778 200.76144453 -174.26316223 195.85876957 -174.16503906 190.13491821 C-174.184375 189.00698853 -174.20371094 187.87905884 -174.22363281 186.71694946 C-174.19558429 181.97674993 -174.06183708 178.59734567 -171.78222656 174.39273071 C-166.66656538 171.61917947 -161.76389042 171.91179505 -156.04003906 172.00991821 Z M-103.72753906 172.25991821 C-102.08688477 172.20384399 -102.08688477 172.20384399 -100.41308594 172.14663696 C-92.30990494 172.05775381 -92.30990494 172.05775381 -88.34082031 175.03335571 C-84.91646671 179.98046959 -85.286998 183.99451907 -85.22753906 189.88491821 C-85.19853516 190.8272229 -85.16953125 191.76952759 -85.13964844 192.74038696 C-85.08531169 198.70071006 -85.55240192 202.10721148 -89.54003906 206.63491821 C-93.63814005 208.68396871 -98.84811092 207.95213546 -103.35253906 208.00991821 C-104.99319336 208.06599243 -104.99319336 208.06599243 -106.66699219 208.12319946 C-114.77017319 208.21208262 -114.77017319 208.21208262 -118.73925781 205.23648071 C-122.16361141 200.28936683 -121.79308012 196.27531736 -121.85253906 190.38491821 C-121.88154297 189.44261353 -121.91054687 188.50030884 -121.94042969 187.52944946 C-121.99476643 181.56912637 -121.5276762 178.16262495 -117.54003906 173.63491821 C-113.44193807 171.58586772 -108.23196721 172.31770096 -103.72753906 172.25991821 Z M-51.04003906 172.00991821 C-49.91210938 171.99058228 -48.78417969 171.97124634 -47.62207031 171.95132446 C-42.88187078 171.97937298 -39.50246652 172.1131202 -35.29785156 174.39273071 C-32.52430032 179.50839189 -32.8169159 184.41106685 -32.91503906 190.13491821 C-32.89570313 191.2628479 -32.87636719 192.39077759 -32.85644531 193.55288696 C-32.88449383 198.29308649 -33.01824105 201.67249076 -35.29785156 205.87710571 C-40.41351274 208.65065695 -45.3161877 208.35804138 -51.04003906 208.25991821 C-52.73193359 208.28892212 -52.73193359 208.28892212 -54.45800781 208.31851196 C-59.19820734 208.29046344 -62.57761161 208.15671623 -66.78222656 205.87710571 C-69.5557778 200.76144453 -69.26316223 195.85876957 -69.16503906 190.13491821 C-69.184375 189.00698853 -69.20371094 187.87905884 -69.22363281 186.71694946 C-69.19558429 181.97674993 -69.06183708 178.59734567 -66.78222656 174.39273071 C-61.66656538 171.61917947 -56.76389042 171.91179505 -51.04003906 172.00991821 Z M43.95996094 172.00991821 C45.08789062 171.99058228 46.21582031 171.97124634 47.37792969 171.95132446 C52.11812922 171.97937298 55.49753348 172.1131202 59.70214844 174.39273071 C62.47569968 179.50839189 62.1830841 184.41106685 62.08496094 190.13491821 C62.10429687 191.2628479 62.12363281 192.39077759 62.14355469 193.55288696 C62.11550617 198.29308649 61.98175895 201.67249076 59.70214844 205.87710571 C54.58648726 208.65065695 49.6838123 208.35804138 43.95996094 208.25991821 C42.26806641 208.28892212 42.26806641 208.28892212 40.54199219 208.31851196 C35.80179266 208.29046344 32.42238839 208.15671623 28.21777344 205.87710571 C25.4442222 200.76144453 25.73683777 195.85876957 25.83496094 190.13491821 C25.815625 189.00698853 25.79628906 187.87905884 25.77636719 186.71694946 C25.80441571 181.97674993 25.93816292 178.59734567 28.21777344 174.39273071 C33.33343462 171.61917947 38.23610958 171.91179505 43.95996094 172.00991821 Z M96.27246094 172.25991821 C97.91311523 172.20384399 97.91311523 172.20384399 99.58691406 172.14663696 C107.69009506 172.05775381 107.69009506 172.05775381 111.65917969 175.03335571 C115.08353329 179.98046959 114.713002 183.99451907 114.77246094 189.88491821 C114.80146484 190.8272229 114.83046875 191.76952759 114.86035156 192.74038696 C114.91468831 198.70071006 114.44759808 202.10721148 110.45996094 206.63491821 C106.36185995 208.68396871 101.15188908 207.95213546 96.64746094 208.00991821 C95.00680664 208.06599243 95.00680664 208.06599243 93.33300781 208.12319946 C85.22982681 208.21208262 85.22982681 208.21208262 81.26074219 205.23648071 C77.83638859 200.28936683 78.20691988 196.27531736 78.14746094 190.38491821 C78.11845703 189.44261353 78.08945312 188.50030884 78.05957031 187.52944946 C78.00523357 181.56912637 78.4723238 178.16262495 82.45996094 173.63491821 C86.55806193 171.58586772 91.76803279 172.31770096 96.27246094 172.25991821 Z M148.95996094 172.00991821 C150.08789062 171.99058228 151.21582031 171.97124634 152.37792969 171.95132446 C157.11812922 171.97937298 160.49753348 172.1131202 164.70214844 174.39273071 C167.47569968 179.50839189 167.1830841 184.41106685 167.08496094 190.13491821 C167.10429687 191.2628479 167.12363281 192.39077759 167.14355469 193.55288696 C167.11550617 198.29308649 166.98175895 201.67249076 164.70214844 205.87710571 C159.58648726 208.65065695 154.6838123 208.35804138 148.95996094 208.25991821 C147.26806641 208.28892212 147.26806641 208.28892212 145.54199219 208.31851196 C140.80179266 208.29046344 137.42238839 208.15671623 133.21777344 205.87710571 C130.4442222 200.76144453 130.73683777 195.85876957 130.83496094 190.13491821 C130.815625 189.00698853 130.79628906 187.87905884 130.77636719 186.71694946 C130.80441571 181.97674993 130.93816292 178.59734567 133.21777344 174.39273071 C138.33343462 171.61917947 143.23610958 171.91179505 148.95996094 172.00991821 Z M-156.04003906 232.00991821 C-154.91210938 231.99058228 -153.78417969 231.97124634 -152.62207031 231.95132446 C-147.88187078 231.97937298 -144.50246652 232.1131202 -140.29785156 234.39273071 C-137.52430032 239.50839189 -137.8169159 244.41106685 -137.91503906 250.13491821 C-137.89570313 251.2628479 -137.87636719 252.39077759 -137.85644531 253.55288696 C-137.88449383 258.29308649 -138.01824105 261.67249076 -140.29785156 265.87710571 C-145.41351274 268.65065695 -150.3161877 268.35804138 -156.04003906 268.25991821 C-157.73193359 268.28892212 -157.73193359 268.28892212 -159.45800781 268.31851196 C-164.19820734 268.29046344 -167.57761161 268.15671623 -171.78222656 265.87710571 C-174.5557778 260.76144453 -174.26316223 255.85876957 -174.16503906 250.13491821 C-174.184375 249.00698853 -174.20371094 247.87905884 -174.22363281 246.71694946 C-174.19558429 241.97674993 -174.06183708 238.59734567 -171.78222656 234.39273071 C-166.66656538 231.61917947 -161.76389042 231.91179505 -156.04003906 232.00991821 Z M-103.72753906 232.25991821 C-102.08688477 232.20384399 -102.08688477 232.20384399 -100.41308594 232.14663696 C-92.30990494 232.05775381 -92.30990494 232.05775381 -88.34082031 235.03335571 C-84.91646671 239.98046959 -85.286998 243.99451907 -85.22753906 249.88491821 C-85.19853516 250.8272229 -85.16953125 251.76952759 -85.13964844 252.74038696 C-85.08531169 258.70071006 -85.55240192 262.10721148 -89.54003906 266.63491821 C-93.63814005 268.68396871 -98.84811092 267.95213546 -103.35253906 268.00991821 C-104.99319336 268.06599243 -104.99319336 268.06599243 -106.66699219 268.12319946 C-114.77017319 268.21208262 -114.77017319 268.21208262 -118.73925781 265.23648071 C-122.16361141 260.28936683 -121.79308012 256.27531736 -121.85253906 250.38491821 C-121.88154297 249.44261353 -121.91054687 248.50030884 -121.94042969 247.52944946 C-121.99476643 241.56912637 -121.5276762 238.16262495 -117.54003906 233.63491821 C-113.44193807 231.58586772 -108.23196721 232.31770096 -103.72753906 232.25991821 Z M-51.04003906 232.00991821 C-49.91210938 231.99058228 -48.78417969 231.97124634 -47.62207031 231.95132446 C-42.88187078 231.97937298 -39.50246652 232.1131202 -35.29785156 234.39273071 C-32.52430032 239.50839189 -32.8169159 244.41106685 -32.91503906 250.13491821 C-32.89570313 251.2628479 -32.87636719 252.39077759 -32.85644531 253.55288696 C-32.88449383 258.29308649 -33.01824105 261.67249076 -35.29785156 265.87710571 C-40.41351274 268.65065695 -45.3161877 268.35804138 -51.04003906 268.25991821 C-52.73193359 268.28892212 -52.73193359 268.28892212 -54.45800781 268.31851196 C-59.19820734 268.29046344 -62.57761161 268.15671623 -66.78222656 265.87710571 C-69.5557778 260.76144453 -69.26316223 255.85876957 -69.16503906 250.13491821 C-69.184375 249.00698853 -69.20371094 247.87905884 -69.22363281 246.71694946 C-69.19558429 241.97674993 -69.06183708 238.59734567 -66.78222656 234.39273071 C-61.66656538 231.61917947 -56.76389042 231.91179505 -51.04003906 232.00991821 Z M43.95996094 232.00991821 C45.08789062 231.99058228 46.21582031 231.97124634 47.37792969 231.95132446 C52.11812922 231.97937298 55.49753348 232.1131202 59.70214844 234.39273071 C62.47569968 239.50839189 62.1830841 244.41106685 62.08496094 250.13491821 C62.10429687 251.2628479 62.12363281 252.39077759 62.14355469 253.55288696 C62.11550617 258.29308649 61.98175895 261.67249076 59.70214844 265.87710571 C54.58648726 268.65065695 49.6838123 268.35804138 43.95996094 268.25991821 C42.26806641 268.28892212 42.26806641 268.28892212 40.54199219 268.31851196 C35.80179266 268.29046344 32.42238839 268.15671623 28.21777344 265.87710571 C25.4442222 260.76144453 25.73683777 255.85876957 25.83496094 250.13491821 C25.815625 249.00698853 25.79628906 247.87905884 25.77636719 246.71694946 C25.80441571 241.97674993 25.93816292 238.59734567 28.21777344 234.39273071 C33.33343462 231.61917947 38.23610958 231.91179505 43.95996094 232.00991821 Z M96.27246094 232.25991821 C97.91311523 232.20384399 97.91311523 232.20384399 99.58691406 232.14663696 C107.69009506 232.05775381 107.69009506 232.05775381 111.65917969 235.03335571 C115.08353329 239.98046959 114.713002 243.99451907 114.77246094 249.88491821 C114.80146484 250.8272229 114.83046875 251.76952759 114.86035156 252.74038696 C114.91468831 258.70071006 114.44759808 262.10721148 110.45996094 266.63491821 C106.36185995 268.68396871 101.15188908 267.95213546 96.64746094 268.00991821 C95.00680664 268.06599243 95.00680664 268.06599243 93.33300781 268.12319946 C85.22982681 268.21208262 85.22982681 268.21208262 81.26074219 265.23648071 C77.83638859 260.28936683 78.20691988 256.27531736 78.14746094 250.38491821 C78.11845703 249.44261353 78.08945312 248.50030884 78.05957031 247.52944946 C78.00523357 241.56912637 78.4723238 238.16262495 82.45996094 233.63491821 C86.55806193 231.58586772 91.76803279 232.31770096 96.27246094 232.25991821 Z M148.95996094 232.00991821 C150.08789062 231.99058228 151.21582031 231.97124634 152.37792969 231.95132446 C157.11812922 231.97937298 160.49753348 232.1131202 164.70214844 234.39273071 C167.47569968 239.50839189 167.1830841 244.41106685 167.08496094 250.13491821 C167.10429687 251.2628479 167.12363281 252.39077759 167.14355469 253.55288696 C167.11550617 258.29308649 166.98175895 261.67249076 164.70214844 265.87710571 C159.58648726 268.65065695 154.6838123 268.35804138 148.95996094 268.25991821 C147.26806641 268.28892212 147.26806641 268.28892212 145.54199219 268.31851196 C140.80179266 268.29046344 137.42238839 268.15671623 133.21777344 265.87710571 C130.4442222 260.76144453 130.73683777 255.85876957 130.83496094 250.13491821 C130.815625 249.00698853 130.79628906 247.87905884 130.77636719 246.71694946 C130.80441571 241.97674993 130.93816292 238.59734567 133.21777344 234.39273071 C138.33343462 231.61917947 143.23610958 231.91179505 148.95996094 232.00991821 Z M-156.04003906 292.00991821 C-154.91210938 291.99058228 -153.78417969 291.97124634 -152.62207031 291.95132446 C-147.88187078 291.97937298 -144.50246652 292.1131202 -140.29785156 294.39273071 C-137.52430032 299.50839189 -137.8169159 304.41106685 -137.91503906 310.13491821 C-137.89570313 311.2628479 -137.87636719 312.39077759 -137.85644531 313.55288696 C-137.88449383 318.29308649 -138.01824105 321.67249076 -140.29785156 325.87710571 C-145.41351274 328.65065695 -150.3161877 328.35804138 -156.04003906 328.25991821 C-157.73193359 328.28892212 -157.73193359 328.28892212 -159.45800781 328.31851196 C-164.19820734 328.29046344 -167.57761161 328.15671623 -171.78222656 325.87710571 C-174.5557778 320.76144453 -174.26316223 315.85876957 -174.16503906 310.13491821 C-174.184375 309.00698853 -174.20371094 307.87905884 -174.22363281 306.71694946 C-174.19558429 301.97674993 -174.06183708 298.59734567 -171.78222656 294.39273071 C-166.66656538 291.61917947 -161.76389042 291.91179505 -156.04003906 292.00991821 Z M-103.72753906 292.25991821 C-102.08688477 292.20384399 -102.08688477 292.20384399 -100.41308594 292.14663696 C-92.30990494 292.05775381 -92.30990494 292.05775381 -88.34082031 295.03335571 C-84.91646671 299.98046959 -85.286998 303.99451907 -85.22753906 309.88491821 C-85.19853516 310.8272229 -85.16953125 311.76952759 -85.13964844 312.74038696 C-85.08531169 318.70071006 -85.55240192 322.10721148 -89.54003906 326.63491821 C-93.63814005 328.68396871 -98.84811092 327.95213546 -103.35253906 328.00991821 C-104.99319336 328.06599243 -104.99319336 328.06599243 -106.66699219 328.12319946 C-114.77017319 328.21208262 -114.77017319 328.21208262 -118.73925781 325.23648071 C-122.16361141 320.28936683 -121.79308012 316.27531736 -121.85253906 310.38491821 C-121.88154297 309.44261353 -121.91054687 308.50030884 -121.94042969 307.52944946 C-121.99476643 301.56912637 -121.5276762 298.16262495 -117.54003906 293.63491821 C-113.44193807 291.58586772 -108.23196721 292.31770096 -103.72753906 292.25991821 Z M-51.04003906 292.00991821 C-49.91210938 291.99058228 -48.78417969 291.97124634 -47.62207031 291.95132446 C-42.88187078 291.97937298 -39.50246652 292.1131202 -35.29785156 294.39273071 C-32.52430032 299.50839189 -32.8169159 304.41106685 -32.91503906 310.13491821 C-32.89570313 311.2628479 -32.87636719 312.39077759 -32.85644531 313.55288696 C-32.88449383 318.29308649 -33.01824105 321.67249076 -35.29785156 325.87710571 C-40.41351274 328.65065695 -45.3161877 328.35804138 -51.04003906 328.25991821 C-52.73193359 328.28892212 -52.73193359 328.28892212 -54.45800781 328.31851196 C-59.19820734 328.29046344 -62.57761161 328.15671623 -66.78222656 325.87710571 C-69.5557778 320.76144453 -69.26316223 315.85876957 -69.16503906 310.13491821 C-69.184375 309.00698853 -69.20371094 307.87905884 -69.22363281 306.71694946 C-69.19558429 301.97674993 -69.06183708 298.59734567 -66.78222656 294.39273071 C-61.66656538 291.61917947 -56.76389042 291.91179505 -51.04003906 292.00991821 Z M43.95996094 292.00991821 C45.08789062 291.99058228 46.21582031 291.97124634 47.37792969 291.95132446 C52.11812922 291.97937298 55.49753348 292.1131202 59.70214844 294.39273071 C62.47569968 299.50839189 62.1830841 304.41106685 62.08496094 310.13491821 C62.10429687 311.2628479 62.12363281 312.39077759 62.14355469 313.55288696 C62.11550617 318.29308649 61.98175895 321.67249076 59.70214844 325.87710571 C54.58648726 328.65065695 49.6838123 328.35804138 43.95996094 328.25991821 C42.26806641 328.28892212 42.26806641 328.28892212 40.54199219 328.31851196 C35.80179266 328.29046344 32.42238839 328.15671623 28.21777344 325.87710571 C25.4442222 320.76144453 25.73683777 315.85876957 25.83496094 310.13491821 C25.815625 309.00698853 25.79628906 307.87905884 25.77636719 306.71694946 C25.80441571 301.97674993 25.93816292 298.59734567 28.21777344 294.39273071 C33.33343462 291.61917947 38.23610958 291.91179505 43.95996094 292.00991821 Z M96.27246094 292.25991821 C97.91311523 292.20384399 97.91311523 292.20384399 99.58691406 292.14663696 C107.69009506 292.05775381 107.69009506 292.05775381 111.65917969 295.03335571 C115.08353329 299.98046959 114.713002 303.99451907 114.77246094 309.88491821 C114.80146484 310.8272229 114.83046875 311.76952759 114.86035156 312.74038696 C114.91468831 318.70071006 114.44759808 322.10721148 110.45996094 326.63491821 C106.36185995 328.68396871 101.15188908 327.95213546 96.64746094 328.00991821 C95.00680664 328.06599243 95.00680664 328.06599243 93.33300781 328.12319946 C85.22982681 328.21208262 85.22982681 328.21208262 81.26074219 325.23648071 C77.83638859 320.28936683 78.20691988 316.27531736 78.14746094 310.38491821 C78.11845703 309.44261353 78.08945312 308.50030884 78.05957031 307.52944946 C78.00523357 301.56912637 78.4723238 298.16262495 82.45996094 293.63491821 C86.55806193 291.58586772 91.76803279 292.31770096 96.27246094 292.25991821 Z M148.95996094 292.00991821 C150.08789062 291.99058228 151.21582031 291.97124634 152.37792969 291.95132446 C157.11812922 291.97937298 160.49753348 292.1131202 164.70214844 294.39273071 C167.47569968 299.50839189 167.1830841 304.41106685 167.08496094 310.13491821 C167.10429687 311.2628479 167.12363281 312.39077759 167.14355469 313.55288696 C167.11550617 318.29308649 166.98175895 321.67249076 164.70214844 325.87710571 C159.58648726 328.65065695 154.6838123 328.35804138 148.95996094 328.25991821 C147.26806641 328.28892212 147.26806641 328.28892212 145.54199219 328.31851196 C140.80179266 328.29046344 137.42238839 328.15671623 133.21777344 325.87710571 C130.4442222 320.76144453 130.73683777 315.85876957 130.83496094 310.13491821 C130.815625 309.00698853 130.79628906 307.87905884 130.77636719 306.71694946 C130.80441571 301.97674993 130.93816292 298.59734567 133.21777344 294.39273071 C138.33343462 291.61917947 143.23610958 291.91179505 148.95996094 292.00991821 Z M-156.04003906 352.00991821 C-154.91210938 351.99058228 -153.78417969 351.97124634 -152.62207031 351.95132446 C-147.88187078 351.97937298 -144.50246652 352.1131202 -140.29785156 354.39273071 C-137.52430032 359.50839189 -137.8169159 364.41106685 -137.91503906 370.13491821 C-137.89570313 371.2628479 -137.87636719 372.39077759 -137.85644531 373.55288696 C-137.88449383 378.29308649 -138.01824105 381.67249076 -140.29785156 385.87710571 C-145.41351274 388.65065695 -150.3161877 388.35804138 -156.04003906 388.25991821 C-157.73193359 388.28892212 -157.73193359 388.28892212 -159.45800781 388.31851196 C-164.19820734 388.29046344 -167.57761161 388.15671623 -171.78222656 385.87710571 C-174.5557778 380.76144453 -174.26316223 375.85876957 -174.16503906 370.13491821 C-174.184375 369.00698853 -174.20371094 367.87905884 -174.22363281 366.71694946 C-174.19558429 361.97674993 -174.06183708 358.59734567 -171.78222656 354.39273071 C-166.66656538 351.61917947 -161.76389042 351.91179505 -156.04003906 352.00991821 Z M-103.72753906 352.25991821 C-102.08688477 352.20384399 -102.08688477 352.20384399 -100.41308594 352.14663696 C-92.30990494 352.05775381 -92.30990494 352.05775381 -88.34082031 355.03335571 C-84.91646671 359.98046959 -85.286998 363.99451907 -85.22753906 369.88491821 C-85.19853516 370.8272229 -85.16953125 371.76952759 -85.13964844 372.74038696 C-85.08531169 378.70071006 -85.55240192 382.10721148 -89.54003906 386.63491821 C-93.63814005 388.68396871 -98.84811092 387.95213546 -103.35253906 388.00991821 C-104.99319336 388.06599243 -104.99319336 388.06599243 -106.66699219 388.12319946 C-114.77017319 388.21208262 -114.77017319 388.21208262 -118.73925781 385.23648071 C-122.16361141 380.28936683 -121.79308012 376.27531736 -121.85253906 370.38491821 C-121.88154297 369.44261353 -121.91054687 368.50030884 -121.94042969 367.52944946 C-121.99476643 361.56912637 -121.5276762 358.16262495 -117.54003906 353.63491821 C-113.44193807 351.58586772 -108.23196721 352.31770096 -103.72753906 352.25991821 Z M-51.04003906 352.00991821 C-49.91210938 351.99058228 -48.78417969 351.97124634 -47.62207031 351.95132446 C-42.88187078 351.97937298 -39.50246652 352.1131202 -35.29785156 354.39273071 C-32.52430032 359.50839189 -32.8169159 364.41106685 -32.91503906 370.13491821 C-32.89570313 371.2628479 -32.87636719 372.39077759 -32.85644531 373.55288696 C-32.88449383 378.29308649 -33.01824105 381.67249076 -35.29785156 385.87710571 C-40.41351274 388.65065695 -45.3161877 388.35804138 -51.04003906 388.25991821 C-52.73193359 388.28892212 -52.73193359 388.28892212 -54.45800781 388.31851196 C-59.19820734 388.29046344 -62.57761161 388.15671623 -66.78222656 385.87710571 C-69.5557778 380.76144453 -69.26316223 375.85876957 -69.16503906 370.13491821 C-69.184375 369.00698853 -69.20371094 367.87905884 -69.22363281 366.71694946 C-69.19558429 361.97674993 -69.06183708 358.59734567 -66.78222656 354.39273071 C-61.66656538 351.61917947 -56.76389042 351.91179505 -51.04003906 352.00991821 Z M43.95996094 352.00991821 C45.08789062 351.99058228 46.21582031 351.97124634 47.37792969 351.95132446 C52.11812922 351.97937298 55.49753348 352.1131202 59.70214844 354.39273071 C62.47569968 359.50839189 62.1830841 364.41106685 62.08496094 370.13491821 C62.10429687 371.2628479 62.12363281 372.39077759 62.14355469 373.55288696 C62.11550617 378.29308649 61.98175895 381.67249076 59.70214844 385.87710571 C54.58648726 388.65065695 49.6838123 388.35804138 43.95996094 388.25991821 C42.26806641 388.28892212 42.26806641 388.28892212 40.54199219 388.31851196 C35.80179266 388.29046344 32.42238839 388.15671623 28.21777344 385.87710571 C25.4442222 380.76144453 25.73683777 375.85876957 25.83496094 370.13491821 C25.815625 369.00698853 25.79628906 367.87905884 25.77636719 366.71694946 C25.80441571 361.97674993 25.93816292 358.59734567 28.21777344 354.39273071 C33.33343462 351.61917947 38.23610958 351.91179505 43.95996094 352.00991821 Z M96.27246094 352.25991821 C97.91311523 352.20384399 97.91311523 352.20384399 99.58691406 352.14663696 C107.69009506 352.05775381 107.69009506 352.05775381 111.65917969 355.03335571 C115.08353329 359.98046959 114.713002 363.99451907 114.77246094 369.88491821 C114.80146484 370.8272229 114.83046875 371.76952759 114.86035156 372.74038696 C114.91468831 378.70071006 114.44759808 382.10721148 110.45996094 386.63491821 C106.36185995 388.68396871 101.15188908 387.95213546 96.64746094 388.00991821 C95.00680664 388.06599243 95.00680664 388.06599243 93.33300781 388.12319946 C85.22982681 388.21208262 85.22982681 388.21208262 81.26074219 385.23648071 C77.83638859 380.28936683 78.20691988 376.27531736 78.14746094 370.38491821 C78.11845703 369.44261353 78.08945312 368.50030884 78.05957031 367.52944946 C78.00523357 361.56912637 78.4723238 358.16262495 82.45996094 353.63491821 C86.55806193 351.58586772 91.76803279 352.31770096 96.27246094 352.25991821 Z M148.95996094 352.00991821 C150.08789062 351.99058228 151.21582031 351.97124634 152.37792969 351.95132446 C157.11812922 351.97937298 160.49753348 352.1131202 164.70214844 354.39273071 C167.47569968 359.50839189 167.1830841 364.41106685 167.08496094 370.13491821 C167.10429687 371.2628479 167.12363281 372.39077759 167.14355469 373.55288696 C167.11550617 378.29308649 166.98175895 381.67249076 164.70214844 385.87710571 C159.58648726 388.65065695 154.6838123 388.35804138 148.95996094 388.25991821 C147.26806641 388.28892212 147.26806641 388.28892212 145.54199219 388.31851196 C140.80179266 388.29046344 137.42238839 388.15671623 133.21777344 385.87710571 C130.4442222 380.76144453 130.73683777 375.85876957 130.83496094 370.13491821 C130.815625 369.00698853 130.79628906 367.87905884 130.77636719 366.71694946 C130.80441571 361.97674993 130.93816292 358.59734567 133.21777344 354.39273071 C138.33343462 351.61917947 143.23610958 351.91179505 148.95996094 352.00991821 Z M-138.54003906 452.63491821 C-135.41503906 454.50991821 -135.41503906 454.50991821 -133.54003906 457.63491821 C-132.55127281 462.66114668 -132.76312177 466.34005605 -135.41503906 470.75991821 C-139.8169018 473.40103586 -143.53151415 473.65471639 -148.54003906 472.63491821 C-151.95425553 470.26587005 -153.18350513 468.65995327 -154.54003906 464.75991821 C-154.54003906 460.73185559 -153.43933365 458.16217959 -151.54003906 454.63491821 C-147.2807434 451.79538777 -143.53620963 451.89503945 -138.54003906 452.63491821 Z M61.45996094 452.63491821 C64.58496094 454.50991821 64.58496094 454.50991821 66.45996094 457.63491821 C67.44872719 462.66114668 67.23687823 466.34005605 64.58496094 470.75991821 C60.1830982 473.40103586 56.46848585 473.65471639 51.45996094 472.63491821 C48.04574447 470.26587005 46.81649487 468.65995327 45.45996094 464.75991821 C45.45996094 460.73185559 46.56066635 458.16217959 48.45996094 454.63491821 C52.7192566 451.79538777 56.46379037 451.89503945 61.45996094 452.63491821 Z M-244.54003906 492.63491821 C-240.80678868 495.14914806 -239.79207083 496.76855903 -238.54003906 501.07241821 C-238.54003906 505.16586057 -239.31999884 507.22557073 -241.54003906 510.63491821 C-245.79933472 513.47444865 -249.5438685 513.37479697 -254.54003906 512.63491821 C-257.66503906 510.75991821 -257.66503906 510.75991821 -259.54003906 507.63491821 C-260.52880532 502.60868975 -260.31695636 498.92978037 -257.66503906 494.50991821 C-253.25892153 491.86624769 -249.55283123 491.62248236 -244.54003906 492.63491821 Z M247.45996094 492.63491821 C250.58496094 494.50991821 250.58496094 494.50991821 252.45996094 497.63491821 C253.44872719 502.66114668 253.23687823 506.34005605 250.58496094 510.75991821 C246.1788434 513.40358873 242.47275311 513.64735407 237.45996094 512.63491821 C233.72671055 510.12068836 232.7119927 508.5012774 231.45996094 504.19741821 C231.45996094 500.10397585 232.23992071 498.0442657 234.45996094 494.63491821 C238.7192566 491.79538777 242.46379037 491.89503945 247.45996094 492.63491821 Z " fill="#000000" transform="translate(259.5400390625,-0.634918212890625)"/>
</svg>
