<?xml version="1.0" encoding="UTF-8"?>
<svg version="1.1" xmlns="http://www.w3.org/2000/svg" width="512" height="512">
<path d="M0 0 C1.41203662 -0.00230734 2.82407204 -0.00548569 4.23610497 -0.00945449 C8.09776652 -0.01777364 11.95932873 -0.01369036 15.82099056 -0.00748205 C19.99282936 -0.00294675 24.16465138 -0.00994667 28.33648682 -0.01544189 C36.50181662 -0.02432603 44.66710962 -0.02241825 52.83244085 -0.01661661 C59.46973821 -0.01209628 66.10702527 -0.01148883 72.74432373 -0.01366425 C73.68967936 -0.01397071 74.63503499 -0.01427718 75.60903776 -0.01459293 C77.52962637 -0.01523239 79.45021499 -0.01588082 81.37080359 -0.01653811 C99.3719273 -0.02223854 117.37303063 -0.01568803 135.37415099 -0.00493738 C150.81340904 0.00399787 166.25263702 0.00244574 181.69189453 -0.0067749 C199.62946632 -0.01748261 217.56702026 -0.02168924 235.5045948 -0.01555037 C237.41804123 -0.01491329 239.33148765 -0.01428455 241.24493408 -0.01366425 C242.1863385 -0.01335569 243.12774291 -0.01304714 244.09767473 -0.01272924 C250.7255009 -0.01100381 257.35331572 -0.01391415 263.98114014 -0.01862335 C272.06037582 -0.02423773 280.13957264 -0.02270399 288.21880388 -0.01206186 C292.33939534 -0.00681268 296.45992205 -0.00473558 300.580513 -0.01136017 C304.35553283 -0.01733731 308.13042815 -0.01401548 311.90543675 -0.00340506 C313.91150824 -0.00012705 315.91758842 -0.00662621 317.92365074 -0.01351953 C327.91772938 0.02978402 337.04451325 0.62608139 344.99462891 7.25396729 C353.26572056 15.98354517 353.2905036 24.71387553 353.26205444 36.2331543 C353.26579345 37.66678902 353.27039597 39.10042171 353.27578509 40.53405118 C353.28799959 44.46477016 353.28775645 48.39540392 353.28539634 52.32613754 C353.28498778 56.56894996 353.29603107 60.8117352 353.30551147 65.05453491 C353.32211405 73.36384655 353.32762069 81.67312981 353.32873623 89.98245665 C353.32968708 96.73801608 353.3337992 103.49356615 353.34013748 110.24912262 C353.35774804 129.40950792 353.36697667 148.56987083 353.36547653 167.73026428 C353.36539662 168.76289096 353.36531671 169.79551764 353.36523438 170.85943604 C353.36515261 171.89332605 353.36507085 172.92721607 353.36498661 173.99243608 C353.36417381 190.74583506 353.38331043 207.49914411 353.41151111 224.25251707 C353.44025016 241.46175706 353.45405083 258.6709532 353.45232356 275.88021779 C353.45166 285.53908794 353.45713732 295.19786382 353.47867966 304.85671234 C353.4969049 313.08089403 353.50122777 321.30493871 353.48766081 329.52913186 C353.48113788 333.72294101 353.48098941 337.91648742 353.49836731 342.11027145 C353.51413322 345.95467347 353.51119894 349.79860519 353.49379905 353.64299598 C353.48929384 355.68149933 353.5043588 357.72001746 353.52027833 359.75846362 C353.4540333 368.61606054 352.36829943 376.68572859 346.98681641 383.97271729 C346.28814453 384.56052979 345.58947266 385.14834229 344.86962891 385.75396729 C343.84482422 386.66662354 343.84482422 386.66662354 342.79931641 387.59771729 C334.3035638 392.61470768 325.36086545 392.68584151 315.73060608 392.64164734 C314.30262997 392.64582652 312.87465719 392.65130723 311.4466905 392.65796715 C307.54550927 392.67236385 303.64454033 392.66819525 299.74334776 392.66080034 C295.52716655 392.65605663 291.31103048 392.66858909 287.09486389 392.67881775 C278.84410024 392.69598721 270.59341281 392.69684966 262.34263594 392.69160485 C255.63481806 392.68755867 248.92702266 392.68901201 242.21920586 392.6943531 C240.78558965 392.69547574 240.78558965 392.69547574 239.3230115 392.69662105 C237.38124788 392.69815257 235.43948426 392.69969092 233.49772065 392.70123602 C215.30099903 392.7149542 197.10432044 392.70952802 178.9075998 392.6980508 C162.27078488 392.68811782 145.63408117 392.70106144 128.99728341 392.724985 C111.90094453 392.74938355 94.80465742 392.75898208 77.70830148 392.75233227 C68.11543349 392.74884191 58.52265102 392.75106014 48.92979622 392.7685833 C40.76423605 392.78331467 32.59882166 392.78392842 24.43326432 392.76651239 C20.26981795 392.75800797 16.10663187 392.75583911 11.94319916 392.77116394 C8.12666357 392.78503767 4.31061063 392.78021389 0.49410277 392.7609247 C-1.52933892 392.75540468 -3.55280534 392.76941371 -5.57619995 392.78427881 C-14.5926121 392.71180506 -22.11586009 391.23019137 -29.88037109 386.50396729 C-35.24684673 380.82181661 -38.12647096 375.22750272 -38.13959217 367.3786211 C-38.14627894 365.52737872 -38.14627894 365.52737872 -38.15310079 363.6387375 C-38.15301149 362.26176758 -38.15282163 360.88479766 -38.15254211 359.50782776 C-38.15584075 358.05075981 -38.15956631 356.59369277 -38.16368359 355.1366269 C-38.1737118 351.12269134 -38.1774217 347.10877074 -38.1800729 343.09482443 C-38.18397352 338.7695239 -38.19355202 334.44423523 -38.20228577 330.11894226 C-38.22205696 319.6684533 -38.23211718 309.21796336 -38.24101356 298.76746038 C-38.24539535 293.84777738 -38.25076244 288.92809546 -38.25600243 284.00841331 C-38.2730153 267.65709945 -38.28750991 251.30578627 -38.29475117 234.95446491 C-38.2966611 230.71030489 -38.29858143 226.46614487 -38.30053711 222.22198486 C-38.30102085 221.16710222 -38.30150459 220.11221958 -38.30200299 219.0253708 C-38.31030492 201.9334366 -38.33564435 184.84157235 -38.36811779 167.7496687 C-38.40117588 150.20722117 -38.41919879 132.66480921 -38.42239541 115.12233037 C-38.42456165 105.27066568 -38.43332708 95.419103 -38.45885658 85.56746864 C-38.48054649 77.17805599 -38.48862242 68.78877013 -38.4788898 60.39933262 C-38.47434014 56.11883332 -38.47626987 51.8385957 -38.49565125 47.55813217 C-38.51324838 43.63787117 -38.51231351 39.71806341 -38.49675395 35.79779782 C-38.49437261 34.38119452 -38.49872878 32.96456013 -38.5105826 31.54800443 C-38.58484142 22.08625161 -37.9795345 15.85563018 -31.63037109 8.50396729 C-21.81831267 0.09363149 -12.43161063 -0.04271802 0 0 Z M12.99462891 52.25396729 C12.99462891 147.29396729 12.99462891 242.33396729 12.99462891 340.25396729 C108.03462891 340.25396729 203.07462891 340.25396729 300.99462891 340.25396729 C300.99462891 245.21396729 300.99462891 150.17396729 300.99462891 52.25396729 C205.95462891 52.25396729 110.91462891 52.25396729 12.99462891 52.25396729 Z " fill="#B07D02" transform="translate(38.00537109375,119.74603271484375)"/>
<path d="M0 0 C0.969375 0.28875 1.93875 0.5775 2.9375 0.875 C7.71708622 10.43417244 4.9375 22.18752031 4.9375 32.875 C102.6175 32.875 200.2975 32.875 300.9375 32.875 C300.9375 22.975 300.9375 13.075 300.9375 2.875 C304.9375 -0.125 304.9375 -0.125 307.38909912 -0.07954407 C310.59879169 1.12269731 312.28807125 2.7243638 314.71191406 5.14770508 C315.62926331 6.05567337 316.54661255 6.96364166 317.49176025 7.89912415 C318.47931916 8.89716064 319.46643013 9.89564053 320.453125 10.89453125 C321.47425736 11.91550859 322.49605712 12.93581881 323.51849365 13.95549011 C325.65644074 16.0920542 327.7872575 18.23541267 329.91308594 20.3840332 C332.63724845 23.13659786 335.37671396 25.87330223 338.12146378 28.60532093 C340.23233569 30.7092359 342.33577032 32.8204595 344.43694305 34.93405724 C345.4443867 35.94601394 346.45392402 36.95589077 347.4655838 37.96363258 C348.87797814 39.37311441 350.27958078 40.79338531 351.68066406 42.21411133 C352.48054749 43.01939774 353.28043091 43.82468414 354.10455322 44.65437317 C356.8715843 48.00664914 356.8715843 48.00664914 356.9375 50.875 C355.1346241 54.67438923 352.63903427 57.42199629 349.68139648 60.37402344 C348.82718613 61.23131042 347.97297577 62.08859741 347.09288025 62.97186279 C346.1740657 63.88349182 345.25525116 64.79512085 344.30859375 65.734375 C343.35323703 66.68853843 342.39825098 67.64307312 341.44361877 68.59796143 C339.44864661 70.59137438 337.45037456 72.58139696 335.44946289 74.56884766 C332.88306132 77.11820249 330.32334964 79.67414854 327.76583767 82.23241806 C325.79733984 84.20064432 323.82624949 86.16625644 321.85426521 88.13098907 C320.44956297 89.53095958 319.0463592 90.93243309 317.64317322 92.33392334 C316.79211502 93.17860168 315.94105682 94.02328003 315.06420898 94.89355469 C314.31380844 95.64014343 313.5634079 96.38673218 312.79026794 97.15594482 C310.33479936 99.43420422 309.31937774 99.84317686 305.9375 100.125 C304.9475 100.0425 303.9575 99.96 302.9375 99.875 C297.00915292 90.98247937 300.9375 78.56247969 300.9375 67.875 C203.2575 67.875 105.5775 67.875 4.9375 67.875 C4.9375 77.115 4.9375 86.355 4.9375 95.875 C1.9375 99.875 1.9375 99.875 -0.93678284 100.38771057 C-4.88520986 99.74005112 -6.24003094 98.46843903 -9.07397461 95.67163086 C-10.48959938 94.29405861 -10.48959938 94.29405861 -11.93382263 92.88865662 C-12.94507919 91.87329732 -13.95539762 90.85700295 -14.96484375 89.83984375 C-16.01168671 88.80212575 -17.05926996 87.76515406 -18.1075592 86.72889709 C-20.29878006 84.55552978 -22.47829453 82.37118817 -24.65063477 80.17895508 C-27.43389149 77.37270296 -30.24761365 74.59944039 -33.07138729 71.83403683 C-35.24139428 69.70074483 -37.39245433 67.54911162 -39.53845406 65.39169502 C-40.56854142 64.36130118 -41.6048493 63.33708685 -42.64741325 62.31931877 C-44.10300074 60.89352687 -45.53060922 59.43934016 -46.95678711 57.98413086 C-47.77586044 57.16472519 -48.59493378 56.34531952 -49.43882751 55.50108337 C-51.0625 52.875 -51.0625 52.875 -51.07566833 49.35580444 C-49.95230412 45.49641503 -48.79603069 43.87353103 -45.95751953 41.07299805 C-45.08636505 40.19906906 -44.21521057 39.32514008 -43.31765747 38.42472839 C-42.36059555 37.49499392 -41.40313761 36.56566695 -40.4453125 35.63671875 C-39.46620036 34.66627065 -38.48834376 33.69455431 -37.51168823 32.72163391 C-34.94501155 30.17213483 -32.36040633 27.64157683 -29.77197266 25.11419678 C-27.66163186 23.04750979 -25.56440579 20.9677911 -23.46774483 18.88724041 C-20.96449825 16.40361088 -18.45584507 13.92548119 -15.9453125 11.44921875 C-15.22876684 10.74231179 -15.22876684 10.74231179 -14.49774551 10.02112389 C-13.14344737 8.68784715 -11.78495013 7.35883979 -10.42626953 6.0300293 C-9.6542923 5.27392868 -8.88231506 4.51782806 -8.08694458 3.73881531 C-3.85499925 -0.15734691 -3.85499925 -0.15734691 0 0 Z " fill="#B07D02" transform="translate(78.0625,0.125)"/>
<path d="M0 0 C2.01747131 1.217453 2.01747131 1.217453 3.80883789 2.94213867 C4.48858673 3.58468597 5.16833557 4.22723328 5.86868286 4.88925171 C6.57201752 5.58579865 7.27535217 6.28234558 8 7 C8.71276093 7.68873199 9.42552185 8.37746399 10.15988159 9.08706665 C12.47932499 11.34741554 14.77145871 13.63276184 17.05859375 15.92578125 C17.8883522 16.75458298 18.71811066 17.5833847 19.57301331 18.43730164 C21.31121573 20.17482795 23.04817362 21.91360011 24.78393555 23.65356445 C27.45052182 26.32554818 30.12245688 28.99210056 32.79492188 31.65820312 C34.48730026 33.35124159 36.17936881 35.04458985 37.87109375 36.73828125 C38.67203964 37.53720291 39.47298553 38.33612457 40.29820251 39.15925598 C41.03309402 39.89729965 41.76798553 40.63534332 42.52514648 41.39575195 C43.17386215 42.04526321 43.82257782 42.69477448 44.49095154 43.3639679 C46.65182455 45.70667438 46.98517005 46.76272086 47.1875 50 C47 53 47 53 45 55 C35.1 55 25.2 55 15 55 C15 153.01 15 251.02 15 352 C24.9 352 34.8 352 45 352 C47 354 47 354 47.5625 356.625 C46.95597845 360.26412928 46.40078712 361.01265949 44.01171875 363.64477539 C43.37419678 364.34821075 42.7366748 365.05164612 42.07983398 365.77639771 C36.04518802 372.22818795 29.83843735 378.5087426 23.62109375 384.78393555 C21.86742119 386.559333 20.12004868 388.34097461 18.37890625 390.12866211 C15.85028618 392.72406246 13.30263837 395.29933891 10.75 397.87109375 C9.59032715 399.07251259 9.59032715 399.07251259 8.40722656 400.29820251 C5.18797925 403.50534162 2.691267 405.71826873 -1.546875 407.44555664 C-6.85372853 406.76081345 -9.35145487 403.72301816 -13 400 C-14.49037644 398.56775153 -15.98119592 397.13596397 -17.47241211 395.70458984 C-19.07707442 394.12643567 -20.67859487 392.54508198 -22.27734375 390.9609375 C-23.12929825 390.11705475 -23.98125275 389.273172 -24.85902405 388.40371704 C-26.64453863 386.63194499 -28.42857097 384.85867807 -30.21118164 383.08398438 C-32.03682924 381.26994427 -33.86695734 379.46040281 -35.70141602 377.65527344 C-38.36149682 375.03764957 -41.00827409 372.40722152 -43.65234375 369.7734375 C-44.47516342 368.96812592 -45.29798309 368.16281433 -46.14573669 367.33309937 C-47.27810509 366.19634262 -47.27810509 366.19634262 -48.43334961 365.03662109 C-49.09983017 364.37600677 -49.76631073 363.71539246 -50.45298767 363.03475952 C-52.29810434 360.60790833 -52.81512199 359.03628785 -53 356 C-52.01 354.02 -52.01 354.02 -51 352 C-40.77 352 -30.54 352 -20 352 C-20 253.99 -20 155.98 -20 55 C-29.9 55 -39.8 55 -50 55 C-53 51 -53 51 -52.95256042 48.5493927 C-51.75610476 45.34724904 -50.16238268 43.64085803 -47.7590332 41.2097168 C-46.85752029 40.28913986 -45.95600739 39.36856293 -45.0271759 38.42008972 C-44.03570316 37.4291398 -43.04355484 36.43886542 -42.05078125 35.44921875 C-41.0348114 34.42547152 -40.01928949 33.40127956 -39.00419617 32.37666321 C-36.87650464 30.2340655 -34.74124967 28.09936201 -32.60083008 25.96948242 C-29.86102371 23.24127463 -27.14464246 20.49099464 -24.43394184 17.73390484 C-22.34339819 15.6138783 -20.23914322 13.50788885 -18.13069725 11.4056797 C-17.12330256 10.39725933 -16.1206167 9.38411172 -15.12282753 8.36618614 C-13.72560851 6.94425606 -12.30717258 5.54326893 -10.88793945 4.14331055 C-10.08709427 3.34120651 -9.28624908 2.53910248 -8.46113586 1.71269226 C-5.35538897 -0.44858163 -3.71245189 -0.56061137 0 0 Z " fill="#B07D02" transform="translate(465,77)"/>
</svg>
