<?xml version="1.0" encoding="UTF-8"?>
<svg version="1.1" xmlns="http://www.w3.org/2000/svg" width="512" height="512">
<path d="M0 0 C12.60332321 7.80464411 18.11586619 17.58441653 22.46875 31.30078125 C22.90421731 32.64291306 23.34051262 33.98477647 23.77758789 35.3263855 C25.11158013 39.43910465 26.41905191 43.55992532 27.71875 47.68359375 C28.1007959 48.89486938 28.4828418 50.10614502 28.87646484 51.35412598 C31.33090205 59.17526993 33.73276103 67.01209379 36.12231445 74.85326767 C37.8176989 80.41133583 39.5227676 85.96644995 41.22583008 91.52216911 C41.91191372 93.76066662 42.59755783 95.99929849 43.28320312 98.2379303 C47.04994934 110.53073664 50.84908723 122.813408 54.65625 135.09375 C54.94976349 136.04069984 55.24327698 136.98764969 55.54568481 137.96329498 C58.17781208 146.45512288 60.81064815 154.94673037 63.44677734 163.43731689 C64.82257169 167.86860367 66.19692585 172.30033484 67.57034302 176.73235893 C68.07617294 178.36363821 68.58255889 179.99474521 69.08956909 181.62565804 C78.26825401 211.15238683 78.26825401 211.15238683 78.03125 219.30859375 C78.00675781 220.62085938 77.98226562 221.933125 77.95703125 223.28515625 C77.76948028 225.96006349 77.41222291 228.12817922 76.71875 230.68359375 C77.88550483 230.68175016 79.05225965 230.67990658 80.25437069 230.67800713 C107.96847918 230.63466481 135.68258426 230.60169939 163.39671966 230.58146309 C166.80997137 230.57896176 170.22322301 230.57637311 173.63647461 230.57373047 C174.65572367 230.57294354 174.65572367 230.57294354 175.69556362 230.57214071 C186.68905617 230.56344486 197.68252774 230.54767941 208.67600786 230.52928816 C219.96148321 230.51056628 231.24694811 230.49962183 242.53243977 230.49541676 C248.86915046 230.49281015 255.20581362 230.48668642 261.54250908 230.47213364 C267.50877432 230.45854279 273.47497251 230.45437418 279.44125175 230.45737839 C281.62894048 230.4568289 283.81663148 230.45286046 286.00430679 230.4451828 C288.99651887 230.43519813 291.98847945 230.43763779 294.98069763 230.44308472 C296.27207859 230.43434619 296.27207859 230.43434619 297.58954805 230.42543113 C307.53354874 230.47418909 315.76114795 232.51480803 323.71875 238.68359375 C330.97610421 246.04987635 333.82715212 252.81542223 334.15625 263.05859375 C333.92311173 272.84068679 331.32707598 279.67775775 324.7890625 286.9375 C322.46411141 288.89835497 320.27205771 289.72280007 317.46875 290.87109375 C314.62200595 292.43637296 313.06735587 293.61197223 312.04589844 296.75195312 C310.96401637 302.14200572 310.52826277 307.61149031 310.01513672 313.07910156 C306.92143458 340.26494538 291.29416729 366.29511105 272.71875 385.68359375 C271.50832031 387.00617188 271.50832031 387.00617188 270.2734375 388.35546875 C261.64096998 397.4775389 251.517884 404.34587804 240.71875 410.68359375 C242.30858505 414.06299186 244.25753093 417.11035127 246.28125 420.24609375 C259.99450894 442.25639728 269.65274812 468.27335212 270.15625 494.37109375 C270.17872803 495.12616211 270.20120605 495.88123047 270.22436523 496.65917969 C270.2079767 500.37895645 269.84616081 502.4855445 267.81640625 505.640625 C264.10008971 509.26005433 260.82207011 508.83431318 255.88787842 508.8374939 C255.06960894 508.84187615 254.25133946 508.8462584 253.40827394 508.85077345 C250.65076109 508.86418873 247.89328021 508.87034642 245.13574219 508.87646484 C243.16491042 508.88436365 241.19408012 508.89263247 239.22325134 508.90124512 C232.73739 508.92749053 226.25152211 508.94277514 219.765625 508.95703125 C217.53509771 508.96238987 215.30457047 508.96776737 213.07404327 508.9731636 C203.79734227 508.9947959 194.52064304 509.01353354 185.24392319 509.024786 C171.93786222 509.04103066 158.63209303 509.07421717 145.32614207 509.13118684 C135.97661606 509.16985565 126.62716819 509.18941506 117.27756429 509.19470656 C111.69037049 509.19836416 106.10348772 509.21042904 100.51638031 509.2428093 C95.25994247 509.27283595 90.00400472 509.27922094 84.74749947 509.26742554 C82.81815542 509.26720435 80.88878854 509.27554652 78.95952415 509.29307938 C76.32493061 509.31571891 73.69215844 509.30750096 71.05755615 509.29159546 C70.29431683 509.30547755 69.53107751 509.31935963 68.74470973 509.33366239 C62.96783916 509.24775038 60.6108006 507.658966 56.71875 503.68359375 C55.46235457 500.77003765 55.57099537 497.8164014 55.5078125 494.66015625 C55.48170898 493.65476807 55.45560547 492.64937988 55.42871094 491.61352539 C55.40067383 490.52289795 55.37263672 489.43227051 55.34375 488.30859375 C53.91491299 445.63259424 45.36165804 406.63752098 30.64257812 366.76861572 C25.28715703 352.24650294 20.12281177 337.81275718 16.71875 322.68359375 C16.53538086 321.86890625 16.35201172 321.05421875 16.16308594 320.21484375 C14.07823714 310.46708769 13.40326478 300.76566865 13.21875 290.80859375 C13.18789307 289.77919678 13.15703613 288.7497998 13.12524414 287.68920898 C13.12464262 280.4570907 13.12464262 280.4570907 16.125 276.55078125 C20.3236333 273.52827114 23.31060663 273.56073317 28.34375 273.62109375 C29.40335938 273.62786133 29.40335938 273.62786133 30.484375 273.63476562 C32.22920275 273.646555 33.973987 273.66449051 35.71875 273.68359375 C35.47705078 272.89275391 35.47705078 272.89275391 35.23046875 272.0859375 C34.59455763 269.10055325 34.54889071 266.29793702 34.53125 263.24609375 C34.51707031 262.13363281 34.50289063 261.02117187 34.48828125 259.875 C34.71627098 256.71792187 35.37433991 254.52651628 36.71875 251.68359375 C35.79255859 251.48056641 35.79255859 251.48056641 34.84765625 251.2734375 C24.92676662 248.7516893 17.66817105 242.9356891 11.71875 234.68359375 C8.32817829 228.90163599 6.27794845 222.75217061 4.3125 216.375 C3.99564743 215.36595612 3.67879486 214.35691223 3.3523407 213.31729126 C2.30099475 209.96231372 1.25973669 206.60429873 0.21875 203.24609375 C-0.53171581 200.84206969 -1.2826214 198.43818289 -2.03393555 196.03442383 C-4.46189057 188.25457108 -6.8738883 180.4698375 -9.28125 172.68359375 C-9.4822657 172.03356888 -9.6832814 171.38354401 -9.89038849 170.71382141 C-14.85815307 154.64784077 -19.80192895 138.57452101 -24.73383904 122.49750137 C-27.89821451 112.18228545 -31.07024203 101.86945188 -34.24826241 91.55843163 C-34.95460575 89.26663769 -35.66079519 86.9747964 -36.3669281 84.68293762 C-36.59669877 83.93719073 -36.82646944 83.19144384 -37.06320286 82.42309856 C-37.5224149 80.93266707 -37.98162499 79.44223497 -38.44083309 77.95180225 C-39.56098285 74.3163915 -40.68146461 70.6810837 -41.80264282 67.04598999 C-43.04014694 63.03361648 -44.27598945 59.02073297 -45.51171875 55.0078125 C-46.06489273 53.21579407 -46.06489273 53.21579407 -46.62924194 51.38757324 C-46.96581818 50.29376343 -47.30239441 49.19995361 -47.64916992 48.07299805 C-47.94192307 47.12321579 -48.23467621 46.17343353 -48.53630066 45.19487 C-51.43217967 35.43265964 -52.20406079 22.90234055 -47.28125 13.68359375 C-36.88134575 -3.12805088 -17.88576541 -8.67263076 0 0 Z M-27.28125 23.68359375 C-30.77026252 30.66161879 -27.16362804 39.46439653 -24.94140625 46.31640625 C-24.5883139 47.44079605 -24.23522156 48.56518585 -23.87142944 49.72364807 C-22.70717759 53.42241969 -21.52533816 57.11532769 -20.34375 60.80859375 C-19.51863361 63.41550106 -18.69772773 66.0237262 -17.87719727 68.63208008 C-16.39545097 73.3389362 -14.90999485 78.04458525 -13.41952038 82.74868488 C-9.80813836 94.14979384 -6.27696867 105.57533661 -2.75622559 117.00473022 C-1.36928034 121.50504036 0.02172588 126.00409126 1.41259766 130.50318909 C4.34122889 139.97720713 7.26460893 149.45283262 10.18330383 158.92991638 C11.72008776 163.91906975 13.25839411 168.90775311 14.79684448 173.89639282 C15.52345898 176.25404729 16.2493373 178.61192879 16.97439575 180.97006226 C18.91321138 187.27556125 20.86636401 193.5761853 22.84222412 199.87017822 C23.68531796 202.57628576 24.50700542 205.28818429 25.32666016 208.00146484 C25.82746207 209.60805585 26.32919008 211.21435859 26.83203125 212.8203125 C27.03797409 213.52372269 27.24391693 214.22713287 27.45610046 214.95185852 C29.4836531 221.28691331 33.0978797 225.95493462 38.65625 229.62109375 C42.36579708 230.90807947 44.81754151 231.24090925 48.71875 230.68359375 C51.68673207 228.8868333 54.14276242 226.8355689 55.71875 223.68359375 C56.24186306 216.1660212 54.68756052 210.1692973 52.37890625 203.05078125 C51.84926773 201.36419655 51.84926773 201.36419655 51.30892944 199.64353943 C50.14467759 195.94476781 48.96283816 192.25185981 47.78125 188.55859375 C46.95613361 185.95168644 46.13522773 183.3434613 45.31469727 180.73510742 C43.83295097 176.0282513 42.34749485 171.32260225 40.85702038 166.61850262 C37.24563836 155.21739366 33.71446867 143.79185089 30.19372559 132.36245728 C28.80678034 127.86214714 27.41577412 123.36309624 26.02490234 118.86399841 C23.09627111 109.38998037 20.17289107 99.91435488 17.25419617 90.43727112 C15.71741224 85.44811775 14.17910589 80.45943439 12.64065552 75.47079468 C11.91404102 73.11314021 11.1881627 70.75525871 10.46310425 68.39712524 C8.52428862 62.09162625 6.57113599 55.7910022 4.59527588 49.49700928 C3.75218204 46.79090174 2.93049458 44.07900321 2.11083984 41.36572266 C1.61003793 39.75913165 1.10830992 38.15282891 0.60546875 36.546875 C0.39952591 35.84346481 0.19358307 35.14005463 -0.01860046 34.41532898 C-2.0461531 28.08027419 -5.6603797 23.41225288 -11.21875 19.74609375 C-18.5024256 17.21910426 -22.08481529 18.48715904 -27.28125 23.68359375 Z M59.40625 256.43359375 C57.247834 259.31148175 56.79066604 261.08779177 56.71875 264.68359375 C57.95650439 268.39685691 58.94804584 270.17738291 62.23451138 272.33598614 C66.75514855 274.08444419 70.6007244 274.09711714 75.40406799 274.05781555 C76.37346862 274.06178996 77.34286925 274.06576436 78.34164566 274.06985921 C81.58671875 274.07947604 84.83135522 274.06766758 88.07641602 274.0559082 C90.40413577 274.05833635 92.73185448 274.06205588 95.05957031 274.06697083 C101.37965276 274.07637976 107.69958034 274.0669545 114.0196507 274.0536387 C119.96040518 274.04347391 125.90114496 274.04593739 131.84190582 274.04784121 C143.61264763 274.05102949 155.38332888 274.03937222 167.15405273 274.01977539 C178.57399337 274.00076759 189.99386304 273.99368917 201.41381836 273.99926758 C213.85306322 274.00532592 226.29227689 274.00514762 238.73151916 273.99378175 C245.31503884 273.98779613 251.89853515 273.98411394 258.48205757 273.98674965 C264.67001898 273.98863107 270.85788916 273.98053982 277.04582977 273.96468925 C279.31904918 273.9604411 281.59227782 273.95959941 283.8654995 273.96237946 C286.96390553 273.96559424 290.06203777 273.956537 293.16041565 273.94429016 C294.06391347 273.94806948 294.96741129 273.95184881 295.89828783 273.95574266 C301.64483371 273.91545152 305.73789458 273.61091254 310.03125 269.43359375 C312.06148858 266.1250568 312.27583476 264.50360355 311.71875 260.68359375 C310.28703877 257.06220651 309.15152719 255.91623421 305.70296574 254.06245136 C301.17656709 252.23385734 296.86020802 252.26920113 292.03379822 252.30937195 C291.07649939 252.30539754 290.11920056 252.30142314 289.13289267 252.29732829 C285.93471545 252.28772678 282.73698296 252.29951061 279.53881836 252.3112793 C277.24212987 252.30885065 274.94544245 252.30513062 272.64875793 252.30021667 C266.41750684 252.29081467 260.18641301 252.30022718 253.95517421 252.3135488 C247.43435439 252.32486766 240.91354227 252.32075549 234.39271545 252.31880188 C223.44334289 252.31791911 212.4940336 252.32892541 201.54467773 252.34741211 C190.28391652 252.36641952 179.02322728 252.37349818 167.76245117 252.36791992 C154.18362699 252.36121325 140.60485522 252.3645112 127.0260334 252.3770237 C121.84235608 252.38166948 116.6586983 252.38254362 111.47501945 252.38043785 C105.37240188 252.37855508 99.2698767 252.3866581 93.1672802 252.40249825 C90.92673118 252.40674284 88.6861728 252.40759048 86.44562149 252.40480804 C83.38921877 252.4015881 80.33309244 252.41066355 77.27671814 252.42289734 C76.38848813 252.41911802 75.50025811 252.41533869 74.58511204 252.41144484 C68.88413098 252.45185745 64.10514806 252.87767089 59.40625 256.43359375 Z M35.71875 295.68359375 C37.11185393 308.97906052 37.11185393 308.97906052 39.71875 321.93359375 C39.92604736 322.74183594 40.13334473 323.55007813 40.34692383 324.3828125 C44.38632141 339.46995546 49.93856162 354.17465719 55.34375 368.81640625 C69.54875562 407.43239937 75.5630567 445.725421 77.71875 486.68359375 C133.48875 486.68359375 189.25875 486.68359375 246.71875 486.68359375 C245.96970068 479.94214988 245.08830497 474.56700655 243.15625 468.24609375 C242.76143433 466.95227783 242.76143433 466.95227783 242.35864258 465.63232422 C237.23013569 449.38091318 230.1657657 432.67691475 217.71875 420.68359375 C216.4536422 419.30143857 215.20202787 417.90672353 213.96875 416.49609375 C213.37578125 415.82191406 212.7828125 415.14773438 212.171875 414.453125 C209.81192794 411.5793185 209.56526062 409.95317222 209.84375 406.30859375 C209.90949219 405.15230469 209.90949219 405.15230469 209.9765625 403.97265625 C211.21029327 400.16757083 214.03886373 398.60428699 217.45068359 396.734375 C219.40108214 395.74822416 221.36850071 394.80640478 223.34375 393.87109375 C235.37632627 387.97370999 245.09454921 380.96407308 254.71875 371.68359375 C255.5128125 370.96429688 256.306875 370.245 257.125 369.50390625 C275.06663846 352.76258867 286.15330507 326.56917606 289.71875 302.68359375 C289.71875 300.37359375 289.71875 298.06359375 289.71875 295.68359375 C205.89875 295.68359375 122.07875 295.68359375 35.71875 295.68359375 Z " fill="#B07D02" transform="translate(114.28125,3.31640625)"/>
<path d="M0 0 C3.88940596 1.65506637 5.42273251 3.14132774 7 7 C8.07269396 16.33431941 1.85806642 24.42033683 -3.59375 31.375 C-15.16257218 45.64520285 -29.20446306 56.71587967 -46.625 62.9375 C-50.90714414 63.050188 -54.37956308 61.08029128 -57.875 58.75 C-59.74013969 55.84867159 -59.88602659 53.41920228 -60 50 C-58.66259338 45.22665442 -57.48722868 42.9358027 -53.15625 40.4453125 C-51.6125403 39.6552944 -50.05990942 38.88252942 -48.5 38.125 C-31.95221751 29.46470883 -22.6147392 18.08927477 -12.375 2.828125 C-9.34852508 -1.19571097 -4.60651991 -0.44630643 0 0 Z " fill="#B07D02" transform="translate(367,320)"/>
</svg>
