<?xml version="1.0" encoding="UTF-8"?>
<svg version="1.1" xmlns="http://www.w3.org/2000/svg" width="512" height="512">
<path d="M0 0 C1.20985565 0.32345398 2.4197113 0.64690796 3.66622925 0.98016357 C6.85826894 1.83739287 10.04685882 2.70623599 13.23449707 3.57965088 C15.17953126 4.10933245 17.12659059 4.6307031 19.07470703 5.14892578 C22.84418553 6.15198959 26.61009103 7.16743237 30.375 8.1875 C31.52727081 8.49496155 32.67954163 8.8024231 33.86672974 9.11920166 C43.881826 11.88008853 52.22712147 14.82535339 58.0546875 23.859375 C58.90386193 25.98335174 59.66638748 28.14287048 60.3671875 30.3203125 C60.57494308 30.96304611 60.78269867 31.60577972 60.99674988 32.26799011 C63.65996738 40.60066382 66.11304542 48.99970218 68.55883789 57.39819336 C69.37945431 60.21396597 70.2060811 63.0279292 71.03320312 65.84179688 C71.55764527 67.63531331 72.08174703 69.42892931 72.60546875 71.22265625 C72.85226883 72.06210281 73.09906891 72.90154938 73.35334778 73.76643372 C75.0546875 79.62924573 75.0546875 79.62924573 75.0546875 81.859375 C75.83803101 81.85823584 76.62137452 81.85709668 77.42845571 81.855923 C123.85757221 81.78878619 170.28668343 81.73731401 216.71583875 81.70617901 C222.29086524 81.7024269 227.86589163 81.69854393 233.44091797 81.69458008 C234.55080356 81.69379315 235.66068915 81.69300622 236.80420764 81.69219544 C254.77441082 81.67914216 272.74458521 81.65548873 290.71477132 81.62791661 C309.15436016 81.59986028 327.59393392 81.58319825 346.03354323 81.57710952 C357.41140658 81.57299356 368.78918854 81.55999435 380.16702683 81.5356256 C387.96963895 81.51976562 395.772209 81.51497525 403.57483606 81.51887087 C408.07627305 81.52079199 412.57756781 81.51785052 417.07897949 81.50175858 C421.20355407 81.48712168 425.32789125 81.48644715 429.45247693 81.49667832 C430.94120969 81.49794217 432.42995747 81.49416876 433.9186608 81.48472545 C445.30730275 81.41670958 454.86871828 81.88924993 463.36328125 90.0234375 C469.79800633 97.00801207 470.41348336 103.03651116 470.3359375 112.37109375 C469.84704419 118.43472878 467.63048757 121.97716936 463.8046875 126.546875 C457.49260728 131.85476064 452.20490796 135.00559721 443.8515625 134.95703125 C442.871875 134.95380859 441.8921875 134.95058594 440.8828125 134.94726562 C439.86703125 134.93888672 438.85125 134.93050781 437.8046875 134.921875 C436.2578125 134.91510742 436.2578125 134.91510742 434.6796875 134.90820312 C432.13795877 134.89643586 429.59636291 134.87913269 427.0546875 134.859375 C426.83296875 136.11983643 426.61125 137.38029785 426.3828125 138.67895508 C424.68092623 147.15771764 422.17110306 155.43464574 419.8046875 163.74609375 C419.2730027 165.62422197 418.74164848 167.50244381 418.21060181 169.38075256 C416.7902836 174.4004273 415.36511813 179.41871259 413.93860626 184.43663025 C412.46154473 189.63396635 410.98763631 194.83219677 409.51318359 200.03027344 C407.73291946 206.30516662 405.95182575 212.57982203 404.16830444 218.85379028 C401.0237023 229.91610894 397.88848773 240.98095725 394.77154541 252.05110168 C393.31771396 257.21416726 391.85842794 262.37568382 390.39697647 267.53659725 C389.44942658 270.88354549 388.50445222 274.23116935 387.56591797 277.58065796 C386.54094328 281.23300107 385.50612621 284.88241328 384.46875 288.53125 C384.03292099 290.09831444 384.03292099 290.09831444 383.58828735 291.69703674 C379.29580223 306.6786163 379.29580223 306.6786163 373.7421875 311.171875 C373.20980469 311.62175781 372.67742187 312.07164062 372.12890625 312.53515625 C365.9820946 316.45939194 360.97259307 317.2993869 353.82289124 317.25810242 C352.46022217 317.26807266 352.46022217 317.26807266 351.07002443 317.27824432 C348.03753463 317.29684043 345.00544057 317.29427128 341.97290039 317.29174805 C339.79455001 317.30076726 337.61620471 317.31109487 335.43786621 317.32263184 C329.5314309 317.35020911 323.62509187 317.3594874 317.71860051 317.36548591 C311.54327279 317.37486761 305.36801703 317.40107088 299.19273376 317.42549133 C287.50217035 317.46916552 275.81162089 317.4977069 264.12100071 317.52081472 C250.81028626 317.5478614 237.49965253 317.59177327 224.18898785 317.63710344 C196.81092697 317.72996294 169.43284339 317.80163776 142.0546875 317.859375 C142.20615234 318.42446777 142.35761719 318.98956055 142.51367188 319.57177734 C143.19657226 322.12529948 143.87567414 324.67981664 144.5546875 327.234375 C144.79316406 328.12382812 145.03164062 329.01328125 145.27734375 329.9296875 C145.61572266 331.20585938 145.61572266 331.20585938 145.9609375 332.5078125 C146.17041016 333.29333496 146.37988281 334.07885742 146.59570312 334.88818359 C147.0546875 336.859375 147.0546875 336.859375 147.0546875 338.859375 C148.68479767 338.84340019 148.68479767 338.84340019 150.34783936 338.82710266 C161.39426468 338.75263389 172.35762982 339.1270132 183.3828125 339.77734375 C185.11654279 339.87601778 186.8502928 339.97434567 188.58406067 340.07235718 C193.20205854 340.335176 197.81959907 340.60528904 202.43703079 340.87785721 C205.32691896 341.04818531 208.21689792 341.2168928 211.10690308 341.38522339 C304.10006286 346.81112153 304.10006286 346.81112153 344.6796875 350.984375 C345.42115021 351.05882843 346.16261292 351.13328186 346.92654419 351.20999146 C361.60386722 352.71047261 374.20997827 354.52511664 384.8046875 365.484375 C391.54148153 373.79151729 393.93719248 382.55985155 393.53515625 393.17578125 C392.31505841 402.52986469 388.19689165 410.65839155 381.0546875 416.859375 C371.63434669 423.75531075 362.67835569 426.03496723 351.0546875 424.859375 C339.94846055 422.25658413 332.15073987 416.38445683 326.0546875 406.859375 C322.27352666 400.07936246 322.0546875 395.98005695 322.0546875 387.859375 C265.9546875 387.859375 209.8546875 387.859375 152.0546875 387.859375 C152.0546875 390.499375 152.0546875 393.139375 152.0546875 395.859375 C149.93676836 405.52813629 144.76640517 413.46431035 136.7421875 419.234375 C127.65745364 424.75887532 117.5546311 426.63172482 107.12890625 424.16796875 C96.72323703 420.72819704 88.84546989 414.51940346 83.8046875 404.671875 C79.89778478 396.55384353 79.82298768 386.6097808 81.703125 377.83203125 C84.75402457 369.57895676 90.23084061 362.04422334 98.0546875 357.859375 C98.7146875 357.859375 99.3746875 357.859375 100.0546875 357.859375 C99.68714355 356.62429199 99.31959961 355.38920898 98.94091797 354.11669922 C93.04293069 334.15875956 87.54961672 314.08928381 82.01887131 294.02732849 C79.70036487 285.62022246 77.37707164 277.21443668 75.05470848 268.80839539 C74.15681331 265.55821179 73.25910505 262.30797659 72.36140442 259.05773926 C66.93364602 239.4084694 61.48333137 219.76549938 56.02481079 200.12475586 C54.74995571 195.53743572 53.47588115 190.94989924 52.20208263 186.36228561 C47.05805191 167.8363893 41.90477851 149.31313437 36.73008728 130.79577637 C34.66690326 123.41236188 32.60708236 116.02801035 30.54806614 108.64343262 C28.86328407 102.60223913 27.17396335 96.56233907 25.48123741 90.52336693 C24.44195834 86.81155454 23.40694124 83.09856389 22.37312317 79.3852272 C21.89188612 77.66013261 21.40884722 75.93553953 20.92390442 74.211483 C20.26214652 71.85794076 19.60673494 69.50272084 18.95288086 67.14697266 C18.66104746 66.1179439 18.66104746 66.1179439 18.36331844 65.06812668 C17.46893449 61.82010746 17.0546875 59.26961552 17.0546875 55.859375 C16.12914062 55.65183594 15.20359375 55.44429687 14.25 55.23046875 C4.95980857 53.11492738 -4.2850627 50.8131753 -13.5078125 48.421875 C-15.16562744 48.00796509 -15.16562744 48.00796509 -16.85693359 47.58569336 C-26.85932177 44.95112898 -35.15226408 41.00672934 -40.7578125 31.921875 C-43.17976387 25.52400345 -43.12787976 17.63702041 -41.1015625 11.1640625 C-37.79206028 4.56741956 -32.62909142 0.62118231 -26.0703125 -2.515625 C-16.95351901 -4.3389837 -8.82695453 -2.42585443 0 0 Z M93.0546875 137.859375 C92.0394104 141.00883018 92.09541741 142.93847547 93.0017395 146.1050415 C93.23714951 146.94566132 93.47255951 147.78628113 93.71510315 148.65237427 C93.98201462 149.56663177 94.24892609 150.48088928 94.52392578 151.42285156 C94.79860184 152.39259918 95.07327789 153.3623468 95.35627747 154.36148071 C96.26971163 157.57710538 97.19721957 160.78848789 98.125 164 C98.76544272 166.24258862 99.40506898 168.48541054 100.04391479 170.72845459 C101.73303999 176.64978186 103.4343633 182.56754045 105.13787842 188.48474121 C106.51418443 193.27314762 107.88175751 198.06402566 109.24882698 202.85507584 C110.89192951 208.61261116 112.53923853 214.36893974 114.1875 220.125 C114.49680576 221.20574043 114.80611153 222.28648087 115.12479019 223.39997101 C118.94618563 243.34948747 118.94618563 243.34948747 127.0546875 260.859375 C128.40563732 260.95206499 129.76135841 260.97684826 131.11547852 260.97290039 C131.97629532 260.97282486 132.83711212 260.97274933 133.72401428 260.97267151 C135.12713112 260.96492958 135.12713112 260.96492958 136.55859375 260.95703125 C137.98811623 260.95490883 137.98811623 260.95490883 139.44651794 260.95274353 C142.50343915 260.94712652 145.56028827 260.93457116 148.6171875 260.921875 C150.68424374 260.91686219 152.75130112 260.91229891 154.81835938 260.90820312 C159.89716338 260.89715156 164.9759132 260.87987555 170.0546875 260.859375 C169.51237806 253.89060609 168.41545583 247.22197882 166.86157227 240.41186523 C166.6403067 239.42024384 166.41904114 238.42862244 166.19107056 237.4069519 C165.46497592 234.15934833 164.73059892 230.91367948 163.99609375 227.66796875 C163.48613179 225.3946522 162.97669508 223.12121776 162.46775818 220.84767151 C161.13059362 214.88075041 159.78639612 208.91543549 158.44067383 202.95043945 C157.07537976 196.89303485 155.71664831 190.83415908 154.35742188 184.77539062 C152.16012047 174.98410822 149.95904088 165.19368536 147.75202942 155.40458679 C147.55719971 154.54000854 147.36237 153.6754303 147.16163635 152.78465271 C146.97624865 151.96557875 146.79086094 151.14650478 146.59985542 150.3026104 C146.22487603 148.62209529 145.85928041 146.9394676 145.50150871 145.25520515 C145.32678095 144.43739508 145.15205318 143.619585 144.97203064 142.7769928 C144.81896422 142.04638673 144.66589781 141.31578066 144.50819302 140.56303501 C144.20182623 138.83937457 144.20182623 138.83937457 143.0546875 137.859375 C141.48921702 137.76610784 139.91955978 137.74191918 138.35131836 137.74584961 C136.84987526 137.74596291 136.84987526 137.74596291 135.31809998 137.74607849 C134.2295723 137.75123978 133.14104462 137.75640106 132.01953125 137.76171875 C130.3569503 137.76384117 130.3569503 137.76384117 128.66078186 137.76600647 C125.10455681 137.77162467 121.54839367 137.78418025 117.9921875 137.796875 C115.58789153 137.80188766 113.18359458 137.80645097 110.77929688 137.81054688 C104.87107246 137.82160001 98.9628844 137.83835583 93.0546875 137.859375 Z M196.0546875 137.859375 C194.97421837 141.10078239 195.12599348 142.31132594 195.72494507 145.59703064 C195.89882248 146.57141586 196.07269989 147.54580109 196.25184631 148.54971313 C196.45023605 149.6173288 196.64862579 150.68494446 196.85302734 151.78491211 C197.05610001 152.9103392 197.25917267 154.0357663 197.46839905 155.19529724 C198.1436535 158.92710946 198.82955206 162.65688157 199.515625 166.38671875 C199.98609663 168.97348583 200.45594745 171.56036588 200.92520142 174.14735413 C201.91071972 179.57464478 202.901689 185.00091613 203.89648438 190.42651367 C205.29867723 198.07412189 206.690814 205.72353536 208.08104777 213.37332523 C209.16138128 219.31565866 210.24464851 225.25745771 211.328125 231.19921875 C211.67519564 233.10309011 211.67519564 233.10309011 212.0292778 235.04542351 C212.6838358 238.63204649 213.34033048 242.21830882 213.99755859 245.80444336 C214.19189987 246.87003479 214.38624115 247.93562622 214.58647156 249.0335083 C214.76598862 250.01071335 214.94550568 250.9879184 215.13046265 251.99473572 C215.28570089 252.84257598 215.44093914 253.69041624 215.60088158 254.56394863 C216.01858409 256.67675788 216.5323377 258.7699758 217.0546875 260.859375 C227.9446875 260.859375 238.8346875 260.859375 250.0546875 260.859375 C254.61332162 238.64289907 258.699059 216.34577789 262.75 194.03198242 C263.74145316 188.5735765 264.74288369 183.11704696 265.74630547 177.6608305 C266.52217584 173.43173839 267.29068881 169.20133367 268.05716324 164.97052956 C268.42358468 162.95536348 268.79280873 160.94070487 269.16491318 158.92658043 C269.68010867 156.13429346 270.18484671 153.34030964 270.68701172 150.5456543 C270.84171432 149.7203421 270.99641693 148.89502991 271.1558075 148.04470825 C271.84451013 144.14988448 272.03061929 141.76310218 271.0546875 137.859375 C246.3046875 137.859375 221.5546875 137.859375 196.0546875 137.859375 Z M324.0546875 137.859375 C320.74406847 150.20188579 320.74406847 150.20188579 317.81225586 162.61767578 C317.62141922 163.47680573 317.43058258 164.33593567 317.23396301 165.22109985 C316.61781784 167.99830763 316.0061447 170.77647857 315.39453125 173.5546875 C314.95932734 175.51999381 314.52382026 177.48523301 314.08802795 179.45040894 C312.95044017 184.58371473 311.8165802 189.71783633 310.68365479 194.85217285 C309.30995179 201.07476003 307.93221418 207.29645486 306.55464268 213.51818657 C305.48225682 218.3616275 304.41057478 223.2052196 303.34129333 228.04934692 C303.14466882 228.93905622 302.9480443 229.82876553 302.74546146 230.74543571 C302.36641845 232.46071579 301.98789815 234.17611148 301.60995388 235.89163399 C300.80176884 239.54748802 299.98194691 243.19873682 299.10720825 246.83929443 C298.83149994 247.98915833 298.55579163 249.13902222 298.27172852 250.32373047 C297.91535057 251.77004349 297.91535057 251.77004349 297.55177307 253.24557495 C296.89899683 256.23459417 296.89899683 256.23459417 297.0546875 260.859375 C311.5746875 260.859375 326.0946875 260.859375 341.0546875 260.859375 C346.81820424 242.24540857 352.1479356 223.52909923 357.39855957 204.76611328 C359.13186312 198.57330188 360.86881134 192.38151443 362.6071167 186.19010544 C363.23631022 183.9467365 363.86361266 181.70284495 364.49072266 179.45889282 C366.36176412 172.77726372 368.26311363 166.10972005 370.2734375 159.46826172 C370.60835205 158.35571518 370.9432666 157.24316864 371.28833008 156.09690857 C371.90297249 154.06861417 372.52709697 152.04315697 373.1628418 150.02137756 C373.43008057 149.13896896 373.69731934 148.25656036 373.97265625 147.34741211 C374.20750732 146.59447372 374.4423584 145.84153534 374.68432617 145.06578064 C375.26849818 142.38690162 375.26849818 142.38690162 374.0546875 137.859375 C357.5546875 137.859375 341.0546875 137.859375 324.0546875 137.859375 Z " fill="#B07D02" transform="translate(41.9453125,45.140625)"/>
</svg>
