<?xml version="1.0" encoding="UTF-8"?>
<svg version="1.1" xmlns="http://www.w3.org/2000/svg" width="512" height="512">
<path d="M0 0 C3.89994577 1.69314719 7.07328893 4.24812803 10.375 6.875 C11.29212769 7.59985596 11.29212769 7.59985596 12.2277832 8.33935547 C17.84347618 12.81093808 23.28197863 17.47705167 28.7109375 22.171875 C32.4106364 25.36619717 36.18718867 28.46058157 39.98046875 31.54296875 C43.70786586 34.57599951 47.41676095 37.63109821 51.125 40.6875 C52.59635267 41.8997414 54.06770686 43.11198096 55.5390625 44.32421875 C56.27801758 44.93313965 57.01697266 45.54206055 57.77832031 46.16943359 C61.3516205 49.11367588 64.92584428 52.0567964 68.5 55 C69.91667137 56.16666096 71.33333803 57.33332763 72.75 58.5 C73.801875 59.36625 73.801875 59.36625 74.875 60.25 C77 62 79.125 63.75 81.25 65.5 C81.95157227 66.0777417 82.65314453 66.6554834 83.37597656 67.25073242 C84.78948203 68.41484354 86.20289384 69.5790684 87.61621094 70.7434082 C91.20547571 73.70012504 94.79645822 76.65471204 98.390625 79.60546875 C104.9421619 84.987271 111.47950768 90.38108818 117.9375 95.875 C122.28635274 99.5741605 126.69500943 103.18245094 131.16796875 106.73046875 C137.08000444 111.46825183 142.90232455 116.31685364 148.74462891 121.14013672 C150.96674748 122.97257873 153.19180351 124.80138335 155.41796875 126.62890625 C162.65383901 132.57164339 169.87096664 138.53070177 176.97949219 144.62573242 C179.25914885 146.57215647 181.50041543 148.33361029 184 150 C184.38311005 152.7537632 184.38311005 152.7537632 184.39440918 156.33682251 C184.40050028 156.99442232 184.40659139 157.65202212 184.41286707 158.32954919 C184.42957919 160.54360311 184.42470977 162.75708704 184.41992188 164.97119141 C184.42725785 166.5545512 184.43584269 168.13790564 184.44558716 169.72125244 C184.46787093 174.0314981 184.47073013 178.34155296 184.46883965 182.65184832 C184.46872017 186.24996724 184.4772757 189.84804542 184.48561716 193.44615304 C184.50487894 201.93922716 184.50772627 210.43220299 184.50097656 218.92529297 C184.49434568 227.68107074 184.51715516 236.43642616 184.55429029 245.19211829 C184.58501588 252.70986821 184.59634386 260.22748254 184.59245348 267.74529397 C184.59038753 272.234842 184.59584002 276.72406206 184.62034607 281.21355057 C184.6426557 285.44082418 184.64070074 289.66741437 184.62041855 293.89469147 C184.617015 295.44261839 184.62206941 296.99059165 184.63640213 298.53845596 C184.76963113 313.99929811 184.76963113 313.99929811 179 320 C174.19868207 324.17790383 170.14451364 326.12648826 163.77986145 326.12025452 C162.69872574 326.12162918 161.61759003 326.12300385 160.50369263 326.12442017 C159.31758392 326.12082489 158.13147522 326.11722961 156.90942383 326.11352539 C155.66052872 326.11367142 154.41163361 326.11381744 153.12489319 326.1139679 C149.69953667 326.11339013 146.27424024 326.10837085 142.84889436 326.10139394 C139.26943784 326.09514756 135.68998054 326.09455558 132.11051941 326.09336853 C125.33199544 326.09025901 118.55348758 326.08205072 111.77497071 326.07201904 C102.61537441 326.05875746 93.45577371 326.05335493 84.29617023 326.04751682 C69.86410142 326.03811059 55.4320666 326.01818913 41 326 C41 285.74 41 245.48 41 204 C14.6 204 -11.8 204 -39 204 C-39 244.26 -39 284.52 -39 326 C-70.77670342 326.16121214 -70.77670342 326.16121214 -84.109375 326.1953125 C-93.30933569 326.219032 -102.50914966 326.24689166 -111.70898438 326.30175781 C-118.409682 326.34170042 -125.11026041 326.36745049 -131.81107378 326.37635398 C-135.35722651 326.38155626 -138.90303827 326.39373196 -142.44908142 326.42292023 C-146.41338358 326.45528482 -150.37735602 326.45595464 -154.34179688 326.45410156 C-156.09399536 326.47567322 -156.09399536 326.47567322 -157.8815918 326.49768066 C-165.14202256 326.46098738 -171.04206302 325.68538539 -176.51647186 320.58795547 C-181.03097021 315.51874415 -182.24224405 311.0210392 -182.32798767 304.36056519 C-182.33886888 303.70660236 -182.34975008 303.05263952 -182.36096102 302.37885964 C-182.39460026 300.19513662 -182.41410018 298.01153056 -182.43334961 295.82763672 C-182.45407616 294.25855131 -182.47548111 292.68947473 -182.49751282 291.1204071 C-182.56531215 285.97361769 -182.61092495 280.82674871 -182.65234375 275.6796875 C-182.66320853 274.3640292 -182.66320853 274.3640292 -182.6742928 273.02179193 C-182.74148575 264.74256429 -182.79960551 256.46331212 -182.83782101 248.18389702 C-182.88727703 237.61323585 -182.97997884 227.04492439 -183.13173288 216.47522342 C-183.23495343 209.03214404 -183.28801558 201.58969852 -183.3044911 194.14592755 C-183.31567724 189.70503677 -183.34859432 185.26685442 -183.43562126 180.82674789 C-183.51655359 176.6444309 -183.53494194 172.46631187 -183.50698662 168.28334999 C-183.50736724 166.75586061 -183.52969779 165.22817986 -183.57658768 163.70141029 C-183.90182754 152.50944421 -183.90182754 152.50944421 -180.71385312 148.30294085 C-177.1871702 144.66247828 -173.18388238 141.83386434 -169 139 C-167.71074106 137.99226887 -166.42840264 136.97545737 -165.16015625 135.94140625 C-164.13792969 135.15636719 -163.11570312 134.37132812 -162.0625 133.5625 C-156.58248563 129.31307178 -151.28969436 124.88318639 -146.04589844 120.34667969 C-140.78077556 115.79346075 -135.40800691 111.38248856 -130 107 C-124.09614346 102.20257631 -118.23260624 97.3654553 -112.4375 92.4375 C-107.96273766 88.63440716 -103.4333113 84.91933498 -98.83203125 81.26953125 C-92.91430621 76.52718884 -87.08591133 71.67438043 -81.23779297 66.84667969 C-78.36310537 64.47441948 -75.48603793 62.10505863 -72.60864258 59.73608398 C-71.20075839 58.57694719 -69.79304402 57.4176041 -68.38549805 56.25805664 C-64.79570163 53.30080525 -61.2041216 50.34576399 -57.609375 47.39453125 C-51.0578381 42.012729 -44.52049232 36.61891182 -38.0625 31.125 C-33.72915223 27.43902813 -29.33766694 23.84181269 -24.87890625 20.30859375 C-20.20540177 16.56091241 -15.59384459 12.7380231 -10.97558594 8.92260742 C-7.33916853 5.91975744 -3.69406862 2.93203089 0 0 Z " fill="#000000" transform="translate(255,134)"/>
<path d="M0 0 C7.01736977 4.87403216 13.36704824 10.61055291 19.77734375 16.2421875 C23.66287928 19.64886469 27.65291897 22.915421 31.66796875 26.16796875 C34.78015666 28.7126922 37.84745499 31.30630006 40.91015625 33.91015625 C44.85661749 37.26467721 48.8265786 40.58237587 52.84765625 43.84765625 C57.79156138 47.87092216 62.63724557 52.00025982 67.46459961 56.16186523 C68.02026611 56.64083252 68.57593262 57.1197998 69.1484375 57.61328125 C69.63352783 58.03254883 70.11861816 58.45181641 70.6184082 58.88378906 C73.19764531 61.08100808 75.80497842 63.24376198 78.41015625 65.41015625 C78.41602249 64.6467392 78.42188873 63.88332214 78.42793274 63.09677124 C78.48593735 55.88751142 78.55805796 48.67859416 78.64587116 41.46964073 C78.69051899 37.76379972 78.72978702 34.05806722 78.7565918 30.35205078 C78.78268114 26.77270892 78.82312228 23.19378589 78.87334251 19.61470413 C78.8899734 18.25208386 78.90151118 16.8893912 78.90777016 15.52668381 C78.91745156 13.61190974 78.94724163 11.6972698 78.9777832 9.78271484 C78.98888626 8.69461517 78.99998932 7.6065155 79.01142883 6.48544312 C79.47691825 2.89523733 80.53237197 0.4937182 82.41015625 -2.58984375 C86.04293972 -5.0116994 87.76984175 -4.85337011 92.09716797 -4.88037109 C92.77232452 -4.88708832 93.44748108 -4.89380554 94.14309692 -4.90072632 C96.37542071 -4.91972644 98.60744413 -4.92363156 100.83984375 -4.92578125 C102.39299646 -4.93220814 103.94614794 -4.93893642 105.4992981 -4.94595337 C108.75590827 -4.95793139 112.01241232 -4.9616337 115.26904297 -4.96044922 C119.43775517 -4.96024608 123.60578527 -4.98754037 127.77433586 -5.02199364 C130.9828706 -5.0442559 134.19124106 -5.04828697 137.39984512 -5.04722977 C138.93641637 -5.04958705 140.47299205 -5.05841785 142.00948715 -5.0738945 C144.16159234 -5.09354088 146.31222544 -5.08772344 148.46435547 -5.07568359 C149.68774628 -5.07853363 150.91113708 -5.08138367 152.17160034 -5.08432007 C156.0201393 -4.49670898 157.66303115 -3.29340432 160.41015625 -0.58984375 C161.70235522 1.99455419 161.53311623 3.84297785 161.53041077 6.73782349 C161.53247276 8.43319244 161.53247276 8.43319244 161.53457642 10.16281128 C161.53098114 11.40861969 161.52738586 12.6544281 161.52368164 13.93798828 C161.52382767 15.24525879 161.52397369 16.5525293 161.52412415 17.89941406 C161.52441175 21.49010386 161.51852091 25.08076045 161.51155019 28.67144251 C161.50531058 32.42173756 161.50471237 36.17203332 161.50352478 39.92233276 C161.50041326 47.02671657 161.49220228 54.13108503 161.48217529 61.23546207 C161.4710086 69.32241414 161.4655023 77.40936692 161.46047986 85.49632478 C161.45001952 102.13427759 161.43242353 118.77221496 161.41015625 135.41015625 C162.00691162 135.68851318 162.60366699 135.96687012 163.21850586 136.25366211 C166.52911367 138.00060977 169.1788152 140.51363478 171.97265625 142.97265625 C173.23221628 144.06739264 174.49264159 145.16113423 175.75390625 146.25390625 C176.37523437 146.79273438 176.9965625 147.3315625 177.63671875 147.88671875 C180.04789784 149.95799595 182.50483534 151.96936634 184.97265625 153.97265625 C189.0172491 157.25591397 193.00565826 160.59669651 196.97265625 163.97265625 C200.74100375 167.17759481 204.53261898 170.33703514 208.41015625 173.41015625 C213.50307909 177.44793847 218.4595729 181.6370945 223.40625 185.8515625 C225.18439313 187.36610574 226.96663489 188.87589461 228.7578125 190.375 C234.16533384 194.91642962 234.16533384 194.91642962 234.71875 198.29296875 C235.03821158 203.84966419 234.09032947 206.80816678 230.5234375 211.0390625 C229.82605469 211.82152344 229.12867188 212.60398437 228.41015625 213.41015625 C227.44289898 214.5422131 226.47827221 215.67652038 225.515625 216.8125 C222.97503582 219.8039532 220.41446526 222.77701297 217.83764648 225.73730469 C216.88847298 226.84962499 215.95793347 227.97812798 215.04711914 229.12207031 C211.79791123 233.20244241 209.6667071 234.67239473 204.41015625 235.41015625 C199.84301679 234.27451001 196.90432093 232.51258758 193.34765625 229.47265625 C192.39761719 228.66957031 191.44757813 227.86648438 190.46875 227.0390625 C189.44921208 226.16276817 188.42968101 225.28646588 187.41015625 224.41015625 C185.79487312 223.03941798 184.17688058 221.67192238 182.55883789 220.30444336 C181.45417016 219.37022784 180.35050045 218.43483102 179.24780273 217.49829102 C175.83133217 214.59841062 172.38581586 211.73918151 168.91015625 208.91015625 C164.30562045 205.16227827 159.76996434 201.34032181 155.24609375 197.49609375 C151.82956085 194.59770802 148.38510787 191.73860525 144.91015625 188.91015625 C140.30562045 185.16227827 135.76996434 181.34032181 131.24609375 177.49609375 C127.82956085 174.59770802 124.38510787 171.73860525 120.91015625 168.91015625 C116.30562045 165.16227827 111.76996434 161.34032181 107.24609375 157.49609375 C103.82956085 154.59770802 100.38510787 151.73860525 96.91015625 148.91015625 C92.30562045 145.16227827 87.76996434 141.34032181 83.24609375 137.49609375 C79.82956085 134.59770802 76.38510787 131.73860525 72.91015625 128.91015625 C68.30562045 125.16227827 63.76996434 121.34032181 59.24609375 117.49609375 C55.82956085 114.59770802 52.38510787 111.73860525 48.91015625 108.91015625 C44.30562045 105.16227827 39.76996434 101.34032181 35.24609375 97.49609375 C31.82956085 94.59770802 28.38510787 91.73860525 24.91015625 88.91015625 C20.30562045 85.16227827 15.76996434 81.34032181 11.24609375 77.49609375 C6.95760118 73.85798868 2.61439352 70.29203779 -1.75390625 66.75 C-3.85665898 65.01508418 -5.92935793 63.26208023 -7.98828125 61.4765625 C-8.56642578 60.97769531 -9.14457031 60.47882813 -9.74023438 59.96484375 C-10.86096323 58.99515309 -11.97713585 58.02016238 -13.08789062 57.0390625 C-16.1017374 54.43739803 -18.79122089 52.63664887 -22.58984375 51.41015625 C-23.40066406 52.09980469 -24.21148437 52.78945312 -25.046875 53.5 C-30.36079903 58.01231019 -35.68274757 62.50940294 -41.08984375 66.91015625 C-45.12967512 70.19839108 -49.1207644 73.53737051 -53.08984375 76.91015625 C-57.93943756 81.03117259 -62.84145181 85.08006979 -67.77734375 89.09765625 C-70.90784041 91.67162017 -74.00156836 94.28584711 -77.08984375 96.91015625 C-81.93943756 101.03117259 -86.84145181 105.08006979 -91.77734375 109.09765625 C-94.90784041 111.67162017 -98.00156836 114.28584711 -101.08984375 116.91015625 C-105.93943756 121.03117259 -110.84145181 125.08006979 -115.77734375 129.09765625 C-118.90784041 131.67162017 -122.00156836 134.28584711 -125.08984375 136.91015625 C-129.93943756 141.03117259 -134.84145181 145.08006979 -139.77734375 149.09765625 C-142.90784041 151.67162017 -146.00156836 154.28584711 -149.08984375 156.91015625 C-153.93943756 161.03117259 -158.84145181 165.08006979 -163.77734375 169.09765625 C-166.90784041 171.67162017 -170.00156836 174.28584711 -173.08984375 176.91015625 C-177.93943756 181.03117259 -182.84145181 185.08006979 -187.77734375 189.09765625 C-190.90784041 191.67162017 -194.00156836 194.28584711 -197.08984375 196.91015625 C-201.93943756 201.03117259 -206.84145181 205.08006979 -211.77734375 209.09765625 C-214.9078478 211.67162625 -218.00129507 214.28616013 -221.08984375 216.91015625 C-225.24007037 220.43021798 -229.39809606 223.93956946 -233.58984375 227.41015625 C-234.43546875 228.11140625 -235.28109375 228.81265625 -236.15234375 229.53515625 C-240.45794878 232.84716012 -244.05837694 235.18438209 -249.58984375 235.41015625 C-255.21550734 233.29364785 -258.24342217 229.84892636 -261.96484375 225.34765625 C-262.52848633 224.68096924 -263.09212891 224.01428223 -263.67285156 223.32739258 C-265.32466236 221.36521721 -266.96038159 219.39091038 -268.58984375 217.41015625 C-269.26225098 216.59514648 -269.26225098 216.59514648 -269.94824219 215.76367188 C-278.115384 205.8227594 -278.115384 205.8227594 -277.98046875 198.7734375 C-276.80339484 191.65214036 -268.9065034 187.0583189 -263.6484375 182.86328125 C-260.41208313 180.26758451 -257.24684747 177.60106598 -254.08984375 174.91015625 C-249.24094145 170.78834005 -244.33821539 166.74022619 -239.40234375 162.72265625 C-236.27184709 160.14869233 -233.17811914 157.53446539 -230.08984375 154.91015625 C-225.24024994 150.78913991 -220.33823569 146.74024271 -215.40234375 142.72265625 C-212.27184709 140.14869233 -209.17811914 137.53446539 -206.08984375 134.91015625 C-201.24024994 130.78913991 -196.33823569 126.74024271 -191.40234375 122.72265625 C-188.27184709 120.14869233 -185.17811914 117.53446539 -182.08984375 114.91015625 C-177.24024994 110.78913991 -172.33823569 106.74024271 -167.40234375 102.72265625 C-164.27184709 100.14869233 -161.17811914 97.53446539 -158.08984375 94.91015625 C-153.24024994 90.78913991 -148.33823569 86.74024271 -143.40234375 82.72265625 C-140.27184709 80.14869233 -137.17811914 77.53446539 -134.08984375 74.91015625 C-129.24024994 70.78913991 -124.33823569 66.74024271 -119.40234375 62.72265625 C-116.27184709 60.14869233 -113.17811914 57.53446539 -110.08984375 54.91015625 C-105.23667776 50.7861044 -100.3317141 46.73350088 -95.390625 42.71484375 C-92.32208588 40.1898255 -89.29944563 37.61530856 -86.27734375 35.03515625 C-81.28081648 30.77424119 -76.16278299 26.70375023 -70.97045898 22.68505859 C-66.4552382 19.16064841 -62.1383916 15.44428772 -57.83984375 11.66015625 C-40.92730889 -3.12161466 -21.36904174 -13.1179487 0 0 Z " fill="#000000" transform="translate(277.58984375,57.58984375)"/>
</svg>
