<?xml version="1.0" encoding="UTF-8"?>
<svg version="1.1" xmlns="http://www.w3.org/2000/svg" width="980" height="980">
<path d="M0 0 C3.14512867 0.00915247 6.28951188 0.00231982 9.43457031 -0.02050781 C101.44498325 -0.68380378 193.64385867 26.61074093 338.17358398 129.44604492 C338.67212891 129.89947266 339.17067383 130.35290039 339.68432617 130.82006836 C349.32139237 139.59009152 358.90261015 148.4383226 367.37280273 158.36401367 C369.546826 160.87758071 371.79748886 163.31380721 374.04858398 165.75854492 C378.49881659 170.64979157 382.76098879 175.64689898 386.8762207 180.82299805 C387.78050141 181.95428486 388.69152491 183.08020072 389.60766602 184.2019043 C450.59013408 258.90591151 487.12954118 354.18545641 495.69506836 486.13720703 C495.67226097 490.19916223 495.68589136 494.26006918 495.70882797 498.32198906 C495.84450643 526.72219492 493.71393519 554.84229024 487.92358398 582.69604492 C487.6231974 584.18578855 487.32282346 585.67553472 487.02246094 587.1652832 C471.67032202 662.26005285 439.63182798 734.71376754 391.17358398 794.44604492 C390.00569336 795.90977539 390.00569336 795.90977539 388.81420898 797.40307617 C386.62997499 800.11013213 384.41163095 802.78334289 382.17358398 805.44604492 C381.74287598 805.96166992 381.31216797 806.47729492 380.8684082 807.00854492 C366.80802328 823.80770859 351.82573143 840.65145394 335.07202148 854.82495117 C332.84458365 856.72698142 330.70335427 858.71212212 328.54858398 860.69604492 C322.96631676 865.72687237 317.09055944 870.31992841 311.14672852 874.90991211 C309.08865654 876.51216265 307.05001316 878.13690081 305.01342773 879.76635742 C225.08504231 943.40721191 120.19743574 980.97008512 10.61279297 980.9675293 C6.55198502 980.94476031 2.49222783 980.95832759 -1.56854439 980.981287 C-30.48862391 981.11963671 -59.22320496 979.03948872 -87.57641602 973.07104492 C-89.07678792 972.76635344 -90.57727959 972.46225122 -92.07788086 972.15869141 C-170.64834927 956.09474012 -248.08747204 921.49741153 -308.67797852 868.19213867 C-311.61777651 865.60608857 -314.64584706 863.1446858 -317.70141602 860.69604492 C-321.70634034 857.44754115 -325.36215034 854.02276319 -328.95141602 850.32495117 C-330.7387886 848.53385489 -332.58469764 846.89436133 -334.51391602 845.25854492 C-342.59291871 838.29719082 -350.20809306 830.57852654 -357.10375977 822.44604492 C-359.2001388 820.01215361 -361.39038982 817.67470067 -363.57641602 815.32104492 C-368.85851055 809.52752217 -373.6637978 803.4240499 -378.44848633 797.21801758 C-379.7741963 795.51319778 -381.11953572 793.8266012 -382.47485352 792.14526367 C-399.31426758 771.19754108 -413.82595678 748.50272361 -426.53881836 724.84057617 C-427.42958822 723.18402123 -428.32613359 721.53056371 -429.22729492 719.87963867 C-454.34758671 673.78243544 -470.72495433 623.05629753 -479.57641602 571.38354492 C-479.85618286 569.77612427 -479.85618286 569.77612427 -480.14160156 568.13623047 C-480.77321706 564.24764392 -481.31864102 560.35229622 -481.82641602 556.44604492 C-481.95243195 555.48959076 -482.07844788 554.5331366 -482.20828247 553.54769897 C-484.67907611 534.1963106 -485.33173545 515.10213418 -485.27246094 495.61962891 C-485.26330847 492.47450024 -485.27014112 489.33011702 -485.29296875 486.18505859 C-485.94179581 396.17650181 -459.43384799 308.98768673 -364.16235352 167.02807617 C-362.24739489 164.91137441 -360.36430027 162.77468329 -358.49047852 160.62182617 C-347.92331549 148.52427567 -336.71594674 137.23813444 -324.82641602 126.44604492 C-323.90989258 125.60299805 -322.99336914 124.75995117 -322.04907227 123.89135742 C-316.15818163 118.51231352 -310.06662072 113.41358821 -303.82641602 108.44604492 C-303.1923584 107.93944336 -302.55830078 107.4328418 -301.9050293 106.91088867 C-279.06048549 88.71697569 -254.95688481 72.56068057 -229.22094727 58.73364258 C-227.56439232 57.84287272 -225.91093481 56.94632734 -224.26000977 56.04516602 C-178.16280654 30.92487423 -127.43666862 14.5475066 -75.76391602 5.69604492 C-74.69230225 5.50953369 -73.62068848 5.32302246 -72.51660156 5.13085938 C-68.62801501 4.49924388 -64.73266732 3.95381991 -60.82641602 3.44604492 C-59.39173477 3.25702103 -59.39173477 3.25702103 -57.92807007 3.06417847 C-38.57668169 0.59338483 -19.48250528 -0.05927451 0 0 Z M347.17358398 182.44604492 C345.51476708 184.17219387 343.90025555 185.91789263 342.29858398 187.69604492 C341.28953152 188.80677844 340.28041522 189.91745397 339.27124023 191.02807617 C338.7544873 191.59864746 338.23773437 192.16921875 337.70532227 192.75708008 C335.39181133 195.30806328 333.06392276 197.84562463 330.73608398 200.38354492 C330.28499268 200.8757251 329.83390137 201.36790527 329.36914062 201.875 C324.48946963 207.19741608 319.58993618 212.50145867 314.68969727 217.80493164 C312.18344295 220.51782077 309.67856254 223.23197784 307.17358398 225.94604492 C304.16255526 229.20840177 301.15122873 232.47048085 298.13842773 235.73120117 C293.30727807 240.96079617 288.48173448 246.1952887 283.67358398 251.44604492 C277.354231 258.34711469 271.00348919 265.21907622 264.65307617 272.09155273 C259.31660903 277.86729177 253.9842268 283.64654034 248.67358398 289.44604492 C242.354231 296.34711469 236.00348919 303.21907622 229.65307617 310.09155273 C224.31660903 315.86729177 218.9842268 321.64654034 213.67358398 327.44604492 C207.354231 334.34711469 201.00348919 341.21907622 194.65307617 348.09155273 C189.31660903 353.86729177 183.9842268 359.64654034 178.67358398 365.44604492 C173.36154191 371.24707757 168.02764065 377.02773609 162.68969727 382.80493164 C160.18344295 385.51782077 157.67856254 388.23197784 155.17358398 390.94604492 C152.16255526 394.20840177 149.15122873 397.47048085 146.13842773 400.73120117 C141.30727807 405.96079617 136.48173448 411.1952887 131.67358398 416.44604492 C126.36154191 422.24707757 121.02764065 428.02773609 115.68969727 433.80493164 C113.18344295 436.51782077 110.67856254 439.23197784 108.17358398 441.94604492 C105.16255526 445.20840177 102.15122873 448.47048085 99.13842773 451.73120117 C94.30727807 456.96079617 89.48173448 462.1952887 84.67358398 467.44604492 C78.354231 474.34711469 72.00348919 481.21907622 65.65307617 488.09155273 C60.31660903 493.86729177 54.9842268 499.64654034 49.67358398 505.44604492 C43.354231 512.34711469 37.00348919 519.21907622 30.65307617 526.09155273 C25.31660903 531.86729177 19.9842268 537.64654034 14.67358398 543.44604492 C8.354231 550.34711469 2.00348919 557.21907622 -4.34692383 564.09155273 C-9.68339097 569.86729177 -15.0157732 575.64654034 -20.32641602 581.44604492 C-26.645769 588.34711469 -32.99651081 595.21907622 -39.34692383 602.09155273 C-46.67065141 610.01779921 -46.67065141 610.01779921 -53.97045898 617.96606445 C-55.31762276 619.43644739 -56.66771381 620.90414659 -58.01782227 622.37182617 C-60.0453521 624.58124903 -62.04720313 626.81185125 -64.04125977 629.05151367 C-64.57879883 629.64899414 -65.11633789 630.24647461 -65.67016602 630.86206055 C-66.70957627 632.01738543 -67.7424784 633.17860884 -68.76782227 634.34643555 C-70.67730433 636.45677843 -72.39088382 638.223046 -74.93969727 639.52807617 C-76.82641602 639.44604492 -76.82641602 639.44604492 -78.68579102 638.03979492 C-79.30969727 637.34885742 -79.93360352 636.65791992 -80.57641602 635.94604492 C-83.19426457 633.15914711 -85.80218986 630.50281844 -88.70141602 628.00854492 C-91.77927533 625.35917191 -94.81326902 622.66893464 -97.82641602 619.94604492 C-100.78511352 617.27556148 -103.75568073 614.62306434 -106.76391602 612.00854492 C-110.95805966 608.35667439 -115.05735894 604.60338308 -119.16625977 600.85620117 C-122.01397397 598.27611356 -124.89885619 595.74402636 -127.79907227 593.22338867 C-131.02766279 590.39292877 -134.20554777 587.50643286 -137.39282227 584.62963867 C-139.50152748 582.73755807 -141.62561403 580.86698734 -143.76391602 579.00854492 C-147.95805966 575.35667439 -152.05735894 571.60338308 -156.16625977 567.85620117 C-159.01397397 565.27611356 -161.89885619 562.74402636 -164.79907227 560.22338867 C-167.16130774 558.15245005 -169.49437455 556.05091645 -171.82641602 553.94604492 C-174.80704322 551.25621061 -177.79886834 548.58294128 -180.82641602 545.94604492 C-186.41621591 541.07461289 -191.90176499 536.08709342 -197.40454102 531.11791992 C-201.82763003 527.12899916 -206.27256606 523.17036585 -210.76391602 519.25854492 C-214.00154931 516.41335202 -217.19327892 513.51750657 -220.39282227 510.62963867 C-222.50152748 508.73755807 -224.62561403 506.86698734 -226.76391602 505.00854492 C-231.86019116 500.57154151 -236.83802868 496.00345026 -241.82641602 491.44604492 C-246.29535386 492.89187775 -249.37261688 495.37635251 -252.82641602 498.44604492 C-257.68153144 502.65929294 -262.62404307 506.65607978 -267.74731445 510.54052734 C-272.10033445 513.85566854 -276.34546152 517.28940948 -280.57641602 520.75854492 C-286.05682006 525.24772787 -291.61407058 529.60979402 -297.26391602 533.88354492 C-303.8020123 538.83196005 -310.15069077 543.9689128 -316.45117188 549.21533203 C-321.99153282 553.80864449 -327.67216716 558.18580713 -333.4140625 562.52294922 C-341.41129201 568.59376398 -349.12380688 575.00802151 -356.82641602 581.44604492 C-352.92920513 585.50034109 -348.77150872 589.05247629 -344.38891602 592.57104492 C-343.68589355 593.13871582 -342.98287109 593.70638672 -342.25854492 594.29125977 C-335.49678873 599.73869484 -328.67102217 605.10334092 -321.82641602 610.44604492 C-313.74749105 616.75222292 -305.73429699 623.12727883 -297.79223633 629.60522461 C-291.20342028 634.97117678 -284.52456466 640.21766147 -277.82641602 645.44604492 C-269.71960035 651.77399361 -261.68272354 658.17435782 -253.7175293 664.67993164 C-248.60394146 668.84422399 -243.3992701 672.8658766 -238.15454102 676.86401367 C-234.39937146 679.75251894 -230.74055873 682.75600205 -227.07641602 685.75854492 C-221.59585617 690.24755395 -216.03868744 694.60967506 -210.38891602 698.88354492 C-203.78817169 703.8812189 -197.36645779 709.06062377 -190.99731445 714.34936523 C-184.37281565 719.84472297 -177.61762634 725.15920424 -170.82641602 730.44604492 C-168.53272614 732.23513616 -166.24112899 734.02686684 -163.95141602 735.82104492 C-163.0892749 736.49647339 -163.0892749 736.49647339 -162.2097168 737.18554688 C-157.76748793 740.67815547 -153.38694054 744.2423873 -149.01391602 747.82104492 C-143.45074422 752.37217707 -137.8046676 756.79221408 -132.07641602 761.13354492 C-126.17269069 765.60819915 -120.43599395 770.2089832 -114.77563477 774.98901367 C-109.23196105 779.607518 -103.51679477 784.01062029 -97.82641602 788.44604492 C-90.43672905 794.21192341 -83.09074636 800.02266055 -75.82641602 805.94604492 C-73.8253743 807.57375977 -71.82358635 809.20054659 -69.82104492 810.82641602 C-68.48133879 811.91425083 -67.1424832 813.00313388 -65.80444336 814.09301758 C-63.88033942 815.6559111 -61.94839419 817.2085214 -60.01391602 818.75854492 C-59.43319336 819.23291992 -58.8524707 819.70729492 -58.25415039 820.19604492 C-54.96331507 822.89457785 -54.96331507 822.89457785 -50.82641602 823.44604492 C-49.08377722 821.28866375 -49.08377722 821.28866375 -47.45532227 818.42651367 C-46.80490967 817.35127441 -46.15449707 816.27603516 -45.484375 815.16821289 C-44.78585957 813.99000749 -44.08737394 812.81178441 -43.38891602 811.63354492 C-42.66500615 810.43111976 -41.93981675 809.22946404 -41.21337891 808.02856445 C-40.11566772 806.21354749 -39.01874266 804.39810962 -37.92582703 802.5802002 C-34.94083158 797.6154754 -31.87554192 792.70706019 -28.76391602 787.82104492 C-24.32004131 780.81706262 -19.90762047 773.79411586 -15.51391602 766.75854492 C-14.56826782 765.24429932 -14.56826782 765.24429932 -13.60351562 763.69946289 C-12.31881452 761.6419172 -11.03422857 759.58429961 -9.74975586 757.52661133 C-6.61052377 752.49858003 -3.46830769 747.47241455 -0.32641602 742.44604492 C0.29064209 741.45862305 0.9077002 740.47120117 1.54345703 739.45385742 C4.69219738 734.41521593 7.84204122 729.37726984 10.99389648 724.34057617 C16.90761895 714.88831486 22.81134909 705.43034207 28.67358398 695.94604492 C35.16786176 685.43918853 41.71400906 674.96509765 48.26635742 664.49438477 C51.40399961 659.47945896 54.53865531 654.46266727 57.67358398 649.44604492 C58.92356935 647.44603578 60.17356936 645.44603578 61.42358398 643.44604492 C62.04233398 642.45604492 62.66108398 641.46604492 63.29858398 640.44604492 C128.92358398 535.44604492 128.92358398 535.44604492 130.79907227 532.4453125 C132.0475032 530.44779049 133.29587571 528.45023197 134.54418945 526.45263672 C137.69271516 521.41442059 140.84229291 516.37686764 143.99389648 511.34057617 C149.90761895 501.88831486 155.81134909 492.43034207 161.67358398 482.94604492 C168.16786176 472.43918853 174.71400906 461.96509765 181.26635742 451.49438477 C184.40399961 446.47945896 187.53865531 441.46266727 190.67358398 436.44604492 C191.92356935 434.44603578 193.17356936 432.44603578 194.42358398 430.44604492 C195.04233398 429.45604492 195.66108398 428.46604492 196.29858398 427.44604492 C261.92358399 322.44604491 261.92358399 322.44604491 263.79833984 319.4465332 C265.04927067 317.44497873 266.30008433 315.44335103 267.55078125 313.44165039 C270.66058667 308.46482897 273.7723673 303.48926524 276.88842773 298.51635742 C283.42343463 288.0821326 289.91954026 277.62576674 296.36108398 267.13354492 C301.41256995 258.90659746 306.50306831 250.70786984 311.6730957 242.55493164 C316.27072489 235.30405189 320.824482 228.02615506 325.36791992 220.74121094 C328.6962202 215.40523544 332.03480053 210.07618538 335.39233398 204.75854492 C336.42040161 203.12598755 336.42040161 203.12598755 337.46923828 201.46044922 C338.78515872 199.37131999 340.10419057 197.28414643 341.42675781 195.19921875 C342.31657349 193.78419067 342.31657349 193.78419067 343.22436523 192.34057617 C343.74683838 191.51404541 344.26931152 190.68751465 344.80761719 189.8359375 C346.18124767 187.43263655 347.21006371 185.03783082 348.17358398 182.44604492 C347.84358398 182.44604492 347.51358398 182.44604492 347.17358398 182.44604492 Z " fill="#00C260" transform="translate(484.826416015625,-0.446044921875)"/>
</svg>
