<?xml version="1.0" encoding="UTF-8"?>
<svg version="1.1" xmlns="http://www.w3.org/2000/svg" width="1600" height="1600">
<path d="M0 0 C0.89233337 -0.00067474 1.78466675 -0.00134949 2.70404053 -0.00204468 C16.60315685 0.01463364 30.13845807 0.55090353 43.8125 3.25 C44.73611328 3.43224121 45.65972656 3.61448242 46.61132812 3.80224609 C53.0570242 5.11351363 59.43981804 6.6230653 65.8125 8.25 C66.54597656 8.43256348 67.27945313 8.61512695 68.03515625 8.80322266 C104.35643499 17.99386398 139.06112594 37.85768059 166.54296875 63.1640625 C168.6401005 65.09154676 170.77626355 66.95761357 172.9375 68.8125 C179.81173042 74.83261762 185.82784149 81.28772179 191.5390625 88.421875 C192.98761102 90.22384945 194.45944922 92.00751872 195.9609375 93.765625 C247.44448315 154.35636825 250.8125 223.50468694 250.8125 300.25 C332.3225 300.25 413.8325 300.25 497.8125 300.25 C498.60938057 304.23440284 499.05634108 307.79924989 499.3048737 311.8281436 C499.34579372 312.47678732 499.38671374 313.12543104 499.42887376 313.79373063 C499.56474687 315.96230582 499.69560952 318.1311524 499.82637405 320.3000412 C499.92280275 321.85960199 500.01948323 323.41914724 500.11639568 324.97867805 C500.37994661 329.23771863 500.6386924 333.49703868 500.89623412 337.7564464 C501.06058068 340.4697772 501.22613896 343.18303153 501.39206114 345.8962664 C503.85580244 386.20628891 506.12111614 426.52716398 508.35283253 466.85058988 C508.94067978 477.47006735 509.53157761 488.08937467 510.12249242 498.70868181 C511.21200793 518.28972412 512.29928476 537.87089008 513.38518524 557.45213318 C514.45722714 576.78330467 515.53036091 596.11441509 516.60486603 615.44544983 C516.6723082 616.65878631 516.73975037 617.87212279 516.80923624 619.12222705 C517.15192737 625.28739857 517.49463784 631.45256901 517.83735612 637.61773902 C520.25013813 681.02190609 522.66068364 724.42619708 525.06982422 767.83056641 C527.40440466 809.89149614 529.73988555 851.9523757 532.07666016 894.01318359 C532.1489282 895.31398116 532.22119625 896.61477872 532.29565423 897.95499439 C533.38064178 917.48432222 534.46570081 937.01364608 535.55078125 956.54296875 C536.60363962 975.49238364 537.65649158 994.44179889 538.70931354 1013.39121581 C538.91575908 1017.1069552 539.12220682 1020.82269447 539.32865468 1024.53843373 C541.14452464 1057.2214527 542.9596776 1089.90451141 544.77414755 1122.58760814 C545.22121273 1130.64029669 545.66832601 1138.69298256 546.11547422 1146.7456665 C546.17713665 1147.85614656 546.23879907 1148.96662662 546.30233006 1150.11075758 C546.54754856 1154.52688137 546.79276886 1158.94300505 547.03799571 1163.35912837 C547.73818733 1175.968412 548.43822094 1188.57770438 549.1379526 1201.18701355 C549.56526704 1208.88706609 549.99277881 1216.58710766 550.42044699 1224.28714057 C550.66385056 1228.66967449 550.90716435 1233.05221335 551.1502243 1237.43476635 C551.37182094 1241.4303099 551.59367947 1245.42583882 551.81573608 1249.42135683 C551.89500503 1250.8484685 551.97418235 1252.27558526 552.05325014 1253.70270809 C552.16185828 1255.66276397 552.27085773 1257.62279816 552.37986541 1259.58283186 C552.44892056 1260.83720531 552.51797572 1262.09157876 552.58912346 1263.38396353 C552.74425799 1266.06891768 552.90961098 1268.75146594 553.08902791 1271.43474537 C553.13531306 1272.15099991 553.18159821 1272.86725445 553.22928593 1273.60521367 C553.35738907 1275.57639756 553.49072324 1277.54723959 553.62448825 1279.51804736 C553.89885968 1286.42353384 553.8125 1293.33906496 553.8125 1300.25 C188.8325 1300.25 -176.1475 1300.25 -552.1875 1300.25 C-552.1875 1290.69470033 -552.15489722 1281.31564294 -551.59886169 1271.80636597 C-551.53502035 1270.65171685 -551.47117901 1269.49706774 -551.40540308 1268.30742925 C-551.19172901 1264.46235332 -550.97171283 1260.61766777 -550.75170898 1256.77294922 C-550.59356464 1253.95979278 -550.43678681 1251.14656055 -550.27994728 1248.33333111 C-549.93684444 1242.19176228 -549.59046102 1236.05038536 -549.24196053 1229.90912056 C-548.71531952 1220.62777232 -548.19420159 1211.34611922 -547.67417219 1202.06439847 C-546.779874 1186.10456449 -545.88166354 1170.14495294 -544.98138428 1154.18545532 C-543.60697593 1129.81944437 -542.23847279 1105.45310364 -540.87158203 1081.08666992 C-540.8127314 1080.03760349 -540.75388077 1078.98853706 -540.69324678 1077.90768073 C-540.14452042 1068.12594541 -539.59586031 1058.34420638 -539.04734159 1048.56245941 C-538.40978391 1037.19291568 -537.7720539 1025.82338168 -537.13391113 1014.45387077 C-532.65459066 934.64488149 -528.21530954 854.8337096 -523.79095704 775.02165788 C-523.1739287 763.8909752 -522.55675744 752.76030044 -521.93948936 741.62963104 C-521.85147295 740.04249929 -521.76345656 738.45536753 -521.6754402 736.86823577 C-521.63187071 736.08258069 -521.58830123 735.29692562 -521.54341146 734.48746281 C-521.49984174 733.7018032 -521.45627203 732.91614358 -521.41138202 732.1066761 C-521.36781391 731.32104645 -521.3242458 730.5354168 -521.27935744 729.7259802 C-519.7397308 701.96294686 -518.20037148 674.19989869 -516.66140747 646.43682861 C-516.61803503 645.65438636 -516.57466259 644.87194411 -516.52997583 644.06579149 C-515.13131419 618.83349971 -513.73401141 593.60113285 -512.33729678 568.36873323 C-510.91408512 542.65776164 -509.48925916 516.94687999 -508.06245325 491.23610761 C-507.86276414 487.63771782 -507.66309601 484.03932687 -507.46344185 480.44093513 C-507.42425709 479.73470959 -507.38507232 479.02848404 -507.34470014 478.30085771 C-506.7262205 467.15308024 -506.10949796 456.0052063 -505.49354748 444.85728883 C-504.88013421 433.75586336 -504.26484414 422.65454287 -503.64782241 411.55331731 C-503.31760695 405.61120674 -502.98814006 399.66905764 -502.66098392 393.72677779 C-501.39722056 370.78282757 -500.07520892 347.84434814 -498.57168579 324.91471863 C-498.50894255 323.9433223 -498.44619932 322.97192597 -498.38155477 321.97109339 C-498.20506029 319.25093972 -498.02391368 316.53113994 -497.84110451 313.81140423 C-497.78971192 313.01300562 -497.73831933 312.214607 -497.68536939 311.3920145 C-497.4221049 307.56365787 -496.94356887 304.03034436 -496.1875 300.25 C-414.6775 300.25 -333.1675 300.25 -249.1875 300.25 C-249.1875 277.15 -249.1875 254.05 -249.1875 230.25 C-245.65268479 203.14975008 -245.65268479 203.14975008 -244 195.8125 C-243.6891748 194.41874146 -243.6891748 194.41874146 -243.37207031 192.99682617 C-239.09218122 174.64457578 -232.46713488 157.14977423 -224.1875 140.25 C-223.83075195 139.5173291 -223.47400391 138.7846582 -223.10644531 138.02978516 C-213.51620533 118.56414252 -200.96793342 100.47723823 -186.2734375 84.51953125 C-184.34595324 82.4223995 -182.47988643 80.28623645 -180.625 78.125 C-174.60488238 71.25076958 -168.14977821 65.23465851 -161.015625 59.5234375 C-159.21365055 58.07488898 -157.42998128 56.60305078 -155.671875 55.1015625 C-120.02653123 24.81395445 -75.0706861 7.76119826 -29.1875 1.25 C-28.45700439 1.1454248 -27.72650879 1.04084961 -26.97387695 0.93310547 C-18.03534666 -0.14876926 -8.98980399 0.00610285 0 0 Z M-104.1875 143.25 C-105.27417969 144.24 -105.27417969 144.24 -106.3828125 145.25 C-133.67056742 171.07067132 -144.91648954 205.94641106 -149.1875 242.25 C-149.1875 261.39 -149.1875 280.53 -149.1875 300.25 C-50.1875 300.25 48.8125 300.25 150.8125 300.25 C152.16395865 257.32128703 152.16395865 257.32128703 146.6875 214.9375 C146.36990723 213.63292847 146.36990723 213.63292847 146.04589844 212.30200195 C139.37346443 186.2762247 126.11197462 164.66051415 107.8125 145.25 C107.1525 144.52554688 106.4925 143.80109375 105.8125 143.0546875 C79.45785828 115.20262296 41.71487576 101.99417367 4.16796875 100.0625 C-37.06639367 99.294456 -74.45638127 115.22066248 -104.1875 143.25 Z M-402.1875 400.25 C-404.62232635 439.78507325 -404.62232635 439.78507325 -406.87229737 479.32971585 C-407.11990678 483.89128947 -407.3698717 488.45273288 -407.61990005 493.01417446 C-407.98680782 499.71244955 -408.35257651 506.41078599 -408.71750832 513.10916901 C-409.26012096 523.06881628 -409.80463775 533.02835887 -410.34948865 542.98788391 C-411.26684715 559.75756933 -412.18273256 576.52733488 -413.09772301 593.29714966 C-414.00162402 609.86365647 -414.90618163 626.43012723 -415.81159401 642.99655151 C-415.86822801 644.03279823 -415.92486201 645.06904495 -415.98321219 646.13669308 C-416.27091866 651.40087748 -416.55863598 656.66506128 -416.84635708 661.92924488 C-418.87584675 699.06148259 -420.90381639 736.19380319 -422.9309082 773.32617188 C-424.89810679 809.36137735 -426.86614465 845.39653684 -428.83520508 881.43164062 C-428.89606679 882.54545471 -428.95692851 883.6592688 -429.01963451 884.80683483 C-429.50928757 893.76783866 -429.99894415 902.7288423 -430.48860705 911.6898456 C-432.59789386 950.29054784 -434.70658981 988.89128236 -436.81509872 1027.4920271 C-437.15556574 1033.72499703 -437.49604129 1039.95796649 -437.83652356 1046.19093559 C-439.08434184 1069.03393551 -440.33197156 1091.87694571 -441.57900103 1114.7199887 C-442.07102912 1123.73289634 -442.56313518 1132.7457997 -443.05548286 1141.75868988 C-443.46321819 1149.22268713 -443.8707731 1156.68669419 -444.27807407 1164.15071515 C-444.4833762 1167.91290367 -444.68876549 1171.67508737 -444.89438852 1175.43725836 C-445.11507495 1179.47508844 -445.33534525 1183.5129411 -445.55556774 1187.55079651 C-445.62048836 1188.73742205 -445.68540898 1189.92404759 -445.75229689 1191.14663148 C-445.83929904 1192.74376422 -445.83929904 1192.74376422 -445.9280588 1194.37316227 C-445.97854923 1195.29792679 -446.02903965 1196.22269131 -446.08106009 1197.17547899 C-446.16055259 1198.71206594 -446.16055259 1198.71206594 -446.1875 1200.25 C-151.1675 1200.25 143.8525 1200.25 447.8125 1200.25 C438.47694462 1028.92763378 438.47694462 1028.92763378 429.13783979 857.60546112 C428.74577761 850.41491357 428.35371746 843.22436592 427.96165812 836.03381822 C427.84995543 833.9851399 427.73825269 831.9364616 427.62654994 829.88778329 C426.91667828 816.86841558 426.2068128 803.84904753 425.49695137 790.82967927 C425.24067484 786.1293879 424.98439529 781.4290967 424.72811484 776.72880554 C422.73780085 740.22549207 420.74823061 703.72213814 418.75929226 667.21874969 C416.9704797 634.38843988 415.18052422 601.55819262 413.38890362 568.72803593 C413.20432264 565.34563789 413.01974664 561.96323958 412.83517456 558.58084106 C412.76740024 557.33885005 412.76740024 557.33885005 412.69825674 556.07176831 C411.97709867 542.85570258 411.25711133 529.63957332 410.53758189 516.42341883 C409.82749734 503.38119666 409.11619455 490.33904142 408.40355992 477.29695833 C408.02653945 470.39642994 407.65003804 463.4958743 407.27514267 456.5952301 C406.93808816 450.39206783 406.59946402 444.18899336 406.2595557 437.98598683 C406.13809206 435.76431473 406.01720672 433.54261092 405.89696801 431.32087219 C405.73396558 428.31049986 405.56883441 425.30025136 405.40318298 422.2900238 C405.35768857 421.44033303 405.31219416 420.59064226 405.26532114 419.71520329 C404.90381431 413.20870682 404.35433029 406.75196352 403.8125 400.25 C353.3225 400.25 302.8325 400.25 250.8125 400.25 C250.8125 449.75 250.8125 499.25 250.8125 550.25 C217.8125 550.25 184.8125 550.25 150.8125 550.25 C150.8125 500.75 150.8125 451.25 150.8125 400.25 C51.8125 400.25 -47.1875 400.25 -149.1875 400.25 C-149.1875 449.75 -149.1875 499.25 -149.1875 550.25 C-182.1875 550.25 -215.1875 550.25 -249.1875 550.25 C-249.1875 500.75 -249.1875 451.25 -249.1875 400.25 C-299.6775 400.25 -350.1675 400.25 -402.1875 400.25 Z " fill="#FFFFFF" transform="translate(799.1875,149.75)"/>
</svg>
