<?xml version="1.0" encoding="UTF-8"?>
<svg version="1.1" xmlns="http://www.w3.org/2000/svg" width="432" height="312">
<path d="M0 0 C1.28357517 -0.00155999 2.56715034 -0.00311998 3.88962173 -0.00472724 C7.43201521 -0.00888292 10.97438158 -0.00684695 14.51677513 -0.00374103 C18.34504755 -0.00147177 22.17331541 -0.00497413 26.00158691 -0.00772095 C33.49313104 -0.01216131 40.98466513 -0.01120988 48.47620964 -0.00830831 C54.56621254 -0.00604747 60.65621263 -0.00574471 66.74621582 -0.00683212 C67.61386133 -0.00698536 68.48150685 -0.00713859 69.37544465 -0.00729647 C71.13819726 -0.0076162 72.90094988 -0.00794041 74.66370249 -0.00826906 C91.18263699 -0.01111877 107.70156593 -0.00784479 124.22049952 -0.00246869 C138.38626027 0.00199889 152.55201283 0.00122281 166.71777344 -0.00338745 C183.17868561 -0.00874218 199.63959291 -0.01084413 216.10050583 -0.00777519 C217.85667674 -0.00745665 219.61284765 -0.00714228 221.36901855 -0.00683212 C222.66503254 -0.00660071 222.66503254 -0.00660071 223.98722863 -0.00636462 C230.06802503 -0.00550217 236.14881834 -0.0069565 242.22961426 -0.00931168 C249.64275944 -0.01211984 257.05589404 -0.01134993 264.46903801 -0.00603093 C268.24936887 -0.00340767 272.0296821 -0.00236554 275.81001282 -0.00568008 C279.91176861 -0.00922198 284.01348009 -0.00498506 288.11523438 0 C289.89933905 -0.00334608 289.89933905 -0.00334608 291.71948624 -0.00675976 C308.29329841 0.03231279 322.01618072 3.60673876 335.05761719 14.12698364 C335.82203125 14.72897583 336.58644531 15.33096802 337.37402344 15.95120239 C343.89432699 21.32841158 343.89432699 21.32841158 345.05761719 26.12698364 C345.71761719 26.12698364 346.37761719 26.12698364 347.05761719 26.12698364 C349.05761719 29.12698364 349.05761719 29.12698364 349.05761719 32.12698364 C349.71761719 32.12698364 350.37761719 32.12698364 351.05761719 32.12698364 C351.85675591 33.95707231 352.64652474 35.7912533 353.43261719 37.62698364 C354.09390625 39.15838989 354.09390625 39.15838989 354.76855469 40.72073364 C357.34025876 47.51626683 358.35409284 53.53614308 358.3183136 60.73512268 C358.32213915 61.56456912 358.32596469 62.39401555 358.32990617 63.24859673 C358.34016626 66.00817366 358.3362574 68.76753981 358.33227539 71.52713013 C358.33662571 73.51368399 358.34180992 75.50023618 358.34776306 77.48678589 C358.36112913 82.86899518 358.36173444 88.25113416 358.35919976 93.63335681 C358.35812854 98.13135976 358.36301723 102.62934857 358.36780518 107.12734848 C358.37889186 117.7406003 358.37934233 128.35381673 358.37329102 138.96707153 C358.36724962 149.90637056 358.37956844 160.84554102 358.40086108 171.78481811 C358.41848749 181.18717373 358.42447684 190.58948845 358.42122334 199.99185997 C358.41941218 205.60299653 358.42203015 211.21404133 358.43593788 216.82516289 C358.44852863 222.10213252 358.44656021 227.37890191 358.43352699 232.65586853 C358.43116449 234.58877696 358.43388419 236.52169955 358.44215012 238.45459175 C358.45264682 241.10057875 358.44449369 243.74589742 358.43183899 246.39186096 C358.43921327 247.15005094 358.44658756 247.90824091 358.45418531 248.68940634 C358.39818112 254.28563521 357.02870907 258.91624494 355.05761719 264.12698364 C354.63609375 265.43602661 354.63609375 265.43602661 354.20605469 266.77151489 C350.32531864 277.64933563 342.4565898 287.43793379 333.05761719 294.12698364 C331.41327773 294.84696278 329.75022735 295.52924369 328.05761719 296.12698364 C328.05761719 296.78698364 328.05761719 297.44698364 328.05761719 298.12698364 C314.62842058 304.38756996 303.80167954 306.27979425 289.04603577 306.26069641 C287.75499906 306.26296197 286.46396234 306.26522752 285.13380331 306.26756173 C281.57053979 306.27364867 278.00729984 306.27354983 274.44403231 306.27236736 C270.59324386 306.27216257 266.74246282 306.27768947 262.89167786 306.28242493 C255.3556838 306.29071437 247.81969757 306.29347897 240.28369934 306.2940373 C234.15699612 306.29451316 228.03029547 306.29657138 221.90359306 306.29973793 C204.52076275 306.30853891 187.1379386 306.31315804 169.75510604 306.31240746 C168.35084393 306.31234752 168.35084393 306.31234752 166.91821289 306.31228638 C165.51223042 306.31222506 165.51223042 306.31222506 164.07784425 306.3121625 C148.88235774 306.31175592 133.68689599 306.32132994 118.49141664 306.33542474 C102.87657031 306.34979395 87.26173606 306.35669467 71.64688295 306.35583097 C62.88515866 306.35549924 54.12346035 306.35823568 45.36174202 306.36900902 C37.90360253 306.37812104 30.44550081 306.3802834 22.98735816 306.37349959 C19.18460494 306.37023829 15.38192416 306.37016369 11.57917786 306.37885284 C7.45145803 306.38818738 3.32390541 306.38193189 -0.80381775 306.3742218 C-1.99808992 306.37936536 -3.19236209 306.38450893 -4.42282432 306.38980836 C-11.17271695 306.36197138 -17.38744569 305.7472128 -23.94238281 304.12698364 C-25.49892578 303.75380005 -25.49892578 303.75380005 -27.08691406 303.37307739 C-35.39241081 300.8558917 -42.30925342 296.66885626 -48.94238281 291.12698364 C-48.94238281 290.46698364 -48.94238281 289.80698364 -48.94238281 289.12698364 C-49.50957031 288.91299927 -50.07675781 288.69901489 -50.66113281 288.47854614 C-57.68642087 284.31630356 -62.74457097 274.41799464 -65.94238281 267.12698364 C-66.31363281 266.32260864 -66.68488281 265.51823364 -67.06738281 264.68948364 C-69.3422268 258.02744053 -70.23856478 251.57107973 -70.1963501 244.55717468 C-70.19947008 243.7439136 -70.20259006 242.93065251 -70.20580459 242.09274715 C-70.21372036 239.39387837 -70.2074862 236.69523848 -70.20117188 233.99636841 C-70.20388461 232.05069854 -70.20744713 230.1050297 -70.21179199 228.15936279 C-70.22088519 222.89283758 -70.21738424 217.62639101 -70.21103382 212.35986447 C-70.20595721 206.83789441 -70.21066996 201.31593091 -70.21380615 195.79396057 C-70.21744126 186.52108557 -70.21265896 177.24824247 -70.203125 167.97537231 C-70.19224455 157.26955977 -70.19576491 146.56382343 -70.20677781 135.85801274 C-70.21586748 126.65179976 -70.21712765 117.44560967 -70.21190047 108.23939365 C-70.2087896 102.74731157 -70.20834707 97.25526525 -70.21497345 91.7631855 C-70.22077061 86.59785666 -70.21670672 81.43262561 -70.20518494 76.26730728 C-70.20255087 74.37674687 -70.20328191 72.48617817 -70.20771027 70.59562111 C-70.23395304 58.24931189 -70.11039877 47.23276826 -64.25488281 36.06448364 C-63.72967041 35.03967896 -63.72967041 35.03967896 -63.19384766 33.99417114 C-60.38355322 28.65473837 -57.29835003 23.36522201 -52.94238281 19.12698364 C-52.28238281 19.12698364 -51.62238281 19.12698364 -50.94238281 19.12698364 C-50.94238281 18.46698364 -50.94238281 17.80698364 -50.94238281 17.12698364 C-47.48084435 14.12698364 -47.48084435 14.12698364 -44.94238281 14.12698364 C-44.94238281 13.46698364 -44.94238281 12.80698364 -44.94238281 12.12698364 C-38.7267506 7.69487476 -32.19791421 4.49759602 -24.80566406 2.63479614 C-22.9425737 2.29260551 -22.9425737 2.29260551 -21.94238281 1.12698364 C-14.6194627 0.04508275 -7.39157648 -0.01386288 0 0 Z M-30.94238281 32.12698364 C-30.94238281 32.78698364 -30.94238281 33.44698364 -30.94238281 34.12698364 C-31.58175781 34.39510864 -32.22113281 34.66323364 -32.87988281 34.93948364 C-35.27369967 36.01366116 -35.27369967 36.01366116 -35.94238281 39.12698364 C-36.60238281 39.12698364 -37.26238281 39.12698364 -37.94238281 39.12698364 C-38.60238281 40.77698364 -39.26238281 42.42698364 -39.94238281 44.12698364 C-37.55474991 46.09548926 -35.15593248 48.04987442 -32.75488281 50.00198364 C-32.08134766 50.55756958 -31.4078125 51.11315552 -30.71386719 51.68557739 C-27.26485561 54.47843555 -24.25462432 56.80400469 -19.94238281 58.12698364 C-19.94238281 58.78698364 -19.94238281 59.44698364 -19.94238281 60.12698364 C-17.76780003 61.94802565 -17.76780003 61.94802565 -15.06738281 63.75198364 C-14.16246094 64.38362427 -13.25753906 65.01526489 -12.32519531 65.66604614 C-10.12404576 67.30121469 -10.12404576 67.30121469 -7.94238281 67.12698364 C-7.94238281 67.78698364 -7.94238281 68.44698364 -7.94238281 69.12698364 C-6.45601523 70.48758454 -6.45601523 70.48758454 -4.56738281 71.75198364 C-3.94089844 72.19799927 -3.31441406 72.64401489 -2.66894531 73.10354614 C-0.99015638 74.29695334 -0.99015638 74.29695334 1.05761719 74.12698364 C1.05761719 74.78698364 1.05761719 75.44698364 1.05761719 76.12698364 C3.25275256 77.88546827 5.44434467 79.51805181 7.74511719 81.12698364 C8.37095703 81.57815552 8.99679688 82.02932739 9.64160156 82.49417114 C13.00008874 84.87148772 16.12174592 86.80248394 20.05761719 88.12698364 C20.05761719 88.78698364 20.05761719 89.44698364 20.05761719 90.12698364 C21.54398477 91.48758454 21.54398477 91.48758454 23.43261719 92.75198364 C24.05910156 93.19799927 24.68558594 93.64401489 25.33105469 94.10354614 C27.00984362 95.29695334 27.00984362 95.29695334 29.05761719 95.12698364 C29.05761719 95.78698364 29.05761719 96.44698364 29.05761719 97.12698364 C31.23219997 98.94802565 31.23219997 98.94802565 33.93261719 100.75198364 C35.29 101.69944458 35.29 101.69944458 36.67480469 102.66604614 C38.87595424 104.30121469 38.87595424 104.30121469 41.05761719 104.12698364 C41.05761719 104.78698364 41.05761719 105.44698364 41.05761719 106.12698364 C42.67161333 107.44428932 44.35175557 108.68102631 46.05761719 109.87698364 C50.28071525 112.86312266 54.42438841 115.91057196 58.49902344 119.09573364 C60.02412969 120.3109179 60.02412969 120.3109179 62.05761719 120.12698364 C62.05761719 120.78698364 62.05761719 121.44698364 62.05761719 122.12698364 C64.15915931 123.90212821 64.15915931 123.90212821 66.87011719 125.75198364 C67.86527344 126.45581177 68.86042969 127.15963989 69.88574219 127.88479614 C70.93246094 128.62471802 71.97917969 129.36463989 73.05761719 130.12698364 C75.98916681 132.2998659 78.91802232 134.47620985 81.84277344 136.65823364 C83.89248784 138.31120476 83.89248784 138.31120476 86.05761719 138.12698364 C86.05761719 138.78698364 86.05761719 139.44698364 86.05761719 140.12698364 C87.54398477 141.48758454 87.54398477 141.48758454 89.43261719 142.75198364 C90.05910156 143.19799927 90.68558594 143.64401489 91.33105469 144.10354614 C93.00984362 145.29695334 93.00984362 145.29695334 95.05761719 145.12698364 C95.05761719 145.78698364 95.05761719 146.44698364 95.05761719 147.12698364 C97.10890882 148.73221038 99.16141198 150.22058735 101.30761719 151.68948364 C102.58986529 152.58258359 103.87109624 153.47714546 105.15136719 154.37307739 C105.80234375 154.82795532 106.45332031 155.28283325 107.12402344 155.75149536 C111.07415487 158.56147522 114.89416177 161.54613173 118.72949219 164.50979614 C120.8589351 166.31715001 120.8589351 166.31715001 123.05761719 166.12698364 C123.05761719 166.78698364 123.05761719 167.44698364 123.05761719 168.12698364 C124.28268617 168.78055642 125.51291235 169.42446597 126.74511719 170.06448364 C127.42960938 170.42413208 128.11410156 170.78378052 128.81933594 171.15432739 C137.05758121 174.73429785 149.97325998 174.71921245 158.43261719 171.62698364 C163.09800443 169.38917925 167.19338071 166.35566269 171.29589844 163.22463989 C174.851107 160.52429053 178.54664447 158.05345062 182.25683594 155.57229614 C182.85109375 155.09534302 183.44535156 154.61838989 184.05761719 154.12698364 C184.05761719 153.46698364 184.05761719 152.80698364 184.05761719 152.12698364 C184.78078125 151.87690552 185.50394531 151.62682739 186.24902344 151.36917114 C189.3048145 150.01765298 191.43782719 148.39315852 193.99511719 146.25198364 C196.81721636 143.92343545 199.58224684 141.69615887 202.68261719 139.75198364 C203.46636719 139.21573364 204.25011719 138.67948364 205.05761719 138.12698364 C205.05761719 137.46698364 205.05761719 136.80698364 205.05761719 136.12698364 C205.73824219 135.90010864 206.41886719 135.67323364 207.12011719 135.43948364 C210.75648808 133.81472218 214.08590982 131.79895108 217.05761719 129.12698364 C217.05761719 128.46698364 217.05761719 127.80698364 217.05761719 127.12698364 C218.07855469 126.78667114 218.07855469 126.78667114 219.12011719 126.43948364 C222.75648808 124.81472218 226.08590982 122.79895108 229.05761719 120.12698364 C229.05761719 119.46698364 229.05761719 118.80698364 229.05761719 118.12698364 C229.61449219 117.85885864 230.17136719 117.59073364 230.74511719 117.31448364 C233.26987053 116.01798868 235.69476203 114.70222041 238.05761719 113.12698364 C238.05761719 112.46698364 238.05761719 111.80698364 238.05761719 111.12698364 C238.79496094 110.86200073 239.53230469 110.59701782 240.29199219 110.32400513 C243.03530465 109.13664099 244.9824507 107.8350422 247.30761719 105.97463989 C248.46777344 105.05714966 248.46777344 105.05714966 249.65136719 104.12112427 C250.44542969 103.48368286 251.23949219 102.84624146 252.05761719 102.18948364 C260.47890824 95.47022301 260.47890824 95.47022301 264.12011719 93.31057739 C264.75949219 92.91999146 265.39886719 92.52940552 266.05761719 92.12698364 C266.05761719 91.46698364 266.05761719 90.80698364 266.05761719 90.12698364 C266.734375 89.91171021 267.41113281 89.69643677 268.10839844 89.47463989 C271.97572809 87.70744952 274.96564327 85.24083592 278.24511719 82.56448364 C284.85770066 77.22694191 284.85770066 77.22694191 287.05761719 76.12698364 C287.05761719 75.46698364 287.05761719 74.80698364 287.05761719 74.12698364 C287.79367187 73.86659302 288.52972656 73.60620239 289.28808594 73.33792114 C292.12522243 72.09742423 294.00920277 70.73968068 296.37011719 68.75198364 C301.01111224 64.93948695 305.75270035 61.29115601 310.55761719 57.68948364 C311.26442627 57.15726196 311.97123535 56.62504028 312.69946289 56.07669067 C313.36421631 55.57895142 314.02896973 55.08121216 314.71386719 54.56838989 C315.31005859 54.1218103 315.90625 53.67523071 316.52050781 53.21511841 C318.05761719 52.12698364 318.05761719 52.12698364 320.05761719 51.12698364 C320.05761719 50.46698364 320.05761719 49.80698364 320.05761719 49.12698364 C320.80011719 48.87948364 321.54261719 48.63198364 322.30761719 48.37698364 C325.27147908 47.02977369 326.83530018 45.46326563 329.05761719 43.12698364 C321.67735859 34.32922235 314.73907568 27.35497069 303.05761719 25.12698364 C298.78216033 24.8291361 294.51528912 24.84426371 290.23080444 24.85282898 C288.93542617 24.8475923 287.64004791 24.84235562 286.30541575 24.83696026 C282.72060775 24.82281896 279.13588661 24.82111623 275.55105472 24.82155716 C271.68039083 24.81990551 267.80976237 24.80683246 263.93911743 24.79536438 C255.48025165 24.77254154 247.021411 24.76459661 238.5625186 24.75953794 C233.27694164 24.75627757 227.99137195 24.74975302 222.7057991 24.74253654 C208.06056898 24.72297369 193.41534558 24.70656779 178.77010155 24.70366001 C177.83341732 24.70347244 176.8967331 24.70328487 175.9316645 24.70309162 C174.03291933 24.70272538 172.13417415 24.70236168 170.23542897 24.70200051 C169.29293761 24.7018177 168.35044624 24.70163488 167.37939453 24.70144653 C166.43574758 24.70126598 165.49210063 24.70108544 164.51985832 24.70089941 C149.23568732 24.69735915 133.95165734 24.67034461 118.66753523 24.63294864 C102.96120095 24.5948284 87.25493657 24.57550226 71.54855502 24.5752005 C62.73578432 24.57461675 53.92318184 24.56617781 45.11045456 24.53720284 C37.60508601 24.5126391 30.09994702 24.50543958 22.5945491 24.52045036 C18.76901856 24.52759911 14.94394083 24.52685074 11.11846161 24.50403976 C6.96075551 24.47948654 2.80407093 24.49414228 -1.35366821 24.51225281 C-2.54834799 24.49905284 -3.74302778 24.48585287 -4.97390997 24.47225291 C-14.46422505 24.56628017 -22.97962845 26.81848073 -30.94238281 32.12698364 Z M-44.94238281 71.12698364 C-44.94238281 126.89698364 -44.94238281 182.66698364 -44.94238281 240.12698364 C-42.30238281 238.14698364 -39.66238281 236.16698364 -36.94238281 234.12698364 C-35.95238281 233.38448364 -34.96238281 232.64198364 -33.94238281 231.87698364 C-33.28238281 231.29948364 -32.62238281 230.72198364 -31.94238281 230.12698364 C-31.94238281 229.46698364 -31.94238281 228.80698364 -31.94238281 228.12698364 C-31.0505127 227.71839111 -31.0505127 227.71839111 -30.140625 227.30154419 C-27.99797725 226.15668876 -26.52231645 225.00053666 -24.77050781 223.33401489 C-24.19276611 222.78978882 -23.61502441 222.24556274 -23.01977539 221.68484497 C-22.41673584 221.10887573 -21.81369629 220.53290649 -21.19238281 219.93948364 C-19.93144933 218.75114985 -18.66973691 217.56364201 -17.40722656 216.37698364 C-16.80507324 215.80979614 -16.20291992 215.24260864 -15.58251953 214.65823364 C-13.09523498 212.33607695 -10.53211813 210.10881645 -7.95410156 207.88870239 C-4.33012656 204.71508545 -0.80410288 201.43124365 2.73730469 198.16604614 C5.05761719 196.12698364 5.05761719 196.12698364 7.05761719 195.12698364 C7.05761719 194.46698364 7.05761719 193.80698364 7.05761719 193.12698364 C7.858125 192.80407349 7.858125 192.80407349 8.67480469 192.47463989 C11.93419326 190.63121521 14.48573489 188.12684991 17.18261719 185.56448364 C22.81775232 180.24691608 22.81775232 180.24691608 25.05761719 179.12698364 C25.05761719 178.46698364 25.05761719 177.80698364 25.05761719 177.12698364 C25.92386719 176.72479614 25.92386719 176.72479614 26.80761719 176.31448364 C29.11311761 175.09769175 31.07817911 173.82364485 33.05761719 172.12698364 C33.05761719 171.46698364 33.05761719 170.80698364 33.05761719 170.12698364 C33.91613281 169.74026489 33.91613281 169.74026489 34.79199219 169.34573364 C37.26890714 168.01332422 39.19173379 166.47642246 41.30761719 164.62698364 C42.01402344 164.01854614 42.72042969 163.41010864 43.44824219 162.78323364 C45.28991223 161.27281997 45.28991223 161.27281997 45.05761719 159.12698364 C47.05761719 158.12698364 49.05761719 157.12698364 51.05761719 156.12698364 C51.05761719 155.46698364 51.05761719 154.80698364 51.05761719 154.12698364 C51.71761719 154.12698364 52.37761719 154.12698364 53.05761719 154.12698364 C53.05761719 153.46698364 53.05761719 152.80698364 53.05761719 152.12698364 C54.37761719 151.46698364 55.69761719 150.80698364 57.05761719 150.12698364 C57.05761719 149.13698364 57.05761719 148.14698364 57.05761719 147.12698364 C56.39761719 147.12698364 55.73761719 147.12698364 55.05761719 147.12698364 C55.05761719 146.46698364 55.05761719 145.80698364 55.05761719 145.12698364 C51.83647562 142.81106342 51.83647562 142.81106342 48.05761719 142.12698364 C48.05761719 141.46698364 48.05761719 140.80698364 48.05761719 140.12698364 C46.57124961 138.76638274 46.57124961 138.76638274 44.68261719 137.50198364 C44.05613281 137.05596802 43.42964844 136.60995239 42.78417969 136.15042114 C41.10539075 134.95701395 41.10539075 134.95701395 39.05761719 135.12698364 C39.05761719 134.46698364 39.05761719 133.80698364 39.05761719 133.12698364 C36.88303441 131.30594164 36.88303441 131.30594164 34.18261719 129.50198364 C33.27769531 128.87034302 32.37277344 128.23870239 31.44042969 127.58792114 C29.23928013 125.9527526 29.23928013 125.9527526 27.05761719 126.12698364 C27.05761719 125.46698364 27.05761719 124.80698364 27.05761719 124.12698364 C24.98920063 122.38640841 24.98920063 122.38640841 22.30761719 120.56448364 C18.11996346 117.59486047 13.97159594 114.58984854 9.87011719 111.50198364 C8.87882812 110.75819458 7.88753906 110.01440552 6.86621094 109.24807739 C5.10182772 107.9155877 3.34310734 106.57553151 1.59277344 105.22463989 C0.52349609 104.40286255 0.52349609 104.40286255 -0.56738281 103.56448364 C-1.17839844 103.08881958 -1.78941406 102.61315552 -2.41894531 102.12307739 C-3.91800892 100.94456719 -3.91800892 100.94456719 -5.94238281 101.12698364 C-5.94238281 100.46698364 -5.94238281 99.80698364 -5.94238281 99.12698364 C-8.24303737 97.144868 -8.24303737 97.144868 -11.12988281 95.12698364 C-12.0928125 94.42573364 -13.05574219 93.72448364 -14.04785156 93.00198364 C-16.64846422 91.31737625 -19.02984812 90.14929929 -21.94238281 89.12698364 C-21.94238281 88.46698364 -21.94238281 87.80698364 -21.94238281 87.12698364 C-23.59238281 86.46698364 -25.24238281 85.80698364 -26.94238281 85.12698364 C-26.94238281 84.46698364 -26.94238281 83.80698364 -26.94238281 83.12698364 C-28.30449195 82.17350724 -29.67533393 81.23055723 -31.08300781 80.34573364 C-33.91323871 78.49062432 -36.5447681 76.38403082 -39.20800781 74.29885864 C-40.86971799 72.94036451 -40.86971799 72.94036451 -42.94238281 73.12698364 C-42.94238281 72.46698364 -42.94238281 71.80698364 -42.94238281 71.12698364 C-43.60238281 71.12698364 -44.26238281 71.12698364 -44.94238281 71.12698364 Z M326.99511719 74.50198364 C325.61646484 75.44171021 325.61646484 75.44171021 324.20996094 76.40042114 C323.4996875 76.97018677 322.78941406 77.53995239 322.05761719 78.12698364 C322.05761719 78.78698364 322.05761719 79.44698364 322.05761719 80.12698364 C321.50332031 80.38350708 320.94902344 80.64003052 320.37792969 80.90432739 C317.72454126 82.30249335 315.37199792 83.94550846 312.93261719 85.68948364 C308.25206163 89.02976142 308.25206163 89.02976142 306.05761719 90.12698364 C306.05761719 90.78698364 306.05761719 91.44698364 306.05761719 92.12698364 C304.40761719 92.78698364 302.75761719 93.44698364 301.05761719 94.12698364 C301.05761719 94.78698364 301.05761719 95.44698364 301.05761719 96.12698364 C300.31511719 96.39510864 299.57261719 96.66323364 298.80761719 96.93948364 C296.13682103 98.09278199 294.30360518 99.3021184 292.05761719 101.12698364 C291.2803125 101.74831177 290.50300781 102.36963989 289.70214844 103.00979614 C288.82945312 103.70846802 287.95675781 104.40713989 287.05761719 105.12698364 C284.95701136 106.75690314 282.85381307 108.38262254 280.74511719 110.00198364 C280.19364014 110.42584351 279.64216309 110.84970337 279.07397461 111.28640747 C270.79715375 117.63922522 262.51439839 123.9363886 253.82324219 129.71682739 C253.24058594 130.18217896 252.65792969 130.64753052 252.05761719 131.12698364 C252.05761719 131.78698364 252.05761719 132.44698364 252.05761719 133.12698364 C251.37699219 133.35385864 250.69636719 133.58073364 249.99511719 133.81448364 C246.35874629 135.43924511 243.02932456 137.45501621 240.05761719 140.12698364 C240.05761719 140.78698364 240.05761719 141.44698364 240.05761719 142.12698364 C239.33574219 142.35385864 238.61386719 142.58073364 237.87011719 142.81448364 C234.52552406 144.37529377 232.54157759 146.43011234 230.05761719 149.12698364 C231.04761719 149.45698364 232.03761719 149.78698364 233.05761719 150.12698364 C233.05761719 150.78698364 233.05761719 151.44698364 233.05761719 152.12698364 C233.71761719 152.12698364 234.37761719 152.12698364 235.05761719 152.12698364 C235.05761719 152.78698364 235.05761719 153.44698364 235.05761719 154.12698364 C236.77713693 155.6655013 238.55949216 157.13430123 240.37011719 158.56448364 C245.84902777 162.91180224 245.84902777 162.91180224 247.78808594 164.91213989 C249.00559219 166.35744166 249.00559219 166.35744166 251.05761719 166.12698364 C251.05761719 166.78698364 251.05761719 167.44698364 251.05761719 168.12698364 C251.71761719 168.12698364 252.37761719 168.12698364 253.05761719 168.12698364 C253.05761719 168.78698364 253.05761719 169.44698364 253.05761719 170.12698364 C254.77713693 171.6655013 256.55949216 173.13430123 258.37011719 174.56448364 C263.84902777 178.91180224 263.84902777 178.91180224 265.78808594 180.91213989 C267.00559219 182.35744166 267.00559219 182.35744166 269.05761719 182.12698364 C269.05761719 182.78698364 269.05761719 183.44698364 269.05761719 184.12698364 C269.71761719 184.12698364 270.37761719 184.12698364 271.05761719 184.12698364 C271.05761719 184.78698364 271.05761719 185.44698364 271.05761719 186.12698364 C274.53760226 189.76331904 274.53760226 189.76331904 279.05761719 191.12698364 C279.05761719 191.78698364 279.05761719 192.44698364 279.05761719 193.12698364 C280.77093708 194.93765738 280.77093708 194.93765738 282.93261719 196.75198364 C283.65191406 197.38362427 284.37121094 198.01526489 285.11230469 198.66604614 C286.91868651 200.32715487 286.91868651 200.32715487 289.05761719 200.12698364 C289.05761719 200.78698364 289.05761719 201.44698364 289.05761719 202.12698364 C292.53760226 205.76331904 292.53760226 205.76331904 297.05761719 207.12698364 C297.05761719 207.78698364 297.05761719 208.44698364 297.05761719 209.12698364 C297.71761719 209.12698364 298.37761719 209.12698364 299.05761719 209.12698364 C299.05761719 209.78698364 299.05761719 210.44698364 299.05761719 211.12698364 C300.69524438 212.58100707 302.39495914 213.96547042 304.12011719 215.31448364 C307.43310683 217.96065499 310.62411061 220.56437409 313.55761719 223.62698364 C318.0074501 228.23804239 323.05651444 232.1364282 328.05761719 236.12698364 C329.70761719 237.44698364 331.35761719 238.76698364 333.05761719 240.12698364 C333.05761719 184.35698364 333.05761719 128.58698364 333.05761719 71.12698364 C330.89842205 71.12698364 328.67694633 73.34291714 326.99511719 74.50198364 Z M210.05761719 163.12698364 C209.44015625 163.63487427 208.82269531 164.14276489 208.18652344 164.66604614 C203.18166155 168.73392476 198.1599558 172.50304381 192.67480469 175.90042114 C192.14113281 176.30518677 191.60746094 176.70995239 191.05761719 177.12698364 C191.05761719 177.78698364 191.05761719 178.44698364 191.05761719 179.12698364 C190.37699219 179.33323364 189.69636719 179.53948364 188.99511719 179.75198364 C185.65538754 181.31526135 183.39385306 183.30001425 180.70605469 185.78713989 C179.05761719 187.12698364 179.05761719 187.12698364 176.05761719 188.12698364 C176.05761719 188.78698364 176.05761719 189.44698364 176.05761719 190.12698364 C175.3525 190.24042114 174.64738281 190.35385864 173.92089844 190.47073364 C170.80043957 191.18592749 168.16154105 192.3121084 165.24511719 193.62698364 C160.48819686 195.63263535 156.24032201 197.01041762 151.05761719 197.12698364 C149.96191406 197.15405396 148.86621094 197.18112427 147.73730469 197.20901489 C144.17273071 197.25063943 140.62118989 197.21502485 137.05761719 197.12698364 C135.94 197.10184692 135.94 197.10184692 134.79980469 197.07620239 C116.79352351 195.75775084 100.52480721 180.33808759 86.94042969 169.68167114 C85.4825 168.57178833 85.4825 168.57178833 83.99511719 167.43948364 C83.13789063 166.77561646 82.28066406 166.11174927 81.39746094 165.42776489 C79.16126189 163.88235833 79.16126189 163.88235833 76.74902344 164.41995239 C76.19085938 164.65327271 75.63269531 164.88659302 75.05761719 165.12698364 C75.05761719 165.78698364 75.05761719 166.44698364 75.05761719 167.12698364 C74.46537354 167.39631714 73.87312988 167.66565063 73.26293945 167.94314575 C71.06036077 169.12551086 69.56411658 170.33904336 67.77246094 172.06838989 C67.16466797 172.64774292 66.556875 173.22709595 65.93066406 173.82400513 C65.29193359 174.43961304 64.65320313 175.05522095 63.99511719 175.68948364 C58.63438012 180.78517941 53.18133677 185.57010168 47.40136719 190.18557739 C44.72089507 192.40590179 42.34363354 194.8107359 39.93261719 197.31448364 C36.71651302 200.42338434 33.17000579 203.13457322 29.68652344 205.93557739 C26.8954183 208.26218955 24.403157 210.74157866 21.89355469 213.36135864 C18.81628099 216.3207793 15.3972449 218.84997842 11.99902344 221.42776489 C11.35835937 221.98850708 10.71769531 222.54924927 10.05761719 223.12698364 C10.05761719 223.78698364 10.05761719 224.44698364 10.05761719 225.12698364 C9.39761719 225.12698364 8.73761719 225.12698364 8.05761719 225.12698364 C8.05761719 225.78698364 8.05761719 226.44698364 8.05761719 227.12698364 C7.25710937 227.4498938 7.25710937 227.4498938 6.44042969 227.77932739 C3.18104111 229.62275208 0.62949948 232.12711737 -2.06738281 234.68948364 C-7.70251795 240.00705121 -7.70251795 240.00705121 -9.94238281 241.12698364 C-9.94238281 241.78698364 -9.94238281 242.44698364 -9.94238281 243.12698364 C-10.80863281 243.52917114 -10.80863281 243.52917114 -11.69238281 243.93948364 C-13.99788324 245.15627553 -15.96294474 246.43032243 -17.94238281 248.12698364 C-17.94238281 248.78698364 -17.94238281 249.44698364 -17.94238281 250.12698364 C-18.47863281 250.35385864 -19.01488281 250.58073364 -19.56738281 250.81448364 C-22.76698443 252.58268453 -25.23275504 254.66368567 -27.94238281 257.12698364 C-27.94238281 257.78698364 -27.94238281 258.44698364 -27.94238281 259.12698364 C-29.94238281 260.12698364 -31.94238281 261.12698364 -33.94238281 262.12698364 C-33.94238281 262.78698364 -33.94238281 263.44698364 -33.94238281 264.12698364 C-34.60238281 264.12698364 -35.26238281 264.12698364 -35.94238281 264.12698364 C-35.94238281 264.78698364 -35.94238281 265.44698364 -35.94238281 266.12698364 C-36.93238281 266.62198364 -36.93238281 266.62198364 -37.94238281 267.12698364 C-31.03626168 274.83252716 -22.81708897 280.58896496 -12.21570325 281.31327689 C-8.82593566 281.38803851 -5.44128197 281.39822942 -2.0506897 281.38768005 C-0.09726357 281.39341837 -0.09726357 281.39341837 1.89562571 281.39927262 C5.49956724 281.40954225 9.10340918 281.40737346 12.70735884 281.40309203 C16.59838906 281.40062292 20.48939541 281.40964127 24.38041687 281.41712952 C31.99924235 281.42987345 39.61803259 281.43167058 47.23686694 281.42932925 C53.4303724 281.42754557 59.62386718 281.42929681 65.81737137 281.4335537 C66.69916467 281.43414888 67.58095797 281.43474407 68.48947228 281.4353573 C70.28089296 281.43656906 72.07231364 281.4377832 73.86373432 281.43899968 C90.66069276 281.44987406 107.45763113 281.44771321 124.25459071 281.44161483 C139.61579104 281.43644591 154.97692795 281.44770063 170.33811574 281.46671305 C186.11674996 281.4860922 201.89535418 281.4943473 217.67400038 281.4905898 C226.53018952 281.48867785 235.38632469 281.49116468 244.24250412 281.50530434 C251.78198494 281.51722009 259.32137855 281.51862085 266.86086057 281.50651417 C270.70603684 281.50062681 274.55105362 281.49952202 278.39621925 281.51151657 C282.56825806 281.52437931 286.73991755 281.51390755 290.91195679 281.50120544 C292.12217888 281.50857973 293.33240098 281.51595401 294.57929647 281.52355176 C303.31925238 281.46755554 310.9316467 280.4417869 317.87011719 274.75198364 C318.5778125 274.18737427 319.28550781 273.62276489 320.01464844 273.04104614 C322.29250888 270.90691303 324.16374771 268.60390957 326.05761719 266.12698364 C324.43812677 264.62103683 322.81185744 263.12237697 321.18261719 261.62698364 C320.27769531 260.79167114 319.37277344 259.95635864 318.44042969 259.09573364 C316.31580087 256.91466805 316.31580087 256.91466805 314.05761719 257.12698364 C314.05761719 256.46698364 314.05761719 255.80698364 314.05761719 255.12698364 C313.39761719 255.12698364 312.73761719 255.12698364 312.05761719 255.12698364 C312.05761719 254.46698364 312.05761719 253.80698364 312.05761719 253.12698364 C310.37906588 251.63069185 308.63802821 250.20405704 306.87011719 248.81448364 C303.84093379 246.42601106 301.02233954 244.09100144 298.31933594 241.33401489 C296.345735 238.89418328 296.345735 238.89418328 294.05761719 239.12698364 C294.05761719 238.46698364 294.05761719 237.80698364 294.05761719 237.12698364 C292.39953374 235.65182043 290.67915672 234.24627064 288.93261719 232.87698364 C285.61504937 230.23403065 282.42878983 227.62984234 279.49511719 224.56448364 C278.28855469 223.35792114 278.28855469 223.35792114 277.05761719 222.12698364 C276.39761719 222.12698364 275.73761719 222.12698364 275.05761719 222.12698364 C275.05761719 221.46698364 275.05761719 220.80698364 275.05761719 220.12698364 C273.37906588 218.63069185 271.63802821 217.20405704 269.87011719 215.81448364 C266.84093379 213.42601106 264.02233954 211.09100144 261.31933594 208.33401489 C259.345735 205.89418328 259.345735 205.89418328 257.05761719 206.12698364 C257.05761719 205.46698364 257.05761719 204.80698364 257.05761719 204.12698364 C255.37906588 202.63069185 253.63802821 201.20405704 251.87011719 199.81448364 C248.84093379 197.42601106 246.02233954 195.09100144 243.31933594 192.33401489 C241.345735 189.89418328 241.345735 189.89418328 239.05761719 190.12698364 C239.05761719 189.46698364 239.05761719 188.80698364 239.05761719 188.12698364 C237.3442973 186.31630991 237.3442973 186.31630991 235.18261719 184.50198364 C234.10367188 183.55452271 234.10367188 183.55452271 233.00292969 182.58792114 C231.19654786 180.92681241 231.19654786 180.92681241 229.05761719 181.12698364 C229.05761719 180.46698364 229.05761719 179.80698364 229.05761719 179.12698364 C228.39761719 179.12698364 227.73761719 179.12698364 227.05761719 179.12698364 C227.05761719 178.46698364 227.05761719 177.80698364 227.05761719 177.12698364 C224.42076972 174.72878059 224.42076972 174.72878059 221.05761719 174.12698364 C221.05761719 173.46698364 221.05761719 172.80698364 221.05761719 172.12698364 C219.3442973 170.31630991 219.3442973 170.31630991 217.18261719 168.50198364 C216.10367188 167.55452271 216.10367188 167.55452271 215.00292969 166.58792114 C213.19654786 164.92681241 213.19654786 164.92681241 211.05761719 165.12698364 C210.72761719 164.46698364 210.39761719 163.80698364 210.05761719 163.12698364 Z " fill="#FFFFFF" transform="translate(71.9423828125,2.873016357421875)"/>
<path d="M0 0 C1.485 0.99 1.485 0.99 3 2 C3.36635017 4.67681885 3.36635017 4.67681885 3.35403442 8.14941406 C3.35671326 9.4618811 3.35939209 10.77434814 3.3621521 12.12658691 C3.34993882 13.58960187 3.33744774 15.05261454 3.32470703 16.515625 C3.32222489 18.04959968 3.32107655 19.58357702 3.32116699 21.11755371 C3.31774774 25.29110604 3.29595817 29.46439015 3.27125025 33.63786316 C3.24881779 37.99846322 3.24408417 42.35907865 3.23776245 46.71972656 C3.22325827 54.98342545 3.19431246 63.24700322 3.15951526 71.51063919 C3.09764125 86.31504578 3.06005634 101.11952494 3.02792251 115.92402267 C3.01606336 121.12354903 2.9978519 126.3230048 2.97440743 131.52249146 C2.96061137 134.75223613 2.95074326 137.9819849 2.94177246 141.21174622 C2.93668955 142.71381834 2.929853 144.21588566 2.92116928 145.71794128 C2.90953818 147.76213534 2.90454445 149.806364 2.89993286 151.85058594 C2.89511461 152.99654236 2.89029636 154.14249878 2.88533211 155.32318115 C2.81624864 157.97293398 2.81624864 157.97293398 4 160 C2.02 160.99 2.02 160.99 0 162 C0 108.54 0 55.08 0 0 Z " fill="#FFFFFF" transform="translate(29,77)"/>
<path d="M0 0 C0.33 0 0.66 0 1 0 C1 53.46 1 106.92 1 162 C0.01 161.01 -0.98 160.02 -2 159 C-1.34 159 -0.68 159 0 159 C-0.10712789 138.82501496 -0.21986909 118.65006879 -0.33933926 98.47515297 C-0.39467651 89.10812261 -0.44815932 79.74108845 -0.49731445 70.37402344 C-0.54015015 62.21208681 -0.58642657 54.05017828 -0.63687855 45.88828504 C-0.66348445 41.56447504 -0.68833764 37.24067062 -0.70907402 32.91682816 C-0.72862889 28.85066472 -0.75276919 24.78455481 -0.78049088 20.7184391 C-0.78986741 19.22283587 -0.79754052 17.72722088 -0.80341911 16.23159981 C-0.81166995 14.19601258 -0.82653566 12.16045531 -0.84178162 10.12490845 C-0.84823417 8.98372873 -0.85468672 7.84254902 -0.8613348 6.6667881 C-0.82031285 4.02590314 -0.82031285 4.02590314 -2 2 C-1.34 2 -0.68 2 0 2 C0 1.34 0 0.68 0 0 Z " fill="#FFFFFF" transform="translate(402,77)"/>
<path d="M0 0 C3.465 1.98 3.465 1.98 7 4 C7 4.99 7 5.98 7 7 C6.34 7 5.68 7 5 7 C5 7.66 5 8.32 5 9 C4.34 9 3.68 9 3 9 C3 9.66 3 10.32 3 11 C1.37373596 12.38232443 -0.2925002 13.71937515 -2 15 C-2.66 14.67 -3.32 14.34 -4 14 C1.28571429 7.57142857 1.28571429 7.57142857 4 5 C3.01 4.319375 3.01 4.319375 2 3.625 C1.34 3.08875 0.68 2.5525 0 2 C0 1.34 0 0.68 0 0 Z " fill="#FFFFFF" transform="translate(120,146)"/>
<path d="M0 0 C5.94 0 11.88 0 18 0 C16 2 16 2 12.8125 2.265625 C10.9253125 2.25789062 10.9253125 2.25789062 9 2.25 C7.741875 2.25515625 6.48375 2.2603125 5.1875 2.265625 C2 2 2 2 0 0 Z " fill="#FFFFFF" transform="translate(207,203)"/>
<path d="M0 0 C0.66 0 1.32 0 2 0 C1.67 0.99 1.34 1.98 1 3 C0.34 3 -0.32 3 -1 3 C-1 3.66 -1 4.32 -1 5 C-6.47619048 10 -6.47619048 10 -9 10 C-9 10.66 -9 11.32 -9 12 C-9.66 12 -10.32 12 -11 12 C-11 12.66 -11 13.32 -11 14 C-11.66 13.67 -12.32 13.34 -13 13 C-12.67 12.34 -12.34 11.68 -12 11 C-11.34 11 -10.68 11 -10 11 C-10 10.34 -10 9.68 -10 9 C-8.3203125 7.2734375 -8.3203125 7.2734375 -6.125 5.375 C-5.40570313 4.74335938 -4.68640625 4.11171875 -3.9453125 3.4609375 C-2 2 -2 2 0 2 C0 1.34 0 0.68 0 0 Z " fill="#FFFFFF" transform="translate(110,203)"/>
<path d="M0 0 C2.94956528 1.36944102 5.52468811 2.87830409 8 5 C8 5.66 8 6.32 8 7 C8.66 7 9.32 7 10 7 C10 7.66 10 8.32 10 9 C10.66 9 11.32 9 12 9 C12 9.66 12 10.32 12 11 C12.66 11.33 13.32 11.66 14 12 C13.01 12 12.02 12 11 12 C11 11.34 11 10.68 11 10 C10.34 10 9.68 10 9 10 C9 9.34 9 8.68 9 8 C8.443125 7.79375 7.88625 7.5875 7.3125 7.375 C4.07498698 5.44999226 2.31768859 2.96149098 0 0 Z " fill="#FFFFFF" transform="translate(322,205)"/>
<path d="M0 0 C0.66 0.33 1.32 0.66 2 1 C0.37660195 2.70884005 -1.29319053 4.37446717 -3 6 C-3.66 6 -4.32 6 -5 6 C-5 6.66 -5 7.32 -5 8 C-5.66 8 -6.32 8 -7 8 C-7 8.66 -7 9.32 -7 10 C-8.98 10.99 -8.98 10.99 -11 12 C-9.71480435 9.13302508 -8.42870746 7.02392288 -6 5 C-5.34 5 -4.68 5 -4 5 C-4 4.34 -4 3.68 -4 3 C-2 1.375 -2 1.375 0 0 Z " fill="#FFFFFF" transform="translate(76,195)"/>
<path d="M0 0 C0.66 0.33 1.32 0.66 2 1 C0.8803014 2.00593243 -0.2459412 3.0045849 -1.375 4 C-2.31472656 4.8353125 -2.31472656 4.8353125 -3.2734375 5.6875 C-5 7 -5 7 -7 7 C-7 7.66 -7 8.32 -7 9 C-8.65 9.66 -10.3 10.32 -12 11 C-12 10.34 -12 9.68 -12 9 C-10.5390625 7.7109375 -10.5390625 7.7109375 -8.625 6.375 C-7.68527344 5.70597656 -7.68527344 5.70597656 -6.7265625 5.0234375 C-5 4 -5 4 -3 4 C-3 3.34 -3 2.68 -3 2 C-2.01 1.34 -1.02 0.68 0 0 Z " fill="#FFFFFF" transform="translate(349,81)"/>
<path d="M0 0 C5.09210286 3.56320845 9.22660027 7.04741286 13 12 C9.57143381 10.49017269 7.04321784 8.48286031 4.25 6 C3.45078125 5.29875 2.6515625 4.5975 1.828125 3.875 C0 2 0 2 0 0 Z " fill="#FFFFFF" transform="translate(370,247)"/>
<path d="M0 0 C5.03681497 3.07122864 8.94510767 6.72916666 13 11 C8.89253434 11 7.80245139 9.36039564 4.8125 6.625 C3.91144531 5.81289062 3.01039063 5.00078125 2.08203125 4.1640625 C0 2 0 2 0 0 Z " fill="#FFFFFF" transform="translate(354,233)"/>
<path d="M0 0 C0.99 0.33 1.98 0.66 3 1 C2.34 1 1.68 1 1 1 C1 1.66 1 2.32 1 3 C0.34 3 -0.32 3 -1 3 C-1 3.66 -1 4.32 -1 5 C-6.47619048 10 -6.47619048 10 -9 10 C-7.65396518 5.96189555 -5.34663277 4.52704924 -2 2 C-1.34 2 -0.68 2 0 2 C0 1.34 0 0.68 0 0 Z " fill="#FFFFFF" transform="translate(60,209)"/>
<path d="M0 0 C3.23861303 1.44424635 5.61969163 3.25772247 8.25 5.625 C8.95640625 6.25664062 9.6628125 6.88828125 10.390625 7.5390625 C10.92171875 8.02117187 11.4528125 8.50328125 12 9 C11.67 9.66 11.34 10.32 11 11 C10.34 10.67 9.68 10.34 9 10 C9 9.34 9 8.68 9 8 C8.443125 7.79375 7.88625 7.5875 7.3125 7.375 C4.07498698 5.44999226 2.31768859 2.96149098 0 0 Z " fill="#FFFFFF" transform="translate(304,189)"/>
<path d="M0 0 C0.66 0.33 1.32 0.66 2 1 C-1.49359465 4.59634744 -5.11098131 7.83451967 -9 11 C-9.33 10.34 -9.66 9.68 -10 9 C-9.34 9 -8.68 9 -8 9 C-8 8.34 -8 7.68 -8 7 C-7.34 7 -6.68 7 -6 7 C-6 6.34 -6 5.68 -6 5 C-4.04072937 3.2856382 -2.04119788 1.61594832 0 0 Z " fill="#FFFFFF" transform="translate(126,189)"/>
<path d="M0 0 C0.66 0.33 1.32 0.66 2 1 C0.88121617 2.17262904 -0.24523051 3.33795138 -1.375 4.5 C-2.00148437 5.1496875 -2.62796875 5.799375 -3.2734375 6.46875 C-5 8 -5 8 -7 8 C-7 8.66 -7 9.32 -7 10 C-7.99 10.33 -8.98 10.66 -10 11 C-9.34 9.68 -8.68 8.36 -8 7 C-7.34 7 -6.68 7 -6 7 C-6 6.34 -6 5.68 -6 5 C-5.34 5 -4.68 5 -4 5 C-4 4.34 -4 3.68 -4 3 C-2 1.375 -2 1.375 0 0 Z " fill="#FFFFFF" transform="translate(142,175)"/>
<path d="M0 0 C2.16147703 1.08073852 3.41039672 2.19363264 5 4 C5 4.66 5 5.32 5 6 C5.99 6.33 6.98 6.66 8 7 C8 7.66 8 8.32 8 9 C8.66 9 9.32 9 10 9 C9.67 9.66 9.34 10.32 9 11 C7.70450101 9.90033225 6.41373929 8.79508199 5.125 7.6875 C4.40570313 7.07261719 3.68640625 6.45773438 2.9453125 5.82421875 C1 4 1 4 -1 1 C-0.67 0.67 -0.34 0.34 0 0 Z " fill="#FFFFFF" transform="translate(306,150)"/>
<path d="M0 0 C0.99 0.33 1.98 0.66 3 1 C2.34 1 1.68 1 1 1 C1 1.66 1 2.32 1 3 C0.34 3 -0.32 3 -1 3 C-1 3.66 -1 4.32 -1 5 C-1.66 5 -2.32 5 -3 5 C-3 5.66 -3 6.32 -3 7 C-4.96147874 8.38938077 -6.96166576 9.7260411 -9 11 C-7.44396229 7.18063472 -5.04395069 4.73955562 -2 2 C-1.34 2 -0.68 2 0 2 C0 1.34 0 0.68 0 0 Z " fill="#FFFFFF" transform="translate(44,223)"/>
<path d="M0 0 C1.7074998 1.28062485 3.37373596 2.61767557 5 4 C5 4.66 5 5.32 5 6 C5.61875 6.0825 6.2375 6.165 6.875 6.25 C9 7 9 7 10.25 9.0625 C10.4975 9.701875 10.745 10.34125 11 11 C8.50638429 9.79618552 6.31856917 8.54571278 4 7 C4 6.34 4 5.68 4 5 C3.34 5 2.68 5 2 5 C2 4.34 2 3.68 2 3 C1.34 3 0.68 3 0 3 C0 2.01 0 1.02 0 0 Z " fill="#FFFFFF" transform="translate(339,180)"/>
<path d="M0 0 C4.82675589 2.41337795 7.69984002 5.86062408 11 10 C9.68 9.67 8.36 9.34 7 9 C7 8.34 7 7.68 7 7 C6.34 7 5.68 7 5 7 C5 6.34 5 5.68 5 5 C4.01 4.67 3.02 4.34 2 4 C2 3.34 2 2.68 2 2 C1.34 2 0.68 2 0 2 C0 1.34 0 0.68 0 0 Z " fill="#FFFFFF" transform="translate(290,176)"/>
<path d="M0 0 C2.93879484 1.35236577 5.29232911 2.89942659 7.75 5 C8.67039062 5.7734375 8.67039062 5.7734375 9.609375 6.5625 C11 8 11 8 11 10 C10.34 10 9.68 10 9 10 C9 9.34 9 8.68 9 8 C8.443125 7.773125 7.88625 7.54625 7.3125 7.3125 C4.35437642 5.633565 2.29781283 3.48929723 0 1 C0 0.67 0 0.34 0 0 Z " fill="#FFFFFF" transform="translate(388,225)"/>
<path d="M0 0 C0.66 0.33 1.32 0.66 2 1 C0.02 1.99 0.02 1.99 -2 3 C-2 3.66 -2 4.32 -2 5 C-2.66 5 -3.32 5 -4 5 C-4 5.66 -4 6.32 -4 7 C-6 8.625 -6 8.625 -8 10 C-8.66 9.67 -9.32 9.34 -10 9 C-8.89902432 7.87187697 -7.79408444 6.74762189 -6.6875 5.625 C-6.07261719 4.99851563 -5.45773438 4.37203125 -4.82421875 3.7265625 C-3 2 -3 2 0 0 Z " fill="#FFFFFF" transform="translate(93,219)"/>
<path d="M0 0 C3.96480297 1.67741664 6.84041677 4.12126862 10 7 C10.33 7.99 10.66 8.98 11 10 C8.06120516 8.64763423 5.70767089 7.10057341 3.25 5 C2.63640625 4.484375 2.0228125 3.96875 1.390625 3.4375 C0 2 0 2 0 0 Z " fill="#FFFFFF" transform="translate(338,219)"/>
<path d="M0 0 C2.475 0.99 2.475 0.99 5 2 C5 2.66 5 3.32 5 4 C5.66 4 6.32 4 7 4 C7 4.66 7 5.32 7 6 C7.66 6.33 8.32 6.66 9 7 C7.68 7.99 6.36 8.98 5 10 C5.33 8.35 5.66 6.7 6 5 C5.38125 4.9175 4.7625 4.835 4.125 4.75 C2 4 2 4 0.75 1.9375 C0.5025 1.298125 0.255 0.65875 0 0 Z " fill="#FFFFFF" transform="translate(387,263)"/>
<path d="M0 0 C0 0.66 0 1.32 0 2 C-1.75 3.7265625 -1.75 3.7265625 -4 5.625 C-4.7425 6.25664062 -5.485 6.88828125 -6.25 7.5390625 C-6.8275 8.02117187 -7.405 8.50328125 -8 9 C-8.33 8.01 -8.66 7.02 -9 6 C-8.34 6 -7.68 6 -7 6 C-7 5.34 -7 4.68 -7 4 C-6.34 4 -5.68 4 -5 4 C-5 3.34 -5 2.68 -5 2 C-2 0 -2 0 0 0 Z " fill="#FFFFFF" transform="translate(61,249)"/>
<path d="M0 0 C1.485 0.99 1.485 0.99 3 2 C3 2.66 3 3.32 3 4 C3.61875 4.268125 4.2375 4.53625 4.875 4.8125 C7 6 7 6 9 9 C6.525 8.01 6.525 8.01 4 7 C4 6.34 4 5.68 4 5 C2.68 4.34 1.36 3.68 0 3 C0 2.01 0 1.02 0 0 Z " fill="#FFFFFF" transform="translate(357,196)"/>
<path d="M0 0 C0.66 0.66 1.32 1.32 2 2 C0.37660195 3.70884005 -1.29319053 5.37446717 -3 7 C-3.66 7 -4.32 7 -5 7 C-5 7.66 -5 8.32 -5 9 C-5.99 8.67 -6.98 8.34 -8 8 C-6.68 7.34 -5.36 6.68 -4 6 C-4 5.34 -4 4.68 -4 4 C-2.70766393 2.62689293 -1.37562854 1.28965176 0 0 Z " fill="#FFFFFF" transform="translate(92,180)"/>
<path d="M0 0 C0.48210937 0.42152344 0.96421875 0.84304687 1.4609375 1.27734375 C2.09257812 1.82519531 2.72421875 2.37304688 3.375 2.9375 C4.00148438 3.48277344 4.62796875 4.02804688 5.2734375 4.58984375 C6.95632334 6.06958624 6.95632334 6.06958624 9 7 C9 7.66 9 8.32 9 9 C5.0873016 7.6957672 2.62689759 6.21065261 0 3 C0 2.01 0 1.02 0 0 Z " fill="#FFFFFF" transform="translate(323,166)"/>
<path d="M0 0 C0.66 0.33 1.32 0.66 2 1 C0.02 1.99 0.02 1.99 -2 3 C-2 3.66 -2 4.32 -2 5 C-3.62626404 6.38232443 -5.2925002 7.71937515 -7 9 C-7 8.01 -7 7.02 -7 6 C-5.68 5.34 -4.36 4.68 -3 4 C-3 3.34 -3 2.68 -3 2 C-2.01 1.34 -1.02 0.68 0 0 Z " fill="#FFFFFF" transform="translate(75,235)"/>
<path d="M0 0 C2 1 4 2 6 3 C6 3.66 6 4.32 6 5 C7.32 5.66 8.64 6.32 10 7 C9.01 7.33 8.02 7.66 7 8 C7 7.34 7 6.68 7 6 C6.401875 5.7525 5.80375 5.505 5.1875 5.25 C2.71352479 3.83629988 1.56629745 2.34944617 0 0 Z " fill="#FFFFFF" transform="translate(372,211)"/>
<path d="M0 0 C0 0.66 0 1.32 0 2 C-1.32 2.33 -2.64 2.66 -4 3 C-4 3.99 -4 4.98 -4 6 C-3.34 6 -2.68 6 -2 6 C-1.67 6.99 -1.34 7.98 -1 9 C-1.66 9 -2.32 9 -3 9 C-3 8.34 -3 7.68 -3 7 C-3.66 7 -4.32 7 -5 7 C-5.33 6.01 -5.66 5.02 -6 4 C-2.25 0 -2.25 0 0 0 Z " fill="#FFFFFF" transform="translate(43,265)"/>
<path d="M0 0 C4.455 2.97 4.455 2.97 9 6 C4.75354935 6 2.61475228 4.18249194 -1 2 C-0.67 1.34 -0.34 0.68 0 0 Z " fill="#FFFFFF" transform="translate(399,8)"/>
<path d="M0 0 C1.65 0 3.3 0 5 0 C1.8745041 2.64465038 -1.08788267 3.84414715 -5 5 C-4.34 4.01 -3.68 3.02 -3 2 C-2.01 2 -1.02 2 0 2 C0 1.34 0 0.68 0 0 Z " fill="#FFFFFF" transform="translate(47,33)"/>
<path d="M0 0 C2.04119788 1.61594832 4.04072937 3.2856382 6 5 C6 5.66 6 6.32 6 7 C3.50638429 5.79618552 1.31856917 4.54571278 -1 3 C-0.67 2.01 -0.34 1.02 0 0 Z " fill="#FFFFFF" transform="translate(35,44)"/>
<path d="M0 0 C2.475 0.99 2.475 0.99 5 2 C5 2.66 5 3.32 5 4 C5.66 4.33 6.32 4.66 7 5 C5.35 4.67 3.7 4.34 2 4 C2 3.34 2 2.68 2 2 C1.34 2 0.68 2 0 2 C0 1.34 0 0.68 0 0 Z " fill="#FFFFFF" transform="translate(171,185)"/>
<path d="M0 0 C2.475 0.495 2.475 0.495 5 1 C5 1.66 5 2.32 5 3 C5.66 3 6.32 3 7 3 C7 3.66 7 4.32 7 5 C4.525 4.01 4.525 4.01 2 3 C2 2.34 2 1.68 2 1 C1.34 0.67 0.68 0.34 0 0 Z " fill="#FFFFFF" transform="translate(137,124)"/>
<path d="M0 0 C0.99 0 1.98 0 3 0 C3 0.66 3 1.32 3 2 C3.66 2 4.32 2 5 2 C5 2.66 5 3.32 5 4 C5.66 4.33 6.32 4.66 7 5 C4.03824877 4.38722388 2.61941217 3.74627478 0 2 C0 1.34 0 0.68 0 0 Z " fill="#FFFFFF" transform="translate(70,109)"/>
<path d="M0 0 C0.99 0 1.98 0 3 0 C3 0.66 3 1.32 3 2 C3.66 2 4.32 2 5 2 C5 2.66 5 3.32 5 4 C5.66 4.33 6.32 4.66 7 5 C6.01 5 5.02 5 4 5 C4 4.34 4 3.68 4 3 C2.68 2.67 1.36 2.34 0 2 C0 1.34 0 0.68 0 0 Z " fill="#FFFFFF" transform="translate(164,180)"/>
<path d="M0 0 C0.33 0.66 0.66 1.32 1 2 C0.34 2 -0.32 2 -1 2 C-1 2.66 -1 3.32 -1 4 C-2.65 4.66 -4.3 5.32 -6 6 C-2.25 1.125 -2.25 1.125 0 0 Z " fill="#FFFFFF" transform="translate(106,169)"/>
<path d="M0 0 C0 0.66 0 1.32 0 2 C-1.8125 3.6875 -1.8125 3.6875 -4 5 C-4.99 4.67 -5.98 4.34 -7 4 C-6.34 4 -5.68 4 -5 4 C-5 3.34 -5 2.68 -5 2 C-2 0 -2 0 0 0 Z " fill="#FFFFFF" transform="translate(281,134)"/>
<path d="M0 0 C0 0.66 0 1.32 0 2 C-1.8125 3.6875 -1.8125 3.6875 -4 5 C-4.99 4.67 -5.98 4.34 -7 4 C-6.34 4 -5.68 4 -5 4 C-5 3.34 -5 2.68 -5 2 C-2 0 -2 0 0 0 Z " fill="#FFFFFF" transform="translate(341,125)"/>
<path d="M0 0 C0.99 0 1.98 0 3 0 C3 0.66 3 1.32 3 2 C4.32 2.66 5.64 3.32 7 4 C6.01 4.495 6.01 4.495 5 5 C3.35 3.35 1.7 1.7 0 0 Z " fill="#FFFFFF" transform="translate(91,125)"/>
<path d="M0 0 C0.99 0.33 1.98 0.66 3 1 C2.34 1 1.68 1 1 1 C1 1.66 1 2.32 1 3 C-0.65 3.66 -2.3 4.32 -4 5 C-4 4.34 -4 3.68 -4 3 C-2.1875 1.3125 -2.1875 1.3125 0 0 Z " fill="#FFFFFF" transform="translate(292,124)"/>
<path d="M0 0 C2.96175123 0.61277612 4.38058783 1.25372522 7 3 C7 3.66 7 4.32 7 5 C4.525 4.01 4.525 4.01 2 3 C2 2.34 2 1.68 2 1 C1.34 0.67 0.68 0.34 0 0 Z " fill="#FFFFFF" transform="translate(116,108)"/>
<path d="M0 0 C3.465 1.98 3.465 1.98 7 4 C7 4.66 7 5.32 7 6 C4.50638429 4.79618552 2.31856917 3.54571278 0 2 C0 1.34 0 0.68 0 0 Z " fill="#FFFFFF" transform="translate(56,98)"/>
<path d="M0 0 C0 0.99 0 1.98 0 3 C-2.5 4.6875 -2.5 4.6875 -5 6 C-5.33 5.34 -5.66 4.68 -6 4 C-4.02 2.68 -2.04 1.36 0 0 Z " fill="#FFFFFF" transform="translate(375,98)"/>
<path d="M0 0 C0.99 0 1.98 0 3 0 C3 0.66 3 1.32 3 2 C3.66 2 4.32 2 5 2 C5 2.66 5 3.32 5 4 C5.66 4.33 6.32 4.66 7 5 C6.01 5 5.02 5 4 5 C4 4.34 4 3.68 4 3 C2.68 2.67 1.36 2.34 0 2 C0 1.34 0 0.68 0 0 Z " fill="#FFFFFF" transform="translate(49,93)"/>
<path d="M0 0 C2.96175123 0.61277612 4.38058783 1.25372522 7 3 C7 3.66 7 4.32 7 5 C4.525 4.01 4.525 4.01 2 3 C2 2.34 2 1.68 2 1 C1.34 0.67 0.68 0.34 0 0 Z " fill="#FFFFFF" transform="translate(95,92)"/>
<path d="M0 0 C2.88575819 0.39803561 3.82189513 0.79009069 5.75 3.0625 C6.1625 3.701875 6.575 4.34125 7 5 C3.34683329 3.75023244 2.21934164 3.32901247 0 0 Z " fill="#FFFFFF" transform="translate(65,69)"/>
<path d="M0 0 C2.4375 0.8125 2.4375 0.8125 5 2 C5.33 2.99 5.66 3.98 6 5 C5.34 5 4.68 5 4 5 C4 4.34 4 3.68 4 3 C3.01 3 2.02 3 1 3 C0.67 2.01 0.34 1.02 0 0 Z " fill="#FFFFFF" transform="translate(44,53)"/>
<path d="M0 0 C0.33 0.99 0.66 1.98 1 3 C0.34 3 -0.32 3 -1 3 C-1.66 4.65 -2.32 6.3 -3 8 C-3.33 7.01 -3.66 6.02 -4 5 C-2.0625 2.3125 -2.0625 2.3125 0 0 Z " fill="#FFFFFF" transform="translate(14,24)"/>
<path d="M0 0 C0.66 0.33 1.32 0.66 2 1 C0.71034824 2.37562854 -0.62689293 3.70766393 -2 5 C-2.66 5 -3.32 5 -4 5 C-3 2 -3 2 0 0 Z " fill="#FFFFFF" transform="translate(273,175)"/>
<path d="M0 0 C0.99 0.33 1.98 0.66 3 1 C-1.75 5 -1.75 5 -4 5 C-4 4.34 -4 3.68 -4 3 C-2.1875 1.3125 -2.1875 1.3125 0 0 Z " fill="#FFFFFF" transform="translate(271,140)"/>
<path d="M0 0 C3.65316671 1.24976756 4.78065836 1.67098753 7 5 C2.25 3.125 2.25 3.125 0 2 C0 1.34 0 0.68 0 0 Z " fill="#FFFFFF" transform="translate(151,134)"/>
<path d="M0 0 C2.475 0.99 2.475 0.99 5 2 C5 2.66 5 3.32 5 4 C5.66 4.33 6.32 4.66 7 5 C4.11424181 4.60196439 3.17810487 4.20990931 1.25 1.9375 C0.8375 1.298125 0.425 0.65875 0 0 Z " fill="#FFFFFF" transform="translate(98,130)"/>
<path d="M0 0 C0.33 0.66 0.66 1.32 1 2 C0.34 2 -0.32 2 -1 2 C-1 2.66 -1 3.32 -1 4 C-2.65 4.33 -4.3 4.66 -6 5 C-2.25 1.125 -2.25 1.125 0 0 Z " fill="#FFFFFF" transform="translate(354,114)"/>
<path d="M0 0 C0 0.66 0 1.32 0 2 C-1.32 2.33 -2.64 2.66 -4 3 C-4 3.66 -4 4.32 -4 5 C-4.99 4.67 -5.98 4.34 -7 4 C-6.34 4 -5.68 4 -5 4 C-5 3.34 -5 2.68 -5 2 C-2 0 -2 0 0 0 Z " fill="#FFFFFF" transform="translate(362,109)"/>
<path d="M0 0 C0.99 0.33 1.98 0.66 3 1 C2.34 1 1.68 1 1 1 C1 1.66 1 2.32 1 3 C-0.65 3.66 -2.3 4.32 -4 5 C-2.68 3.35 -1.36 1.7 0 0 Z " fill="#FFFFFF" transform="translate(313,108)"/>
<path d="M0 0 C0.66 0 1.32 0 2 0 C1.25 1.9375 1.25 1.9375 0 4 C-2.125 4.75 -2.125 4.75 -4 5 C-3.34 4.01 -2.68 3.02 -2 2 C-1.34 2 -0.68 2 0 2 C0 1.34 0 0.68 0 0 Z " fill="#FFFFFF" transform="translate(390,86)"/>
<path d="M0 0 C2.97 1.98 2.97 1.98 6 4 C5.67 4.66 5.34 5.32 5 6 C3.02 4.68 1.04 3.36 -1 2 C-0.67 1.34 -0.34 0.68 0 0 Z " fill="#FFFFFF" transform="translate(59,63)"/>
<path d="M0 0 C0 0.66 0 1.32 0 2 C-0.99 2.66 -1.98 3.32 -3 4 C-3.99 3.67 -4.98 3.34 -6 3 C-2.25 0 -2.25 0 0 0 Z " fill="#FFFFFF" transform="translate(252,192)"/>
<path d="M0 0 C2.475 0.99 2.475 0.99 5 2 C5 2.99 5 3.98 5 5 C3.35 3.35 1.7 1.7 0 0 Z " fill="#FFFFFF" transform="translate(168,147)"/>
<path d="M0 0 C1.65 1.65 3.3 3.3 5 5 C2.525 4.01 2.525 4.01 0 3 C0 2.01 0 1.02 0 0 Z " fill="#FFFFFF" transform="translate(162,141)"/>
<path d="M0 0 C0.66 0 1.32 0 2 0 C2 0.66 2 1.32 2 2 C3.32 2.66 4.64 3.32 6 4 C3 4 3 4 0 2 C0 1.34 0 0.68 0 0 Z " fill="#FFFFFF" transform="translate(113,141)"/>
<path d="M0 0 C0.99 0.33 1.98 0.66 3 1 C1.02 2.32 -0.96 3.64 -3 5 C-2.67 4.01 -2.34 3.02 -2 2 C-1.34 2 -0.68 2 0 2 C0 1.34 0 0.68 0 0 Z " fill="#FFFFFF" transform="translate(366,104)"/>
<path d="M0 0 C0.66 0.33 1.32 0.66 2 1 C0.515 2.485 0.515 2.485 -1 4 C-1.99 3.67 -2.98 3.34 -4 3 C-2.68 2.01 -1.36 1.02 0 0 Z " fill="#FFFFFF" transform="translate(383,92)"/>
<path d="M0 0 C2.96175123 0.61277612 4.38058783 1.25372522 7 3 C6.67 3.66 6.34 4.32 6 5 C3.98079663 3.69593116 1.98075027 2.36176581 0 1 C0 0.67 0 0.34 0 0 Z " fill="#FFFFFF" transform="translate(385,35)"/>
<path d="M0 0 C4.875 1.75 4.875 1.75 6 4 C4.02 3.34 2.04 2.68 0 2 C0 1.34 0 0.68 0 0 Z " fill="#FFFFFF" transform="translate(42,274)"/>
<path d="M0 0 C0.66 0.33 1.32 0.66 2 1 C0.68 1.99 -0.64 2.98 -2 4 C-2.66 3.67 -3.32 3.34 -4 3 C-2.68 2.01 -1.36 1.02 0 0 Z " fill="#FFFFFF" transform="translate(390,273)"/>
<path d="M0 0 C0 0.66 0 1.32 0 2 C-1.65 2.66 -3.3 3.32 -5 4 C-5 3.34 -5 2.68 -5 2 C-2 0 -2 0 0 0 Z " fill="#FFFFFF" transform="translate(283,169)"/>
<path d="M0 0 C0.99 0.33 1.98 0.66 3 1 C0 3 0 3 -3 4 C-3 3.34 -3 2.68 -3 2 C-2.01 1.34 -1.02 0.68 0 0 Z " fill="#FFFFFF" transform="translate(149,169)"/>
<path d="M0 0 C2.97 1.98 2.97 1.98 6 4 C5.01 4.33 4.02 4.66 3 5 C1.5 3.625 1.5 3.625 0 2 C0 1.34 0 0.68 0 0 Z " fill="#FFFFFF" transform="translate(183,157)"/>
<path d="M0 0 C0.66 0.33 1.32 0.66 2 1 C0.68 2.32 -0.64 3.64 -2 5 C-2.66 4.67 -3.32 4.34 -4 4 C-2.68 3.34 -1.36 2.68 0 2 C0 1.34 0 0.68 0 0 Z " fill="#FFFFFF" transform="translate(255,152)"/>
<path d="M0 0 C2.4375 0.8125 2.4375 0.8125 5 2 C5.33 2.99 5.66 3.98 6 5 C5.34 5 4.68 5 4 5 C4 4.34 4 3.68 4 3 C2.68 2.34 1.36 1.68 0 1 C0 0.67 0 0.34 0 0 Z " fill="#FFFFFF" transform="translate(175,152)"/>
<path d="M0 0 C0 0.99 0 1.98 0 3 C-0.66 3.66 -1.32 4.32 -2 5 C-2.99 4.67 -3.98 4.34 -5 4 C-3.35 2.68 -1.7 1.36 0 0 Z " fill="#FFFFFF" transform="translate(321,102)"/>
<path d="M0 0 C0 0.66 0 1.32 0 2 C-1.65 2.66 -3.3 3.32 -5 4 C-5 3.34 -5 2.68 -5 2 C-2 0 -2 0 0 0 Z " fill="#FFFFFF" transform="translate(396,47)"/>
<path d="M0 0 C0 0.66 0 1.32 0 2 C-1.65 2.66 -3.3 3.32 -5 4 C-5 3.34 -5 2.68 -5 2 C-2 0 -2 0 0 0 Z " fill="#FFFFFF" transform="translate(34,8)"/>
<path d="M0 0 C0 0.66 0 1.32 0 2 C-1.65 2.66 -3.3 3.32 -5 4 C-5 3.34 -5 2.68 -5 2 C-2 0 -2 0 0 0 Z " fill="#FFFFFF" transform="translate(408,297)"/>
<path d="M0 0 C2.125 0.375 2.125 0.375 4 1 C4 1.33 4 1.66 4 2 C2.02 2 0.04 2 -2 2 C-1.34 1.34 -0.68 0.68 0 0 Z " fill="#FFFFFF" transform="translate(376,279)"/>
<path d="M0 0 C2.125 0.375 2.125 0.375 4 1 C4 1.33 4 1.66 4 2 C2.02 2 0.04 2 -2 2 C-1.34 1.34 -0.68 0.68 0 0 Z " fill="#FFFFFF" transform="translate(225,171)"/>
<path d="M0 0 C1.65 0.33 3.3 0.66 5 1 C5 1.33 5 1.66 5 2 C3.02 2 1.04 2 -1 2 C-0.67 1.34 -0.34 0.68 0 0 Z " fill="#FFFFFF" transform="translate(204,171)"/>
<path d="M0 0 C0.66 0 1.32 0 2 0 C2 0.66 2 1.32 2 2 C1.34 2 0.68 2 0 2 C0 2.66 0 3.32 0 4 C-0.66 4 -1.32 4 -2 4 C-1.34 2.68 -0.68 1.36 0 0 Z " fill="#FFFFFF" transform="translate(239,164)"/>
<path d="M0 0 C3.875 1.75 3.875 1.75 5 4 C2.525 3.01 2.525 3.01 0 2 C0 1.34 0 0.68 0 0 Z " fill="#FFFFFF" transform="translate(191,164)"/>
<path d="M0 0 C0.33 0.66 0.66 1.32 1 2 C0.34 2 -0.32 2 -1 2 C-1 2.66 -1 3.32 -1 4 C-1.99 3.67 -2.98 3.34 -4 3 C-2.68 2.01 -1.36 1.02 0 0 Z " fill="#FFFFFF" transform="translate(285,130)"/>
<path d="M0 0 C1.65 0.99 3.3 1.98 5 3 C4.01 3.33 3.02 3.66 2 4 C2 3.34 2 2.68 2 2 C1.34 2 0.68 2 0 2 C0 1.34 0 0.68 0 0 Z " fill="#FFFFFF" transform="translate(146,130)"/>
<path d="M0 0 C0.66 0.33 1.32 0.66 2 1 C0.515 2.485 0.515 2.485 -1 4 C-1.99 3.67 -2.98 3.34 -4 3 C-2.68 2.01 -1.36 1.02 0 0 Z " fill="#FFFFFF" transform="translate(299,119)"/>
<path d="M0 0 C1.65 0.99 3.3 1.98 5 3 C4.01 3.33 3.02 3.66 2 4 C2 3.34 2 2.68 2 2 C1.34 2 0.68 2 0 2 C0 1.34 0 0.68 0 0 Z " fill="#FFFFFF" transform="translate(125,114)"/>
<path d="M0 0 C1.32 0.33 2.64 0.66 4 1 C4 1.99 4 2.98 4 4 C3.34 3.67 2.68 3.34 2 3 C2 2.34 2 1.68 2 1 C1.34 0.67 0.68 0.34 0 0 Z " fill="#FFFFFF" transform="translate(63,104)"/>
<path d="M0 0 C0 0.99 0 1.98 0 3 C-0.66 3 -1.32 3 -2 3 C-2 3.66 -2 4.32 -2 5 C-2.66 4.67 -3.32 4.34 -4 4 C-2.68 2.68 -1.36 1.36 0 0 Z " fill="#FFFFFF" transform="translate(328,97)"/>
<path d="M0 0 C0.66 0 1.32 0 2 0 C2 0.66 2 1.32 2 2 C0.35 2.66 -1.3 3.32 -3 4 C-1.625 2 -1.625 2 0 0 Z " fill="#FFFFFF" transform="translate(333,93)"/>
<path d="M0 0 C3.875 1.75 3.875 1.75 5 4 C2.525 3.01 2.525 3.01 0 2 C0 1.34 0 0.68 0 0 Z " fill="#FFFFFF" transform="translate(88,86)"/>
<path d="M0 0 C0.33 0.66 0.66 1.32 1 2 C0.34 2 -0.32 2 -1 2 C-1.33 2.99 -1.66 3.98 -2 5 C-2.66 4.67 -3.32 4.34 -4 4 C-2.68 2.68 -1.36 1.36 0 0 Z " fill="#FFFFFF" transform="translate(40,39)"/>
<path d="M0 0 C1.65 0 3.3 0 5 0 C4.67 0.66 4.34 1.32 4 2 C2.68 2 1.36 2 0 2 C0 1.34 0 0.68 0 0 Z " fill="#FFFFFF" transform="translate(53,31)"/>
<path d="M0 0 C2.475 0.495 2.475 0.495 5 1 C5 1.33 5 1.66 5 2 C3.35 2 1.7 2 0 2 C0 1.34 0 0.68 0 0 Z " fill="#FFFFFF" transform="translate(379,1)"/>
<path d="M0 0 C1.32 0 2.64 0 4 0 C4 0.66 4 1.32 4 2 C2.35 2 0.7 2 -1 2 C-0.67 1.34 -0.34 0.68 0 0 Z " fill="#FFFFFF" transform="translate(49,1)"/>
<path d="M0 0 C0.99 0 1.98 0 3 0 C3 0.66 3 1.32 3 2 C3.66 2.33 4.32 2.66 5 3 C3.0625 2.625 3.0625 2.625 1 2 C0.67 1.34 0.34 0.68 0 0 Z " fill="#FFFFFF" transform="translate(24,297)"/>
<path d="M0 0 C0.33 0.66 0.66 1.32 1 2 C1.66 2 2.32 2 3 2 C2.67 2.99 2.34 3.98 2 5 C1.34 4.34 0.68 3.68 0 3 C0 2.01 0 1.02 0 0 Z " fill="#FFFFFF" transform="translate(12,283)"/>
<path d="M0 0 C1.32 0.66 2.64 1.32 4 2 C2.02 2 0.04 2 -2 2 C-1.34 1.34 -0.68 0.68 0 0 Z " fill="#FFFFFF" transform="translate(54,279)"/>
<path d="M0 0 C2.475 0.99 2.475 0.99 5 2 C4.01 2.33 3.02 2.66 2 3 C1.34 2.67 0.68 2.34 0 2 C0 1.34 0 0.68 0 0 Z " fill="#FFFFFF" transform="translate(152,171)"/>
<path d="M0 0 C0.66 0 1.32 0 2 0 C1.67 0.99 1.34 1.98 1 3 C0.01 3.33 -0.98 3.66 -2 4 C-2 3.34 -2 2.68 -2 2 C-1.34 2 -0.68 2 0 2 C0 1.34 0 0.68 0 0 Z " fill="#FFFFFF" transform="translate(248,157)"/>
<path d="M0 0 C0.66 0.33 1.32 0.66 2 1 C1.67 1.66 1.34 2.32 1 3 C0.01 3 -0.98 3 -2 3 C-2 2.34 -2 1.68 -2 1 C-1.34 0.67 -0.68 0.34 0 0 Z " fill="#FFFFFF" transform="translate(262,147)"/>
<path d="M0 0 C0.66 0.33 1.32 0.66 2 1 C-0.475 2.485 -0.475 2.485 -3 4 C-3 3.34 -3 2.68 -3 2 C-2.01 1.34 -1.02 0.68 0 0 Z " fill="#FFFFFF" transform="translate(318,141)"/>
<path d="M0 0 C0.66 0 1.32 0 2 0 C2 0.66 2 1.32 2 2 C0.02 2.99 0.02 2.99 -2 4 C-1.34 2.68 -0.68 1.36 0 0 Z " fill="#FFFFFF" transform="translate(323,137)"/>
<path d="M0 0 C0.99 0.33 1.98 0.66 3 1 C2.34 1.66 1.68 2.32 1 3 C0.01 2.67 -0.98 2.34 -2 2 C-1.34 2 -0.68 2 0 2 C0 1.34 0 0.68 0 0 Z " fill="#FFFFFF" transform="translate(329,132)"/>
<path d="M0 0 C0.99 0.33 1.98 0.66 3 1 C2.34 1 1.68 1 1 1 C1 1.66 1 2.32 1 3 C0.01 3.33 -0.98 3.66 -2 4 C-2 3.34 -2 2.68 -2 2 C-1.34 2 -0.68 2 0 2 C0 1.34 0 0.68 0 0 Z " fill="#FFFFFF" transform="translate(345,120)"/>
<path d="M0 0 C1.32 1.32 2.64 2.64 4 4 C1.525 3.01 1.525 3.01 -1 2 C-0.67 1.34 -0.34 0.68 0 0 Z " fill="#FFFFFF" transform="translate(78,114)"/>
<path d="M0 0 C1.98 0.99 1.98 0.99 4 2 C4 2.66 4 3.32 4 4 C2.68 3.34 1.36 2.68 0 2 C0 1.34 0 0.68 0 0 Z " fill="#FFFFFF" transform="translate(110,102)"/>
<path d="M0 0 C1.98 0.99 1.98 0.99 4 2 C4 2.66 4 3.32 4 4 C3.34 4 2.68 4 2 4 C2 3.34 2 2.68 2 2 C1.34 2 0.68 2 0 2 C0 1.34 0 0.68 0 0 Z " fill="#FFFFFF" transform="translate(35,82)"/>
<path d="M0 0 C2.475 0.99 2.475 0.99 5 2 C4.01 2.33 3.02 2.66 2 3 C1.34 2.01 0.68 1.02 0 0 Z " fill="#FFFFFF" transform="translate(74,76)"/>
<path d="M0 0 C0.33 0.66 0.66 1.32 1 2 C-0.65 2.66 -2.3 3.32 -4 4 C-2.68 2.68 -1.36 1.36 0 0 Z " fill="#FFFFFF" transform="translate(379,59)"/>
<path d="M0 0 C0.99 0.33 1.98 0.66 3 1 C2.34 1 1.68 1 1 1 C1 1.66 1 2.32 1 3 C0.01 2.67 -0.98 2.34 -2 2 C-1.34 1.34 -0.68 0.68 0 0 Z " fill="#FFFFFF" transform="translate(386,53)"/>
<path d="M0 0 C0.66 0 1.32 0 2 0 C2 0.66 2 1.32 2 2 C2.66 2 3.32 2 4 2 C3.67 2.99 3.34 3.98 3 5 C3 4.34 3 3.68 3 3 C2.34 3 1.68 3 1 3 C0.67 2.01 0.34 1.02 0 0 Z " fill="#FFFFFF" transform="translate(392,40)"/>
<path d="M0 0 C1.65 0 3.3 0 5 0 C5 0.66 5 1.32 5 2 C3.35 1.67 1.7 1.34 0 1 C0 0.67 0 0.34 0 0 Z " fill="#FFFFFF" transform="translate(374,31)"/>
<path d="M0 0 C1.98 0.99 1.98 0.99 4 2 C4 2.66 4 3.32 4 4 C3.34 4 2.68 4 2 4 C1.34 2.68 0.68 1.36 0 0 Z " fill="#FFFFFF" transform="translate(417,25)"/>
<path d="M0 0 C0.99 0.33 1.98 0.66 3 1 C2.34 1.66 1.68 2.32 1 3 C0.01 2.67 -0.98 2.34 -2 2 C-1.34 2 -0.68 2 0 2 C0 1.34 0 0.68 0 0 Z " fill="#FFFFFF" transform="translate(26,12)"/>
<path d="M0 0 C1.98 0.99 1.98 0.99 4 2 C3.67 2.66 3.34 3.32 3 4 C2.01 3.34 1.02 2.68 0 2 C0 1.34 0 0.68 0 0 Z " fill="#FFFFFF" transform="translate(29,300)"/>
<path d="M0 0 C0.66 0.33 1.32 0.66 2 1 C2 1.66 2 2.32 2 3 C1.01 3.33 0.02 3.66 -1 4 C-0.67 2.68 -0.34 1.36 0 0 Z " fill="#FFFFFF" transform="translate(419,283)"/>
<path d="M0 0 C0.99 0 1.98 0 3 0 C3 0.66 3 1.32 3 2 C1.68 1.67 0.36 1.34 -1 1 C-0.67 0.67 -0.34 0.34 0 0 Z " fill="#FFFFFF" transform="translate(229,201)"/>
<path d="M0 0 C1.9375 0.375 1.9375 0.375 4 1 C4.33 1.66 4.66 2.32 5 3 C2.525 2.01 2.525 2.01 0 1 C0 0.67 0 0.34 0 0 Z " fill="#FFFFFF" transform="translate(178,191)"/>
<path d="M0 0 C0.66 0 1.32 0 2 0 C2 0.66 2 1.32 2 2 C0.68 2.33 -0.64 2.66 -2 3 C-1.34 2.01 -0.68 1.02 0 0 Z " fill="#FFFFFF" transform="translate(257,187)"/>
<path d="M0 0 C0.99 0.33 1.98 0.66 3 1 C1.02 1.99 1.02 1.99 -1 3 C-0.67 2.01 -0.34 1.02 0 0 Z " fill="#FFFFFF" transform="translate(263,182)"/>
<path d="M0 0 C1.9375 0.375 1.9375 0.375 4 1 C4.33 1.66 4.66 2.32 5 3 C2.525 2.01 2.525 2.01 0 1 C0 0.67 0 0.34 0 0 Z " fill="#FFFFFF" transform="translate(84,120)"/>
<path d="M0 0 C1.32 0.33 2.64 0.66 4 1 C4 1.66 4 2.32 4 3 C2.68 2.34 1.36 1.68 0 1 C0 0.67 0 0.34 0 0 Z " fill="#FFFFFF" transform="translate(131,119)"/>
<path d="M0 0 C1.98 0.99 1.98 0.99 4 2 C3.67 2.66 3.34 3.32 3 4 C2.01 3.34 1.02 2.68 0 2 C0 1.34 0 0.68 0 0 Z " fill="#FFFFFF" transform="translate(103,97)"/>
<path d="M0 0 C2.475 0.99 2.475 0.99 5 2 C4.01 2.33 3.02 2.66 2 3 C1.34 2.01 0.68 1.02 0 0 Z " fill="#FFFFFF" transform="translate(81,81)"/>
<path d="M0 0 C0.66 0.33 1.32 0.66 2 1 C0.02 1.99 0.02 1.99 -2 3 C-2 2.34 -2 1.68 -2 1 C-1.34 0.67 -0.68 0.34 0 0 Z " fill="#FFFFFF" transform="translate(356,76)"/>
<path d="M0 0 C0.66 0.33 1.32 0.66 2 1 C1.67 1.66 1.34 2.32 1 3 C0.01 2.67 -0.98 2.34 -2 2 C-1.34 1.34 -0.68 0.68 0 0 Z " fill="#FFFFFF" transform="translate(365,69)"/>
<path d="M0 0 C0 0.99 0 1.98 0 3 C-0.99 3.33 -1.98 3.66 -3 4 C-3 3.34 -3 2.68 -3 2 C-2.01 1.34 -1.02 0.68 0 0 Z " fill="#FFFFFF" transform="translate(373,63)"/>
<path d="M0 0 C0.33 1.32 0.66 2.64 1 4 C0.34 4 -0.32 4 -1 4 C-0.67 2.68 -0.34 1.36 0 0 Z " fill="#FFFFFF" transform="translate(7,34)"/>
<path d="M0 0 C0.33 1.32 0.66 2.64 1 4 C0.34 3.67 -0.32 3.34 -1 3 C-0.67 2.01 -0.34 1.02 0 0 Z " fill="#FFFFFF" transform="translate(7,274)"/>
<path d="M0 0 C0.66 0 1.32 0 2 0 C1.34 1.32 0.68 2.64 0 4 C0 2.68 0 1.36 0 0 Z " fill="#FFFFFF" transform="translate(426,271)"/>
<path d="M0 0 C0.99 0.495 0.99 0.495 2 1 C1.67 1.99 1.34 2.98 1 4 C0.67 2.68 0.34 1.36 0 0 Z " fill="#FFFFFF" transform="translate(428,267)"/>
<path d="M0 0 C0.99 0.495 0.99 0.495 2 1 C1.67 1.99 1.34 2.98 1 4 C0.67 2.68 0.34 1.36 0 0 Z " fill="#FFFFFF" transform="translate(1,261)"/>
<path d="M0 0 C0.99 0 1.98 0 3 0 C3 0.66 3 1.32 3 2 C2.01 2 1.02 2 0 2 C0 1.34 0 0.68 0 0 Z " fill="#FFFFFF" transform="translate(201,201)"/>
<path d="M0 0 C1.65 0 3.3 0 5 0 C3.02 0.99 3.02 0.99 1 2 C0.67 1.34 0.34 0.68 0 0 Z " fill="#FFFFFF" transform="translate(233,200)"/>
<path d="M0 0 C1.98 0 3.96 0 6 0 C6 0.33 6 0.66 6 1 C4.02 1 2.04 1 0 1 C0 0.67 0 0.34 0 0 Z " fill="#FFFFFF" transform="translate(213,173)"/>
<path d="M0 0 C0.66 0.33 1.32 0.66 2 1 C0.02 1.99 0.02 1.99 -2 3 C-1.34 2.01 -0.68 1.02 0 0 Z " fill="#FFFFFF" transform="translate(307,113)"/>
<path d="M0 0 C0.66 1.32 1.32 2.64 2 4 C1.34 4 0.68 4 0 4 C0 2.68 0 1.36 0 0 Z " fill="#FFFFFF" transform="translate(428,41)"/>
<path d="M0 0 C1.32 0.33 2.64 0.66 4 1 C2.68 1 1.36 1 0 1 C0 0.67 0 0.34 0 0 Z " fill="#FFFFFF" transform="translate(381,33)"/>
<path d="M0 0 C1.65 0 3.3 0 5 0 C5 0.33 5 0.66 5 1 C3.35 1 1.7 1 0 1 C0 0.67 0 0.34 0 0 Z " fill="#FFFFFF" transform="translate(42,308)"/>
<path d="M0 0 C0.99 0.33 1.98 0.66 3 1 C2.01 1.33 1.02 1.66 0 2 C0 1.34 0 0.68 0 0 Z " fill="#FFFFFF" transform="translate(395,304)"/>
<path d="M0 0 C0.33 0.99 0.66 1.98 1 3 C0.01 2.67 -0.98 2.34 -2 2 C-1.34 2 -0.68 2 0 2 C0 1.34 0 0.68 0 0 Z " fill="#FFFFFF" transform="translate(414,290)"/>
<path d="M0 0 C0.33 0.66 0.66 1.32 1 2 C0.34 2.66 -0.32 3.32 -1 4 C-0.67 2.68 -0.34 1.36 0 0 Z " fill="#FFFFFF" transform="translate(424,277)"/>
<path d="M0 0 C0.33 0 0.66 0 1 0 C1 1.65 1 3.3 1 5 C0.67 5 0.34 5 0 5 C0 3.35 0 1.7 0 0 Z " fill="#FFFFFF" transform="translate(430,261)"/>
<path d="M0 0 C1.32 0.33 2.64 0.66 4 1 C3.01 1.495 3.01 1.495 2 2 C1.34 1.34 0.68 0.68 0 0 Z " fill="#FFFFFF" transform="translate(186,196)"/>
<path d="M0 0 C0.99 0.33 1.98 0.66 3 1 C2.67 1.66 2.34 2.32 2 3 C1.34 2.67 0.68 2.34 0 2 C0 1.34 0 0.68 0 0 Z " fill="#FFFFFF" transform="translate(159,176)"/>
<path d="M0 0 C0.33 0.99 0.66 1.98 1 3 C0.34 3 -0.32 3 -1 3 C-0.67 2.01 -0.34 1.02 0 0 Z " fill="#FFFFFF" transform="translate(108,166)"/>
<path d="M0 0 C0.99 0.33 1.98 0.66 3 1 C2.01 1.33 1.02 1.66 0 2 C0 1.34 0 0.68 0 0 Z " fill="#FFFFFF" transform="translate(308,148)"/>
<path d="M0 0 C0.99 0.33 1.98 0.66 3 1 C2.67 1.66 2.34 2.32 2 3 C1.34 2.01 0.68 1.02 0 0 Z " fill="#FFFFFF" transform="translate(108,138)"/>
<path d="M0 0 C0.66 0 1.32 0 2 0 C2 0.66 2 1.32 2 2 C1.01 1.67 0.02 1.34 -1 1 C-0.67 0.67 -0.34 0.34 0 0 Z " fill="#FFFFFF" transform="translate(303,116)"/>
<path d="M0 0 C0.99 0 1.98 0 3 0 C3 0.66 3 1.32 3 2 C2.01 1.67 1.02 1.34 0 1 C0 0.67 0 0.34 0 0 Z " fill="#FFFFFF" transform="translate(42,88)"/>
<path d="M0 0 C0.66 0.33 1.32 0.66 2 1 C1.01 1.66 0.02 2.32 -1 3 C-0.67 2.01 -0.34 1.02 0 0 Z " fill="#FFFFFF" transform="translate(395,83)"/>
<path d="M0 0 C0.99 0.99 1.98 1.98 3 3 C2.01 2.67 1.02 2.34 0 2 C0 1.34 0 0.68 0 0 Z " fill="#FFFFFF" transform="translate(52,58)"/>
<path d="M0 0 C0.66 0 1.32 0 2 0 C1.67 0.99 1.34 1.98 1 3 C0.67 2.01 0.34 1.02 0 0 Z " fill="#FFFFFF" transform="translate(1,48)"/>
<path d="M0 0 C0.33 0 0.66 0 1 0 C1 1.65 1 3.3 1 5 C0.67 5 0.34 5 0 5 C0 3.35 0 1.7 0 0 Z " fill="#FFFFFF" transform="translate(430,46)"/>
<path d="M0 0 C0.33 0.99 0.66 1.98 1 3 C0.34 3 -0.32 3 -1 3 C-0.67 2.01 -0.34 1.02 0 0 Z " fill="#FFFFFF" transform="translate(397,44)"/>
<path d="M0 0 C0.99 0.495 0.99 0.495 2 1 C2 1.66 2 2.32 2 3 C1.34 3 0.68 3 0 3 C0 2.01 0 1.02 0 0 Z " fill="#FFFFFF" transform="translate(426,38)"/>
<path d="M0 0 C0.99 0.495 0.99 0.495 2 1 C1.67 1.99 1.34 2.98 1 4 C0.67 2.68 0.34 1.36 0 0 Z " fill="#FFFFFF" transform="translate(424,34)"/>
<path d="M0 0 C0.99 0.33 1.98 0.66 3 1 C2.01 1.33 1.02 1.66 0 2 C0 1.34 0 0.68 0 0 Z " fill="#FFFFFF" transform="translate(43,3)"/>
<path d="M0 0 C4 1 4 1 4 1 Z " fill="#FFFFFF" transform="translate(379,310)"/>
<path d="M0 0 C4 1 4 1 4 1 Z " fill="#FFFFFF" transform="translate(49,310)"/>
<path d="M0 0 C4 1 4 1 4 1 Z " fill="#FFFFFF" transform="translate(386,308)"/>
<path d="M0 0 C0.99 0.33 1.98 0.66 3 1 C2.01 1 1.02 1 0 1 C0 0.67 0 0.34 0 0 Z " fill="#FFFFFF" transform="translate(391,306)"/>
<path d="M0 0 C4 1 4 1 4 1 Z " fill="#FFFFFF" transform="translate(38,306)"/>
<path d="M0 0 C0.66 0 1.32 0 2 0 C2 0.66 2 1.32 2 2 C1.34 2 0.68 2 0 2 C0 1.34 0 0.68 0 0 Z " fill="#FFFFFF" transform="translate(35,304)"/>
<path d="M0 0 C1 4 1 4 1 4 Z " fill="#FFFFFF" transform="translate(421,280)"/>
<path d="M0 0 C1 4 1 4 1 4 Z " fill="#FFFFFF" transform="translate(10,280)"/>
<path d="M0 0 C4 1 4 1 4 1 Z " fill="#FFFFFF" transform="translate(381,278)"/>
<path d="M0 0 C4 1 4 1 4 1 Z " fill="#FFFFFF" transform="translate(48,278)"/>
<path d="M0 0 C0.66 0 1.32 0 2 0 C2 0.66 2 1.32 2 2 C1.34 2 0.68 2 0 2 C0 1.34 0 0.68 0 0 Z " fill="#FFFFFF" transform="translate(8,278)"/>
<path d="M0 0 C1 4 1 4 1 4 Z " fill="#FFFFFF" transform="translate(5,271)"/>
<path d="M0 0 C1 4 1 4 1 4 Z " fill="#FFFFFF" transform="translate(3,267)"/>
<path d="M0 0 C0.66 0 1.32 0 2 0 C2 0.66 2 1.32 2 2 C1.34 2 0.68 2 0 2 C0 1.34 0 0.68 0 0 Z " fill="#FFFFFF" transform="translate(43,263)"/>
<path d="M0 0 C0.66 0 1.32 0 2 0 C2 0.66 2 1.32 2 2 C1.34 2 0.68 2 0 2 C0 1.34 0 0.68 0 0 Z " fill="#FFFFFF" transform="translate(385,261)"/>
<path d="M0 0 C1.485 0.99 1.485 0.99 3 2 C2.01 2 1.02 2 0 2 C0 1.34 0 0.68 0 0 Z " fill="#FFFFFF" transform="translate(349,229)"/>
<path d="M0 0 C0.66 0 1.32 0 2 0 C2 0.66 2 1.32 2 2 C1.34 2 0.68 2 0 2 C0 1.34 0 0.68 0 0 Z " fill="#FFFFFF" transform="translate(49,219)"/>
<path d="M0 0 C0.66 0 1.32 0 2 0 C2 0.66 2 1.32 2 2 C1.34 2 0.68 2 0 2 C0 1.34 0 0.68 0 0 Z " fill="#FFFFFF" transform="translate(320,203)"/>
<path d="M0 0 C4 1 4 1 4 1 Z " fill="#FFFFFF" transform="translate(194,200)"/>
<path d="M0 0 C4 1 4 1 4 1 Z " fill="#FFFFFF" transform="translate(239,198)"/>
<path d="M0 0 C0.99 0.33 1.98 0.66 3 1 C2.01 1.33 1.02 1.66 0 2 C0 1.34 0 0.68 0 0 Z " fill="#FFFFFF" transform="translate(243,196)"/>
<path d="M0 0 C0.99 0.33 1.98 0.66 3 1 C2.01 1 1.02 1 0 1 C0 0.67 0 0.34 0 0 Z " fill="#FFFFFF" transform="translate(183,194)"/>
<path d="M0 0 C0.66 0 1.32 0 2 0 C2 0.66 2 1.32 2 2 C1.34 2 0.68 2 0 2 C0 1.34 0 0.68 0 0 Z " fill="#FFFFFF" transform="translate(266,180)"/>
<path d="M0 0 C0.66 0 1.32 0 2 0 C2 0.66 2 1.32 2 2 C1.34 2 0.68 2 0 2 C0 1.34 0 0.68 0 0 Z " fill="#FFFFFF" transform="translate(98,175)"/>
<path d="M0 0 C4 1 4 1 4 1 Z " fill="#FFFFFF" transform="translate(199,170)"/>
<path d="M0 0 C0.66 0.33 1.32 0.66 2 1 C1.01 1 0.02 1 -1 1 C-0.67 0.67 -0.34 0.34 0 0 Z " fill="#FFFFFF" transform="translate(234,168)"/>
<path d="M0 0 C0.99 0 1.98 0 3 0 C2.67 0.66 2.34 1.32 2 2 C1.34 1.34 0.68 0.68 0 0 Z " fill="#FFFFFF" transform="translate(196,168)"/>
<path d="M0 0 C0.33 0.66 0.66 1.32 1 2 C0.01 1.67 -0.98 1.34 -2 1 C-1.34 0.67 -0.68 0.34 0 0 Z " fill="#FFFFFF" transform="translate(378,96)"/>
<path d="M0 0 C0.66 0 1.32 0 2 0 C2 0.66 2 1.32 2 2 C1.34 2 0.68 2 0 2 C0 1.34 0 0.68 0 0 Z " fill="#FFFFFF" transform="translate(361,72)"/>
<path d="M0 0 C0.66 0 1.32 0 2 0 C2 0.66 2 1.32 2 2 C1.34 2 0.68 2 0 2 C0 1.34 0 0.68 0 0 Z " fill="#FFFFFF" transform="translate(55,61)"/>
<path d="M0 0 C1 4 1 4 1 4 Z " fill="#FFFFFF" transform="translate(0,55)"/>
<path d="M0 0 C1 4 1 4 1 4 Z " fill="#FFFFFF" transform="translate(3,41)"/>
<path d="M0 0 C0.66 0 1.32 0 2 0 C2 0.66 2 1.32 2 2 C1.34 2 0.68 2 0 2 C0 1.34 0 0.68 0 0 Z " fill="#FFFFFF" transform="translate(8,32)"/>
<path d="M0 0 C4 1 4 1 4 1 Z " fill="#FFFFFF" transform="translate(394,7)"/>
<path d="M0 0 C0.99 0 1.98 0 3 0 C2.67 0.66 2.34 1.32 2 2 C1.34 1.34 0.68 0.68 0 0 Z " fill="#FFFFFF" transform="translate(391,5)"/>
<path d="M0 0 C4 1 4 1 4 1 Z " fill="#FFFFFF" transform="translate(38,5)"/>
<path d="M0 0 C0.99 0 1.98 0 3 0 C2.67 0.66 2.34 1.32 2 2 C1.34 1.34 0.68 0.68 0 0 Z " fill="#FFFFFF" transform="translate(386,3)"/>
<path d="M0 0 C0.99 0.495 0.99 0.495 2 1 C1.01 1.495 1.01 1.495 0 2 C0 1.34 0 0.68 0 0 Z " fill="#FFFFFF" transform="translate(399,302)"/>
<path d="M0 0 C0.99 0.495 0.99 0.495 2 1 C1.01 1.495 1.01 1.495 0 2 C0 1.34 0 0.68 0 0 Z " fill="#FFFFFF" transform="translate(408,295)"/>
<path d="M0 0 C0.66 0 1.32 0 2 0 C1.67 0.66 1.34 1.32 1 2 C0.67 1.34 0.34 0.68 0 0 Z " fill="#FFFFFF" transform="translate(22,295)"/>
<path d="M0 0 C0.66 0.66 1.32 1.32 2 2 C1.34 2 0.68 2 0 2 C0 1.34 0 0.68 0 0 Z " fill="#FFFFFF" transform="translate(18,291)"/>
<path d="" fill="#FFFFFF" transform="translate(0,0)"/>
<path d="" fill="#FFFFFF" transform="translate(0,0)"/>
<path d="M0 0 C0.99 0.495 0.99 0.495 2 1 C1.01 1.495 1.01 1.495 0 2 C0 1.34 0 0.68 0 0 Z " fill="#FFFFFF" transform="translate(61,247)"/>
<path d="M0 0 C0.33 0.66 0.66 1.32 1 2 C0.34 1.67 -0.32 1.34 -1 1 C-0.67 0.67 -0.34 0.34 0 0 Z " fill="#FFFFFF" transform="translate(66,243)"/>
<path d="M0 0 C0.99 0.495 0.99 0.495 2 1 C1.01 1.495 1.01 1.495 0 2 C0 1.34 0 0.68 0 0 Z " fill="#FFFFFF" transform="translate(77,233)"/>
<path d="M0 0 C0.33 0.66 0.66 1.32 1 2 C0.34 1.67 -0.32 1.34 -1 1 C-0.67 0.67 -0.34 0.34 0 0 Z " fill="#FFFFFF" transform="translate(82,229)"/>
<path d="M0 0 C0.66 0 1.32 0 2 0 C1.67 0.66 1.34 1.32 1 2 C0.67 1.34 0.34 0.68 0 0 Z " fill="#FFFFFF" transform="translate(386,223)"/>
<path d="M0 0 C0.66 0.66 1.32 1.32 2 2 C1.34 2 0.68 2 0 2 C0 1.34 0 0.68 0 0 Z " fill="#FFFFFF" transform="translate(382,219)"/>
<path d="M0 0 C0.66 0 1.32 0 2 0 C1.67 0.66 1.34 1.32 1 2 C0.67 1.34 0.34 0.68 0 0 Z " fill="#FFFFFF" transform="translate(370,209)"/>
<path d="M0 0 C0.66 0.66 1.32 1.32 2 2 C1.34 2 0.68 2 0 2 C0 1.34 0 0.68 0 0 Z " fill="#FFFFFF" transform="translate(366,205)"/>
<path d="M0 0 C3 1 3 1 3 1 Z " fill="#FFFFFF" transform="translate(190,198)"/>
<path d="M0 0 C0.66 0 1.32 0 2 0 C1.67 0.66 1.34 1.32 1 2 C0.67 1.34 0.34 0.68 0 0 Z " fill="#FFFFFF" transform="translate(354,195)"/>
<path d="M0 0 C0.66 0 1.32 0 2 0 C1.67 0.66 1.34 1.32 1 2 C0.67 1.34 0.34 0.68 0 0 Z " fill="#FFFFFF" transform="translate(352,193)"/>
<path d="M0 0 C0.99 0.495 0.99 0.495 2 1 C1.01 1.495 1.01 1.495 0 2 C0 1.34 0 0.68 0 0 Z " fill="#FFFFFF" transform="translate(78,193)"/>
<path d="M0 0 C0.66 0 1.32 0 2 0 C1.67 0.66 1.34 1.32 1 2 C0.67 1.34 0.34 0.68 0 0 Z " fill="#FFFFFF" transform="translate(350,191)"/>
<path d="M0 0 C0.33 0.66 0.66 1.32 1 2 C0.34 1.67 -0.32 1.34 -1 1 C-0.67 0.67 -0.34 0.34 0 0 Z " fill="#FFFFFF" transform="translate(83,189)"/>
<path d="M0 0 C0.66 0 1.32 0 2 0 C1.67 0.66 1.34 1.32 1 2 C0.67 1.34 0.34 0.68 0 0 Z " fill="#FFFFFF" transform="translate(302,187)"/>
<path d="M0 0 C0.33 0.66 0.66 1.32 1 2 C0.34 1.67 -0.32 1.34 -1 1 C-0.67 0.67 -0.34 0.34 0 0 Z " fill="#FFFFFF" transform="translate(260,185)"/>
<path d="M0 0 C0.99 0.495 0.99 0.495 2 1 C1.01 1.495 1.01 1.495 0 2 C0 1.34 0 0.68 0 0 Z " fill="#FFFFFF" transform="translate(94,179)"/>
<path d="M0 0 C0.99 0.495 0.99 0.495 2 1 C1.01 1.495 1.01 1.495 0 2 C0 1.34 0 0.68 0 0 Z " fill="#FFFFFF" transform="translate(332,175)"/>
<path d="M0 0 C0.66 0.66 1.32 1.32 2 2 C1.34 2 0.68 2 0 2 C0 1.34 0 0.68 0 0 Z " fill="#FFFFFF" transform="translate(288,174)"/>
<path d="M0 0 C0.66 0 1.32 0 2 0 C1.67 0.66 1.34 1.32 1 2 C0.67 1.34 0.34 0.68 0 0 Z " fill="#FFFFFF" transform="translate(284,171)"/>
<path d="M0 0 C3 1 3 1 3 1 Z " fill="#FFFFFF" transform="translate(230,170)"/>
<path d="M0 0 C0.99 0.495 0.99 0.495 2 1 C1.01 1.495 1.01 1.495 0 2 C0 1.34 0 0.68 0 0 Z " fill="#FFFFFF" transform="translate(110,165)"/>
<path d="M0 0 C0.66 0 1.32 0 2 0 C1.67 0.66 1.34 1.32 1 2 C0.67 1.34 0.34 0.68 0 0 Z " fill="#FFFFFF" transform="translate(316,161)"/>
<path d="M0 0 C0.99 0.495 0.99 0.495 2 1 C1.01 1.495 1.01 1.495 0 2 C0 1.34 0 0.68 0 0 Z " fill="#FFFFFF" transform="translate(311,146)"/>
<path d="M0 0 C0.66 0 1.32 0 2 0 C1.67 0.66 1.34 1.32 1 2 C0.67 1.34 0.34 0.68 0 0 Z " fill="#FFFFFF" transform="translate(159,140)"/>
<path d="M0 0 C0.66 0 1.32 0 2 0 C1.67 0.66 1.34 1.32 1 2 C0.67 1.34 0.34 0.68 0 0 Z " fill="#FFFFFF" transform="translate(106,136)"/>
<path d="M0 0 C0.66 0 1.32 0 2 0 C1.67 0.66 1.34 1.32 1 2 C0.67 1.34 0.34 0.68 0 0 Z " fill="#FFFFFF" transform="translate(40,86)"/>
<path d="M0 0 C0.99 0.495 0.99 0.495 2 1 C1.01 1.495 1.01 1.495 0 2 C0 1.34 0 0.68 0 0 Z " fill="#FFFFFF" transform="translate(397,81)"/>
<path d="M0 0 C0.66 0.66 1.32 1.32 2 2 C1.34 2 0.68 2 0 2 C0 1.34 0 0.68 0 0 Z " fill="#FFFFFF" transform="translate(79,79)"/>
<path d="M0 0 C0.33 0.66 0.66 1.32 1 2 C0.34 1.67 -0.32 1.34 -1 1 C-0.67 0.67 -0.34 0.34 0 0 Z " fill="#FFFFFF" transform="translate(352,79)"/>
<path d="M0 0 C0.99 0.495 0.99 0.495 2 1 C1.01 1.495 1.01 1.495 0 2 C0 1.34 0 0.68 0 0 Z " fill="#FFFFFF" transform="translate(358,74)"/>
<path d="M0 0 C0.33 0.66 0.66 1.32 1 2 C0.34 1.67 -0.32 1.34 -1 1 C-0.67 0.67 -0.34 0.34 0 0 Z " fill="#FFFFFF" transform="translate(383,56)"/>
<path d="" fill="#FFFFFF" transform="translate(0,0)"/>
<path d="" fill="#FFFFFF" transform="translate(0,0)"/>
<path d="M0 0 C0.66 0 1.32 0 2 0 C1.67 0.66 1.34 1.32 1 2 C0.67 1.34 0.34 0.68 0 0 Z " fill="#FFFFFF" transform="translate(413,20)"/>
<path d="M0 0 C0.66 0 1.32 0 2 0 C1.67 0.66 1.34 1.32 1 2 C0.67 1.34 0.34 0.68 0 0 Z " fill="#FFFFFF" transform="translate(411,18)"/>
<path d="M0 0 C3 1 3 1 3 1 Z " fill="#FFFFFF" transform="translate(35,7)"/>
<path d="M0 0 C2 1 2 1 2 1 Z " fill="#FFFFFF" transform="translate(367,311)"/>
<path d="M0 0 C2 1 2 1 2 1 Z " fill="#FFFFFF" transform="translate(401,301)"/>
<path d="M0 0 C2 1 2 1 2 1 Z " fill="#FFFFFF" transform="translate(410,294)"/>
<path d="M0 0 C2 1 2 1 2 1 Z " fill="#FFFFFF" transform="translate(15,288)"/>
<path d="" fill="#FFFFFF" transform="translate(0,0)"/>
<path d="M0 0 C2 1 2 1 2 1 Z " fill="#FFFFFF" transform="translate(45,262)"/>
<path d="M0 0 C2 1 2 1 2 1 Z " fill="#FFFFFF" transform="translate(49,258)"/>
<path d="M0 0 C2 1 2 1 2 1 Z " fill="#FFFFFF" transform="translate(33,234)"/>
<path d="" fill="#FFFFFF" transform="translate(0,0)"/>
<path d="" fill="#FFFFFF" transform="translate(0,0)"/>
<path d="" fill="#FFFFFF" transform="translate(0,0)"/>
<path d="M0 0 C2 1 2 1 2 1 Z " fill="#FFFFFF" transform="translate(316,200)"/>
<path d="M0 0 C2 1 2 1 2 1 Z " fill="#FFFFFF" transform="translate(252,191)"/>
<path d="M0 0 C2 1 2 1 2 1 Z " fill="#FFFFFF" transform="translate(336,179)"/>
<path d="M0 0 C2 1 2 1 2 1 Z " fill="#FFFFFF" transform="translate(334,177)"/>
<path d="M0 0 C2 1 2 1 2 1 Z " fill="#FFFFFF" transform="translate(157,175)"/>
<path d="M0 0 C2 1 2 1 2 1 Z " fill="#FFFFFF" transform="translate(286,173)"/>
<path d="M0 0 C2 1 2 1 2 1 Z " fill="#FFFFFF" transform="translate(276,173)"/>
<path d="M0 0 C2 1 2 1 2 1 Z " fill="#FFFFFF" transform="translate(144,173)"/>
<path d="M0 0 C2 1 2 1 2 1 Z " fill="#FFFFFF" transform="translate(320,165)"/>
<path d="M0 0 C2 1 2 1 2 1 Z " fill="#FFFFFF" transform="translate(318,163)"/>
<path d="M0 0 C2 1 2 1 2 1 Z " fill="#FFFFFF" transform="translate(241,163)"/>
<path d="M0 0 C2 1 2 1 2 1 Z " fill="#FFFFFF" transform="translate(189,163)"/>
<path d="M0 0 C2 1 2 1 2 1 Z " fill="#FFFFFF" transform="translate(244,161)"/>
<path d="M0 0 C2 1 2 1 2 1 Z " fill="#FFFFFF" transform="translate(114,161)"/>
<path d="M0 0 C2 1 2 1 2 1 Z " fill="#FFFFFF" transform="translate(313,145)"/>
<path d="M0 0 C2 1 2 1 2 1 Z " fill="#FFFFFF" transform="translate(265,145)"/>
<path d="M0 0 C2 1 2 1 2 1 Z " fill="#FFFFFF" transform="translate(325,136)"/>
<path d="M0 0 C2 1 2 1 2 1 Z " fill="#FFFFFF" transform="translate(286,129)"/>
<path d="M0 0 C2 1 2 1 2 1 Z " fill="#FFFFFF" transform="translate(144,129)"/>
<path d="M0 0 C2 1 2 1 2 1 Z " fill="#FFFFFF" transform="translate(135,122)"/>
<path d="M0 0 C2 1 2 1 2 1 Z " fill="#FFFFFF" transform="translate(82,118)"/>
<path d="M0 0 C2 1 2 1 2 1 Z " fill="#FFFFFF" transform="translate(123,113)"/>
<path d="M0 0 C2 1 2 1 2 1 Z " fill="#FFFFFF" transform="translate(114,106)"/>
<path d="M0 0 C2 1 2 1 2 1 Z " fill="#FFFFFF" transform="translate(107,101)"/>
<path d="M0 0 C2 1 2 1 2 1 Z " fill="#FFFFFF" transform="translate(335,92)"/>
<path d="M0 0 C2 1 2 1 2 1 Z " fill="#FFFFFF" transform="translate(93,90)"/>
<path d="M0 0 C2 1 2 1 2 1 Z " fill="#FFFFFF" transform="translate(86,85)"/>
<path d="M0 0 C2 1 2 1 2 1 Z " fill="#FFFFFF" transform="translate(33,81)"/>
<path d="M0 0 C2 1 2 1 2 1 Z " fill="#FFFFFF" transform="translate(72,74)"/>
<path d="M0 0 C2 1 2 1 2 1 Z " fill="#FFFFFF" transform="translate(368,67)"/>
<path d="" fill="#FFFFFF" transform="translate(0,0)"/>
<path d="M0 0 C2 1 2 1 2 1 Z " fill="#FFFFFF" transform="translate(389,51)"/>
<path d="M0 0 C2 1 2 1 2 1 Z " fill="#FFFFFF" transform="translate(41,51)"/>
<path d="" fill="#FFFFFF" transform="translate(0,0)"/>
<path d="M0 0 C2 1 2 1 2 1 Z " fill="#FFFFFF" transform="translate(15,23)"/>
<path d="M0 0 C2 1 2 1 2 1 Z " fill="#FFFFFF" transform="translate(408,16)"/>
<path d="M0 0 C2 1 2 1 2 1 Z " fill="#FFFFFF" transform="translate(22,16)"/>
<path d="M0 0 C2 1 2 1 2 1 Z " fill="#FFFFFF" transform="translate(367,0)"/>
<path d="" fill="#FFFFFF" transform="translate(0,0)"/>
<path d="" fill="#FFFFFF" transform="translate(0,0)"/>
<path d="" fill="#FFFFFF" transform="translate(0,0)"/>
<path d="" fill="#FFFFFF" transform="translate(0,0)"/>
<path d="" fill="#FFFFFF" transform="translate(0,0)"/>
<path d="" fill="#FFFFFF" transform="translate(0,0)"/>
<path d="" fill="#FFFFFF" transform="translate(0,0)"/>
<path d="" fill="#FFFFFF" transform="translate(0,0)"/>
<path d="" fill="#FFFFFF" transform="translate(0,0)"/>
<path d="" fill="#FFFFFF" transform="translate(0,0)"/>
<path d="" fill="#FFFFFF" transform="translate(0,0)"/>
<path d="" fill="#FFFFFF" transform="translate(0,0)"/>
<path d="" fill="#FFFFFF" transform="translate(0,0)"/>
<path d="" fill="#FFFFFF" transform="translate(0,0)"/>
<path d="" fill="#FFFFFF" transform="translate(0,0)"/>
<path d="" fill="#FFFFFF" transform="translate(0,0)"/>
<path d="" fill="#FFFFFF" transform="translate(0,0)"/>
<path d="" fill="#FFFFFF" transform="translate(0,0)"/>
<path d="" fill="#FFFFFF" transform="translate(0,0)"/>
<path d="" fill="#FFFFFF" transform="translate(0,0)"/>
<path d="" fill="#FFFFFF" transform="translate(0,0)"/>
<path d="" fill="#FFFFFF" transform="translate(0,0)"/>
<path d="" fill="#FFFFFF" transform="translate(0,0)"/>
<path d="" fill="#FFFFFF" transform="translate(0,0)"/>
<path d="" fill="#FFFFFF" transform="translate(0,0)"/>
<path d="" fill="#FFFFFF" transform="translate(0,0)"/>
<path d="" fill="#FFFFFF" transform="translate(0,0)"/>
<path d="" fill="#FFFFFF" transform="translate(0,0)"/>
<path d="" fill="#FFFFFF" transform="translate(0,0)"/>
<path d="" fill="#FFFFFF" transform="translate(0,0)"/>
<path d="" fill="#FFFFFF" transform="translate(0,0)"/>
<path d="" fill="#FFFFFF" transform="translate(0,0)"/>
</svg>
