<svg xmlns="http://www.w3.org/2000/svg" xmlns:xlink="http://www.w3.org/1999/xlink" width="500" zoomAndPan="magnify" viewBox="0 0 375 64.499998" height="86" preserveAspectRatio="xMidYMid meet" version="1.0"><defs><clipPath id="id1"><path d="M 1.441406 24 L 36 24 L 36 32 L 1.441406 32 Z M 1.441406 24 " clip-rule="nonzero"/></clipPath><clipPath id="id2"><path d="M 1.441406 24 L 36 24 L 36 40 L 1.441406 40 Z M 1.441406 24 " clip-rule="nonzero"/></clipPath><clipPath id="id3"><path d="M 14 32 L 36 32 L 36 64.003906 L 14 64.003906 Z M 14 32 " clip-rule="nonzero"/></clipPath><clipPath id="id4"><path d="M 35 32 L 57 32 L 57 64.003906 L 35 64.003906 Z M 35 32 " clip-rule="nonzero"/></clipPath><clipPath id="id5"><path d="M 90 32 L 112 32 L 112 64.003906 L 90 64.003906 Z M 90 32 " clip-rule="nonzero"/></clipPath><clipPath id="id6"><path d="M 111 32 L 133 32 L 133 64.003906 L 111 64.003906 Z M 111 32 " clip-rule="nonzero"/></clipPath><clipPath id="id7"><path d="M 166 32 L 188 32 L 188 64.003906 L 166 64.003906 Z M 166 32 " clip-rule="nonzero"/></clipPath><clipPath id="id8"><path d="M 187 32 L 209 32 L 209 64.003906 L 187 64.003906 Z M 187 32 " clip-rule="nonzero"/></clipPath><clipPath id="id9"><path d="M 242 32 L 264 32 L 264 64.003906 L 242 64.003906 Z M 242 32 " clip-rule="nonzero"/></clipPath><clipPath id="id10"><path d="M 263 32 L 285 32 L 285 64.003906 L 263 64.003906 Z M 263 32 " clip-rule="nonzero"/></clipPath><clipPath id="id11"><path d="M 339 24 L 373.558594 24 L 373.558594 32 L 339 32 Z M 339 24 " clip-rule="nonzero"/></clipPath><clipPath id="id12"><path d="M 339 24 L 373.558594 24 L 373.558594 40 L 339 40 Z M 339 24 " clip-rule="nonzero"/></clipPath><clipPath id="id13"><path d="M 318 32 L 340 32 L 340 64.003906 L 318 64.003906 Z M 318 32 " clip-rule="nonzero"/></clipPath><clipPath id="id14"><path d="M 339 32 L 361 32 L 361 64.003906 L 339 64.003906 Z M 339 32 " clip-rule="nonzero"/></clipPath></defs><path fill="#f5bf00" d="M 27.417969 24.445312 L 35.328125 32 L 35.328125 -0.00390625 Z M 27.417969 24.445312 " fill-opacity="1" fill-rule="nonzero"/><path fill="#ffd100" d="M 35.328125 -0.00390625 L 35.328125 32 L 43.238281 24.445312 Z M 35.328125 -0.00390625 " fill-opacity="1" fill-rule="nonzero"/><path fill="#f5bf00" d="M 43.238281 24.445312 L 35.328125 32 L 68.835938 24.445312 Z M 43.238281 24.445312 " fill-opacity="1" fill-rule="nonzero"/><path fill="#ffd100" d="M 35.328125 32 L 48.128906 39.558594 L 68.835938 24.445312 Z M 35.328125 32 " fill-opacity="1" fill-rule="nonzero"/><g clip-path="url(#id1)"><path fill="#ffd100" d="M 27.417969 24.445312 L 1.820312 24.445312 L 35.328125 32 Z M 27.417969 24.445312 " fill-opacity="1" fill-rule="nonzero"/></g><g clip-path="url(#id2)"><path fill="#f5bf00" d="M 1.820312 24.445312 L 22.53125 39.558594 L 35.328125 32 Z M 1.820312 24.445312 " fill-opacity="1" fill-rule="nonzero"/></g><g clip-path="url(#id3)"><path fill="#f5bf00" d="M 14.617188 64.007812 L 35.328125 48.898438 L 35.328125 32 Z M 14.617188 64.007812 " fill-opacity="1" fill-rule="nonzero"/><path fill="#ffd100" d="M 22.53125 39.558594 L 14.617188 64.007812 L 35.328125 32 Z M 22.53125 39.558594 " fill-opacity="1" fill-rule="nonzero"/></g><g clip-path="url(#id4)"><path fill="#f5bf00" d="M 48.128906 39.558594 L 35.328125 32 L 56.035156 64.007812 Z M 48.128906 39.558594 " fill-opacity="1" fill-rule="nonzero"/><path fill="#ffd100" d="M 35.328125 32 L 35.328125 48.898438 L 56.035156 64.007812 Z M 35.328125 32 " fill-opacity="1" fill-rule="nonzero"/></g><path fill="#f5bf00" d="M 103.503906 24.445312 L 111.414062 32 L 111.414062 -0.00390625 Z M 103.503906 24.445312 " fill-opacity="1" fill-rule="nonzero"/><path fill="#ffd100" d="M 111.414062 -0.00390625 L 111.414062 32 L 119.324219 24.445312 Z M 111.414062 -0.00390625 " fill-opacity="1" fill-rule="nonzero"/><path fill="#f5bf00" d="M 119.324219 24.445312 L 111.414062 32 L 144.921875 24.445312 Z M 119.324219 24.445312 " fill-opacity="1" fill-rule="nonzero"/><path fill="#ffd100" d="M 111.414062 32 L 124.210938 39.558594 L 144.921875 24.445312 Z M 111.414062 32 " fill-opacity="1" fill-rule="nonzero"/><path fill="#ffd100" d="M 103.503906 24.445312 L 77.90625 24.445312 L 111.414062 32 Z M 103.503906 24.445312 " fill-opacity="1" fill-rule="nonzero"/><path fill="#f5bf00" d="M 77.90625 24.445312 L 98.617188 39.558594 L 111.414062 32 Z M 77.90625 24.445312 " fill-opacity="1" fill-rule="nonzero"/><g clip-path="url(#id5)"><path fill="#f5bf00" d="M 90.707031 64.007812 L 111.414062 48.898438 L 111.414062 32 Z M 90.707031 64.007812 " fill-opacity="1" fill-rule="nonzero"/><path fill="#ffd100" d="M 98.617188 39.558594 L 90.707031 64.007812 L 111.414062 32 Z M 98.617188 39.558594 " fill-opacity="1" fill-rule="nonzero"/></g><g clip-path="url(#id6)"><path fill="#f5bf00" d="M 124.210938 39.558594 L 111.414062 32 L 132.125 64.007812 Z M 124.210938 39.558594 " fill-opacity="1" fill-rule="nonzero"/><path fill="#ffd100" d="M 111.414062 32 L 111.414062 48.898438 L 132.125 64.007812 Z M 111.414062 32 " fill-opacity="1" fill-rule="nonzero"/></g><path fill="#f5bf00" d="M 179.589844 24.445312 L 187.5 32 L 187.5 -0.00390625 Z M 179.589844 24.445312 " fill-opacity="1" fill-rule="nonzero"/><path fill="#ffd100" d="M 187.5 -0.00390625 L 187.5 32 L 195.410156 24.445312 Z M 187.5 -0.00390625 " fill-opacity="1" fill-rule="nonzero"/><path fill="#f5bf00" d="M 195.410156 24.445312 L 187.5 32 L 221.007812 24.445312 Z M 195.410156 24.445312 " fill-opacity="1" fill-rule="nonzero"/><path fill="#ffd100" d="M 187.5 32 L 200.296875 39.558594 L 221.007812 24.445312 Z M 187.5 32 " fill-opacity="1" fill-rule="nonzero"/><path fill="#ffd100" d="M 179.589844 24.445312 L 153.992188 24.445312 L 187.5 32 Z M 179.589844 24.445312 " fill-opacity="1" fill-rule="nonzero"/><path fill="#f5bf00" d="M 153.992188 24.445312 L 174.703125 39.558594 L 187.5 32 Z M 153.992188 24.445312 " fill-opacity="1" fill-rule="nonzero"/><g clip-path="url(#id7)"><path fill="#f5bf00" d="M 166.792969 64.007812 L 187.5 48.898438 L 187.5 32 Z M 166.792969 64.007812 " fill-opacity="1" fill-rule="nonzero"/><path fill="#ffd100" d="M 174.703125 39.558594 L 166.792969 64.007812 L 187.5 32 Z M 174.703125 39.558594 " fill-opacity="1" fill-rule="nonzero"/></g><g clip-path="url(#id8)"><path fill="#f5bf00" d="M 200.296875 39.558594 L 187.5 32 L 208.207031 64.007812 Z M 200.296875 39.558594 " fill-opacity="1" fill-rule="nonzero"/><path fill="#ffd100" d="M 187.5 32 L 187.5 48.898438 L 208.207031 64.007812 Z M 187.5 32 " fill-opacity="1" fill-rule="nonzero"/></g><path fill="#f5bf00" d="M 255.675781 24.445312 L 263.585938 32 L 263.585938 -0.00390625 Z M 255.675781 24.445312 " fill-opacity="1" fill-rule="nonzero"/><path fill="#ffd100" d="M 263.585938 -0.00390625 L 263.585938 32 L 271.496094 24.445312 Z M 263.585938 -0.00390625 " fill-opacity="1" fill-rule="nonzero"/><path fill="#f5bf00" d="M 271.496094 24.445312 L 263.585938 32 L 297.09375 24.445312 Z M 271.496094 24.445312 " fill-opacity="1" fill-rule="nonzero"/><path fill="#ffd100" d="M 263.585938 32 L 276.382812 39.558594 L 297.09375 24.445312 Z M 263.585938 32 " fill-opacity="1" fill-rule="nonzero"/><path fill="#ffd100" d="M 255.675781 24.445312 L 230.078125 24.445312 L 263.585938 32 Z M 255.675781 24.445312 " fill-opacity="1" fill-rule="nonzero"/><path fill="#f5bf00" d="M 230.078125 24.445312 L 250.789062 39.558594 L 263.585938 32 Z M 230.078125 24.445312 " fill-opacity="1" fill-rule="nonzero"/><g clip-path="url(#id9)"><path fill="#f5bf00" d="M 242.875 64.007812 L 263.585938 48.898438 L 263.585938 32 Z M 242.875 64.007812 " fill-opacity="1" fill-rule="nonzero"/><path fill="#ffd100" d="M 250.789062 39.558594 L 242.875 64.007812 L 263.585938 32 Z M 250.789062 39.558594 " fill-opacity="1" fill-rule="nonzero"/></g><g clip-path="url(#id10)"><path fill="#f5bf00" d="M 276.382812 39.558594 L 263.585938 32 L 284.292969 64.007812 Z M 276.382812 39.558594 " fill-opacity="1" fill-rule="nonzero"/><path fill="#ffd100" d="M 263.585938 32 L 263.585938 48.898438 L 284.292969 64.007812 Z M 263.585938 32 " fill-opacity="1" fill-rule="nonzero"/></g><path fill="#f5bf00" d="M 331.761719 24.445312 L 339.671875 32 L 339.671875 -0.00390625 Z M 331.761719 24.445312 " fill-opacity="1" fill-rule="nonzero"/><path fill="#ffd100" d="M 339.671875 -0.00390625 L 339.671875 32 L 347.582031 24.445312 Z M 339.671875 -0.00390625 " fill-opacity="1" fill-rule="nonzero"/><g clip-path="url(#id11)"><path fill="#f5bf00" d="M 347.582031 24.445312 L 339.671875 32 L 373.179688 24.445312 Z M 347.582031 24.445312 " fill-opacity="1" fill-rule="nonzero"/></g><g clip-path="url(#id12)"><path fill="#ffd100" d="M 339.671875 32 L 352.46875 39.558594 L 373.179688 24.445312 Z M 339.671875 32 " fill-opacity="1" fill-rule="nonzero"/></g><path fill="#ffd100" d="M 331.761719 24.445312 L 306.164062 24.445312 L 339.671875 32 Z M 331.761719 24.445312 " fill-opacity="1" fill-rule="nonzero"/><path fill="#f5bf00" d="M 306.164062 24.445312 L 326.871094 39.558594 L 339.671875 32 Z M 306.164062 24.445312 " fill-opacity="1" fill-rule="nonzero"/><g clip-path="url(#id13)"><path fill="#f5bf00" d="M 318.964844 64.007812 L 339.671875 48.898438 L 339.671875 32 Z M 318.964844 64.007812 " fill-opacity="1" fill-rule="nonzero"/><path fill="#ffd100" d="M 326.871094 39.558594 L 318.964844 64.007812 L 339.671875 32 Z M 326.871094 39.558594 " fill-opacity="1" fill-rule="nonzero"/></g><g clip-path="url(#id14)"><path fill="#f5bf00" d="M 352.46875 39.558594 L 339.671875 32 L 360.382812 64.007812 Z M 352.46875 39.558594 " fill-opacity="1" fill-rule="nonzero"/><path fill="#ffd100" d="M 339.671875 32 L 339.671875 48.898438 L 360.382812 64.007812 Z M 339.671875 32 " fill-opacity="1" fill-rule="nonzero"/></g></svg>