<svg id="Layer_1" enable-background="new 0 0 512 512" height="512" viewBox="0 0 512 512" width="512" xmlns="http://www.w3.org/2000/svg" xmlns:xlink="http://www.w3.org/1999/xlink"><linearGradient id="SVGID_1_" gradientUnits="userSpaceOnUse" x1="86.294" x2="425.706" y1="425.706" y2="86.294"><stop offset="0" stop-color="#011c49"/><stop offset="1" stop-color="#00b8e0"/></linearGradient><path clip-rule="evenodd" d="m256 16c132.548 0 240 107.452 240 240s-107.452 240-240 240-240-107.452-240-240 107.452-240 240-240zm-112.132 115.009c-8.496 0-15.426 6.93-15.426 15.426v25.76c0 2.754 2.246 5 5 5h245.117c2.754 0 5-2.246 5-5v-25.76c0-8.496-6.93-15.426-15.426-15.426h-64.999v-12.613c0-9.582-7.815-17.396-17.396-17.396h-59.474c-9.581 0-17.396 7.815-17.396 17.396v12.613zm1.954 62.185 12.397 203.318c.497 8.152 7.23 14.488 15.397 14.488h164.767c8.167 0 14.901-6.335 15.397-14.488l12.397-203.318zm152.255 49.243v101.585c0 4.418 3.582 8 8 8s8-3.582 8-8v-101.585c0-4.418-3.582-8-8-8s-8 3.582-8 8zm-50.077 0v101.585c0 4.418 3.582 8 8 8s8-3.582 8-8v-101.585c0-4.418-3.582-8-8-8s-8 3.582-8 8zm-42.077-8c-4.418 0-8 3.582-8 8v101.585c0 4.418 3.582 8 8 8s8-3.582 8-8v-101.585c0-4.418-3.582-8-8-8z" fill="url(#SVGID_1_)" fill-rule="evenodd"/></svg>