<svg id="Layer_1" height="512" viewBox="0 0 512 512" width="512" xmlns="http://www.w3.org/2000/svg" data-name="Layer 1"><g fill-rule="evenodd"><path d="m256 0c-141.158 0-256 114.841-256 256s114.84 256 256 256 256-114.841 256-256-114.84-256-256-256z" fill="#ff5a54"/><path d="m499.017 336.512.167-.508.01-.03q.394-1.194.777-2.395 2.041-6.4 3.756-12.942c.425-1.629.827-3.268 1.221-4.91l-133.348-156.864.573.732.54.759.5.785.466.81.427.834.388.857.347.878.3.9.261.918.216.935.171.951.123.967.075.981.025.994v19.336h-1.354l-70.649-81.461.479.642.417.687.351.728.28.765.206.8.126.826.043.851v20.576h-99.832l52.847 55.586h-122.946l81.37 78.293v92.717l.044.864.127.838.208.81.285.776.356.739.423.7.486.65.545.6.6.546 42.599 37.967h-82.052l-.626-.015-.62-.046-.612-.074-.6-.1-.593-.131-.584-.159-.573-.186-.561-.211-.549-.236-.536-.261-.522-.285-.507-.308-.492-.331-.475-.352-.459-.373 126.138 105.468c1.17-.2 2.341-.4 3.506-.61a253.978 253.978 0 0 0 56.5-17.369l.04-.017.04-.018c.584-.253 1.167-.507 1.747-.768a255.467 255.467 0 0 0 32.57-17.593l.033-.022.033-.021.033-.021.033-.021.034-.021q.681-.433 1.358-.87 9.735-6.3 18.847-13.445l.006.006a258.208 258.208 0 0 0 41.973-41.451q1.18-1.464 2.339-2.948.285-.365.566-.734l.022-.028.008-.011.014-.017a257.232 257.232 0 0 0 17.098-24.989l.243-.405q.37-.618.737-1.238.356-.6.708-1.207l.408-.7q.4-.687.792-1.377l.291-.511q.52-.914 1.032-1.833l.115-.208q.521-.936 1.033-1.876l.1-.18a254.763 254.763 0 0 0 13.493-29q2.387-6.119 4.465-12.385z" fill="#db3a3c"/><path d="m277.643 361.508v-118.508a8.45 8.45 0 0 1 16.9.006v118.507a8.452 8.452 0 1 1 -16.9 0zm-60.293 0v-118.508a8.449 8.449 0 0 1 16.9.006v118.502a8.451 8.451 0 1 1 -16.9 0zm158.67-171.008h-240.04v-19.339a19.358 19.358 0 0 1 19.34-19.341l201.358-.006a19.365 19.365 0 0 1 19.339 19.348v19.336zm-33.146 203.587 13.614-186.687h-201.08l12.757 186.636a12.872 12.872 0 0 0 12.807 11.964h149.1a12.745 12.745 0 0 0 12.807-11.913zm-136.8-279.758a8.326 8.326 0 0 1 8.32-8.324h83.2a8.34 8.34 0 0 1 8.321 8.334v20.576h-99.836z" fill="#fff"/></g></svg>