<?xml version="1.0" encoding="UTF-8"?>
<svg version="1.1" xmlns="http://www.w3.org/2000/svg" width="480" height="480">
<path d="M0 0 C0.75531805 -0.00465992 1.51063611 -0.00931984 2.28884259 -0.01412097 C4.81634145 -0.02605879 7.34330156 -0.01668038 9.87080479 -0.00736332 C11.70255932 -0.01153676 13.53431126 -0.01701434 15.36605841 -0.02368313 C20.39714831 -0.03815495 25.42807464 -0.03388756 30.45917356 -0.02651632 C35.88599115 -0.02179128 41.31277301 -0.03428859 46.7395792 -0.04453373 C57.37002064 -0.06173988 68.00040302 -0.062558 78.63085478 -0.05732083 C87.27002352 -0.05328141 95.9091748 -0.05471997 104.5483427 -0.06006908 C105.77734488 -0.06081751 107.00634706 -0.06156593 108.27259173 -0.06233703 C110.76920315 -0.06386849 113.26581456 -0.06540683 115.76242597 -0.066952 C138.51324787 -0.08029197 161.26403891 -0.07595435 184.01486018 -0.06474145 C204.78015062 -0.05463854 225.54536021 -0.06299547 246.31063938 -0.086236 C269.64318806 -0.11228351 292.97568769 -0.12510733 316.30825144 -0.11804825 C328.66153509 -0.11455244 341.01475233 -0.11681201 353.36802578 -0.13429928 C363.88367827 -0.14900043 374.39921759 -0.14968396 384.91486781 -0.13222837 C390.28090952 -0.12369898 395.64674888 -0.12161618 401.01278019 -0.13687992 C405.92469159 -0.15067907 410.83622638 -0.14602538 415.74811573 -0.12664068 C417.52529032 -0.1228657 419.30249475 -0.12584561 421.07964288 -0.13625234 C439.02664543 -0.23387665 439.02664543 -0.23387665 446.68783665 6.56391048 C447.63529758 7.67959408 447.63529758 7.67959408 448.60189915 8.81781673 C449.24900852 9.55902767 449.8961179 10.30023861 450.56283665 11.06391048 C453.99561963 15.84240886 454.51817134 20.14248683 454.48416805 25.90732193 C454.48767413 26.6603323 454.4911802 27.41334266 454.49479252 28.18917152 C454.50412089 30.72075868 454.49917952 33.25211652 454.49432468 35.78371334 C454.49806022 37.61374035 454.50266135 39.44376576 454.50805533 41.27378863 C454.52031268 46.30936398 454.52002164 51.34487303 454.51766658 56.3804599 C454.5172591 61.80867074 454.52829092 67.23686011 454.53778172 72.665061 C454.55440762 83.30244805 454.55989198 93.93981294 454.56100647 104.57721189 C454.56195618 113.22214641 454.56606261 121.8670736 454.57240772 130.51200581 C454.59002436 155.01180609 454.59924592 179.51158883 454.59774677 204.01139549 C454.59770688 204.67179943 454.59766699 205.33220336 454.59762589 206.01261953 C454.59754502 207.34811746 454.59746142 208.68361539 454.59737511 210.01911332 C454.59614959 230.79750143 454.6111626 251.57582426 454.63852024 272.35419369 C454.66924063 295.69624557 454.68642742 319.03825495 454.6845938 342.38032836 C454.68392927 354.74035334 454.68944896 367.10030471 454.7109499 379.46031284 C454.72913768 389.98332759 454.73352878 400.50623536 454.71993105 411.029259 C454.71338932 416.39934135 454.71332772 421.76921831 454.73063755 427.13928127 C454.74631993 432.05496654 454.74355411 436.97028275 454.72606929 441.88595875 C454.72298873 443.66454176 454.72667137 445.44315198 454.73778944 447.22170291 C454.79532545 457.07828664 454.74739386 464.42675144 448.5511179 472.58734798 C448.01100071 473.11715267 447.47088352 473.64695736 446.91439915 474.19281673 C446.11582493 475.0068597 446.11582493 475.0068597 445.3011179 475.83734798 C438.36837744 480.9944713 431.76799082 480.79597437 423.40683079 480.72089291 C421.45782069 480.72143531 421.45782069 480.72143531 419.46943665 480.72198868 C415.97033896 480.72266301 412.47155214 480.7053382 408.9725275 480.68415737 C405.68326284 480.66700993 402.39401079 480.66626462 399.10470676 480.66413021 C389.49956342 480.64841911 379.8944773 480.60653537 370.28939915 480.56781673 C338.08346165 480.47500423 338.08346165 480.47500423 305.22689915 480.38031673 C305.22689915 418.67031673 305.22689915 356.96031673 305.22689915 293.38031673 C325.68689915 293.38031673 346.14689915 293.38031673 367.22689915 293.38031673 C367.88689915 286.78031673 368.54689915 280.18031673 369.22689915 273.38031673 C369.69640749 269.42823289 370.17596876 265.48475401 370.6995554 261.54047298 C370.8275301 260.55961224 370.9555048 259.57875149 371.08735752 258.56816769 C371.35224128 256.54287838 371.61854882 254.51777474 371.88632298 252.49286556 C372.29585408 249.39397275 372.70016114 246.29442835 373.10385227 243.19476986 C373.36462027 241.20579825 373.62567683 239.21686445 373.8870554 237.22797298 C374.00686268 236.31032665 374.12666996 235.39268032 374.25010777 234.44722652 C374.36370136 233.59120342 374.47729496 232.73518032 374.59433079 231.85321712 C374.74183529 230.73458027 374.74183529 230.73458027 374.89231968 229.59334469 C375.25783919 227.17566826 375.74736557 224.77798464 376.22689915 222.38031673 C352.79689915 222.38031673 329.36689915 222.38031673 305.22689915 222.38031673 C305.13408665 208.33469173 305.13408665 208.33469173 305.03939915 194.00531673 C305.01208714 191.06834896 304.98477512 188.13138119 304.95663548 185.10541439 C304.94786549 182.75174018 304.94022277 180.39806138 304.9339304 178.04437923 C304.91090855 176.24263241 304.91090855 176.24263241 304.88742161 174.40448666 C304.88442441 164.67958067 306.02834829 155.85828399 312.3792429 148.13422298 C324.30526667 136.81332515 343.3576894 139.12641446 358.47689915 139.25531673 C368.74814915 139.31719173 368.74814915 139.31719173 379.22689915 139.38031673 C379.22689915 118.59031673 379.22689915 97.80031673 379.22689915 76.38031673 C372.11127415 76.05031673 364.99564915 75.72031673 357.66439915 75.38031673 C355.4516428 75.27590267 353.23888645 75.17148861 350.95907688 75.06391048 C330.57347156 73.98032407 330.57347156 73.98032407 310.22689915 75.13031673 C309.47618137 75.21974545 308.7254636 75.30917416 307.9519968 75.40131283 C289.64498744 77.77236644 273.476875 84.62949348 259.22689915 96.38031673 C258.59654758 96.8972308 257.96619602 97.41414486 257.3167429 97.94672298 C240.53628843 113.19820665 233.80969926 137.51215084 232.22689915 159.38031673 C232.04149741 164.29876035 231.97243033 169.21675338 231.9104929 174.13812923 C231.88251621 175.98072323 231.88251621 175.98072323 231.85397434 177.86054134 C231.78615166 182.40873311 231.72570141 186.95703241 231.66439915 191.50531673 C231.52002415 201.69406673 231.37564915 211.88281673 231.22689915 222.38031673 C210.43689915 222.38031673 189.64689915 222.38031673 168.22689915 222.38031673 C168.22689915 245.81031673 168.22689915 269.24031673 168.22689915 293.38031673 C189.01689915 293.38031673 209.80689915 293.38031673 231.22689915 293.38031673 C231.22689915 355.09031673 231.22689915 416.80031673 231.22689915 480.38031673 C171.61423342 480.54152887 171.61423342 480.54152887 146.6604929 480.57562923 C140.95850675 480.58346054 135.25652105 480.59154241 129.55453587 480.6000433 C128.48258266 480.60162579 128.48258266 480.60162579 127.38897383 480.60324025 C115.85681647 480.62063005 104.32473901 480.65216119 92.792629 480.68892792 C80.95458545 480.72635481 69.11658368 480.74855627 57.27848339 480.75667071 C50.63044273 480.76166319 43.9825506 480.77415266 37.33456516 480.80323696 C31.07687787 480.83039187 24.81944621 480.83876141 18.56170559 480.83274746 C16.26554507 480.83384764 13.96937597 480.84180081 11.67326641 480.85713863 C8.53596415 480.87706712 5.39962451 480.87224484 2.26229954 480.8613348 C1.35566563 480.87298617 0.44903172 480.88463753 -0.48507595 480.89664197 C-7.63279769 480.82954883 -12.86118713 478.9640624 -18.23403835 474.19672298 C-19.18149929 473.08103939 -19.18149929 473.08103939 -20.14810085 471.94281673 C-20.79521023 471.2016058 -21.4423196 470.46039486 -22.10903835 469.69672298 C-25.54182134 464.91822461 -26.06437304 460.61814664 -26.03036976 454.85331154 C-26.03387583 454.10030117 -26.03738191 453.34729081 -26.04099423 452.57146195 C-26.0503226 450.03987479 -26.04538123 447.50851694 -26.04052639 444.97692013 C-26.04426193 443.14689312 -26.04886306 441.31686771 -26.05425704 439.48684484 C-26.06651439 434.45126949 -26.06622335 429.41576044 -26.06386828 424.38017356 C-26.06346081 418.95196273 -26.07449263 413.52377335 -26.08398342 408.09557247 C-26.10060932 397.45818542 -26.10609368 386.82082053 -26.10720818 376.18342157 C-26.10815789 367.53848706 -26.11226431 358.89355986 -26.11860943 350.24862766 C-26.13622607 325.74882738 -26.14544762 301.24904464 -26.14394848 276.74923798 C-26.14388864 275.75863208 -26.14388864 275.75863208 -26.1438276 274.74801394 C-26.14374673 273.412516 -26.14366313 272.07701807 -26.14357682 270.74152014 C-26.1423513 249.96313204 -26.15736431 229.18480921 -26.18472195 208.40643978 C-26.21544234 185.0643879 -26.23262913 161.72237852 -26.2307955 138.38030511 C-26.23013098 126.02028013 -26.23565067 113.66032876 -26.2571516 101.30032063 C-26.27533939 90.77730588 -26.27973049 80.2543981 -26.26613276 69.73137446 C-26.25959103 64.36129212 -26.25952943 58.99141516 -26.27683926 53.6213522 C-26.29252164 48.70566693 -26.28975581 43.79035071 -26.27227099 38.87467472 C-26.26919043 37.09609171 -26.27287308 35.31748148 -26.28399114 33.53893056 C-26.34152716 23.68234683 -26.29359556 16.33388203 -20.0973196 8.17328548 C-19.55720242 7.6434808 -19.01708523 7.11367611 -18.46060085 6.56781673 C-17.92821804 6.02512142 -17.39583523 5.48242611 -16.8473196 4.92328548 C-11.54493572 0.97895096 -6.49355821 -0.06325614 0 0 Z " fill="#FFFFFF" transform="translate(25.77310085296631,-0.38031673431396484)"/>
</svg>
