<?xml version="1.0" encoding="UTF-8"?>
<!DOCTYPE svg PUBLIC "-//W3C//DTD SVG 1.1//EN" "http://www.w3.org/Graphics/SVG/1.1/DTD/svg11.dtd">
<!-- Creator: CorelDRAW 2020 (64 Bit) -->
<svg xmlns="http://www.w3.org/2000/svg" xml:space="preserve" width="42.3332mm" height="42.3332mm" version="1.1" style="shape-rendering:geometricPrecision; text-rendering:geometricPrecision; image-rendering:optimizeQuality; fill-rule:evenodd; clip-rule:evenodd"
viewBox="0 0 4233.32 4233.32"
 xmlns:xlink="http://www.w3.org/1999/xlink"
 xmlns:xodm="http://www.corel.com/coreldraw/odm/2003">
 <defs>
  <style type="text/css">
   <![CDATA[
    .fil0 {fill:white}
   ]]>
  </style>
 </defs>
 <g id="Camada_x0020_1">
  <metadata id="CorelCorpID_0Corel-Layer"/>
  <g id="_1407762175152">
   <g id="_1984504534864">
    <g id="_2187036586144">
     <path class="fil0" d="M47.1 2059.56c0,359.52 39.77,585.01 170.36,882.84 72.21,164.71 147.43,289.89 255.47,433.16 76.47,101.41 182.91,215.15 277.04,298.17l66.63 54.89c212.55,161.98 325.3,230.68 589.13,334.45 77.44,30.46 278.92,94.78 375.09,94.78l0 -1587.89c0,-18.67 -5.63,-24.31 -24.29,-24.31l-478 0 0 -575.21 502.29 0 0 -486.09c0,-103.3 28.66,-220.18 62.02,-294.45 44.21,-98.43 71.36,-142.74 142.54,-213.93 257.02,-257.01 643.74,-199.98 978.27,-172.14l0 510.38c-643.6,0 -591.41,-16.2 -591.41,656.23l575.21 0c-9.67,20.15 -72.91,520.06 -72.91,575.21l-502.3 0 0 1628.41c58.85,0 147.26,-21.75 201.96,-32.99 107.82,-22.14 255.34,-72.92 356,-113.88 27.69,-11.26 52.16,-23.36 84.4,-37.12l153.22 -81.73c27.92,-16.83 46.99,-28.55 74.54,-46.98 98.69,-66.1 322.03,-233.38 393.72,-327.32l108.85 -126.1c99.86,-127.8 209.32,-291.6 270.79,-442.13 23.36,-57.17 46.95,-107.24 67.03,-167.92 66.49,-200.92 104.25,-405.2 112.34,-608.73l0 -165.33c-10.62,-266.33 -72.86,-529.41 -189,-779.86 -45.07,-97.19 -82.12,-154.87 -132.48,-240.19 -18.08,-30.63 -32.52,-50.29 -52.43,-77.21 -18.68,-25.27 -30.42,-44.7 -50.79,-70.72 -380.97,-486.67 -967.38,-813.57 -1592.59,-813.57 -408.69,0 -578.45,45.27 -928.25,189.75 -168.94,69.78 -317.51,181.7 -460.65,292.8 -64.7,50.22 -205.84,189.93 -255.78,254.62 -130.14,168.55 -189.23,240.04 -294.39,459.05 -98.07,204.27 -191.63,523.17 -191.63,821.06z"/>
    </g>
   </g>
  </g>
 </g>
</svg>
