<?xml version="1.0" encoding="UTF-8"?>
<svg version="1.1" xmlns="http://www.w3.org/2000/svg" width="578" height="433">
<path d="M0 0 C1.47298929 -0.00456784 2.94597646 -0.0098752 4.41896057 -0.0158844 C7.49790128 -0.02479111 10.57658228 -0.02242052 13.65551758 -0.01245117 C17.58398243 -0.00096503 21.51154789 -0.02117893 25.43989468 -0.05036831 C28.47957469 -0.06879234 31.51904162 -0.06842561 34.5587635 -0.06273079 C36.00632043 -0.06257833 37.4538925 -0.0685601 38.9013958 -0.08102226 C48.66351623 -0.15323894 54.98262004 0.37640503 62.69140625 6.68359375 C69.40387607 14.88772353 69.58019323 22.11100346 69.69140625 32.43359375 C69.71961262 33.79430805 69.74954646 35.15498769 69.78125 36.515625 C69.85159146 39.8216736 69.90446853 43.12703136 69.94140625 46.43359375 C70.94300781 46.75972656 71.94460938 47.08585937 72.9765625 47.421875 C74.31906445 47.8631169 75.66150932 48.30453246 77.00390625 48.74609375 C77.66068359 48.95943359 78.31746094 49.17277344 78.99414062 49.39257812 C83.42390369 50.85461815 87.67668231 52.54247429 91.94140625 54.43359375 C92.67746094 53.49257813 93.41351563 52.5515625 94.171875 51.58203125 C95.15750392 50.32418101 96.14318372 49.06637064 97.12890625 47.80859375 C97.61166016 47.19113281 98.09441406 46.57367188 98.59179688 45.9375 C100.03484697 44.09736901 101.48732262 42.26501233 102.94140625 40.43359375 C103.59520264 39.59272217 103.59520264 39.59272217 104.26220703 38.73486328 C108.83969788 32.99129075 113.88629337 29.992752 121.19921875 28.984375 C134.28335305 28.54418951 140.85685694 34.72179207 150.22705078 42.93701172 C152.98113511 45.34124654 155.77349707 47.6996924 158.56640625 50.05859375 C159.36921021 50.73849365 159.36921021 50.73849365 160.18823242 51.43212891 C169.25219016 59.09842802 169.25219016 59.09842802 178.58203125 66.43359375 C183.69376697 70.76672071 186.09231221 76.35311498 186.94140625 82.93359375 C187.40018452 93.57428979 182.63751177 99.62344589 175.94140625 107.43359375 C174.43486495 109.30334195 172.93460415 111.17817224 171.44140625 113.05859375 C170.27473958 114.51692708 169.10807292 115.97526042 167.94140625 117.43359375 C169.64105685 122.16833472 172.07799652 126.39526486 174.56640625 130.74609375 C174.98664063 131.48666016 175.406875 132.22722656 175.83984375 132.99023438 C176.8708912 134.80628386 177.90576671 136.62015908 178.94140625 138.43359375 C184.72868189 138.0006873 190.41421943 137.39755342 196.12890625 136.37109375 C204.95093832 134.88372412 211.95475145 134.81590245 219.94140625 139.43359375 C228.87533304 146.84507234 230.33141704 157.26320255 232.19140625 168.18359375 C232.37703125 169.19808594 232.56265625 170.21257812 232.75390625 171.2578125 C233.00914062 172.72927734 233.00914062 172.72927734 233.26953125 174.23046875 C233.42325195 175.11057617 233.57697266 175.99068359 233.73535156 176.89746094 C234.08443568 181.19400808 233.67559666 183.52189892 230.93188477 186.92895508 C229.63915649 188.20935669 229.63915649 188.20935669 228.3203125 189.515625 C227.38509766 190.44697266 226.44988281 191.37832031 225.48632812 192.33789062 C224.99704834 192.81476318 224.50776855 193.29163574 224.00366211 193.78295898 C222.50175346 195.24819397 221.01663149 196.72897162 219.53320312 198.21289062 C212.22192672 205.43359375 212.22192672 205.43359375 209.94140625 205.43359375 C209.77012207 204.5113501 209.59883789 203.58910645 209.42236328 202.63891602 C208.77875768 199.17774331 208.13373687 195.71684029 207.48779297 192.25610352 C207.20989221 190.76564737 206.93253617 189.27508954 206.65576172 187.78442383 C205.20489309 179.97225573 203.73933411 172.17515693 201.94140625 164.43359375 C200.44359619 164.70623047 200.44359619 164.70623047 198.91552734 164.984375 C195.19283706 165.66055782 191.4689311 166.32982787 187.74462891 166.99707031 C186.13621861 167.28621546 184.52813908 167.57720713 182.92041016 167.87011719 C180.60274448 168.2920328 178.28395073 168.70718325 175.96484375 169.12109375 C175.25210297 169.25233643 174.53936218 169.3835791 173.80502319 169.51879883 C169.80038297 170.22597085 166.00644785 170.56705613 161.94140625 170.43359375 C161.60109375 169.68078125 161.26078125 168.92796875 160.91015625 168.15234375 C159.27518503 164.56932171 157.61551285 160.99844568 155.94140625 157.43359375 C155.63638184 156.78132812 155.33135742 156.1290625 155.01708984 155.45703125 C148.57279879 141.78427645 140.6054348 130.09889252 130.94140625 118.43359375 C132.64187236 114.289344 135.58311875 111.19006762 138.50390625 107.87109375 C139.58812432 106.62186107 140.67144803 105.37185165 141.75390625 104.12109375 C142.56021484 103.19103516 142.56021484 103.19103516 143.3828125 102.2421875 C145.62194644 99.64389423 147.81935074 97.01555568 150.00390625 94.37109375 C150.69613281 93.53449219 151.38835937 92.69789062 152.1015625 91.8359375 C153.92194259 89.45900808 155.45563201 87.03022723 156.94140625 84.43359375 C156.41417969 84.21574219 155.88695312 83.99789062 155.34375 83.7734375 C152.03888428 81.93023597 149.33288904 79.4810322 146.50390625 76.99609375 C145.26062859 75.91902616 144.01713356 74.84220944 142.7734375 73.765625 C141.49607271 72.65497211 140.21872897 71.54429501 138.94140625 70.43359375 C136.53133868 68.34245991 134.11406982 66.26011347 131.69140625 64.18359375 C131.14299072 63.70607666 130.5945752 63.22855957 130.02954102 62.73657227 C127.36438 60.20151878 127.36438 60.20151878 123.94140625 59.43359375 C122.52434123 60.98247877 121.18331129 62.60120909 119.87890625 64.24609375 C119.07582031 65.24898438 118.27273438 66.251875 117.4453125 67.28515625 C117.03039551 67.80754883 116.61547852 68.32994141 116.18798828 68.86816406 C110.61083503 75.87182772 104.89778138 82.74943002 98.94140625 89.43359375 C94.58886911 88.13267645 90.67204311 86.38034289 86.62402344 84.36206055 C71.53058379 76.85731877 56.25024899 72.78261848 39.94140625 68.43359375 C39.94140625 54.57359375 39.94140625 40.71359375 39.94140625 26.43359375 C25.75140625 26.43359375 11.56140625 26.43359375 -3.05859375 26.43359375 C-3.05859375 40.29359375 -3.05859375 54.15359375 -3.05859375 68.43359375 C-10.48359375 70.41359375 -10.48359375 70.41359375 -18.05859375 72.43359375 C-22.05988512 73.64287292 -26.03064845 74.87002537 -29.99609375 76.18359375 C-31.01807861 76.52140869 -32.04006348 76.85922363 -33.09301758 77.20727539 C-40.74015254 79.8128189 -47.82738342 83.01046471 -54.9140625 86.8671875 C-57.73038471 88.2701008 -59.96298698 89.01968023 -63.05859375 89.43359375 C-63.58066406 88.79035156 -64.10273438 88.14710937 -64.640625 87.484375 C-69.85115098 81.08756465 -75.13825746 74.76343915 -80.48046875 68.4765625 C-83.02307089 65.47552149 -85.54456747 62.45856422 -88.05859375 59.43359375 C-93.88917469 63.63161203 -99.32274144 68.18475054 -104.75097656 72.88085938 C-109.75243358 77.19870288 -114.85662912 81.35832192 -120.05859375 85.43359375 C-116.85361771 89.93312874 -113.46984293 94.16303544 -109.74609375 98.24609375 C-106.45714086 101.86450033 -103.21575336 105.511711 -100.05859375 109.24609375 C-99.31609375 110.11878906 -98.57359375 110.99148437 -97.80859375 111.890625 C-95.94009243 114.60579098 -95.07946943 116.13523676 -95.05859375 119.43359375 C-96.54296875 121.6953125 -96.54296875 121.6953125 -98.80859375 124.12109375 C-110.58061664 137.80949246 -117.99411749 153.95677589 -125.05859375 170.43359375 C-134.11314536 169.88053989 -142.89638258 168.53166754 -151.80859375 166.87109375 C-153.08992188 166.63712891 -154.37125 166.40316406 -155.69140625 166.16210938 C-158.81477849 165.59104505 -161.93709429 165.0147921 -165.05859375 164.43359375 C-166.45717686 169.81681931 -167.62307235 175.17256923 -168.56640625 180.65234375 C-168.69675262 181.3956897 -168.827099 182.13903564 -168.96139526 182.90490723 C-169.37150885 185.24733833 -169.77762119 187.5904418 -170.18359375 189.93359375 C-170.46327577 191.53520271 -170.74322132 193.13676566 -171.0234375 194.73828125 C-171.70486671 198.63619433 -172.38271182 202.53471513 -173.05859375 206.43359375 C-172.22811523 206.49836914 -172.22811523 206.49836914 -171.38085938 206.56445312 C-163.69014193 207.24213154 -156.15086206 208.55532927 -148.55859375 209.93359375 C-146.64820313 210.27197266 -146.64820313 210.27197266 -144.69921875 210.6171875 C-135.31824907 212.30376609 -135.31824907 212.30376609 -133.05859375 213.43359375 C-132.71142578 215.5246582 -132.71142578 215.5246582 -132.56640625 218.296875 C-132.47190186 219.83069824 -132.47190186 219.83069824 -132.37548828 221.39550781 C-132.28050049 223.05404785 -132.28050049 223.05404785 -132.18359375 224.74609375 C-131.14010657 239.92763904 -128.72623857 254.48201657 -123.79296875 268.90234375 C-123.05859375 271.43359375 -123.05859375 271.43359375 -123.05859375 275.43359375 C-126.63310924 277.49677295 -130.20773937 279.55975339 -133.7824707 281.62255859 C-134.99571752 282.32270076 -136.20893431 283.02289497 -137.42211914 283.72314453 C-143.62764911 287.3049284 -149.83308411 290.88660735 -156.05859375 294.43359375 C-155.37266654 298.06282118 -153.8425725 300.8755008 -152.0390625 304.08203125 C-151.42869141 305.17 -150.81832031 306.25796875 -150.18945312 307.37890625 C-149.54814453 308.51070313 -148.90683594 309.6425 -148.24609375 310.80859375 C-147.61638672 311.93265625 -146.98667969 313.05671875 -146.33789062 314.21484375 C-142.76962152 320.5555946 -142.76962152 320.5555946 -138.8449707 326.67822266 C-137.05859375 329.43359375 -137.05859375 329.43359375 -137.05859375 331.43359375 C-131.00135366 328.63499548 -125.20834737 325.56165496 -119.50390625 322.10546875 C-118.52631348 321.51403076 -117.5487207 320.92259277 -116.54150391 320.31323242 C-114.56318819 319.10807578 -112.59137913 317.89216848 -110.62646484 316.6652832 C-109.70687988 316.10542725 -108.78729492 315.54557129 -107.83984375 314.96875 C-107.01548828 314.45707275 -106.19113281 313.94539551 -105.34179688 313.41821289 C-103.05859375 312.43359375 -103.05859375 312.43359375 -100.90820312 312.62915039 C-97.92678819 313.92584551 -96.12621848 316.38694676 -94.05859375 318.80859375 C-83.89069434 330.23786647 -72.81345654 339.05133298 -60.05859375 347.43359375 C-58.89912226 348.20480185 -57.7402152 348.97685963 -56.58203125 349.75 C-55.74929687 350.30558594 -54.9165625 350.86117188 -54.05859375 351.43359375 C-54.63136949 356.48947227 -55.74125214 360.80877332 -57.52734375 365.609375 C-57.76771362 366.26060837 -58.0080835 366.91184174 -58.2557373 367.58280945 C-59.01687091 369.63971402 -59.78768651 371.69283518 -60.55859375 373.74609375 C-61.07613413 375.14235095 -61.59306683 376.53883356 -62.109375 377.93554688 C-65.84591073 388.00822772 -65.84591073 388.00822772 -67.05859375 390.43359375 C-66.25639404 390.65946167 -66.25639404 390.65946167 -65.43798828 390.88989258 C-57.15086381 393.29481371 -49.05321234 396.21283808 -40.93359375 399.12109375 C-39.48575867 399.63759854 -38.03784256 400.15387627 -36.58984375 400.66992188 C-33.07849011 401.92186561 -29.56823948 403.17686889 -26.05859375 404.43359375 C-25.8874707 403.16866089 -25.8874707 403.16866089 -25.71289062 401.87817383 C-25.00808984 398.1677133 -23.89555918 394.86349403 -22.58984375 391.3203125 C-22.34947388 390.66529251 -22.109104 390.01027252 -21.8614502 389.33540344 C-21.35627671 387.96217571 -20.84854712 386.58988584 -20.33837891 385.21850586 C-19.5552574 383.11211987 -18.78094221 381.00264937 -18.0078125 378.89257812 C-14.20456548 368.57956548 -14.20456548 368.57956548 -13.05859375 367.43359375 C-10.95175478 367.49971423 -8.8471102 367.63867548 -6.74609375 367.80859375 C-4.84150391 367.95748047 -4.84150391 367.95748047 -2.8984375 368.109375 C-0.53592235 368.30885492 1.82617586 368.5134466 4.1875 368.7265625 C5.17878906 368.81550781 6.17007813 368.90445312 7.19140625 368.99609375 C8.0628125 369.07988281 8.93421875 369.16367187 9.83203125 369.25 C17.8685574 369.7245185 25.69605367 369.28982543 33.69140625 368.43359375 C44.54854911 367.29073661 44.54854911 367.29073661 49.94140625 367.43359375 C53.5472814 376.55496432 57.0974811 385.68967678 60.37890625 394.93359375 C60.63752441 395.65667725 60.89614258 396.37976074 61.16259766 397.12475586 C62.94140625 402.18747189 62.94140625 402.18747189 62.94140625 404.43359375 C67.19317643 402.94503253 71.44316126 401.45150561 75.69165039 399.95361328 C77.13324196 399.44610354 78.57528967 398.93988737 80.01782227 398.43505859 C87.79521521 395.71229711 95.47266409 392.93847834 102.94140625 389.43359375 C102.54236084 388.35352051 102.14331543 387.27344727 101.73217773 386.16064453 C100.25787417 382.16408703 98.79355666 378.16393296 97.33227539 374.16259766 C96.69763957 372.42917238 96.06027632 370.69674319 95.42016602 368.96533203 C94.50213341 366.48074184 93.59387333 363.99276947 92.6875 361.50390625 C92.39797958 360.72677277 92.10845917 359.94963928 91.81016541 359.1489563 C91.1290899 357.26384342 90.52746479 355.35037486 89.94140625 353.43359375 C90.27140625 352.77359375 90.60140625 352.11359375 90.94140625 351.43359375 C94.10401917 352.84014733 96.30657832 354.51592047 98.79199219 356.91430664 C99.53245789 357.62587418 100.27292358 358.33744171 101.03582764 359.0705719 C104.38099254 362.33976857 107.72474957 365.61000597 111.05126953 368.89819336 C112.80876184 370.62756969 114.57604272 372.34705528 116.35302734 374.05639648 C118.92038935 376.52633308 121.45676178 379.02465127 123.98828125 381.53125 C124.78506287 382.28785416 125.58184448 383.04445831 126.402771 383.82398987 C130.00705294 387.45687208 132.42144668 389.95372113 132.53613281 395.22827148 C132.07403856 401.31405976 129.43074691 406.29001475 125.12890625 410.55859375 C121.77538834 413.12304862 118.3360662 414.61445194 114.4140625 416.15234375 C113.76536194 416.40698395 113.11666138 416.66162415 112.44830322 416.92398071 C110.28255759 417.76912724 108.11279035 418.60304499 105.94140625 419.43359375 C105.17573334 419.72683533 104.41006042 420.0200769 103.6211853 420.32220459 C98.67785665 422.20750819 93.72068571 424.05176062 88.75146484 425.86767578 C87.03495676 426.49855716 85.32109042 427.13667006 83.60986328 427.78173828 C60.72829677 436.39980977 60.72829677 436.39980977 49.78125 431.51953125 C41.80201753 426.80992058 38.97905708 419.86569346 35.94140625 411.43359375 C35.54695312 410.40621094 35.1525 409.37882812 34.74609375 408.3203125 C31.94140625 400.91632976 31.94140625 400.91632976 31.94140625 397.43359375 C23.03140625 397.43359375 14.12140625 397.43359375 4.94140625 397.43359375 C4.61140625 399.41359375 4.28140625 401.39359375 3.94140625 403.43359375 C0.77183114 414.17810216 -2.93305874 425.53337598 -13.05859375 431.43359375 C-18.98487887 434.5255686 -26.54857303 434.26275113 -32.95654297 432.74902344 C-36.02622064 431.76676772 -39.04052836 430.68952247 -42.05859375 429.55859375 C-43.16710693 429.15584229 -44.27562012 428.75309082 -45.41772461 428.33813477 C-47.76258773 427.48403683 -50.1049221 426.62296801 -52.44482422 425.75537109 C-56.09432165 424.42052586 -59.76126062 423.14975766 -63.4375 421.890625 C-65.83237959 421.05177508 -68.22692116 420.21195939 -70.62109375 419.37109375 C-71.73162109 418.99678223 -72.84214844 418.6224707 -73.98632812 418.23681641 C-82.40946122 415.20854845 -88.82181101 410.98531947 -94.05859375 403.62109375 C-97.19658546 393.61874517 -95.60007394 386.11217316 -92.05859375 376.43359375 C-91.59599214 375.12167935 -91.1350981 373.80916178 -90.67578125 372.49609375 C-89.49353066 369.13325693 -88.28322714 365.78125961 -87.05859375 362.43359375 C-87.61546875 362.18351562 -88.17234375 361.9334375 -88.74609375 361.67578125 C-91.44742444 360.22472861 -93.67377694 358.48535123 -96.05859375 356.55859375 C-97.32703125 355.54152344 -97.32703125 355.54152344 -98.62109375 354.50390625 C-101.05859375 352.43359375 -101.05859375 352.43359375 -103.05859375 350.11328125 C-104.90771769 348.20630377 -104.90771769 348.20630377 -107.28515625 348.375 C-112.08898723 350.20857492 -116.29693687 353.03662695 -120.64453125 355.75195312 C-127.86791356 360.15692644 -134.6202589 362.79687106 -143.25390625 360.96875 C-152.93670811 358.19520167 -157.53816752 352.30482012 -162.3996582 343.72509766 C-163.3136438 342.06486572 -163.3136438 342.06486572 -164.24609375 340.37109375 C-165.22547341 338.63158206 -166.20486037 336.89207431 -167.18504333 335.15301514 C-168.17441235 333.39306009 -169.15765279 331.62980064 -170.13964844 329.86572266 C-173.0064992 324.73821782 -175.94168684 319.65051628 -178.87109375 314.55859375 C-179.83751387 312.8746016 -180.80248752 311.18977802 -181.765625 309.50390625 C-182.16241455 308.81055176 -182.5592041 308.11719727 -182.96801758 307.40283203 C-186.81215941 300.46151839 -188.02968418 294.08139806 -185.99609375 286.24609375 C-183.22324209 276.61494627 -174.89370432 272.10964621 -166.68359375 267.49609375 C-165.66136719 266.90763672 -164.63914063 266.31917969 -163.5859375 265.71289062 C-161.08334398 264.27448407 -158.57447922 262.84857983 -156.05859375 261.43359375 C-156.27515625 260.29921875 -156.49171875 259.16484375 -156.71484375 257.99609375 C-156.99646677 256.47532945 -157.27769571 254.95449213 -157.55859375 253.43359375 C-157.70167969 252.68980469 -157.84476563 251.94601563 -157.9921875 251.1796875 C-158.90491943 246.1813936 -159.19716094 241.51439059 -159.05859375 236.43359375 C-159.59484375 236.39621094 -160.13109375 236.35882813 -160.68359375 236.3203125 C-188.22096222 234.01043455 -188.22096222 234.01043455 -196.43359375 224.99609375 C-202.38730176 217.82836148 -201.77653589 209.23889986 -201.05859375 200.43359375 C-200.16924135 193.15000859 -198.84523999 185.93958317 -197.48803711 178.73095703 C-196.8677248 175.4155878 -196.28137379 172.09535422 -195.69726562 168.7734375 C-195.30540237 166.63895165 -194.91159116 164.50482229 -194.515625 162.37109375 C-194.34456741 161.39076172 -194.17350983 160.41042969 -193.99726868 159.40039062 C-192.25197036 150.38538644 -188.77673348 143.73035631 -181.05859375 138.43359375 C-172.90868884 134.23156377 -165.13008146 135.19742444 -156.43359375 136.93359375 C-151.56287477 137.89560408 -147.05606404 138.62277244 -142.05859375 138.43359375 C-140.37800289 135.52474127 -138.71664266 132.60534481 -137.05859375 129.68359375 C-136.58164063 128.85859375 -136.1046875 128.03359375 -135.61328125 127.18359375 C-135.16210938 126.384375 -134.7109375 125.58515625 -134.24609375 124.76171875 C-133.82714844 124.02856445 -133.40820312 123.29541016 -132.9765625 122.54003906 C-131.79225842 120.20540197 -131.79225842 120.20540197 -132.05859375 116.43359375 C-133.72525415 114.20067745 -135.38719714 112.18003767 -137.24609375 110.12109375 C-138.26079686 108.95849738 -139.27383975 107.79444975 -140.28515625 106.62890625 C-140.76887695 106.07493164 -141.25259766 105.52095703 -141.75097656 104.95019531 C-147.67324312 98.08142761 -150.53799585 92.10704662 -150.3046875 82.953125 C-149.47341723 74.44250078 -145.03619141 68.85432774 -138.71484375 63.41796875 C-136.88049333 61.91811753 -135.03604805 60.43055798 -133.18359375 58.953125 C-129.73498959 56.19799016 -126.39849561 53.31875863 -123.05859375 50.43359375 C-98.15500315 29.02179437 -98.15500315 29.02179437 -84.609375 29.16015625 C-76.28689474 29.80105132 -71.36680948 34.34639458 -66.05859375 40.43359375 C-63.69943907 43.25904701 -61.37168145 46.10462383 -59.07421875 48.98046875 C-57.47767437 50.9235499 -55.87907122 52.70529235 -54.05859375 54.43359375 C-53.05699219 54.01207031 -52.05539063 53.59054688 -51.0234375 53.15625 C-49.68116287 52.60244439 -48.33870508 52.04908258 -46.99609375 51.49609375 C-46.33931641 51.21830078 -45.68253906 50.94050781 -45.00585938 50.65429688 C-40.65842456 48.87677427 -36.73366792 47.91386795 -32.05859375 47.43359375 C-32.08215942 46.17869141 -32.08215942 46.17869141 -32.10620117 44.8984375 C-32.1576838 41.75995215 -32.19511483 38.62168387 -32.22338867 35.48291016 C-32.24568783 33.47023127 -32.28383028 31.45774791 -32.32226562 29.4453125 C-32.3831953 21.36197622 -32.3149958 14.98772037 -27.48046875 8.2265625 C-26.92875 7.69675781 -26.37703125 7.16695313 -25.80859375 6.62109375 C-25.2671875 6.07839844 -24.72578125 5.53570312 -24.16796875 4.9765625 C-16.64249115 -0.52818501 -9.0143075 -0.02450301 0 0 Z " fill="#FFFFFF" transform="translate(201.05859375,-0.43359375)"/>
<path d="M0 0 C2.02265881 1.04680598 3.39453405 2.11170676 5.01096344 3.71640587 C5.60689804 4.30099068 6.20283264 4.88557549 6.81682587 5.48787498 C7.77943832 6.45488335 7.77943832 6.45488335 8.7614975 7.44142723 C9.44643784 8.11789803 10.13137817 8.79436882 10.83707428 9.49133873 C13.1006198 11.7314687 15.35277509 13.98264832 17.60402679 16.2351284 C19.16982691 17.79383124 20.73592691 19.35223288 22.30231476 20.91034508 C25.58331672 24.17789277 28.85830839 27.45133016 32.12966156 30.72853661 C36.3309251 34.9357058 40.55017089 39.12431727 44.77452564 43.30828381 C48.01295647 46.52092264 51.2399063 49.7449022 54.4636364 52.97228622 C56.01509743 54.52204895 57.57056734 56.0678088 59.13002205 57.60952759 C61.30440091 59.76187984 63.46244394 61.92938025 65.61696625 64.10158348 C66.26882904 64.74018303 66.92069183 65.37878258 67.59230804 66.03673363 C68.17414352 66.62977791 68.755979 67.22282219 69.35544586 67.83383751 C69.86737645 68.34505559 70.37930704 68.85627367 70.90675068 69.38298321 C71.86574554 70.96559715 71.86574554 70.96559715 71.63542295 72.83169883 C70.69408288 75.4415247 69.47200481 76.73203806 67.509902 78.69058418 C66.4253211 79.7841248 66.4253211 79.7841248 65.31882948 80.89975715 C64.11505929 82.09041954 64.11505929 82.09041954 62.88697052 83.30513573 C62.04082076 84.15384876 61.19467099 85.0025618 60.32288033 85.87699342 C57.97038008 88.23358706 55.61131941 90.58324793 53.24928105 92.93025851 C50.70465996 95.46194325 48.16869484 98.00227212 45.63167572 100.54157066 C41.23416244 104.9406582 36.83118281 109.33421271 32.42445946 113.72407341 C26.05306353 120.07110453 19.68995221 126.42638796 13.32884265 132.78372625 C3.00854127 143.09745918 -7.31844402 153.40447266 -17.64963531 163.70729637 C-27.68634883 173.71647948 -37.7199116 183.72880368 -47.74924469 193.74538231 C-48.36729005 194.3626395 -48.98533541 194.97989669 -49.62210942 195.61585864 C-52.72259309 198.71242724 -55.82301482 201.80905784 -58.92340577 204.90571928 C-84.65076014 230.60196553 -110.38896349 256.28732238 -136.13425446 281.96559715 C-139.32366595 280.44682978 -141.46672282 278.87618958 -143.94675446 276.34059715 C-144.57194977 275.70895653 -145.19714508 275.0773159 -145.84128571 274.42653465 C-147.66631974 272.46780988 -149.40908754 270.48094574 -151.14842987 268.44801903 C-155.61310358 263.33990371 -160.39556698 258.57196716 -165.20041656 253.78590965 C-166.19672541 252.78988351 -167.19281287 251.79363588 -168.18869781 250.7971859 C-170.86984862 248.11575033 -173.55405265 245.43739073 -176.23885036 242.75960732 C-179.0526788 239.95206625 -181.86364097 237.14165828 -184.67491913 234.33156395 C-189.98861571 229.0209649 -195.3048543 223.71291825 -200.62202984 218.40580273 C-206.67968826 212.35935467 -212.73447856 206.31003796 -218.78903949 200.26048851 C-231.23427451 187.8256821 -243.6830745 175.39445075 -256.13425446 162.96559715 C-254.83430749 160.10203618 -253.46047372 158.04333535 -251.23627472 155.82710838 C-250.64453461 155.23261894 -250.05279449 154.6381295 -249.44312286 154.02562523 C-248.79576172 153.38545464 -248.14840057 152.74528404 -247.48142242 152.08571434 C-246.79838043 151.40238029 -246.11533844 150.71904625 -245.41159821 150.01500511 C-243.15458807 147.7593874 -240.89057815 145.51093494 -238.62644196 143.26247215 C-237.0594476 141.69920823 -235.49289446 140.13550192 -233.92676544 138.57137108 C-229.80477304 134.4570127 -225.67680961 130.34869595 -221.54758453 126.24159813 C-217.33457861 122.0490555 -213.12723287 117.85084127 -208.91941071 113.65309715 C-200.66322956 105.41836187 -192.40073089 97.18999651 -184.13425446 88.96559715 C-180.68645612 90.59533443 -178.43424036 92.42267016 -175.73288727 95.13991356 C-174.87229706 96.00065483 -174.01170685 96.8613961 -173.12503815 97.74822044 C-172.20511078 98.67847038 -171.28518341 99.60872032 -170.33737946 100.56715965 C-169.37946348 101.52880802 -168.42110331 102.49001409 -167.46231842 103.45079613 C-164.9459032 105.97482997 -162.43555338 108.50481307 -159.92642975 111.03609276 C-157.36263005 113.62038906 -154.79312528 116.19899914 -152.22409821 118.77809715 C-147.18855989 123.83505412 -142.15940885 128.89831972 -137.13425446 133.96559715 C-130.18056191 128.28473076 -123.96233624 121.89014054 -117.65305328 115.51857567 C-116.39770019 114.25474505 -115.14208292 112.99117679 -113.88622284 111.72784996 C-111.19334816 109.01832188 -108.50186502 106.30742173 -105.81132698 103.59557343 C-101.55892797 99.3104673 -97.30049452 95.03139312 -93.0406723 90.75366783 C-92.32080621 90.03071528 -91.60094012 89.30776272 -90.8592599 88.56290251 C-89.3881012 87.08543692 -87.91693391 85.60797987 -86.44575822 84.13053119 C-76.53568164 74.17746316 -66.6302085 64.21988027 -56.73899078 54.24806786 C-50.05597136 47.51068844 -43.36419927 40.78214063 -36.66213435 34.06370491 C-33.11743503 30.5096118 -29.5775107 26.9510289 -26.04829597 23.38155365 C-22.73547908 20.03104638 -19.41135885 16.69219756 -16.07801628 13.36211395 C-14.85457564 12.13569011 -13.63545242 10.90494251 -12.42092133 9.6696949 C-10.76771483 7.98954017 -9.09997475 6.32532901 -7.42754364 4.66434288 C-6.94592846 4.16748138 -6.46431328 3.67061987 -5.96810371 3.15870196 C-2.69797717 -0.0434897 -2.69797717 -0.0434897 0 0 Z M-4.88096607 42.47745663 C-5.39379898 42.99952582 -5.90663189 43.52159501 -6.43500519 44.05948448 C-6.98108779 44.60738606 -7.52717039 45.15528765 -8.08980095 45.71979231 C-9.93082896 47.56927927 -11.76461552 49.4257876 -13.59860992 51.28224754 C-14.91213077 52.60451176 -16.2261272 53.92630367 -17.54056549 55.24765587 C-20.37630275 58.09991999 -23.20905885 60.95510166 -26.03970718 63.81241608 C-30.51213467 68.3260743 -34.99367537 72.83060678 -39.47705841 77.33337975 C-52.22675987 90.14076949 -64.96649331 102.95801711 -77.69138336 115.79006004 C-84.71465939 122.87231943 -91.74678222 129.94566904 -98.78882515 137.00926965 C-103.25196659 141.48709529 -107.70377439 145.97580672 -112.14771628 150.47268307 C-114.91075555 153.26337335 -117.68412696 156.04360925 -120.46061707 158.82091141 C-121.75017465 160.11505537 -123.03540652 161.41352567 -124.31604385 162.71649742 C-126.0592791 164.48890442 -127.81708595 166.24542421 -129.57953644 167.99869347 C-130.0879079 168.52299338 -130.59627937 169.04729329 -131.12005603 169.58748108 C-132.5549221 170.99591732 -132.5549221 170.99591732 -135.13425446 172.96559715 C-139.02673793 172.82497238 -140.87130793 170.5926285 -143.53562164 167.90480614 C-144.39621185 167.04398933 -145.25680206 166.18317253 -146.14347076 165.29627037 C-147.06339813 164.36085915 -147.9833255 163.42544792 -148.93112946 162.4616909 C-149.88882665 161.49839639 -150.84718992 160.53576366 -151.80619049 159.57376671 C-154.32484676 157.04367232 -156.83436284 154.50469787 -159.34207916 151.9637661 C-161.90406177 149.37106038 -164.47458947 146.7868576 -167.04441071 144.20192528 C-172.08275286 139.13143725 -177.1114878 134.05151835 -182.13425446 128.96559715 C-185.03969318 130.27936632 -187.10086504 131.68616207 -189.34226227 133.94655418 C-189.9425827 134.54702568 -190.54290314 135.14749718 -191.1614151 135.76616478 C-191.79698334 136.41205559 -192.43255157 137.0579464 -193.08737946 137.72340965 C-193.74760101 138.38646111 -194.40782257 139.04951256 -195.08805084 139.73265648 C-197.19153269 141.84731547 -199.28794587 143.96882928 -201.38425446 146.09059715 C-202.81087706 147.52725272 -204.23795517 148.96345613 -205.66550446 150.3991909 C-209.16039106 153.9161052 -212.64895507 157.43918262 -216.13425446 160.96559715 C-214.78748528 163.96583663 -213.29513545 166.05279721 -210.97052765 168.36983299 C-210.31988846 169.02322151 -209.66924927 169.67661003 -208.99889374 170.3497982 C-208.28607742 171.05542397 -207.57326111 171.76104973 -206.8388443 172.48805809 C-206.08752731 173.23966713 -205.33621033 173.99127617 -204.56212616 174.76566124 C-202.07785933 177.24853486 -199.58658351 179.72424945 -197.09519196 182.19997215 C-195.37125597 183.92017799 -193.64776104 185.64082595 -191.92469025 187.36189842 C-187.38841195 191.89054047 -182.84615952 196.4131443 -178.30265045 200.93453026 C-173.66738493 205.54933729 -169.03777583 210.16981111 -164.40769196 214.7898159 C-155.3220834 223.85397466 -146.23021496 232.91182752 -137.13425446 241.96559715 C-132.23470481 237.85443058 -127.61472905 233.58772939 -123.10436249 229.0559597 C-122.43276248 228.38521412 -121.76116247 227.71446853 -121.06921095 227.02339733 C-118.83599061 224.79181443 -116.6063458 222.5566942 -114.3766861 220.32155418 C-112.76997757 218.71456338 -111.16304841 217.10779314 -109.55591583 215.50122643 C-105.20505379 211.15065079 -100.85727762 206.79700313 -96.51005483 202.44279146 C-91.96213704 197.88861413 -87.41137923 193.33727647 -82.86092377 188.78563499 C-75.2273578 181.14931603 -67.59553935 173.51125523 -59.965065 165.87184715 C-52.10816885 158.00576179 -44.2502155 150.140735 -36.39084625 142.27712059 C-35.90580504 141.79181665 -35.42076382 141.30651271 -34.92102439 140.8065026 C-32.48753246 138.37170556 -30.05401981 135.93692922 -27.62049687 133.50216317 C-7.45520432 113.32651615 12.70642422 93.14721046 32.86574554 72.96559715 C31.48549953 70.10022406 30.16738772 68.01530524 27.91652679 65.75758934 C27.32251068 65.15726891 26.72849457 64.55694847 26.11647797 63.93843651 C25.47686127 63.30286827 24.83724457 62.66730003 24.17824554 62.01247215 C23.51993744 61.3522506 22.86162933 60.69202904 22.1833725 60.01180077 C20.79382263 58.62089214 19.4017528 57.23249707 18.00734711 55.84645653 C15.86665268 53.71649974 13.73686645 51.57605219 11.60793304 49.43434715 C10.25701167 48.08474676 8.90547036 46.73576656 7.55324554 45.38747215 C6.5938205 44.42197441 6.5938205 44.42197441 5.61501312 43.43697166 C0.4308686 38.21020966 0.4308686 38.21020966 -4.88096607 42.47745663 Z " fill="#FFFFFF" transform="translate(506.1342544555664,129.03440284729004)"/>
<path d="M0 0 C24.42823422 -0.72379953 47.0980317 8.10004605 64.89624023 24.72851562 C78.77793381 38.38371227 88.48240076 57.64897376 90.1640625 77.15625 C90.35432007 78.01659348 90.54457764 78.87693695 90.74060059 79.76335144 C91.34941766 84.28045889 91.44516821 88.0979361 88.96014404 92.09054947 C84.68588782 97.51015009 79.61165281 102.19754529 74.6328125 106.95703125 C73.03814893 108.52742417 71.44634931 110.10073015 69.8572998 111.67680359 C65.68335924 115.80129689 61.47187332 119.88524901 57.25115967 123.96179199 C52.94470668 128.13484623 48.67518466 132.3453194 44.40234375 136.55273438 C36.02517864 144.79081208 27.60784479 152.98650537 19.1640625 161.15625 C20.3474666 163.70430026 21.26918697 165.26137447 23.2890625 167.28125 C25.1640625 169.15625 25.1640625 169.15625 25.1640625 171.15625 C4.67106671 177.38672125 -18.83027564 173.6715894 -37.6484375 164.09375 C-59.30574908 152.29298623 -73.90616904 132.63890669 -80.8359375 109.15625 C-87.45577493 86.52403094 -82.04758183 62.33950962 -71.2109375 42.125 C-59.67081437 22.8174863 -40.62406938 8.50254349 -18.8984375 2.71875 C-12.52902246 1.20792742 -6.51168399 0.35877047 0 0 Z M-18.8359375 32.15625 C-19.71507812 32.51847656 -20.59421875 32.88070312 -21.5 33.25390625 C-35.50550574 39.64960934 -45.92640544 51.05830633 -51.83984375 65.23828125 C-57.51459436 81.86196246 -57.21896428 97.37983552 -49.7109375 113.40625 C-46.25932531 119.90168898 -42.09564492 125.04817378 -36.8359375 130.15625 C-36.29582031 130.71699219 -35.75570312 131.27773438 -35.19921875 131.85546875 C-25.08592274 141.561176 -10.20599557 146.13861293 3.4765625 146.59375 C22.20163932 146.15293448 36.49413982 138.38807197 49.1640625 125.15625 C59.34762392 113.35299965 63.78203109 98.10999659 63.0390625 82.65625 C61.18910228 65.18673925 53.39595428 51.55187925 40.1640625 40.15625 C27.36449184 29.94362122 12.3901551 26.70244798 -3.65722656 27.90820312 C-9.02137895 28.51891344 -13.87668585 30.0842339 -18.8359375 32.15625 Z " fill="#FFFFFF" transform="translate(215.8359375,128.84375)"/>
<path d="M0 0 C-1.41490359 3.20576911 -3.11300792 5.37004041 -5.57592773 7.85058594 C-6.30686142 8.59105164 -7.0377951 9.33151733 -7.7908783 10.09442139 C-8.5804744 10.88310608 -9.3700705 11.67179077 -10.18359375 12.484375 C-10.9949025 13.29996887 -11.80621124 14.11556274 -12.6421051 14.95587158 C-14.35691258 16.67641806 -16.07434175 18.39435498 -17.79418945 20.10986328 C-20.43263714 22.74514298 -23.05747137 25.39347964 -25.68164062 28.04296875 C-27.34814745 29.71174767 -29.01543868 31.37974371 -30.68359375 33.046875 C-31.86495155 34.24204742 -31.86495155 34.24204742 -33.07017517 35.46136475 C-33.80426102 36.1892218 -34.53834686 36.91707886 -35.29467773 37.66699219 C-35.93928452 38.31222839 -36.5838913 38.9574646 -37.24803162 39.62225342 C-39 41 -39 41 -42 41 C-41.01 29.78 -40.02 18.56 -39 7 C-30.61350763 5.06465561 -22.34120587 3.25153102 -13.875 1.8125 C-12.86179687 1.63525391 -11.84859375 1.45800781 -10.8046875 1.27539062 C-3.39855816 0 -3.39855816 0 0 0 Z " fill="#FFFFFF" transform="translate(410,206)"/>
</svg>
