<?xml version="1.0" encoding="UTF-8"?>
<!DOCTYPE svg PUBLIC "-//W3C//DTD SVG 1.1//EN" "http://www.w3.org/Graphics/SVG/1.1/DTD/svg11.dtd">
<!-- Creator: CorelDRAW 2020 (64 Bit) -->
<svg xmlns="http://www.w3.org/2000/svg" xml:space="preserve" width="42.3332mm" height="42.3332mm" version="1.1" style="shape-rendering:geometricPrecision; text-rendering:geometricPrecision; image-rendering:optimizeQuality; fill-rule:evenodd; clip-rule:evenodd"
viewBox="0 0 4233.32 4233.32"
 xmlns:xlink="http://www.w3.org/1999/xlink"
 xmlns:xodm="http://www.corel.com/coreldraw/odm/2003">
 <defs>
  <style type="text/css">
   <![CDATA[
    .fil0 {fill:white}
   ]]>
  </style>
 </defs>
 <g id="Camada_x0020_1">
  <metadata id="CorelCorpID_0Corel-Layer"/>
  <g id="_1407768925328">
   <g id="_1984556415040">
    <g id="_2186822732480">
     <g id="_2002560243568">
      <path class="fil0" d="M910.3 2203.94l22.98 -730.2c30.02,-179.11 108.38,-323.77 252.31,-427.98 27.19,-19.69 52.13,-35.07 86.31,-51.36 64.21,-30.6 129.68,-51.19 210.9,-64.46 146.38,-23.92 647.74,-21.39 828.58,-21.8l393.58 19.45c82.75,11.8 150.7,33.51 213.72,61.64 55.55,24.78 119.8,68.7 164.29,111.07 181.34,172.65 197.04,393.44 199.92,626.13 0.59,48.36 8.76,72.41 8.47,129.21l0 486.03c0.29,56.8 -7.88,80.85 -8.47,129.2 -2.07,167 -6.27,324.32 -83.23,467.48 -14.26,26.53 -35.69,63.04 -52.89,84.79 -60.59,76.65 -132.43,140.74 -222.54,182.39 -173.95,80.39 -289.17,69.69 -475.45,75.26l-952.19 -11.01c-82.56,-11.84 -150.72,-33.61 -213.66,-61.7 -55.55,-24.78 -119.8,-68.7 -164.29,-111.07 -181.34,-172.65 -197.04,-393.45 -199.91,-626.14 -0.6,-48.35 -8.77,-72.4 -8.48,-129.2 0.24,-45.9 0.05,-91.83 0.05,-137.73zm1108.13 -2178.54l173.07 0c142,5.85 283.9,26.12 422.88,61.43 68.3,17.35 132.61,37.65 192.04,59.01 57.48,20.66 125.86,47.99 177.17,73.9 303.48,153.23 559.55,342.75 762.42,614.35 95,127.19 164.89,237.99 236.49,387.11 147.08,306.32 191.56,577.29 191.56,950.34 0,412.24 -167.97,824.35 -380.58,1125.78 -210.29,298.12 -484.87,524.41 -815.22,683.03 -307.06,147.44 -576.41,191.56 -950.35,191.56 -285.3,0 -618.16,-99.77 -809.98,-194.25 -216.2,-106.5 -415.54,-241.66 -585.01,-411.12 -203.52,-203.53 -390.62,-491.61 -487.02,-768.26 -99.34,-285.06 -118.35,-456.07 -118.35,-764.41 0,-220.14 50.55,-440.27 118.35,-634.84 55.27,-158.63 123.54,-282.49 209.02,-422.67 16.18,-26.55 30.39,-47.77 48.57,-72.9 155.94,-215.56 289.1,-345.84 503.38,-500.86 318.99,-230.78 710.99,-360.81 1111.56,-377.2z"/>
      <path class="fil0" d="M1493.4 2122.95l0 -48.59c0,-304.72 278.39,-583.11 583.11,-583.11 196.24,0 340.38,59.92 455.7,176 380.22,382.72 100.36,1038.81 -407.11,1038.81l-48.59 0c-304.72,0 -583.11,-278.39 -583.11,-583.11zm1101.43 -655.99c0,-195.38 283.45,-183.42 283.45,-8.1 0,195.38 -283.45,183.42 -283.45,8.1zm-1473.96 445.42c0,211.41 -6.35,549.79 15.45,745.83 18.36,165.1 94.9,292.52 232.73,358.47 38.27,18.31 105.36,38.87 149.87,44.5 207.64,26.22 944,24.34 1156.39,0.72 113.32,-12.61 204.93,-61.63 269.94,-126.9 66.96,-67.24 103.05,-154.7 118.94,-269.8 25.47,-184.48 22.46,-933.93 1.1,-1126.1 -18.36,-165.1 -94.9,-292.52 -232.73,-358.47 -184.68,-88.36 -711.36,-61.92 -934.22,-61.92 -319.84,0 -715.74,-16.29 -761.38,412.94 -12.49,117.39 -16.09,251.69 -16.09,380.73z"/>
      <path class="fil0" d="M1703.97 2066.26c0,131.63 17.69,216.39 115.26,313.97 155.18,155.18 406.79,156.14 563.15,0 260.6,-260.26 44.34,-678.41 -249.18,-678.41 -131.52,0 -216.56,17.73 -313.97,115.26 -52.35,52.42 -115.26,148.78 -115.26,249.18z"/>
     </g>
    </g>
   </g>
  </g>
 </g>
</svg>
