<?xml version="1.0" encoding="UTF-8"?>
<svg version="1.1" xmlns="http://www.w3.org/2000/svg" width="512" height="512">
<path d="M0 0 C1.06387707 -0.00297112 2.12775415 -0.00594224 3.22386992 -0.0090034 C6.78317593 -0.01766391 10.34244821 -0.01919643 13.90176392 -0.02069092 C16.45646232 -0.02532108 19.01116002 -0.03034601 21.56585693 -0.03573608 C28.50437938 -0.04884574 35.44289076 -0.05533986 42.38142347 -0.05974674 C46.72093419 -0.06251541 51.06044271 -0.06675398 55.39995193 -0.07125092 C67.43392229 -0.08344156 79.46789089 -0.09373999 91.50186729 -0.09712601 C92.27135904 -0.09734557 93.04085078 -0.09756514 93.83366046 -0.09779136 C94.60491733 -0.09800964 95.37617419 -0.09822791 96.17080247 -0.09845281 C97.73346671 -0.09889626 99.29613094 -0.09934282 100.85879517 -0.09979248 C102.02148009 -0.10012463 102.02148009 -0.10012463 103.2076536 -0.10046348 C115.74727875 -0.10440544 128.28684559 -0.12184197 140.82644825 -0.145152 C153.7258458 -0.16893554 166.62521419 -0.1813311 179.524634 -0.18249393 C186.75688647 -0.18340697 193.989063 -0.18906495 201.2212944 -0.20731354 C208.03228143 -0.22443947 214.84312286 -0.2259151 221.65412521 -0.21717453 C224.14323309 -0.21640789 226.63234891 -0.2206972 229.12143707 -0.23063278 C267.91995158 -0.3763215 303.84815891 10.73311903 332.32608032 38.14044189 C332.83671021 38.61997314 333.34734009 39.09950439 333.8734436 39.59356689 C357.25149931 61.589908 375.10110699 94.86692801 376.42077112 127.48059344 C376.46055663 130.25893018 376.46896046 133.03573744 376.46652222 135.81436157 C376.4709789 137.41017718 376.4709789 137.41017718 376.47552562 139.03823149 C376.48418613 142.59753751 376.48571865 146.15680978 376.48721313 149.71612549 C376.4918433 152.27082389 376.49686823 154.8255216 376.5022583 157.38021851 C376.51536796 164.31874095 376.52186208 171.25725233 376.52626896 178.19578505 C376.52903762 182.53529577 376.5332762 186.87480428 376.53777313 191.21431351 C376.54996378 203.24828387 376.56026221 215.28225247 376.56364822 227.31622887 C376.56386779 228.08572061 376.56408736 228.85521236 376.56431358 229.64802203 C376.56453185 230.4192789 376.56475013 231.19053576 376.56497502 231.98516405 C376.56541848 233.54782828 376.56586504 235.11049251 376.5663147 236.67315674 C376.56653613 237.44828002 376.56675756 238.2234033 376.5669857 239.02201517 C376.57092766 251.56164033 376.58836418 264.10120716 376.61167422 276.64080982 C376.63545776 289.54020737 376.64785332 302.43957576 376.64901614 315.33899558 C376.64992919 322.57124804 376.65558717 329.80342457 376.67383575 337.03565598 C376.69096169 343.846643 376.69243732 350.65748444 376.68369675 357.46848679 C376.6829301 359.95759466 376.68721941 362.44671048 376.697155 364.93579865 C376.84284371 403.73431315 365.73340319 439.66252048 338.32608032 468.14044189 C337.84654907 468.65107178 337.36701782 469.16170166 336.87295532 469.68780518 C314.87661422 493.06586089 281.59959421 510.91546856 248.98592877 512.23513269 C246.20759203 512.2749182 243.43078477 512.28332204 240.65216064 512.28088379 C239.05634503 512.28534047 239.05634503 512.28534047 237.42829072 512.28988719 C233.86898471 512.2985477 230.30971244 512.30008022 226.75039673 512.30157471 C224.19569833 512.30620487 221.64100062 512.3112298 219.08630371 512.31661987 C212.14778127 512.32972953 205.20926989 512.33622365 198.27073717 512.34063053 C193.93122645 512.3433992 189.59171794 512.34763777 185.25220871 512.3521347 C173.21823835 512.36432535 161.18426975 512.37462378 149.15029335 512.3780098 C148.38080161 512.37822936 147.61130986 512.37844893 146.81850018 512.37867515 C146.04724332 512.37889343 145.27598645 512.3791117 144.48135817 512.3793366 C142.91869394 512.37978005 141.35602971 512.38022661 139.79336548 512.38067627 C138.63068056 512.38100841 138.63068056 512.38100841 137.44450705 512.38134727 C124.90488189 512.38528923 112.36531506 512.40272576 99.8257124 512.42603579 C86.92631484 512.44981933 74.02694646 512.46221489 61.12752664 512.46337771 C53.89527418 512.46429076 46.66309764 512.46994874 39.43086624 512.48819733 C32.61987922 512.50532326 25.80903778 512.50679889 18.99803543 512.49805832 C16.50892755 512.49729168 14.01981174 512.50158099 11.53072357 512.51151657 C-27.26779094 512.65720529 -63.19599826 501.54776476 -91.67391968 474.14044189 C-92.18454956 473.66091064 -92.69517944 473.18137939 -93.22128296 472.68731689 C-116.59933867 450.69097579 -134.44894635 417.41395578 -135.76861048 384.80029035 C-135.80839599 382.02195361 -135.81679982 379.24514634 -135.81436157 376.46652222 C-135.81733269 375.40264514 -135.82030382 374.33876807 -135.82336497 373.2426523 C-135.83202548 369.68334628 -135.833558 366.12407401 -135.83505249 362.5647583 C-135.83968265 360.0100599 -135.84470758 357.45536219 -135.85009766 354.90066528 C-135.86320731 347.96214284 -135.86970144 341.02363146 -135.87410831 334.08509874 C-135.87687698 329.74558802 -135.88111556 325.40607951 -135.88561249 321.06657028 C-135.89780314 309.03259992 -135.90810156 296.99863132 -135.91148758 284.96465492 C-135.91170715 284.19516318 -135.91192671 283.42567143 -135.91215293 282.63286176 C-135.91237121 281.86160489 -135.91258949 281.09034803 -135.91281438 280.29571974 C-135.91325783 278.73305551 -135.9137044 277.17039128 -135.91415405 275.60772705 C-135.91437548 274.83260377 -135.91459691 274.05748049 -135.91482505 273.25886862 C-135.91876702 260.71924346 -135.93620354 248.17967663 -135.95951357 235.64007397 C-135.98329712 222.74067642 -135.99569267 209.84130803 -135.9968555 196.94188821 C-135.99776855 189.70963575 -136.00342652 182.47745922 -136.02167511 175.24522781 C-136.03880104 168.43424079 -136.04027667 161.62339935 -136.0315361 154.812397 C-136.03076946 152.32328913 -136.03505877 149.83417331 -136.04499435 147.34508514 C-136.19068307 108.54657063 -125.08124254 72.61836331 -97.67391968 44.14044189 C-97.19438843 43.62981201 -96.71485718 43.11918213 -96.22079468 42.59307861 C-71.67721836 16.50778144 -36.00934532 -0.03159825 0 0 Z M-69.58407593 82.49200439 C-87.10196203 104.69224136 -90.29501791 128.62083403 -90.1914978 155.94512939 C-90.1969309 158.38013118 -90.20406016 160.81512968 -90.21273804 163.25012207 C-90.22896255 169.13012346 -90.22675652 175.00993637 -90.21508747 180.88993216 C-90.2059888 185.6762315 -90.20485664 190.46247375 -90.20918274 195.2487793 C-90.20979567 195.93455956 -90.2104086 196.62033983 -90.21104011 197.32690132 C-90.21231924 198.72081329 -90.2136161 200.11472525 -90.21493047 201.50863719 C-90.22628886 214.52565849 -90.21329755 227.54256642 -90.19172901 240.55956912 C-90.17386234 251.68619277 -90.17696779 262.81264938 -90.19540405 273.93927002 C-90.21689517 286.9152939 -90.22519067 299.89121887 -90.212955 312.86725807 C-90.21168104 314.2555402 -90.21042355 315.64382234 -90.20918274 317.03210449 C-90.20856564 317.71485376 -90.20794854 318.39760303 -90.20731273 319.10104167 C-90.20388443 323.87182899 -90.20963318 328.64255263 -90.21910095 333.41333008 C-90.23160618 339.85517863 -90.22248143 346.29678825 -90.19952393 352.73860931 C-90.19428141 355.08819818 -90.19567304 357.43781381 -90.20457458 359.78739166 C-90.30898638 390.17240495 -83.84292321 415.55488761 -62.05722046 437.74884033 C-41.99090771 457.93556512 -17.88777074 466.43214395 10.10905457 466.67564297 C13.44975944 466.68278144 16.79008383 466.67067645 20.13076782 466.65802002 C22.56576961 466.66345311 25.00076811 466.67058237 27.4357605 466.67926025 C33.31576189 466.69548477 39.1955748 466.69327874 45.07557058 466.68160969 C49.86186993 466.67251102 54.64811218 466.67137886 59.43441772 466.67570496 C60.46308812 466.67662435 60.46308812 466.67662435 61.51253974 466.67756233 C62.90645172 466.67884145 64.30036368 466.68013831 65.69427562 466.68145269 C78.71129692 466.69281107 91.72820485 466.67981976 104.74520755 466.65825123 C115.8718312 466.64038455 126.99828781 466.64349 138.12490845 466.66192627 C151.10093233 466.68341738 164.0768573 466.69171288 177.0528965 466.67947721 C178.44117862 466.67820325 179.82946076 466.67694577 181.21774292 466.67570496 C182.24186683 466.6747793 182.24186683 466.6747793 183.2866801 466.67383495 C188.05746742 466.67040665 192.82819106 466.6761554 197.59896851 466.68562317 C204.04081706 466.6981284 210.48242668 466.68900365 216.92424774 466.66604614 C219.27383661 466.66080363 221.62345223 466.66219525 223.97303009 466.6710968 C254.35804338 466.77550859 279.74052604 460.30944543 301.93447876 438.52374268 C322.12120355 418.45742993 330.61778238 394.35429296 330.86128139 366.35746765 C330.86841986 363.01676278 330.85631487 359.67643838 330.84365845 356.33575439 C330.84909154 353.9007526 330.8562208 351.46575411 330.86489868 349.03076172 C330.8811232 343.15076033 330.87891717 337.27094742 330.86724812 331.39095163 C330.85814944 326.60465229 330.85701729 321.81841004 330.86134338 317.03210449 C330.86226278 316.00343409 330.86226278 316.00343409 330.86320075 314.95398247 C330.86447988 313.5600705 330.86577674 312.16615854 330.86709112 310.7722466 C330.8784495 297.7552253 330.86545819 284.73831737 330.84388965 271.72131467 C330.82602298 260.59469102 330.82912843 249.46823441 330.8475647 238.34161377 C330.86905581 225.36558989 330.87735131 212.38966492 330.86511564 199.41362572 C330.86384168 198.02534359 330.86258419 196.63706145 330.86134338 195.2487793 C330.86072628 194.56603003 330.86010918 193.88328076 330.85947338 193.17984211 C330.85604507 188.4090548 330.86179383 183.63833116 330.8712616 178.86755371 C330.88376682 172.42570516 330.87464208 165.98409554 330.85168457 159.54227448 C330.84644205 157.1926856 330.84783368 154.84306998 330.85673523 152.49349213 C330.96114702 122.10847884 324.49508386 96.72599618 302.7093811 74.53204346 C282.64306836 54.34531867 258.53993138 45.84873984 230.54310608 45.60524082 C227.2024012 45.59810235 223.86207681 45.61020734 220.52139282 45.62286377 C218.08639103 45.61743068 215.65139254 45.61030142 213.21640015 45.60162354 C207.33639876 45.58539902 201.45658585 45.58760505 195.57659006 45.5992741 C190.79029072 45.60837277 186.00404846 45.60950493 181.21774292 45.60517883 C180.18907252 45.60425943 180.18907252 45.60425943 179.1396209 45.60332146 C177.74570893 45.60204234 176.35179697 45.60074548 174.95788503 45.5994311 C161.94086372 45.58807272 148.92395579 45.60106403 135.9069531 45.62263256 C124.78032945 45.64049924 113.65387284 45.63739379 102.5272522 45.61895752 C89.55122831 45.59746641 76.57530335 45.58917091 63.59926414 45.60140657 C62.21098202 45.60268054 60.82269988 45.60393802 59.43441772 45.60517883 C58.41029382 45.60610449 58.41029382 45.60610449 57.36548054 45.60704884 C52.59469323 45.61047714 47.82396958 45.60472839 43.05319214 45.59526062 C36.61134358 45.58275539 30.16973396 45.59188014 23.7279129 45.61483765 C21.37832403 45.62008016 19.02870841 45.61868854 16.67913055 45.60978699 C-18.61224424 45.4885155 -45.99394452 55.44653728 -69.58407593 82.49200439 Z " fill="#FFFFFF" transform="translate(135.67391967773438,-0.14044189453125)"/>
<path d="M0 0 C0.6574118 0.00248749 1.31482361 0.00497498 1.99215698 0.00753784 C12.39224502 0.06822617 22.20096566 0.512943 32.25 3.3125 C33.46792236 3.65112061 33.46792236 3.65112061 34.71044922 3.99658203 C69.54141002 14.02867492 98.20333096 35.84897888 116.18359375 67.453125 C121.86218945 77.82987756 126.35498088 88.83964643 129.25 100.3125 C129.69859375 102.06046875 129.69859375 102.06046875 130.15625 103.84375 C134.33626911 123.19569032 134.23778304 145.12562493 129.25 164.3125 C129.08371094 164.96250977 128.91742188 165.61251953 128.74609375 166.28222656 C123.65569219 185.65403249 114.22408972 203.09201312 101.25 218.3125 C100.43789063 219.2715625 99.62578125 220.230625 98.7890625 221.21875 C81.57369822 241.04211349 57.64401667 254.90466402 32.25 261.3125 C30.50203125 261.76109375 30.50203125 261.76109375 28.71875 262.21875 C9.36680968 266.39876911 -12.56312493 266.30028304 -31.75 261.3125 C-32.40000977 261.14621094 -33.05001953 260.97992188 -33.71972656 260.80859375 C-53.09153249 255.71819219 -70.52951312 246.28658972 -85.75 233.3125 C-87.18859375 232.09433594 -87.18859375 232.09433594 -88.65625 230.8515625 C-108.47961349 213.63619822 -122.34216402 189.70651667 -128.75 164.3125 C-129.0490625 163.1471875 -129.348125 161.981875 -129.65625 160.78125 C-133.83626911 141.42930968 -133.73778304 119.49937507 -128.75 100.3125 C-128.50056641 99.33748535 -128.50056641 99.33748535 -128.24609375 98.34277344 C-123.15569219 78.97096751 -113.72408972 61.53298688 -100.75 46.3125 C-99.93789062 45.3534375 -99.12578125 44.394375 -98.2890625 43.40625 C-81.87999144 24.51132712 -59.89144853 11.69793358 -36.0625 4.5 C-35.4226416 4.3050293 -34.7827832 4.11005859 -34.12353516 3.90917969 C-22.90688738 0.72049115 -11.61262182 -0.05290998 0 0 Z M-63.75 74.3125 C-80.37566718 93.29392133 -87.18186181 116.3503757 -85.75 141.3125 C-83.54599186 163.68797398 -71.75650123 184.04432346 -55.01171875 198.7109375 C-35.9044269 213.86232183 -12.95515566 220.49973161 11.30224609 218.11035156 C34.11563988 215.04853877 54.71156555 202.62771427 68.9375 184.6875 C82.68143963 165.47554138 88.95033872 142.88652146 85.7890625 119.33203125 C81.5967925 95.92930048 68.9980638 75.33803795 49.578125 61.4453125 C12.65631468 37.78415237 -33.24851627 42.34732278 -63.75 74.3125 Z " fill="#FFFFFF" transform="translate(255.75,123.6875)"/>
<path d="M0 0 C7.37014349 6.27624464 11.43159585 13.47824967 12.453125 23.05078125 C12.88586606 33.14807255 10.59858329 41.71456423 4.29296875 49.73046875 C-2.72516159 57.03287779 -11.64402227 60.5456799 -21.7578125 60.890625 C-31.45806137 60.32809289 -40.29663574 57.08453054 -46.89453125 49.79296875 C-54.49628488 40.17227362 -55.88632733 30.91068239 -54.89453125 18.79296875 C-53.23375385 11.04617796 -48.90086738 4.87749239 -42.89453125 -0.20703125 C-28.67514087 -8.98579885 -13.95545878 -10.00347046 0 0 Z " fill="#FFFFFF" transform="translate(414.89453125,92.20703125)"/>
</svg>
