<?xml version="1.0" encoding="UTF-8"?>
<!DOCTYPE svg PUBLIC "-//W3C//DTD SVG 1.1//EN" "http://www.w3.org/Graphics/SVG/1.1/DTD/svg11.dtd">
<svg xmlns="http://www.w3.org/2000/svg" version="1.1" width="512px" height="512px" style="shape-rendering:geometricPrecision; text-rendering:geometricPrecision; image-rendering:optimizeQuality; fill-rule:evenodd; clip-rule:evenodd" xmlns:xlink="http://www.w3.org/1999/xlink">
<g><path style="opacity:0.991" fill="#b38f15" d="M 235.5,-0.5 C 248.833,-0.5 262.167,-0.5 275.5,-0.5C 359.034,12.0247 415.2,58.0247 444,137.5C 458.236,182.862 454.902,226.862 434,269.5C 414.948,308.627 392.614,345.627 367,380.5C 332.962,426.384 296.128,470.051 256.5,511.5C 255.833,511.5 255.167,511.5 254.5,511.5C 205.67,460.188 161.17,405.522 121,347.5C 98.4789,314.461 80.1456,279.128 66,241.5C 52.07,191.397 58.07,143.731 84,98.5C 118.528,41.3038 169.028,8.30381 235.5,-0.5 Z M 246.5,115.5 C 281.174,113.751 307.674,127.418 326,156.5C 343.724,193.32 338.557,226.486 310.5,256C 277.063,282.673 242.397,284.339 206.5,261C 176.222,234.727 167.722,202.56 181,164.5C 194.432,136.874 216.265,120.541 246.5,115.5 Z"/></g>
</svg>
