<?xml version="1.0" standalone="no"?>
<!DOCTYPE svg PUBLIC "-//W3C//DTD SVG 20010904//EN"
 "http://www.w3.org/TR/2001/REC-SVG-20010904/DTD/svg10.dtd">
<svg version="1.0" xmlns="http://www.w3.org/2000/svg"
 width="512.000000pt" height="512.000000pt" viewBox="0 0 512.000000 512.000000"
 preserveAspectRatio="xMidYMid meet">

<g transform="translate(0.000000,512.000000) scale(0.100000,-0.100000)"
fill="#000000" stroke="none">
<path d="M2348 5106 c-127 -35 -225 -149 -248 -287 -6 -41 -10 -382 -10 -926
l0 -863 -862 0 c-545 0 -886 -4 -927 -10 -120 -20 -215 -90 -268 -198 -28 -57
-28 -58 -28 -262 0 -204 0 -205 28 -262 53 -108 148 -178 268 -198 41 -6 382
-10 927 -10 l862 0 0 -862 c0 -545 4 -886 10 -927 20 -119 91 -216 200 -269
54 -27 57 -27 260 -27 204 0 205 0 262 28 108 53 178 148 198 268 6 41 10 382
10 927 l0 862 863 0 c544 0 885 4 926 10 122 20 214 89 268 198 28 57 28 58
28 262 0 204 0 205 -28 262 -54 109 -146 178 -268 198 -41 6 -382 10 -926 10
l-863 0 0 863 c0 544 -4 885 -10 926 -20 120 -90 215 -198 268 -55 27 -62 28
-242 30 -128 2 -199 -1 -232 -11z"/>
</g>
</svg>
