<?xml version="1.0" standalone="no"?>
<!DOCTYPE svg PUBLIC "-//W3C//DTD SVG 20010904//EN"
 "http://www.w3.org/TR/2001/REC-SVG-20010904/DTD/svg10.dtd">
<svg version="1.0" xmlns="http://www.w3.org/2000/svg"
 width="512.000000pt" height="512.000000pt" viewBox="0 0 512.000000 512.000000"
 preserveAspectRatio="xMidYMid meet">

<g transform="translate(0.000000,512.000000) scale(0.100000,-0.100000)"
fill="#B07D02" stroke="none">
<path d="M834 4310 c-64 -9 -146 -53 -186 -99 -17 -19 -43 -60 -57 -91 l-26
-55 -3 -717 -3 -718 -38 0 c-50 0 -151 -51 -192 -98 -18 -20 -44 -61 -58 -92
l-26 -55 -3 -352 -4 -353 -32 0 c-58 0 -97 -20 -112 -56 -20 -47 -20 -321 0
-368 15 -36 54 -56 112 -56 l34 0 0 -155 c0 -180 9 -216 60 -234 47 -16 243
-14 284 3 41 17 48 36 81 206 15 74 29 145 32 158 l5 22 1858 0 1859 0 11 -57
c39 -194 62 -290 75 -309 18 -27 53 -34 180 -34 187 0 195 11 195 245 l0 155
34 0 c58 0 97 20 112 56 20 47 20 321 0 368 -15 36 -54 56 -112 56 l-34 0 0
308 c0 396 -10 454 -91 546 -39 45 -140 96 -191 96 l-38 0 0 673 c0 421 -4
696 -11 737 -19 118 -79 198 -189 249 l-55 26 -1710 1 c-940 1 -1733 -2 -1761
-6z m3494 -170 c18 -11 41 -34 52 -52 19 -32 20 -52 20 -740 l0 -708 -80 0
-80 0 0 148 c0 81 -5 176 -11 212 -19 118 -79 198 -189 249 l-55 26 -545 0
-545 0 -55 -26 c-79 -37 -125 -81 -162 -156 l-32 -65 -4 -194 -5 -194 -78 0
-79 0 0 148 c0 81 -5 176 -11 212 -19 118 -79 198 -189 249 l-55 26 -545 0
-545 0 -55 -26 c-79 -37 -125 -81 -162 -156 l-32 -65 -4 -194 -5 -194 -78 0
-79 0 0 708 c0 688 1 708 20 740 11 18 34 41 52 52 33 20 54 20 1768 20 1714
0 1735 0 1768 -20z m-2080 -1040 c66 -40 72 -63 72 -272 l0 -188 -640 0 -640
0 0 188 c0 209 6 232 72 272 32 19 52 20 568 20 516 0 536 -1 568 -20z m1760
0 c66 -40 72 -63 72 -272 l0 -188 -640 0 -640 0 0 188 c0 209 6 232 72 272 32
19 52 20 568 20 516 0 536 -1 568 -20z m640 -640 c18 -11 41 -34 52 -52 19
-31 20 -51 20 -380 l0 -348 -2160 0 -2160 0 0 348 c0 329 1 349 20 380 11 18
34 41 52 52 33 20 55 20 2088 20 2033 0 2055 0 2088 -20z m232 -1020 l0 -80
-2320 0 -2320 0 0 80 0 80 2320 0 2320 0 0 -80z m-4345 -302 c-7 -35 -18 -89
-25 -120 l-11 -58 -50 0 -49 0 0 120 0 120 74 0 74 0 -13 -62z m4185 -58 l0
-120 -49 0 -50 0 -11 58 c-7 31 -18 85 -25 120 l-13 62 74 0 74 0 0 -120z"/>
</g>
</svg>
