<?xml version="1.0" standalone="no"?>
<!DOCTYPE svg PUBLIC "-//W3C//DTD SVG 20010904//EN"
 "http://www.w3.org/TR/2001/REC-SVG-20010904/DTD/svg10.dtd">
<svg version="1.0" xmlns="http://www.w3.org/2000/svg"
 width="512.000000pt" height="512.000000pt" viewBox="0 0 512.000000 512.000000"
 preserveAspectRatio="xMidYMid meet">

<g transform="translate(0.000000,512.000000) scale(0.100000,-0.100000)"
fill="#000000" stroke="none">
<path d="M335 5109 c-28 -14 -329 -496 -333 -535 -3 -22 3 -39 21 -60 25 -29
27 -29 146 -33 l121 -3 0 -193 c0 -190 1 -195 24 -221 18 -21 32 -28 61 -28
29 0 43 7 61 28 23 26 24 31 24 221 l0 193 121 3 c119 4 121 4 146 33 18 21
24 38 21 60 -5 43 -305 521 -336 535 -28 13 -50 13 -77 0z m78 -301 c18 -29
46 -74 61 -100 l28 -48 -127 0 -127 0 28 48 c43 73 94 152 99 152 2 0 19 -24
38 -52z"/>
<path d="M1029 5091 l-29 -29 0 -2002 0 -2002 29 -29 29 -29 2002 0 2002 0 29
29 29 29 0 1712 c0 1826 2 1756 -45 1774 -36 13 -82 6 -103 -17 l-22 -23 -2
-765 -3 -764 -191 -3 c-189 -2 -191 -3 -214 -27 -34 -37 -33 -90 4 -121 26
-23 32 -24 217 -24 l189 0 -2 -812 -3 -813 -1245 0 -1245 0 -5 233 c-5 231 -5
234 -29 253 -26 21 -78 25 -102 6 -35 -27 -39 -53 -39 -276 l0 -221 -552 2
-553 3 0 1885 0 1885 553 3 552 2 0 -1371 c0 -1023 3 -1376 12 -1392 28 -53
92 -64 133 -22 l25 24 0 306 0 305 794 0 793 0 27 26 c32 32 35 81 7 115 l-19
24 -799 5 -798 5 0 985 0 985 1245 0 1245 0 3 -105 c1 -58 7 -115 13 -127 26
-49 102 -52 139 -6 18 23 20 41 20 190 l0 165 -29 29 -29 29 -2002 0 -2002 0
-29 -29z"/>
<path d="M315 3945 l-25 -24 0 -1141 0 -1140 -100 0 c-141 0 -190 -24 -190
-93 0 -26 297 -510 327 -533 22 -16 54 -18 86 -3 29 13 329 487 335 529 10 71
-44 100 -188 100 l-100 0 0 1140 0 1141 -25 24 c-33 34 -87 34 -120 0z m185
-2489 c0 -13 -116 -187 -125 -187 -9 0 -125 174 -125 187 0 2 56 4 125 4 69 0
125 -2 125 -4z"/>
<path d="M1275 595 c-137 -85 -253 -161 -257 -168 -17 -25 -20 -58 -9 -86 9
-21 70 -64 258 -181 136 -85 259 -156 273 -158 71 -10 100 44 100 188 l0 100
1419 0 1419 0 3 -121 c4 -118 5 -121 32 -145 15 -13 40 -24 56 -24 18 0 112
53 277 156 137 86 252 161 257 168 16 24 19 57 8 84 -9 20 -74 66 -259 182
-144 90 -260 156 -278 158 -22 3 -39 -3 -60 -21 -29 -25 -29 -27 -33 -146 l-3
-121 -1419 0 -1419 0 0 100 c0 141 -24 190 -93 190 -13 0 -131 -67 -272 -155z
m185 -220 c0 -69 -2 -125 -4 -125 -11 0 -191 118 -191 125 0 8 173 123 188
124 4 1 7 -55 7 -124z m3348 38 c28 -19 52 -36 52 -38 0 -5 -79 -56 -152 -99
l-48 -28 0 127 0 127 48 -28 c26 -15 71 -43 100 -61z"/>
</g>
</svg>
