<?xml version="1.0" standalone="no"?>
<!DOCTYPE svg PUBLIC "-//W3C//DTD SVG 20010904//EN"
 "http://www.w3.org/TR/2001/REC-SVG-20010904/DTD/svg10.dtd">
<svg version="1.0" xmlns="http://www.w3.org/2000/svg"
 width="512.000000pt" height="512.000000pt" viewBox="0 0 512.000000 512.000000"
 preserveAspectRatio="xMidYMid meet">

<g transform="translate(0.000000,512.000000) scale(0.100000,-0.100000)"
fill="#B07D02" stroke="none">
<path d="M1455 4509 c-588 -330 -1078 -609 -1087 -620 -17 -20 -18 -98 -18
-1329 0 -1231 1 -1309 18 -1328 28 -34 2160 -1222 2192 -1222 32 0 2164 1188
2193 1222 16 19 17 97 17 1328 0 1231 -1 1309 -17 1329 -10 11 -501 291 -1090
621 -826 462 -1080 600 -1105 599 -24 0 -320 -161 -1103 -600z m2087 -114
c535 -300 974 -549 976 -553 3 -10 -1937 -1096 -1958 -1096 -21 0 -1961 1086
-1958 1096 4 10 1939 1096 1955 1097 6 1 450 -244 985 -544z m-2022 -1257
c520 -291 948 -533 953 -537 4 -4 6 -156 5 -339 l-3 -331 -980 549 -980 549
-3 336 -2 336 32 -17 c18 -9 458 -255 978 -546z m3088 62 l-3 -171 -980 -549
-980 -549 -3 331 c-1 183 1 335 5 339 5 4 447 253 983 554 l975 545 3 -164 c1
-91 1 -242 0 -336z m-3090 -915 l962 -539 0 -334 c0 -200 -4 -332 -9 -330 -5
2 -448 248 -985 548 l-975 545 -1 339 0 338 23 -14 c12 -8 455 -257 985 -553z
m3092 228 l-1 -338 -975 -545 c-537 -300 -980 -546 -985 -548 -5 -2 -9 130 -9
330 l0 334 983 552 c540 303 983 551 985 551 1 1 2 -151 2 -336z m-3106 -1073
l975 -545 1 -334 c0 -313 -1 -333 -17 -327 -10 4 -453 251 -985 549 l-968 541
0 334 c0 215 4 332 10 330 5 -1 448 -248 984 -548z m3106 217 l0 -333 -967
-541 c-533 -298 -976 -545 -985 -549 -17 -6 -18 14 -18 327 l1 334 977 547
c537 301 980 547 985 547 4 1 7 -149 7 -332z"/>
<path d="M2524 4678 c-12 -5 -27 -21 -33 -34 -8 -18 -11 -254 -11 -809 l0
-784 23 -27 c33 -37 81 -37 114 0 l23 27 0 784 c0 553 -3 791 -11 808 -11 24
-48 48 -72 46 -7 0 -22 -5 -33 -11z"/>
<path d="M1995 4405 l-25 -24 0 -541 0 -541 25 -24 c40 -40 96 -30 123 22 9
16 12 166 12 543 0 438 -2 526 -15 549 -24 48 -81 56 -120 16z"/>
<path d="M3032 4423 c-7 -3 -19 -18 -27 -33 -13 -25 -15 -110 -15 -550 0 -377
3 -527 12 -543 27 -52 83 -62 123 -22 l25 24 0 541 0 541 -25 24 c-23 24 -61
31 -93 18z"/>
<path d="M1504 4166 c-17 -8 -34 -21 -38 -31 -3 -9 -6 -144 -6 -299 0 -282 0
-283 23 -304 43 -40 107 -25 126 29 15 43 15 515 0 558 -6 18 -24 38 -40 46
-33 18 -26 18 -65 1z"/>
<path d="M3549 4165 c-44 -24 -49 -59 -49 -325 0 -255 6 -302 40 -320 32 -17
75 -11 98 13 22 23 22 29 22 310 0 274 -1 288 -20 307 -11 11 -24 20 -29 20
-5 0 -15 2 -23 5 -7 2 -25 -2 -39 -10z"/>
<path d="M973 3898 c-41 -46 -36 -92 11 -124 48 -31 116 8 116 66 0 67 -84
105 -127 58z"/>
<path d="M4045 3895 c-16 -15 -25 -36 -25 -55 0 -19 9 -40 25 -55 71 -72 174
37 105 110 -31 33 -73 33 -105 0z"/>
</g>
</svg>
