<?xml version="1.0" encoding="UTF-8"?>
<svg version="1.1" xmlns="http://www.w3.org/2000/svg" width="2100" height="2109">
<path d="M0 0 C2.73818396 0.26657731 5.47735473 0.52061452 8.21685791 0.77325439 C97.88336373 9.13810173 186.35698294 28.92700367 430.60113525 134.25323486 C431.94594971 135.03295654 431.94594971 135.03295654 433.31793213 135.82843018 C453.13130601 147.33319795 472.67890113 159.32843994 491.60113525 172.25323486 C492.22858643 172.68023682 492.8560376 173.10723877 493.50250244 173.54718018 C498.21842606 176.75906854 502.91328312 180.00055392 507.60113525 183.25323486 C508.26838623 183.71423584 508.93563721 184.17523682 509.62310791 184.65020752 C521.08780197 192.5830584 532.20050799 200.93815983 543.24664307 209.44219971 C545.30620037 211.02637599 547.37005579 212.60459561 549.43707275 214.17901611 C556.27770217 219.39669586 562.96753501 224.77541563 569.60113525 230.25323486 C571.37189308 231.69082788 573.14272751 233.12832653 574.91363525 234.56573486 C584.27215538 242.22635205 593.42639382 250.12205716 602.38238525 258.24932861 C604.39421918 260.06635468 606.42773959 261.85267878 608.47613525 263.62823486 C613.36970053 267.8979193 618.15035602 272.28938907 622.9175415 276.69903564 C624.02717767 277.72338945 625.13910837 278.74526406 626.253479 279.76446533 C636.14619346 288.81469978 645.67519416 298.22083307 655.16363525 307.69073486 C655.77618164 308.30069305 656.38872803 308.91065125 657.01983643 309.53909302 C669.09918878 321.57817277 669.09918878 321.57817277 674.20050049 327.63824463 C675.7557927 329.43156135 677.40667909 331.09152539 679.10113525 332.75323486 C682.11527108 335.72058809 684.90030858 338.82668779 687.659729 342.03057861 C689.88917587 344.58300369 692.18114907 347.07211 694.47613525 349.56573486 C698.52634817 354.00574271 702.35647647 358.57257768 706.128479 363.24932861 C709.00997158 366.74990965 711.98858087 370.15580812 714.97613525 373.56573486 C720.58758169 379.99561863 725.91873065 386.59506342 731.12945557 393.35186768 C732.71222516 395.39675977 734.3079305 397.43107806 735.90582275 399.46417236 C753.09308865 421.36808989 769.34857072 443.95918614 784.60113525 467.25323486 C785.2358374 468.21979004 785.2358374 468.21979004 785.88336182 469.20587158 C804.16912469 497.09470533 820.94869678 525.80785772 836.60113525 555.25323486 C837.10209717 556.19199463 837.60305908 557.13075439 838.11920166 558.09796143 C878.92411092 634.71830161 908.40975514 716.76914914 952.38824463 947.86346436 C952.59991996 950.23959275 952.82558836 952.61403888 953.05426025 954.98858643 C958.53613836 1012.92182053 958.64582893 1073.78462127 952.85437012 1131.6963501 C952.586217 1134.40386284 952.33260578 1137.11248513 952.08111572 1139.82159424 C948.25912997 1180.61892926 942.16203672 1221.17748879 933.60113525 1261.25323486 C933.34360474 1262.45994843 933.34360474 1262.45994843 933.08087158 1263.69104004 C923.94665104 1306.26785799 912.06729792 1348.18172673 897.60113525 1389.25323486 C897.37272949 1389.9036676 897.14432373 1390.55410034 896.90899658 1391.22424316 C883.09508302 1430.50771374 866.56342183 1468.55951872 848.22955322 1505.93341064 C847.19137045 1508.04993378 846.15621582 1510.16794683 845.12506104 1512.28790283 C838.60738785 1525.68597585 831.527856 1538.67845498 824.11187744 1551.59893799 C822.32138918 1554.74473442 820.5806719 1557.91568002 818.84576416 1561.09234619 C809.25209124 1578.62923157 798.60673485 1595.57305809 787.60113525 1612.25323486 C787.13530029 1612.96221924 786.66946533 1613.67120361 786.18951416 1614.40167236 C778.22318876 1626.51415089 769.98729843 1638.4281075 761.60113525 1650.25323486 C761.05312256 1651.02699463 760.50510986 1651.80075439 759.94049072 1652.59796143 C748.25312647 1669.0593347 735.82461175 1684.89814896 723.02935791 1700.50909424 C721.74108877 1702.0823241 720.457908 1703.65971734 719.175354 1705.23760986 C710.98437299 1715.3053876 702.64643022 1725.20535042 693.8706665 1734.76885986 C691.89791253 1736.92836335 689.95834346 1739.1091737 688.03863525 1741.31573486 C683.94718023 1746.01193151 679.79866373 1750.65149994 675.60113525 1755.25323486 C675.14432373 1755.75661377 674.68751221 1756.25999268 674.21685791 1756.77862549 C664.83139318 1767.08301226 655.00814968 1776.9532925 645.16363525 1786.81573486 C644.50602203 1787.47593628 643.84840881 1788.1361377 643.17086792 1788.81634521 C630.14729327 1801.88029077 630.14729327 1801.88029077 624.18096924 1806.88775635 C622.39752467 1808.4292191 620.75130244 1810.07062057 619.10113525 1811.75323486 C616.11241189 1814.78918411 612.98407046 1817.59832145 609.75738525 1820.37823486 C607.40150568 1822.4268258 605.09606065 1824.52526488 602.78863525 1826.62823486 C598.51803374 1830.48345872 594.11339856 1834.12906002 589.64019775 1837.74542236 C586.13054914 1840.64155913 582.71108933 1843.63019312 579.28863525 1846.62823486 C572.86018282 1852.23832892 566.26233219 1857.56790871 559.50689697 1862.77716064 C557.4478624 1864.37194966 555.40084636 1865.98135777 553.3550415 1867.59307861 C543.68209969 1875.19710625 533.84005573 1882.51181718 523.82476807 1889.65753174 C521.6436139 1891.22275172 519.4759393 1892.80484766 517.31207275 1894.39385986 C446.82832641 1946.04948282 368.01179371 1987.66345022 247.60113525 2033.25323486 C246.78687073 2033.53231689 245.9726062 2033.81139893 245.13366699 2034.09893799 C219.24720387 2042.94984072 193.12574245 2050.5628545 166.60113525 2057.25323486 C165.8006073 2057.45583923 165.00007935 2057.6584436 164.17529297 2057.8671875 C110.41038042 2071.44451806 55.79380046 2080.1332777 0.60113525 2085.25323486 C-0.29131897 2085.33786987 -1.18377319 2085.42250488 -2.10327148 2085.50970459 C-60.79546352 2091.03274964 -121.72082366 2090.78743942 -180.39886475 2085.25323486 C-181.32487488 2085.1683783 -182.25088501 2085.08352173 -183.20495605 2084.99609375 C-279.65685826 2076.15307817 -375.27056171 2054.83233646 -491.39886475 2009.25323486 C-492.04474548 2008.98380066 -492.69062622 2008.71436646 -493.3560791 2008.43676758 C-507.68635578 2002.44597713 -521.8655744 1996.12879449 -535.93960571 1989.55911255 C-538.09554349 1988.56148755 -540.26102857 1987.58728933 -542.42840576 1986.61480713 C-549.9056132 1983.20515024 -556.63833688 1979.53892202 -563.293396 1974.70635986 C-574.46126982 1966.85995427 -585.14897557 1960.91869565 -599.16543579 1963.00856018 C-611.407079 1965.37898713 -623.28840754 1969.27796207 -635.13931274 1973.10316467 C-646.3343859 1976.70373874 -657.62077952 1979.82273699 -669.00042725 1982.78448486 C-669.9013101 1983.0191427 -670.80219296 1983.25380054 -671.73037529 1983.49556923 C-675.45544022 1984.46464136 -679.18108007 1985.43145188 -682.90760708 1986.39488697 C-692.65435627 1988.91497616 -702.38613949 1991.49085294 -712.11833 1994.06647682 C-737.42326943 2000.75920397 -762.75367354 2007.3540059 -788.08636475 2013.94073486 C-796.13722374 2016.03418601 -804.18804057 2018.12779907 -812.2387085 2020.22198486 C-813.22003754 2020.47724756 -814.20136658 2020.73251026 -815.21243286 2020.99550819 C-835.53214085 2026.28181623 -855.84223195 2031.60444786 -876.14886475 2036.94073486 C-876.96027672 2037.15395386 -877.77168869 2037.36717285 -878.6076889 2037.58685303 C-882.6968253 2038.661391 -886.7859445 2039.73599438 -890.87506104 2040.81060791 C-891.68299606 2041.0229306 -892.49093109 2041.2352533 -893.323349 2041.45401001 C-894.95342948 2041.88239908 -896.58350557 2042.31080482 -898.21357727 2042.73922729 C-910.66045062 2046.01046164 -923.1090656 2049.27500058 -935.559021 2052.53448486 C-936.40347527 2052.75556915 -937.24792953 2052.97665344 -938.11797333 2053.20443726 C-942.41924089 2054.33049862 -946.72053817 2055.45644641 -951.02185059 2056.58233643 C-986.59483762 2065.89376208 -1022.16232451 2075.22602709 -1057.72665405 2084.57046509 C-1058.72997048 2084.83408372 -1059.73328691 2085.09770235 -1060.76700687 2085.36930943 C-1062.76775954 2085.89502183 -1064.76850409 2086.42076513 -1066.76924038 2086.94653988 C-1071.62423659 2088.22230291 -1076.47941205 2089.49737521 -1081.33500671 2090.77085876 C-1090.05706122 2093.058833 -1098.77783374 2095.35123333 -1107.49332619 2097.66409969 C-1111.41881698 2098.70528279 -1115.34526716 2099.74281795 -1119.27184677 2100.77988625 C-1121.12619403 2101.27069558 -1122.98007865 2101.76325658 -1124.83346939 2102.25766563 C-1127.37739336 2102.93615634 -1129.92282949 2103.60866082 -1132.46868896 2104.27984619 C-1133.59228632 2104.5820618 -1133.59228632 2104.5820618 -1134.73858261 2104.89038277 C-1138.1145338 2105.77439182 -1140.87855684 2106.25323486 -1144.39886475 2106.25323486 C-1143.752672 2098.61330817 -1141.67545197 2091.4462938 -1139.6137085 2084.08526611 C-1139.20964805 2082.62604228 -1138.80613706 2081.16666621 -1138.40312195 2079.70715332 C-1137.52237165 2076.5212985 -1136.63825394 2073.3364043 -1135.75158691 2070.15219116 C-1134.30337383 2064.9504483 -1132.8631894 2059.74650445 -1131.42474365 2054.54205322 C-1131.17432941 2053.63605157 -1130.92391518 2052.73004992 -1130.66591263 2051.79659367 C-1130.14664274 2049.9177539 -1129.62740577 2048.03890504 -1129.10820007 2046.16004753 C-1128.29522025 2043.21893296 -1127.48154686 2040.27801089 -1126.66778564 2037.33711243 C-1119.82932838 2012.61442259 -1113.07553359 1987.86854955 -1106.31467056 1963.12455368 C-1103.54891573 1953.00330061 -1100.78134897 1942.88254272 -1098.01414299 1932.76168633 C-1097.00744672 1929.07968987 -1096.00082526 1925.39767296 -1094.99421692 1921.71565247 C-1089.55208074 1901.80978204 -1084.10324917 1881.90575236 -1078.64886475 1862.00323486 C-1078.45275352 1861.28762012 -1078.2566423 1860.57200539 -1078.05458832 1859.83470535 C-1076.31684047 1853.49362042 -1074.57898208 1847.15256579 -1072.84091187 1840.81156921 C-1070.04181221 1830.59961029 -1067.24354525 1820.38742343 -1064.44573975 1810.17510986 C-1064.23815474 1809.41740232 -1064.03056973 1808.65969479 -1063.81669426 1807.87902641 C-1062.76504374 1804.04037631 -1061.71340536 1800.20172289 -1060.66177368 1796.36306763 C-1058.77871902 1789.48957313 -1056.89558811 1782.61609953 -1055.01244926 1775.7426281 C-1054.59538121 1774.22032634 -1054.178314 1772.69802434 -1053.76124763 1771.17572212 C-1050.8795032 1760.65729388 -1047.99757612 1750.13891568 -1045.1155262 1739.62057114 C-1036.31354086 1707.4967211 -1027.51319918 1675.3724209 -1018.71591187 1643.24728394 C-1017.73159047 1639.65284229 -1016.74719454 1636.05842108 -1015.76272583 1632.46401978 C-1015.52851834 1631.60866984 -1015.29431086 1630.75331991 -1015.05300617 1629.87205029 C-1014.5867413 1628.17003081 -1014.12003891 1626.46813114 -1013.6528883 1624.76635456 C-1012.52361474 1620.65015254 -1011.402 1616.53219277 -1010.29777527 1612.40919495 C-1008.39063675 1605.31618 -1006.44200875 1598.25981011 -1004.18049717 1591.27030182 C-1003.22221464 1588.29795974 -1002.30435106 1585.31379634 -1001.38883018 1582.32804871 C-1000.95424989 1580.95327079 -1000.49942918 1579.58468212 -1000.02198219 1578.22419739 C-997.94443873 1572.29794988 -996.34176158 1567.15673328 -998.86988831 1561.19429016 C-1000.77860832 1557.3637415 -1003.05519019 1553.8306601 -1005.39886475 1550.25323486 C-1006.47561066 1548.32445482 -1007.53809779 1546.38750595 -1008.574646 1544.43682861 C-1009.08237549 1543.50886475 -1009.59010498 1542.58090088 -1010.11322021 1541.62481689 C-1052.22220474 1464.31565466 -1084.1630213 1381.99994998 -1095.66778564 751.75201416 C-1092.13166515 739.84823057 -1088.3020468 728.040851 -1084.39886475 716.25323486 C-1083.90809735 714.76317798 -1083.41737435 713.27310648 -1082.92669678 711.78302002 C-1056.89636008 632.9634365 -1021.06509903 557.00894164 -940.39886475 433.25323486 C-939.86422607 432.51572998 -939.3295874 431.7782251 -938.77874756 431.01837158 C-926.6235187 414.27985353 -913.93544743 397.99037405 -900.82269287 381.99298096 C-899.5466017 380.43375159 -898.27699093 378.86922387 -897.00823975 377.30401611 C-888.27753348 366.54766037 -879.25067051 356.08257302 -869.84417725 345.91339111 C-867.84725682 343.7410224 -865.89057741 341.54784323 -863.96136475 339.31573486 C-852.90303944 326.62590938 -841.0434574 314.7398142 -829.13421631 302.85821533 C-826.63428263 300.36401732 -824.13892194 297.86529965 -821.64483261 295.36525917 C-819.69393635 293.41072478 -817.74063457 291.45860828 -815.78662872 289.50718307 C-814.42505469 288.14658242 -813.06546174 286.78400016 -811.70593262 285.4213562 C-807.30719756 281.0390968 -802.85543255 276.78748057 -798.13545227 272.75170898 C-795.20054544 270.21922394 -792.40558282 267.53784383 -789.58636475 264.87823486 C-784.54320656 260.15450377 -779.37195499 255.68489196 -773.97698975 251.36260986 C-771.37460185 249.2333834 -768.88310973 247.01874129 -766.39886475 244.75323486 C-761.22371658 240.04855471 -755.83683635 235.64887143 -750.39886475 231.25323486 C-749.16766387 230.24240719 -747.93723856 229.23063437 -746.7074585 228.21807861 C-738.14206913 221.18165425 -729.42834512 214.3972189 -720.51019287 207.81427002 C-718.32738366 206.20038449 -716.15188322 204.57698717 -713.97698975 202.95245361 C-696.83603458 190.18830022 -679.31345347 177.90950919 -661.39886475 166.25323486 C-660.65539795 165.7677417 -659.91193115 165.28224854 -659.14593506 164.78204346 C-615.24024033 136.20358823 -569.14922217 110.79406119 -521.39886475 89.25323486 C-520.37969971 88.78997803 -519.36053467 88.32672119 -518.31048584 87.84942627 C-439.94667498 52.30387775 -356.93616695 27.11934331 -219.39886475 4.25323486 C-218.61847839 4.15375549 -217.83809204 4.05427612 -217.03405762 3.95178223 C-206.30277781 2.59587301 -195.55903325 1.45461988 -184.78723145 0.4732666 C-182.41886223 0.25507716 -180.05173132 0.02598175 -177.68450928 -0.20428467 C-119.42055107 -5.74702999 -58.24840423 -5.70085974 0 0 Z " fill="#00C445" transform="translate(1144.3988647460938,2.74676513671875)"/>
<path d="M0 0 C2.73818396 0.26657731 5.47735473 0.52061452 8.21685791 0.77325439 C97.88336373 9.13810173 186.35698294 28.92700367 430.60113525 134.25323486 C431.94594971 135.03295654 431.94594971 135.03295654 433.31793213 135.82843018 C453.13130601 147.33319795 472.67890113 159.32843994 491.60113525 172.25323486 C492.22858643 172.68023682 492.8560376 173.10723877 493.50250244 173.54718018 C498.21842606 176.75906854 502.91328312 180.00055392 507.60113525 183.25323486 C508.26838623 183.71423584 508.93563721 184.17523682 509.62310791 184.65020752 C521.08780197 192.5830584 532.20050799 200.93815983 543.24664307 209.44219971 C545.30620037 211.02637599 547.37005579 212.60459561 549.43707275 214.17901611 C556.27770217 219.39669586 562.96753501 224.77541563 569.60113525 230.25323486 C571.37189308 231.69082788 573.14272751 233.12832653 574.91363525 234.56573486 C584.27215538 242.22635205 593.42639382 250.12205716 602.38238525 258.24932861 C604.39421918 260.06635468 606.42773959 261.85267878 608.47613525 263.62823486 C613.36970053 267.8979193 618.15035602 272.28938907 622.9175415 276.69903564 C624.02717767 277.72338945 625.13910837 278.74526406 626.253479 279.76446533 C636.14619346 288.81469978 645.67519416 298.22083307 655.16363525 307.69073486 C655.77618164 308.30069305 656.38872803 308.91065125 657.01983643 309.53909302 C669.09918878 321.57817277 669.09918878 321.57817277 674.20050049 327.63824463 C675.7557927 329.43156135 677.40667909 331.09152539 679.10113525 332.75323486 C682.11527108 335.72058809 684.90030858 338.82668779 687.659729 342.03057861 C689.88917587 344.58300369 692.18114907 347.07211 694.47613525 349.56573486 C698.52634817 354.00574271 702.35647647 358.57257768 706.128479 363.24932861 C709.00997158 366.74990965 711.98858087 370.15580812 714.97613525 373.56573486 C720.58758169 379.99561863 725.91873065 386.59506342 731.12945557 393.35186768 C732.71222516 395.39675977 734.3079305 397.43107806 735.90582275 399.46417236 C753.09308865 421.36808989 769.34857072 443.95918614 784.60113525 467.25323486 C785.2358374 468.21979004 785.2358374 468.21979004 785.88336182 469.20587158 C804.16912469 497.09470533 820.94869678 525.80785772 836.60113525 555.25323486 C837.10209717 556.19199463 837.60305908 557.13075439 838.11920166 558.09796143 C878.92411092 634.71830161 908.40975514 716.76914914 952.38824463 947.86346436 C952.59991996 950.23959275 952.82558836 952.61403888 953.05426025 954.98858643 C958.53613836 1012.92182053 958.64582893 1073.78462127 952.85437012 1131.6963501 C952.586217 1134.40386284 952.33260578 1137.11248513 952.08111572 1139.82159424 C948.25912997 1180.61892926 942.16203672 1221.17748879 933.60113525 1261.25323486 C933.34360474 1262.45994843 933.34360474 1262.45994843 933.08087158 1263.69104004 C923.94665104 1306.26785799 912.06729792 1348.18172673 897.60113525 1389.25323486 C897.37272949 1389.9036676 897.14432373 1390.55410034 896.90899658 1391.22424316 C883.09508302 1430.50771374 866.56342183 1468.55951872 848.22955322 1505.93341064 C847.19137045 1508.04993378 846.15621582 1510.16794683 845.12506104 1512.28790283 C838.60738785 1525.68597585 831.527856 1538.67845498 824.11187744 1551.59893799 C822.32138918 1554.74473442 820.5806719 1557.91568002 818.84576416 1561.09234619 C809.25209124 1578.62923157 798.60673485 1595.57305809 787.60113525 1612.25323486 C787.13530029 1612.96221924 786.66946533 1613.67120361 786.18951416 1614.40167236 C778.22318876 1626.51415089 769.98729843 1638.4281075 761.60113525 1650.25323486 C761.05312256 1651.02699463 760.50510986 1651.80075439 759.94049072 1652.59796143 C748.25312647 1669.0593347 735.82461175 1684.89814896 723.02935791 1700.50909424 C721.74108877 1702.0823241 720.457908 1703.65971734 719.175354 1705.23760986 C710.98437299 1715.3053876 702.64643022 1725.20535042 693.8706665 1734.76885986 C691.89791253 1736.92836335 689.95834346 1739.1091737 688.03863525 1741.31573486 C683.94718023 1746.01193151 679.79866373 1750.65149994 675.60113525 1755.25323486 C675.14432373 1755.75661377 674.68751221 1756.25999268 674.21685791 1756.77862549 C664.83139318 1767.08301226 655.00814968 1776.9532925 645.16363525 1786.81573486 C644.50602203 1787.47593628 643.84840881 1788.1361377 643.17086792 1788.81634521 C630.14729327 1801.88029077 630.14729327 1801.88029077 624.18096924 1806.88775635 C622.39752467 1808.4292191 620.75130244 1810.07062057 619.10113525 1811.75323486 C616.11241189 1814.78918411 612.98407046 1817.59832145 609.75738525 1820.37823486 C607.40150568 1822.4268258 605.09606065 1824.52526488 602.78863525 1826.62823486 C598.51803374 1830.48345872 594.11339856 1834.12906002 589.64019775 1837.74542236 C586.13054914 1840.64155913 582.71108933 1843.63019312 579.28863525 1846.62823486 C572.86018282 1852.23832892 566.26233219 1857.56790871 559.50689697 1862.77716064 C557.4478624 1864.37194966 555.40084636 1865.98135777 553.3550415 1867.59307861 C543.68209969 1875.19710625 533.84005573 1882.51181718 523.82476807 1889.65753174 C521.6436139 1891.22275172 519.4759393 1892.80484766 517.31207275 1894.39385986 C446.82832641 1946.04948282 368.01179371 1987.66345022 247.60113525 2033.25323486 C246.78687073 2033.53231689 245.9726062 2033.81139893 245.13366699 2034.09893799 C219.24720387 2042.94984072 193.12574245 2050.5628545 166.60113525 2057.25323486 C165.8006073 2057.45583923 165.00007935 2057.6584436 164.17529297 2057.8671875 C110.41038042 2071.44451806 55.79380046 2080.1332777 0.60113525 2085.25323486 C-0.29131897 2085.33786987 -1.18377319 2085.42250488 -2.10327148 2085.50970459 C-60.79546352 2091.03274964 -121.72082366 2090.78743942 -180.39886475 2085.25323486 C-181.32487488 2085.1683783 -182.25088501 2085.08352173 -183.20495605 2084.99609375 C-279.65685826 2076.15307817 -375.27056171 2054.83233646 -491.39886475 2009.25323486 C-492.04474548 2008.98380066 -492.69062622 2008.71436646 -493.3560791 2008.43676758 C-507.68635578 2002.44597713 -521.8655744 1996.12879449 -535.93960571 1989.55911255 C-538.09554349 1988.56148755 -540.26102857 1987.58728933 -542.42840576 1986.61480713 C-549.9056132 1983.20515024 -556.63833688 1979.53892202 -563.293396 1974.70635986 C-574.46126982 1966.85995427 -585.14897557 1960.91869565 -599.16543579 1963.00856018 C-611.407079 1965.37898713 -623.28840754 1969.27796207 -635.13931274 1973.10316467 C-646.3343859 1976.70373874 -657.62077952 1979.82273699 -669.00042725 1982.78448486 C-669.9013101 1983.0191427 -670.80219296 1983.25380054 -671.73037529 1983.49556923 C-675.45544022 1984.46464136 -679.18108007 1985.43145188 -682.90760708 1986.39488697 C-692.65435627 1988.91497616 -702.38613949 1991.49085294 -712.11833 1994.06647682 C-737.42326943 2000.75920397 -762.75367354 2007.3540059 -788.08636475 2013.94073486 C-796.13722374 2016.03418601 -804.18804057 2018.12779907 -812.2387085 2020.22198486 C-813.22003754 2020.47724756 -814.20136658 2020.73251026 -815.21243286 2020.99550819 C-835.53214085 2026.28181623 -855.84223195 2031.60444786 -876.14886475 2036.94073486 C-876.96027672 2037.15395386 -877.77168869 2037.36717285 -878.6076889 2037.58685303 C-882.6968253 2038.661391 -886.7859445 2039.73599438 -890.87506104 2040.81060791 C-891.68299606 2041.0229306 -892.49093109 2041.2352533 -893.323349 2041.45401001 C-894.95342948 2041.88239908 -896.58350557 2042.31080482 -898.21357727 2042.73922729 C-910.66045062 2046.01046164 -923.1090656 2049.27500058 -935.559021 2052.53448486 C-936.40347527 2052.75556915 -937.24792953 2052.97665344 -938.11797333 2053.20443726 C-942.41924089 2054.33049862 -946.72053817 2055.45644641 -951.02185059 2056.58233643 C-986.59483762 2065.89376208 -1022.16232451 2075.22602709 -1057.72665405 2084.57046509 C-1058.72997048 2084.83408372 -1059.73328691 2085.09770235 -1060.76700687 2085.36930943 C-1062.76775954 2085.89502183 -1064.76850409 2086.42076513 -1066.76924038 2086.94653988 C-1071.62423659 2088.22230291 -1076.47941205 2089.49737521 -1081.33500671 2090.77085876 C-1090.05706122 2093.058833 -1098.77783374 2095.35123333 -1107.49332619 2097.66409969 C-1111.41881698 2098.70528279 -1115.34526716 2099.74281795 -1119.27184677 2100.77988625 C-1121.12619403 2101.27069558 -1122.98007865 2101.76325658 -1124.83346939 2102.25766563 C-1127.37739336 2102.93615634 -1129.92282949 2103.60866082 -1132.46868896 2104.27984619 C-1133.59228632 2104.5820618 -1133.59228632 2104.5820618 -1134.73858261 2104.89038277 C-1138.1145338 2105.77439182 -1140.87855684 2106.25323486 -1144.39886475 2106.25323486 C-1143.752672 2098.61330817 -1141.67545197 2091.4462938 -1139.6137085 2084.08526611 C-1139.20964805 2082.62604228 -1138.80613706 2081.16666621 -1138.40312195 2079.70715332 C-1137.52237165 2076.5212985 -1136.63825394 2073.3364043 -1135.75158691 2070.15219116 C-1134.30337383 2064.9504483 -1132.8631894 2059.74650445 -1131.42474365 2054.54205322 C-1131.17432941 2053.63605157 -1130.92391518 2052.73004992 -1130.66591263 2051.79659367 C-1130.14664274 2049.9177539 -1129.62740577 2048.03890504 -1129.10820007 2046.16004753 C-1128.29522025 2043.21893296 -1127.48154686 2040.27801089 -1126.66778564 2037.33711243 C-1119.82932838 2012.61442259 -1113.07553359 1987.86854955 -1106.31467056 1963.12455368 C-1103.54891573 1953.00330061 -1100.78134897 1942.88254272 -1098.01414299 1932.76168633 C-1097.00744672 1929.07968987 -1096.00082526 1925.39767296 -1094.99421692 1921.71565247 C-1089.55208074 1901.80978204 -1084.10324917 1881.90575236 -1078.64886475 1862.00323486 C-1078.45275352 1861.28762012 -1078.2566423 1860.57200539 -1078.05458832 1859.83470535 C-1076.31684047 1853.49362042 -1074.57898208 1847.15256579 -1072.84091187 1840.81156921 C-1070.04181221 1830.59961029 -1067.24354525 1820.38742343 -1064.44573975 1810.17510986 C-1064.23815474 1809.41740232 -1064.03056973 1808.65969479 -1063.81669426 1807.87902641 C-1062.76504374 1804.04037631 -1061.71340536 1800.20172289 -1060.66177368 1796.36306763 C-1058.77871902 1789.48957313 -1056.89558811 1782.61609953 -1055.01244926 1775.7426281 C-1054.59538121 1774.22032634 -1054.178314 1772.69802434 -1053.76124763 1771.17572212 C-1050.8795032 1760.65729388 -1047.99757612 1750.13891568 -1045.1155262 1739.62057114 C-1036.31354086 1707.4967211 -1027.51319918 1675.3724209 -1018.71591187 1643.24728394 C-1017.73159047 1639.65284229 -1016.74719454 1636.05842108 -1015.76272583 1632.46401978 C-1015.52851834 1631.60866984 -1015.29431086 1630.75331991 -1015.05300617 1629.87205029 C-1014.5867413 1628.17003081 -1014.12003891 1626.46813114 -1013.6528883 1624.76635456 C-1012.52361474 1620.65015254 -1011.402 1616.53219277 -1010.29777527 1612.40919495 C-1008.39063675 1605.31618 -1006.44200875 1598.25981011 -1004.18049717 1591.27030182 C-1003.22221464 1588.29795974 -1002.30435106 1585.31379634 -1001.38883018 1582.32804871 C-1000.95424989 1580.95327079 -1000.49942918 1579.58468212 -1000.02198219 1578.22419739 C-997.94443873 1572.29794988 -996.34176158 1567.15673328 -998.86988831 1561.19429016 C-1000.77860832 1557.3637415 -1003.05519019 1553.8306601 -1005.39886475 1550.25323486 C-1006.47561066 1548.32445482 -1007.53809779 1546.38750595 -1008.574646 1544.43682861 C-1009.08237549 1543.50886475 -1009.59010498 1542.58090088 -1010.11322021 1541.62481689 C-1052.22220474 1464.31565466 -1084.1630213 1381.99994998 -1095.66778564 751.75201416 C-1092.13166515 739.84823057 -1088.3020468 728.040851 -1084.39886475 716.25323486 C-1083.90809735 714.76317798 -1083.41737435 713.27310648 -1082.92669678 711.78302002 C-1056.89636008 632.9634365 -1021.06509903 557.00894164 -940.39886475 433.25323486 C-939.86422607 432.51572998 -939.3295874 431.7782251 -938.77874756 431.01837158 C-926.6235187 414.27985353 -913.93544743 397.99037405 -900.82269287 381.99298096 C-899.5466017 380.43375159 -898.27699093 378.86922387 -897.00823975 377.30401611 C-888.27753348 366.54766037 -879.25067051 356.08257302 -869.84417725 345.91339111 C-867.84725682 343.7410224 -865.89057741 341.54784323 -863.96136475 339.31573486 C-852.90303944 326.62590938 -841.0434574 314.7398142 -829.13421631 302.85821533 C-826.63428263 300.36401732 -824.13892194 297.86529965 -821.64483261 295.36525917 C-819.69393635 293.41072478 -817.74063457 291.45860828 -815.78662872 289.50718307 C-814.42505469 288.14658242 -813.06546174 286.78400016 -811.70593262 285.4213562 C-807.30719756 281.0390968 -802.85543255 276.78748057 -798.13545227 272.75170898 C-795.20054544 270.21922394 -792.40558282 267.53784383 -789.58636475 264.87823486 C-784.54320656 260.15450377 -779.37195499 255.68489196 -773.97698975 251.36260986 C-771.37460185 249.2333834 -768.88310973 247.01874129 -766.39886475 244.75323486 C-761.22371658 240.04855471 -755.83683635 235.64887143 -750.39886475 231.25323486 C-749.16766387 230.24240719 -747.93723856 229.23063437 -746.7074585 228.21807861 C-738.14206913 221.18165425 -729.42834512 214.3972189 -720.51019287 207.81427002 C-718.32738366 206.20038449 -716.15188322 204.57698717 -713.97698975 202.95245361 C-696.83603458 190.18830022 -679.31345347 177.90950919 -661.39886475 166.25323486 C-660.65539795 165.7677417 -659.91193115 165.28224854 -659.14593506 164.78204346 C-615.24024033 136.20358823 -569.14922217 110.79406119 -521.39886475 89.25323486 C-520.37969971 88.78997803 -519.36053467 88.32672119 -518.31048584 87.84942627 C-439.94667498 52.30387775 -356.93616695 27.11934331 -219.39886475 4.25323486 C-218.61847839 4.15375549 -217.83809204 4.05427612 -217.03405762 3.95178223 C-206.30277781 2.59587301 -195.55903325 1.45461988 -184.78723145 0.4732666 C-182.41886223 0.25507716 -180.05173132 0.02598175 -177.68450928 -0.20428467 C-119.42055107 -5.74702999 -58.24840423 -5.70085974 0 0 Z M-166.95623779 175 C-169.51388796 175.26515968 -172.07246002 175.51971464 -174.63128662 175.77325439 C-209.17915377 179.23572285 -243.5236509 184.59486924 -277.39886475 192.25323486 C-278.59575928 192.52135986 -279.79265381 192.78948486 -281.02581787 193.06573486 C-294.92836406 196.19398232 -308.76131005 199.41678131 -322.37738037 203.64385986 C-324.5165706 204.28871721 -326.66491399 204.88521403 -328.82073975 205.47198486 C-355.48985086 212.76197794 -381.79212606 221.85062541 -407.39886475 232.25323486 C-408.91407715 232.86835938 -408.91407715 232.86835938 -410.4598999 233.49591064 C-448.25903078 248.9567428 -485.232274 266.45226763 -520.39886475 287.25323486 C-521.21290771 287.73179932 -522.02695068 288.21036377 -522.86566162 288.70343018 C-541.81645397 299.86102552 -560.42431706 311.57768356 -578.39886475 324.25323486 C-579.25472168 324.85482422 -579.25472168 324.85482422 -580.12786865 325.46856689 C-610.2992075 346.71439888 -639.49771928 369.39847985 -666.5043335 394.57745361 C-668.82994824 396.7273134 -671.18071417 398.81969219 -673.58636475 400.87823486 C-677.59004313 404.33404147 -681.25772559 408.09824273 -684.9730835 411.85870361 C-686.99628747 413.85584377 -689.0454671 415.7281417 -691.21136475 417.56573486 C-699.32261918 424.52294903 -706.88069077 432.28738552 -713.793396 440.42901611 C-715.58197102 442.46128993 -717.47005227 444.35381382 -719.39886475 446.25323486 C-722.59147786 449.40303516 -725.57047754 452.66542975 -728.49261475 456.06573486 C-730.70832123 458.60834886 -732.98985066 461.08433685 -735.27386475 463.56573486 C-739.71704669 468.44256069 -743.91734912 473.46838187 -748.05755615 478.60284424 C-749.60073511 480.50162287 -751.16077271 482.38579225 -752.7230835 484.26885986 C-759.34750868 492.25564633 -765.87748977 500.28279392 -772.12738037 508.56817627 C-773.49991334 510.38715141 -774.87918613 512.20091813 -776.25823975 514.01495361 C-828.63796722 583.13873968 -869.54524173 659.94907574 -899.39886475 741.25323486 C-899.67150146 741.99511047 -899.94413818 742.73698608 -900.22503662 743.50134277 C-911.26751472 773.6523792 -920.67148337 804.68010789 -927.29705811 836.11407471 C-928.01252504 839.49166218 -928.7633613 842.85765255 -929.55340576 846.21856689 C-932.63736254 859.34972613 -935.20132692 872.5088188 -937.39886475 885.81573486 C-937.56839661 886.83372162 -937.73792847 887.85170837 -937.91259766 888.90054321 C-954.22607545 987.49206022 -952.89196655 1087.12891493 -933.78045654 1195.1305542 C-933.44058753 1197.02114354 -933.10771217 1198.91298708 -932.77581787 1200.80499268 C-918.82760554 1279.9027733 -888.80865831 1357.11410209 -835.39886475 1459.25323486 C-835.06435303 1459.8204425 -834.72984131 1460.38765015 -834.38519287 1460.9720459 C-825.29132924 1476.38703835 -816.00610098 1491.66437625 -806.3168335 1506.71417236 C-805.83005127 1507.48599854 -805.34326904 1508.25782471 -804.84173584 1509.05303955 C-803.43375209 1511.26256632 -803.43375209 1511.26256632 -801.8348999 1513.27374268 C-798.31455105 1518.03007236 -798.31455105 1518.03007236 -798.55420303 1521.50677109 C-798.74031017 1522.30431934 -798.92641731 1523.1018676 -799.11816406 1523.92358398 C-799.3200106 1524.80514915 -799.52185715 1525.68671432 -799.72982025 1526.59499359 C-800.73688704 1530.59626184 -801.78108376 1534.58003215 -802.90179443 1538.55108643 C-803.14564629 1539.42707237 -803.38949814 1540.30305832 -803.64073944 1541.20558929 C-804.16952113 1543.10393694 -804.69989215 1545.00184247 -805.23169708 1546.8993454 C-806.70469379 1552.1564201 -808.16493269 1557.41704596 -809.62738037 1562.67706299 C-809.93586536 1563.78531811 -810.24435036 1564.89357323 -810.56218338 1566.03541183 C-814.00886965 1578.42586992 -817.40085372 1590.8311744 -820.78948975 1603.23760986 C-821.42753797 1605.57236498 -822.06561502 1607.90711222 -822.70372009 1610.24185181 C-824.01227779 1615.03020781 -825.3204853 1619.81865931 -826.62844849 1624.60717773 C-829.94660089 1636.75468071 -833.26764182 1648.9013942 -836.58902144 1661.04801512 C-836.94388995 1662.34580683 -837.29875233 1663.64360022 -837.65360856 1664.94139528 C-844.5209559 1690.05683416 -851.4047207 1715.16773646 -858.30255508 1740.27481842 C-859.08242353 1743.11388709 -859.86196267 1745.95304596 -860.64138794 1748.79223633 C-865.3414019 1765.91238838 -870.04576328 1783.03099607 -874.82855225 1800.12823486 C-875.15122574 1801.2840506 -875.47389923 1802.43986633 -875.80635071 1803.63070679 C-877.2135128 1808.67110332 -878.62553257 1813.70994943 -880.05194092 1818.74493408 C-880.51289143 1820.39085818 -880.97360491 1822.03684869 -881.434021 1823.68292236 C-881.74126602 1824.75207886 -881.74126602 1824.75207886 -882.05471802 1825.84283447 C-883.05061273 1829.43052006 -883.47966933 1832.54464384 -883.39886475 1836.25323486 C-873.18046403 1834.70247389 -863.28707704 1831.96059992 -853.3168335 1829.30010986 C-851.439316 1828.80254907 -849.56168894 1828.3054016 -847.68395996 1827.80863953 C-843.70906542 1826.75631205 -839.73483691 1825.70152053 -835.76113892 1824.64468384 C-826.43856628 1822.16546792 -817.11258744 1819.69911383 -807.78694344 1817.23148155 C-804.70122914 1816.41484389 -801.61564521 1815.59771503 -798.53007507 1814.78053284 C-782.81119176 1810.61890545 -767.0804782 1806.50593819 -751.33636475 1802.44073486 C-749.1980124 1801.88818643 -747.05966596 1801.33561514 -744.92132568 1800.78302002 C-741.8898112 1799.99969985 -738.85828094 1799.21644139 -735.82666016 1798.43353271 C-726.15788832 1795.93546369 -716.49609891 1793.41099936 -706.83636475 1790.87823486 C-706.01755829 1790.6635556 -705.19875183 1790.44887634 -704.35513306 1790.22769165 C-700.02173161 1789.09130626 -695.68852133 1787.95419381 -691.35540771 1786.81671143 C-684.47561758 1785.0107245 -677.59544325 1783.20620292 -670.715271 1781.40167236 C-668.0999544 1780.71572178 -665.48463887 1780.02976715 -662.86932373 1779.34381104 C-662.21324662 1779.17173347 -661.55716951 1778.9996559 -660.88121128 1778.82236385 C-656.25302701 1777.60845703 -651.62488745 1776.39437984 -646.99676514 1775.18023682 C-629.9659564 1770.71245421 -612.93420664 1766.24828107 -595.90081787 1761.79034424 C-594.74679474 1761.48808426 -594.74679474 1761.48808426 -593.56945801 1761.17971802 C-592.07690619 1760.7892297 -590.58411515 1760.39965437 -589.09106445 1760.01107788 C-585.13741539 1758.98027719 -581.19150427 1757.92606928 -577.25140381 1756.84454346 C-576.3949527 1756.6120842 -575.53850159 1756.37962494 -574.65609741 1756.14012146 C-573.01766409 1755.69490425 -571.3807957 1755.24387026 -569.74588013 1754.78590393 C-564.40265338 1753.34231627 -559.88233073 1752.17195965 -554.60076904 1754.47149658 C-553.65113281 1755.03626709 -552.70149658 1755.6010376 -551.7230835 1756.18292236 C-550.65727051 1756.80803711 -549.59145752 1757.43315186 -548.49334717 1758.07720947 C-547.36904297 1758.75404785 -546.24473877 1759.43088623 -545.08636475 1760.12823486 C-543.90391691 1760.82683424 -542.72072256 1761.52417151 -541.5368042 1762.22027588 C-538.14863918 1764.21663475 -534.77300911 1766.23327095 -531.39886475 1768.25323486 C-488.80999328 1793.63544174 -444.68544742 1815.47796503 -398.39886475 1833.25323486 C-397.205354 1833.71294678 -396.01184326 1834.17265869 -394.78216553 1834.64630127 C-349.22799387 1852.07298195 -302.28149485 1865.26866748 -254.40228271 1874.47784424 C-251.11542747 1875.11072714 -247.83601069 1875.77397565 -244.559021 1876.45635986 C-227.65753271 1879.92833895 -210.50343622 1882.0521412 -193.39886475 1884.25323486 C-192.21502197 1884.40679443 -191.0311792 1884.560354 -189.8114624 1884.71856689 C-118.52332094 1893.74009025 -46.1348985 1892.00628105 24.97613525 1882.37823486 C25.9617041 1882.24562256 26.94727295 1882.11301025 27.96270752 1881.97637939 C42.23553849 1880.05114772 56.46907703 1878.05200434 70.60113525 1875.25323486 C71.70167236 1875.03699463 72.80220947 1874.82075439 73.93609619 1874.59796143 C127.43151503 1864.00351417 180.08621113 1848.88549673 230.60113525 1828.25323486 C231.72084717 1827.79739014 232.84055908 1827.34154541 233.99420166 1826.87188721 C268.8830768 1812.5863142 303.04587757 1796.28103825 335.60113525 1777.25323486 C336.67750244 1776.62658936 337.75386963 1775.99994385 338.862854 1775.35430908 C361.40076483 1762.20827508 383.3702188 1748.42998879 404.60113525 1733.25323486 C406.14019363 1732.16078113 407.67925606 1731.06833312 409.21832275 1729.97589111 C419.19085018 1722.8650922 428.90705756 1715.4607306 438.52740479 1707.88165283 C440.44968917 1706.37215944 442.38048599 1704.87463869 444.315979 1703.38214111 C452.46569625 1697.07918013 460.28492237 1690.44847921 468.01959229 1683.64385986 C469.97740104 1681.92239048 471.94603868 1680.2134999 473.91363525 1678.50323486 C477.647638 1675.22892576 481.33783722 1671.90654397 485.02301025 1668.57745361 C486.73658942 1667.03263603 488.45532769 1665.49352129 490.17926025 1663.96026611 C494.83386409 1659.81252865 499.32180293 1655.57073119 503.69488525 1651.12823486 C505.47991063 1649.3724722 507.31668628 1647.74641196 509.22613525 1646.12823486 C517.7235574 1638.80867322 525.72085913 1630.66595401 532.9644165 1622.10870361 C534.92013613 1619.89159902 536.99669416 1617.82947574 539.10113525 1615.75323486 C542.49381924 1612.40066707 545.69214209 1608.95847804 548.79644775 1605.33917236 C550.81764801 1603.00297986 552.89492364 1600.72358635 554.97613525 1598.44073486 C558.87476922 1594.12062696 562.57617383 1589.67252105 566.23394775 1585.14776611 C568.28523695 1582.63950655 570.37580853 1580.17185053 572.48858643 1577.71539307 C579.00114946 1570.12926652 585.05601785 1562.22870656 591.081604 1554.25323486 C592.45061763 1552.45134547 593.83297434 1550.66148084 595.22613525 1548.87823486 C601.4908895 1540.84649865 607.39366827 1532.59654814 613.21539307 1524.24005127 C614.4401482 1522.48405105 615.6714053 1520.73291564 616.90582275 1518.98370361 C633.51055374 1495.29307095 648.6568139 1470.59099002 662.60113525 1445.25323486 C663.19152588 1444.18218506 663.7819165 1443.11113525 664.39019775 1442.00762939 C679.32330695 1414.80633554 692.9034851 1387.00810319 704.60113525 1358.25323486 C705.01138947 1357.24483551 705.01138947 1357.24483551 705.42993164 1356.21606445 C723.06031515 1312.75667157 737.62162823 1267.98552856 747.93516541 1222.20706177 C748.35662751 1220.33771873 748.78055965 1218.46892941 749.207901 1216.60092163 C752.689401 1201.36054666 755.39585772 1186.07368944 757.78863525 1170.62823486 C758.1337299 1168.43412866 758.47943147 1166.24011782 758.82574463 1164.04620361 C759.62693596 1158.96173493 760.41859943 1153.87585026 761.20629883 1148.78927612 C761.54254505 1146.62956077 761.88579917 1144.47093837 762.23052979 1142.31256104 C765.20906732 1123.56189088 766.67360305 1104.60060063 767.675354 1085.65167236 C767.71835318 1084.84309217 767.76135235 1084.03451199 767.80565453 1083.20142937 C768.74847453 1065.07337265 768.95956953 1046.96344931 768.91899109 1028.81378555 C768.91352278 1026.26327619 768.91117588 1023.71277616 768.90911865 1021.16226196 C768.87932353 997.44432585 768.51783427 973.89366583 765.82897949 950.30419922 C765.51056548 947.43796134 765.22842757 944.56845433 764.94392395 941.69868469 C761.91250059 911.3045395 757.00011903 881.11702858 750.60113525 851.25323486 C750.35049316 850.07253418 750.35049316 850.07253418 750.0947876 848.86798096 C749.15404884 844.45785103 748.17320111 840.05837656 747.15777588 835.66485596 C746.76492943 833.96286593 746.37597484 832.25997532 745.98980713 830.55645752 C734.17840536 778.61273315 716.51673412 727.77995135 694.60113525 679.25323486 C694.18251221 678.32477753 694.18251221 678.32477753 693.75543213 677.37756348 C681.63734496 650.53930849 668.41539525 624.41039636 653.30523682 599.11749268 C651.58239699 596.22173954 649.88190022 593.31389741 648.18707275 590.40167236 C641.98765259 579.7708782 635.54541115 569.41089319 628.60113525 559.25323486 C627.30753227 557.29618005 626.01579882 555.33788792 624.72613525 553.37823486 C606.45456987 526.00742992 586.37241967 499.99130064 565.0425415 474.94903564 C563.5991391 473.2508864 562.16232103 471.54733294 560.72613525 469.84307861 C554.45910728 462.43478083 547.97807752 455.2688678 541.315979 448.21417236 C538.79177689 445.54100792 536.30909161 442.83345821 533.83914185 440.11012268 C527.90665339 433.58202157 521.77888652 427.27595555 515.52960205 421.05133057 C513.90056953 419.42771257 512.27702797 417.79873883 510.65386963 416.16925049 C505.70755144 411.21978534 500.72857784 406.35998023 495.40509033 401.81207275 C492.27086392 399.10371768 489.29444478 396.22725432 486.28863525 393.37823486 C481.06164865 388.45829713 475.74250664 383.79948804 470.13238525 379.31964111 C467.59975372 377.25210704 465.19382365 375.09210145 462.78863525 372.87823486 C457.22906541 367.81928979 451.33487014 363.24322284 445.39361572 358.64727783 C443.67365248 357.30963276 441.96540685 355.95864564 440.2612915 354.60089111 C394.84459902 318.45807804 345.24202788 286.78488034 293.01715088 261.43682861 C290.04043256 259.97854947 287.07985702 258.48899458 284.11676025 257.00323486 C241.94872786 235.98626015 197.67814392 219.79915034 152.60113525 206.25323486 C150.49826323 205.61133215 148.3953982 204.96940652 146.2925415 204.32745361 C110.1483878 193.41561883 73.10773923 186.67778262 35.85162354 180.91729736 C32.17881845 180.34789241 28.51310126 179.74078564 24.847229 179.12823486 C-37.27804284 169.17186634 -104.37789139 168.4871832 -166.95623779 175 Z " fill="#FEFEFE" transform="translate(1144.3988647460938,2.74676513671875)"/>
<path d="M0 0 C1.10265198 -0.00637985 2.20530396 -0.0127597 3.34136963 -0.01933289 C4.52261414 -0.02044571 5.70385864 -0.02155853 6.92089844 -0.02270508 C8.15708923 -0.02603348 9.39328003 -0.02936188 10.66693115 -0.03279114 C13.28608835 -0.03784993 15.90525198 -0.04019979 18.52441406 -0.04003906 C22.47436268 -0.03991884 26.42412067 -0.06031777 30.37402344 -0.0793457 C76.52821598 -0.18530643 76.52821598 -0.18530643 93.33105469 16.13745117 C101.22882074 24.51061674 106.59691658 34.42290323 111.46386719 44.75463867 C111.85190521 45.57694977 112.23994324 46.39926086 112.63973999 47.24649048 C117.15218788 56.89501913 121.2906188 66.69716284 125.40527344 76.52026367 C126.23976939 78.50458172 127.07432451 80.48887488 127.90893555 82.47314453 C134.54204113 98.27096743 141.00393683 114.13508643 147.40531921 130.02787781 C151.26526371 139.60247173 155.17997218 149.1546787 159.09277344 158.70776367 C159.46644043 159.6201178 159.84010742 160.53247192 160.22509766 161.47247314 C160.59908691 162.38559265 160.97307617 163.29871216 161.35839844 164.23950195 C161.73403931 165.15665985 162.10968018 166.07381775 162.4967041 167.01876831 C163.26024233 168.88298649 164.02383304 170.74718319 164.78747559 172.61135864 C167.16248161 178.41061828 169.53256159 184.21186513 171.89875793 190.01472473 C173.49569253 193.9309865 175.09394763 197.84670886 176.69223022 201.76242065 C177.44159023 203.59933754 178.19033958 205.43650369 178.93838501 207.2739563 C183.28351068 217.94609656 187.70304261 228.57754447 192.3283844 239.13194275 C195.03479963 245.36442207 197.26468914 251.38895549 198.28027344 258.14526367 C198.39242188 258.85682617 198.50457031 259.56838867 198.62011719 260.30151367 C200.4201631 283.83382124 179.52965734 311.36776327 165.28027344 328.14526367 C164.3687104 329.22069576 163.4572559 330.29621986 162.54589844 331.37182617 C161.12981106 333.04266202 159.71325533 334.71307691 158.29443359 336.3815918 C155.58688664 339.57273067 152.93773977 342.79867765 150.34277344 346.08276367 C143.47880209 354.71175622 136.44613292 363.1474632 128.53027344 370.83276367 C120.11902705 379.11049821 111.49920262 389.12363497 110.78027344 401.45776367 C111.56288373 414.64704885 118.4503781 425.3037081 125.28027344 436.14526367 C125.81507324 437.00361816 126.34987305 437.86197266 126.90087891 438.74633789 C135.02530386 451.77784971 143.47784194 464.5624318 152.28027344 477.14526367 C152.72322754 477.77867676 153.16618164 478.41208984 153.62255859 479.06469727 C166.19419929 496.9779571 179.4446568 514.42822473 193.66699219 531.06323242 C196.07108657 533.88161397 198.39795338 536.7569832 200.71777344 539.64526367 C205.43556627 545.44333823 210.50354415 550.87996415 215.6105957 556.33203125 C217.53923895 558.42649439 219.41992122 560.56070115 221.30761719 562.69213867 C226.68748155 568.68209655 232.35386028 574.36958712 238.05541992 580.05078125 C239.84703294 581.83701037 241.63320398 583.62855715 243.41894531 585.4206543 C249.20499305 591.21006365 255.03263097 596.84989584 261.28027344 602.14526367 C262.88795716 603.59971884 264.49267058 605.05747262 266.09277344 606.52026367 C270.35772652 610.36454612 274.72888194 614.04053272 279.19433594 617.64916992 C281.42967161 619.45724523 283.65215549 621.2763913 285.86621094 623.11010742 C296.05475346 631.51947215 306.55206447 639.43833885 317.28027344 647.14526367 C318.10076172 647.73484863 318.92125 648.32443359 319.76660156 648.93188477 C331.66872251 657.44902018 343.81165268 665.48341127 356.28027344 673.14526367 C357.21154053 673.72171631 357.21154053 673.72171631 358.16162109 674.30981445 C390.80577016 694.47849254 425.15583906 710.86333931 460.28027344 726.14526367 C462.03573486 726.9112085 462.03573486 726.9112085 463.82666016 727.69262695 C466.76728338 728.97379272 469.71011349 730.24956642 472.65527344 731.52026367 C473.87428345 732.04680542 473.87428345 732.04680542 475.11791992 732.58398438 C485.56207839 737.04223032 495.77030742 739.13290608 507.07324219 736.49291992 C509.33466459 735.56033334 511.24586143 734.50153834 513.28027344 733.14526367 C514.01246094 732.67088867 514.74464844 732.19651367 515.49902344 731.70776367 C520.91275481 727.85140708 524.8758583 723.24010172 528.96386719 718.03588867 C531.29728107 715.12403998 533.74793731 712.38504001 536.28027344 709.64526367 C540.34010989 705.22886223 544.17351165 700.68362845 547.94042969 696.01635742 C550.46760777 692.915396 553.05646237 689.8735463 555.65527344 686.83276367 C559.98198038 681.75618499 564.13509945 676.5646036 568.22949219 671.29956055 C571.13106417 667.5777999 574.10744527 663.9369805 577.15527344 660.33276367 C585.34867213 650.56022652 593.00791248 640.36957048 600.41650391 629.99243164 C616.56226857 607.38459863 616.56226857 607.38459863 629.28027344 603.14526367 C660.32746597 600.29315937 692.14699374 621.14841781 719.28027344 634.14526367 C719.9159021 634.44964355 720.55153076 634.75402344 721.2064209 635.06762695 C727.50886017 638.08696781 733.80491419 641.11937615 740.09667969 644.16088867 C744.80580268 646.43680774 749.52324288 648.69438833 754.24609375 650.94165039 C779.41988999 662.9276316 804.47460889 675.17287804 829.3822937 687.70227051 C837.79935972 691.93602324 846.25792313 696.06399602 854.78027344 700.08276367 C887.92166314 715.79533067 887.92166314 715.79533067 892.58886719 728.52026367 C897.35753961 746.62505388 894.00475532 766.96907742 891.28027344 785.14526367 C891.06117876 786.71292387 890.84240442 788.28062889 890.62402344 789.84838867 C885.20242868 826.95628421 873.1922829 862.38266635 846.80371094 889.57495117 C845.30549142 891.11926975 843.82408142 892.67849136 842.34277344 894.23901367 C835.75213317 901.09336746 828.70380262 907.04673767 821.10888672 912.7565918 C819.29001879 914.13786293 817.50067241 915.55096879 815.71386719 916.97338867 C790.15461372 937.06750321 760.15811871 952.55598436 729.40527344 962.95776367 C728.58623535 963.23579834 727.76719727 963.51383301 726.92333984 963.80029297 C714.58372131 967.84334572 702.09354509 969.96743688 689.21777344 971.33276367 C688.41179718 971.41864746 687.60582092 971.50453125 686.77542114 971.59301758 C656.30099635 974.74274463 625.43809696 974.86711714 595.28027344 969.14526367 C593.33942871 968.79117432 593.33942871 968.79117432 591.359375 968.42993164 C524.49055846 956.16064033 459.92146728 932.20548116 396.84277344 907.39526367 C395.95910095 907.04922089 395.07542847 906.7031781 394.16497803 906.34664917 C327.27511191 880.11280423 264.82417216 843.4122613 208.28027344 799.14526367 C207.10582699 798.22985711 205.93134679 797.31449385 204.75683594 796.39916992 C193.03980276 787.24866442 181.58269268 777.80237405 170.28027344 768.14526367 C169.68166504 767.63447266 169.08305664 767.12368164 168.46630859 766.59741211 C160.89634684 760.12596206 153.44964805 753.54996653 146.19848633 746.72192383 C143.30723071 744.00297136 140.3775545 741.35282004 137.37011719 738.76245117 C132.42106322 734.45743188 127.87068235 729.78626651 123.28027344 725.10620117 C119.35630919 721.13625297 115.340699 717.35830579 111.09692383 713.73095703 C106.8297451 710.00627946 102.94301861 705.9604062 99.28027344 701.64526367 C95.65768638 697.42988965 91.72644835 693.55362806 87.78027344 689.64526367 C83.39067088 685.29327871 79.07322913 680.95579005 75.08105469 676.23120117 C72.55255314 673.30230784 69.91322269 670.48016185 67.28027344 667.64526367 C62.86492151 662.87921937 58.51176711 658.07617779 54.28027344 653.14526367 C53.85810547 652.65477539 53.4359375 652.16428711 53.00097656 651.65893555 C49.93252018 648.09380173 46.87242254 644.52163305 43.81787109 640.94458008 C42.82647958 639.78444107 41.83404439 638.62519273 40.84033203 637.46704102 C35.25100575 630.95236854 29.80827466 624.35240266 24.5390625 617.57568359 C21.61051317 613.81504293 18.62333667 610.11101839 15.5925293 606.43237305 C8.41777514 597.71270188 1.69555776 588.70814703 -4.94482422 579.57739258 C-7.30466176 576.34373349 -9.68939183 573.12881556 -12.07324219 569.9128418 C-22.41329521 555.94750006 -32.34398217 541.73357969 -42.09375 527.35107422 C-45.9336326 521.70582275 -49.86645524 516.14787959 -53.90722656 510.64526367 C-68.3168348 490.91308507 -81.65319754 470.38720213 -93.71972656 449.14526367 C-94.54756649 447.71280722 -95.37567942 446.28050849 -96.20410156 444.84838867 C-115.93659072 410.39483618 -131.39717839 374.17906103 -142.71972656 336.14526367 C-143.07252686 334.96585205 -143.42532715 333.78644043 -143.78881836 332.57128906 C-145.97003279 325.12904866 -147.80225906 317.69446634 -149.28222656 310.08276367 C-149.49202148 309.01711182 -149.70181641 307.95145996 -149.91796875 306.85351562 C-153.74200187 287.02481382 -155.95394998 267.40766908 -155.96972656 247.20776367 C-155.97040131 246.42346985 -155.97107605 245.63917603 -155.97177124 244.83111572 C-155.88868224 183.4089313 -138.08129214 122.35986163 -100.71972656 73.14526367 C-100.27773926 72.5605127 -99.83575195 71.97576172 -99.38037109 71.37329102 C-93.88189725 64.13763516 -88.15146269 57.23963543 -81.96972656 50.57495117 C-80.09179762 48.54704874 -78.26949141 46.49198972 -76.46972656 44.39526367 C-75.22437425 42.97450962 -73.97344948 41.55863669 -72.71972656 40.14526367 C-72.24051758 39.60353516 -71.76130859 39.06180664 -71.26757812 38.50366211 C-52.92312276 17.90041546 -28.88390783 0.11435971 0 0 Z " fill="#FEFEFE" transform="translate(684.7197265625,555.854736328125)"/>
<path d="M0 0 C5.26294822 0.62754507 10.1335503 1.77367115 15.203125 3.30078125 C15.98554565 3.53281754 16.76796631 3.76485382 17.57409668 4.00392151 C20.13482539 4.76664925 22.6926744 5.53844291 25.25 6.3125 C26.13514282 6.57943665 27.02028564 6.84637329 27.93225098 7.12139893 C102.70223917 29.72077964 175.47855906 60.64139044 243 100 C243.89654297 100.51981445 244.79308594 101.03962891 245.71679688 101.57519531 C265.53017076 113.07996309 285.07776588 125.07520507 304 138 C304.62745117 138.42700195 305.25490234 138.85400391 305.90136719 139.29394531 C310.6172908 142.50583368 315.31214787 145.74731905 320 149 C320.66725098 149.46100098 321.33450195 149.92200195 322.02197266 150.39697266 C333.48666672 158.32982354 344.59937274 166.68492496 355.64550781 175.18896484 C357.70506511 176.77314112 359.76892053 178.35136075 361.8359375 179.92578125 C368.67656692 185.14346099 375.36639976 190.52218077 382 196 C383.77075782 197.43759302 385.54159226 198.87509167 387.3125 200.3125 C396.67102013 207.97311719 405.82525856 215.8688223 414.78125 223.99609375 C416.79308393 225.81311982 418.82660434 227.59944392 420.875 229.375 C425.76856527 233.64468444 430.54922077 238.03615421 435.31640625 242.44580078 C436.42604241 243.47015458 437.53797312 244.4920292 438.65234375 245.51123047 C448.54505821 254.56146492 458.07405891 263.9675982 467.5625 273.4375 C468.17504639 274.04745819 468.78759277 274.65741638 469.41870117 275.28585815 C481.49805353 287.32493791 481.49805353 287.32493791 486.59936523 293.38500977 C488.15465745 295.17832648 489.80554384 296.83829052 491.5 298.5 C494.51413582 301.46735323 497.29917333 304.57345292 500.05859375 307.77734375 C502.28804061 310.32976883 504.58001382 312.81887514 506.875 315.3125 C510.92521292 319.75250784 514.75534122 324.31934281 518.52734375 328.99609375 C521.40883633 332.49667478 524.38744562 335.90257325 527.375 339.3125 C532.98644643 345.74238376 538.31759539 352.34182856 543.52832031 359.09863281 C545.1110899 361.14352491 546.70679524 363.1778432 548.3046875 365.2109375 C565.4919534 387.11485503 581.74743546 409.70595128 597 433 C597.63470215 433.96655518 597.63470215 433.96655518 598.28222656 434.95263672 C616.56798943 462.84147047 633.34756153 491.55462286 649 521 C649.50096191 521.93875977 650.00192383 522.87751953 650.51806641 523.84472656 C691.32297567 600.46506675 720.80861988 682.51591428 764.78710938 913.61022949 C764.9987847 915.98635789 765.2244531 918.36080401 765.453125 920.73535156 C770.93500311 978.66858567 771.04469367 1039.53138641 765.25323486 1097.44311523 C764.98508175 1100.15062798 764.73147053 1102.85925027 764.47998047 1105.56835938 C760.65799471 1146.36569439 754.56090147 1186.92425393 746 1227 C745.74246948 1228.20671356 745.74246948 1228.20671356 745.47973633 1229.43780518 C736.34551578 1272.01462312 724.46616266 1313.92849187 710 1355 C709.77159424 1355.65043274 709.54318848 1356.30086548 709.30786133 1356.9710083 C695.49394777 1396.25447888 678.96228658 1434.30628386 660.62841797 1471.68017578 C659.5902352 1473.79669891 658.55508057 1475.91471197 657.52392578 1478.03466797 C651.0062526 1491.43274098 643.92672075 1504.42522011 636.51074219 1517.34570312 C634.72025393 1520.49149956 632.97953665 1523.66244516 631.24462891 1526.83911133 C621.65095599 1544.37599671 611.00559959 1561.31982322 600 1578 C599.53416504 1578.70898438 599.06833008 1579.41796875 598.58837891 1580.1484375 C590.62205351 1592.26091602 582.38616317 1604.17487264 574 1616 C573.4519873 1616.77375977 572.90397461 1617.54751953 572.33935547 1618.34472656 C560.65199121 1634.80609984 548.2234765 1650.64491409 535.42822266 1666.25585938 C534.13995352 1667.82908924 532.85677275 1669.40648248 531.57421875 1670.984375 C523.38323773 1681.05215273 515.04529497 1690.95211556 506.26953125 1700.515625 C504.29677727 1702.67512849 502.35720821 1704.85593884 500.4375 1707.0625 C496.34604497 1711.75869665 492.19752848 1716.39826508 488 1721 C487.54318848 1721.50337891 487.08637695 1722.00675781 486.61572266 1722.52539062 C477.23025792 1732.82977739 467.40701442 1742.70005764 457.5625 1752.5625 C456.90488678 1753.22270142 456.24727356 1753.88290283 455.56973267 1754.56311035 C442.54615802 1767.62705591 442.54615802 1767.62705591 436.57983398 1772.63452148 C434.79638942 1774.17598424 433.15016719 1775.81738571 431.5 1777.5 C428.51127663 1780.53594925 425.38293521 1783.34508659 422.15625 1786.125 C419.80037042 1788.17359094 417.4949254 1790.27203002 415.1875 1792.375 C410.91689849 1796.23022386 406.51226331 1799.87582515 402.0390625 1803.4921875 C398.52941389 1806.38832427 395.10995408 1809.37695826 391.6875 1812.375 C385.25904756 1817.98509406 378.66119693 1823.31467385 371.90576172 1828.52392578 C369.84672715 1830.11871479 367.7997111 1831.72812291 365.75390625 1833.33984375 C356.08096444 1840.94387138 346.23892047 1848.25858232 336.22363281 1855.40429688 C334.04247865 1856.96951686 331.87480405 1858.5516128 329.7109375 1860.140625 C259.22719115 1911.79624796 180.41065846 1953.41021536 60 1999 C59.18573547 1999.27908203 58.37147095 1999.55816406 57.53253174 1999.84570312 C31.64606862 2008.69660585 5.5246072 2016.30961964 -21 2023 C-21.80052795 2023.20260437 -22.60105591 2023.40520874 -23.42584229 2023.61395264 C-77.19075483 2037.19128319 -131.80733479 2045.88004284 -187 2051 C-187.89245422 2051.08463501 -188.78490845 2051.16927002 -189.70440674 2051.25646973 C-248.39659878 2056.77951478 -309.32195891 2056.53420455 -368 2051 C-368.92601013 2050.91514343 -369.85202026 2050.83028687 -370.80609131 2050.74285889 C-467.25799351 2041.89984331 -562.87169696 2020.57910159 -679 1975 C-679.64588074 1974.7305658 -680.29176147 1974.46113159 -680.95721436 1974.18353271 C-695.28749104 1968.19274227 -709.46670966 1961.87555963 -723.54074097 1955.30587769 C-725.69667875 1954.30825269 -727.86216382 1953.33405447 -730.02954102 1952.36157227 C-737.50674846 1948.95191538 -744.23947213 1945.28568716 -750.89453125 1940.453125 C-762.06240507 1932.60671941 -772.75011082 1926.66546079 -786.76657104 1928.75532532 C-799.00821425 1931.12575227 -810.8895428 1935.02472721 -822.740448 1938.84992981 C-833.93552116 1942.45050388 -845.22191478 1945.56950213 -856.6015625 1948.53125 C-857.50244535 1948.76590784 -858.40332821 1949.00056568 -859.33151054 1949.24233437 C-863.05657548 1950.2114065 -866.78221532 1951.17821702 -870.50874233 1952.14165211 C-880.25549152 1954.66174129 -889.98727474 1957.23761807 -899.71946526 1959.81324196 C-925.02440469 1966.50596911 -950.3548088 1973.10077104 -975.6875 1979.6875 C-983.73835899 1981.78095114 -991.78917582 1983.87456421 -999.83984375 1985.96875 C-1000.82117279 1986.2240127 -1001.80250183 1986.4792754 -1002.81356812 1986.74227333 C-1023.1332761 1992.02858137 -1043.44336721 1997.351213 -1063.75 2002.6875 C-1064.56141197 2002.90071899 -1065.37282394 2003.11393799 -1066.20882416 2003.33361816 C-1070.29796055 2004.40815614 -1074.38707975 2005.48275952 -1078.47619629 2006.55737305 C-1079.28413132 2006.76969574 -1080.09206635 2006.98201843 -1080.92448425 2007.20077515 C-1082.55456473 2007.62916421 -1084.18464083 2008.05756995 -1085.81471252 2008.48599243 C-1098.26158587 2011.75722678 -1110.71020086 2015.02176571 -1123.16015625 2018.28125 C-1124.00461052 2018.50233429 -1124.84906479 2018.72341858 -1125.71910858 2018.95120239 C-1130.02037614 2020.07726376 -1134.32167343 2021.20321154 -1138.62298584 2022.32910156 C-1174.19597287 2031.64052721 -1209.76345977 2040.97279222 -1245.32778931 2050.31723022 C-1246.33110574 2050.58084886 -1247.33442217 2050.84446749 -1248.36814213 2051.11607456 C-1250.3688948 2051.64178697 -1252.36963935 2052.16753027 -1254.37037563 2052.69330502 C-1259.22537185 2053.96906804 -1264.0805473 2055.24414035 -1268.93614197 2056.5176239 C-1277.65819647 2058.80559813 -1286.37896899 2061.09799847 -1295.09446144 2063.41086483 C-1299.01995223 2064.45204793 -1302.94640241 2065.48958308 -1306.87298203 2066.52665138 C-1308.72732929 2067.01746072 -1310.5812139 2067.51002172 -1312.43460464 2068.00443077 C-1314.97852861 2068.68292147 -1317.52396475 2069.35542596 -1320.06982422 2070.02661133 C-1321.19342157 2070.32882693 -1321.19342157 2070.32882693 -1322.33971786 2070.6371479 C-1325.71566905 2071.52115695 -1328.47969209 2072 -1332 2072 C-1331.35380725 2064.3600733 -1329.27658723 2057.19305894 -1327.21484375 2049.83203125 C-1326.8107833 2048.37280742 -1326.40727231 2046.91343134 -1326.0042572 2045.45391846 C-1325.1235069 2042.26806363 -1324.2393892 2039.08316944 -1323.35272217 2035.8989563 C-1321.90450909 2030.69721344 -1320.46432466 2025.49326958 -1319.02587891 2020.28881836 C-1318.77546467 2019.38281671 -1318.52505043 2018.47681505 -1318.26704788 2017.5433588 C-1317.74777799 2015.66451904 -1317.22854102 2013.78567017 -1316.70933533 2011.90681267 C-1315.89635551 2008.9656981 -1315.08268212 2006.02477602 -1314.2689209 2003.08387756 C-1307.43046364 1978.36118773 -1300.67666885 1953.61531469 -1293.91580582 1928.87131882 C-1291.15005098 1918.75006575 -1288.38248423 1908.62930785 -1285.61527824 1898.50845146 C-1284.60858197 1894.826455 -1283.60196051 1891.1444381 -1282.59535217 1887.4624176 C-1277.15321599 1867.55654717 -1271.70438442 1847.6525175 -1266.25 1827.75 C-1266.05388878 1827.03438526 -1265.85777756 1826.31877052 -1265.65572357 1825.58147049 C-1263.91797572 1819.24038556 -1262.18011733 1812.89933093 -1260.44204712 1806.55833435 C-1257.64294747 1796.34637542 -1254.8446805 1786.13418856 -1252.046875 1775.921875 C-1251.83928999 1775.16416746 -1251.63170498 1774.40645992 -1251.41782951 1773.62579155 C-1250.36617899 1769.78714145 -1249.31454061 1765.94848803 -1248.26290894 1762.10983276 C-1246.37985428 1755.23633827 -1244.49672336 1748.36286467 -1242.61358452 1741.48939323 C-1242.19651647 1739.96709147 -1241.77944926 1738.44478948 -1241.36238289 1736.92248726 C-1238.48063845 1726.40405901 -1235.59871138 1715.88568082 -1232.71666145 1705.36733627 C-1223.91467611 1673.24348623 -1215.11433444 1641.11918604 -1206.31704712 1608.99404907 C-1205.33272572 1605.39960743 -1204.34832979 1601.80518621 -1203.36386108 1598.21078491 C-1203.1296536 1597.35543498 -1202.89544611 1596.50008505 -1202.65414143 1595.61881542 C-1202.18787656 1593.91679595 -1201.72117416 1592.21489627 -1201.25402355 1590.5131197 C-1200.12475 1586.39691767 -1199.00313525 1582.27895791 -1197.89891052 1578.15596008 C-1195.991772 1571.06294514 -1194.043144 1564.00657525 -1191.78163242 1557.01706696 C-1190.8233499 1554.04472487 -1189.90548632 1551.06056148 -1188.98996544 1548.07481384 C-1188.55538515 1546.70003593 -1188.10056444 1545.33144726 -1187.62311745 1543.97096252 C-1185.54557399 1538.04471502 -1183.94289684 1532.90349841 -1186.47102356 1526.9410553 C-1188.37974358 1523.11050664 -1190.65632544 1519.57742524 -1193 1516 C-1194.07674592 1514.07121995 -1195.13923304 1512.13427108 -1196.17578125 1510.18359375 C-1196.68351074 1509.25562988 -1197.19124023 1508.32766602 -1197.71435547 1507.37158203 C-1239.82333999 1430.0624198 -1271.76415656 1347.74671511 -1283.2689209 717.4987793 C-1279.7328004 705.5949957 -1275.90318205 693.78761614 -1272 682 C-1271.50923261 680.50994312 -1271.01850961 679.01987162 -1270.52783203 677.52978516 C-1244.49749534 598.71020164 -1208.66623429 522.75570677 -1128 399 C-1127.46536133 398.26249512 -1126.93072266 397.52499023 -1126.37988281 396.76513672 C-1114.22465396 380.02661867 -1101.53658269 363.73713919 -1088.42382812 347.73974609 C-1087.14773696 346.18051673 -1085.87812619 344.615989 -1084.609375 343.05078125 C-1075.87866873 332.2944255 -1066.85180576 321.82933816 -1057.4453125 311.66015625 C-1055.44839207 309.48778754 -1053.49171266 307.29460837 -1051.5625 305.0625 C-1040.5041747 292.37267452 -1028.64459265 280.48657934 -1016.73535156 268.60498047 C-1014.23541788 266.11078246 -1011.74005719 263.61206479 -1009.24596786 261.11202431 C-1007.29507161 259.15748991 -1005.34176982 257.20537342 -1003.38776398 255.25394821 C-1002.02618995 253.89334755 -1000.66659699 252.5307653 -999.30706787 251.16812134 C-994.90833282 246.78586193 -990.4565678 242.53424571 -985.73658752 238.49847412 C-982.8016807 235.96598908 -980.00671807 233.28460896 -977.1875 230.625 C-972.14434182 225.90126891 -966.97309024 221.43165709 -961.578125 217.109375 C-958.9757371 214.98014854 -956.48424498 212.76550643 -954 210.5 C-948.82485184 205.79531985 -943.4379716 201.39563657 -938 197 C-936.76879913 195.98917233 -935.53837382 194.97739951 -934.30859375 193.96484375 C-925.74320439 186.92841939 -917.02948038 180.14398403 -908.11132812 173.56103516 C-905.92851891 171.94714962 -903.75301848 170.3237523 -901.578125 168.69921875 C-884.43716983 155.93506536 -866.91458872 143.65627433 -849 132 C-848.2565332 131.51450684 -847.51306641 131.02901367 -846.74707031 130.52880859 C-802.84137558 101.95035337 -756.75035742 76.54082633 -709 55 C-707.98083496 54.53674316 -706.96166992 54.07348633 -705.91162109 53.59619141 C-682.49791629 42.9758174 -658.58723347 33.38014296 -634.4375 24.5625 C-633.39722656 24.17884277 -632.35695313 23.79518555 -631.28515625 23.39990234 C-630.34414063 23.06297363 -629.403125 22.72604492 -628.43359375 22.37890625 C-627.21240845 21.93913452 -627.21240845 21.93913452 -625.96655273 21.49047852 C-624 21 -624 21 -622 22 C-627.88359217 24.81714371 -633.81946167 27.3595477 -639.9375 29.625 C-677.97880127 43.72603763 -715.51924455 59.72985399 -751.25390625 79.00390625 C-754.66971813 80.84091579 -758.13690068 82.5536473 -761.625 84.25 C-816.22597481 111.39519453 -868.50952702 146.83192522 -916 185 C-916.6403418 185.5141748 -917.28068359 186.02834961 -917.94042969 186.55810547 C-925.51372483 192.65078298 -933.02248253 198.81215478 -940.41821289 205.11938477 C-943.73698236 207.94686695 -947.10184014 210.70622288 -950.5 213.4375 C-955.2549105 217.30390167 -959.76661645 221.38528868 -964.234375 225.57592773 C-967.02823554 228.19517199 -969.85601274 230.75964928 -972.74951172 233.26879883 C-985.86465626 244.72505198 -998.1921682 257.0312848 -1010.48510742 269.35473633 C-1013.08722821 271.96227975 -1015.69473753 274.56435064 -1018.30273438 277.16601562 C-1019.98469617 278.84863735 -1021.66634821 280.53156878 -1023.34765625 282.21484375 C-1024.49778954 283.36194069 -1024.49778954 283.36194069 -1025.67115784 284.5322113 C-1029.75859189 288.63732802 -1033.68787338 292.82330434 -1037.45936584 297.22125244 C-1040.01033953 300.16649301 -1042.70169497 302.97876392 -1045.375 305.8125 C-1050.10196376 310.85910944 -1054.57509143 316.03334148 -1058.8984375 321.43359375 C-1060.98001427 323.97559363 -1063.1503838 326.39529335 -1065.375 328.8125 C-1069.43872779 333.27199954 -1073.15883977 337.93523727 -1076.85205078 342.69995117 C-1079.73731486 346.41621528 -1082.69858266 350.04224133 -1085.75 353.625 C-1092.2288078 361.33786643 -1098.16648652 369.45789907 -1104.16894531 377.54296875 C-1105.84914523 379.79757301 -1107.54164266 382.04197087 -1109.2421875 384.28125 C-1116.1153703 393.33744562 -1122.65545533 402.56689331 -1129 412 C-1130.09973145 413.63026123 -1130.09973145 413.63026123 -1131.22167969 415.29345703 C-1158.50832284 455.76870183 -1183.26039742 497.65227994 -1204.76806641 541.49902344 C-1205.6868664 543.36430031 -1206.61205296 545.22643386 -1207.54052734 547.08691406 C-1218.30537862 568.67769378 -1227.89666605 590.6611707 -1237 613 C-1237.2721936 613.66640503 -1237.54438721 614.33281006 -1237.8248291 615.01940918 C-1244.79215784 632.09288344 -1251.06026612 649.35151005 -1256.93359375 666.82714844 C-1257.87548182 669.62952419 -1258.82623757 672.42864013 -1259.78125 675.2265625 C-1262.8750504 684.33390753 -1265.7058822 693.49882224 -1268.35253906 702.74560547 C-1269.02709253 705.0943335 -1269.71220317 707.4398163 -1270.3984375 709.78515625 C-1279.94654803 742.57445355 -1288.17526529 775.86220001 -1293.60742188 809.59667969 C-1294.21928379 813.34243134 -1294.89248888 817.07679846 -1295.5625 820.8125 C-1296.59254136 826.62001754 -1297.58954804 832.43264806 -1298.5625 838.25 C-1298.73471069 839.27637573 -1298.73471069 839.27637573 -1298.91040039 840.32348633 C-1299.28005568 842.54798622 -1299.64116891 844.77372793 -1300 847 C-1300.15903809 847.97549805 -1300.31807617 848.95099609 -1300.48193359 849.95605469 C-1301.7406992 857.86727099 -1302.6870852 865.78164832 -1303.5 873.75 C-1303.73860541 876.057393 -1303.97820203 878.3646837 -1304.21875 880.671875 C-1304.3412915 881.85394531 -1304.46383301 883.03601563 -1304.59008789 884.25390625 C-1304.87410523 886.84947624 -1305.17444389 889.43739479 -1305.50170898 892.02734375 C-1306.81925688 902.50912494 -1307.55533561 912.95009683 -1308.0625 923.5 C-1308.17929534 925.86115985 -1308.29779991 928.22220713 -1308.41929626 930.58312988 C-1308.49350895 932.03114231 -1308.56501908 933.47929731 -1308.6330719 934.9276123 C-1308.80679224 938.37601972 -1309.07999158 941.77965086 -1309.5065155 945.20648193 C-1310.01687823 949.7354978 -1310.15440924 954.19852742 -1310.16113281 958.75292969 C-1310.16609772 959.57928925 -1310.17106262 960.4056488 -1310.17617798 961.25704956 C-1310.19070781 963.97866693 -1310.19760054 966.70022525 -1310.203125 969.421875 C-1310.20595238 970.37245033 -1310.20877975 971.32302567 -1310.21169281 972.30240631 C-1310.22667817 977.37283092 -1310.23590112 982.44322733 -1310.24023438 987.51367188 C-1310.24454586 991.60686521 -1310.25814563 995.69983899 -1310.28125 999.79296875 C-1310.76835049 1087.90086948 -1299.65942971 1176.48553676 -1274 1270 C-1273.79922852 1270.71865234 -1273.59845703 1271.43730469 -1273.39160156 1272.17773438 C-1272.28763361 1276.12646605 -1271.14810459 1280.06391707 -1270 1284 C-1269.64752197 1285.2171167 -1269.29504395 1286.4342334 -1268.93188477 1287.68823242 C-1256.8968714 1329.08120448 -1242.24788078 1369.49808791 -1225 1409 C-1224.72258972 1409.63625305 -1224.44517944 1410.2725061 -1224.15936279 1410.92803955 C-1210.13620134 1443.02787733 -1194.96590495 1474.95429184 -1177.0871582 1505.10107422 C-1176.54901489 1506.04104248 -1176.54901489 1506.04104248 -1176 1507 C-1175.61900146 1507.66016113 -1175.23800293 1508.32032227 -1174.84545898 1509.00048828 C-1171.98971915 1515.75431712 -1176.46116758 1526.30094265 -1178.25 1533 C-1178.56573975 1534.19971436 -1178.88147949 1535.39942871 -1179.20678711 1536.63549805 C-1181.084825 1543.72071439 -1183.04814532 1550.77293643 -1185.1574707 1557.79248047 C-1189.41515742 1571.98015228 -1193.10323913 1586.33543561 -1196.82006836 1600.67211914 C-1198.71306771 1607.95369566 -1200.69841842 1615.2054248 -1202.73046875 1622.44921875 C-1203.86926883 1626.51357228 -1204.97549184 1630.58628704 -1206.07788086 1634.66064453 C-1208.61318617 1644.02838279 -1211.2462273 1653.36338025 -1213.9375 1662.6875 C-1216.99353987 1673.28745518 -1219.83230856 1683.92899891 -1222.56396484 1694.61669922 C-1224.30109936 1701.3866347 -1226.14699079 1708.10436811 -1228.15917969 1714.79711914 C-1232.13116645 1728.03977486 -1235.60475836 1741.42819544 -1239.0625 1754.8125 C-1240.91779623 1761.9940226 -1242.88546876 1769.12002788 -1245.03320312 1776.21899414 C-1247.39161493 1784.12435308 -1249.39474049 1792.12450694 -1251.41381836 1800.12207031 C-1253.09629822 1806.73072993 -1254.97873857 1813.23765757 -1257.01586914 1819.74511719 C-1258.66559995 1825.20138392 -1260.04235453 1830.7242317 -1261.4375 1836.25 C-1263.54145224 1844.47678418 -1265.7129162 1852.66187585 -1268.15820312 1860.79345703 C-1272.41295337 1874.98173247 -1276.10329554 1889.33565316 -1279.82006836 1903.67211914 C-1281.71306771 1910.95369566 -1283.69841842 1918.2054248 -1285.73046875 1925.44921875 C-1286.86926883 1929.51357228 -1287.97549184 1933.58628704 -1289.07788086 1937.66064453 C-1291.61318617 1947.02838279 -1294.2462273 1956.36338025 -1296.9375 1965.6875 C-1299.99353987 1976.28745518 -1302.83230856 1986.92899891 -1305.56396484 1997.61669922 C-1307.29711597 2004.37111068 -1309.13144846 2011.07613099 -1311.14819336 2017.75097656 C-1313.25546354 2024.75021737 -1315.14594084 2031.8071696 -1317.03344727 2038.8684082 C-1317.39587524 2040.2155188 -1317.39587524 2040.2155188 -1317.765625 2041.58984375 C-1317.97993164 2042.39284912 -1318.19423828 2043.19585449 -1318.41503906 2044.02319336 C-1319 2046 -1319 2046 -1320 2048 C-1319.22325928 2047.75185547 -1318.44651855 2047.50371094 -1317.64624023 2047.24804688 C-1309.51497785 2044.69259386 -1301.34307726 2042.51210289 -1293.0625 2040.5 C-1282.4874102 2037.91350038 -1282.4874102 2037.91350038 -1272 2035 C-1263.81484511 2032.57786233 -1255.51112892 2030.61610747 -1247.2265625 2028.56640625 C-1241.45459195 2027.13264384 -1235.70302116 2025.68762871 -1230 2024 C-1221.84233261 2021.58907155 -1213.57140763 2019.61848416 -1205.31665039 2017.57080078 C-1198.03422555 2015.76297203 -1190.77084088 2013.91127543 -1183.52734375 2011.953125 C-1179.35614757 2010.82602437 -1175.17874489 2009.72372172 -1171 2008.625 C-1170.21109375 2008.4172998 -1169.4221875 2008.20959961 -1168.609375 2007.99560547 C-1164.17781667 2006.83028939 -1159.74426299 2005.67300949 -1155.30859375 2004.5234375 C-1146.62307361 2002.27061484 -1137.94588173 2000.00833976 -1129.3125 1997.5625 C-1120.26915806 1995.00401363 -1111.14706743 1992.77270739 -1102.0246582 1990.51586914 C-1095.27969062 1988.84071117 -1088.60092712 1987.06558047 -1081.9375 1985.09375 C-1074.76132477 1983.04341422 -1067.47903872 1981.36073494 -1060.23535156 1979.56860352 C-1053.33231408 1977.85390375 -1046.49217071 1976.04400479 -1039.671875 1974.02734375 C-1033.41653608 1972.27717978 -1027.10056636 1970.7656944 -1020.79492188 1969.20849609 C-1015.58342949 1967.91540066 -1010.4001945 1966.5853367 -1005.25 1965.0625 C-997.00372665 1962.63831878 -988.64983331 1960.63795702 -980.30883789 1958.56884766 C-973.12387998 1956.78518772 -965.95813094 1954.95871255 -958.8125 1953.0234375 C-954.77917584 1951.94072138 -950.73829067 1950.89013843 -946.69580078 1949.84228516 C-938.88102074 1947.8166069 -931.07966373 1945.76402961 -923.3125 1943.5625 C-914.26919754 1941.00388663 -905.14706141 1938.7727059 -896.0246582 1936.51586914 C-890.31982378 1935.09903522 -884.63695397 1933.66676431 -879 1932 C-870.84299195 1929.58926641 -862.57265168 1927.61944941 -854.31884766 1925.57080078 C-844.53841799 1923.14171721 -834.78646814 1920.64241921 -825.08984375 1917.89453125 C-814.30199713 1914.84611884 -803.45826649 1912.07834598 -792.56958008 1909.41088867 C-790.84130981 1908.9851355 -790.84130981 1908.9851355 -789.078125 1908.55078125 C-788.05106445 1908.29981689 -787.02400391 1908.04885254 -785.96582031 1907.7902832 C-782.97360492 1907.04393701 -782.97360492 1907.04393701 -780.05761719 1905.90307617 C-774.21372355 1904.17706511 -769.97980471 1904.59790326 -764.55984497 1907.41249084 C-763.59436234 1907.94113991 -763.59436234 1907.94113991 -762.609375 1908.48046875 C-761.9163327 1908.8445433 -761.22329041 1909.20861786 -760.50924683 1909.58372498 C-759.02340083 1910.3658487 -757.54083949 1911.15423896 -756.06134033 1911.94830322 C-752.91746878 1913.63385141 -749.75584304 1915.28468959 -746.59451294 1916.93719482 C-744.99372924 1917.77402412 -743.39369258 1918.61228396 -741.79440308 1919.45196533 C-701.04871174 1940.82895196 -658.00519501 1958.48172971 -614.42089844 1973.17382812 C-611.29912342 1974.23918579 -608.19703317 1975.35585561 -605.09399414 1976.47436523 C-598.42134205 1978.87434437 -591.73910203 1981.01142697 -584.8984375 1982.89453125 C-582.03118039 1983.6923183 -579.19038327 1984.55555843 -576.3515625 1985.44921875 C-539.45705898 1997.03996986 -501.82298865 2005.74788948 -463.8125 2012.75 C-462.77741302 2012.94095245 -461.74232605 2013.13190491 -460.6758728 2013.3286438 C-432.31747484 2018.53735214 -403.97275548 2021.94292903 -375.27838135 2024.68566895 C-373.12904262 2024.89174745 -370.97990388 2025.09992506 -368.83099365 2025.3104248 C-316.11153705 2030.47324029 -263.1092538 2030.46441238 -210.25927734 2027.13928223 C-207.2419386 2026.95326626 -204.22372866 2026.78466102 -201.20536804 2026.61618042 C-197.69891379 2026.41903623 -194.19318469 2026.21032051 -190.6875 2026 C-189.48955811 2025.9292627 -188.29161621 2025.85852539 -187.05737305 2025.78564453 C-180.03720272 2025.32768752 -173.13772845 2024.52513218 -166.18554688 2023.44506836 C-163.05781659 2023.00807784 -159.96407824 2022.75044304 -156.8125 2022.5625 C-150.5461717 2022.13559686 -144.42596003 2021.17813251 -138.23535156 2020.15869141 C-131.83991313 2019.11065649 -125.44147383 2018.26932465 -119.00390625 2017.52734375 C-79.1064214 2012.56481506 -38.46784085 2003.23064423 -0.01074219 1991.60302734 C2.52164524 1990.8435571 5.06214236 1990.11276622 7.60253906 1989.38061523 C67.60967184 1971.98691843 125.42665747 1949.43781594 181.43066406 1921.76123047 C184.51891821 1920.23738194 187.61302573 1918.72673113 190.7109375 1917.22265625 C202.52057109 1911.45372675 213.92540129 1905.0512839 225.32666016 1898.51806641 C228.42825844 1896.75681178 231.55598067 1895.04814728 234.68969727 1893.3449707 C267.13584458 1875.65351763 298.12814782 1854.7305482 328 1833 C328.7321875 1832.46761719 329.464375 1831.93523437 330.21875 1831.38671875 C344.48810345 1820.98980497 358.37313648 1810.22449795 372 1799 C373.79157706 1797.54155659 375.58324502 1796.08322483 377.375 1794.625 C383.07323938 1789.96133458 388.69878191 1785.21584931 394.30419922 1780.44140625 C396.00234846 1778.99800384 397.70590193 1777.56118577 399.41015625 1776.125 C407.44186297 1769.33077611 415.17456975 1762.2642908 422.81835938 1755.03808594 C424.43883789 1753.52423694 426.0724639 1752.02443619 427.71289062 1750.53222656 C436.72695583 1742.33064417 445.3720356 1733.78129162 453.97705078 1725.15332031 C456.38850966 1722.73646008 458.80532439 1720.3250471 461.22265625 1717.9140625 C462.78157102 1716.35448749 464.34017586 1714.7946026 465.8984375 1713.234375 C466.60898285 1712.52585388 467.3195282 1711.81733276 468.05160522 1711.08734131 C472.02568128 1707.094796 475.81849497 1703.00018506 479.49850464 1698.7350769 C481.1655493 1696.80869687 482.88700271 1694.94576186 484.6484375 1693.10546875 C485.25671387 1692.46561035 485.86499023 1691.82575195 486.49169922 1691.16650391 C487.11318848 1690.51343262 487.73467773 1689.86036133 488.375 1689.1875 C493.48096238 1683.78568515 498.33733848 1678.31128023 502.96875 1672.49609375 C505.02216169 1669.97276669 507.17188057 1667.58067727 509.375 1665.1875 C513.43451423 1660.73262438 517.15017899 1656.0739691 520.84106445 1651.31542969 C523.84054158 1647.45410593 526.91139127 1643.67635472 530.0625 1639.9375 C539.66228719 1628.48406473 548.4565311 1616.41353057 557.27246094 1604.35400391 C558.8299242 1602.23175111 560.40060032 1600.1202438 561.9765625 1598.01171875 C589.48604312 1560.91442214 613.35048471 1520.73194835 635 1480 C635.48645996 1479.09024414 635.97291992 1478.18048828 636.47412109 1477.24316406 C668.31563366 1417.60897516 696.17658693 1353.35496811 713.48681641 1287.91113281 C714.28213749 1284.9492996 715.14367358 1282.0071798 716 1279.0625 C717.99019269 1272.12070791 719.83449212 1265.14471171 721.65234375 1258.15625 C722.56415807 1254.65123306 723.49592171 1251.15232928 724.44140625 1247.65625 C733.75795426 1212.98717589 740.28569195 1177.57135685 745 1142 C745.23879883 1140.2214563 745.23879883 1140.2214563 745.48242188 1138.40698242 C748.66790477 1114.65375372 751.50158011 1091.07707335 752.76635742 1067.13842773 C752.99212753 1064.10574782 753.36793257 1061.11093478 753.75694275 1058.09568787 C756.02861932 1038.5088415 755.2875327 1018.38137459 755.3125 998.6875 C755.31444681 997.42141907 755.31444681 997.42141907 755.31643295 996.12976074 C755.35304168 964.59234178 754.05634801 933.40650365 751 902 C750.90334045 900.98798523 750.80668091 899.97597046 750.70709229 898.93328857 C746.07118415 850.50893502 738.55838737 802.27987304 727 755 C726.63773908 753.50621375 726.27560821 752.01239595 725.91357422 750.51855469 C724.85728515 746.16765863 723.79065605 741.81938087 722.71820068 737.47244263 C722.2904947 735.73739277 721.86435429 734.00195601 721.44000244 732.26608276 C718.81954295 721.57300182 715.85493687 711.06682907 712.46630859 700.59204102 C711.05998649 696.23317607 709.77070544 691.84637956 708.50390625 687.4453125 C705.90817152 678.49916813 702.96439138 669.68334221 699.9375 660.875 C699.51806122 659.65109558 699.51806122 659.65109558 699.09014893 658.40246582 C690.43025236 633.18837624 680.71092182 608.41674217 670 584 C669.73699097 583.39986084 669.47398193 582.79972168 669.20300293 582.18139648 C655.48632491 550.93094199 640.7251001 519.95889341 623.45605469 490.50195312 C621.96915793 487.94700378 620.51563866 485.37554485 619.0703125 482.796875 C607.81993153 462.75502866 595.4187584 443.49811487 582.6875 424.375 C582.18166382 423.61436249 581.67582764 422.85372498 581.15466309 422.07003784 C574.61445227 412.24737408 567.92826779 402.55294409 561 393 C560.38406982 392.14905762 559.76813965 391.29811523 559.13354492 390.42138672 C547.87203645 374.92720029 536.21249109 359.75676007 524 345 C522.56231259 343.22931882 521.12481798 341.45848108 519.6875 339.6875 C512.02574666 330.32759191 504.12922177 321.17150416 496 312.21484375 C494.20396471 310.22587498 492.44046697 308.21436806 490.6875 306.1875 C483.94764485 298.45787591 477.00254095 290.87793962 469.67211914 283.70458984 C468.03463147 282.03530398 466.52715435 280.30696565 465.015625 278.5234375 C460.59605812 273.44532781 455.85207454 268.70172741 451.0847168 263.9543457 C449.56508332 262.4400742 448.05087483 260.9205257 446.53710938 259.40039062 C441.70617681 254.56649871 436.81948625 249.85331134 431.62475586 245.40649414 C429.64918516 243.6963119 427.81447893 241.87928175 426 240 C422.87154036 236.82910002 419.63144648 233.8743004 416.25390625 230.97265625 C414.04045963 229.03541094 411.87813509 227.04915068 409.72216797 225.04833984 C404.59369376 220.29189622 399.35389246 215.75892564 393.90234375 211.37109375 C390.61036968 208.68168829 387.39995032 205.90829604 384.1875 203.125 C377.85370765 197.65766351 371.33715479 192.46448537 364.72363281 187.34130859 C363.04508587 186.03508523 361.37636493 184.71742749 359.7109375 183.39453125 C352.94147027 178.02168468 346.09179335 172.76099548 339.1875 167.5625 C338.43065918 166.99047852 337.67381836 166.41845703 336.89404297 165.82910156 C323.01785649 155.42556404 308.68812747 145.66385863 294.25 136.0625 C293.46596802 135.5405304 292.68193604 135.01856079 291.87414551 134.48077393 C279.73240298 126.40405252 267.53554204 118.45625598 255 111 C254.06365723 110.44199707 253.12731445 109.88399414 252.16259766 109.30908203 C201.28863579 79.09409046 148.28185206 53.0722347 93 32 C91.906875 31.58153809 90.81375 31.16307617 89.6875 30.73193359 C64.00896831 20.93817218 38.00850431 12.15034386 11.52050781 4.81616211 C10.2981543 4.47335205 9.07580078 4.13054199 7.81640625 3.77734375 C6.73818604 3.48077881 5.65996582 3.18421387 4.54907227 2.87866211 C2 2 2 2 0 0 Z " fill="#E1E1E1" transform="translate(1332,37)"/>
</svg>
