<?xml version="1.0" encoding="UTF-8"?>
<!DOCTYPE svg PUBLIC "-//W3C//DTD SVG 1.1//EN" "http://www.w3.org/Graphics/SVG/1.1/DTD/svg11.dtd">
<!-- Creator: CorelDRAW 2020 (64 Bit) -->
<svg xmlns="http://www.w3.org/2000/svg" xml:space="preserve" width="42.3332mm" height="42.3332mm" version="1.1" style="shape-rendering:geometricPrecision; text-rendering:geometricPrecision; image-rendering:optimizeQuality; fill-rule:evenodd; clip-rule:evenodd"
viewBox="0 0 4233.32 4233.32"
 xmlns:xlink="http://www.w3.org/1999/xlink"
 xmlns:xodm="http://www.corel.com/coreldraw/odm/2003">
 <defs>
  <style type="text/css">
   <![CDATA[
    .fil0 {fill:white}
   ]]>
  </style>
 </defs>
 <g id="Camada_x0020_1">
  <metadata id="CorelCorpID_0Corel-Layer"/>
  <g id="_1372597853728">
   <g id="_1984502809392">
    <g id="_2187047498832">
     <g id="_1682221676256">
      <g id="_2228111428656">
       <g id="_2493365681824">
        <g id="_1527776972672">
         <g id="_1527657011280">
          <g id="_2435878392624">
           <g id="_1570322531200">
            <g id="_1890499195168">
             <g id="_2226214002864">
              <g id="_2162754951984">
               <path class="fil0" d="M3688.77 2100.75c0,227.1 -22.82,261.03 -61.86,449.44l-50.13 147.8c-25.21,70.93 -108.78,222.07 -152.15,293.15 -5.52,9.01 -13.62,18.81 -20.98,28.5 -87.18,114.77 -85.62,125.45 -205.65,239.65 -54.17,51.54 -68.06,67.32 -132.06,115.35 -66.45,49.88 -166.67,120.1 -241.18,154.66 -23.85,11.06 -43.21,20.21 -66.89,32.06 -91.46,45.8 -194.88,74.93 -295.2,100.64 -306.84,78.6 -662.57,53.56 -958.08,-64.3 -87.6,-34.95 -92.07,-40.13 -158.89,-72 -21.02,-10.03 -34.88,-16.26 -55.76,-26.7 -57.15,-28.6 -46.89,-35.4 -117.25,-16.46 -22.51,6.08 -42.37,8.26 -62.34,14.62 -20.45,6.5 -46.37,10.25 -66.6,15.85 -41.15,11.39 -82.44,18.7 -124.76,29.18l-257.59 61.3c-80.3,21.49 -62.39,17.51 -47.17,-52.67 5.05,-23.25 7.07,-43.8 12.21,-64.78l81.11 -391.68c5.08,-26.78 9.67,-40.13 14.8,-67.65 11.44,-61.1 12.78,-53.89 -21.25,-115.39 -60.31,-109.07 -103.85,-211.33 -144.02,-334.28 -41.7,-127.7 -85.62,-387.68 -67.16,-552.44 10.06,-89.9 11.85,-181.89 38.37,-275 11.71,-41.12 19.09,-85.33 32.95,-126.47 53.58,-158.85 44.71,-113.05 90.43,-222.96 39.47,-94.9 153.97,-262.74 220.95,-334.31 14.53,-15.52 19.3,-25.2 35.64,-41.32 15.13,-14.93 24.82,-23.75 37.07,-39.9 14.48,-19.06 25.64,-22.66 42.8,-39.66 81.1,-80.3 169.63,-146.39 267.54,-205.27 205.41,-123.53 407.2,-193.63 645.31,-223.31 24.8,-3.1 47.97,-2.4 77.71,-4.77 24.44,-1.95 40.3,-4.15 71.94,-5.09l71.2 -0.16c182.24,10.11 171.96,7.86 345.93,44.54 233.5,49.23 449.51,170.2 636,315.1 16.73,13 24.35,24.65 39.91,37.06 18.13,14.48 24.1,19.53 40.63,36.33l43.58 38.9c14.65,17.67 19.27,24.1 36.18,40.76 17.58,17.33 23.11,26.59 38.54,43.94l71.22 88.21c23.31,31.08 43.51,55.94 63.82,90.13 20.85,35.1 39.75,64.81 59.83,99.59l63.46 134.44c8.01,16.81 6.16,8.23 12.31,26.19 50.65,147.72 97.04,281.83 109.72,445.54 4.13,53.2 5.81,98.44 5.81,153.64zm-3650.47 -76.96c0,267.58 8.48,414.65 83.11,670.08 32.16,110.12 78.47,217.54 126,319.54 16.45,35.28 -0.09,78.59 -8.87,117.71l-49.63 241.77c-32.16,124.18 -68.97,357.1 -101.08,492.66 -4.93,20.88 -7.34,36.41 -11.68,59.79 -10.78,58.01 -37.85,131.07 -37.85,187.56 0,55.07 47.75,76.96 93.45,76.96 43.58,0 88.87,-16.87 132.01,-27.42 42.09,-10.31 84.54,-22.24 128.7,-30.74l386.93 -91.38c38.58,-10.72 89.15,-21.47 128.69,-30.74l195.32 -46.57c118.48,-23.37 58.07,-18.74 179.66,32.16 163.55,68.45 325.88,115.46 501.9,141.31l143.71 15.74c194.15,20.57 394.6,-2.22 585.95,-36.94 144.98,-26.3 287.87,-78.55 421.58,-139.17 367.41,-166.56 691.9,-447.74 899.95,-793.35 103.48,-171.89 159.54,-305.22 223.97,-496.24 42.37,-125.63 79.45,-353.5 79.45,-486.82 0,-99.71 3.53,-203.11 -6.37,-301.5l-69.38 -359.43c-5.13,-20.39 -8.15,-23.83 -14.59,-45.87 -10.04,-34.25 -20.11,-58.97 -31.25,-89.71 -72.02,-198.65 -174.4,-387.22 -304.86,-552.79 -53.81,-68.28 -109.62,-135.37 -171.43,-196.92 -81.32,-80.98 -170.66,-159.15 -266.41,-222.88 -152.5,-101.48 -304.68,-191.38 -479.28,-251.92l-135.31 -46.11c-282.44,-81.09 -589.89,-98.37 -881.32,-56.65 -39.92,5.72 -66.5,12.13 -102.82,18.13 -268.22,44.21 -547.29,184.79 -770.77,334.25 -70.17,46.93 -153.96,114.96 -203.7,164.66l-151.18 156.69c-11.78,13.26 -17.97,17.6 -28.81,31.65 -17.44,22.63 -36.23,42.7 -54.22,66.73 -53.5,71.51 -108.07,143.64 -151.08,222.77 -30.17,55.52 -59.73,104.81 -85.46,161.93l-71.48 170.43c-22.84,62.62 -39.38,120.51 -58.79,188.6 -19.53,68.48 -33.41,135.05 -41.77,205.62 -8.65,73.31 -20.99,139.49 -20.99,226.41z"/>
               <path class="fil0" d="M1055.36 1583.98c0,167.79 8.66,231.77 70.62,385.7 35.97,89.36 82.74,165.68 134.97,244.35 59.97,90.3 110.36,137.89 165.08,208.76 14.62,18.9 29.21,31.13 45.78,47.66l142.84 143.06c11.3,10.89 13.33,10.94 24.3,19.7l233.17 190.14c57.88,43.75 168.59,110.75 235.08,144.25l128.52 58.4c23.77,9.21 47.13,18.33 68.76,24.71 155.38,45.83 260.61,70.81 437.27,49.22 12.84,-1.57 36.08,-6.31 50.32,-10.16 109.5,-29.6 151.99,-57.52 235.4,-132.94l85.65 -101.27c39.35,-52.6 80.84,-100.58 80.84,-166.56 0,-62.87 -44.77,-116.06 -98.72,-137.67 -44.38,-17.78 -138.92,-38.02 -187.17,-54.76l-94.64 -26.28c-97.44,-26.24 -188.84,-81.21 -275.2,2.8 -117.38,114.21 -154.31,196.21 -329.46,90.56 -196.9,-118.77 -364.22,-280.52 -519.79,-447.79 -10.39,-11.2 -10.24,-13.32 -19.57,-24.4 -113.95,-135.13 -102.24,-183.35 -6.12,-306.39 96.7,-123.75 83.11,-143.61 15.19,-296.44l-96.13 -217.23c-8.71,-21.24 -20.83,-52.22 -32.32,-72.14 -24.93,-43.24 -62.12,-80.65 -128.47,-84.4 -28.36,-1.6 -56.62,6.29 -80.1,18.5 -24.76,12.9 -35.6,29.91 -56.81,47.67 -111.77,93.57 -229.29,242.64 -229.29,402.95z"/>
              </g>
             </g>
            </g>
           </g>
          </g>
         </g>
        </g>
       </g>
      </g>
     </g>
    </g>
   </g>
  </g>
 </g>
</svg>
