<?xml version="1.0" standalone="no"?>
<!DOCTYPE svg PUBLIC "-//W3C//DTD SVG 20010904//EN"
 "http://www.w3.org/TR/2001/REC-SVG-20010904/DTD/svg10.dtd">
<svg version="1.0" xmlns="http://www.w3.org/2000/svg"
 width="512.000000pt" height="512.000000pt" viewBox="0 0 512.000000 512.000000"
 preserveAspectRatio="xMidYMid meet">

<g transform="translate(0.000000,512.000000) scale(0.100000,-0.100000)"
fill="#ed0000" stroke="none">
<path d="M2355 5099 c-479 -44 -933 -220 -1323 -511 -109 -81 -355 -322 -452
-442 -105 -130 -228 -323 -295 -461 -402 -828 -337 -1780 171 -2541 106 -160
190 -259 357 -420 324 -315 687 -519 1122 -630 767 -197 1551 -35 2200 454 98
75 396 379 476 487 243 328 394 679 470 1091 18 97 23 168 27 378 4 279 -2
368 -44 573 -78 386 -278 804 -526 1098 -78 93 -271 285 -369 367 -163 138
-498 327 -734 414 -138 51 -376 109 -522 128 -156 20 -428 28 -558 15z m480
-509 c337 -32 743 -206 1035 -444 333 -271 586 -674 694 -1105 43 -168 48
-240 43 -538 -4 -270 -5 -281 -35 -398 -95 -372 -237 -644 -481 -920 -269
-305 -638 -520 -1081 -631 -115 -29 -115 -29 -440 -29 l-325 0 -125 32 c-319
81 -544 188 -804 383 -352 263 -619 672 -736 1124 -46 179 -53 259 -47 555 5
285 15 354 80 551 249 754 841 1272 1612 1410 117 21 434 26 610 10z"/>
<path d="M1537 3582 c-119 -120 -217 -222 -217 -227 0 -5 186 -196 412 -422
l413 -413 -413 -413 c-226 -226 -412 -417 -412 -422 0 -6 99 -109 220 -230
l220 -220 417 418 418 417 418 -417 417 -418 220 220 c121 121 220 224 220
230 0 5 -186 196 -412 422 l-413 413 413 413 c226 226 412 417 412 422 0 6
-99 109 -220 230 l-220 220 -418 -418 -417 -417 -405 406 c-223 223 -412 409
-421 414 -12 7 -63 -39 -232 -208z"/>
</g>
</svg>
